<?xml version="1.0" encoding="UTF-8" standalone="no"?>
<svg width="1520px" height="288px" viewBox="0 0 1520 288" version="1.1" xmlns="http://www.w3.org/2000/svg" xmlns:xlink="http://www.w3.org/1999/xlink">
    <!-- Generator: Sketch 46.2 (44496) - http://www.bohemiancoding.com/sketch -->
    <title>illustration</title>
    <desc>Created with Sketch.</desc>
    <defs></defs>
    <g id="Landing-Page" stroke="none" stroke-width="1" fill="none" fill-rule="evenodd">
        <g id="Version-3" transform="translate(0.000000, -11764.000000)">
            <g id="sign-up" transform="translate(0.000000, 11234.000000)">
                <g id="read-full-report">
                    <g id="bg">
                        <g id="illustration" transform="translate(0.000000, 530.000000)">
                            <path d="M0,136.098056 C59.8500212,59.0922755 164.255058,82.8236167 217.550077,96.3601674 C404.757144,143.847065 570.361202,151.717153 839.800298,151.717153 C973.170845,151.717153 1448.69256,136.291781 1520.00054,122.052977 L1520.00054,164.163999 L0,164.163999 L0,136.098056 Z" id="Fill-6" fill-opacity="0.5" fill="#FF6800" transform="translate(760.000270, 123.082000) scale(-1, 1) translate(-760.000270, -123.082000) "></path>
                            <path d="M117,169.062181 C338.229043,140.355671 525.724694,24.9599113 726.817049,73.979896 C830.746255,99.2899178 864.770313,137.519203 918.704985,144.746135 C1026.00914,159.073935 1297.00665,139.291389 1346,125.012076 L1346,167.171202 L581.742471,167.171202 L117,169.062181 Z" id="Fill-8" fill-opacity="0.3" fill="#FF6800" transform="translate(731.500000, 115.531090) scale(-1, 1) translate(-731.500000, -115.531090) "></path>
                            <path d="M1520.00054,102.928452 C1416.1845,26.9728437 1342.44548,11.6238921 1260.22295,3.96914507 C918.327326,-27.9124818 547.998194,142.741028 230.479582,142.741028 C166.991059,142.741028 70.452025,122.104777 0,105.970622 L0,287.163962 L1520.00054,287.163962 L1520.00054,102.928452 Z" id="Fill-10" fill="#22394F" transform="translate(760.000270, 143.581981) scale(-1, 1) translate(-760.000270, -143.581981) "></path>
                        </g>
                    </g>
                </g>
            </g>
        </g>
    </g>
</svg>