<?xml version="1.0" encoding="UTF-8" standalone="no"?>
<svg width="423px" height="423px" viewBox="0 0 423 423" version="1.1" xmlns="http://www.w3.org/2000/svg" xmlns:xlink="http://www.w3.org/1999/xlink">
    <!-- Generator: Sketch 46.2 (44496) - http://www.bohemiancoding.com/sketch -->
    <title>icon thin</title>
    <desc>Created with Sketch.</desc>
    <defs>
        <path d="M69.327293,0 L311.327293,0 L311.327293,458 C169.418479,455.859619 65.6427151,455.622829 -3.41060513e-13,457.289631 C15.4562094,372.451664 38.5653071,220.021787 69.327293,0 Z" id="path-1"></path>
        <polygon id="path-3" points="0 0 249 0 249 458 68.3441051 458"></polygon>
    </defs>
    <g id="Landing-Page" stroke="none" stroke-width="1" fill="none" fill-rule="evenodd">
        <g id="Version-3" transform="translate(-189.000000, -5069.000000)">
            <g id="section-3" transform="translate(-6.000000, 4197.000000)">
                <g id="slide---1" transform="translate(6.000000, 700.000000)">
                    <g id="bg">
                        <g id="illustration" transform="translate(0.000000, 158.000000)">
                            <g id="icon-thin" transform="translate(151.000000, 0.000000)">
                                <path d="M406.7368,225.129 C406.7368,312.199 336.1768,382.807 249.1268,382.807 C162.0728,382.807 91.5158,312.199 91.5158,225.129 C91.5158,138.054 162.0728,67.445 249.1268,67.445 C336.1768,67.445 406.7368,138.054 406.7368,225.129" id="Fill-1" fill="#FF6800"></path>
                                <path d="M249.1147,140.1436 C186.2457,140.1436 131.3717,174.3466 102.0167,225.1276 C131.3717,275.9096 186.2457,310.1086 249.1147,310.1086 C312.0107,310.1086 366.8527,275.9096 396.2347,225.1276 C366.8527,174.3466 312.0107,140.1436 249.1147,140.1436" id="Fill-3" fill="#FFFFFF"></path>
                                <path d="M310.438,225.1241 C310.438,218.1151 315.819,212.3331 322.672,211.7291 C321.968,207.6661 320.919,203.7181 319.557,199.9351 C313.294,202.8511 305.751,200.5381 302.24,194.4701 C298.74,188.3741 300.489,180.7011 306.136,176.7341 C303.489,173.6231 300.61,170.7331 297.499,168.1111 C293.544,173.7291 285.884,175.5091 279.792,171.9981 C273.722,168.4851 271.406,160.9191 274.321,154.6731 C270.514,153.3271 266.569,152.2701 262.526,151.5341 C261.918,158.3941 256.147,163.7801 249.139,163.7801 C242.127,163.7801 236.36,158.3941 235.75,151.5341 C231.687,152.2701 227.746,153.3271 223.967,154.6731 C226.872,160.9191 224.562,168.4851 218.489,171.9981 C212.409,175.5091 204.732,173.7291 200.774,168.1111 C197.667,170.7331 194.778,173.6231 192.155,176.7341 C197.769,180.7011 199.555,188.3741 196.031,194.4681 C192.523,200.5411 184.978,202.8511 178.718,199.9351 C177.377,203.7181 176.314,207.6661 175.58,211.7291 C182.439,212.3331 187.828,218.1191 187.828,225.1241 C187.828,232.1311 182.439,237.9151 175.58,238.5201 C176.314,242.5821 177.377,246.5261 178.718,250.3081 C184.974,247.3971 192.523,249.7101 196.031,255.7821 C199.557,261.8741 197.769,269.5471 192.155,273.5141 C194.778,276.6251 197.667,279.5151 200.774,282.1371 C204.732,276.5211 212.409,274.7331 218.489,278.2521 C224.567,281.7641 226.872,289.3261 223.967,295.5771 C227.746,296.9231 231.687,297.9791 235.75,298.7181 C236.36,291.8531 242.131,286.4691 249.139,286.4691 C256.151,286.4691 261.918,291.8501 262.526,298.7181 C266.569,297.9791 270.514,296.9231 274.321,295.5771 C271.406,289.3261 273.722,281.7641 279.792,278.2521 C285.884,274.7321 293.544,276.5201 297.499,282.1371 C300.643,279.5151 303.493,276.6251 306.144,273.5141 C300.497,269.5471 298.744,261.8721 302.24,255.7821 C305.751,249.7091 313.294,247.3971 319.561,250.3081 C320.919,246.5261 321.968,242.5821 322.672,238.5201 C315.819,237.9151 310.438,232.1311 310.438,225.1241 M249.139,274.9901 C221.603,274.9901 199.296,252.6731 199.296,225.1241 C199.296,197.5811 221.603,175.2611 249.139,175.2611 C276.674,175.2611 298.98,197.5811 298.98,225.1241 C298.98,252.6731 276.674,274.9901 249.139,274.9901" id="Fill-5" fill="#2FA5F4"></path>
                                <path d="M269.0551,225.1295 C269.0551,236.1555 260.1351,245.0765 249.1381,245.0765 C238.1321,245.0765 229.1971,236.1555 229.1971,225.1295 C229.1971,214.1025 238.1321,205.1755 249.1381,205.1755 C260.1351,205.1755 269.0551,214.1025 269.0551,225.1295" id="Fill-7" fill="#1C2E3F"></path>
                                <path d="M284.1206,225.1261 C284.1206,244.4531 268.4526,260.1201 249.1256,260.1201 C229.7996,260.1201 214.1316,244.4531 214.1316,225.1261 C214.1316,205.7991 229.7996,190.1311 249.1256,190.1311 C268.4526,190.1311 284.1206,205.7991 284.1206,225.1261 Z" id="Stroke-11" stroke="#1C2E3F" stroke-width="2" stroke-dasharray="4.071,8.141"></path>
                                <g id="Group-2" transform="translate(245.500000, 229.000000) scale(-1, 1) translate(-245.500000, -229.000000) ">
                                    <g id="dashed-orange">
                                        <mask id="mask-2" fill="white">
                                            <use xlink:href="#path-1"></use>
                                        </mask>
                                        <g id="Rectangle-6" transform="translate(155.663647, 229.000000) scale(-1, 1) translate(-155.663647, -229.000000) "></g>
                                        <path d="M440.2524,225.1261 C440.2524,335.1011 351.1004,424.2521 241.1264,424.2521 C131.1514,424.2521 42.0004,335.1011 42.0004,225.1261 C42.0004,115.1511 131.1514,26.0001 241.1264,26.0001 C351.1004,26.0001 440.2524,115.1511 440.2524,225.1261 Z" stroke="#FF6800" stroke-width="24" stroke-dasharray="3.972,15.888" mask="url(#mask-2)"></path>
                                    </g>
                                    <g id="dashed-orange" transform="translate(242.000000, 0.000000)">
                                        <mask id="mask-4" fill="white">
                                            <use xlink:href="#path-3"></use>
                                        </mask>
                                        <g id="Rectangle-6"></g>
                                        <path d="M198.2524,225.1261 C198.2524,335.1011 109.1004,424.2521 -0.8736,424.2521 C-110.8486,424.2521 -199.9996,335.1011 -199.9996,225.1261 C-199.9996,115.1511 -110.8486,26.0001 -0.8736,26.0001 C109.1004,26.0001 198.2524,115.1511 198.2524,225.1261 Z" stroke="#1C2E3F" stroke-width="24" stroke-dasharray="3.972,15.888" mask="url(#mask-4)"></path>
                                    </g>
                                </g>
                            </g>
                        </g>
                    </g>
                </g>
            </g>
        </g>
    </g>
</svg>