<?xml version="1.0" encoding="UTF-8" standalone="no"?>
<svg width="420px" height="351px" viewBox="0 0 420 351" version="1.1" xmlns="http://www.w3.org/2000/svg" xmlns:xlink="http://www.w3.org/1999/xlink">
    <!-- Generator: Sketch 46.2 (44496) - http://www.bohemiancoding.com/sketch -->
    <title>chart</title>
    <desc>Created with Sketch.</desc>
    <defs></defs>
    <g id="Landing-Page" stroke="none" stroke-width="1" fill="none" fill-rule="evenodd">
        <g id="Version-3" transform="translate(-198.000000, -10008.000000)">
            <g id="section-5" transform="translate(0.000000, 9139.000000)">
                <g id="slide---1" transform="translate(0.000000, 698.000000)">
                    <g id="bg">
                        <g id="chart" transform="translate(198.000000, 171.000000)">
                            <g id="bars" transform="translate(0.000000, 0.906000)">
                                <g id="dashes" transform="translate(0.000000, 66.623473)" stroke="#1C2E3F" stroke-width="1.81" stroke-dasharray="3.619,7.239" opacity="0.3">
                                    <path d="M-0.0001,149.948018 L419.9999,149.948018" id="Stroke-4"></path>
                                    <path d="M-0.0001,199.948018 L419.9999,199.948018" id="Stroke-4"></path>
                                    <path d="M-0.0001,100.068204 L419.9999,100.068204" id="Stroke-7"></path>
                                    <path d="M-0.0001,50.1887275 L419.9999,50.1887275" id="Stroke-10"></path>
                                    <path d="M-0.0001,0.308744982 L419.9999,0.308744982" id="Stroke-13"></path>
                                </g>
                                <polygon id="Fill-16" fill="#FF6800" opacity="0.65" points="36 316.250665 56 316.250665 56 54.8167819 36 54.8167819"></polygon>
                                <polygon id="Fill-18" fill="#FF6800" opacity="0.7" points="83 316.250665 103 316.250665 103 50.6001064 83 50.6001064"></polygon>
                                <polygon id="Fill-20" fill="#FF6800" opacity="0.75" points="129.286 316.330782 149.286 316.330782 149.286 42.2460288 129.286 42.2460288"></polygon>
                                <polygon id="Fill-22" fill="#FF6800" opacity="0.8" points="175.929 316.330782 195.929 316.330782 195.929 33.8126778 175.929 33.8126778"></polygon>
                                <polygon id="Fill-24" fill="#FF6800" opacity="0.85" points="222.572 316.330782 242.572 316.330782 242.572 25.3793267 222.572 25.3793267"></polygon>
                                <polygon id="Fill-26" fill="#FF6800" opacity="0.95" points="315.857 316.330782 335.857 316.330782 335.857 8.51262456 315.857 8.51262456"></polygon>
                                <polygon id="Fill-28" fill="#FF6800" opacity="0.9" points="269.214 316.330782 289.214 316.330782 289.214 16.9459756 269.214 16.9459756"></polygon>
                                <polygon id="Fill-31" fill="#FF6800" points="362.5 316.331625 382.5 316.331625 382.5 0.0801168351 362.5 0.0801168351"></polygon>
                            </g>
                            <path d="M0,317 L420,317" id="Stroke-32" stroke="#1C2E3F" stroke-width="1.81"></path>
                            <text id="2016" font-family="InterFace-Regular, InterFace" font-size="14" font-weight="normal" fill="#1C2E3F">
                                <tspan x="29" y="350">2016</tspan>
                            </text>
                            <text id="2017" font-family="InterFace-Regular, InterFace" font-size="14" font-weight="normal" fill="#1C2E3F">
                                <tspan x="357" y="350">2017</tspan>
                            </text>
                        </g>
                    </g>
                </g>
            </g>
        </g>
    </g>
</svg>