<?xml version="1.0" encoding="UTF-8" standalone="no"?>
<svg width="427px" height="444px" viewBox="0 0 427 444" version="1.1" xmlns="http://www.w3.org/2000/svg" xmlns:xlink="http://www.w3.org/1999/xlink">
    <!-- Generator: Sketch 46.2 (44496) - http://www.bohemiancoding.com/sketch -->
    <title>icon thin</title>
    <desc>Created with Sketch.</desc>
    <defs></defs>
    <g id="Landing-Page" stroke="none" stroke-width="1" fill="none" fill-rule="evenodd">
        <g id="Version-3" transform="translate(-895.000000, -1562.000000)">
            <g id="section-1" transform="translate(0.000000, 699.000000)">
                <g id="slide---text-left" transform="translate(0.000000, 700.000000)">
                    <g id="bg">
                        <g id="icon-thin" transform="translate(895.000000, 163.000000)">
                            <path d="M369.252,193.55581 C369.252,274.043646 304.444,339.292517 224.5,339.292517 C144.556,339.292517 79.748,274.043646 79.748,193.55581 C79.748,113.067973 144.556,47.819102 224.5,47.819102 C304.444,47.819102 369.252,113.067973 369.252,193.55581 Z" id="Stroke-1" stroke="#FFFFFF" stroke-width="2" stroke-dasharray="3.989,7.978"></path>
                            <path d="M299,372.516 C299,390.860952 266.101,405.741497 225.508,405.741497 C184.912,405.741497 152,390.860952 152,372.516 C152,354.173061 184.912,339.292517 225.508,339.292517 C266.101,339.292517 299,354.173061 299,372.516" id="Fill-3" fill="#1C2E3F"></path>
                            <path d="M226.5264,90.6122449 C169.3604,90.6122449 123.0004,137.211102 123.0004,194.601878 C123.0004,218.539619 131.6834,239.989551 144.4404,257.975075 L226.5264,373.52381 L308.5844,257.965007 C321.3544,239.979483 330.0004,218.471156 330.0004,194.601878 C330.0004,137.211102 283.6974,90.6122449 226.5264,90.6122449" id="Fill-5" fill="#FF6800"></path>
                            <path d="M299,193.809524 C299,234.732027 266.147,267.809524 225.531,267.809524 C184.956,267.809524 152,234.732027 152,193.809524 C152,152.967565 184.956,119.809524 225.531,119.809524 C266.147,119.809524 299,152.967565 299,193.809524" id="Fill-7" fill="#FFFFFF"></path>
                            <path d="M209.313,148.586463 C206.348,152.439497 203.8,157.306381 201.806,162.951524 C198.221,162.245755 194.67,161.377891 191.17,160.340884 C196.188,155.123633 202.378,151.061184 209.313,148.586463 L209.313,148.586463 Z M258.86,160.337864 C255.401,161.362789 251.895,162.226626 248.353,162.928367 C246.457,157.377864 244.044,152.583469 241.241,148.76366 C247.967,151.252476 253.969,155.251497 258.86,160.337864 L258.86,160.337864 Z M249.801,218.91868 C251.548,212.43185 252.638,205.135551 252.919,197.33283 L271.965,197.33283 C271.186,206.620585 267.744,215.151224 262.405,222.148503 C258.257,220.856776 254.052,219.768422 249.801,218.91868 L249.801,218.91868 Z M247.675,225.572639 C250.907,226.194844 254.114,226.949946 257.287,227.841973 C252.7,232.190354 247.258,235.631605 241.234,237.85966 C243.717,234.478816 245.893,230.332803 247.675,225.572639 L247.675,225.572639 Z M202.504,225.543442 C204.384,230.398245 206.687,234.618762 209.32,238.036857 C203.089,235.814844 197.461,232.309156 192.741,227.836939 C195.964,226.93283 199.222,226.17068 202.504,225.543442 L202.504,225.543442 Z M197.084,197.33283 C197.375,205.127497 198.502,212.418762 200.309,218.900558 C196.029,219.752313 191.796,220.84268 187.62,222.141456 C182.282,215.144177 178.841,206.616558 178.062,197.33283 L197.084,197.33283 Z M197.044,190.285211 L177.986,190.285211 C178.55,181.321646 181.596,173.031633 186.44,166.096776 C190.83,167.515361 195.283,168.704395 199.797,169.625619 C198.214,175.902027 197.251,182.875143 197.044,190.285211 L197.044,190.285211 Z M222,172.102354 L222,190.285211 L203.999,190.285211 C204.214,183.318136 205.163,176.702435 206.683,170.808612 C211.738,171.549619 216.85,171.981537 222,172.102354 L222,172.102354 Z M222,146.701728 L222,165.157429 C217.575,165.047687 213.16,164.694299 208.776,164.099279 C212.049,155.261565 216.727,148.883469 222,146.701728 L222,146.701728 Z M229,165.138299 L229,146.759116 C234.027,148.99019 238.48,155.315932 241.608,164.048939 C237.43,164.629864 233.221,164.999361 229,165.138299 L229,165.138299 Z M246.235,190.285211 L229,190.285211 L229,172.083224 C233.922,171.93019 238.805,171.487197 243.636,170.767333 C245.107,176.671224 246.026,183.30102 246.235,190.285211 L246.235,190.285211 Z M229,216.542626 L229,197.33283 L246.2,197.33283 C245.906,204.719741 244.818,211.687823 243.127,217.787034 C238.443,217.111469 233.727,216.690626 229,216.542626 L229,216.542626 Z M229,223.475469 C232.978,223.607361 236.947,223.943633 240.894,224.471197 C237.818,232.219551 233.655,237.796231 229,239.863197 L229,223.475469 Z M222,223.457347 L222,239.918571 C217.11,237.897918 212.734,232.268884 209.514,224.415823 C213.658,223.877184 217.825,223.561048 222,223.457347 L222,223.457347 Z M222,216.52249 C217.052,216.639279 212.112,217.047034 207.208,217.741728 C205.461,211.653592 204.339,204.701619 204.035,197.33283 L222,197.33283 L222,216.52249 Z M252.957,190.285211 C252.757,182.870109 251.826,175.891959 250.297,169.612531 C254.787,168.691306 259.218,167.503279 263.585,166.089728 C268.431,173.025592 271.478,181.318626 272.04,190.285211 L252.957,190.285211 Z M279,193.309646 C279,163.66132 255.31,139.494027 226,138.963442 L226,138.938272 C225.883,138.938272 225.767,138.952367 225.649,138.955388 C225.439,138.952367 225.231,138.938272 225.021,138.938272 C225.017,138.938272 225.012,138.939279 225.007,138.939279 C225.005,138.939279 225.002,138.938272 225,138.938272 L225,138.939279 C195.23,138.950354 171,163.337129 171,193.309646 C171,223.281156 195.23,247.661891 225,247.672966 L225,247.672966 L225.007,247.672966 L225.021,247.672966 C225.231,247.672966 225.439,247.659878 225.649,247.657864 C225.767,247.659878 225.883,247.672966 226,247.672966 L226,247.648803 C255.31,247.119224 279,222.956966 279,193.309646 L279,193.309646 Z" id="Fill-9" fill="#1C2E3F"></path>
                            <path d="M209.313,148.586463 C206.348,152.439497 203.8,157.306381 201.806,162.951524 C198.221,162.245755 194.67,161.377891 191.17,160.340884 C196.188,155.123633 202.378,151.061184 209.313,148.586463 Z M258.86,160.337864 C255.401,161.362789 251.895,162.226626 248.353,162.928367 C246.457,157.377864 244.044,152.583469 241.241,148.76366 C247.967,151.252476 253.969,155.251497 258.86,160.337864 Z M249.801,218.91868 C251.548,212.43185 252.638,205.135551 252.919,197.33283 L271.965,197.33283 C271.186,206.620585 267.744,215.151224 262.405,222.148503 C258.257,220.856776 254.052,219.768422 249.801,218.91868 Z M247.675,225.572639 C250.907,226.194844 254.114,226.949946 257.287,227.841973 C252.7,232.190354 247.258,235.631605 241.234,237.85966 C243.717,234.478816 245.893,230.332803 247.675,225.572639 Z M202.504,225.543442 C204.384,230.398245 206.687,234.618762 209.32,238.036857 C203.089,235.814844 197.461,232.309156 192.741,227.836939 C195.964,226.93283 199.222,226.17068 202.504,225.543442 Z M197.084,197.33283 C197.375,205.127497 198.502,212.418762 200.309,218.900558 C196.029,219.752313 191.796,220.84268 187.62,222.141456 C182.282,215.144177 178.841,206.616558 178.062,197.33283 L197.084,197.33283 Z M197.044,190.285211 L177.986,190.285211 C178.55,181.321646 181.596,173.031633 186.44,166.096776 C190.83,167.515361 195.283,168.704395 199.797,169.625619 C198.214,175.902027 197.251,182.875143 197.044,190.285211 Z M222,172.102354 L222,190.285211 L203.999,190.285211 C204.214,183.318136 205.163,176.702435 206.683,170.808612 C211.738,171.549619 216.85,171.981537 222,172.102354 Z M222,146.701728 L222,165.157429 C217.575,165.047687 213.16,164.694299 208.776,164.099279 C212.049,155.261565 216.727,148.883469 222,146.701728 Z M229,165.138299 L229,146.759116 C234.027,148.99019 238.48,155.315932 241.608,164.048939 C237.43,164.629864 233.221,164.999361 229,165.138299 Z M246.235,190.285211 L229,190.285211 L229,172.083224 C233.922,171.93019 238.805,171.487197 243.636,170.767333 C245.107,176.671224 246.026,183.30102 246.235,190.285211 Z M229,216.542626 L229,197.33283 L246.2,197.33283 C245.906,204.719741 244.818,211.687823 243.127,217.787034 C238.443,217.111469 233.727,216.690626 229,216.542626 Z M229,223.475469 C232.978,223.607361 236.947,223.943633 240.894,224.471197 C237.818,232.219551 233.655,237.796231 229,239.863197 L229,223.475469 Z M222,223.457347 L222,239.918571 C217.11,237.897918 212.734,232.268884 209.514,224.415823 C213.658,223.877184 217.825,223.561048 222,223.457347 Z M222,216.52249 C217.052,216.639279 212.112,217.047034 207.208,217.741728 C205.461,211.653592 204.339,204.701619 204.035,197.33283 L222,197.33283 L222,216.52249 Z M252.957,190.285211 C252.757,182.870109 251.826,175.891959 250.297,169.612531 C254.787,168.691306 259.218,167.503279 263.585,166.089728 C268.431,173.025592 271.478,181.318626 272.04,190.285211 L252.957,190.285211 Z M279,193.309646 C279,163.66132 255.31,139.494027 226,138.963442 L226,138.938272 C225.883,138.938272 225.767,138.952367 225.649,138.955388 C225.439,138.952367 225.231,138.938272 225.021,138.938272 C225.017,138.938272 225.012,138.939279 225.007,138.939279 C225.005,138.939279 225.002,138.938272 225,138.938272 L225,138.939279 C195.23,138.950354 171,163.337129 171,193.309646 C171,223.281156 195.23,247.661891 225,247.672966 L225,247.672966 L225.007,247.672966 L225.021,247.672966 C225.231,247.672966 225.439,247.659878 225.649,247.657864 C225.767,247.659878 225.883,247.672966 226,247.672966 L226,247.648803 C255.31,247.119224 279,222.956966 279,193.309646 Z" id="Stroke-11" stroke="#FFFFFF" stroke-width="3"></path>
                            <path d="M383.0078,324.190476 C358.7298,324.190476 338.9998,343.920789 338.9998,368.22098 C338.9998,378.372571 342.6928,387.446884 348.1248,395.065361 L383.0078,444 L417.8958,395.05932 C423.3218,387.443864 426.9998,378.326259 426.9998,368.22098 C426.9998,343.920789 407.3248,324.190476 383.0078,324.190476" id="Fill-13" fill="#FF6800"></path>
                            <path d="M398,366.47619 C398,375.390422 390.834,382.585034 381.988,382.585034 C373.149,382.585034 366,375.390422 366,366.47619 C366,357.588136 373.149,350.367347 381.988,350.367347 C390.834,350.367347 398,357.588136 398,366.47619" id="Fill-15" fill="#FFFFFF"></path>
                            <path d="M68.0142,324.190476 C43.7242,324.190476 24.0002,343.920789 24.0002,368.22098 C24.0002,378.372571 27.6892,387.446884 33.1182,395.065361 L68.0142,444 L102.9122,395.05932 C108.3262,387.443864 112.0002,378.326259 112.0002,368.22098 C112.0002,343.920789 92.3202,324.190476 68.0142,324.190476" id="Fill-17" fill="#FF6800"></path>
                            <path d="M83,366.47619 C83,375.390422 75.831,382.585034 67.002,382.585034 C58.175,382.585034 51,375.390422 51,366.47619 C51,357.588136 58.175,350.367347 67.002,350.367347 C75.831,350.367347 83,357.588136 83,366.47619" id="Fill-19" fill="#FFFFFF"></path>
                            <path d="M222,15.1030476 C222,23.4423946 215.279,30.2040816 206.999,30.2040816 C198.715,30.2040816 192,23.4423946 192,15.1030476 C192,6.76370068 198.715,0 206.999,0 C215.279,0 222,6.76370068 222,15.1030476" id="Fill-21" fill="#FF6800"></path>
                            <path d="M103,152.033151 C103,161.471927 95.383,169.142756 85.995,169.142756 C76.609,169.142756 69,161.471927 69,152.033151 C69,142.579273 76.609,134.911464 85.995,134.911464 C95.383,134.911464 103,142.579273 103,152.033151" id="Fill-23" fill="#FF6800"></path>
                            <path d="M328,71.4829932 C328,85.380898 316.799,96.6530612 302.999,96.6530612 C289.186,96.6530612 278,85.380898 278,71.4829932 C278,57.587102 289.186,46.3129252 302.999,46.3129252 C316.799,46.3129252 328,57.587102 328,71.4829932" id="Fill-25" fill="#FFFFFF"></path>
                            <path d="M56,102.694884 C56,109.363946 50.625,114.77551 44.001,114.77551 C37.373,114.77551 32,109.363946 32,102.694884 C32,96.0228027 37.373,90.6122449 44.001,90.6122449 C50.625,90.6122449 56,96.0228027 56,102.694884" id="Fill-27" fill="#FFFFFF"></path>
                            <path d="M12,231.566639 C12,234.903184 9.315,237.605442 6.001,237.605442 C2.68,237.605442 0,234.903184 0,231.566639 C0,228.226068 2.68,225.52381 6.001,225.52381 C9.315,225.52381 12,228.226068 12,231.566639" id="Fill-29" fill="#FF6800"></path>
                            <path d="M413,143.474321 C413,145.980253 410.984,147.999899 408.501,147.999899 C406.013,147.999899 404,145.980253 404,143.474321 C404,140.970403 406.013,138.938675 408.501,138.938675 C410.984,138.938675 413,140.970403 413,143.474321" id="Fill-31" fill="#FFFFFF"></path>
                            <path d="M416,229.049633 C416,233.778585 412.191,237.605442 407.503,237.605442 C402.801,237.605442 399,233.778585 399,229.049633 C399,224.326721 402.801,220.489796 407.503,220.489796 C412.191,220.489796 416,224.326721 416,229.049633" id="Fill-33" fill="#FFFFFF"></path>
                            <path d="M376,162.100171 C376,167.108008 371.975,171.156362 367.005,171.156362 C362.025,171.156362 358,167.108008 358,162.100171 C358,157.093341 362.025,153.033913 367.005,153.033913 C371.975,153.033913 376,157.093341 376,162.100171" id="Fill-35" fill="#FF6800"></path>
                        </g>
                    </g>
                </g>
            </g>
        </g>
    </g>
</svg>