<?xml version="1.0" encoding="UTF-8" standalone="no"?>
<svg width="44px" height="60px" viewBox="0 0 44 60" version="1.1" xmlns="http://www.w3.org/2000/svg" xmlns:xlink="http://www.w3.org/1999/xlink">
    <!-- Generator: Sketch 46.2 (44496) - http://www.bohemiancoding.com/sketch -->
    <title>logo</title>
    <desc>Created with Sketch.</desc>
    <defs></defs>
    <g id="Landing-Page" stroke="none" stroke-width="1" fill="none" fill-rule="evenodd">
        <g id="Version-3" transform="translate(-739.000000, -11275.000000)" fill="#FF6800">
            <g id="sign-up" transform="translate(0.000000, 11234.000000)">
                <g id="read-full-report">
                    <g id="logo" transform="translate(739.000000, 41.000000)">
                        <path d="M22.7352791,41.591869 C22.7327736,39.0451441 24.8069275,35.7941397 25.8791473,34.5947948 C26.9660044,33.3841834 27.6343121,31.7897293 27.6323341,30.0389869 C27.6331253,28.3862358 27.0440703,26.8707773 26.0631033,25.6878079 C26.0048176,25.6101223 25.942444,25.5338777 25.8757187,25.4592052 C24.4152791,23.8871528 22.7329055,21.4511266 22.735411,18.462393 C22.7329055,15.9139651 24.8070593,12.6642707 25.8792791,11.4651878 C26.9661363,10.2548384 27.634444,8.65907424 27.6324659,6.90951092 C27.634444,3.13409607 24.5580923,0.0743580786 20.760422,0.0599475983 L20.7591033,0.058768559 C20.755411,0.0579825328 20.7515868,0.058768559 20.7471033,0.0599475983 C20.7424879,0.058768559 20.7398505,0.057720524 20.7356308,0.0573275109 L20.7349714,0.0599475983 C16.9388835,0.0726550218 13.8635868,3.13409607 13.8620044,6.91173799 C13.8621363,8.66169432 14.529389,10.2520873 15.6182242,11.4645328 C16.6905758,12.6632227 18.7594549,15.9146201 18.7638066,18.461476 C18.7611692,21.4499476 17.0813011,23.8870218 15.6212571,25.4592052 C15.5752352,25.5100349 15.5396308,25.5657118 15.4967736,25.6179825 C14.4791473,26.8114323 13.8626637,28.3533537 13.8620044,30.040559 C13.8621363,31.7907773 14.529389,33.3810393 15.6182242,34.5934847 C16.6905758,35.7924367 18.7594549,39.0450131 18.7638066,41.591738 C18.7611692,44.5794236 17.0813011,47.0161048 15.6212571,48.5886812 C14.5300484,49.8003406 13.8634549,51.3932227 13.8621363,53.1473712 C13.8606857,56.922524 16.9367736,59.9842271 20.7335209,59.9985066 L20.7348396,59.9994236 C20.7397187,59.9985066 20.745389,59.9977205 20.7494769,59.9985066 C20.7525099,59.9985066 20.7551473,59.9985066 20.7602901,60.0000786 L20.7589714,59.9985066 C24.5579604,59.9842271 27.6316747,56.923179 27.6327297,53.1467162 C27.6316747,51.3941397 26.962444,49.8019127 25.8755868,48.5886812 C24.4151473,47.0162358 22.7327736,44.5803406 22.7352791,41.591869" id="Fill-9"></path>
                        <path d="M38.1521165,30.7673913 C38.150658,28.2122051 40.2349795,24.9519679 41.3133375,23.7492027 C42.4053522,22.5363204 43.0774531,20.9358307 43.0769228,19.1800354 C43.0774531,15.3937034 39.9843836,12.3242477 36.1663096,12.3103202 L36.1652489,12.3103202 C36.1612712,12.3087434 36.1570283,12.3096632 36.1533158,12.3103202 C36.1486751,12.3103202 36.1453603,12.3076923 36.1413826,12.3076923 L36.1413826,12.3103202 C32.3233087,12.3231966 29.2311673,15.3937034 29.2307695,19.1826632 C29.2307695,20.9378016 29.9019423,22.5321158 30.9959459,23.7486772 C32.0735083,24.9515737 34.1543825,28.2120737 34.158095,30.7669971 C34.1563713,33.7630044 32.4658434,36.2088722 30.9996584,37.785317 C29.9027378,39.0005644 29.2319628,40.598689 29.2307695,42.357375 C29.2297088,46.144364 32.3226457,49.2148708 36.1401893,49.228667 L36.1405871,49.2302437 C36.1452278,49.228667 36.1515921,49.227353 36.1553046,49.2278786 C36.1576913,49.228667 36.161006,49.2293239 36.166177,49.2307692 L36.1651163,49.2285356 C39.984251,49.2148708 43.0757294,46.1442326 43.0767902,42.3556669 C43.0757294,40.5985576 42.4027004,39.0018784 41.3094924,37.7851856 C39.8421141,36.2080838 38.150658,33.7652381 38.1521165,30.7673913" id="Fill-12"></path>
                        <path d="M8.92166857,30.7673256 C8.92007755,28.2121485 11.0045845,24.9519229 12.082636,23.749162 C13.1747416,22.536284 13.8466842,20.9358 13.8454909,19.1800109 C13.8465516,15.3936924 10.7542634,12.3242477 6.93633546,12.3103201 L6.93474443,12.3103201 C6.93010395,12.3087434 6.92705448,12.3096632 6.922414,12.3103201 C6.91830385,12.3103201 6.91498922,12.3076923 6.91140941,12.3076923 L6.91074649,12.3103201 C3.09348151,12.3233279 0.00106068284,15.3936924 0,19.1827702 C0.000530341422,20.9379023 0.67114707,22.5322108 1.76510884,23.7487679 C2.84422105,24.9516601 4.92368976,28.2121485 4.92833025,30.7670628 C4.9260763,33.7630595 3.23614336,36.2089185 1.76842347,37.7853577 C0.672075167,39.0006008 0.0011932682,40.5987198 0.000530341422,42.3573995 C0,46.1445064 3.09149273,49.2150022 6.90915546,49.228667 L6.91074649,49.2302437 C6.91498922,49.228667 6.92095556,49.227353 6.92546346,49.2278786 C6.92798258,49.228667 6.93010395,49.2293239 6.93633546,49.2307692 L6.93474443,49.2285356 C10.7542634,49.2148708 13.8454909,46.1442436 13.8461538,42.3556914 C13.8454909,40.5985884 13.1724877,39.0019148 12.0793214,37.785095 C10.6119993,36.2079988 8.92007755,33.7651617 8.92166857,30.7673256" id="Fill-14"></path>
                    </g>
                </g>
            </g>
        </g>
    </g>
</svg>