<?xml version="1.0" encoding="utf-8"?>
<!-- Generator: Adobe Illustrator 21.0.0, SVG Export Plug-In . SVG Version: 6.00 Build 0)  -->
<svg version="1.1" id="opus_logo" xmlns="http://www.w3.org/2000/svg" xmlns:xlink="http://www.w3.org/1999/xlink" x="0px" y="0px"
	 viewBox="0 0 50 50" style="enable-background:new 0 0 50 50;" xml:space="preserve">
<style type="text/css">
	.st0{fill:#496885;}
</style>
<g>
	<path class="st0" d="M26.4,33.5c0-1.9,1.5-4.3,2.3-5.1c0.8-0.9,1.3-2.1,1.3-3.3c0-1.2-0.4-2.3-1.1-3.2c0-0.1-0.1-0.1-0.1-0.2
		c-1.1-1.2-2.3-2.9-2.3-5.1c0-1.9,1.5-4.3,2.3-5.1C29.5,10.5,30,9.3,30,8c0-2.8-2.2-5-5-5l0,0c0,0,0,0,0,0c0,0,0,0,0,0l0,0
		c-2.8,0-5,2.3-5,5c0,1.3,0.5,2.5,1.3,3.3c0.8,0.9,2.3,3.3,2.3,5.1c0,2.2-1.2,4-2.3,5.1c0,0-0.1,0.1-0.1,0.1c-0.7,0.9-1.2,2-1.2,3.2
		c0,1.3,0.5,2.5,1.3,3.3c0.8,0.9,2.3,3.3,2.3,5.1c0,2.2-1.2,4-2.3,5.1C20.5,39.5,20,40.7,20,42c0,2.8,2.2,5,5,5l0,0c0,0,0,0,0,0
		c0,0,0,0,0,0l0,0c2.8,0,5-2.3,5-5c0-1.3-0.5-2.5-1.3-3.3C27.7,37.5,26.4,35.7,26.4,33.5z"/>
	<path class="st0" d="M37,25c0-1.9,1.5-4.3,2.3-5.1c0.8-0.9,1.3-2.1,1.3-3.3c0-2.8-2.2-5-5-5h0c0,0,0,0,0,0c0,0,0,0,0,0v0
		c-2.8,0-5,2.3-5,5c0,1.3,0.5,2.5,1.3,3.3c0.8,0.9,2.3,3.3,2.3,5.1c0,2.2-1.2,4-2.3,5.1c-0.8,0.9-1.3,2.1-1.3,3.3c0,2.8,2.2,5,5,5
		l0,0c0,0,0,0,0,0c0,0,0,0,0,0l0,0c2.8,0,5-2.3,5-5c0-1.3-0.5-2.5-1.3-3.3C38.3,29,37,27.2,37,25z"/>
	<path class="st0" d="M15.9,25c0-1.9,1.5-4.3,2.3-5.1c0.8-0.9,1.3-2.1,1.3-3.3c0-2.8-2.2-5-5-5h0c0,0,0,0,0,0c0,0,0,0,0,0l0,0
		c-2.8,0-5,2.3-5,5c0,1.3,0.5,2.5,1.3,3.3c0.8,0.9,2.3,3.3,2.3,5.1c0,2.2-1.2,4-2.3,5.1c-0.8,0.9-1.3,2.1-1.3,3.3c0,2.8,2.2,5,5,5
		l0,0c0,0,0,0,0,0c0,0,0,0,0,0l0,0c2.8,0,5-2.3,5-5c0-1.3-0.5-2.5-1.3-3.3C17.1,29,15.9,27.2,15.9,25z"/>
</g>
</svg>
