<?xml version="1.0" encoding="UTF-8"?> <!-- Generator: Adobe Illustrator 19.1.0, SVG Export Plug-In . SVG Version: 6.00 Build 0) --> <svg xmlns="http://www.w3.org/2000/svg" xmlns:xlink="http://www.w3.org/1999/xlink" id="chart" x="0px" y="0px" viewBox="-82 266 446 262" style="enable-background:new -82 266 446 262;" xml:space="preserve"> <style type="text/css"> .st0{fill:none;stroke:#E8E8E8;stroke-miterlimit:10;} .st1{fill:#5BCAAE;} .st2{fill:#53B798;} .st3{fill:#7C858C;} .st4{fill:none;stroke:#7C858C;stroke-width:1.25;stroke-linecap:round;stroke-miterlimit:10;} </style> <line class="st0" x1="50.6" y1="306.5" x2="50.6" y2="487.5"></line> <line class="st0" x1="83.6" y1="306.5" x2="83.6" y2="487.5"></line> <line class="st0" x1="116.6" y1="306.5" x2="116.6" y2="487.5"></line> <line class="st0" x1="182.6" y1="306.5" x2="182.6" y2="487.5"></line> <line class="st0" x1="248.6" y1="306.5" x2="248.6" y2="487.5"></line> <line class="st0" x1="149.6" y1="305.5" x2="149.6" y2="486.5"></line> <line class="st0" x1="281.6" y1="306.5" x2="281.6" y2="487.5"></line> <line class="st0" x1="18.9" y1="305.9" x2="18.9" y2="486.9"></line> <line class="st0" x1="215.2" y1="305.5" x2="215.2" y2="486.5"></line> <rect x="19.4" y="326.5" class="st1" width="31.2" height="40"></rect> <rect x="19.4" y="376.5" class="st1" width="30.6" height="40"></rect> <rect x="19.4" y="426.5" class="st1" width="31.2" height="40"></rect> <rect x="50.6" y="326.5" class="st2" width="230.6" height="40"></rect> <rect x="50.2" y="376.5" class="st2" width="16.7" height="40"></rect> <rect x="50.2" y="426.5" class="st2" width="21.8" height="40"></rect> <path class="st3" d="M291.8,361.2v-8h1v8H291.8z"></path> <path class="st3" d="M295,361.2v-8h1l4,6v-6h0.9v8h-0.7l-4.3-6.3v6.3H295z"></path> <path class="st3" d="M308.8,359.8c-0.1,0.2-0.2,0.4-0.4,0.6c-0.2,0.2-0.3,0.4-0.5,0.5s-0.4,0.3-0.7,0.4c-0.3,0.1-0.6,0.1-0.9,0.1 c-0.5,0-0.9-0.1-1.3-0.2c-0.4-0.2-0.8-0.4-1.1-0.7c-0.3-0.3-0.5-0.8-0.7-1.3s-0.3-1.1-0.3-1.9c0-0.7,0.1-1.4,0.3-1.9 c0.2-0.5,0.4-1,0.7-1.3c0.3-0.3,0.6-0.6,1-0.7c0.4-0.2,0.8-0.2,1.2-0.2c0.6,0,1.1,0.1,1.6,0.4s0.8,0.7,1.1,1.2l-0.8,0.5 c-0.1-0.1-0.2-0.3-0.3-0.4c-0.1-0.1-0.3-0.3-0.4-0.4c-0.2-0.1-0.3-0.2-0.5-0.3c-0.2-0.1-0.4-0.1-0.6-0.1c-0.7,0-1.3,0.3-1.6,0.9 c-0.4,0.6-0.6,1.4-0.6,2.5c0,0.5,0.1,1,0.2,1.4s0.3,0.7,0.5,1c0.2,0.3,0.5,0.5,0.7,0.6c0.3,0.1,0.6,0.2,0.9,0.2c0.2,0,0.4,0,0.6-0.1 s0.3-0.1,0.5-0.3c0.1-0.1,0.3-0.2,0.4-0.4c0.1-0.1,0.2-0.3,0.3-0.5L308.8,359.8z"></path> <path class="st3" d="M310.4,361.2v-8h2.6c0.9,0,1.6,0.2,2,0.6c0.4,0.4,0.6,0.9,0.6,1.6c0,0.4,0,0.7-0.1,0.9 c-0.1,0.3-0.2,0.5-0.4,0.7c-0.2,0.2-0.4,0.3-0.6,0.4s-0.5,0.2-0.8,0.2l2.2,3.6h-1.1l-2.2-3.5h-1.2v3.5 C311.4,361.2,310.4,361.2,310.4,361.2z M311.3,356.9h1.5c1.1,0,1.7-0.5,1.7-1.5c0-0.5-0.1-0.8-0.4-1c-0.3-0.2-0.7-0.3-1.2-0.3h-1.6 V356.9z"></path> <path class="st3" d="M317.3,361.2v-8h4.7v0.8h-3.7v2.6h2.7v0.8h-2.7v3h4v0.8C322.3,361.2,317.3,361.2,317.3,361.2z"></path> <path class="st3" d="M322.8,361.2l3.1-8h0.6l3.1,8h-1l-0.9-2.5h-2.9l-0.9,2.5H322.8z M325,357.9h2.3l-1.2-3.1L325,357.9z"></path> <path class="st3" d="M331,359.5c0.2,0.3,0.5,0.6,0.9,0.8c0.4,0.2,0.8,0.3,1.2,0.3c0.2,0,0.4,0,0.6-0.1c0.2-0.1,0.4-0.1,0.5-0.2 s0.3-0.2,0.3-0.4c0.1-0.2,0.1-0.4,0.1-0.6c0-0.2-0.1-0.4-0.2-0.6s-0.2-0.3-0.4-0.5c-0.2-0.1-0.4-0.3-0.6-0.4s-0.5-0.2-0.7-0.3 c-0.3-0.1-0.5-0.2-0.8-0.4c-0.3-0.1-0.5-0.3-0.7-0.4c-0.2-0.2-0.4-0.4-0.5-0.6s-0.2-0.5-0.2-0.9c0-0.3,0.1-0.6,0.2-0.9 c0.1-0.3,0.3-0.5,0.6-0.6c0.3-0.1,0.5-0.3,0.8-0.4c0.3-0.1,0.6-0.1,0.9-0.1c0.5,0,1,0.1,1.5,0.3s0.8,0.5,1.1,0.9l-0.7,0.6 c-0.2-0.3-0.5-0.5-0.8-0.7c-0.3-0.2-0.7-0.3-1.1-0.3c-0.5,0-0.8,0.1-1.1,0.3c-0.3,0.2-0.4,0.5-0.4,0.8c0,0.2,0,0.4,0.1,0.5 s0.2,0.3,0.4,0.4c0.2,0.1,0.4,0.2,0.6,0.3s0.5,0.2,0.8,0.3c0.3,0.1,0.5,0.2,0.8,0.4c0.3,0.1,0.5,0.3,0.7,0.5 c0.2,0.2,0.4,0.4,0.5,0.6c0.1,0.2,0.2,0.5,0.2,0.9s-0.1,0.8-0.2,1.1c-0.1,0.3-0.3,0.5-0.6,0.7c-0.2,0.2-0.5,0.3-0.8,0.4 c-0.3,0.1-0.7,0.1-1,0.1s-0.5,0-0.8-0.1c-0.3-0.1-0.5-0.1-0.8-0.3c-0.2-0.1-0.5-0.2-0.7-0.4c-0.2-0.2-0.4-0.3-0.5-0.6L331,359.5z"></path> <path class="st3" d="M337.4,361.2v-8h4.7v0.8h-3.7v2.6h2.7v0.8h-2.7v3h4v0.8C342.4,361.2,337.4,361.2,337.4,361.2z"></path> <g> <path class="st3" d="M83.8,412.2v-8h1v8H83.8z"></path> <path class="st3" d="M87,412.2v-8h1l4,6v-6h0.9v8h-0.7l-4.3-6.3v6.3H87z"></path> <path class="st3" d="M100.8,410.8c-0.1,0.2-0.2,0.4-0.4,0.6c-0.2,0.2-0.3,0.4-0.5,0.5c-0.2,0.2-0.4,0.3-0.7,0.4 c-0.3,0.1-0.6,0.1-0.9,0.1c-0.5,0-0.9-0.1-1.3-0.2c-0.4-0.2-0.8-0.4-1.1-0.7c-0.3-0.3-0.5-0.8-0.7-1.3s-0.3-1.1-0.3-1.9 c0-0.7,0.1-1.4,0.3-1.9s0.4-1,0.7-1.3c0.3-0.3,0.6-0.6,1-0.7s0.8-0.2,1.2-0.2c0.6,0,1.1,0.1,1.6,0.4s0.8,0.7,1.1,1.2l-0.8,0.5 c-0.1-0.1-0.2-0.3-0.3-0.4c-0.1-0.1-0.3-0.3-0.4-0.4c-0.2-0.1-0.3-0.2-0.5-0.3c-0.2-0.1-0.4-0.1-0.6-0.1c-0.7,0-1.3,0.3-1.6,0.9 c-0.3,0.6-0.6,1.4-0.6,2.5c0,0.5,0.1,1,0.2,1.4c0.1,0.4,0.3,0.7,0.5,1c0.2,0.3,0.5,0.5,0.7,0.6c0.3,0.1,0.6,0.2,0.9,0.2 c0.2,0,0.4,0,0.6-0.1s0.3-0.2,0.5-0.3c0.1-0.1,0.3-0.2,0.4-0.4c0.1-0.1,0.2-0.3,0.3-0.5L100.8,410.8z"></path> <path class="st3" d="M102.4,412.2v-8h2.6c0.9,0,1.6,0.2,2,0.6c0.4,0.4,0.6,0.9,0.6,1.6c0,0.4,0,0.7-0.1,0.9 c-0.1,0.3-0.2,0.5-0.4,0.7c-0.2,0.2-0.4,0.3-0.6,0.4s-0.5,0.2-0.8,0.2l2.2,3.6h-1.1l-2.2-3.5h-1.2v3.5H102.4z M103.3,407.9h1.5 c1.1,0,1.7-0.5,1.7-1.5c0-0.5-0.1-0.8-0.4-1s-0.7-0.3-1.2-0.3h-1.6V407.9z"></path> <path class="st3" d="M109.3,412.2v-8h4.7v0.8h-3.7v2.6h2.7v0.8h-2.7v3h4v0.8H109.3L109.3,412.2z"></path> <path class="st3" d="M114.8,412.2l3.1-8h0.6l3.1,8h-1l-0.9-2.5h-2.9l-0.9,2.5H114.8z M117,408.9h2.3l-1.2-3.1L117,408.9z"></path> <path class="st3" d="M123,410.5c0.2,0.3,0.5,0.6,0.9,0.8c0.4,0.2,0.8,0.3,1.2,0.3c0.2,0,0.4,0,0.6-0.1s0.4-0.1,0.5-0.2 c0.1-0.1,0.3-0.2,0.3-0.4c0.1-0.2,0.1-0.4,0.1-0.6c0-0.2-0.1-0.4-0.2-0.6s-0.2-0.3-0.4-0.5c-0.2-0.2-0.4-0.3-0.6-0.4 c-0.2-0.1-0.5-0.2-0.7-0.3c-0.3-0.1-0.5-0.2-0.8-0.4c-0.3-0.1-0.5-0.3-0.7-0.5s-0.4-0.4-0.5-0.6s-0.2-0.5-0.2-0.9 c0-0.3,0.1-0.6,0.2-0.9s0.3-0.5,0.6-0.6s0.5-0.3,0.8-0.4c0.3-0.1,0.6-0.1,0.9-0.1c0.5,0,1,0.1,1.5,0.3c0.5,0.2,0.8,0.5,1.1,0.9 l-0.7,0.6c-0.2-0.3-0.5-0.5-0.8-0.7s-0.7-0.3-1.1-0.3c-0.5,0-0.8,0.1-1.1,0.3c-0.3,0.2-0.4,0.5-0.4,0.8c0,0.2,0,0.4,0.1,0.5 c0.1,0.1,0.2,0.3,0.4,0.4c0.2,0.1,0.4,0.2,0.6,0.3s0.5,0.2,0.8,0.3c0.3,0.1,0.5,0.2,0.8,0.4c0.3,0.1,0.5,0.3,0.7,0.5 c0.2,0.2,0.4,0.4,0.5,0.6s0.2,0.5,0.2,0.9c0,0.4-0.1,0.8-0.2,1.1c-0.1,0.3-0.3,0.5-0.6,0.7c-0.2,0.2-0.5,0.3-0.8,0.4 s-0.7,0.1-1,0.1s-0.5,0-0.8-0.1s-0.5-0.1-0.8-0.3c-0.3-0.2-0.5-0.2-0.7-0.4c-0.2-0.2-0.4-0.3-0.5-0.6L123,410.5z"></path> <path class="st3" d="M129.4,412.2v-8h4.7v0.8h-3.7v2.6h2.7v0.8h-2.7v3h4v0.8H129.4L129.4,412.2z"></path> </g> <g> <path class="st3" d="M83.8,463.2v-8h1v8H83.8z"></path> <path class="st3" d="M87,463.2v-8h1l4,6v-6h0.9v8h-0.7l-4.3-6.3v6.3H87z"></path> <path class="st3" d="M100.8,461.8c-0.1,0.2-0.2,0.4-0.4,0.6c-0.2,0.2-0.3,0.4-0.5,0.5c-0.2,0.2-0.4,0.3-0.7,0.4 c-0.3,0.1-0.6,0.1-0.9,0.1c-0.5,0-0.9-0.1-1.3-0.2c-0.4-0.2-0.8-0.4-1.1-0.7c-0.3-0.3-0.5-0.8-0.7-1.3s-0.3-1.1-0.3-1.9 c0-0.7,0.1-1.4,0.3-1.9s0.4-1,0.7-1.3c0.3-0.3,0.6-0.6,1-0.7s0.8-0.2,1.2-0.2c0.6,0,1.1,0.1,1.6,0.4s0.8,0.7,1.1,1.2l-0.8,0.5 c-0.1-0.1-0.2-0.3-0.3-0.4c-0.1-0.1-0.3-0.3-0.4-0.4c-0.2-0.1-0.3-0.2-0.5-0.3c-0.2-0.1-0.4-0.1-0.6-0.1c-0.7,0-1.3,0.3-1.6,0.9 c-0.3,0.6-0.6,1.4-0.6,2.5c0,0.5,0.1,1,0.2,1.4c0.1,0.4,0.3,0.7,0.5,1c0.2,0.3,0.5,0.5,0.7,0.6c0.3,0.1,0.6,0.2,0.9,0.2 c0.2,0,0.4,0,0.6-0.1s0.3-0.2,0.5-0.3c0.1-0.1,0.3-0.2,0.4-0.4c0.1-0.1,0.2-0.3,0.3-0.5L100.8,461.8z"></path> <path class="st3" d="M102.4,463.2v-8h2.6c0.9,0,1.6,0.2,2,0.6c0.4,0.4,0.6,0.9,0.6,1.6c0,0.4,0,0.7-0.1,0.9 c-0.1,0.3-0.2,0.5-0.4,0.7c-0.2,0.2-0.4,0.3-0.6,0.4s-0.5,0.2-0.8,0.2l2.2,3.6h-1.1l-2.2-3.5h-1.2v3.5H102.4z M103.3,458.9h1.5 c1.1,0,1.7-0.5,1.7-1.5c0-0.5-0.1-0.8-0.4-1s-0.7-0.3-1.2-0.3h-1.6V458.9z"></path> <path class="st3" d="M109.3,463.2v-8h4.7v0.8h-3.7v2.6h2.7v0.8h-2.7v3h4v0.8H109.3L109.3,463.2z"></path> <path class="st3" d="M114.8,463.2l3.1-8h0.6l3.1,8h-1l-0.9-2.5h-2.9l-0.9,2.5H114.8z M117,459.9h2.3l-1.2-3.1L117,459.9z"></path> <path class="st3" d="M123,461.5c0.2,0.3,0.5,0.6,0.9,0.8c0.4,0.2,0.8,0.3,1.2,0.3c0.2,0,0.4,0,0.6-0.1s0.4-0.1,0.5-0.2 c0.1-0.1,0.3-0.2,0.3-0.4c0.1-0.2,0.1-0.4,0.1-0.6c0-0.2-0.1-0.4-0.2-0.6s-0.2-0.3-0.4-0.5c-0.2-0.2-0.4-0.3-0.6-0.4 c-0.2-0.1-0.5-0.2-0.7-0.3c-0.3-0.1-0.5-0.2-0.8-0.4c-0.3-0.1-0.5-0.3-0.7-0.5s-0.4-0.4-0.5-0.6s-0.2-0.5-0.2-0.9 c0-0.3,0.1-0.6,0.2-0.9s0.3-0.5,0.6-0.6s0.5-0.3,0.8-0.4c0.3-0.1,0.6-0.1,0.9-0.1c0.5,0,1,0.1,1.5,0.3c0.5,0.2,0.8,0.5,1.1,0.9 l-0.7,0.6c-0.2-0.3-0.5-0.5-0.8-0.7s-0.7-0.3-1.1-0.3c-0.5,0-0.8,0.1-1.1,0.3c-0.3,0.2-0.4,0.5-0.4,0.8c0,0.2,0,0.4,0.1,0.5 c0.1,0.1,0.2,0.3,0.4,0.4c0.2,0.1,0.4,0.2,0.6,0.3s0.5,0.2,0.8,0.3c0.3,0.1,0.5,0.2,0.8,0.4c0.3,0.1,0.5,0.3,0.7,0.5 c0.2,0.2,0.4,0.4,0.5,0.6s0.2,0.5,0.2,0.9c0,0.4-0.1,0.8-0.2,1.1c-0.1,0.3-0.3,0.5-0.6,0.7c-0.2,0.2-0.5,0.3-0.8,0.4 s-0.7,0.1-1,0.1s-0.5,0-0.8-0.1s-0.5-0.1-0.8-0.3c-0.3-0.2-0.5-0.2-0.7-0.4c-0.2-0.2-0.4-0.3-0.5-0.6L123,461.5z"></path> <path class="st3" d="M129.4,463.2v-8h4.7v0.8h-3.7v2.6h2.7v0.8h-2.7v3h4v0.8H129.4L129.4,463.2z"></path> </g> <g> <path class="st3" d="M50,277.1v-8h2.5c0.4,0,0.8,0,1.1,0.1c0.3,0.1,0.7,0.2,1,0.3c0.4,0.2,0.7,0.5,0.9,0.9c0.2,0.4,0.3,0.8,0.3,1.2 c0,0.2,0,0.5-0.1,0.7c-0.1,0.2-0.2,0.5-0.3,0.7c-0.1,0.2-0.3,0.4-0.4,0.6c-0.2,0.2-0.4,0.3-0.6,0.4c-0.3,0.1-0.6,0.2-0.9,0.2 s-0.6,0.1-0.9,0.1h-1.1v2.9H50V277.1z M51.6,272.9h0.9c0.2,0,0.4,0,0.6,0s0.3-0.1,0.5-0.1c0.2-0.1,0.4-0.2,0.5-0.4 c0.1-0.2,0.1-0.4,0.1-0.6c0-0.2-0.1-0.4-0.2-0.6c-0.1-0.2-0.3-0.3-0.5-0.4c-0.1,0-0.3-0.1-0.4-0.1c-0.2,0-0.3,0-0.6,0h-1v2.2H51.6z "></path> <path class="st3" d="M57.2,277.1v-5.7h1.4l0.1,0.5c0.2-0.2,0.4-0.4,0.7-0.5c0.2-0.1,0.5-0.1,0.7-0.1c0.1,0,0.3,0,0.4,0 c0.2,0,0.3,0.1,0.5,0.1l-0.3,1.4c-0.2-0.1-0.3-0.1-0.5-0.1s-0.3-0.1-0.4-0.1c-0.2,0-0.4,0.1-0.6,0.2c-0.2,0.1-0.3,0.2-0.4,0.4v4.1 h-1.6V277.1z"></path> <path class="st3" d="M63.1,274.6c0,0.5,0.2,0.8,0.5,1.1c0.3,0.2,0.5,0.3,0.9,0.3c0.3,0,0.5,0,0.8-0.1c0.2-0.1,0.5-0.3,0.7-0.7 l1.2,0.7c-0.3,0.5-0.7,0.9-1.1,1.1s-0.9,0.3-1.5,0.3c-0.4,0-0.7-0.1-1.1-0.2c-0.3-0.1-0.6-0.3-0.9-0.6s-0.5-0.6-0.6-0.9 c-0.2-0.4-0.2-0.8-0.2-1.3s0.1-0.9,0.2-1.3s0.4-0.7,0.6-0.9c0.3-0.3,0.6-0.5,0.9-0.6s0.7-0.2,1.1-0.2c0.8,0,1.5,0.3,2,0.8 s0.7,1.4,0.8,2.6h-4.3V274.6z M65.4,273.5c0-0.4-0.2-0.7-0.4-0.9c-0.2-0.2-0.5-0.3-0.7-0.3c-0.1,0-0.3,0-0.4,0.1s-0.3,0.1-0.4,0.2 s-0.2,0.2-0.3,0.4s-0.1,0.3-0.1,0.5H65.4z"></path> <path class="st3" d="M70.2,277.1l-2.6-5.8h1.7l1.6,3.8l1.5-3.8H74l-2.5,5.8H70.2z"></path> <path class="st3" d="M75.9,270.7c-0.3,0-0.5-0.1-0.7-0.3c-0.2-0.2-0.2-0.4-0.2-0.6c0-0.2,0.1-0.4,0.2-0.6c0.2-0.2,0.4-0.3,0.7-0.3 c0.3,0,0.5,0.1,0.7,0.3c0.2,0.2,0.2,0.4,0.2,0.6c0,0.2-0.1,0.4-0.2,0.6C76.4,270.6,76.2,270.7,75.9,270.7z M75.1,277.1v-5.7h1.6 v5.8h-1.6V277.1z"></path> <path class="st3" d="M79.8,277c-0.4-0.2-0.7-0.4-0.9-0.7c-0.2-0.3-0.4-0.6-0.5-1c-0.1-0.4-0.2-0.7-0.2-1.1c0-0.4,0.1-0.7,0.2-1.1 s0.3-0.7,0.5-1c0.2-0.3,0.5-0.5,0.9-0.7c0.4-0.2,0.8-0.3,1.3-0.3s0.9,0.1,1.3,0.3c0.4,0.2,0.7,0.4,0.9,0.7c0.2,0.3,0.4,0.6,0.5,1 s0.2,0.7,0.2,1.1c0,0.4-0.1,0.7-0.2,1.1c-0.1,0.4-0.3,0.7-0.5,1c-0.2,0.3-0.5,0.5-0.9,0.7s-0.8,0.3-1.3,0.3S80.2,277.2,79.8,277z M80,275.5c0.1,0.2,0.3,0.3,0.4,0.4c0.2,0.1,0.4,0.1,0.6,0.1s0.4,0,0.6-0.1s0.3-0.2,0.4-0.4s0.2-0.3,0.3-0.6 c0.1-0.3,0.1-0.4,0.1-0.7c0-0.2,0-0.5-0.1-0.7s-0.1-0.4-0.3-0.6c-0.1-0.2-0.3-0.3-0.4-0.4c-0.2-0.1-0.4-0.1-0.6-0.1s-0.4,0-0.6,0.1 s-0.3,0.2-0.4,0.4c-0.1,0.2-0.2,0.3-0.3,0.6c-0.1,0.2-0.1,0.4-0.1,0.7c0,0.2,0,0.5,0.1,0.7C79.8,275.1,79.9,275.3,80,275.5z"></path> <path class="st3" d="M89.4,277.1l-0.1-0.5c-0.3,0.2-0.6,0.4-0.9,0.5s-0.6,0.1-0.9,0.1c-0.7,0-1.2-0.2-1.6-0.6s-0.6-1-0.6-1.8v-3.4 h1.6v3.3c0,0.4,0.1,0.7,0.2,1c0.1,0.3,0.6,0.3,0.9,0.3s0.6-0.1,0.8-0.2c0.2-0.1,0.4-0.2,0.5-0.3v-4.1h1.6v5.8h-1.5V277.1z"></path> <path class="st3" d="M93.5,275.2c0.1,0.3,0.3,0.5,0.6,0.6c0.2,0.2,0.5,0.3,0.9,0.3c0.3,0,0.6,0,0.8-0.1s0.3-0.2,0.3-0.4 c0-0.2-0.1-0.3-0.3-0.4c-0.2-0.1-0.5-0.2-1.1-0.3c-0.3-0.1-0.6-0.1-0.8-0.2c-0.2-0.1-0.5-0.2-0.6-0.4c-0.2-0.1-0.3-0.3-0.4-0.5 c-0.1-0.2-0.1-0.4-0.1-0.7c0-0.5,0.2-0.9,0.6-1.2c0.4-0.3,1-0.5,1.7-0.5s1.2,0.1,1.6,0.3c0.4,0.2,0.7,0.5,0.9,0.8l-1.1,0.8 c-0.1-0.2-0.3-0.4-0.6-0.5c-0.2-0.1-0.5-0.2-0.8-0.2s-0.6,0-0.7,0.1c-0.1,0.1-0.2,0.2-0.2,0.4c0,0.2,0.1,0.3,0.2,0.4 s0.5,0.2,0.9,0.3c0.4,0.1,0.7,0.2,0.9,0.3c0.3,0.1,0.5,0.2,0.7,0.4c0.2,0.1,0.3,0.3,0.4,0.5s0.2,0.5,0.2,0.7c0,0.3-0.1,0.6-0.2,0.8 s-0.3,0.4-0.5,0.6c-0.2,0.1-0.5,0.3-0.8,0.3c-0.3,0.1-0.6,0.1-1,0.1c-0.7,0-1.2-0.1-1.7-0.4c-0.4-0.3-0.8-0.6-1-1L93.5,275.2z"></path> <path class="st3" d="M101.7,277.1v-8h2.5c0.4,0,0.8,0,1.1,0.1c0.3,0.1,0.7,0.2,1,0.3c0.4,0.2,0.7,0.5,0.9,0.9 c0.2,0.4,0.3,0.8,0.3,1.2c0,0.2,0,0.5-0.1,0.7c-0.1,0.2-0.2,0.5-0.3,0.7c-0.1,0.2-0.3,0.4-0.4,0.6c-0.2,0.2-0.4,0.3-0.6,0.4 c-0.3,0.1-0.6,0.2-0.9,0.2s-0.6,0.1-0.9,0.1h-1.1v2.9h-1.5V277.1z M103.3,272.9h0.9c0.2,0,0.4,0,0.6,0s0.3-0.1,0.5-0.1 c0.2-0.1,0.4-0.2,0.5-0.4c0.1-0.2,0.1-0.4,0.1-0.6c0-0.2-0.1-0.4-0.2-0.6c-0.1-0.2-0.3-0.3-0.5-0.4c-0.1,0-0.3-0.1-0.4-0.1 c-0.2,0-0.3,0-0.6,0h-1v2.2H103.3z"></path> <path class="st3" d="M109,277.1v-5.7h1.4l0.1,0.5c0.2-0.2,0.4-0.4,0.7-0.5c0.2-0.1,0.5-0.1,0.7-0.1c0.1,0,0.3,0,0.4,0 c0.2,0,0.3,0.1,0.5,0.1l-0.3,1.4c-0.2-0.1-0.3-0.1-0.5-0.1s-0.3-0.1-0.4-0.1c-0.2,0-0.4,0.1-0.6,0.2c-0.2,0.1-0.3,0.2-0.4,0.4v4.1 H109V277.1z"></path> <path class="st3" d="M114.9,277c-0.4-0.2-0.7-0.4-0.9-0.7c-0.2-0.3-0.4-0.6-0.5-1c-0.1-0.4-0.2-0.7-0.2-1.1c0-0.4,0.1-0.7,0.2-1.1 s0.3-0.7,0.5-1c0.2-0.3,0.5-0.5,0.9-0.7c0.4-0.2,0.8-0.3,1.3-0.3s0.9,0.1,1.3,0.3c0.4,0.2,0.7,0.4,0.9,0.7c0.2,0.3,0.4,0.6,0.5,1 s0.2,0.7,0.2,1.1c0,0.4-0.1,0.8-0.2,1.1c-0.1,0.4-0.3,0.7-0.5,1c-0.2,0.3-0.5,0.5-0.9,0.7s-0.8,0.3-1.3,0.3S115.2,277.2,114.9,277z M115.1,275.5c0.1,0.2,0.3,0.3,0.4,0.4c0.2,0.1,0.4,0.1,0.6,0.1s0.4,0,0.6-0.1s0.3-0.2,0.4-0.4s0.2-0.3,0.3-0.6 c0.1-0.3,0.1-0.4,0.1-0.7c0-0.2,0-0.5-0.1-0.7s-0.1-0.4-0.3-0.6c-0.1-0.2-0.3-0.3-0.4-0.4c-0.2-0.1-0.4-0.1-0.6-0.1s-0.4,0-0.6,0.1 s-0.3,0.2-0.4,0.4c-0.1,0.2-0.2,0.3-0.3,0.6c-0.1,0.2-0.1,0.4-0.1,0.7c0,0.2,0,0.5,0.1,0.7C114.9,275.1,115,275.3,115.1,275.5z"></path> <path class="st3" d="M124.3,277.1l-0.1-0.4c-0.1,0.2-0.3,0.3-0.6,0.4s-0.5,0.2-0.8,0.2c-0.4,0-0.8-0.1-1.1-0.3 c-0.3-0.2-0.6-0.4-0.8-0.7c-0.2-0.3-0.4-0.6-0.5-1c-0.1-0.4-0.2-0.8-0.2-1.2s0.1-0.7,0.2-1.1s0.3-0.7,0.5-1s0.5-0.5,0.9-0.7 c0.4-0.2,0.8-0.3,1.3-0.3c0.3,0,0.7,0.1,1,0.2v-2.1h1.6v8H124.3z M124.1,272.6c-0.3-0.1-0.6-0.2-0.8-0.2s-0.5,0-0.7,0.1 s-0.4,0.2-0.5,0.4c-0.1,0.2-0.2,0.3-0.3,0.6c-0.1,0.2-0.1,0.4-0.1,0.6c0,0.2,0,0.5,0.1,0.7c0.1,0.2,0.1,0.4,0.3,0.6 c0.1,0.2,0.3,0.3,0.4,0.4c0.1,0.1,0.4,0.1,0.6,0.1s0.4,0,0.6-0.1c0.2-0.1,0.3-0.2,0.4-0.4V272.6z"></path> <path class="st3" d="M131.5,277.1l-0.1-0.5c-0.3,0.2-0.6,0.4-0.9,0.5s-0.6,0.1-0.9,0.1c-0.7,0-1.2-0.2-1.6-0.6s-0.6-1-0.6-1.8v-3.4 h1.6v3.3c0,0.4,0.1,0.7,0.2,1c0.1,0.3,0.4,0.4,0.8,0.4c0.3,0,0.6-0.1,0.8-0.2c0.2-0.1,0.4-0.2,0.5-0.3v-4.2h1.6v5.8h-1.4V277.1z"></path> <path class="st3" d="M139.7,275.7c-0.2,0.5-0.6,0.9-1,1.2c-0.4,0.2-0.9,0.4-1.5,0.4c-0.4,0-0.7-0.1-1.1-0.2s-0.6-0.3-0.9-0.6 s-0.5-0.6-0.6-0.9c-0.2-0.4-0.2-0.8-0.2-1.3s0.1-1,0.2-1.3c0.2-0.4,0.4-0.7,0.6-1s0.5-0.4,0.9-0.6c0.3-0.1,0.7-0.2,1-0.2 c0.4,0,0.7,0.1,0.9,0.2s0.5,0.2,0.7,0.4c0.2,0.2,0.4,0.3,0.5,0.5c0.1,0.2,0.2,0.4,0.3,0.6l-1.2,0.6c-0.1-0.4-0.3-0.7-0.5-0.8 c-0.2-0.2-0.4-0.2-0.7-0.2c-0.2,0-0.3,0-0.5,0.1c-0.1,0.1-0.3,0.2-0.4,0.3s-0.2,0.3-0.3,0.6c0.1,0.2,0.1,0.4,0.1,0.7 c0,0.6,0.1,1,0.4,1.3s0.6,0.5,1,0.5c0.3,0,0.6-0.1,0.7-0.2c0.2-0.2,0.4-0.4,0.5-0.6L139.7,275.7z"></path> <path class="st3" d="M142.8,275.5c0,0.2,0,0.3,0.1,0.4s0.1,0.1,0.2,0.1c0.2,0,0.3,0,0.5-0.1s0.3-0.2,0.4-0.3l0.6,1.1 c-0.3,0.2-0.5,0.3-0.8,0.4s-0.6,0.2-0.9,0.2c-0.2,0-0.4,0-0.6-0.1c-0.2-0.1-0.4-0.1-0.5-0.3c-0.1-0.1-0.3-0.3-0.4-0.5 c-0.1-0.2-0.1-0.4-0.1-0.7v-3.1h-0.9v-1.2h0.9v-1.5h1.6v1.5h1.4v1.2h-1.4v2.9H142.8z"></path> <path class="st3" d="M146.4,270.7c-0.3,0-0.5-0.1-0.7-0.3c-0.2-0.2-0.2-0.4-0.2-0.6c0-0.2,0.1-0.4,0.2-0.6c0.2-0.2,0.4-0.3,0.7-0.3 c0.3,0,0.5,0.1,0.7,0.3c0.2,0.2,0.2,0.4,0.2,0.6c0,0.2-0.1,0.4-0.2,0.6C147,270.6,146.7,270.7,146.4,270.7z M145.7,277.1v-5.7h1.6 v5.8h-1.6V277.1z"></path> <path class="st3" d="M150.9,277.1l-2.6-5.8h1.7l1.6,3.8l1.5-3.8h1.6l-2.5,5.8H150.9z"></path> <path class="st3" d="M156.6,270.7c-0.3,0-0.5-0.1-0.7-0.3c-0.2-0.2-0.2-0.4-0.2-0.6c0-0.2,0.1-0.4,0.2-0.6c0.2-0.2,0.4-0.3,0.7-0.3 c0.3,0,0.5,0.1,0.7,0.3c0.2,0.2,0.2,0.4,0.2,0.6c0,0.2-0.1,0.4-0.2,0.6C157.1,270.6,156.9,270.7,156.6,270.7z M155.8,277.1v-5.7 h1.6v5.8h-1.6V277.1z"></path> <path class="st3" d="M161,275.5c0,0.2,0,0.3,0.1,0.4s0.2,0.1,0.2,0.1c0.2,0,0.3,0,0.5-0.1s0.3-0.2,0.4-0.3l0.6,1.1 c-0.3,0.2-0.5,0.3-0.8,0.4s-0.6,0.2-0.9,0.2c-0.2,0-0.4,0-0.6-0.1c-0.2-0.1-0.4-0.1-0.5-0.3c-0.1-0.1-0.3-0.3-0.4-0.5 c-0.1-0.2-0.1-0.4-0.1-0.7v-3.1h-0.9v-1.2h0.9v-1.5h1.6v1.5h1.4v1.2H161V275.5z"></path> <path class="st3" d="M163.7,278.1c0.2,0.1,0.3,0.1,0.5,0.2c0.1,0,0.3,0,0.4,0s0.2,0,0.3-0.1c0.1-0.1,0.2-0.2,0.3-0.3l0.4-1 l-2.4-5.5h1.7l1.5,3.9l1.4-3.9h1.6l-3,7.2c-0.1,0.2-0.2,0.4-0.3,0.5c-0.1,0.1-0.3,0.2-0.4,0.3s-0.3,0.1-0.5,0.2c-0.2,0-0.3,0-0.5,0 s-0.4,0-0.7-0.1c-0.3-0.1-0.5-0.1-0.8-0.2L163.7,278.1z"></path> <path class="st3" d="M173.3,277.1v-8h1.6v6.6h4v1.5h-5.6V277.1z"></path> <path class="st3" d="M181,274.6c0,0.5,0.2,0.8,0.5,1.1c0.3,0.2,0.5,0.3,0.9,0.3c0.3,0,0.5,0,0.8-0.1c0.2-0.1,0.5-0.3,0.7-0.7 l1.2,0.7c-0.3,0.5-0.7,0.9-1.1,1.1s-0.9,0.3-1.5,0.3c-0.4,0-0.7-0.1-1.1-0.2c-0.3-0.1-0.6-0.3-0.9-0.6s-0.5-0.6-0.6-0.9 c-0.2-0.4-0.2-0.8-0.2-1.3s0.1-0.9,0.2-1.3s0.4-0.7,0.6-0.9c0.3-0.3,0.6-0.5,0.9-0.6s0.7-0.2,1.1-0.2c0.8,0,1.5,0.3,2,0.8 s0.7,1.4,0.8,2.6H181V274.6z M183.4,273.5c0-0.4-0.2-0.7-0.4-0.9c-0.2-0.2-0.5-0.3-0.7-0.3c-0.1,0-0.3,0-0.4,0.1s-0.3,0.1-0.4,0.2 s-0.2,0.2-0.3,0.4s-0.1,0.3-0.1,0.5H183.4z"></path> <path class="st3" d="M188.1,277.1l-2.6-5.8h1.7l1.6,3.8l1.5-3.8h1.6l-2.5,5.8H188.1z"></path> <path class="st3" d="M194.1,274.6c0,0.5,0.2,0.8,0.5,1.1c0.3,0.2,0.5,0.3,0.9,0.3c0.3,0,0.5,0,0.8-0.1c0.2-0.1,0.5-0.3,0.7-0.7 l1.2,0.7c-0.3,0.5-0.7,0.9-1.1,1.1s-0.9,0.3-1.5,0.3c-0.4,0-0.7-0.1-1.1-0.2c-0.3-0.1-0.6-0.3-0.9-0.6s-0.5-0.6-0.6-0.9 c-0.2-0.4-0.2-0.8-0.2-1.3s0.1-0.9,0.2-1.3s0.4-0.7,0.6-0.9c0.3-0.3,0.6-0.5,0.9-0.6s0.7-0.2,1.1-0.2c0.8,0,1.5,0.3,2,0.8 s0.7,1.4,0.8,2.6h-4.3V274.6z M196.5,273.5c0-0.4-0.2-0.7-0.4-0.9c-0.2-0.2-0.5-0.3-0.7-0.3c-0.1,0-0.3,0-0.4,0.1s-0.3,0.1-0.4,0.2 s-0.2,0.2-0.3,0.4s-0.1,0.3-0.1,0.5H196.5z"></path> <path class="st3" d="M199.5,277.1v-8h1.6v8H199.5z"></path> </g> <g> <path class="st3" d="M18.1,520.4l-0.3-0.6l1.5-1l-1.5-1l0.4-0.6l1.4,1v-1.6h0.7v1.6l1.4-0.9l0.4,0.6l-1.5,1l1.5,1l-0.3,0.6l-1.5-1 v1.7h-0.7v-1.7L18.1,520.4z"></path> <path class="st3" d="M32,523.7c-0.1,0.2-0.2,0.4-0.4,0.6c-0.2,0.2-0.3,0.4-0.5,0.5c-0.2,0.2-0.4,0.3-0.7,0.4s-0.6,0.1-0.9,0.1 c-0.5,0-0.9-0.1-1.3-0.2c-0.4-0.1-0.8-0.4-1.1-0.7c-0.3-0.3-0.5-0.8-0.7-1.3s-0.3-1.1-0.3-1.9c0-0.7,0.1-1.4,0.3-1.9s0.4-1,0.7-1.3 c0.3-0.3,0.6-0.6,1-0.7c0.4-0.2,0.8-0.2,1.2-0.2c0.6,0,1.1,0.1,1.6,0.4c0.5,0.3,0.8,0.7,1.1,1.2l-0.8,0.5c-0.1-0.1-0.2-0.3-0.3-0.4 c-0.1-0.1-0.3-0.3-0.4-0.4c-0.2-0.1-0.3-0.2-0.5-0.3c-0.2-0.1-0.4-0.1-0.6-0.1c-0.7,0-1.3,0.3-1.6,0.9c-0.4,0.6-0.6,1.4-0.6,2.5 c0,0.5,0.1,1,0.2,1.4c0.1,0.4,0.3,0.7,0.5,1c0.2,0.3,0.5,0.5,0.7,0.6c0.3,0.1,0.6,0.2,0.9,0.2c0.2,0,0.4,0,0.6-0.1 c0.2-0.1,0.3-0.1,0.5-0.3c0.2-0.2,0.3-0.2,0.4-0.4c0.1-0.1,0.2-0.3,0.3-0.5L32,523.7z"></path> <path class="st3" d="M34.3,523.1c0,0.5,0.1,0.9,0.3,1.1s0.6,0.3,1,0.3c0.3,0,0.6-0.1,0.9-0.2s0.5-0.3,0.7-0.5v-4.5h0.9v5.7h-0.9 l-0.1-0.4c-0.2,0.2-0.5,0.3-0.8,0.4s-0.6,0.2-1,0.2c-0.8,0-1.3-0.2-1.6-0.6c-0.3-0.4-0.5-0.9-0.5-1.7v-3.6h0.9v3.8H34.3z"></path> <path class="st3" d="M40.5,523.7c0.1,0.3,0.3,0.5,0.5,0.6c0.2,0.1,0.5,0.2,0.9,0.2c0.8,0,1.2-0.3,1.2-0.8c0-0.2,0-0.3-0.1-0.4 s-0.1-0.2-0.3-0.3c-0.1-0.1-0.3-0.2-0.5-0.3s-0.4-0.2-0.7-0.3c-0.3-0.1-0.5-0.2-0.7-0.3s-0.4-0.2-0.5-0.4c-0.1-0.2-0.2-0.3-0.3-0.4 c-0.1-0.2-0.1-0.3-0.1-0.6c0-0.5,0.2-0.8,0.5-1.1s0.8-0.4,1.3-0.4s0.9,0.1,1.2,0.2c0.3,0.2,0.6,0.4,0.8,0.7l-0.6,0.5 c-0.2-0.2-0.3-0.4-0.6-0.5c-0.2-0.1-0.5-0.2-0.7-0.2c-0.3,0-0.6,0.1-0.8,0.2s-0.2,0.3-0.2,0.5c0,0.1,0,0.2,0.1,0.3 c0.1,0.1,0.1,0.2,0.2,0.3c0.1,0.1,0.3,0.2,0.4,0.2c0.2,0.1,0.4,0.2,0.7,0.3c0.5,0.2,0.9,0.4,1.2,0.7c0.3,0.3,0.4,0.7,0.4,1.1 c0,0.3-0.1,0.5-0.2,0.7c-0.1,0.2-0.2,0.4-0.4,0.5s-0.4,0.3-0.6,0.3s-0.5,0.1-0.8,0.1c-0.6,0-1-0.1-1.3-0.3 c-0.3-0.2-0.6-0.5-0.8-0.8L40.5,523.7z"></path> <path class="st3" d="M46.7,523.8c0,0.3,0.1,0.5,0.2,0.6c0.1,0.1,0.2,0.1,0.4,0.1s0.3,0,0.4-0.1c0.1-0.1,0.3-0.1,0.4-0.2l0.4,0.6 c-0.2,0.1-0.4,0.2-0.5,0.3c-0.2,0.1-0.4,0.1-0.8,0.1c-0.4,0-0.8-0.1-1-0.3c-0.2-0.2-0.3-0.6-0.3-1v-3.8h-1v-0.8h1v-1.6h0.9v1.6h1.5 v0.8h-1.5L46.7,523.8L46.7,523.8z"></path> <path class="st3" d="M50.9,525c-0.3-0.2-0.6-0.4-0.8-0.7s-0.4-0.6-0.5-1s-0.2-0.7-0.2-1.1c0-0.4,0.1-0.7,0.2-1.1 c0.1-0.4,0.3-0.7,0.5-1s0.5-0.5,0.8-0.7s0.7-0.3,1.2-0.3c0.4,0,0.8,0.1,1.2,0.3s0.6,0.4,0.8,0.7s0.4,0.6,0.5,1s0.2,0.7,0.2,1.1 c0,0.4-0.1,0.7-0.2,1.1c-0.1,0.4-0.3,0.7-0.5,1s-0.5,0.5-0.8,0.7s-0.7,0.3-1.2,0.3S51.2,525.2,50.9,525z M50.8,523.8 c0.2,0.2,0.3,0.4,0.6,0.5c0.2,0.1,0.5,0.2,0.8,0.2s0.6-0.1,0.8-0.2s0.4-0.3,0.6-0.5s0.3-0.5,0.3-0.7c0.1-0.3,0.1-0.5,0.1-0.8 s0-0.6-0.1-0.8c-0.1-0.3-0.2-0.5-0.3-0.7s-0.3-0.4-0.6-0.5c-0.2-0.1-0.5-0.2-0.8-0.2s-0.6,0.1-0.8,0.2s-0.4,0.3-0.5,0.5 s-0.3,0.5-0.3,0.7c-0.1,0.3-0.1,0.5-0.1,0.8s0,0.6,0.1,0.8C50.5,523.4,50.6,523.6,50.8,523.8z"></path> <path class="st3" d="M56.4,525.1v-5.7h0.9l0.1,0.5c0.2-0.1,0.4-0.3,0.7-0.4s0.6-0.2,1-0.2c0.3,0,0.6,0.1,0.9,0.2 c0.3,0.1,0.5,0.3,0.7,0.6c0.2-0.2,0.5-0.4,0.9-0.5c0.3-0.1,0.7-0.2,1.1-0.2c0.4,0,0.7,0.1,1,0.2c0.3,0.1,0.5,0.3,0.6,0.5 c0.2,0.2,0.3,0.5,0.3,0.8s0.1,0.6,0.1,1v3.5h-0.9v-3.6c0-0.5-0.1-0.9-0.3-1.1c-0.2-0.3-0.5-0.4-1-0.4c-0.2,0-0.3,0-0.5,0.1 s-0.3,0.1-0.4,0.2c-0.1,0.1-0.3,0.1-0.4,0.2c-0.1,0.1-0.2,0.1-0.3,0.2c0,0.1,0.1,0.3,0.1,0.4s0,0.3,0,0.6v3.5h-0.9v-3.6 c0-0.2,0-0.4-0.1-0.6c0-0.2-0.1-0.3-0.2-0.5c-0.1-0.1-0.2-0.2-0.4-0.3c-0.2-0.1-0.3-0.1-0.6-0.1s-0.6,0.1-0.8,0.2 c-0.3,0.1-0.5,0.3-0.7,0.4v4.5h-0.9V525.1z"></path> <path class="st3" d="M67.3,522.2c0,0.7,0.2,1.3,0.5,1.7s0.8,0.6,1.4,0.6c0.4,0,0.7-0.1,0.9-0.3c0.2-0.2,0.4-0.4,0.6-0.6l0.6,0.4 c-0.2,0.4-0.5,0.7-0.8,0.9c-0.3,0.2-0.8,0.4-1.3,0.4c-0.4,0-0.8-0.1-1.2-0.2c-0.3-0.1-0.6-0.3-0.9-0.6s-0.4-0.6-0.6-0.9 c-0.2-0.3-0.2-0.8-0.2-1.3s0.1-0.9,0.2-1.2s0.3-0.7,0.5-0.9c0.2-0.3,0.5-0.5,0.8-0.6c0.3-0.1,0.7-0.2,1-0.2c0.4,0,0.8,0.1,1.1,0.2 c0.3,0.1,0.6,0.3,0.8,0.6s0.4,0.6,0.5,0.9c0.1,0.4,0.2,0.8,0.2,1.2h-4.1V522.2z M70.4,521.5c0-0.2-0.1-0.5-0.1-0.7 c-0.1-0.2-0.2-0.3-0.3-0.5c-0.1-0.1-0.3-0.2-0.5-0.3s-0.4-0.1-0.5-0.1c-0.4,0-0.7,0.1-1,0.3s-0.5,0.6-0.6,1.1h3V521.5z"></path> <path class="st3" d="M73,525.1v-5.7h0.8l0.1,0.5c0.2-0.2,0.3-0.3,0.6-0.4c0.2-0.1,0.5-0.2,0.7-0.2s0.3,0,0.5,0c0.1,0,0.3,0,0.3,0.1 l-0.2,0.9c-0.2-0.1-0.5-0.1-0.8-0.1c-0.2,0-0.5,0.1-0.7,0.2s-0.4,0.3-0.5,0.4v4.5H73V525.1z"></path> <path class="st3" d="M79.9,525.1v-5.7h0.8l0.1,0.5c0.2-0.2,0.3-0.3,0.6-0.4c0.2-0.1,0.5-0.2,0.7-0.2s0.3,0,0.5,0 c0.1,0,0.3,0,0.3,0.1l-0.2,0.9c-0.2-0.1-0.5-0.1-0.8-0.1c-0.2,0-0.5,0.1-0.7,0.2s-0.4,0.3-0.5,0.4v4.5h-0.8V525.1z"></path> <path class="st3" d="M84.6,522.2c0,0.7,0.2,1.3,0.5,1.7s0.8,0.6,1.4,0.6c0.4,0,0.7-0.1,0.9-0.3c0.2-0.2,0.4-0.4,0.6-0.6l0.6,0.4 c-0.2,0.4-0.5,0.7-0.8,0.9c-0.3,0.2-0.8,0.4-1.3,0.4c-0.4,0-0.8-0.1-1.2-0.2c-0.3-0.1-0.6-0.3-0.9-0.6s-0.4-0.6-0.6-0.9 c-0.2-0.3-0.2-0.8-0.2-1.3s0.1-0.9,0.2-1.2s0.3-0.7,0.5-0.9c0.2-0.3,0.5-0.5,0.8-0.6c0.3-0.1,0.7-0.2,1-0.2c0.4,0,0.8,0.1,1.1,0.2 c0.3,0.1,0.6,0.3,0.8,0.6s0.4,0.6,0.5,0.9c0.1,0.4,0.2,0.8,0.2,1.2h-4.1V522.2z M87.7,521.5c0-0.2-0.1-0.5-0.1-0.7 c-0.1-0.2-0.2-0.3-0.3-0.5c-0.1-0.1-0.3-0.2-0.5-0.3s-0.4-0.1-0.5-0.1c-0.4,0-0.7,0.1-1,0.3s-0.5,0.6-0.6,1.1h3V521.5z"></path> <path class="st3" d="M90.7,523.7c0.1,0.3,0.3,0.5,0.5,0.6c0.2,0.1,0.5,0.2,0.9,0.2c0.8,0,1.2-0.3,1.2-0.8c0-0.2,0-0.3-0.1-0.4 s-0.1-0.2-0.3-0.3c-0.1-0.1-0.3-0.2-0.5-0.3s-0.4-0.2-0.7-0.3c-0.3-0.1-0.5-0.2-0.7-0.3s-0.4-0.2-0.5-0.4c-0.1-0.2-0.2-0.3-0.3-0.4 c-0.1-0.2-0.1-0.3-0.1-0.6c0-0.5,0.2-0.8,0.5-1.1s0.8-0.4,1.3-0.4s0.9,0.1,1.2,0.2c0.3,0.2,0.6,0.4,0.8,0.7l-0.6,0.5 c-0.2-0.2-0.3-0.4-0.6-0.5c-0.2-0.1-0.5-0.2-0.7-0.2c-0.3,0-0.6,0.1-0.8,0.2s-0.2,0.3-0.2,0.5c0,0.1,0,0.2,0.1,0.3 c0.1,0.1,0.1,0.2,0.2,0.3c0.1,0.1,0.3,0.2,0.4,0.2c0.2,0.1,0.4,0.2,0.7,0.3c0.5,0.2,0.9,0.4,1.2,0.7c0.3,0.3,0.4,0.7,0.4,1.1 c0,0.3-0.1,0.5-0.2,0.7c-0.1,0.2-0.2,0.4-0.4,0.5S93,525,92.8,525s-0.5,0.1-0.8,0.1c-0.6,0-1-0.1-1.3-0.3c-0.3-0.2-0.6-0.5-0.8-0.8 L90.7,523.7z"></path> <path class="st3" d="M96.5,523.1c0,0.5,0.1,0.9,0.3,1.1s0.6,0.3,1,0.3c0.3,0,0.6-0.1,0.9-0.2s0.5-0.3,0.7-0.5v-4.5h0.9v5.7h-0.9 l-0.1-0.4c-0.2,0.2-0.5,0.3-0.8,0.4s-0.6,0.2-1,0.2c-0.8,0-1.3-0.2-1.6-0.6c-0.3-0.4-0.5-0.9-0.5-1.7v-3.6h0.9v3.8H96.5z"></path> <path class="st3" d="M102.3,525.1v-8h0.9v8H102.3z"></path> <path class="st3" d="M106.5,523.8c0,0.3,0.1,0.5,0.2,0.6c0.1,0.1,0.2,0.1,0.4,0.1s0.3,0,0.4-0.1c0.1-0.1,0.3-0.1,0.4-0.2l0.4,0.6 c-0.2,0.1-0.4,0.2-0.5,0.3c-0.2,0.1-0.4,0.1-0.8,0.1c-0.4,0-0.8-0.1-1-0.3c-0.2-0.2-0.3-0.6-0.3-1v-3.8h-1v-0.8h1v-1.6h0.9v1.6h1.5 v0.8h-1.5L106.5,523.8L106.5,523.8z"></path> <path class="st3" d="M109.8,523.7c0.1,0.3,0.3,0.5,0.5,0.6c0.2,0.1,0.5,0.2,0.9,0.2c0.8,0,1.2-0.3,1.2-0.8c0-0.2,0-0.3-0.1-0.4 s-0.1-0.2-0.3-0.3c-0.1-0.1-0.3-0.2-0.5-0.3s-0.4-0.2-0.7-0.3c-0.3-0.1-0.5-0.2-0.7-0.3s-0.4-0.2-0.5-0.4c-0.1-0.2-0.2-0.3-0.3-0.4 c-0.1-0.2-0.1-0.3-0.1-0.6c0-0.5,0.2-0.8,0.5-1.1s0.8-0.4,1.3-0.4s0.9,0.1,1.2,0.2c0.3,0.2,0.6,0.4,0.8,0.7l-0.6,0.5 c-0.2-0.2-0.3-0.4-0.6-0.5c-0.2-0.1-0.5-0.2-0.7-0.2c-0.3,0-0.6,0.1-0.8,0.2c-0.2,0.1-0.2,0.3-0.2,0.5c0,0.1,0,0.2,0.1,0.3 c0.1,0.1,0.1,0.2,0.2,0.3c0.1,0.1,0.3,0.2,0.4,0.2c0.2,0.1,0.4,0.2,0.7,0.3c0.5,0.2,0.9,0.4,1.2,0.7c0.3,0.3,0.4,0.7,0.4,1.1 c0,0.3-0.1,0.5-0.2,0.7s-0.2,0.4-0.4,0.5c-0.2,0.1-0.4,0.3-0.6,0.3s-0.5,0.1-0.8,0.1c-0.6,0-1-0.1-1.3-0.3 c-0.3-0.2-0.6-0.5-0.8-0.8L109.8,523.7z"></path> <path class="st3" d="M115.1,525.3c-0.2,0-0.3-0.1-0.5-0.2s-0.2-0.3-0.2-0.5s0.1-0.4,0.2-0.5s0.3-0.2,0.5-0.2s0.3,0.1,0.5,0.2 c0.1,0.1,0.2,0.3,0.2,0.5s-0.1,0.4-0.2,0.5C115.4,525.2,115.3,525.3,115.1,525.3z"></path> <path class="st3" d="M122,525.1v-3.8l-2.7-4.2h1.1l2.1,3.2l2.2-3.2h1l-2.8,4.2v3.9H122V525.1z"></path> <path class="st3" d="M127,525c-0.3-0.2-0.6-0.4-0.8-0.7c-0.2-0.3-0.4-0.6-0.5-1s-0.2-0.7-0.2-1.1c0-0.4,0.1-0.7,0.2-1.1 s0.3-0.7,0.5-1s0.5-0.5,0.8-0.7s0.7-0.3,1.2-0.3c0.4,0,0.8,0.1,1.2,0.3s0.6,0.4,0.8,0.7c0.2,0.3,0.4,0.6,0.5,1s0.2,0.7,0.2,1.1 c0,0.4-0.1,0.7-0.2,1.1s-0.3,0.7-0.5,1s-0.5,0.5-0.8,0.7s-0.7,0.3-1.2,0.3S127.3,525.2,127,525z M126.8,523.8 c0.2,0.2,0.3,0.4,0.6,0.5c0.2,0.1,0.5,0.2,0.8,0.2s0.6-0.1,0.8-0.2c0.2-0.1,0.4-0.3,0.6-0.5c0.1-0.2,0.3-0.5,0.3-0.7 c0.1-0.3,0.1-0.5,0.1-0.8s0-0.6-0.1-0.8c-0.1-0.3-0.2-0.5-0.3-0.7c-0.1-0.2-0.3-0.4-0.6-0.5c-0.2-0.1-0.5-0.2-0.8-0.2 s-0.6,0.1-0.8,0.2c-0.2,0.1-0.4,0.3-0.5,0.5s-0.3,0.5-0.3,0.7c-0.1,0.3-0.1,0.5-0.1,0.8s0,0.6,0.1,0.8 C126.6,523.4,126.7,523.6,126.8,523.8z"></path> <path class="st3" d="M133.4,523.1c0,0.5,0.1,0.9,0.3,1.1c0.2,0.2,0.6,0.3,1,0.3c0.3,0,0.6-0.1,0.9-0.2s0.5-0.3,0.7-0.5v-4.5h0.9 v5.7h-0.9l-0.1-0.4c-0.2,0.2-0.5,0.3-0.8,0.4s-0.6,0.2-1,0.2c-0.8,0-1.3-0.2-1.6-0.6c-0.3-0.4-0.5-0.9-0.5-1.7v-3.6h0.9v3.8H133.4z "></path> <path class="st3" d="M139.3,525.1v-5.7h0.8l0.1,0.5c0.2-0.2,0.3-0.3,0.6-0.4s0.5-0.2,0.7-0.2s0.3,0,0.5,0c0.1,0,0.3,0,0.3,0.1 l-0.2,0.9c-0.2-0.1-0.5-0.1-0.8-0.1c-0.2,0-0.5,0.1-0.7,0.2s-0.4,0.3-0.5,0.4v4.5h-0.8V525.1z"></path> <path class="st3" d="M146.8,522.2c0,0.7,0.2,1.3,0.5,1.7s0.8,0.6,1.4,0.6c0.4,0,0.7-0.1,0.9-0.3c0.2-0.2,0.4-0.4,0.6-0.6l0.6,0.4 c-0.2,0.4-0.5,0.7-0.8,0.9c-0.3,0.2-0.8,0.4-1.3,0.4c-0.4,0-0.8-0.1-1.2-0.2c-0.3-0.1-0.6-0.3-0.9-0.6c-0.2-0.3-0.4-0.6-0.6-0.9 c-0.2-0.3-0.2-0.8-0.2-1.3s0.1-0.9,0.2-1.2s0.3-0.7,0.5-0.9c0.2-0.3,0.5-0.5,0.8-0.6c0.3-0.1,0.7-0.2,1.1-0.2s0.8,0.1,1.1,0.2 c0.3,0.1,0.6,0.3,0.8,0.6s0.4,0.6,0.5,0.9c0.1,0.4,0.2,0.8,0.2,1.2h-4.2V522.2z M149.9,521.5c0-0.2-0.1-0.5-0.1-0.7 c-0.1-0.2-0.2-0.3-0.3-0.5c-0.1-0.1-0.3-0.2-0.5-0.3s-0.4-0.1-0.5-0.1c-0.4,0-0.7,0.1-1,0.3s-0.5,0.6-0.6,1.1h3V521.5z"></path> <path class="st3" d="M151.7,525.1l1.9-2.9l-1.8-2.8h1l1.3,2.1l1.3-2.1h1l-1.8,2.8l1.9,2.9h-1l-1.4-2.1l-1.4,2.1H151.7z"></path> <path class="st3" d="M157.6,527.4v-8h0.8l0.1,0.4c0.2-0.2,0.5-0.3,0.8-0.4c0.3-0.1,0.6-0.1,0.9-0.1c0.4,0,0.8,0.1,1.1,0.2 s0.5,0.4,0.7,0.6c0.2,0.3,0.3,0.6,0.4,0.9c0.1,0.4,0.1,0.7,0.1,1.1c0,0.5-0.1,0.9-0.2,1.3s-0.3,0.7-0.6,1s-0.6,0.5-0.9,0.6 c-0.4,0.1-0.7,0.2-1.1,0.2s-0.8-0.1-1.1-0.2v2.3h-1V527.4z M158.6,524.3c0.1,0.1,0.2,0.1,0.4,0.2c0.2,0.1,0.4,0.1,0.6,0.1 c0.3,0,0.6-0.1,0.8-0.2c0.3-0.1,0.5-0.3,0.7-0.4c0.2-0.2,0.3-0.4,0.4-0.7s0.2-0.6,0.2-1c0-0.3,0-0.5-0.1-0.8 c-0.1-0.3-0.1-0.5-0.3-0.7s-0.3-0.4-0.5-0.5s-0.5-0.2-0.8-0.2s-0.5,0.1-0.7,0.2s-0.5,0.3-0.7,0.4V524.3z"></path> <path class="st3" d="M164.9,522.2c0,0.7,0.2,1.3,0.5,1.7s0.8,0.6,1.4,0.6c0.4,0,0.7-0.1,0.9-0.3c0.2-0.2,0.4-0.4,0.6-0.6l0.6,0.4 c-0.2,0.4-0.5,0.7-0.8,0.9c-0.3,0.2-0.8,0.4-1.3,0.4c-0.4,0-0.8-0.1-1.2-0.2c-0.3-0.1-0.6-0.3-0.9-0.6c-0.2-0.3-0.4-0.6-0.6-0.9 c-0.2-0.3-0.2-0.8-0.2-1.3s0.1-0.9,0.2-1.2s0.3-0.7,0.5-0.9c0.2-0.3,0.5-0.5,0.8-0.6c0.3-0.1,0.7-0.2,1.1-0.2s0.8,0.1,1.1,0.2 c0.3,0.1,0.6,0.3,0.8,0.6s0.4,0.6,0.5,0.9c0.1,0.4,0.2,0.8,0.2,1.2h-4.2V522.2z M168,521.5c0-0.2-0.1-0.5-0.1-0.7 c-0.1-0.2-0.2-0.3-0.3-0.5c-0.1-0.1-0.3-0.2-0.5-0.3s-0.4-0.1-0.5-0.1c-0.4,0-0.7,0.1-1,0.3s-0.5,0.6-0.6,1.1h3V521.5z"></path> <path class="st3" d="M170.6,525.1v-5.7h0.8l0.1,0.5c0.2-0.2,0.3-0.3,0.6-0.4s0.5-0.2,0.7-0.2s0.3,0,0.5,0c0.1,0,0.3,0,0.3,0.1 l-0.2,0.9c-0.2-0.1-0.5-0.1-0.8-0.1c-0.2,0-0.5,0.1-0.7,0.2s-0.4,0.3-0.5,0.4v4.5h-0.8V525.1z"></path> <path class="st3" d="M175.3,518.5c-0.2,0-0.3-0.1-0.4-0.2c-0.1-0.1-0.2-0.3-0.2-0.5s0.1-0.3,0.2-0.5c0.1-0.1,0.3-0.2,0.4-0.2 s0.3,0.1,0.4,0.2c0.1,0.1,0.2,0.3,0.2,0.5s-0.1,0.4-0.2,0.5C175.6,518.4,175.4,518.5,175.3,518.5z M174.8,525.1v-5.7h0.9v5.7H174.8 z"></path> <path class="st3" d="M178.3,522.2c0,0.7,0.2,1.3,0.5,1.7s0.8,0.6,1.4,0.6c0.4,0,0.7-0.1,0.9-0.3c0.2-0.2,0.4-0.4,0.6-0.6l0.6,0.4 c-0.2,0.4-0.5,0.7-0.8,0.9c-0.3,0.2-0.8,0.4-1.3,0.4c-0.4,0-0.8-0.1-1.2-0.2c-0.3-0.1-0.6-0.3-0.9-0.6c-0.2-0.3-0.4-0.6-0.6-0.9 c-0.2-0.3-0.2-0.8-0.2-1.3s0.1-0.9,0.2-1.2s0.3-0.7,0.5-0.9c0.2-0.3,0.5-0.5,0.8-0.6c0.3-0.1,0.7-0.2,1.1-0.2s0.8,0.1,1.1,0.2 c0.3,0.1,0.6,0.3,0.8,0.6s0.4,0.6,0.5,0.9c0.1,0.4,0.2,0.8,0.2,1.2h-4.2V522.2z M181.4,521.5c0-0.2-0.1-0.5-0.1-0.7 c-0.1-0.2-0.2-0.3-0.3-0.5c-0.1-0.1-0.3-0.2-0.5-0.3s-0.4-0.1-0.5-0.1c-0.4,0-0.7,0.1-1,0.3s-0.5,0.6-0.6,1.1h3V521.5z"></path> <path class="st3" d="M184.1,525.1v-5.7h0.9l0.1,0.5c0.2-0.2,0.5-0.3,0.8-0.4s0.6-0.2,1-0.2c0.8,0,1.3,0.2,1.7,0.6s0.5,1,0.5,1.7 v3.6H188v-3.6c0-0.5-0.1-0.9-0.3-1.1c-0.2-0.3-0.6-0.4-1.1-0.4c-0.3,0-0.6,0.1-0.9,0.2c-0.3,0.1-0.5,0.3-0.8,0.4v4.5h-0.8V525.1z"></path> <path class="st3" d="M195.4,523.9c-0.2,0.5-0.5,0.8-0.9,1c-0.4,0.2-0.8,0.3-1.2,0.3c-0.3,0-0.7-0.1-1-0.2c-0.3-0.1-0.6-0.3-0.9-0.6 c-0.2-0.2-0.4-0.6-0.6-0.9c-0.2-0.4-0.2-0.8-0.2-1.3s0.1-1,0.2-1.4c0.2-0.4,0.4-0.7,0.6-0.9c0.2-0.2,0.5-0.4,0.8-0.5 c0.3-0.1,0.6-0.2,0.9-0.2s0.6,0,0.8,0.1c0.2,0.1,0.5,0.2,0.6,0.4s0.3,0.3,0.4,0.5s0.2,0.3,0.2,0.4l-0.7,0.4 c-0.2-0.4-0.4-0.7-0.6-0.8c-0.2-0.1-0.5-0.3-0.8-0.3c-0.2,0-0.4,0-0.6,0.1c-0.2,0.1-0.4,0.2-0.5,0.4c-0.2,0.2-0.3,0.4-0.4,0.7 s-0.1,0.6-0.1,1s0,0.7,0.1,1s0.2,0.5,0.4,0.7s0.4,0.3,0.6,0.4c0.2,0.1,0.5,0.2,0.7,0.2c0.3,0,0.5-0.1,0.8-0.2 c0.3-0.2,0.5-0.4,0.6-0.8L195.4,523.9z"></path> <path class="st3" d="M197.4,522.2c0,0.7,0.2,1.3,0.5,1.7s0.8,0.6,1.4,0.6c0.4,0,0.7-0.1,0.9-0.3c0.2-0.2,0.4-0.4,0.6-0.6l0.6,0.4 c-0.2,0.4-0.5,0.7-0.8,0.9c-0.3,0.2-0.8,0.4-1.3,0.4c-0.4,0-0.8-0.1-1.2-0.2c-0.3-0.1-0.6-0.3-0.9-0.6c-0.2-0.3-0.4-0.6-0.6-0.9 c-0.2-0.3-0.2-0.8-0.2-1.3s0.1-0.9,0.2-1.2s0.3-0.7,0.5-0.9c0.2-0.3,0.5-0.5,0.8-0.6c0.3-0.1,0.7-0.2,1.1-0.2s0.8,0.1,1.1,0.2 c0.3,0.1,0.6,0.3,0.8,0.6s0.4,0.6,0.5,0.9c0.1,0.4,0.2,0.8,0.2,1.2h-4.2V522.2z M200.5,521.5c0-0.2-0.1-0.5-0.1-0.7 c-0.1-0.2-0.2-0.3-0.3-0.5c-0.1-0.1-0.3-0.2-0.5-0.3s-0.4-0.1-0.5-0.1c-0.4,0-0.7,0.1-1,0.3s-0.5,0.6-0.6,1.1h3V521.5z"></path> <path class="st3" d="M205.9,525.1v-5.7h0.9l0.1,0.5c0.2-0.1,0.4-0.3,0.7-0.4c0.3-0.1,0.6-0.2,1-0.2c0.3,0,0.6,0.1,0.9,0.2 c0.3,0.1,0.5,0.3,0.7,0.6c0.2-0.2,0.5-0.4,0.9-0.5c0.3-0.1,0.7-0.2,1.1-0.2s0.7,0.1,1,0.2c0.3,0.1,0.5,0.3,0.6,0.5s0.3,0.5,0.3,0.8 s0.1,0.6,0.1,1v3.5h-0.9v-3.6c0-0.5-0.1-0.9-0.3-1.1c-0.2-0.3-0.5-0.4-1-0.4c-0.2,0-0.3,0-0.5,0.1c-0.2,0-0.3,0.1-0.5,0.2 c-0.1,0.1-0.3,0.1-0.4,0.2c-0.1,0.1-0.2,0.1-0.3,0.2c0,0.1,0.1,0.3,0.1,0.4s0,0.3,0,0.6v3.5h-0.9v-3.6c0-0.2,0-0.4-0.1-0.6 c0-0.2-0.1-0.3-0.2-0.5c-0.1-0.1-0.2-0.2-0.4-0.3c-0.2-0.1-0.3-0.1-0.6-0.1c-0.3,0-0.6,0.1-0.8,0.2c-0.3,0.1-0.5,0.3-0.7,0.4v4.5 h-0.8V525.1z"></path> <path class="st3" d="M219.3,525.1v-0.5c-0.2,0.2-0.4,0.4-0.7,0.5c-0.3,0.1-0.5,0.2-0.9,0.2c-0.2,0-0.5,0-0.7-0.1s-0.4-0.2-0.6-0.3 s-0.3-0.3-0.4-0.6c-0.1-0.2-0.2-0.5-0.2-0.8c0-0.4,0.1-0.7,0.3-1c0.2-0.3,0.5-0.5,0.8-0.6c0.3-0.2,0.7-0.3,1.1-0.3 c0.4-0.1,0.8-0.1,1.2-0.1v-0.1c0-0.5-0.1-0.8-0.3-1c-0.2-0.2-0.5-0.3-0.9-0.3c-0.3,0-0.5,0.1-0.7,0.2c-0.2,0.1-0.4,0.3-0.6,0.5 l-0.6-0.5c0.2-0.3,0.5-0.5,0.8-0.7c0.3-0.1,0.7-0.2,1.2-0.2c0.6,0,1.1,0.2,1.5,0.5c0.4,0.3,0.5,0.9,0.5,1.6v3.7h-0.8V525.1z M219.2,522.1c-0.3,0-0.5,0-0.8,0.1c-0.3,0-0.6,0.1-0.8,0.2s-0.5,0.2-0.6,0.4c-0.2,0.2-0.2,0.4-0.2,0.7c0,0.2,0,0.3,0.1,0.5 c0.1,0.2,0.2,0.2,0.3,0.3c0.1,0.1,0.2,0.1,0.4,0.2c0.1,0,0.3,0.1,0.4,0.1c0.3,0,0.5-0.1,0.8-0.2c0.2-0.1,0.4-0.3,0.6-0.4v-1.9 H219.2z"></path> <path class="st3" d="M221.5,526.6c0.1,0,0.2,0.1,0.3,0.1s0.3,0,0.4,0c0.2,0,0.3,0,0.4-0.1c0.1-0.1,0.2-0.3,0.3-0.5l0.5-1.1 l-2.3-5.6h1.1l1.7,4.4l1.7-4.4h1l-2.9,7.2c-0.1,0.4-0.3,0.6-0.6,0.7c-0.3,0.1-0.5,0.2-0.8,0.2c-0.2,0-0.4,0-0.6-0.1 s-0.4-0.1-0.5-0.2L221.5,526.6z"></path> <path class="st3" d="M234.3,525.1l-0.1-0.5c-0.2,0.2-0.4,0.4-0.7,0.5c-0.3,0.1-0.5,0.1-0.8,0.1c-0.4,0-0.8-0.1-1.1-0.2 c-0.3-0.2-0.6-0.4-0.8-0.6c-0.2-0.3-0.4-0.6-0.5-1c-0.1-0.4-0.2-0.8-0.2-1.2c0-0.4,0.1-0.7,0.2-1.1s0.3-0.7,0.5-0.9 c0.2-0.3,0.5-0.5,0.9-0.7c0.3-0.2,0.7-0.3,1.2-0.3c0.3,0,0.5,0,0.7,0.1s0.4,0.1,0.5,0.1V517h0.9v8L234.3,525.1L234.3,525.1z M234.2,520.3c0,0-0.1-0.1-0.2-0.1s-0.2-0.1-0.3-0.1c-0.1,0-0.2,0-0.3-0.1c-0.1,0-0.2,0-0.3,0c-0.3,0-0.6,0.1-0.9,0.2 c-0.2,0.1-0.5,0.3-0.6,0.5c-0.1,0.2-0.3,0.5-0.4,0.7c-0.1,0.3-0.1,0.5-0.1,0.8c0,0.3,0,0.6,0.1,0.9s0.2,0.5,0.3,0.7 c0.1,0.2,0.3,0.4,0.6,0.5c0.2,0.1,0.5,0.2,0.8,0.2c0.2,0,0.5,0,0.7-0.2c0.2-0.1,0.4-0.3,0.6-0.5L234.2,520.3L234.2,520.3z"></path> <path class="st3" d="M237.6,518.5c-0.2,0-0.3-0.1-0.4-0.2c-0.1-0.1-0.2-0.3-0.2-0.5s0.1-0.3,0.2-0.5c0.1-0.1,0.3-0.2,0.4-0.2 s0.3,0.1,0.4,0.2c0.1,0.1,0.2,0.3,0.2,0.5s-0.1,0.4-0.2,0.5C237.9,518.4,237.7,518.5,237.6,518.5z M237.1,525.1v-5.7h0.9v5.7H237.1 z"></path> <path class="st3" d="M240.2,525.1v-5h-0.8v-0.8h0.9V519c0-0.4,0-0.7,0.1-0.9c0.1-0.2,0.2-0.5,0.4-0.6c0.2-0.2,0.3-0.3,0.5-0.3 c0.2-0.1,0.4-0.1,0.7-0.1c0.3,0,0.6,0,0.8,0.1c0.2,0.1,0.4,0.1,0.6,0.2L243,518c-0.1-0.1-0.3-0.1-0.5-0.2c-0.2-0.1-0.4-0.1-0.6-0.1 c-0.1,0-0.3,0-0.4,0s-0.2,0.1-0.3,0.2c-0.1,0.1-0.1,0.2-0.2,0.4c0,0.2-0.1,0.4-0.1,0.6v0.4h2.6V519c0-0.4,0-0.7,0.1-0.9 c0.1-0.2,0.2-0.5,0.4-0.6s0.3-0.3,0.5-0.3c0.2-0.1,0.4-0.1,0.7-0.1c0.3,0,0.6,0,0.8,0.1c0.2,0.1,0.4,0.1,0.6,0.2l-0.3,0.7 c-0.1-0.1-0.3-0.1-0.5-0.2c-0.2-0.1-0.3-0.1-0.6-0.1c-0.1,0-0.3,0-0.4,0s-0.2,0.1-0.3,0.2s-0.1,0.2-0.2,0.4s-0.1,0.4-0.1,0.6v0.4 h1.4v0.8h-1.4v5h-0.9v-5h-2.6v5L240.2,525.1L240.2,525.1z"></path> <path class="st3" d="M247.8,522.2c0,0.7,0.2,1.3,0.5,1.7s0.8,0.6,1.4,0.6c0.4,0,0.7-0.1,0.9-0.3c0.2-0.2,0.4-0.4,0.6-0.6l0.6,0.4 c-0.2,0.4-0.5,0.7-0.8,0.9c-0.3,0.2-0.8,0.4-1.3,0.4c-0.4,0-0.8-0.1-1.2-0.2c-0.3-0.1-0.6-0.3-0.9-0.6c-0.2-0.3-0.4-0.6-0.6-0.9 c-0.2-0.3-0.2-0.8-0.2-1.3s0.1-0.9,0.2-1.2s0.3-0.7,0.5-0.9c0.2-0.3,0.5-0.5,0.8-0.6c0.3-0.1,0.7-0.2,1.1-0.2s0.8,0.1,1.1,0.2 c0.3,0.1,0.6,0.3,0.8,0.6s0.4,0.6,0.5,0.9c0.1,0.4,0.2,0.8,0.2,1.2h-4.2V522.2z M250.9,521.5c0-0.2-0.1-0.5-0.1-0.7 c-0.1-0.2-0.2-0.3-0.3-0.5c-0.1-0.1-0.3-0.2-0.5-0.3s-0.4-0.1-0.5-0.1c-0.4,0-0.7,0.1-1,0.3s-0.5,0.6-0.6,1.1h3V521.5z"></path> <path class="st3" d="M253.5,525.1v-5.7h0.8l0.1,0.5c0.2-0.2,0.3-0.3,0.6-0.4s0.5-0.2,0.7-0.2s0.3,0,0.5,0c0.1,0,0.3,0,0.3,0.1 l-0.2,0.9c-0.2-0.1-0.5-0.1-0.8-0.1c-0.2,0-0.5,0.1-0.7,0.2s-0.4,0.3-0.5,0.4v4.5h-0.8V525.1z"></path> <path class="st3" d="M258.1,525.3c-0.2,0-0.3-0.1-0.5-0.2s-0.2-0.3-0.2-0.5s0.1-0.4,0.2-0.5s0.3-0.2,0.5-0.2s0.3,0.1,0.5,0.2 c0.1,0.1,0.2,0.3,0.2,0.5s-0.1,0.4-0.2,0.5C258.4,525.2,258.2,525.3,258.1,525.3z"></path> </g> <g> <polyline class="st4" points="47.4,293.3 50.5,296.5 53.7,293.3 "></polyline> <line class="st4" x1="50.5" y1="296.1" x2="50.5" y2="283.9"></line> </g> <g> <path class="st3" d="M-60.3,338.3c-0.1-1.3-0.2-2.9-0.1-4.1h0c-0.3,1.1-0.7,2.3-1.2,3.6l-1.7,4.6h-0.9l-1.5-4.5 c-0.4-1.3-0.8-2.5-1.1-3.7h0c0,1.2-0.1,2.8-0.2,4.2l-0.3,4h-1.2l0.7-9.4h1.6l1.6,4.6c0.4,1.2,0.7,2.2,1,3.2h0c0.2-1,0.6-2,1-3.2 l1.7-4.6h1.6l0.6,9.4H-60L-60.3,338.3z"></path> <path class="st3" d="M-53.2,342.4l-0.1-0.9h0c-0.4,0.5-1.1,1-2.1,1c-1.4,0-2.1-1-2.1-1.9c0-1.6,1.5-2.5,4.1-2.5v-0.1 c0-0.6-0.2-1.6-1.5-1.6c-0.6,0-1.3,0.2-1.8,0.5l-0.3-0.8c0.6-0.4,1.4-0.6,2.2-0.6c2.1,0,2.6,1.4,2.6,2.8v2.5c0,0.6,0,1.2,0.1,1.6 H-53.2z M-53.3,338.9c-1.3,0-2.9,0.2-2.9,1.5c0,0.8,0.5,1.2,1.2,1.2c0.9,0,1.4-0.6,1.6-1.1c0-0.1,0.1-0.3,0.1-0.4V338.9z"></path> <path class="st3" d="M-50.2,337.5c0-0.7,0-1.3-0.1-1.8h1.1l0.1,1.1h0c0.3-0.6,1.1-1.3,2.2-1.3c0.9,0,2.4,0.6,2.4,2.9v4h-1.2v-3.9 c0-1.1-0.4-2-1.6-2c-0.8,0-1.4,0.6-1.7,1.3c-0.1,0.2-0.1,0.4-0.1,0.6v4.1h-1.2V337.5z"></path> <path class="st3" d="M-38.6,342.4l-0.1-0.9h0c-0.4,0.5-1.1,1-2.1,1c-1.4,0-2.1-1-2.1-1.9c0-1.6,1.5-2.5,4.1-2.5v-0.1 c0-0.6-0.2-1.6-1.5-1.6c-0.6,0-1.3,0.2-1.8,0.5l-0.3-0.8c0.6-0.4,1.4-0.6,2.2-0.6c2.1,0,2.6,1.4,2.6,2.8v2.5c0,0.6,0,1.2,0.1,1.6 H-38.6z M-38.8,338.9c-1.3,0-2.9,0.2-2.9,1.5c0,0.8,0.5,1.2,1.2,1.2c0.9,0,1.4-0.6,1.6-1.1c0-0.1,0.1-0.3,0.1-0.4V338.9z"></path> <path class="st3" d="M-29.8,335.6c0,0.5-0.1,1-0.1,1.9v3.9c0,1.6-0.3,2.5-1,3.1c-0.7,0.6-1.6,0.8-2.5,0.8c-0.8,0-1.7-0.2-2.3-0.6 l0.3-0.9c0.4,0.3,1.1,0.5,2,0.5c1.3,0,2.2-0.7,2.2-2.4v-0.8h0c-0.4,0.6-1.1,1.1-2.2,1.1c-1.7,0-2.9-1.4-2.9-3.3 c0-2.3,1.5-3.6,3.1-3.6c1.2,0,1.8,0.6,2.1,1.2h0l0.1-1H-29.8z M-31.1,338.3c0-0.2,0-0.4-0.1-0.6c-0.2-0.7-0.8-1.3-1.7-1.3 c-1.2,0-2,1-2,2.6c0,1.3,0.7,2.4,2,2.4c0.8,0,1.4-0.5,1.7-1.3c0.1-0.2,0.1-0.4,0.1-0.7V338.3z"></path> <path class="st3" d="M-27.1,339.2c0,1.7,1.1,2.4,2.3,2.4c0.9,0,1.4-0.2,1.9-0.4l0.2,0.9c-0.4,0.2-1.2,0.4-2.3,0.4 c-2.1,0-3.3-1.4-3.3-3.4c0-2,1.2-3.7,3.2-3.7c2.2,0,2.8,1.9,2.8,3.2c0,0.3,0,0.4,0,0.6H-27.1z M-23.5,338.4c0-0.8-0.3-2-1.7-2 c-1.2,0-1.8,1.1-1.9,2H-23.5z"></path> <path class="st3" d="M-20.8,337.5c0-0.7,0-1.3-0.1-1.8h1.1l0.1,1.1h0c0.4-0.6,1-1.2,2.1-1.2c0.9,0,1.6,0.6,1.9,1.4h0 c0.2-0.4,0.5-0.7,0.8-0.9c0.4-0.3,0.9-0.5,1.5-0.5c0.9,0,2.2,0.6,2.2,2.9v4h-1.2v-3.8c0-1.3-0.5-2.1-1.5-2.1 c-0.7,0-1.2,0.5-1.5,1.1c-0.1,0.2-0.1,0.4-0.1,0.6v4.2h-1.2v-4.1c0-1.1-0.5-1.9-1.4-1.9c-0.8,0-1.3,0.6-1.5,1.2 c-0.1,0.2-0.1,0.4-0.1,0.6v4.1h-1.2V337.5z"></path> <path class="st3" d="M-8.5,339.2c0,1.7,1.1,2.4,2.3,2.4c0.9,0,1.4-0.2,1.9-0.4l0.2,0.9c-0.4,0.2-1.2,0.4-2.3,0.4 c-2.1,0-3.3-1.4-3.3-3.4c0-2,1.2-3.7,3.2-3.7c2.2,0,2.8,1.9,2.8,3.2c0,0.3,0,0.4,0,0.6H-8.5z M-4.8,338.4c0-0.8-0.3-2-1.7-2 c-1.2,0-1.8,1.1-1.9,2H-4.8z"></path> <path class="st3" d="M-2.1,337.5c0-0.7,0-1.3-0.1-1.8h1.1l0.1,1.1h0c0.3-0.6,1.1-1.3,2.2-1.3c0.9,0,2.4,0.6,2.4,2.9v4H2.4v-3.9 c0-1.1-0.4-2-1.6-2c-0.8,0-1.4,0.6-1.7,1.3c-0.1,0.2-0.1,0.4-0.1,0.6v4.1h-1.2V337.5z"></path> <path class="st3" d="M7.1,333.7v1.9h1.8v0.9H7.1v3.7c0,0.8,0.2,1.3,0.9,1.3c0.3,0,0.6,0,0.7-0.1l0.1,0.9c-0.2,0.1-0.6,0.2-1.1,0.2 c-0.6,0-1-0.2-1.3-0.5c-0.4-0.4-0.5-1-0.5-1.8v-3.7H4.8v-0.9h1.1V334L7.1,333.7z"></path> <path class="st3" d="M-33.5,358.9c-0.4,0.2-1.3,0.4-2.5,0.4c-2.7,0-4.7-1.7-4.7-4.8c0-3,2-5,4.9-5c1.2,0,1.9,0.3,2.2,0.4l-0.3,1 c-0.5-0.2-1.1-0.4-1.9-0.4c-2.2,0-3.7,1.4-3.7,3.9c0,2.3,1.3,3.8,3.6,3.8c0.7,0,1.5-0.2,2-0.4L-33.5,358.9z"></path> <path class="st3" d="M-28.4,359.2l-0.1-0.9h0c-0.4,0.5-1.1,1-2.1,1c-1.4,0-2.1-1-2.1-1.9c0-1.6,1.5-2.5,4.1-2.5v-0.1 c0-0.6-0.2-1.6-1.5-1.6c-0.6,0-1.3,0.2-1.8,0.5l-0.3-0.8c0.6-0.4,1.4-0.6,2.2-0.6c2.1,0,2.6,1.4,2.6,2.8v2.5c0,0.6,0,1.2,0.1,1.6 H-28.4z M-28.6,355.7c-1.3,0-2.9,0.2-2.9,1.5c0,0.8,0.5,1.2,1.2,1.2c0.9,0,1.4-0.6,1.6-1.1c0-0.1,0.1-0.3,0.1-0.4V355.7z"></path> <path class="st3" d="M-25.4,354.6c0-0.9,0-1.6-0.1-2.2h1.1l0.1,1.2h0c0.5-0.8,1.3-1.3,2.4-1.3c1.6,0,2.9,1.4,2.9,3.4 c0,2.4-1.5,3.6-3.1,3.6c-0.9,0-1.7-0.4-2.1-1.1h0v3.7h-1.2V354.6z M-24.2,356.4c0,0.2,0,0.4,0.1,0.5c0.2,0.9,1,1.4,1.8,1.4 c1.3,0,2.1-1.1,2.1-2.6c0-1.4-0.7-2.5-2-2.5c-0.8,0-1.6,0.6-1.9,1.5c0,0.2-0.1,0.3-0.1,0.5V356.4z"></path> <path class="st3" d="M-13.7,359.2l-0.1-0.9h0c-0.4,0.5-1.1,1-2.1,1c-1.4,0-2.1-1-2.1-1.9c0-1.6,1.5-2.5,4.1-2.5v-0.1 c0-0.6-0.2-1.6-1.5-1.6c-0.6,0-1.3,0.2-1.8,0.5l-0.3-0.8c0.6-0.4,1.4-0.6,2.2-0.6c2.1,0,2.6,1.4,2.6,2.8v2.5c0,0.6,0,1.2,0.1,1.6 H-13.7z M-13.9,355.7c-1.3,0-2.9,0.2-2.9,1.5c0,0.8,0.5,1.2,1.2,1.2c0.9,0,1.4-0.6,1.6-1.1c0-0.1,0.1-0.3,0.1-0.4V355.7z"></path> <path class="st3" d="M-5.8,358.9c-0.3,0.2-1,0.4-1.9,0.4c-2,0-3.4-1.4-3.4-3.5c0-2.1,1.4-3.6,3.6-3.6c0.7,0,1.4,0.2,1.7,0.4l-0.3,1 c-0.3-0.2-0.8-0.3-1.4-0.3c-1.6,0-2.4,1.1-2.4,2.6c0,1.6,1,2.5,2.4,2.5c0.7,0,1.2-0.2,1.5-0.3L-5.8,358.9z"></path> <path class="st3" d="M-3,350.5c0,0.4-0.3,0.8-0.8,0.8c-0.4,0-0.7-0.3-0.7-0.8c0-0.4,0.3-0.8,0.8-0.8C-3.3,349.7-3,350.1-3,350.5z M-4.4,359.2v-6.8h1.2v6.8H-4.4z"></path> <path class="st3" d="M0.4,350.5v1.9h1.8v0.9H0.4v3.7c0,0.8,0.2,1.3,0.9,1.3c0.3,0,0.6,0,0.7-0.1l0.1,0.9c-0.2,0.1-0.6,0.2-1.1,0.2 c-0.6,0-1-0.2-1.3-0.5c-0.4-0.4-0.5-1-0.5-1.8v-3.7h-1.1v-0.9h1.1v-1.6L0.4,350.5z"></path> <path class="st3" d="M4.1,352.4l1.5,4c0.2,0.4,0.3,1,0.4,1.4h0c0.1-0.4,0.3-0.9,0.4-1.4l1.3-4h1.3l-1.8,4.8 c-0.9,2.3-1.5,3.5-2.3,4.2c-0.6,0.5-1.2,0.7-1.5,0.8l-0.3-1c0.3-0.1,0.7-0.3,1.1-0.6c0.3-0.3,0.8-0.7,1-1.4 c0.1-0.1,0.1-0.2,0.1-0.3c0-0.1,0-0.2-0.1-0.3l-2.5-6.2H4.1z"></path> </g> <g> <g> <path class="st3" d="M-58.6,389.5l-1,3h-1.3l3.2-9.4h1.5l3.2,9.4h-1.3l-1-3H-58.6z M-55.5,388.6l-0.9-2.7 c-0.2-0.6-0.4-1.2-0.5-1.7h0c-0.1,0.6-0.3,1.1-0.5,1.7l-0.9,2.7H-55.5z"></path> <path class="st3" d="M-51.9,391.2c0.4,0.2,1,0.5,1.6,0.5c0.9,0,1.3-0.4,1.3-1c0-0.6-0.4-0.9-1.3-1.2c-1.2-0.4-1.8-1.1-1.8-1.9 c0-1.1,0.9-2,2.3-2c0.7,0,1.3,0.2,1.7,0.4l-0.3,0.9c-0.3-0.2-0.8-0.4-1.4-0.4c-0.7,0-1.1,0.4-1.1,0.9c0,0.6,0.4,0.8,1.3,1.1 c1.2,0.4,1.8,1,1.8,2c0,1.2-0.9,2-2.5,2c-0.7,0-1.4-0.2-1.9-0.5L-51.9,391.2z"></path> <path class="st3" d="M-46.3,391.2c0.4,0.2,1,0.5,1.6,0.5c0.9,0,1.3-0.4,1.3-1c0-0.6-0.4-0.9-1.3-1.2c-1.2-0.4-1.8-1.1-1.8-1.9 c0-1.1,0.9-2,2.3-2c0.7,0,1.3,0.2,1.7,0.4l-0.3,0.9c-0.3-0.2-0.8-0.4-1.4-0.4c-0.7,0-1.1,0.4-1.1,0.9c0,0.6,0.4,0.8,1.3,1.1 c1.2,0.4,1.8,1,1.8,2c0,1.2-0.9,2-2.5,2c-0.7,0-1.4-0.2-1.9-0.5L-46.3,391.2z"></path> <path class="st3" d="M-39.9,389.3c0,1.7,1.1,2.4,2.3,2.4c0.9,0,1.4-0.2,1.9-0.4l0.2,0.9c-0.4,0.2-1.2,0.4-2.3,0.4 c-2.1,0-3.3-1.4-3.3-3.4c0-2,1.2-3.7,3.2-3.7c2.2,0,2.8,1.9,2.8,3.2c0,0.3,0,0.4,0,0.6H-39.9z M-36.3,388.5c0-0.8-0.3-2-1.7-2 c-1.2,0-1.8,1.1-1.9,2H-36.3z"></path> <path class="st3" d="M-33.8,391.2c0.4,0.2,1,0.5,1.6,0.5c0.9,0,1.3-0.4,1.3-1c0-0.6-0.4-0.9-1.3-1.2c-1.2-0.4-1.8-1.1-1.8-1.9 c0-1.1,0.9-2,2.3-2c0.7,0,1.3,0.2,1.7,0.4l-0.3,0.9c-0.3-0.2-0.8-0.4-1.4-0.4c-0.7,0-1.1,0.4-1.1,0.9c0,0.6,0.4,0.8,1.3,1.1 c1.2,0.4,1.8,1,1.8,2c0,1.2-0.9,2-2.5,2c-0.7,0-1.4-0.2-1.9-0.5L-33.8,391.2z"></path> <path class="st3" d="M-28.2,391.2c0.4,0.2,1,0.5,1.6,0.5c0.9,0,1.3-0.4,1.3-1c0-0.6-0.4-0.9-1.3-1.2c-1.2-0.4-1.8-1.1-1.8-1.9 c0-1.1,0.9-2,2.3-2c0.7,0,1.3,0.2,1.7,0.4l-0.3,0.9c-0.3-0.2-0.8-0.4-1.4-0.4c-0.7,0-1.1,0.4-1.1,0.9c0,0.6,0.4,0.8,1.3,1.1 c1.2,0.4,1.8,1,1.8,2c0,1.2-0.9,2-2.5,2c-0.7,0-1.4-0.2-1.9-0.5L-28.2,391.2z"></path> <path class="st3" d="M-22.5,387.6c0-0.7,0-1.3-0.1-1.8h1.1l0.1,1.1h0c0.4-0.6,1-1.2,2.1-1.2c0.9,0,1.6,0.6,1.9,1.4h0 c0.2-0.4,0.5-0.7,0.8-0.9c0.4-0.3,0.9-0.5,1.5-0.5c0.9,0,2.2,0.6,2.2,2.9v4H-14v-3.8c0-1.3-0.5-2.1-1.5-2.1 c-0.7,0-1.2,0.5-1.5,1.1c-0.1,0.2-0.1,0.4-0.1,0.6v4.2h-1.2v-4.1c0-1.1-0.5-1.9-1.4-1.9c-0.8,0-1.3,0.6-1.5,1.2 c-0.1,0.2-0.1,0.4-0.1,0.6v4.1h-1.2V387.6z"></path> <path class="st3" d="M-10.2,389.3c0,1.7,1.1,2.4,2.3,2.4c0.9,0,1.4-0.2,1.9-0.4l0.2,0.9c-0.4,0.2-1.2,0.4-2.3,0.4 c-2.1,0-3.3-1.4-3.3-3.4c0-2,1.2-3.7,3.2-3.7c2.2,0,2.8,1.9,2.8,3.2c0,0.3,0,0.4,0,0.6H-10.2z M-6.5,388.5c0-0.8-0.3-2-1.7-2 c-1.2,0-1.8,1.1-1.9,2H-6.5z"></path> <path class="st3" d="M-3.8,387.6c0-0.7,0-1.3-0.1-1.8h1.1l0.1,1.1h0c0.3-0.6,1.1-1.3,2.2-1.3c0.9,0,2.4,0.6,2.4,2.9v4H0.7v-3.9 c0-1.1-0.4-2-1.6-2c-0.8,0-1.4,0.6-1.7,1.3c-0.1,0.2-0.1,0.4-0.1,0.6v4.1h-1.2V387.6z"></path> <path class="st3" d="M5.4,383.8v1.9h1.8v0.9H5.4v3.7c0,0.8,0.2,1.3,0.9,1.3c0.3,0,0.6,0,0.7-0.1l0.1,0.9c-0.2,0.1-0.6,0.2-1.1,0.2 c-0.6,0-1-0.2-1.3-0.5c-0.4-0.4-0.5-1-0.5-1.8v-3.7H3.1v-0.9h1.1v-1.6L5.4,383.8z"></path> <path class="st3" d="M-35.2,409c-0.4,0.2-1.3,0.4-2.5,0.4c-2.7,0-4.7-1.7-4.7-4.8c0-3,2-5,4.9-5c1.2,0,1.9,0.3,2.2,0.4l-0.3,1 c-0.5-0.2-1.1-0.4-1.9-0.4c-2.2,0-3.7,1.4-3.7,3.9c0,2.3,1.3,3.8,3.6,3.8c0.7,0,1.5-0.2,2-0.4L-35.2,409z"></path> <path class="st3" d="M-30.1,409.3l-0.1-0.9h0c-0.4,0.5-1.1,1-2.1,1c-1.4,0-2.1-1-2.1-1.9c0-1.6,1.5-2.5,4.1-2.5v-0.1 c0-0.6-0.2-1.6-1.5-1.6c-0.6,0-1.3,0.2-1.8,0.5l-0.3-0.8c0.6-0.4,1.4-0.6,2.2-0.6c2.1,0,2.6,1.4,2.6,2.8v2.5c0,0.6,0,1.2,0.1,1.6 H-30.1z M-30.3,405.8c-1.3,0-2.9,0.2-2.9,1.5c0,0.8,0.5,1.2,1.2,1.2c0.9,0,1.4-0.6,1.6-1.1c0-0.1,0.1-0.3,0.1-0.4V405.8z"></path> <path class="st3" d="M-27.1,404.7c0-0.9,0-1.6-0.1-2.2h1.1l0.1,1.2h0c0.5-0.8,1.3-1.3,2.4-1.3c1.6,0,2.9,1.4,2.9,3.4 c0,2.4-1.5,3.6-3.1,3.6c-0.9,0-1.7-0.4-2.1-1.1h0v3.7h-1.2V404.7z M-25.9,406.5c0,0.2,0,0.3,0.1,0.5c0.2,0.9,1,1.4,1.8,1.4 c1.3,0,2.1-1.1,2.1-2.6c0-1.4-0.7-2.5-2-2.5c-0.8,0-1.6,0.6-1.9,1.5c0,0.2-0.1,0.3-0.1,0.5V406.5z"></path> <path class="st3" d="M-15.4,409.3l-0.1-0.9h0c-0.4,0.5-1.1,1-2.1,1c-1.4,0-2.1-1-2.1-1.9c0-1.6,1.5-2.5,4.1-2.5v-0.1 c0-0.6-0.2-1.6-1.5-1.6c-0.6,0-1.3,0.2-1.8,0.5l-0.3-0.8c0.6-0.4,1.4-0.6,2.2-0.6c2.1,0,2.6,1.4,2.6,2.8v2.5c0,0.6,0,1.2,0.1,1.6 H-15.4z M-15.6,405.8c-1.3,0-2.9,0.2-2.9,1.5c0,0.8,0.5,1.2,1.2,1.2c0.9,0,1.4-0.6,1.6-1.1c0-0.1,0.1-0.3,0.1-0.4V405.8z"></path> <path class="st3" d="M-7.5,409c-0.3,0.2-1,0.4-1.9,0.4c-2,0-3.4-1.4-3.4-3.5c0-2.1,1.4-3.6,3.6-3.6c0.7,0,1.4,0.2,1.7,0.4l-0.3,1 c-0.3-0.2-0.8-0.3-1.4-0.3c-1.6,0-2.4,1.1-2.4,2.6c0,1.6,1,2.5,2.4,2.5c0.7,0,1.2-0.2,1.5-0.3L-7.5,409z"></path> <path class="st3" d="M-4.7,400.6c0,0.4-0.3,0.8-0.8,0.8c-0.4,0-0.7-0.3-0.7-0.8c0-0.4,0.3-0.8,0.8-0.8 C-5,399.8-4.7,400.2-4.7,400.6z M-6.1,409.3v-6.8h1.2v6.8H-6.1z"></path> <path class="st3" d="M-1.3,400.6v1.9h1.8v0.9h-1.8v3.7c0,0.8,0.2,1.3,0.9,1.3c0.3,0,0.6,0,0.7-0.1l0.1,0.9 c-0.2,0.1-0.6,0.2-1.1,0.2c-0.6,0-1-0.2-1.3-0.5c-0.4-0.4-0.5-1-0.5-1.8v-3.7h-1.1v-0.9h1.1v-1.6L-1.3,400.6z"></path> <path class="st3" d="M2.4,402.5l1.5,4c0.2,0.4,0.3,1,0.4,1.4h0c0.1-0.4,0.3-0.9,0.4-1.4l1.3-4h1.3l-1.8,4.8 c-0.9,2.3-1.5,3.5-2.3,4.2c-0.6,0.5-1.2,0.7-1.5,0.8l-0.3-1c0.3-0.1,0.7-0.3,1.1-0.6c0.3-0.3,0.8-0.7,1-1.4 c0.1-0.1,0.1-0.2,0.1-0.3s0-0.2-0.1-0.3L1,402.5H2.4z"></path> </g> </g> <g> <g> <path class="st3" d="M-54.4,437.2c0,3.3-2,5-4.4,5c-2.5,0-4.2-1.9-4.2-4.8c0-3,1.9-5,4.4-5C-56.1,432.4-54.4,434.4-54.4,437.2z M-61.7,437.3c0,2,1.1,3.8,3,3.8c1.9,0,3-1.8,3-3.9c0-1.9-1-3.8-3-3.8C-60.7,433.4-61.7,435.3-61.7,437.3z"></path> <path class="st3" d="M-52.9,437.1c0-0.7,0-1.3-0.1-1.8h1.1l0.1,1.1h0c0.3-0.6,1.1-1.3,2.2-1.3c0.9,0,2.4,0.6,2.4,2.9v4h-1.2v-3.9 c0-1.1-0.4-2-1.6-2c-0.8,0-1.4,0.6-1.7,1.3c-0.1,0.2-0.1,0.4-0.1,0.6v4.1h-1.2V437.1z"></path> <path class="st3" d="M-45.1,442c0-0.5,0.1-1.1,0.1-1.8v-8.2h1.2v4.3h0c0.4-0.8,1.2-1.2,2.3-1.2c1.7,0,2.9,1.4,2.9,3.5 c0,2.4-1.5,3.6-3,3.6c-1,0-1.8-0.4-2.3-1.3h0l-0.1,1.1H-45.1z M-43.9,439.3c0,0.2,0,0.3,0.1,0.4c0.2,0.9,1,1.4,1.8,1.4 c1.3,0,2.1-1.1,2.1-2.6c0-1.4-0.7-2.5-2-2.5c-0.8,0-1.6,0.6-1.9,1.5c0,0.1-0.1,0.3-0.1,0.5V439.3z"></path> <path class="st3" d="M-31,438.6c0,2.5-1.7,3.6-3.4,3.6c-1.8,0-3.3-1.3-3.3-3.5c0-2.3,1.5-3.6,3.4-3.6 C-32.3,435.1-31,436.5-31,438.6z M-36.4,438.6c0,1.5,0.9,2.6,2.1,2.6c1.2,0,2.1-1.1,2.1-2.6c0-1.1-0.6-2.6-2-2.6 C-35.7,436-36.4,437.3-36.4,438.6z"></path> <path class="st3" d="M-25.7,442l-0.1-0.9h0c-0.4,0.5-1.1,1-2.1,1c-1.4,0-2.1-1-2.1-1.9c0-1.6,1.5-2.5,4.1-2.5v-0.1 c0-0.6-0.2-1.6-1.5-1.6c-0.6,0-1.3,0.2-1.8,0.5l-0.3-0.8c0.6-0.4,1.4-0.6,2.2-0.6c2.1,0,2.6,1.4,2.6,2.8v2.5c0,0.6,0,1.2,0.1,1.6 H-25.7z M-25.9,438.5c-1.3,0-2.9,0.2-2.9,1.5c0,0.8,0.5,1.2,1.2,1.2c0.9,0,1.4-0.6,1.6-1.1c0-0.1,0.1-0.3,0.1-0.4V438.5z"></path> <path class="st3" d="M-22.7,437.3c0-0.8,0-1.5-0.1-2.1h1.1l0,1.3h0.1c0.3-0.9,1.1-1.5,1.9-1.5c0.1,0,0.2,0,0.4,0v1.2 c-0.1,0-0.3,0-0.4,0c-0.9,0-1.5,0.7-1.7,1.6c0,0.2-0.1,0.4-0.1,0.6v3.6h-1.2V437.3z"></path> <path class="st3" d="M-12.4,432.1v8.2c0,0.6,0,1.3,0.1,1.8h-1.1l-0.1-1.2h0c-0.4,0.8-1.2,1.3-2.3,1.3c-1.6,0-2.9-1.4-2.9-3.4 c0-2.3,1.4-3.6,3-3.6c1,0,1.7,0.5,2,1h0v-4H-12.4z M-13.6,438c0-0.2,0-0.4-0.1-0.5c-0.2-0.8-0.9-1.4-1.8-1.4c-1.3,0-2,1.1-2,2.6 c0,1.4,0.7,2.5,2,2.5c0.8,0,1.6-0.5,1.8-1.5c0-0.2,0.1-0.3,0.1-0.5V438z"></path> <path class="st3" d="M-9,433.3c0,0.4-0.3,0.8-0.8,0.8c-0.4,0-0.7-0.3-0.7-0.8c0-0.4,0.3-0.8,0.8-0.8C-9.3,432.5-9,432.9-9,433.3z M-10.3,442v-6.8h1.2v6.8H-10.3z"></path> <path class="st3" d="M-7.1,437.1c0-0.7,0-1.3-0.1-1.8H-6l0.1,1.1h0c0.3-0.6,1.1-1.3,2.2-1.3c0.9,0,2.4,0.6,2.4,2.9v4h-1.2v-3.9 c0-1.1-0.4-2-1.6-2c-0.8,0-1.4,0.6-1.7,1.3c-0.1,0.2-0.1,0.4-0.1,0.6v4.1h-1.2V437.1z"></path> <path class="st3" d="M6.5,435.2c0,0.5-0.1,1-0.1,1.9v3.9c0,1.6-0.3,2.5-1,3.1c-0.7,0.6-1.6,0.8-2.5,0.8c-0.8,0-1.7-0.2-2.3-0.6 l0.3-0.9c0.4,0.3,1.1,0.5,2,0.5c1.3,0,2.2-0.7,2.2-2.4v-0.8h0c-0.4,0.6-1.1,1.1-2.2,1.1c-1.7,0-2.9-1.4-2.9-3.3 c0-2.3,1.5-3.6,3.1-3.6c1.2,0,1.8,0.6,2.1,1.2h0l0.1-1H6.5z M5.3,437.9c0-0.2,0-0.4-0.1-0.6C5,436.6,4.4,436,3.5,436 c-1.2,0-2,1-2,2.6c0,1.3,0.7,2.4,2,2.4c0.8,0,1.4-0.5,1.7-1.3c0.1-0.2,0.1-0.4,0.1-0.7V437.9z"></path> <path class="st3" d="M-35.2,458.5c-0.4,0.2-1.3,0.4-2.5,0.4c-2.7,0-4.7-1.7-4.7-4.8c0-3,2-5,4.9-5c1.2,0,1.9,0.3,2.2,0.4l-0.3,1 c-0.5-0.2-1.1-0.4-1.9-0.4c-2.2,0-3.7,1.4-3.7,3.9c0,2.3,1.3,3.8,3.6,3.8c0.7,0,1.5-0.2,2-0.4L-35.2,458.5z"></path> <path class="st3" d="M-30.1,458.8l-0.1-0.9h0c-0.4,0.5-1.1,1-2.1,1c-1.4,0-2.1-1-2.1-1.9c0-1.6,1.5-2.5,4.1-2.5v-0.1 c0-0.6-0.2-1.6-1.5-1.6c-0.6,0-1.3,0.2-1.8,0.5l-0.3-0.8c0.6-0.4,1.4-0.6,2.2-0.6c2.1,0,2.6,1.4,2.6,2.8v2.5c0,0.6,0,1.2,0.1,1.6 H-30.1z M-30.3,455.3c-1.3,0-2.9,0.2-2.9,1.5c0,0.8,0.5,1.2,1.2,1.2c0.9,0,1.4-0.6,1.6-1.1c0-0.1,0.1-0.3,0.1-0.4V455.3z"></path> <path class="st3" d="M-27.1,454.2c0-0.9,0-1.6-0.1-2.2h1.1l0.1,1.2h0c0.5-0.8,1.3-1.3,2.4-1.3c1.6,0,2.9,1.4,2.9,3.4 c0,2.4-1.5,3.6-3.1,3.6c-0.9,0-1.7-0.4-2.1-1.1h0v3.7h-1.2V454.2z M-25.9,456c0,0.2,0,0.4,0.1,0.5c0.2,0.9,1,1.4,1.8,1.4 c1.3,0,2.1-1.1,2.1-2.6c0-1.4-0.7-2.5-2-2.5c-0.8,0-1.6,0.6-1.9,1.5c0,0.2-0.1,0.3-0.1,0.5V456z"></path> <path class="st3" d="M-15.4,458.8l-0.1-0.9h0c-0.4,0.5-1.1,1-2.1,1c-1.4,0-2.1-1-2.1-1.9c0-1.6,1.5-2.5,4.1-2.5v-0.1 c0-0.6-0.2-1.6-1.5-1.6c-0.6,0-1.3,0.2-1.8,0.5l-0.3-0.8c0.6-0.4,1.4-0.6,2.2-0.6c2.1,0,2.6,1.4,2.6,2.8v2.5c0,0.6,0,1.2,0.1,1.6 H-15.4z M-15.6,455.3c-1.3,0-2.9,0.2-2.9,1.5c0,0.8,0.5,1.2,1.2,1.2c0.9,0,1.4-0.6,1.6-1.1c0-0.1,0.1-0.3,0.1-0.4V455.3z"></path> <path class="st3" d="M-7.5,458.5c-0.3,0.2-1,0.4-1.9,0.4c-2,0-3.4-1.4-3.4-3.5c0-2.1,1.4-3.6,3.6-3.6c0.7,0,1.4,0.2,1.7,0.4 l-0.3,1c-0.3-0.2-0.8-0.3-1.4-0.3c-1.6,0-2.4,1.1-2.4,2.6c0,1.6,1,2.5,2.4,2.5c0.7,0,1.2-0.2,1.5-0.3L-7.5,458.5z"></path> <path class="st3" d="M-4.7,450.1c0,0.4-0.3,0.8-0.8,0.8c-0.4,0-0.7-0.3-0.7-0.8c0-0.4,0.3-0.8,0.8-0.8 C-5,449.3-4.7,449.7-4.7,450.1z M-6.1,458.8V452h1.2v6.8H-6.1z"></path> <path class="st3" d="M-1.3,450.1v1.9h1.8v0.9h-1.8v3.7c0,0.8,0.2,1.3,0.9,1.3c0.3,0,0.6,0,0.7-0.1l0.1,0.9 c-0.2,0.1-0.6,0.2-1.1,0.2c-0.6,0-1-0.2-1.3-0.5c-0.4-0.4-0.5-1-0.5-1.8V453h-1.1V452h1.1v-1.6L-1.3,450.1z"></path> <path class="st3" d="M2.4,452l1.5,4c0.2,0.4,0.3,1,0.4,1.4h0c0.1-0.4,0.3-0.9,0.4-1.4l1.3-4h1.3l-1.8,4.8 c-0.9,2.3-1.5,3.5-2.3,4.2c-0.6,0.5-1.2,0.7-1.5,0.8l-0.3-1c0.3-0.1,0.7-0.3,1.1-0.6c0.3-0.3,0.8-0.7,1-1.4 c0.1-0.1,0.1-0.2,0.1-0.3s0-0.2-0.1-0.3L1,452H2.4z"></path> </g> </g> <g> <path class="st1" d="M301,332.6c0,0.1,0,0.3,0,0.4c0,0.1,0,0.2,0,0.3c0,0.1,0,0.2-0.1,0.3c0,0.1-0.1,0.2-0.1,0.3l-5.7,13.1 c0,0.1-0.1,0.2-0.2,0.2c-0.1,0.1-0.1,0.1-0.2,0.1c-0.1,0-0.2,0.1-0.4,0.1c-0.1,0-0.3,0-0.5,0c-0.3,0-0.5,0-0.6,0 c-0.2,0-0.3-0.1-0.3-0.1c-0.1-0.1-0.1-0.1-0.1-0.2c0-0.1,0-0.2,0.1-0.3l6-13.4h-7.6c-0.2,0-0.3-0.1-0.3-0.2 c-0.1-0.2-0.1-0.4-0.1-0.7c0-0.2,0-0.3,0-0.4c0-0.1,0-0.2,0.1-0.3c0-0.1,0.1-0.1,0.1-0.2c0.1,0,0.1-0.1,0.2-0.1h9.2 c0.1,0,0.2,0,0.3,0c0.1,0,0.2,0.1,0.2,0.1c0,0.1,0.1,0.2,0.1,0.3C301,332.3,301,332.4,301,332.6z"></path> <path class="st1" d="M314,339.6c0,1.2-0.1,2.3-0.3,3.3c-0.2,1-0.5,1.9-1,2.6c-0.4,0.7-1,1.3-1.7,1.7c-0.7,0.4-1.6,0.6-2.6,0.6 c-1,0-1.8-0.2-2.5-0.5c-0.7-0.4-1.2-0.9-1.6-1.6c-0.4-0.7-0.7-1.5-0.9-2.5c-0.2-1-0.3-2.2-0.3-3.5c0-1.2,0.1-2.3,0.3-3.3 c0.2-1,0.5-1.9,1-2.6c0.4-0.7,1-1.3,1.7-1.7c0.7-0.4,1.6-0.6,2.6-0.6c1,0,1.8,0.2,2.5,0.5c0.7,0.4,1.2,0.9,1.6,1.6 c0.4,0.7,0.7,1.5,0.9,2.5C313.9,337.1,314,338.3,314,339.6z M311.8,339.7c0-0.8,0-1.5-0.1-2.1c-0.1-0.6-0.1-1.2-0.3-1.7 c-0.1-0.5-0.3-0.9-0.4-1.2c-0.2-0.3-0.4-0.6-0.6-0.9c-0.2-0.2-0.5-0.4-0.8-0.5c-0.3-0.1-0.7-0.2-1.1-0.2c-0.7,0-1.3,0.2-1.7,0.5 c-0.4,0.3-0.8,0.8-1,1.3c-0.2,0.6-0.4,1.2-0.5,2c-0.1,0.8-0.1,1.6-0.1,2.5c0,1.2,0.1,2.2,0.2,3c0.1,0.8,0.3,1.5,0.6,2 c0.3,0.5,0.6,0.9,1,1.1c0.4,0.2,0.9,0.4,1.5,0.4c0.5,0,0.9-0.1,1.2-0.2s0.6-0.4,0.9-0.6c0.2-0.3,0.5-0.6,0.6-1 c0.2-0.4,0.3-0.8,0.4-1.3s0.2-1,0.2-1.5C311.8,340.9,311.8,340.3,311.8,339.7z"></path> <path class="st1" d="M326.7,339.6c0,1.2-0.1,2.3-0.3,3.3c-0.2,1-0.5,1.9-1,2.6c-0.4,0.7-1,1.3-1.7,1.7c-0.7,0.4-1.6,0.6-2.6,0.6 c-1,0-1.8-0.2-2.5-0.5c-0.7-0.4-1.2-0.9-1.6-1.6c-0.4-0.7-0.7-1.5-0.9-2.5c-0.2-1-0.3-2.2-0.3-3.5c0-1.2,0.1-2.3,0.3-3.3 c0.2-1,0.5-1.9,1-2.6c0.4-0.7,1-1.3,1.7-1.7c0.7-0.4,1.6-0.6,2.6-0.6c1,0,1.8,0.2,2.5,0.5c0.7,0.4,1.2,0.9,1.6,1.6 c0.4,0.7,0.7,1.5,0.9,2.5C326.6,337.1,326.7,338.3,326.7,339.6z M324.5,339.7c0-0.8,0-1.5-0.1-2.1c-0.1-0.6-0.1-1.2-0.3-1.7 c-0.1-0.5-0.3-0.9-0.4-1.2c-0.2-0.3-0.4-0.6-0.6-0.9c-0.2-0.2-0.5-0.4-0.8-0.5c-0.3-0.1-0.7-0.2-1.1-0.2c-0.7,0-1.3,0.2-1.7,0.5 c-0.4,0.3-0.8,0.8-1,1.3c-0.2,0.6-0.4,1.2-0.5,2c-0.1,0.8-0.1,1.6-0.1,2.5c0,1.2,0.1,2.2,0.2,3c0.1,0.8,0.3,1.5,0.6,2 c0.3,0.5,0.6,0.9,1,1.1c0.4,0.2,0.9,0.4,1.5,0.4c0.5,0,0.9-0.1,1.2-0.2s0.6-0.4,0.9-0.6c0.2-0.3,0.5-0.6,0.6-1 c0.2-0.4,0.3-0.8,0.4-1.3s0.2-1,0.2-1.5C324.5,340.9,324.5,340.3,324.5,339.7z"></path> <path class="st1" d="M335.2,335.6c0,0.6-0.1,1.2-0.2,1.7c-0.1,0.5-0.4,1-0.6,1.3c-0.3,0.4-0.6,0.6-1.1,0.8 c-0.4,0.2-0.9,0.3-1.5,0.3c-0.6,0-1.1-0.1-1.5-0.3c-0.4-0.2-0.8-0.5-1-0.8c-0.3-0.4-0.5-0.8-0.6-1.3c-0.1-0.5-0.2-1.1-0.2-1.7 c0-0.6,0.1-1.1,0.2-1.6c0.1-0.5,0.3-0.9,0.6-1.3s0.6-0.7,1.1-0.9c0.4-0.2,1-0.3,1.5-0.3c0.6,0,1.2,0.1,1.6,0.3 c0.4,0.2,0.8,0.5,1,0.9c0.3,0.4,0.4,0.8,0.5,1.3C335.2,334.5,335.2,335.1,335.2,335.6z M331.8,347.6c0,0.1-0.1,0.1-0.1,0.2 c-0.1,0-0.1,0.1-0.2,0.1c-0.1,0-0.2,0-0.3,0.1c-0.1,0-0.3,0-0.4,0c-0.2,0-0.3,0-0.4,0c-0.1,0-0.2-0.1-0.2-0.1c0-0.1-0.1-0.1,0-0.2 c0-0.1,0.1-0.2,0.1-0.3l11-15.7c0-0.1,0.1-0.1,0.1-0.2c0.1,0,0.1-0.1,0.2-0.1c0.1,0,0.2,0,0.3-0.1c0.1,0,0.3,0,0.4,0s0.3,0,0.4,0 c0.1,0,0.2,0.1,0.2,0.1c0,0.1,0.1,0.1,0.1,0.2c0,0.1-0.1,0.2-0.1,0.3L331.8,347.6z M333.5,335.7c0-0.5,0-0.9-0.1-1.2 c-0.1-0.4-0.2-0.6-0.3-0.9c-0.1-0.2-0.3-0.4-0.5-0.5c-0.2-0.1-0.5-0.2-0.8-0.2c-0.3,0-0.5,0.1-0.7,0.2c-0.2,0.1-0.4,0.3-0.5,0.5 c-0.1,0.2-0.2,0.5-0.3,0.8c-0.1,0.3-0.1,0.7-0.1,1.2c0,0.6,0,1,0.1,1.4c0.1,0.4,0.2,0.7,0.3,0.9c0.1,0.2,0.3,0.4,0.5,0.5 c0.2,0.1,0.5,0.1,0.7,0.1c0.3,0,0.6-0.1,0.8-0.2c0.2-0.1,0.4-0.3,0.5-0.5c0.1-0.2,0.2-0.5,0.3-0.9 C333.5,336.5,333.5,336.1,333.5,335.7z M344.5,343.5c0,0.6-0.1,1.2-0.2,1.7s-0.3,1-0.6,1.3c-0.3,0.4-0.6,0.6-1.1,0.8 s-0.9,0.3-1.5,0.3c-0.6,0-1.1-0.1-1.5-0.3c-0.4-0.2-0.8-0.5-1-0.8c-0.3-0.4-0.5-0.8-0.6-1.3c-0.1-0.5-0.2-1.1-0.2-1.7 c0-0.6,0.1-1.1,0.2-1.6c0.1-0.5,0.3-0.9,0.6-1.3c0.3-0.4,0.6-0.7,1.1-0.9c0.4-0.2,0.9-0.3,1.5-0.3c0.6,0,1.2,0.1,1.6,0.3 s0.8,0.5,1,0.9c0.3,0.4,0.4,0.8,0.5,1.3C344.5,342.4,344.5,343,344.5,343.5z M342.8,343.6c0-0.5,0-0.9-0.1-1.2 c-0.1-0.4-0.2-0.6-0.3-0.9c-0.1-0.2-0.3-0.4-0.5-0.5c-0.2-0.1-0.5-0.2-0.8-0.2c-0.3,0-0.5,0.1-0.7,0.2c-0.2,0.1-0.4,0.3-0.5,0.5 c-0.1,0.2-0.2,0.5-0.3,0.8c-0.1,0.3-0.1,0.7-0.1,1.2c0,0.6,0,1,0.1,1.4c0.1,0.4,0.2,0.7,0.3,0.9c0.1,0.2,0.3,0.4,0.5,0.5 c0.2,0.1,0.5,0.1,0.7,0.1c0.3,0,0.6-0.1,0.8-0.2c0.2-0.1,0.4-0.3,0.5-0.5c0.1-0.2,0.2-0.5,0.3-0.9 C342.8,344.4,342.8,344,342.8,343.6z"></path> </g> <g> <g> <path class="st1" d="M93,393.1c0,0.8-0.1,1.6-0.4,2.3c-0.3,0.7-0.7,1.2-1.2,1.7c-0.5,0.5-1.1,0.8-1.9,1c-0.7,0.2-1.5,0.4-2.4,0.4 c-0.5,0-1,0-1.4-0.1s-0.8-0.2-1.2-0.3c-0.3-0.1-0.6-0.2-0.8-0.3s-0.4-0.2-0.4-0.2c-0.1-0.1-0.1-0.1-0.1-0.2c0,0,0-0.1-0.1-0.2 c0-0.1,0-0.2,0-0.3c0-0.1,0-0.2,0-0.4c0-0.1,0-0.3,0-0.4c0-0.1,0-0.2,0.1-0.3c0-0.1,0.1-0.1,0.1-0.2c0,0,0.1,0,0.2,0 c0.1,0,0.2,0.1,0.4,0.2c0.2,0.1,0.4,0.2,0.7,0.3c0.3,0.1,0.6,0.2,1.1,0.3c0.4,0.1,0.9,0.2,1.5,0.2c0.5,0,1-0.1,1.5-0.2 c0.5-0.1,0.8-0.3,1.2-0.6c0.3-0.3,0.6-0.6,0.8-1c0.2-0.4,0.3-0.9,0.3-1.5c0-0.5-0.1-1-0.2-1.3c-0.2-0.4-0.4-0.7-0.7-1 c-0.3-0.3-0.7-0.4-1.3-0.6c-0.5-0.1-1.1-0.2-1.8-0.2c-0.5,0-0.9,0-1.3,0.1c-0.4,0-0.7,0.1-1,0.1c-0.2,0-0.4-0.1-0.5-0.2 c-0.1-0.1-0.1-0.3-0.1-0.6v-6.4c0-0.3,0.1-0.5,0.2-0.6c0.1-0.1,0.3-0.2,0.5-0.2h7c0.1,0,0.1,0,0.2,0.1c0.1,0,0.1,0.1,0.2,0.2 s0.1,0.2,0.1,0.3c0,0.1,0,0.2,0,0.4c0,0.3,0,0.5-0.1,0.7c-0.1,0.2-0.2,0.2-0.3,0.2h-5.6v4.4c0.3,0,0.6-0.1,0.8-0.1 c0.3,0,0.6,0,1,0c0.9,0,1.6,0.1,2.3,0.3c0.7,0.2,1.2,0.5,1.6,0.9c0.4,0.4,0.8,0.9,1,1.4S93,392.4,93,393.1z"></path> <path class="st1" d="M106.3,390.3c0,1.2-0.1,2.3-0.3,3.3c-0.2,1-0.5,1.9-1,2.6c-0.4,0.7-1,1.3-1.7,1.7c-0.7,0.4-1.6,0.6-2.6,0.6 c-1,0-1.8-0.2-2.5-0.5c-0.7-0.4-1.2-0.9-1.6-1.6c-0.4-0.7-0.7-1.5-0.9-2.5c-0.2-1-0.3-2.2-0.3-3.5c0-1.2,0.1-2.3,0.3-3.3 c0.2-1,0.5-1.9,1-2.6c0.4-0.7,1-1.3,1.7-1.7c0.7-0.4,1.6-0.6,2.6-0.6c1,0,1.8,0.2,2.5,0.5c0.7,0.4,1.2,0.9,1.6,1.6 c0.4,0.7,0.7,1.5,0.9,2.5C106.2,387.8,106.3,389,106.3,390.3z M104.1,390.4c0-0.8,0-1.5-0.1-2.1c-0.1-0.6-0.1-1.2-0.3-1.7 c-0.1-0.5-0.3-0.9-0.4-1.2c-0.2-0.3-0.4-0.6-0.6-0.9c-0.2-0.2-0.5-0.4-0.8-0.5c-0.3-0.1-0.7-0.2-1.1-0.2c-0.7,0-1.3,0.2-1.7,0.5 c-0.4,0.3-0.8,0.8-1,1.3c-0.2,0.6-0.4,1.2-0.5,2c-0.1,0.8-0.1,1.6-0.1,2.5c0,1.2,0.1,2.2,0.2,3c0.1,0.8,0.3,1.5,0.6,2 c0.3,0.5,0.6,0.9,1,1.1c0.4,0.2,0.9,0.4,1.5,0.4c0.5,0,0.9-0.1,1.2-0.2s0.6-0.4,0.9-0.6c0.2-0.3,0.5-0.6,0.6-1 c0.2-0.4,0.3-0.8,0.4-1.3s0.2-1,0.2-1.5C104.1,391.6,104.1,391,104.1,390.4z"></path> <path class="st1" d="M114.8,386.3c0,0.6-0.1,1.2-0.2,1.7s-0.3,1-0.6,1.3c-0.3,0.4-0.6,0.6-1.1,0.8c-0.4,0.2-0.9,0.3-1.5,0.3 c-0.6,0-1.1-0.1-1.5-0.3c-0.4-0.2-0.8-0.5-1-0.8c-0.3-0.4-0.5-0.8-0.6-1.3c-0.1-0.5-0.2-1.1-0.2-1.7c0-0.6,0.1-1.1,0.2-1.6 c0.1-0.5,0.3-0.9,0.6-1.3c0.3-0.4,0.6-0.7,1.1-0.9c0.4-0.2,1-0.3,1.5-0.3c0.6,0,1.2,0.1,1.6,0.3c0.4,0.2,0.8,0.5,1,0.9 c0.3,0.4,0.4,0.8,0.5,1.3C114.8,385.2,114.8,385.8,114.8,386.3z M111.4,398.3c0,0.1-0.1,0.1-0.1,0.2c-0.1,0-0.1,0.1-0.2,0.1 c-0.1,0-0.2,0-0.3,0.1c-0.1,0-0.3,0-0.4,0c-0.2,0-0.3,0-0.4,0c-0.1,0-0.2-0.1-0.2-0.1c0-0.1-0.1-0.1,0-0.2c0-0.1,0.1-0.2,0.1-0.3 l11-15.7c0-0.1,0.1-0.1,0.1-0.2c0.1,0,0.1-0.1,0.2-0.1c0.1,0,0.2,0,0.3-0.1c0.1,0,0.3,0,0.4,0s0.3,0,0.4,0c0.1,0,0.2,0.1,0.2,0.1 c0,0.1,0.1,0.1,0.1,0.2c0,0.1-0.1,0.2-0.1,0.3L111.4,398.3z M113.1,386.4c0-0.5,0-0.9-0.1-1.2c-0.1-0.4-0.2-0.6-0.3-0.9 c-0.1-0.2-0.3-0.4-0.5-0.5c-0.2-0.1-0.5-0.2-0.8-0.2c-0.3,0-0.5,0.1-0.7,0.2c-0.2,0.1-0.4,0.3-0.5,0.5c-0.1,0.2-0.2,0.5-0.3,0.8 c-0.1,0.3-0.1,0.7-0.1,1.2c0,0.6,0,1,0.1,1.4c0.1,0.4,0.2,0.7,0.3,0.9c0.1,0.2,0.3,0.4,0.5,0.5c0.2,0.1,0.5,0.1,0.7,0.1 c0.3,0,0.6-0.1,0.8-0.2c0.2-0.1,0.4-0.3,0.5-0.5c0.1-0.2,0.2-0.5,0.3-0.9C113.1,387.2,113.1,386.8,113.1,386.4z M124.1,394.2 c0,0.6-0.1,1.2-0.2,1.7c-0.1,0.5-0.4,1-0.6,1.3c-0.3,0.4-0.6,0.6-1.1,0.8s-0.9,0.3-1.5,0.3c-0.6,0-1.1-0.1-1.5-0.3 c-0.4-0.2-0.8-0.5-1-0.8c-0.3-0.4-0.5-0.8-0.6-1.3c-0.1-0.5-0.2-1.1-0.2-1.7c0-0.6,0.1-1.1,0.2-1.6c0.1-0.5,0.3-0.9,0.6-1.3 s0.6-0.7,1.1-0.9c0.4-0.2,1-0.3,1.5-0.3c0.6,0,1.2,0.1,1.6,0.3s0.8,0.5,1,0.9c0.3,0.4,0.4,0.8,0.5,1.3 C124.1,393.1,124.1,393.7,124.1,394.2z M122.4,394.3c0-0.5,0-0.9-0.1-1.2c-0.1-0.4-0.2-0.6-0.3-0.9c-0.1-0.2-0.3-0.4-0.5-0.5 c-0.2-0.1-0.5-0.2-0.8-0.2c-0.3,0-0.5,0.1-0.7,0.2c-0.2,0.1-0.4,0.3-0.5,0.5c-0.1,0.2-0.2,0.5-0.3,0.8c-0.1,0.3-0.1,0.7-0.1,1.2 c0,0.6,0,1,0.1,1.4c0.1,0.4,0.2,0.7,0.3,0.9c0.1,0.2,0.3,0.4,0.5,0.5c0.2,0.1,0.5,0.1,0.7,0.1c0.3,0,0.6-0.1,0.8-0.2 c0.2-0.1,0.4-0.3,0.5-0.5c0.1-0.2,0.2-0.5,0.3-0.9C122.4,395.1,122.4,394.7,122.4,394.3z"></path> </g> </g> <g> <g> <path class="st1" d="M93.5,442.9c0,0.7-0.1,1.4-0.3,2c-0.2,0.6-0.5,1.2-1,1.7s-1,0.9-1.7,1.2s-1.5,0.4-2.4,0.4 c-0.7,0-1.2-0.1-1.7-0.2c-0.5-0.2-0.9-0.4-1.3-0.7c-0.4-0.3-0.7-0.7-0.9-1.1s-0.4-0.9-0.6-1.5c-0.2-0.6-0.3-1.2-0.3-1.8 c-0.1-0.7-0.1-1.4-0.1-2.1c0-0.7,0-1.4,0.1-2.1c0.1-0.7,0.2-1.4,0.4-2c0.2-0.6,0.4-1.2,0.8-1.8c0.3-0.6,0.7-1.1,1.2-1.5 c0.5-0.4,1.1-0.8,1.7-1s1.5-0.4,2.4-0.4c0.3,0,0.6,0,0.9,0.1c0.3,0,0.6,0.1,0.9,0.1c0.3,0.1,0.5,0.1,0.7,0.2 c0.2,0.1,0.3,0.1,0.4,0.2c0.1,0,0.1,0.1,0.1,0.1c0,0.1,0.1,0.1,0.1,0.2c0,0.1,0,0.1,0,0.2s0,0.2,0,0.3c0,0.1,0,0.3,0,0.4 c0,0.1,0,0.2,0,0.3s-0.1,0.1-0.1,0.1c0,0-0.1,0-0.2,0c-0.1,0-0.2,0-0.4-0.1c-0.2-0.1-0.3-0.1-0.6-0.2c-0.2-0.1-0.5-0.1-0.8-0.2 c-0.3-0.1-0.7-0.1-1.1-0.1c-0.8,0-1.4,0.2-2,0.5c-0.5,0.3-1,0.7-1.3,1.2c-0.3,0.5-0.6,1.1-0.8,1.8c-0.2,0.7-0.3,1.4-0.3,2.2 c0.2-0.1,0.4-0.2,0.7-0.4s0.6-0.2,0.9-0.3c0.3-0.1,0.6-0.2,1-0.2c0.4-0.1,0.7-0.1,1.1-0.1c0.9,0,1.6,0.1,2.2,0.3 c0.6,0.2,1.1,0.6,1.4,1s0.6,0.9,0.8,1.5C93.4,441.6,93.5,442.2,93.5,442.9z M91.3,443.1c0-0.5,0-0.9-0.1-1.3 c-0.1-0.4-0.3-0.7-0.5-1c-0.2-0.3-0.5-0.5-0.9-0.6c-0.4-0.1-0.8-0.2-1.4-0.2c-0.3,0-0.6,0-0.9,0.1s-0.6,0.1-0.9,0.2 c-0.3,0.1-0.5,0.2-0.8,0.3c-0.3,0.1-0.5,0.3-0.7,0.4c0,1,0.1,1.9,0.2,2.6c0.1,0.7,0.3,1.3,0.6,1.7c0.3,0.4,0.6,0.7,1,0.9 c0.4,0.2,0.8,0.3,1.3,0.3c0.5,0,1-0.1,1.4-0.3c0.4-0.2,0.7-0.5,1-0.8c0.3-0.3,0.4-0.7,0.6-1.1C91.3,443.9,91.3,443.5,91.3,443.1z"></path> <path class="st1" d="M106,433.1c0,0.1,0,0.3,0,0.4c0,0.1,0,0.2,0,0.3c0,0.1,0,0.2-0.1,0.3c0,0.1-0.1,0.2-0.1,0.3l-5.7,13.1 c0,0.1-0.1,0.2-0.2,0.2c-0.1,0.1-0.1,0.1-0.2,0.1c-0.1,0-0.2,0.1-0.4,0.1c-0.1,0-0.3,0-0.5,0c-0.3,0-0.5,0-0.6,0 c-0.2,0-0.3-0.1-0.3-0.1s-0.1-0.1-0.1-0.2c0-0.1,0-0.2,0.1-0.3l6-13.4h-7.6c-0.2,0-0.3-0.1-0.3-0.2c-0.1-0.2-0.1-0.4-0.1-0.7 c0-0.2,0-0.3,0-0.4c0-0.1,0.1-0.2,0.1-0.3c0-0.1,0.1-0.1,0.1-0.2c0.1,0,0.1-0.1,0.2-0.1h9.2c0.1,0,0.2,0,0.3,0 c0.1,0,0.2,0.1,0.2,0.1c0,0.1,0.1,0.2,0.1,0.3C106,432.8,106,432.9,106,433.1z"></path> <path class="st1" d="M114.8,436.1c0,0.6-0.1,1.2-0.2,1.7s-0.3,1-0.6,1.3s-0.6,0.6-1.1,0.8c-0.4,0.2-0.9,0.3-1.5,0.3 c-0.6,0-1.1-0.1-1.5-0.3c-0.4-0.2-0.8-0.5-1-0.8c-0.3-0.4-0.5-0.8-0.6-1.3c-0.1-0.5-0.2-1.1-0.2-1.7c0-0.6,0.1-1.1,0.2-1.6 c0.1-0.5,0.3-0.9,0.6-1.3c0.3-0.4,0.6-0.7,1.1-0.9c0.4-0.2,1-0.3,1.5-0.3c0.6,0,1.2,0.1,1.6,0.3c0.4,0.2,0.8,0.5,1,0.9 c0.3,0.4,0.4,0.8,0.5,1.3C114.8,435,114.8,435.6,114.8,436.1z M111.4,448.1c0,0.1-0.1,0.1-0.1,0.2c-0.1,0-0.1,0.1-0.2,0.1 c-0.1,0-0.2,0-0.3,0.1c-0.1,0-0.3,0-0.4,0c-0.2,0-0.3,0-0.4,0c-0.1,0-0.2-0.1-0.2-0.1c0-0.1-0.1-0.1,0-0.2c0-0.1,0.1-0.2,0.1-0.3 l11-15.7c0-0.1,0.1-0.1,0.1-0.2c0.1,0,0.1-0.1,0.2-0.1c0.1,0,0.2,0,0.3-0.1c0.1,0,0.3,0,0.4,0s0.3,0,0.4,0c0.1,0,0.2,0.1,0.2,0.1 c0,0.1,0.1,0.1,0.1,0.2c0,0.1-0.1,0.2-0.1,0.3L111.4,448.1z M113.1,436.2c0-0.5,0-0.9-0.1-1.2c-0.1-0.4-0.2-0.6-0.3-0.9 c-0.1-0.2-0.3-0.4-0.5-0.5c-0.2-0.1-0.5-0.2-0.8-0.2c-0.3,0-0.5,0.1-0.7,0.2c-0.2,0.1-0.4,0.3-0.5,0.5c-0.1,0.2-0.2,0.5-0.3,0.8 c-0.1,0.3-0.1,0.7-0.1,1.2c0,0.6,0,1,0.1,1.4s0.2,0.7,0.3,0.9c0.1,0.2,0.3,0.4,0.5,0.5c0.2,0.1,0.5,0.1,0.7,0.1 c0.3,0,0.6-0.1,0.8-0.2c0.2-0.1,0.4-0.3,0.5-0.5c0.1-0.2,0.2-0.5,0.3-0.9C113.1,437,113.1,436.6,113.1,436.2z M124.1,444 c0,0.6-0.1,1.2-0.2,1.7c-0.1,0.5-0.4,1-0.6,1.3c-0.3,0.4-0.6,0.6-1.1,0.8s-0.9,0.3-1.5,0.3c-0.6,0-1.1-0.1-1.5-0.3s-0.8-0.5-1-0.8 c-0.3-0.4-0.5-0.8-0.6-1.3s-0.2-1.1-0.2-1.7c0-0.6,0.1-1.1,0.2-1.6c0.1-0.5,0.3-0.9,0.6-1.3c0.3-0.4,0.6-0.7,1.1-0.9 c0.4-0.2,1-0.3,1.5-0.3c0.6,0,1.2,0.1,1.6,0.3c0.4,0.2,0.8,0.5,1,0.9s0.4,0.8,0.5,1.3C124.1,442.9,124.1,443.5,124.1,444z M122.4,444.1c0-0.5,0-0.9-0.1-1.2c-0.1-0.4-0.2-0.6-0.3-0.9c-0.1-0.2-0.3-0.4-0.5-0.5c-0.2-0.1-0.5-0.2-0.8-0.2 c-0.3,0-0.5,0.1-0.7,0.2c-0.2,0.1-0.4,0.3-0.5,0.5c-0.1,0.2-0.2,0.5-0.3,0.8s-0.1,0.7-0.1,1.2c0,0.6,0,1,0.1,1.4 c0.1,0.4,0.2,0.7,0.3,0.9c0.1,0.2,0.3,0.4,0.5,0.5c0.2,0.1,0.5,0.1,0.7,0.1c0.3,0,0.6-0.1,0.8-0.2c0.2-0.1,0.4-0.3,0.5-0.5 c0.1-0.2,0.2-0.5,0.3-0.9C122.4,444.9,122.4,444.5,122.4,444.1z"></path> </g> </g> </svg> 