<?xml version="1.0" encoding="UTF-8"?> <!-- Generator: Adobe Illustrator 21.1.0, SVG Export Plug-In . SVG Version: 6.00 Build 0) --> <svg xmlns="http://www.w3.org/2000/svg" xmlns:xlink="http://www.w3.org/1999/xlink" id="Layer_1" x="0px" y="0px" viewBox="0 0 131 131" style="enable-background:new 0 0 131 131;" xml:space="preserve"> <style type="text/css"> .st0{fill:#90B7DE;} </style> <g> <path class="st0" d="M104.1,111.3H32.4c-0.5,0-1-0.4-1-1V54.8c0-0.5,0.4-1,1-1c0.6,0,1,0.4,1,1v54.6h69.7V42L79.2,18H58.3 c-0.5,0-1-0.4-1-1s0.4-1,1-1h21.3c0.3,0,0.5,0.1,0.7,0.3l24.5,24.5c0.2,0.2,0.3,0.4,0.3,0.7v68.8 C105.1,110.9,104.6,111.3,104.1,111.3z"></path> <path class="st0" d="M103.8,42.4H79.6c-0.5,0-1-0.4-1-1V17.2c0-0.5,0.4-1,1-1s1,0.4,1,1v23.3h23.2c0.5,0,1,0.4,1,1 S104.4,42.4,103.8,42.4z"></path> <path class="st0" d="M94.1,52.9H54.2c-0.5,0-1-0.4-1-1s0.4-1,1-1h39.9c0.5,0,1,0.4,1,1S94.6,52.9,94.1,52.9z"></path> <path class="st0" d="M94.1,67.3H42c-0.5,0-1-0.4-1-1s0.4-1,1-1h52.1c0.5,0,1,0.4,1,1S94.6,67.3,94.1,67.3z"></path> <path class="st0" d="M94.1,81.7H42c-0.5,0-1-0.4-1-1s0.4-1,1-1h52.1c0.5,0,1,0.4,1,1S94.6,81.7,94.1,81.7z"></path> <path class="st0" d="M94.1,96.2H42c-0.5,0-1-0.4-1-1s0.4-1,1-1h52.1c0.5,0,1,0.4,1,1S94.6,96.2,94.1,96.2z"></path> <path class="st0" d="M42.5,49.2h-6.7c-0.9,0-1.7-0.7-1.8-1.6l-0.6-3.9c-0.7-0.3-1.4-0.7-2.1-1.2L27.7,44c-0.9,0.3-1.8,0-2.3-0.8 l-3.3-5.8c-0.4-0.8-0.3-1.8,0.4-2.3l3.1-2.4c0-0.4-0.1-0.8-0.1-1.2s0-0.8,0.1-1.2l-3.1-2.4c-0.7-0.6-0.9-1.6-0.4-2.4l3.4-5.8 c0.4-0.8,1.4-1.1,2.2-0.8l3.7,1.5c0.7-0.5,1.4-0.9,2.1-1.2l0.6-3.9c0.1-0.9,0.9-1.6,1.8-1.6h6.7c0.9,0,1.7,0.7,1.8,1.6l0.6,3.9 c0.7,0.3,1.4,0.7,2.1,1.2l3.7-1.5c0.9-0.3,1.8,0,2.3,0.8l3.3,5.8c0.4,0.8,0.3,1.8-0.4,2.3l-3.1,2.4c0,0.4,0.1,0.8,0.1,1.2 s0,0.8-0.1,1.2L56,35c0.7,0.6,0.9,1.5,0.5,2.3l-3.4,5.8c-0.4,0.8-1.4,1.1-2.2,0.8l-3.7-1.5c-0.7,0.5-1.4,0.9-2.1,1.2l-0.6,3.9 C44.2,48.5,43.4,49.2,42.5,49.2z M42.3,47.4L42.3,47.4L42.3,47.4z M35.9,47.4L35.9,47.4L35.9,47.4z M35.9,47.2h6.4l0.6-4.3 c0-0.3,0.3-0.6,0.6-0.8c0.9-0.4,1.7-0.9,2.6-1.5c0.3-0.2,0.6-0.3,1-0.1l4,1.6l3.2-5.6L51,33.9c-0.3-0.2-0.4-0.6-0.4-0.9 c0.1-0.4,0.1-0.9,0.1-1.5s-0.1-1.1-0.1-1.5c0-0.3,0.1-0.7,0.4-0.9l3.4-2.7l-3.2-5.6l-4,1.6c-0.3,0.1-0.7,0.1-1-0.1 c-0.8-0.6-1.7-1.1-2.6-1.5C43.3,20.6,43,20.3,43,20l-0.6-4.3H36L35.3,20c0,0.3-0.3,0.6-0.6,0.8c-0.9,0.4-1.7,0.9-2.6,1.5 c-0.3,0.2-0.6,0.3-1,0.1l-4-1.6l-3.2,5.6l3.4,2.7c0.3,0.2,0.4,0.6,0.4,0.9c-0.1,0.6-0.1,1.1-0.1,1.5s0,0.9,0.1,1.5 c0,0.3-0.1,0.7-0.4,0.9l-3.4,2.7l3.2,5.6l4-1.6c0.3-0.1,0.7-0.1,1,0.1c0.8,0.6,1.7,1.1,2.6,1.5c0.3,0.1,0.6,0.4,0.6,0.8L35.9,47.2z M51.1,42.3L51.1,42.3L51.1,42.3z M54.5,36.6L54.5,36.6L54.5,36.6z M23.8,26.5L23.8,26.5L23.8,26.5z M27.2,20.6L27.2,20.6 L27.2,20.6z M42.3,15.5L42.3,15.5L42.3,15.5z M35.9,15.5L35.9,15.5L35.9,15.5z M39.1,38.3c-3.8,0-6.9-3.1-6.9-6.9s3.1-6.9,6.9-6.9 s6.9,3.1,6.9,6.9S42.9,38.3,39.1,38.3z M39.1,26.6c-2.7,0-4.9,2.2-4.9,4.9s2.2,4.9,4.9,4.9s4.9-2.2,4.9-4.9S41.8,26.6,39.1,26.6z"></path> </g> </svg> 