<?xml version="1.0" encoding="UTF-8"?> <!-- Generator: Adobe Illustrator 21.1.0, SVG Export Plug-In . SVG Version: 6.00 Build 0) --> <svg xmlns="http://www.w3.org/2000/svg" xmlns:xlink="http://www.w3.org/1999/xlink" id="Layer_1" x="0px" y="0px" viewBox="0 0 131 131" style="enable-background:new 0 0 131 131;" xml:space="preserve"> <style type="text/css"> .st0{fill:#90B7DE;} </style> <g> <path class="st0" d="M104.7,112.7H33c-0.5,0-1-0.4-1-1V63.9c0-0.5,0.4-1,1-1s1,0.4,1,1v46.8h69.7V43.3L79.8,19.4H62.4 c-0.5,0-1-0.4-1-1s0.4-1,1-1h17.9c0.3,0,0.5,0.1,0.7,0.3l24.5,24.5c0.2,0.2,0.3,0.4,0.3,0.7v68.8 C105.7,112.3,105.3,112.7,104.7,112.7z"></path> <path class="st0" d="M104.5,43.8H80.3c-0.5,0-1-0.4-1-1V18.6c0-0.5,0.4-1,1-1s1,0.4,1,1v23.3h23.2c0.5,0,1,0.4,1,1 S105,43.8,104.5,43.8z"></path> <path class="st0" d="M94.7,54.3H62.4c-0.5,0-1-0.4-1-1s0.4-1,1-1h32.4c0.5,0,1,0.4,1,1S95.3,54.3,94.7,54.3z"></path> <path class="st0" d="M94.7,68.7H42.6c-0.5,0-1-0.4-1-1s0.4-1,1-1h52.1c0.5,0,1,0.4,1,1S95.3,68.7,94.7,68.7z"></path> <path class="st0" d="M94.7,83.1H42.6c-0.5,0-1-0.4-1-1s0.4-1,1-1h52.1c0.5,0,1,0.4,1,1S95.3,83.1,94.7,83.1z"></path> <path class="st0" d="M94.7,97.6H42.6c-0.5,0-1-0.4-1-1s0.4-1,1-1h52.1c0.5,0,1,0.4,1,1S95.3,97.6,94.7,97.6z"></path> <path class="st0" d="M39.6,41.4h-4.7c-0.8,0-1.4-0.6-1.5-1.3L33,37.5c-0.4-0.2-0.8-0.4-1.2-0.7l-2.4,1c-0.7,0.3-1.6,0-1.9-0.7 l-2.3-4c-0.4-0.7-0.2-1.5,0.4-2l2-1.6c0-0.3,0-0.5,0-0.7s0-0.5,0-0.7l-2-1.6c-0.6-0.5-0.8-1.3-0.4-2l2.3-4c0.4-0.7,1.2-1,1.9-0.7 l2.4,1c0.4-0.3,0.8-0.5,1.2-0.7l0.4-2.6c0.1-0.7,0.7-1.3,1.5-1.3h4.7c0.8,0,1.4,0.6,1.5,1.3l0.4,2.6c0.4,0.2,0.8,0.4,1.2,0.7l2.4-1 c0.7-0.3,1.6,0,1.9,0.7l2.3,4c0.4,0.7,0.2,1.5-0.4,2l-2,1.6c0,0.3,0,0.5,0,0.7s0,0.5,0,0.7l2,1.6c0.6,0.5,0.8,1.3,0.4,2l-2.3,4 c-0.4,0.7-1.2,0.9-1.9,0.7l-2.4-1c-0.4,0.3-0.8,0.5-1.2,0.7L41.1,40C41,40.8,40.4,41.4,39.6,41.4z M39.2,39.8L39.2,39.8L39.2,39.8z M35.3,39.8L35.3,39.8L35.3,39.8z M35.2,39.4h4l0.4-2.8c0-0.3,0.3-0.6,0.6-0.8c0.6-0.2,1.2-0.6,1.8-1c0.3-0.2,0.6-0.2,0.9-0.1 l2.6,1l2-3.5l-2.2-1.7c-0.3-0.2-0.4-0.5-0.4-0.9c0.1-0.4,0.1-0.7,0.1-1s0-0.6-0.1-1c0-0.3,0.1-0.7,0.4-0.9l2.2-1.7l-2-3.5l-2.6,1 c-0.3,0.1-0.7,0.1-0.9-0.1c-0.6-0.4-1.1-0.8-1.8-1c-0.3-0.1-0.5-0.4-0.6-0.8L39.2,18h-4l-0.4,2.8c0,0.3-0.3,0.6-0.6,0.7 c-0.6,0.2-1.2,0.6-1.8,1c-0.3,0.2-0.6,0.2-0.9,0.1l-2.6-1l-2,3.5l2.2,1.7c0.3,0.2,0.4,0.5,0.4,0.9c-0.1,0.4-0.1,0.7-0.1,1 s0,0.6,0.1,1c0,0.3-0.1,0.7-0.4,0.9L27,32.3l2,3.5l2.6-1c0.3-0.1,0.7-0.1,0.9,0.1c0.6,0.4,1.1,0.8,1.8,1c0.3,0.1,0.5,0.4,0.6,0.7 L35.2,39.4z M45.4,36.1L45.4,36.1L45.4,36.1z M29.1,36.1L29.1,36.1L29.1,36.1z M47.8,32.5L47.8,32.5L47.8,32.5z M26.8,25.4 L26.8,25.4L26.8,25.4z M45.4,21.3C45.4,21.3,45.4,21.4,45.4,21.3L45.4,21.3z M29.1,21.3L29.1,21.3L29.1,21.3z M39.2,17.7L39.2,17.7 L39.2,17.7z M35.3,17.7L35.3,17.7L35.3,17.7z M37.2,33.8c-2.8,0-5-2.3-5-5s2.3-5,5-5s5,2.3,5,5S40,33.8,37.2,33.8z M37.2,25.6 c-1.7,0-3.1,1.4-3.1,3.1s1.4,3.1,3.1,3.1s3.1-1.4,3.1-3.1S39,25.6,37.2,25.6z"></path> <path class="st0" d="M62.4,44.1h-3.2c-0.6,0-1.1-0.4-1.2-1l-0.2-1.7c-0.3-0.1-0.5-0.3-0.8-0.4l-1.6,0.6c-0.6,0.2-1.2,0-1.5-0.5 l-1.6-2.8c-0.3-0.5-0.2-1.2,0.3-1.5l1.4-1.1c0-0.1,0-0.3,0-0.4s0-0.3,0-0.4l-1.4-1.1c-0.5-0.4-0.6-1-0.3-1.6l1.6-2.8 c0.3-0.5,0.9-0.7,1.5-0.5l1.6,0.7c0.2-0.2,0.5-0.3,0.8-0.4l0.2-1.7c0.1-0.6,0.6-1,1.2-1h3.2c0.6,0,1.1,0.4,1.2,1l0.2,1.7 c0.3,0.1,0.5,0.3,0.8,0.4l1.6-0.6c0.6-0.2,1.2,0,1.5,0.5l1.6,2.8c0.3,0.5,0.2,1.2-0.3,1.5l-1.4,1.1c0,0.1,0,0.3,0,0.4s0,0.3,0,0.4 l1.4,1.1c0.5,0.4,0.6,1,0.3,1.5L67.7,41c-0.3,0.5-0.9,0.7-1.5,0.5l-1.6-0.7c-0.3,0.2-0.5,0.3-0.8,0.4L63.6,43 C63.5,43.6,63,44.1,62.4,44.1z M62,42.8L62,42.8L62,42.8z M59.5,42.8L59.5,42.8L59.5,42.8z M59.5,42.5h2.6l0.3-1.8 c0-0.3,0.2-0.5,0.5-0.6c0.4-0.2,0.8-0.4,1.2-0.7c0.2-0.2,0.5-0.2,0.8-0.1l1.7,0.7l1.3-2.2l-1.4-1.1c-0.2-0.2-0.3-0.5-0.3-0.7 s0.1-0.5,0.1-0.7s0-0.5-0.1-0.7c0-0.3,0.1-0.6,0.3-0.7l1.4-1.1l-1.3-2.2l-1.7,0.7c-0.3,0.1-0.6,0.1-0.8-0.1 c-0.4-0.3-0.8-0.5-1.2-0.7c-0.3-0.1-0.4-0.3-0.5-0.6l-0.3-1.8h-2.6l-0.3,1.8c0,0.3-0.2,0.5-0.5,0.6c-0.4,0.2-0.8,0.4-1.2,0.7 c-0.2,0.2-0.5,0.2-0.8,0.1L55,30.6l-1.3,2.2l1.4,1.1c0.2,0.2,0.3,0.5,0.3,0.7s-0.1,0.5-0.1,0.7s0,0.5,0.1,0.7 c0,0.3-0.1,0.6-0.3,0.7l-1.4,1.1L55,40l1.7-0.7c0.3-0.1,0.6-0.1,0.8,0.1c0.4,0.3,0.8,0.5,1.2,0.7c0.3,0.1,0.4,0.3,0.5,0.6 L59.5,42.5z M66.3,40.2L66.3,40.2L66.3,40.2z M55.2,40.2L55.2,40.2L55.2,40.2z M68,37.9L68,37.9L68,37.9z M53.6,32.9L53.6,32.9 L53.6,32.9z M66.3,30.1L66.3,30.1L66.3,30.1z M55.3,30.1L55.3,30.1C55.2,30.1,55.3,30.1,55.3,30.1z M62,27.5L62,27.5L62,27.5z M59.5,27.5L59.5,27.5L59.5,27.5z M60.8,38.8c-2,0-3.6-1.6-3.6-3.6s1.6-3.6,3.6-3.6s3.6,1.6,3.6,3.6S62.8,38.8,60.8,38.8z M60.8,33.1c-1.1,0-2,0.9-2,2s0.9,2,2,2s2-0.9,2-2S61.9,33.1,60.8,33.1z"></path> <path class="st0" d="M46.1,60.3h-3.2c-0.6,0-1.1-0.4-1.2-1l-0.2-1.7c-0.3-0.1-0.5-0.3-0.8-0.4L39,57.8c-0.6,0.2-1.2,0-1.5-0.5 l-1.6-2.8c-0.3-0.5-0.2-1.2,0.3-1.5l1.4-1.1c0-0.1,0-0.3,0-0.4c0-0.1,0-0.3,0-0.4L36.2,50c-0.5-0.4-0.6-1-0.3-1.6l1.6-2.8 c0.3-0.5,0.9-0.7,1.5-0.5l1.6,0.7c0.2-0.2,0.5-0.3,0.8-0.4l0.2-1.7c0.1-0.6,0.6-1,1.2-1H46c0.6,0,1.1,0.4,1.2,1l0.2,1.7 c0.3,0.1,0.5,0.3,0.8,0.4l1.6-0.6c0.6-0.2,1.2,0,1.5,0.5l1.6,2.8c0.3,0.5,0.2,1.2-0.3,1.5l-1.3,1c0,0.1,0,0.3,0,0.4 c0,0.1,0,0.3,0,0.4l1.4,1.1c0.5,0.4,0.6,1,0.3,1.5l-1.6,2.8c-0.3,0.5-0.9,0.7-1.5,0.5L48.3,57c-0.2,0.2-0.5,0.3-0.8,0.4l-0.2,1.7 C47.2,59.9,46.7,60.3,46.1,60.3z M45.7,59.1L45.7,59.1L45.7,59.1z M43.2,59.1L43.2,59.1L43.2,59.1z M43.2,58.7h2.6l0.3-1.8 c0-0.3,0.2-0.5,0.5-0.6c0.4-0.2,0.8-0.4,1.2-0.7c0.2-0.2,0.5-0.2,0.8-0.1l1.7,0.7l1.3-2.2L50,52.8c-0.2-0.2-0.3-0.4-0.3-0.7 c0-0.2,0.1-0.5,0.1-0.7s0-0.5-0.1-0.7c0-0.3,0.1-0.6,0.3-0.7l1.4-1.1l-1.3-2.2l-1.7,0.7c-0.3,0.1-0.6,0.1-0.8-0.1 c-0.4-0.3-0.8-0.5-1.2-0.7c-0.3-0.1-0.4-0.3-0.5-0.6l-0.3-1.8H43L42.7,46c0,0.3-0.2,0.5-0.5,0.6c-0.4,0.2-0.8,0.4-1.2,0.7 c-0.2,0.2-0.5,0.2-0.8,0.1l-1.7-0.7l-1.3,2.2l1.4,1.1c0.2,0.2,0.3,0.4,0.3,0.7c0,0.2-0.1,0.5-0.1,0.7s0,0.5,0.1,0.7 c0,0.3-0.1,0.6-0.3,0.7l-1.4,1.1l1.3,2.2l1.7-0.7c0.3-0.1,0.6-0.1,0.8,0.1c0.4,0.3,0.8,0.5,1.2,0.7c0.3,0.1,0.4,0.3,0.5,0.6 L43.2,58.7z M50,56.5L50,56.5L50,56.5z M38.9,56.4L38.9,56.4C38.9,56.5,38.9,56.5,38.9,56.4z M51.7,54.2L51.7,54.2L51.7,54.2z M37.3,49.1L37.3,49.1L37.3,49.1z M50,46.3L50,46.3L50,46.3z M38.9,46.3L38.9,46.3L38.9,46.3z M45.7,43.7L45.7,43.7L45.7,43.7z M43.2,43.7L43.2,43.7L43.2,43.7z M44.4,55c-2,0-3.6-1.6-3.6-3.6s1.6-3.6,3.6-3.6s3.6,1.6,3.6,3.6S46.5,55,44.4,55z M44.4,49.4 c-1.1,0-2,0.9-2,2s0.9,2,2,2s2-0.9,2-2S45.6,49.4,44.4,49.4z"></path> </g> </svg> 