<?xml version="1.0" encoding="UTF-8"?> <!-- Generator: Adobe Illustrator 21.1.0, SVG Export Plug-In . SVG Version: 6.00 Build 0) --> <svg xmlns="http://www.w3.org/2000/svg" xmlns:xlink="http://www.w3.org/1999/xlink" id="Layer_1" x="0px" y="0px" viewBox="0 0 131 131" style="enable-background:new 0 0 131 131;" xml:space="preserve"> <style type="text/css"> .st0{fill:#496885;} </style> <path class="st0" d="M133.5,45.3"></path> <path class="st0" d="M104.3,33.2"></path> <g> <path class="st0" d="M24,61.3c-0.3,0-0.5-0.1-0.7-0.3c-0.4-0.4-0.4-1,0-1.4l13.5-13.5c0.4-0.4,1-0.4,1.4,0c0.4,0.4,0.4,1,0,1.4 L24.7,61C24.5,61.2,24.3,61.3,24,61.3z"></path> <path class="st0" d="M47.3,38c-0.3,0-0.5-0.1-0.7-0.3c-0.4-0.4-0.4-1,0-1.4l12.8-12.8c0.4-0.4,1-0.4,1.4,0c0.4,0.4,0.4,1,0,1.4 L48,37.7C47.8,37.9,47.5,38,47.3,38z"></path> <path class="st0" d="M37.5,85.5c-0.3,0-0.5-0.1-0.7-0.3L23.7,72.1c-0.4-0.4-0.4-1,0-1.4c0.4-0.4,1-0.4,1.4,0l13.1,13.1 c0.4,0.4,0.4,1,0,1.4C38,85.4,37.7,85.5,37.5,85.5z"></path> <path class="st0" d="M60.2,108.2c-0.3,0-0.5-0.1-0.7-0.3L46.2,94.6c-0.4-0.4-0.4-1,0-1.4c0.4-0.4,1-0.4,1.4,0l13.3,13.3 c0.4,0.4,0.4,1,0,1.4C60.7,108.1,60.4,108.2,60.2,108.2z"></path> <path class="st0" d="M71.2,108.2c-0.3,0-0.5-0.1-0.7-0.3c-0.4-0.4-0.4-1,0-1.4l13.6-13.6c0.4-0.4,1-0.4,1.4,0c0.4,0.4,0.4,1,0,1.4 l-13.6,13.6C71.7,108.1,71.5,108.2,71.2,108.2z"></path> <path class="st0" d="M94.5,84.9c-0.3,0-0.5-0.1-0.7-0.3c-0.4-0.4-0.4-1,0-1.4L106,71c0.4-0.4,1-0.4,1.4,0c0.4,0.4,0.4,1,0,1.4 L95.2,84.6C95.1,84.8,94.8,84.9,94.5,84.9z"></path> <path class="st0" d="M107,60.9c-0.3,0-0.5-0.1-0.7-0.3L93.9,48.2c-0.4-0.4-0.4-1,0-1.4c0.4-0.4,1-0.4,1.4,0l12.4,12.4 c0.4,0.4,0.4,1,0,1.4C107.5,60.8,107.2,60.9,107,60.9z"></path> <path class="st0" d="M84.8,38.7c-0.3,0-0.5-0.1-0.7-0.3L70.6,25c-0.4-0.4-0.4-1,0-1.4c0.4-0.4,1-0.4,1.4,0L85.5,37 c0.4,0.4,0.4,1,0,1.4C85.3,38.6,85,38.7,84.8,38.7z"></path> <path class="st0" d="M70.4,62c-0.3,0-0.5-0.1-0.7-0.3c-0.4-0.4-0.4-1,0-1.4l14.4-14.4c0.4-0.4,1-0.4,1.4,0c0.4,0.4,0.4,1,0,1.4 L71.1,61.7C70.9,61.9,70.6,62,70.4,62z"></path> <path class="st0" d="M46.9,85.5c-0.3,0-0.5-0.1-0.7-0.3c-0.4-0.4-0.4-1,0-1.4l13.9-13.9c0.4-0.4,1-0.4,1.4,0c0.4,0.4,0.4,1,0,1.4 L47.6,85.2C47.4,85.4,47.1,85.5,46.9,85.5z"></path> <path class="st0" d="M84.8,85.8c-0.3,0-0.5-0.1-0.7-0.3L69.9,71.2c-0.4-0.4-0.4-1,0-1.4c0.4-0.4,1-0.4,1.4,0l14.2,14.2 c0.4,0.4,0.4,1,0,1.4C85.3,85.7,85.1,85.8,84.8,85.8z"></path> <path class="st0" d="M60.8,61.8c-0.3,0-0.5-0.1-0.7-0.3L46.2,47.5c-0.4-0.4-0.4-1,0-1.4c0.4-0.4,1-0.4,1.4,0l13.9,13.9 c0.4,0.4,0.4,1,0,1.4C61.3,61.7,61.1,61.8,60.8,61.8z"></path> <path class="st0" d="M65.6,73.6c-4.2,0-7.7-3.4-7.7-7.7c0-4.2,3.4-7.7,7.7-7.7s7.7,3.4,7.7,7.7C73.3,70.2,69.8,73.6,65.6,73.6z M65.6,60.3c-3.1,0-5.7,2.5-5.7,5.7c0,3.1,2.5,5.7,5.7,5.7c3.1,0,5.7-2.5,5.7-5.7C71.3,62.8,68.7,60.3,65.6,60.3z"></path> <path class="st0" d="M110.8,73.6c-4.2,0-7.7-3.4-7.7-7.7c0-4.2,3.4-7.7,7.7-7.7c4.2,0,7.7,3.4,7.7,7.7 C118.5,70.2,115.1,73.6,110.8,73.6z M110.8,60.3c-3.1,0-5.7,2.5-5.7,5.7c0,3.1,2.5,5.7,5.7,5.7c3.1,0,5.7-2.5,5.7-5.7 C116.5,62.8,114,60.3,110.8,60.3z"></path> <path class="st0" d="M20.5,73.6c-4.2,0-7.7-3.4-7.7-7.7c0-4.2,3.4-7.7,7.7-7.7s7.7,3.4,7.7,7.7C28.2,70.2,24.8,73.6,20.5,73.6z M20.5,60.3c-3.1,0-5.7,2.5-5.7,5.7c0,3.1,2.5,5.7,5.7,5.7c3.1,0,5.7-2.5,5.7-5.7C26.2,62.8,23.7,60.3,20.5,60.3z"></path> <path class="st0" d="M65.7,119c-4.2,0-7.7-3.4-7.7-7.7c0-4.2,3.4-7.7,7.7-7.7c4.2,0,7.7,3.4,7.7,7.7C73.3,115.6,69.9,119,65.7,119z M65.7,105.7c-3.1,0-5.7,2.5-5.7,5.7c0,3.1,2.5,5.7,5.7,5.7c3.1,0,5.7-2.5,5.7-5.7C71.4,108.2,68.8,105.7,65.7,105.7z"></path> <path class="st0" d="M65.7,28.2c-4.2,0-7.7-3.4-7.7-7.7s3.4-7.7,7.7-7.7c4.2,0,7.7,3.4,7.7,7.7S69.9,28.2,65.7,28.2z M65.7,14.8 c-3.1,0-5.7,2.5-5.7,5.7s2.5,5.7,5.7,5.7c3.1,0,5.7-2.5,5.7-5.7S68.8,14.8,65.7,14.8z"></path> <path class="st0" d="M42.2,96.9c-4.2,0-7.7-3.4-7.7-7.7s3.4-7.7,7.7-7.7c4.2,0,7.7,3.4,7.7,7.7S46.4,96.9,42.2,96.9z M42.2,83.5 c-3.1,0-5.7,2.5-5.7,5.7s2.5,5.7,5.7,5.7c3.1,0,5.7-2.5,5.7-5.7S45.3,83.5,42.2,83.5z"></path> <path class="st0" d="M90,96.9c-4.2,0-7.7-3.4-7.7-7.7s3.4-7.7,7.7-7.7c4.2,0,7.7,3.4,7.7,7.7S94.3,96.9,90,96.9z M90,83.5 c-3.1,0-5.7,2.5-5.7,5.7s2.5,5.7,5.7,5.7c3.1,0,5.7-2.5,5.7-5.7S93.2,83.5,90,83.5z"></path> <path class="st0" d="M90,49.8c-4.2,0-7.7-3.4-7.7-7.7s3.4-7.7,7.7-7.7c4.2,0,7.7,3.4,7.7,7.7S94.3,49.8,90,49.8z M90,36.4 c-3.1,0-5.7,2.5-5.7,5.7c0,3.1,2.5,5.7,5.7,5.7c3.1,0,5.7-2.5,5.7-5.7C95.7,39,93.2,36.4,90,36.4z"></path> <path class="st0" d="M42.2,49.8c-4.2,0-7.7-3.4-7.7-7.7s3.4-7.7,7.7-7.7c4.2,0,7.7,3.4,7.7,7.7S46.4,49.8,42.2,49.8z M42.2,36.4 c-3.1,0-5.7,2.5-5.7,5.7c0,3.1,2.5,5.7,5.7,5.7c3.1,0,5.7-2.5,5.7-5.7C47.8,39,45.3,36.4,42.2,36.4z"></path> </g> </svg> 