<?xml version="1.0" encoding="UTF-8"?> <!-- Generator: Adobe Illustrator 21.1.0, SVG Export Plug-In . SVG Version: 6.00 Build 0) --> <svg xmlns="http://www.w3.org/2000/svg" xmlns:xlink="http://www.w3.org/1999/xlink" id="Layer_1" x="0px" y="0px" viewBox="0 0 131 131" style="enable-background:new 0 0 131 131;" xml:space="preserve"> <style type="text/css"> .st0{fill:#496885;} </style> <path class="st0" d="M133.5,45.3"></path> <path class="st0" d="M104.3,33.2"></path> <g> <g> <g> <line class="st0" x1="78.4" y1="50.2" x2="78.4" y2="62.8"></line> <path class="st0" d="M78.4,63.8c-0.5,0-1-0.4-1-1V50.2c0-0.5,0.4-1,1-1s1,0.4,1,1v12.6C79.4,63.4,78.9,63.8,78.4,63.8z"></path> </g> <g> <line class="st0" x1="78.4" y1="24.1" x2="78.4" y2="10.5"></line> <path class="st0" d="M78.4,25.1c-0.5,0-1-0.4-1-1V10.5c0-0.5,0.4-1,1-1s1,0.4,1,1v13.6C79.4,24.7,78.9,25.1,78.4,25.1z"></path> </g> <g> <line class="st0" x1="90.5" y1="37.3" x2="104.9" y2="37.3"></line> <path class="st0" d="M104.9,38.3H90.5c-0.5,0-1-0.4-1-1s0.4-1,1-1h14.4c0.5,0,1,0.4,1,1S105.4,38.3,104.9,38.3z"></path> </g> <g> <line class="st0" x1="65.7" y1="37.3" x2="51.3" y2="37.3"></line> <path class="st0" d="M65.7,38.3H51.3c-0.5,0-1-0.4-1-1s0.4-1,1-1h14.4c0.5,0,1,0.4,1,1S66.2,38.3,65.7,38.3z"></path> </g> <g> <line class="st0" x1="69.8" y1="29.2" x2="60.1" y2="19.5"></line> <path class="st0" d="M69.8,30.2c-0.3,0-0.5-0.1-0.7-0.3l-9.8-9.8c-0.4-0.4-0.4-1,0-1.4c0.4-0.4,1-0.4,1.4,0l9.8,9.8 c0.4,0.4,0.4,1,0,1.4C70.3,30.1,70.1,30.2,69.8,30.2z"></path> </g> <g> <line class="st0" x1="86.2" y1="29.2" x2="97.9" y2="17.5"></line> <path class="st0" d="M86.2,30.2c-0.3,0-0.5-0.1-0.7-0.3c-0.4-0.4-0.4-1,0-1.4l11.8-11.8c0.4-0.4,1-0.4,1.4,0c0.4,0.4,0.4,1,0,1.4 L86.9,29.9C86.7,30.1,86.4,30.2,86.2,30.2z"></path> </g> <g> <line class="st0" x1="86.2" y1="45.6" x2="94.9" y2="54.3"></line> <path class="st0" d="M94.9,55.3c-0.3,0-0.5-0.1-0.7-0.3l-8.8-8.8c-0.4-0.4-0.4-1,0-1.4c0.4-0.4,1-0.4,1.4,0l8.8,8.8 c0.4,0.4,0.4,1,0,1.4C95.4,55.2,95.2,55.3,94.9,55.3z"></path> </g> <path class="st0" d="M66.3,56.3c-0.3,0-0.5-0.1-0.7-0.3l-5.9-5.9c-0.2-0.2-0.3-0.4-0.3-0.7c0-0.3,0.1-0.5,0.3-0.7L77.5,31 c0.2-0.2,0.4-0.3,0.7-0.3l0,0c0.3,0,0.5,0.1,0.7,0.3l5.9,5.9c0.4,0.4,0.4,1,0,1.4L66.9,56C66.8,56.2,66.5,56.3,66.3,56.3z M61.8,49.5l4.5,4.5l16.4-16.4l-4.5-4.5L61.8,49.5z"></path> <path class="st0" d="M14.9,107.6L14.9,107.6c-0.3,0-0.5-0.1-0.7-0.3l-5.9-5.9c-0.4-0.4-0.4-1,0-1.4l51.3-51.3c0.4-0.4,1-0.4,1.4,0 l5.9,5.9c0.4,0.4,0.4,1,0,1.4l-51.3,51.3C15.5,107.5,15.2,107.6,14.9,107.6z M10.5,100.8l4.5,4.5l49.9-49.9l-4.5-4.5L10.5,100.8z"></path> </g> <g> <path class="st0" d="M78.2,110.9c-19.3,0-34.4-6.5-34.4-14.9V77c0-0.5,0.4-1,1-1s1,0.4,1,1v19c0,7,14.8,12.9,32.4,12.9 s32.4-5.9,32.4-12.9V76.5c0-0.5,0.4-1,1-1s1,0.4,1,1V96C112.6,104.3,97.5,110.9,78.2,110.9z"></path> <path class="st0" d="M51.5,58.3l4-4c-0.5-0.6-1.3-1-2.1-1c-1.6,0-2.9,1.3-2.9,2.9C50.6,57.1,50.9,57.8,51.5,58.3z"></path> <g> <path class="st0" d="M78.2,71.9c-9,0-17.5-1.5-23.9-4.1c-0.5-0.2-0.7-0.8-0.5-1.3C54,66,54.5,65.8,55,66c6.2,2.6,14.4,4,23.2,4 c17.6,0,32.4-5.9,32.4-12.9V37.6c0-7-14.8-12.9-32.4-12.9s-32.4,5.9-32.4,12.9V57c0,1.6,0.8,3.2,2.3,4.7c0.4,0.4,0.4,1,0,1.4 c-0.4,0.4-1,0.4-1.4,0c-1.9-1.9-2.9-3.9-2.9-6.1V37.6c0-8.3,15.1-14.9,34.4-14.9s34.4,6.5,34.4,14.9V57 C112.6,65.4,97.5,71.9,78.2,71.9z"></path> </g> <g> <path class="st0" d="M78.2,52.5c-2.6,0-5.3-0.1-7.8-0.4c-0.5-0.1-0.9-0.5-0.9-1.1c0.1-0.5,0.5-0.9,1.1-0.9 c2.5,0.2,5.1,0.4,7.6,0.4c17.6,0,32.4-5.9,32.4-12.9c0-0.5,0.4-1,1-1s1,0.4,1,1C112.6,45.9,97.5,52.5,78.2,52.5z"></path> <path class="st0" d="M60.5,50.3c-0.1,0-0.2,0-0.2,0C50,47.6,43.9,42.9,43.9,37.6c0-0.5,0.4-1,1-1s1,0.4,1,1 c0,4.3,5.7,8.4,14.9,10.8c0.5,0.1,0.8,0.7,0.7,1.2C61.3,50.1,60.9,50.3,60.5,50.3z"></path> </g> <g> <path class="st0" d="M44.8,66c-0.5,0-1-0.4-1-1v-8c0-0.5,0.4-1,1-1s1,0.4,1,1v8C45.8,65.6,45.4,66,44.8,66z"></path> <path class="st0" d="M78.2,91.4c-19,0-34.1-6.4-34.3-14.6c0-0.5,0.4-1,0.9-1c0.5-0.1,1,0.4,1,0.9c0.2,6.9,15.1,12.8,32.4,12.8 c17.6,0,32.4-5.9,32.4-12.9V57c0-0.5,0.4-1,1-1s1,0.4,1,1v19.5C112.6,84.9,97.5,91.4,78.2,91.4z"></path> </g> <circle class="st0" cx="53.4" cy="75.5" r="2.9"></circle> <circle class="st0" cx="53.4" cy="95.1" r="2.9"></circle> </g> </g> </svg> 