<?xml version="1.0" encoding="UTF-8"?> <!-- Generator: Adobe Illustrator 21.1.0, SVG Export Plug-In . SVG Version: 6.00 Build 0) --> <svg xmlns="http://www.w3.org/2000/svg" xmlns:xlink="http://www.w3.org/1999/xlink" id="Layer_1" x="0px" y="0px" viewBox="0 0 131 131" style="enable-background:new 0 0 131 131;" xml:space="preserve"> <style type="text/css"> .st0{fill:#90B7DE;} </style> <path class="st0" d="M133.5,45.3"></path> <path class="st0" d="M104.3,33.2"></path> <g> <path class="st0" d="M40.3,69.7c-2.3,0-4.2,1.9-4.2,4.2s1.9,4.2,4.2,4.2s4.2-1.9,4.2-4.2S42.6,69.7,40.3,69.7z"></path> <path class="st0" d="M40.3,86.5c-2.3,0-4.2,1.9-4.2,4.2c0,2.3,1.9,4.2,4.2,4.2s4.2-1.9,4.2-4.2S42.6,86.5,40.3,86.5z"></path> <path class="st0" d="M40.3,52.9c-2.3,0-4.2,1.9-4.2,4.2s1.9,4.2,4.2,4.2s4.2-1.9,4.2-4.2S42.6,52.9,40.3,52.9z"></path> <path class="st0" d="M27.7,55c-1.2,0-2.1,0.9-2.1,2.1s0.9,2.1,2.1,2.1s2.1-0.9,2.1-2.1S28.8,55,27.7,55z"></path> <path class="st0" d="M40.3,36.1c-2.3,0-4.2,1.9-4.2,4.2s1.9,4.2,4.2,4.2s4.2-1.9,4.2-4.2S42.6,36.1,40.3,36.1z"></path> <path class="st0" d="M103.3,59.2c1.2,0,2.1-0.9,2.1-2.1s-0.9-2.1-2.1-2.1s-2.1,0.9-2.1,2.1S102.2,59.2,103.3,59.2z"></path> <path class="st0" d="M73.9,44.5c2.3,0,4.2-1.9,4.2-4.2s-1.9-4.2-4.2-4.2s-4.2,1.9-4.2,4.2S71.6,44.5,73.9,44.5z"></path> <path class="st0" d="M73.9,29.8c1.2,0,2.1-0.9,2.1-2.1s-0.9-2.1-2.1-2.1s-2.1,0.9-2.1,2.1C71.8,28.8,72.7,29.8,73.9,29.8z"></path> <path class="st0" d="M27.7,71.8c-1.2,0-2.1,0.9-2.1,2.1s0.9,2.1,2.1,2.1s2.1-0.9,2.1-2.1C29.8,72.7,28.8,71.8,27.7,71.8z"></path> <path class="st0" d="M57.1,101.2c-1.2,0-2.1,0.9-2.1,2.1s0.9,2.1,2.1,2.1s2.1-0.9,2.1-2.1S58.3,101.2,57.1,101.2z"></path> <path class="st0" d="M57.1,29.8c1.2,0,2.1-0.9,2.1-2.1s-0.9-2.1-2.1-2.1S55,26.5,55,27.7C55,28.8,55.9,29.8,57.1,29.8z"></path> <path class="st0" d="M57.1,44.5c2.3,0,4.2-1.9,4.2-4.2s-1.9-4.2-4.2-4.2s-4.2,1.9-4.2,4.2S54.8,44.5,57.1,44.5z"></path> <circle class="st0" cx="57.1" cy="73.9" r="6.3"></circle> <path class="st0" d="M90.7,69.7c-2.3,0-4.2,1.9-4.2,4.2s1.9,4.2,4.2,4.2c2.3,0,4.2-1.9,4.2-4.2S93,69.7,90.7,69.7z"></path> <path class="st0" d="M90.7,86.5c-2.3,0-4.2,1.9-4.2,4.2c0,2.3,1.9,4.2,4.2,4.2c2.3,0,4.2-1.9,4.2-4.2C94.9,88.4,93,86.5,90.7,86.5z "></path> <path class="st0" d="M90.7,52.9c-2.3,0-4.2,1.9-4.2,4.2s1.9,4.2,4.2,4.2c2.3,0,4.2-1.9,4.2-4.2S93,52.9,90.7,52.9z"></path> <path class="st0" d="M90.7,36.1c-2.3,0-4.2,1.9-4.2,4.2s1.9,4.2,4.2,4.2c2.3,0,4.2-1.9,4.2-4.2S93,36.1,90.7,36.1z"></path> <path class="st0" d="M103.3,71.8c-1.2,0-2.1,0.9-2.1,2.1s0.9,2.1,2.1,2.1s2.1-0.9,2.1-2.1C105.4,72.7,104.5,71.8,103.3,71.8z"></path> <path class="st0" d="M73.9,86.5c-2.3,0-4.2,1.9-4.2,4.2c0,2.3,1.9,4.2,4.2,4.2s4.2-1.9,4.2-4.2S76.2,86.5,73.9,86.5z"></path> <path class="st0" d="M73.9,101.2c-1.2,0-2.1,0.9-2.1,2.1s0.9,2.1,2.1,2.1s2.1-0.9,2.1-2.1S75.1,101.2,73.9,101.2z"></path> <circle class="st0" cx="57.1" cy="57.1" r="6.3"></circle> <path class="st0" d="M57.1,86.5c-2.3,0-4.2,1.9-4.2,4.2c0,2.3,1.9,4.2,4.2,4.2s4.2-1.9,4.2-4.2S59.4,86.5,57.1,86.5z"></path> <circle class="st0" cx="73.9" cy="73.9" r="6.3"></circle> <circle class="st0" cx="73.9" cy="57.1" r="6.3"></circle> </g> </svg> 