<?xml version="1.0" encoding="UTF-8"?> <!-- Generator: Adobe Illustrator 21.1.0, SVG Export Plug-In . SVG Version: 6.00 Build 0) --> <svg xmlns="http://www.w3.org/2000/svg" xmlns:xlink="http://www.w3.org/1999/xlink" id="Layer_1" x="0px" y="0px" viewBox="0 0 131 131" style="enable-background:new 0 0 131 131;" xml:space="preserve"> <style type="text/css"> .st0{fill:#90B7DE;} </style> <path class="st0" d="M133.5,45.3"></path> <path class="st0" d="M104.3,33.2"></path> <g> <circle class="st0" cx="34.5" cy="38.7" r="2.2"></circle> <circle class="st0" cx="34.5" cy="53.3" r="2.2"></circle> <circle class="st0" cx="34.5" cy="68" r="2.2"></circle> <path class="st0" d="M84.3,40.7c-1.8,0-3.5,0.1-5.2,0.2c0.2-0.5,0.3-1.1,0.3-1.6V24.6c0-6.4-11.5-11.5-26.2-11.5S27,18.1,27,24.6 v14.7V54v14.7c0,5.4,8.2,10,20.1,11.2c0.1,3.6,1.2,7.1,3.1,10.1l-1.7,1.6l-0.8-0.8c-0.4-0.4-1-0.4-1.4,0L29,108 c-2.3,2.2-2.3,5.9,0,8.2c1.1,1.1,2.6,1.7,4.1,1.7c1.5,0,2.9-0.6,4.1-1.7L54.4,99c0.2-0.2,0.3-0.4,0.3-0.7c0-0.3-0.1-0.5-0.3-0.7 L53.8,97l1.6-1.5c0.9,0.7,1.9,1.3,2.9,1.8c1.1,6,12,10.5,26.1,10.5c14.7,0,26.2-5,26.2-11.5V81.6V66.9V52.2 C110.5,45.8,99,40.7,84.3,40.7z M108.5,52.2c0,4.6-9.7,9.5-24.2,9.5c-2.6,0-5.1-0.2-7.6-0.5c-0.1-0.1-0.3-0.1-0.4-0.2 c-0.3-0.2-0.6-0.3-1-0.5c-0.2-0.1-0.3-0.1-0.5-0.2c-0.3-0.1-0.6-0.3-1-0.4c-0.2-0.1-0.5-0.1-0.7-0.2c-0.3-0.1-0.5-0.2-0.8-0.2 c-0.5-0.1-1-0.2-1.5-0.3c-1.2-0.2-2.3-0.3-3.5-0.3c-4.6-1.8-7.3-4.3-7.3-6.7c0-0.7,0.3-1.5,0.7-2.2l0,0c0.4-0.6,0.9-1.2,1.6-1.7 l0.1-0.1c0.2-0.1,0.4-0.3,0.6-0.4l0.1-0.1c0.2-0.2,0.5-0.3,0.8-0.5H64c3.2-1.9,7.9-3.3,13.5-4h0.1c2.1-0.2,4.3-0.4,6.6-0.4 C98.8,42.7,108.5,47.6,108.5,52.2z M63.5,59.3c-1.2,0.2-2.3,0.5-3.4,1v-3.6C60.9,57.6,62.1,58.5,63.5,59.3z M53.2,15.1 c14.5,0,24.2,4.9,24.2,9.5s-9.7,9.5-24.2,9.5S29,29.2,29,24.6S38.7,15.1,53.2,15.1z M53.2,36.1c11.1,0,20.3-2.9,24.2-7v10.3 c0,0.6-0.2,1.2-0.5,1.9c-3.6,0.5-6.9,1.2-9.7,2.3l0,0c-0.3,0.1-0.7,0.3-1,0.4c-0.1,0-0.2,0.1-0.2,0.1c-0.3,0.1-0.5,0.2-0.8,0.3 c-0.1,0-0.2,0.1-0.3,0.1c-0.3,0.1-0.5,0.3-0.8,0.4c-0.2,0.1-0.3,0.2-0.5,0.3c-0.1,0.1-0.3,0.2-0.4,0.2c-0.1,0.1-0.3,0.2-0.4,0.3 c-0.1,0.1-0.3,0.2-0.4,0.2c-0.1,0.1-0.3,0.2-0.4,0.3c-0.1,0.1-0.3,0.2-0.4,0.3c-0.1,0.1-0.2,0.1-0.3,0.2c-0.5,0.4-0.9,0.8-1.3,1.2 l0,0c-0.2,0.2-0.4,0.4-0.5,0.7c-2.1,0.2-4.2,0.3-6.3,0.3C38.7,48.9,29,44,29,39.4V29.1C32.8,33.2,42.1,36.1,53.2,36.1z M53.2,50.8 c1.7,0,3.4-0.1,5.2-0.3c-0.2,0.5-0.3,1.1-0.3,1.7v8.9c-1.3,0.7-2.6,1.5-3.7,2.5h-0.1h-1.1C38.7,63.5,29,58.6,29,54V43.8 C32.8,47.9,42.1,50.8,53.2,50.8z M29,68.7V58.5c3.8,4.1,12.7,6.9,23.4,7c-3.1,3.4-5,7.8-5.3,12.4C36.7,76.8,29,72.9,29,68.7z M49,79.1L49,79.1L49,79.1c0-5,2.1-9.8,5.8-13.3c1.4-1.3,2.9-2.3,4.6-3.1c0.1,0,0.1-0.1,0.2-0.1c2.3-1.1,4.9-1.7,7.5-1.7 c0.1,0,0.1,0,0.2,0l0,0c0.3,0,0.5,0,0.8,0c0.2,0,0.3,0,0.5,0c0.1,0,0.3,0,0.4,0c0.5,0,1.1,0.1,1.6,0.2c0.5,0.1,1,0.2,1.4,0.3 c0.3,0.1,0.6,0.2,0.9,0.3c0.2,0,0.3,0.1,0.5,0.1c0.4,0.1,0.8,0.3,1.2,0.5h0.1c0.4,0.2,0.8,0.4,1.2,0.6c1.8,0.9,3.4,2.2,4.8,3.7 c2.7,2.8,4.3,6.4,4.8,10.3c0.4,3.3-0.1,6.7-1.5,9.8l0,0c-0.8,1.7-1.8,3.2-3,4.6l0,0c-0.4,0.4-0.7,0.8-1.1,1.2 c-1.7,1.6-3.7,2.9-5.9,3.7c-4.8,1.8-10,1.6-14.4-0.5l0,0c-2-1-3.9-2.3-5.5-4c-3.2-3.4-4.9-7.8-4.9-12.4C49,79.2,49,79.1,49,79.1z M49.8,93l1.5-1.4c0.4,0.5,0.8,0.9,1.2,1.4c0.4,0.4,0.9,0.9,1.3,1.3l-1.4,1.3L49.8,93z M35.7,114.8c-1.5,1.5-3.9,1.5-5.4,0 s-1.5-3.9,0-5.4L47,92.9l0.7,0.7l0,0l0,0l4.6,4.7L35.7,114.8z M108.5,96.3c0,4.6-9.7,9.5-24.2,9.5c-10.1,0-21.1-3-23.6-7.5 c2.1,0.7,4.3,1.1,6.6,1.1c2.5,0,4.9-0.4,7.3-1.4c2.4-0.9,4.6-2.3,6.5-4.1c0.3-0.3,0.6-0.6,0.9-0.9c0.8,0,1.5,0.1,2.3,0.1 c11.1,0,20.3-2.9,24.2-7L108.5,96.3L108.5,96.3z M108.5,81.6c0,4.6-9.7,9.5-24.2,9.5c-0.2,0-0.5,0-0.7,0c0.8-1.1,1.5-2.3,2.1-3.6 c1.3-2.9,1.9-6,1.8-9.2c9.7-0.5,17.5-3.2,21-7C108.5,71.3,108.5,81.6,108.5,81.6z M108.5,66.9c0,4.7-9.4,8.8-21.2,9.4 c-0.6-4.1-2.4-7.9-5.2-11c-0.6-0.6-1.2-1.2-1.9-1.8c1.4,0.1,2.8,0.1,4.1,0.1c11.1,0,20.3-2.9,24.2-7V66.9z"></path> <path class="st0" d="M62.2,87c0.2,0.2,0.4,0.3,0.7,0.3s0.5-0.1,0.7-0.3l14.3-14.3c0.4-0.4,0.4-1,0-1.4s-1-0.4-1.4,0L62.9,84.9 l-6.3-6.3c-0.4-0.4-1-0.4-1.4,0s-0.4,1,0,1.4L62.2,87z"></path> </g> </svg> 