<?xml version="1.0" encoding="UTF-8"?> <!-- Generator: Adobe Illustrator 21.1.0, SVG Export Plug-In . SVG Version: 6.00 Build 0) --> <svg xmlns="http://www.w3.org/2000/svg" xmlns:xlink="http://www.w3.org/1999/xlink" id="Layer_1" x="0px" y="0px" viewBox="0 0 131 131" style="enable-background:new 0 0 131 131;" xml:space="preserve"> <style type="text/css"> .st0{fill:#496885;} </style> <path class="st0" d="M133.5,45.3"></path> <path class="st0" d="M104.3,33.2"></path> <g> <path class="st0" d="M92,49.5c-0.6,0-1.1-0.5-1.1-1.1v-6.3c0-0.6,0.5-1.1,1.1-1.1s1.1,0.5,1.1,1.1v6.3C93.1,49,92.6,49.5,92,49.5z M40.7,43.3c-0.6,0-1.1-0.5-1.1-1.1v-6.3c0-0.6,0.5-1.1,1.1-1.1s1.1,0.5,1.1,1.1v6.3C41.8,42.8,41.3,43.3,40.7,43.3z M92,36.9 c-0.6,0-1.1-0.5-1.1-1.1v-6.3c0-0.6,0.5-1.1,1.1-1.1s1.1,0.5,1.1,1.1v6.3C93.1,36.4,92.6,36.9,92,36.9z M40.7,30.7 c-0.6,0-1.1-0.5-1.1-1.1v-2.8c0-0.4,0.2-0.8,0.6-1l3.1-1.6c0.6-0.3,1.2-0.1,1.5,0.5c0.3,0.6,0.1,1.2-0.5,1.5l-2.5,1.3v2.1 C41.8,30.2,41.3,30.7,40.7,30.7z M88.8,26.3c-0.2,0-0.3,0-0.5-0.1l-5.6-2.8c-0.6-0.3-0.8-1-0.5-1.5c0.3-0.6,1-0.8,1.5-0.5l5.6,2.8 c0.6,0.3,0.8,1,0.5,1.5C89.6,26.1,89.2,26.3,88.8,26.3z M49.5,23.6c-0.4,0-0.8-0.2-1-0.6c-0.3-0.6-0.1-1.2,0.5-1.5l5.6-2.8 c0.6-0.3,1.2-0.1,1.5,0.5c0.3,0.6,0.1,1.2-0.5,1.5L50,23.4C49.8,23.5,49.6,23.6,49.5,23.6z M77.6,20.7c-0.2,0-0.3,0-0.5-0.1 l-5.6-2.8c-0.6-0.3-0.8-1-0.5-1.5c0.3-0.6,1-0.8,1.5-0.5l5.6,2.8c0.6,0.3,0.8,1,0.5,1.5C78.4,20.5,78,20.7,77.6,20.7z M60.7,17.9 c-0.4,0-0.8-0.2-1-0.6c-0.3-0.6-0.1-1.2,0.5-1.5l5.6-2.8c0.6-0.3,1.2-0.1,1.5,0.5c0.3,0.6,0.1,1.2-0.5,1.5l-5.6,2.8 C61,17.9,60.9,17.9,60.7,17.9z"></path> <g> <path class="st0" d="M66.4,95.6c-0.6,0-1.1-0.5-1.1-1.1v-3.1c0-0.6,0.5-1.1,1.1-1.1s1.1,0.5,1.1,1.1v3.1 C67.5,95.1,67,95.6,66.4,95.6z"></path> <path class="st0" d="M69.2,102.6c-0.2,0-0.3,0-0.5-0.1l-2.8-1.4c-0.4-0.2-0.6-0.6-0.6-1v-3.1c0-0.6,0.5-1.1,1.1-1.1 s1.1,0.5,1.1,1.1v2.4l2.2,1.1c0.6,0.3,0.8,1,0.5,1.5C70,102.4,69.6,102.6,69.2,102.6z"></path> <path class="st0" d="M82.5,109.3c-0.2,0-0.3,0-0.5-0.1l-6.7-3.3c-0.6-0.3-0.8-1-0.5-1.5c0.3-0.6,1-0.8,1.5-0.5l6.7,3.3 c0.6,0.3,0.8,1,0.5,1.5C83.3,109.1,82.9,109.3,82.5,109.3z"></path> <path class="st0" d="M92,114c-0.2,0-0.3,0-0.5-0.1l-2.8-1.4c-0.6-0.3-0.8-1-0.5-1.5c0.3-0.6,1-0.8,1.5-0.5l2.3,1.2l2.3-1.2 c0.6-0.3,1.2-0.1,1.5,0.5c0.3,0.6,0.1,1.2-0.5,1.5l-2.8,1.4C92.4,114,92.2,114,92,114z"></path> <path class="st0" d="M101.5,109.3c-0.4,0-0.8-0.2-1-0.6c-0.3-0.6-0.1-1.2,0.5-1.5l6.7-3.3c0.6-0.3,1.2-0.1,1.5,0.5 c0.3,0.6,0.1,1.2-0.5,1.5l-6.7,3.3C101.9,109.2,101.7,109.3,101.5,109.3z"></path> <path class="st0" d="M114.9,102.6c-0.4,0-0.8-0.2-1-0.6c-0.3-0.6-0.1-1.2,0.5-1.5l2.2-1.1v-2.4c0-0.6,0.5-1.1,1.1-1.1 s1.1,0.5,1.1,1.1v3.1c0,0.4-0.2,0.8-0.6,1l-2.8,1.4C115.2,102.6,115,102.6,114.9,102.6z"></path> <path class="st0" d="M117.7,90.1c-0.6,0-1.1-0.5-1.1-1.1v-8c0-0.6,0.5-1.1,1.1-1.1s1.1,0.5,1.1,1.1v8 C118.8,89.6,118.3,90.1,117.7,90.1z"></path> <path class="st0" d="M117.7,74.1c-0.6,0-1.1-0.5-1.1-1.1v-2.4l-2.2-1.1c-0.6-0.3-0.8-1-0.5-1.5c0.3-0.6,1-0.8,1.5-0.5l2.8,1.4 c0.4,0.2,0.6,0.6,0.6,1V73C118.8,73.6,118.3,74.1,117.7,74.1z"></path> <path class="st0" d="M108.2,66.2c-0.2,0-0.3,0-0.5-0.1l-6.7-3.3c-0.6-0.3-0.8-1-0.5-1.5s1-0.8,1.5-0.5l6.7,3.3 c0.6,0.3,0.8,1,0.5,1.5C109,66,108.6,66.2,108.2,66.2z"></path> <path class="st0" d="M94.8,59.6c-0.2,0-0.3,0-0.5-0.1L91.5,58c-0.6-0.3-0.8-1-0.5-1.5c0.3-0.6,1-0.8,1.5-0.5l2.8,1.4 c0.6,0.3,0.8,1,0.5,1.5C95.6,59.3,95.2,59.6,94.8,59.6z"></path> </g> <path class="st0" d="M62,73.3c-0.3,0-0.5-0.1-0.7-0.3l-8.5-8.5c-0.4-0.4-0.4-1,0-1.4c0.4-0.4,1-0.4,1.4,0L62,71l16.5-16.5 c0.4-0.4,1-0.4,1.4,0c0.4,0.4,0.4,1,0,1.4L62.7,73.1C62.5,73.2,62.3,73.3,62,73.3z"></path> <g> <path class="st0" d="M37.9,59.6c-0.4,0-0.8-0.2-1-0.6c-0.3-0.6-0.1-1.2,0.5-1.5l2.8-1.4c0.6-0.3,1.2-0.1,1.5,0.5 c0.3,0.6,0.1,1.2-0.5,1.5l-2.8,1.4C38.2,59.5,38,59.6,37.9,59.6z"></path> <path class="st0" d="M24.5,66.2c-0.4,0-0.8-0.2-1-0.6c-0.3-0.6-0.1-1.2,0.5-1.5l6.7-3.3c0.6-0.3,1.2-0.1,1.5,0.5 c0.3,0.6,0.1,1.2-0.5,1.5L25,66.1C24.9,66.2,24.7,66.2,24.5,66.2z"></path> <path class="st0" d="M15,74.1c-0.6,0-1.1-0.5-1.1-1.1v-3.1c0-0.4,0.2-0.8,0.6-1l2.8-1.4c0.6-0.3,1.2-0.1,1.5,0.5 c0.3,0.6,0.1,1.2-0.5,1.5l-2.2,1.1V73C16.1,73.6,15.6,74.1,15,74.1z"></path> <path class="st0" d="M15,90.1c-0.6,0-1.1-0.5-1.1-1.1v-8c0-0.6,0.5-1.1,1.1-1.1s1.1,0.5,1.1,1.1v8C16.1,89.6,15.6,90.1,15,90.1z"></path> <path class="st0" d="M17.8,102.6c-0.2,0-0.3,0-0.5-0.1l-2.8-1.4c-0.4-0.2-0.6-0.6-0.6-1v-3.1c0-0.6,0.5-1.1,1.1-1.1 s1.1,0.5,1.1,1.1v2.4l2.2,1.1c0.6,0.3,0.8,1,0.5,1.5C18.6,102.4,18.2,102.6,17.8,102.6z"></path> <path class="st0" d="M31.2,109.3c-0.2,0-0.3,0-0.5-0.1l-6.7-3.3c-0.6-0.3-0.8-1-0.5-1.5c0.3-0.6,1-0.8,1.5-0.5l6.7,3.3 c0.6,0.3,0.8,1,0.5,1.5C32,109.1,31.6,109.3,31.2,109.3z"></path> <path class="st0" d="M40.7,114c-0.2,0-0.3,0-0.5-0.1l-2.8-1.4c-0.6-0.3-0.8-1-0.5-1.5c0.3-0.6,1-0.8,1.5-0.5l2.3,1.2l2.3-1.2 c0.6-0.3,1.2-0.1,1.5,0.5c0.3,0.6,0.1,1.2-0.5,1.5l-2.8,1.4C41,114,40.9,114,40.7,114z"></path> <path class="st0" d="M50.2,109.3c-0.4,0-0.8-0.2-1-0.6c-0.3-0.6-0.1-1.2,0.5-1.5l6.7-3.3c0.6-0.3,1.2-0.1,1.5,0.5 c0.3,0.6,0.1,1.2-0.5,1.5l-6.7,3.3C50.5,109.2,50.4,109.3,50.2,109.3z"></path> <path class="st0" d="M63.5,102.6c-0.4,0-0.8-0.2-1-0.6c-0.3-0.6-0.1-1.2,0.5-1.5l2.2-1.1v-2.4c0-0.6,0.5-1.1,1.1-1.1 s1.1,0.5,1.1,1.1v3.1c0,0.4-0.2,0.8-0.6,1l-2.8,1.4C63.9,102.6,63.7,102.6,63.5,102.6z"></path> <path class="st0" d="M66.4,95.6c-0.6,0-1.1-0.5-1.1-1.1v-3.1c0-0.6,0.5-1.1,1.1-1.1s1.1,0.5,1.1,1.1v3.1 C67.5,95.1,67,95.6,66.4,95.6z"></path> </g> <g> <path class="st0" d="M66.4,92.4c-0.2,0-0.3,0-0.4-0.1L40.2,79.4c-0.3-0.2-0.5-0.5-0.5-0.9V48.3c0-0.4,0.2-0.7,0.5-0.9l25.7-12.8 c0.3-0.1,0.6-0.1,0.9,0l25.7,12.8c0.3,0.2,0.5,0.5,0.5,0.9v30.2c0,0.4-0.2,0.7-0.5,0.9L66.8,92.2C66.7,92.3,66.5,92.4,66.4,92.4z M41.7,77.9l24.7,12.3L91,77.9v-29L66.4,36.6L41.7,48.9V77.9z"></path> </g> </g> </svg> 