<?xml version="1.0" encoding="UTF-8"?> <!-- Generator: Adobe Illustrator 21.1.0, SVG Export Plug-In . SVG Version: 6.00 Build 0) --> <svg xmlns="http://www.w3.org/2000/svg" xmlns:xlink="http://www.w3.org/1999/xlink" id="Layer_1" x="0px" y="0px" viewBox="0 0 131 131" style="enable-background:new 0 0 131 131;" xml:space="preserve"> <style type="text/css"> .st0{fill:#90B7DE;} </style> <path class="st0" d="M133.5,45.3"></path> <path class="st0" d="M104.3,33.2"></path> <g> <circle class="st0" cx="65.2" cy="65.8" r="6.2"></circle> <path class="st0" d="M65.2,66.8c-0.5,0-1-0.4-1-1V18.1c0-0.5,0.4-1,1-1s1,0.4,1,1v47.7C66.2,66.3,65.7,66.8,65.2,66.8z"></path> <path class="st0" d="M65.5,113.9c-26.7,0-48.4-21.7-48.4-48.4s21.5-48.4,48-48.4c0.5,0,1,0.4,1,1s-0.4,1-1,1 C39.7,19.1,19,39.9,19,65.5s20.8,46.4,46.4,46.4s46.4-20.8,46.4-46.4c0-12.4-4.8-24.1-13.6-32.8c-0.4-0.4-0.4-1,0-1.4s1-0.4,1.4,0 c9.2,9.1,14.2,21.3,14.2,34.2C113.9,92.2,92.2,113.9,65.5,113.9z"></path> <path class="st0" d="M65.5,100C46.5,100,31,84.5,31,65.5S46.3,31,65.2,31c0.5,0,1,0.4,1,1c0,0.6-0.4,1-1,1C47.4,33,33,47.6,33,65.5 S47.6,98,65.5,98S98,83.4,98,65.5c0-8.7-3.4-16.9-9.5-23c-0.4-0.4-0.4-1,0-1.4s1-0.4,1.4,0c6.5,6.5,10.1,15.2,10.1,24.4 C100,84.5,84.5,100,65.5,100z"></path> <path class="st0" d="M65.5,85.8c-11.2,0-20.3-9.1-20.3-20.3c0-11.4,8.8-20.3,20-20.3c0.5,0,1,0.4,1,1s-0.4,1-1,1 c-10.1,0-18,8-18,18.3c0,10.1,8.2,18.3,18.3,18.3s18.3-8.2,18.3-18.3c0-4.9-1.9-9.5-5.4-13c-0.4-0.4-0.4-1,0-1.4s1-0.4,1.4,0 c3.8,3.8,6,8.9,6,14.4C85.8,76.7,76.7,85.8,65.5,85.8z"></path> </g> </svg> 