<?xml version="1.0" encoding="utf-8"?>
<!-- Generator: Adobe Illustrator 21.0.0, SVG Export Plug-In . SVG Version: 6.00 Build 0)  -->
<svg version="1.1" xmlns="http://www.w3.org/2000/svg" xmlns:xlink="http://www.w3.org/1999/xlink" x="0px" y="0px"
	 viewBox="0 0 170 170" style="enable-background:new 0 0 170 170;" xml:space="preserve">
<style type="text/css">
	.st0{fill:#FF6800;}
	.st1{fill:#FFFFFF;}
</style>
<g id="bg">
	<g>
		<circle class="st0" cx="85" cy="85" r="85"/>
	</g>
</g>
<g id="users_1_">
	<g>
		<path class="st1" d="M66.5,92.3c9.8,0,29.2,4.8,29.2,14.6v7.4H37.3v-7.4C37.3,97.1,56.7,92.3,66.5,92.3L66.5,92.3z M66.5,84.9
			c-8,0-14.6-6.4-14.6-14.6s6.4-14.7,14.6-14.7s14.6,6.7,14.6,14.7S74.6,84.9,66.5,84.9z"/>
		<g>
			<path class="st1" d="M103.5,84.9c8,0,14.6-6.4,14.6-14.6s-6.4-14.7-14.6-14.7s-14.6,6.7-14.6,14.7S95.4,84.9,103.5,84.9z"/>
			<path class="st1" d="M85,96c-6,2.4-10.7,6-10.7,10.9v7.4h21.5v-7.4C95.7,102,91,98.4,85,96z"/>
			<path class="st1" d="M103.5,92.3c-3.6,0-8.6,0.7-13.5,2c7.6,4.1,9.4,9,9.4,12.5v7.4h33.3v-7.4C132.7,97.1,113.3,92.3,103.5,92.3z
				"/>
			<path class="st1" d="M103.5,92.3L103.5,92.3L103.5,92.3z"/>
		</g>
	</g>
</g>
</svg>
