<?xml version="1.0" encoding="utf-8"?>
<!-- Generator: Adobe Illustrator 21.0.0, SVG Export Plug-In . SVG Version: 6.00 Build 0)  -->
<svg version="1.1" id="partners" xmlns="http://www.w3.org/2000/svg" xmlns:xlink="http://www.w3.org/1999/xlink" x="0px" y="0px"
	 viewBox="0 0 80 80" style="enable-background:new 0 0 80 80;" xml:space="preserve">
<style type="text/css">
	.st0{fill:#FFFFFF;}
</style>
<path class="st0" d="M58.2,54.5v-7.1H80v7.1c0,4.8-3.1,8.7-7.3,10.2V80h-7.3V64.7C61.1,63.1,58.2,59.2,58.2,54.5L58.2,54.5z
	 M43.6,3.7v14.5h7.3V40H29.1V18.2h7.3V3.7C36.4,1.7,38,0,40,0C42,0,43.6,1.7,43.6,3.7z M72.7,18.2H80V40H58.2V18.2h7.1V3.7
	c0-2,1.7-3.7,3.7-3.7c2,0,3.6,1.7,3.6,3.7V18.2z M0,54.5v-7.1h21.8v7.1c0,4.8-2.9,8.7-7.1,10.2V80H7.3V64.7C3.1,63.1,0,59.2,0,54.5
	L0,54.5z M29.1,54.5v-7.1h21.8v7.1c0,4.8-3.1,8.7-7.3,10.2V80h-7.1V64.7C32.2,63.1,29.1,59.2,29.1,54.5L29.1,54.5z M14.6,3.7v14.5
	h7.1V40H0V18.2h7.3V3.7c0-2,1.5-3.7,3.6-3.7S14.6,1.7,14.6,3.7z"/>
</svg>
