<?xml version="1.0" encoding="utf-8"?>
<!-- Generator: Adobe Illustrator 21.0.0, SVG Export Plug-In . SVG Version: 6.00 Build 0)  -->
<svg version="1.1" xmlns="http://www.w3.org/2000/svg" xmlns:xlink="http://www.w3.org/1999/xlink" x="0px" y="0px"
	 viewBox="0 0 170 170" style="enable-background:new 0 0 170 170;" xml:space="preserve">
<style type="text/css">
	.st0{fill:#FF6800;}
	.st1{fill:#FFFFFF;}
</style>
<g id="bg">
	<g>
		<circle class="st0" cx="85" cy="85" r="85"/>
	</g>
</g>
<g id="languages">
	<path class="st1" d="M107.8,69.8v-7.7H77.3v7.7H107.8z M107.8,81.3v-7.7H77.3v7.7H107.8z M96.4,92.7V85H77.3v7.7H96.4z M69.8,69.8
		v-7.7h-7.7v7.7H69.8z M69.8,81.3v-7.7h-7.7v7.7H69.8z M69.8,92.7V85h-7.7v7.7H69.8z M115.5,47c4.1,0,7.5,3.4,7.5,7.5v45.7
		c0,4.1-3.4,7.7-7.5,7.7H62.2L47,123V54.5c0-4.1,3.4-7.5,7.5-7.5C54.5,47,115.5,47,115.5,47z"/>
</g>
</svg>
