<?xml version="1.0" encoding="utf-8"?>
<!-- Generator: Adobe Illustrator 21.0.0, SVG Export Plug-In . SVG Version: 6.00 Build 0)  -->
<svg version="1.1" xmlns="http://www.w3.org/2000/svg" xmlns:xlink="http://www.w3.org/1999/xlink" x="0px" y="0px"
	 viewBox="0 0 170 170" style="enable-background:new 0 0 170 170;" xml:space="preserve">
<style type="text/css">
	.st0{fill:#FF6800;}
	.st1{fill:#FFFFFF;}
</style>
<g id="bg">
	<g>
		<circle class="st0" cx="85" cy="85" r="85"/>
	</g>
</g>
<g id="countries">
	<path class="st1" d="M103.6,93.6h14.4c0.6-2.8,1.2-5.6,1.2-8.6s-0.6-5.8-1.2-8.6h-14.4c0.4,2.8,0.6,5.6,0.6,8.6
		S104,90.8,103.6,93.6z M96,117.1c7.8-2.6,14.6-8.2,18.6-15.2H102C100.6,107.3,98.6,112.3,96,117.1z M95,93.6
		c0.4-2.8,0.6-5.6,0.6-8.6s-0.2-5.8-0.6-8.6H75c-0.4,2.8-0.6,5.6-0.6,8.6s0.2,5.8,0.6,8.6H95z M85,118.9c3.6-5.2,6.4-10.8,8.2-17
		H76.8C78.6,108.1,81.4,113.7,85,118.9z M68,68c1.4-5.4,3.4-10.4,6-15.2c-7.8,2.6-14.6,8.2-18.6,15.2H68z M55.5,102
		c4,7,10.8,12.6,18.6,15.2c-2.6-4.8-4.6-9.8-6-15.2C68,102,55.5,102,55.5,102z M52.1,93.6h14.4C66,90.8,65.8,88,65.8,85
		s0.2-5.8,0.6-8.6H52.1c-0.6,2.8-1.2,5.6-1.2,8.6S51.5,90.8,52.1,93.6z M85,51.1c-3.6,5.2-6.4,10.8-8.2,17h16.4
		C91.4,61.9,88.6,56.3,85,51.1z M114.5,68c-4-7-10.8-12.6-18.6-15.2c2.6,4.8,4.6,9.8,6,15.2H114.5z M85,42.5
		c23.5,0,42.5,19,42.5,42.5s-19,42.5-42.5,42.5s-42.5-19-42.5-42.5S61.5,42.5,85,42.5z"/>
</g>
</svg>
