<?xml version="1.0" encoding="utf-8"?>
<!-- Generator: Adobe Illustrator 21.0.0, SVG Export Plug-In . SVG Version: 6.00 Build 0)  -->
<svg version="1.1" id="employees" xmlns="http://www.w3.org/2000/svg" xmlns:xlink="http://www.w3.org/1999/xlink" x="0px" y="0px"
	 viewBox="0 0 80 80" style="enable-background:new 0 0 80 80;" xml:space="preserve">
<style type="text/css">
	.st0{fill:#FFFFFF;}
</style>
<g>
	<path class="st0" d="M24.5,46.2c8.2,0,24.5,4,24.5,12.2v6.2H0v-6.2C0,50.2,16.3,46.2,24.5,46.2L24.5,46.2z M24.5,40
		c-6.7,0-12.2-5.4-12.2-12.2s5.4-12.3,12.2-12.3s12.2,5.6,12.2,12.3S31.3,40,24.5,40z"/>
	<g>
		<path class="st0" d="M55.5,40c6.7,0,12.2-5.4,12.2-12.2s-5.4-12.3-12.2-12.3s-12.2,5.6-12.2,12.3S48.7,40,55.5,40z"/>
		<path class="st0" d="M40,49.3c-5,2-9,5-9,9.1v6.2H49v-6.2C49,54.3,45,51.3,40,49.3z"/>
		<path class="st0" d="M55.5,46.2c-3,0-7.2,0.6-11.3,1.7c6.4,3.4,7.9,7.5,7.9,10.5v6.2H80v-6.2C80,50.2,63.7,46.2,55.5,46.2z"/>
		<polygon class="st0" points="55.5,46.2 55.5,46.2 55.5,46.2 		"/>
	</g>
</g>
</svg>
