<?xml version="1.0" encoding="utf-8"?>
<!-- Generator: Adobe Illustrator 21.0.0, SVG Export Plug-In . SVG Version: 6.00 Build 0)  -->
<svg version="1.1" id="chart" xmlns="http://www.w3.org/2000/svg" xmlns:xlink="http://www.w3.org/1999/xlink" x="0px" y="0px"
	 viewBox="0 0 446 262" style="enable-background:new 0 0 446 262;" xml:space="preserve">
<style type="text/css">
	.st0{fill:none;stroke:#E8E8E8;stroke-miterlimit:10;}
	.st1{fill:#5BCAAE;}
	.st2{fill:#53B798;}
	.st3{fill:#7C858C;}
	.st4{fill:none;stroke:#7C858C;stroke-width:1.25;stroke-linecap:round;stroke-miterlimit:10;}
</style>
<g>
	<line class="st0" x1="164.9" y1="39.9" x2="164.9" y2="220.9"/>
	<line class="st0" x1="256.6" y1="39.5" x2="256.6" y2="220.5"/>
	<line class="st0" x1="348.2" y1="39.5" x2="348.2" y2="220.5"/>
	<line class="st0" x1="439.9" y1="39.5" x2="439.9" y2="220.5"/>
	<rect x="164.4" y="60.5" class="st1" width="168" height="40"/>
	<rect x="164.4" y="110.5" class="st1" width="139" height="40"/>
	<rect x="164.4" y="160.5" class="st1" width="121" height="40"/>
	<rect x="257.2" y="60.5" class="st2" width="75.2" height="40"/>
	<rect x="257.2" y="110.5" class="st2" width="46.2" height="40"/>
	<rect x="257.2" y="160.5" class="st2" width="28.2" height="40"/>
	<g>
		<path class="st3" d="M96.1,75.5v-9.3h1.3l2.7,7.2l2.8-7.2h1.3v9.3h-1.1v-7.1l-2.9,7.3h-0.2l-2.8-7.3v7.1H96.1z"/>
		<path class="st3" d="M108.1,75.4c-0.4-0.2-0.7-0.5-1-0.8c-0.3-0.3-0.5-0.7-0.6-1.1c-0.1-0.4-0.2-0.9-0.2-1.3
			c0-0.4,0.1-0.9,0.2-1.3c0.1-0.4,0.3-0.8,0.6-1.1c0.3-0.3,0.6-0.6,1-0.8c0.4-0.2,0.8-0.3,1.4-0.3c0.5,0,1,0.1,1.4,0.3
			c0.4,0.2,0.7,0.5,1,0.8s0.5,0.7,0.6,1.1c0.1,0.4,0.2,0.8,0.2,1.3c0,0.4-0.1,0.9-0.2,1.3s-0.3,0.8-0.6,1.1s-0.6,0.6-1,0.8
			c-0.4,0.2-0.8,0.3-1.4,0.3S108.5,75.6,108.1,75.4z M108,74c0.2,0.2,0.4,0.4,0.7,0.6c0.3,0.2,0.6,0.2,0.9,0.2
			c0.3,0,0.6-0.1,0.9-0.2c0.3-0.2,0.5-0.4,0.6-0.6s0.3-0.5,0.4-0.8s0.1-0.6,0.1-1s0-0.6-0.1-1c-0.1-0.3-0.2-0.6-0.4-0.8
			c-0.2-0.2-0.4-0.4-0.6-0.6c-0.3-0.1-0.6-0.2-0.9-0.2s-0.6,0.1-0.9,0.2c-0.3,0.1-0.5,0.3-0.6,0.6c-0.2,0.2-0.3,0.5-0.4,0.8
			c-0.1,0.3-0.1,0.6-0.1,1c0,0.3,0,0.7,0.1,1S107.8,73.7,108,74z"/>
		<path class="st3" d="M114.6,75.5v-6.7h1l0.1,0.5c0.3-0.2,0.6-0.4,1-0.5c0.4-0.1,0.8-0.2,1.2-0.2c0.9,0,1.6,0.2,1.9,0.7
			s0.6,1.1,0.6,2v4.2h-1.1v-4.2c0-0.6-0.1-1-0.4-1.3s-0.7-0.5-1.2-0.5c-0.4,0-0.7,0.1-1,0.2c-0.3,0.2-0.6,0.3-0.9,0.5v5.2H114.6z"/>
		<path class="st3" d="M124,74c0,0.3,0.1,0.5,0.2,0.7s0.3,0.2,0.5,0.2c0.2,0,0.3,0,0.5-0.1c0.2-0.1,0.3-0.2,0.4-0.3l0.4,0.7
			c-0.2,0.2-0.4,0.3-0.6,0.4s-0.5,0.1-0.9,0.1c-0.5,0-0.9-0.1-1.2-0.4c-0.3-0.3-0.4-0.7-0.4-1.2v-4.4h-1.1v-0.9h1.1V67h1.1v1.8h1.8
			v0.9H124V74z"/>
		<path class="st3" d="M127.4,75.5v-9.3h1.1v3.2c0.3-0.2,0.6-0.4,0.9-0.5c0.3-0.1,0.7-0.2,1.2-0.2c0.9,0,1.5,0.2,1.9,0.7
			c0.4,0.5,0.6,1.1,0.6,2v4.2H132v-4.2c0-0.6-0.1-1.1-0.4-1.4s-0.7-0.4-1.2-0.4c-0.4,0-0.7,0.1-1,0.2c-0.3,0.2-0.6,0.3-0.9,0.5v5.2
			H127.4z"/>
		<path class="st3" d="M135.3,75.5v-9.3h1.1v9.3H135.3z"/>
		<path class="st3" d="M138.1,77.3c0.1,0,0.2,0.1,0.4,0.1c0.2,0,0.3,0,0.5,0c0.2,0,0.4-0.1,0.5-0.2c0.1-0.1,0.2-0.3,0.4-0.6l0.5-1.3
			l-2.6-6.5h1.2l2,5.1l2-5.1h1.2l-3.4,8.4c-0.2,0.4-0.4,0.7-0.7,0.8c-0.3,0.1-0.6,0.2-0.9,0.2c-0.2,0-0.4,0-0.7-0.1
			c-0.2-0.1-0.4-0.1-0.6-0.2L138.1,77.3z"/>
		<path class="st3" d="M0,93.5l3.6-9.3h0.7L8,93.5H6.7l-1.1-2.9H2.2l-1.1,2.9H0z M2.6,89.7h2.7l-1.4-3.6L2.6,89.7z"/>
		<path class="st3" d="M13.7,93.5L13.6,93c-0.2,0.3-0.5,0.4-0.8,0.5c-0.3,0.1-0.6,0.2-0.9,0.2c-0.5,0-0.9-0.1-1.3-0.3
			c-0.4-0.2-0.7-0.4-0.9-0.7c-0.3-0.3-0.4-0.7-0.6-1.1s-0.2-0.9-0.2-1.4c0-0.4,0.1-0.9,0.2-1.3c0.1-0.4,0.3-0.8,0.6-1.1
			c0.3-0.3,0.6-0.6,1-0.8c0.4-0.2,0.9-0.3,1.4-0.3c0.3,0,0.6,0,0.9,0.1c0.2,0.1,0.4,0.1,0.6,0.2v-2.7h1.1v9.3H13.7z M13.6,87.9
			c-0.1,0-0.1-0.1-0.2-0.1c-0.1,0-0.2-0.1-0.3-0.1c-0.1,0-0.2-0.1-0.4-0.1c-0.1,0-0.3,0-0.4,0c-0.4,0-0.7,0.1-1,0.2
			s-0.5,0.3-0.7,0.6c-0.2,0.2-0.3,0.5-0.4,0.8c-0.1,0.3-0.1,0.6-0.1,1c0,0.4,0,0.7,0.1,1c0.1,0.3,0.2,0.6,0.4,0.8
			c0.2,0.2,0.4,0.4,0.6,0.6c0.3,0.1,0.6,0.2,0.9,0.2c0.3,0,0.6-0.1,0.8-0.2c0.3-0.1,0.5-0.3,0.7-0.6V87.9z"/>
		<path class="st3" d="M17,93.5v-6.7h1l0.1,0.5c0.2-0.2,0.5-0.3,0.9-0.5c0.4-0.2,0.7-0.2,1.2-0.2c0.4,0,0.7,0.1,1,0.2
			c0.3,0.1,0.6,0.3,0.8,0.7c0.3-0.2,0.6-0.4,1-0.6c0.4-0.2,0.8-0.3,1.3-0.3c0.5,0,0.9,0.1,1.2,0.2c0.3,0.1,0.6,0.3,0.7,0.5
			c0.2,0.2,0.3,0.5,0.4,0.9c0.1,0.4,0.1,0.7,0.1,1.2v4h-1.1v-4.2c0-0.6-0.1-1-0.3-1.3c-0.2-0.3-0.6-0.5-1.2-0.5
			c-0.2,0-0.4,0-0.6,0.1c-0.2,0.1-0.4,0.1-0.5,0.2s-0.3,0.2-0.4,0.2s-0.2,0.2-0.3,0.2c0,0.2,0.1,0.3,0.1,0.5s0,0.4,0,0.7v4h-1.1
			v-4.2c0-0.2,0-0.5-0.1-0.7s-0.1-0.4-0.2-0.6c-0.1-0.2-0.2-0.3-0.4-0.4c-0.2-0.1-0.4-0.1-0.7-0.1c-0.3,0-0.7,0.1-1,0.2
			c-0.3,0.2-0.6,0.3-0.8,0.5v5.2H17z"/>
		<path class="st3" d="M29.4,85.8c-0.2,0-0.4-0.1-0.5-0.2c-0.1-0.2-0.2-0.3-0.2-0.6c0-0.2,0.1-0.4,0.2-0.6c0.1-0.2,0.3-0.2,0.5-0.2
			c0.2,0,0.4,0.1,0.5,0.2c0.1,0.2,0.2,0.3,0.2,0.6c0,0.2-0.1,0.4-0.2,0.6C29.8,85.7,29.6,85.8,29.4,85.8z M28.9,93.5v-6.7H30v6.7
			H28.9z"/>
		<path class="st3" d="M32.3,93.5v-6.7h1l0.1,0.5c0.3-0.2,0.6-0.4,1-0.5c0.4-0.1,0.8-0.2,1.2-0.2c0.9,0,1.6,0.2,1.9,0.7
			s0.6,1.1,0.6,2v4.2h-1.1v-4.2c0-0.6-0.1-1-0.4-1.3s-0.7-0.5-1.2-0.5c-0.4,0-0.7,0.1-1,0.2c-0.3,0.2-0.6,0.3-0.9,0.5v5.2H32.3z"/>
		<path class="st3" d="M40.7,85.8c-0.2,0-0.4-0.1-0.5-0.2C40.1,85.4,40,85.2,40,85c0-0.2,0.1-0.4,0.2-0.6c0.1-0.2,0.3-0.2,0.5-0.2
			c0.2,0,0.4,0.1,0.5,0.2c0.1,0.2,0.2,0.3,0.2,0.6c0,0.2-0.1,0.4-0.2,0.6C41.1,85.7,40.9,85.8,40.7,85.8z M40.2,93.5v-6.7h1.1v6.7
			H40.2z"/>
		<path class="st3" d="M43.9,91.9c0.2,0.3,0.4,0.5,0.6,0.7c0.2,0.2,0.6,0.2,1,0.2c0.9,0,1.4-0.3,1.4-1c0-0.2,0-0.4-0.1-0.5
			s-0.2-0.3-0.3-0.4c-0.1-0.1-0.3-0.2-0.5-0.3c-0.2-0.1-0.5-0.2-0.8-0.3c-0.3-0.1-0.6-0.2-0.9-0.4s-0.4-0.3-0.6-0.4
			c-0.1-0.1-0.3-0.3-0.3-0.5c-0.1-0.2-0.1-0.4-0.1-0.7c0-0.5,0.2-1,0.6-1.3c0.4-0.3,0.9-0.5,1.6-0.5c0.5,0,1,0.1,1.4,0.3
			c0.4,0.2,0.7,0.4,0.9,0.8l-0.8,0.6c-0.2-0.2-0.4-0.4-0.7-0.6s-0.5-0.2-0.9-0.2c-0.4,0-0.7,0.1-0.9,0.2c-0.2,0.2-0.3,0.3-0.3,0.6
			c0,0.1,0,0.3,0.1,0.4c0.1,0.1,0.1,0.2,0.3,0.3c0.1,0.1,0.3,0.2,0.5,0.3c0.2,0.1,0.5,0.2,0.8,0.3c0.6,0.2,1.1,0.5,1.4,0.8
			c0.3,0.3,0.5,0.8,0.5,1.3c0,0.3-0.1,0.6-0.2,0.8c-0.1,0.2-0.3,0.5-0.5,0.6c-0.2,0.2-0.5,0.3-0.7,0.4c-0.3,0.1-0.6,0.1-1,0.1
			c-0.7,0-1.2-0.1-1.6-0.4s-0.7-0.6-0.9-0.9L43.9,91.9z"/>
		<path class="st3" d="M51.2,92c0,0.3,0.1,0.5,0.2,0.7s0.3,0.2,0.5,0.2c0.2,0,0.3,0,0.5-0.1c0.2-0.1,0.3-0.2,0.4-0.3l0.4,0.7
			c-0.2,0.2-0.4,0.3-0.6,0.4s-0.5,0.1-0.9,0.1c-0.5,0-0.9-0.1-1.2-0.4c-0.3-0.3-0.4-0.7-0.4-1.2v-4.4H49v-0.9h1.1V85h1.1v1.8H53v0.9
			h-1.8V92z"/>
		<path class="st3" d="M54.6,93.5v-6.7h1l0.1,0.6c0.2-0.2,0.4-0.4,0.7-0.5s0.6-0.2,0.9-0.2c0.2,0,0.4,0,0.6,0c0.2,0,0.3,0.1,0.4,0.1
			l-0.2,1c-0.2-0.1-0.5-0.2-0.9-0.2c-0.3,0-0.5,0.1-0.8,0.2c-0.2,0.1-0.5,0.3-0.6,0.5v5.2H54.6z"/>
		<path class="st3" d="M63.1,93.5L63,93c-0.2,0.2-0.5,0.4-0.8,0.5c-0.3,0.1-0.6,0.2-1,0.2c-0.3,0-0.6,0-0.8-0.1s-0.5-0.2-0.7-0.4
			c-0.2-0.2-0.4-0.4-0.5-0.7c-0.1-0.3-0.2-0.6-0.2-0.9c0-0.5,0.1-0.9,0.4-1.2s0.6-0.6,1-0.7c0.4-0.2,0.8-0.3,1.3-0.4
			c0.5-0.1,0.9-0.1,1.4-0.1v-0.1c0-0.6-0.1-1-0.4-1.2c-0.2-0.2-0.6-0.4-1-0.4c-0.3,0-0.6,0.1-0.8,0.2s-0.5,0.3-0.7,0.5l-0.8-0.5
			c0.3-0.4,0.6-0.6,1-0.8c0.4-0.2,0.8-0.3,1.4-0.3c0.7,0,1.3,0.2,1.7,0.6c0.4,0.4,0.6,1,0.6,1.9v4.4H63.1z M63,90
			c-0.3,0-0.6,0-1,0.1c-0.3,0-0.7,0.1-1,0.2c-0.3,0.1-0.5,0.3-0.7,0.5C60.1,91,60,91.3,60,91.6c0,0.2,0,0.4,0.1,0.5
			c0.1,0.1,0.2,0.3,0.3,0.4s0.3,0.2,0.4,0.2c0.2,0,0.3,0.1,0.5,0.1c0.3,0,0.6-0.1,0.9-0.2c0.3-0.1,0.5-0.3,0.7-0.5V90z"/>
		<path class="st3" d="M67.8,92c0,0.3,0.1,0.5,0.2,0.7s0.3,0.2,0.5,0.2c0.2,0,0.3,0,0.5-0.1c0.2-0.1,0.3-0.2,0.4-0.3l0.4,0.7
			c-0.2,0.2-0.4,0.3-0.6,0.4s-0.5,0.1-0.9,0.1c-0.5,0-0.9-0.1-1.2-0.4c-0.3-0.3-0.4-0.7-0.4-1.2v-4.4h-1.1v-0.9h1.1V85h1.1v1.8h1.8
			v0.9h-1.8V92z"/>
		<path class="st3" d="M71.8,85.8c-0.2,0-0.4-0.1-0.5-0.2C71.1,85.4,71,85.2,71,85c0-0.2,0.1-0.4,0.2-0.6c0.1-0.2,0.3-0.2,0.5-0.2
			c0.2,0,0.4,0.1,0.5,0.2c0.1,0.2,0.2,0.3,0.2,0.6c0,0.2-0.1,0.4-0.2,0.6C72.1,85.7,72,85.8,71.8,85.8z M71.2,93.5v-6.7h1.1v6.7
			H71.2z"/>
		<path class="st3" d="M76,93.4c-0.4-0.2-0.7-0.5-1-0.8c-0.3-0.3-0.5-0.7-0.6-1.1c-0.1-0.4-0.2-0.9-0.2-1.3c0-0.4,0.1-0.9,0.2-1.3
			c0.1-0.4,0.3-0.8,0.6-1.1c0.3-0.3,0.6-0.6,1-0.8c0.4-0.2,0.8-0.3,1.4-0.3c0.5,0,1,0.1,1.4,0.3c0.4,0.2,0.7,0.5,1,0.8
			s0.5,0.7,0.6,1.1c0.1,0.4,0.2,0.8,0.2,1.3c0,0.4-0.1,0.9-0.2,1.3s-0.3,0.8-0.6,1.1s-0.6,0.6-1,0.8c-0.4,0.2-0.8,0.3-1.4,0.3
			S76.4,93.6,76,93.4z M75.8,92c0.2,0.2,0.4,0.4,0.7,0.6c0.3,0.2,0.6,0.2,0.9,0.2c0.3,0,0.6-0.1,0.9-0.2c0.3-0.2,0.5-0.4,0.6-0.6
			s0.3-0.5,0.4-0.8s0.1-0.6,0.1-1s0-0.6-0.1-1c-0.1-0.3-0.2-0.6-0.4-0.8c-0.2-0.2-0.4-0.4-0.6-0.6c-0.3-0.1-0.6-0.2-0.9-0.2
			s-0.6,0.1-0.9,0.2c-0.3,0.1-0.5,0.3-0.6,0.6c-0.2,0.2-0.3,0.5-0.4,0.8c-0.1,0.3-0.1,0.6-0.1,1c0,0.3,0,0.7,0.1,1
			S75.7,91.7,75.8,92z"/>
		<path class="st3" d="M82.4,93.5v-6.7h1l0.1,0.5c0.3-0.2,0.6-0.4,1-0.5c0.4-0.1,0.8-0.2,1.2-0.2c0.9,0,1.6,0.2,1.9,0.7
			s0.6,1.1,0.6,2v4.2H87v-4.2c0-0.6-0.1-1-0.4-1.3s-0.7-0.5-1.2-0.5c-0.4,0-0.7,0.1-1,0.2c-0.3,0.2-0.6,0.3-0.9,0.5v5.2H82.4z"/>
		<path class="st3" d="M100.1,91.8c-0.1,0.2-0.3,0.4-0.4,0.7c-0.2,0.2-0.4,0.4-0.6,0.6c-0.2,0.2-0.5,0.3-0.8,0.4
			c-0.3,0.1-0.7,0.2-1.1,0.2c-0.6,0-1.1-0.1-1.5-0.3c-0.5-0.2-0.9-0.5-1.2-0.9c-0.4-0.4-0.6-0.9-0.8-1.5c-0.2-0.6-0.3-1.3-0.3-2.2
			c0-0.9,0.1-1.6,0.3-2.2c0.2-0.6,0.5-1.1,0.8-1.5c0.3-0.4,0.7-0.7,1.2-0.9s0.9-0.3,1.4-0.3c0.7,0,1.3,0.2,1.9,0.5s1,0.8,1.2,1.4
			l-0.9,0.5c-0.1-0.2-0.2-0.3-0.3-0.5c-0.1-0.2-0.3-0.3-0.5-0.5c-0.2-0.1-0.4-0.2-0.6-0.3C97.5,85.1,97.3,85,97,85
			c-0.8,0-1.5,0.3-1.9,1c-0.5,0.7-0.7,1.6-0.7,2.9c0,0.6,0.1,1.1,0.2,1.6s0.3,0.9,0.6,1.2c0.2,0.3,0.5,0.6,0.9,0.7
			c0.3,0.2,0.7,0.2,1.1,0.2c0.3,0,0.5,0,0.7-0.1c0.2-0.1,0.4-0.2,0.6-0.3s0.3-0.3,0.5-0.4c0.1-0.2,0.3-0.4,0.4-0.5L100.1,91.8z"/>
		<path class="st3" d="M105.5,93.5l-0.1-0.6c-0.2,0.2-0.5,0.4-0.8,0.5c-0.3,0.1-0.6,0.2-1,0.2c-0.3,0-0.6,0-0.8-0.1
			s-0.5-0.2-0.7-0.4c-0.2-0.2-0.4-0.4-0.5-0.7c-0.1-0.3-0.2-0.6-0.2-0.9c0-0.5,0.1-0.9,0.4-1.2s0.6-0.6,1-0.7
			c0.4-0.2,0.8-0.3,1.3-0.4c0.5-0.1,0.9-0.1,1.4-0.1v-0.1c0-0.6-0.1-1-0.4-1.2c-0.2-0.2-0.6-0.4-1-0.4c-0.3,0-0.6,0.1-0.8,0.2
			s-0.5,0.3-0.7,0.5l-0.8-0.5c0.3-0.4,0.6-0.6,1-0.8c0.4-0.2,0.8-0.3,1.4-0.3c0.7,0,1.3,0.2,1.7,0.6c0.4,0.4,0.6,1,0.6,1.9v4.4
			H105.5z M105.4,90c-0.3,0-0.6,0-1,0.1c-0.3,0-0.7,0.1-1,0.2c-0.3,0.1-0.5,0.3-0.7,0.5c-0.2,0.2-0.3,0.5-0.3,0.8
			c0,0.2,0,0.4,0.1,0.5c0.1,0.1,0.2,0.3,0.3,0.4s0.3,0.2,0.4,0.2c0.2,0,0.3,0.1,0.5,0.1c0.3,0,0.6-0.1,0.9-0.2
			c0.3-0.1,0.5-0.3,0.7-0.5V90z"/>
		<path class="st3" d="M108.8,96.2v-9.3h1l0.1,0.5c0.3-0.2,0.6-0.4,0.9-0.5c0.3-0.1,0.7-0.2,1-0.2c0.5,0,0.9,0.1,1.3,0.3
			c0.3,0.2,0.6,0.4,0.8,0.8c0.2,0.3,0.4,0.7,0.5,1.1c0.1,0.4,0.1,0.8,0.1,1.3c0,0.5-0.1,1-0.3,1.5c-0.2,0.4-0.4,0.8-0.7,1.1
			c-0.3,0.3-0.6,0.6-1.1,0.7c-0.4,0.2-0.9,0.3-1.3,0.3c-0.5,0-1-0.1-1.3-0.2v2.7H108.8z M109.8,92.5c0.1,0.1,0.3,0.1,0.4,0.2
			c0.2,0.1,0.4,0.1,0.7,0.1c0.4,0,0.7-0.1,1-0.2c0.3-0.1,0.6-0.3,0.8-0.5s0.4-0.5,0.5-0.8c0.1-0.3,0.2-0.7,0.2-1.1
			c0-0.3,0-0.6-0.1-0.9c-0.1-0.3-0.2-0.6-0.3-0.8c-0.1-0.2-0.3-0.4-0.6-0.6c-0.2-0.2-0.6-0.2-0.9-0.2c-0.3,0-0.6,0.1-0.9,0.2
			c-0.3,0.1-0.5,0.3-0.8,0.5V92.5z"/>
		<path class="st3" d="M120.2,93.5l-0.1-0.6c-0.2,0.2-0.5,0.4-0.8,0.5c-0.3,0.1-0.6,0.2-1,0.2c-0.3,0-0.6,0-0.8-0.1
			s-0.5-0.2-0.7-0.4c-0.2-0.2-0.4-0.4-0.5-0.7c-0.1-0.3-0.2-0.6-0.2-0.9c0-0.5,0.1-0.9,0.4-1.2s0.6-0.6,1-0.7
			c0.4-0.2,0.8-0.3,1.3-0.4c0.5-0.1,0.9-0.1,1.4-0.1v-0.1c0-0.6-0.1-1-0.4-1.2c-0.2-0.2-0.6-0.4-1-0.4c-0.3,0-0.6,0.1-0.8,0.2
			s-0.5,0.3-0.7,0.5l-0.8-0.5c0.3-0.4,0.6-0.6,1-0.8c0.4-0.2,0.8-0.3,1.4-0.3c0.7,0,1.3,0.2,1.7,0.6c0.4,0.4,0.6,1,0.6,1.9v4.4
			H120.2z M120.1,90c-0.3,0-0.6,0-1,0.1c-0.3,0-0.7,0.1-1,0.2c-0.3,0.1-0.5,0.3-0.7,0.5c-0.2,0.2-0.3,0.5-0.3,0.8
			c0,0.2,0,0.4,0.1,0.5c0.1,0.1,0.2,0.3,0.3,0.4s0.3,0.2,0.4,0.2c0.2,0,0.3,0.1,0.5,0.1c0.3,0,0.6-0.1,0.9-0.2
			c0.3-0.1,0.5-0.3,0.7-0.5V90z"/>
		<path class="st3" d="M128.7,92.1c-0.3,0.5-0.6,0.9-1.1,1.2c-0.5,0.3-0.9,0.4-1.4,0.4c-0.4,0-0.8-0.1-1.2-0.2
			c-0.4-0.1-0.7-0.4-1-0.6c-0.3-0.3-0.5-0.7-0.7-1.1c-0.2-0.4-0.3-0.9-0.3-1.5c0-0.6,0.1-1.2,0.3-1.6c0.2-0.4,0.4-0.8,0.7-1.1
			c0.3-0.3,0.6-0.5,1-0.6s0.7-0.2,1.1-0.2c0.4,0,0.7,0.1,1,0.2c0.3,0.1,0.5,0.3,0.7,0.4c0.2,0.2,0.4,0.3,0.5,0.5
			c0.1,0.2,0.2,0.4,0.3,0.5l-0.8,0.5c-0.2-0.4-0.4-0.8-0.7-1c-0.3-0.2-0.6-0.3-0.9-0.3c-0.3,0-0.5,0.1-0.7,0.2
			c-0.2,0.1-0.4,0.3-0.6,0.5c-0.2,0.2-0.3,0.5-0.4,0.8s-0.2,0.7-0.2,1.1c0,0.4,0.1,0.8,0.2,1.1s0.3,0.6,0.5,0.8s0.4,0.4,0.7,0.5
			c0.3,0.1,0.5,0.2,0.8,0.2c0.3,0,0.6-0.1,0.9-0.3c0.3-0.2,0.6-0.5,0.7-0.9L128.7,92.1z"/>
		<path class="st3" d="M130.9,85.8c-0.2,0-0.4-0.1-0.5-0.2c-0.1-0.2-0.2-0.3-0.2-0.6c0-0.2,0.1-0.4,0.2-0.6c0.1-0.2,0.3-0.2,0.5-0.2
			c0.2,0,0.4,0.1,0.5,0.2c0.1,0.2,0.2,0.3,0.2,0.6c0,0.2-0.1,0.4-0.2,0.6C131.3,85.7,131.1,85.8,130.9,85.8z M130.4,93.5v-6.7h1.1
			v6.7H130.4z"/>
		<path class="st3" d="M135.2,92c0,0.3,0.1,0.5,0.2,0.7s0.3,0.2,0.5,0.2c0.2,0,0.3,0,0.5-0.1c0.2-0.1,0.3-0.2,0.4-0.3l0.4,0.7
			c-0.2,0.2-0.4,0.3-0.6,0.4s-0.5,0.1-0.9,0.1c-0.5,0-0.9-0.1-1.2-0.4c-0.3-0.3-0.4-0.7-0.4-1.2v-4.4H133v-0.9h1.1V85h1.1v1.8h1.8
			v0.9h-1.8V92z"/>
		<path class="st3" d="M138.1,95.3c0.1,0,0.2,0.1,0.4,0.1c0.2,0,0.3,0,0.5,0c0.2,0,0.4-0.1,0.5-0.2c0.1-0.1,0.2-0.3,0.4-0.6l0.5-1.3
			l-2.6-6.5h1.2l2,5.1l2-5.1h1.2l-3.4,8.4c-0.2,0.4-0.4,0.7-0.7,0.8c-0.3,0.1-0.6,0.2-0.9,0.2c-0.2,0-0.4,0-0.7-0.1
			c-0.2-0.1-0.4-0.1-0.6-0.2L138.1,95.3z"/>
		<path class="st3" d="M96.1,126.5v-9.3h1.3l2.7,7.2l2.8-7.2h1.3v9.3h-1.1v-7.1l-2.9,7.3h-0.2l-2.8-7.3v7.1H96.1z"/>
		<path class="st3" d="M108.1,126.4c-0.4-0.2-0.7-0.5-1-0.8c-0.3-0.3-0.5-0.7-0.6-1.1c-0.1-0.4-0.2-0.9-0.2-1.3
			c0-0.4,0.1-0.9,0.2-1.3c0.1-0.4,0.3-0.8,0.6-1.1c0.3-0.3,0.6-0.6,1-0.8c0.4-0.2,0.8-0.3,1.4-0.3c0.5,0,1,0.1,1.4,0.3
			c0.4,0.2,0.7,0.5,1,0.8c0.3,0.3,0.5,0.7,0.6,1.1s0.2,0.8,0.2,1.3s-0.1,0.9-0.2,1.3s-0.3,0.8-0.6,1.1c-0.3,0.3-0.6,0.6-1,0.8
			c-0.4,0.2-0.8,0.3-1.4,0.3S108.5,126.6,108.1,126.4z M108,125c0.2,0.2,0.4,0.4,0.7,0.6c0.3,0.2,0.6,0.2,0.9,0.2
			c0.3,0,0.6-0.1,0.9-0.2c0.3-0.2,0.5-0.4,0.6-0.6s0.3-0.5,0.4-0.8s0.1-0.6,0.1-1c0-0.3,0-0.6-0.1-1c-0.1-0.3-0.2-0.6-0.4-0.8
			s-0.4-0.4-0.6-0.6c-0.3-0.1-0.6-0.2-0.9-0.2s-0.6,0.1-0.9,0.2s-0.5,0.3-0.6,0.6s-0.3,0.5-0.4,0.8c-0.1,0.3-0.1,0.6-0.1,1
			c0,0.3,0,0.7,0.1,1S107.8,124.7,108,125z"/>
		<path class="st3" d="M114.6,126.5v-6.7h1l0.1,0.5c0.3-0.2,0.6-0.4,1-0.5c0.4-0.1,0.8-0.2,1.2-0.2c0.9,0,1.6,0.2,1.9,0.7
			c0.4,0.5,0.6,1.1,0.6,2v4.2h-1.1v-4.2c0-0.6-0.1-1-0.4-1.3s-0.7-0.5-1.2-0.5c-0.4,0-0.7,0.1-1,0.2c-0.3,0.2-0.6,0.3-0.9,0.5v5.2
			H114.6z"/>
		<path class="st3" d="M124,125c0,0.3,0.1,0.5,0.2,0.7s0.3,0.2,0.5,0.2c0.2,0,0.3,0,0.5-0.1c0.2-0.1,0.3-0.2,0.4-0.3l0.4,0.7
			c-0.2,0.2-0.4,0.3-0.6,0.4c-0.2,0.1-0.5,0.1-0.9,0.1c-0.5,0-0.9-0.1-1.2-0.4c-0.3-0.3-0.4-0.7-0.4-1.2v-4.4h-1.1v-0.9h1.1V118h1.1
			v1.8h1.8v0.9H124V125z"/>
		<path class="st3" d="M127.4,126.5v-9.3h1.1v3.2c0.3-0.2,0.6-0.4,0.9-0.5c0.3-0.1,0.7-0.2,1.2-0.2c0.9,0,1.5,0.2,1.9,0.7
			c0.4,0.5,0.6,1.1,0.6,2v4.2H132v-4.2c0-0.6-0.1-1.1-0.4-1.4s-0.7-0.4-1.2-0.4c-0.4,0-0.7,0.1-1,0.2c-0.3,0.2-0.6,0.3-0.9,0.5v5.2
			H127.4z"/>
		<path class="st3" d="M135.3,126.5v-9.3h1.1v9.3H135.3z"/>
		<path class="st3" d="M138.1,128.3c0.1,0,0.2,0.1,0.4,0.1c0.2,0,0.3,0,0.5,0c0.2,0,0.4-0.1,0.5-0.2c0.1-0.1,0.2-0.3,0.4-0.6
			l0.5-1.3l-2.6-6.5h1.2l2,5.1l2-5.1h1.2l-3.4,8.4c-0.2,0.4-0.4,0.7-0.7,0.8c-0.3,0.1-0.6,0.2-0.9,0.2c-0.2,0-0.4,0-0.7-0.1
			c-0.2-0.1-0.4-0.1-0.6-0.2L138.1,128.3z"/>
		<path class="st3" d="M16.9,144.5l3.6-9.3h0.7l3.7,9.3h-1.2l-1.1-2.9h-3.4l-1.1,2.9H16.9z M19.5,140.7h2.7l-1.4-3.6L19.5,140.7z"/>
		<path class="st3" d="M26.5,142.9c0.2,0.3,0.4,0.5,0.6,0.7c0.2,0.2,0.6,0.2,1,0.2c0.9,0,1.4-0.3,1.4-1c0-0.2,0-0.4-0.1-0.5
			c-0.1-0.1-0.2-0.3-0.3-0.4c-0.1-0.1-0.3-0.2-0.5-0.3c-0.2-0.1-0.5-0.2-0.8-0.3c-0.3-0.1-0.6-0.2-0.9-0.4s-0.4-0.3-0.6-0.4
			c-0.1-0.1-0.3-0.3-0.3-0.5c-0.1-0.2-0.1-0.4-0.1-0.7c0-0.5,0.2-1,0.6-1.3c0.4-0.3,0.9-0.5,1.6-0.5c0.5,0,1,0.1,1.4,0.3
			c0.4,0.2,0.7,0.4,0.9,0.8l-0.8,0.6c-0.2-0.2-0.4-0.4-0.7-0.6s-0.5-0.2-0.9-0.2c-0.4,0-0.7,0.1-0.9,0.2c-0.2,0.2-0.3,0.3-0.3,0.6
			c0,0.1,0,0.3,0.1,0.4c0.1,0.1,0.1,0.2,0.3,0.3s0.3,0.2,0.5,0.3c0.2,0.1,0.5,0.2,0.8,0.3c0.6,0.2,1.1,0.5,1.4,0.8
			c0.3,0.3,0.5,0.8,0.5,1.3c0,0.3-0.1,0.6-0.2,0.8c-0.1,0.2-0.3,0.5-0.5,0.6c-0.2,0.2-0.5,0.3-0.7,0.4c-0.3,0.1-0.6,0.1-1,0.1
			c-0.7,0-1.2-0.1-1.6-0.4c-0.4-0.2-0.7-0.6-0.9-0.9L26.5,142.9z"/>
		<path class="st3" d="M32.6,142.9c0.2,0.3,0.4,0.5,0.6,0.7c0.2,0.2,0.6,0.2,1,0.2c0.9,0,1.4-0.3,1.4-1c0-0.2,0-0.4-0.1-0.5
			c-0.1-0.1-0.2-0.3-0.3-0.4c-0.1-0.1-0.3-0.2-0.5-0.3c-0.2-0.1-0.5-0.2-0.8-0.3c-0.3-0.1-0.6-0.2-0.9-0.4s-0.4-0.3-0.6-0.4
			c-0.1-0.1-0.3-0.3-0.3-0.5c-0.1-0.2-0.1-0.4-0.1-0.7c0-0.5,0.2-1,0.6-1.3c0.4-0.3,0.9-0.5,1.6-0.5c0.5,0,1,0.1,1.4,0.3
			c0.4,0.2,0.7,0.4,0.9,0.8l-0.8,0.6c-0.2-0.2-0.4-0.4-0.7-0.6s-0.5-0.2-0.9-0.2c-0.4,0-0.7,0.1-0.9,0.2c-0.2,0.2-0.3,0.3-0.3,0.6
			c0,0.1,0,0.3,0.1,0.4c0.1,0.1,0.1,0.2,0.3,0.3s0.3,0.2,0.5,0.3c0.2,0.1,0.5,0.2,0.8,0.3c0.6,0.2,1.1,0.5,1.4,0.8
			c0.3,0.3,0.5,0.8,0.5,1.3c0,0.3-0.1,0.6-0.2,0.8c-0.1,0.2-0.3,0.5-0.5,0.6c-0.2,0.2-0.5,0.3-0.7,0.4c-0.3,0.1-0.6,0.1-1,0.1
			c-0.7,0-1.2-0.1-1.6-0.4c-0.4-0.2-0.7-0.6-0.9-0.9L32.6,142.9z"/>
		<path class="st3" d="M39.1,141.1c0,0.8,0.2,1.5,0.6,2s0.9,0.7,1.7,0.7c0.4,0,0.8-0.1,1.1-0.3s0.5-0.5,0.7-0.8l0.7,0.5
			c-0.2,0.4-0.6,0.8-0.9,1c-0.4,0.3-0.9,0.4-1.6,0.4c-0.5,0-1-0.1-1.4-0.2c-0.4-0.2-0.7-0.4-1-0.7c-0.3-0.3-0.5-0.7-0.7-1.1
			s-0.2-0.9-0.2-1.5c0-0.5,0.1-1,0.2-1.4c0.1-0.4,0.3-0.8,0.6-1.1c0.3-0.3,0.6-0.5,0.9-0.7c0.4-0.2,0.8-0.2,1.2-0.2
			c0.5,0,0.9,0.1,1.3,0.3s0.7,0.4,0.9,0.7s0.4,0.7,0.5,1.1s0.2,0.9,0.2,1.4H39.1z M42.8,140.3c0-0.3-0.1-0.5-0.2-0.8
			c-0.1-0.2-0.2-0.4-0.4-0.5c-0.2-0.1-0.3-0.3-0.5-0.3c-0.2-0.1-0.4-0.1-0.6-0.1c-0.4,0-0.8,0.1-1.2,0.4c-0.3,0.3-0.5,0.7-0.7,1.3
			H42.8z"/>
		<path class="st3" d="M46.2,142.9c0.2,0.3,0.4,0.5,0.6,0.7c0.2,0.2,0.6,0.2,1,0.2c0.9,0,1.4-0.3,1.4-1c0-0.2,0-0.4-0.1-0.5
			c-0.1-0.1-0.2-0.3-0.3-0.4c-0.1-0.1-0.3-0.2-0.5-0.3c-0.2-0.1-0.5-0.2-0.8-0.3c-0.3-0.1-0.6-0.2-0.9-0.4s-0.4-0.3-0.6-0.4
			c-0.1-0.1-0.3-0.3-0.3-0.5c-0.1-0.2-0.1-0.4-0.1-0.7c0-0.5,0.2-1,0.6-1.3c0.4-0.3,0.9-0.5,1.6-0.5c0.5,0,1,0.1,1.4,0.3
			c0.4,0.2,0.7,0.4,0.9,0.8l-0.8,0.6c-0.2-0.2-0.4-0.4-0.7-0.6s-0.5-0.2-0.9-0.2c-0.4,0-0.7,0.1-0.9,0.2c-0.2,0.2-0.3,0.3-0.3,0.6
			c0,0.1,0,0.3,0.1,0.4c0.1,0.1,0.1,0.2,0.3,0.3s0.3,0.2,0.5,0.3c0.2,0.1,0.5,0.2,0.8,0.3c0.6,0.2,1.1,0.5,1.4,0.8
			c0.3,0.3,0.5,0.8,0.5,1.3c0,0.3-0.1,0.6-0.2,0.8c-0.1,0.2-0.3,0.5-0.5,0.6c-0.2,0.2-0.5,0.3-0.7,0.4c-0.3,0.1-0.6,0.1-1,0.1
			c-0.7,0-1.2-0.1-1.6-0.4c-0.4-0.2-0.7-0.6-0.9-0.9L46.2,142.9z"/>
		<path class="st3" d="M52.3,142.9c0.2,0.3,0.4,0.5,0.6,0.7c0.2,0.2,0.6,0.2,1,0.2c0.9,0,1.4-0.3,1.4-1c0-0.2,0-0.4-0.1-0.5
			c-0.1-0.1-0.2-0.3-0.3-0.4c-0.1-0.1-0.3-0.2-0.5-0.3c-0.2-0.1-0.5-0.2-0.8-0.3c-0.3-0.1-0.6-0.2-0.9-0.4s-0.4-0.3-0.6-0.4
			c-0.1-0.1-0.3-0.3-0.3-0.5c-0.1-0.2-0.1-0.4-0.1-0.7c0-0.5,0.2-1,0.6-1.3c0.4-0.3,0.9-0.5,1.6-0.5c0.5,0,1,0.1,1.4,0.3
			c0.4,0.2,0.7,0.4,0.9,0.8l-0.8,0.6c-0.2-0.2-0.4-0.4-0.7-0.6s-0.5-0.2-0.9-0.2c-0.4,0-0.7,0.1-0.9,0.2c-0.2,0.2-0.3,0.3-0.3,0.6
			c0,0.1,0,0.3,0.1,0.4c0.1,0.1,0.1,0.2,0.3,0.3s0.3,0.2,0.5,0.3c0.2,0.1,0.5,0.2,0.8,0.3c0.6,0.2,1.1,0.5,1.4,0.8
			c0.3,0.3,0.5,0.8,0.5,1.3c0,0.3-0.1,0.6-0.2,0.8c-0.1,0.2-0.3,0.5-0.5,0.6c-0.2,0.2-0.5,0.3-0.7,0.4c-0.3,0.1-0.6,0.1-1,0.1
			c-0.7,0-1.2-0.1-1.6-0.4c-0.4-0.2-0.7-0.6-0.9-0.9L52.3,142.9z"/>
		<path class="st3" d="M58.1,144.5v-6.7h1l0.1,0.5c0.2-0.2,0.5-0.3,0.9-0.5c0.4-0.2,0.7-0.2,1.2-0.2c0.4,0,0.7,0.1,1,0.2
			c0.3,0.1,0.6,0.3,0.8,0.7c0.3-0.2,0.6-0.4,1-0.6c0.4-0.2,0.8-0.3,1.3-0.3c0.5,0,0.9,0.1,1.2,0.2c0.3,0.1,0.6,0.3,0.7,0.5
			c0.2,0.2,0.3,0.5,0.4,0.9c0.1,0.3,0.1,0.7,0.1,1.2v4h-1.1v-4.2c0-0.6-0.1-1-0.3-1.3s-0.6-0.5-1.2-0.5c-0.2,0-0.4,0-0.6,0.1
			c-0.2,0.1-0.4,0.1-0.5,0.2c-0.2,0.1-0.3,0.2-0.4,0.2s-0.2,0.2-0.3,0.2c0,0.2,0.1,0.3,0.1,0.5s0,0.4,0,0.7v4h-1.1v-4.2
			c0-0.2,0-0.5-0.1-0.7s-0.1-0.4-0.2-0.6s-0.2-0.3-0.4-0.4c-0.2-0.1-0.4-0.1-0.7-0.1c-0.3,0-0.7,0.1-1,0.2c-0.3,0.2-0.6,0.3-0.8,0.5
			v5.2H58.1z"/>
		<path class="st3" d="M70.8,141.1c0,0.8,0.2,1.5,0.6,2s0.9,0.7,1.7,0.7c0.4,0,0.8-0.1,1.1-0.3s0.5-0.5,0.7-0.8l0.7,0.5
			c-0.2,0.4-0.6,0.8-0.9,1c-0.4,0.3-0.9,0.4-1.6,0.4c-0.5,0-1-0.1-1.4-0.2c-0.4-0.2-0.7-0.4-1-0.7c-0.3-0.3-0.5-0.7-0.7-1.1
			s-0.2-0.9-0.2-1.5c0-0.5,0.1-1,0.2-1.4c0.1-0.4,0.3-0.8,0.6-1.1c0.3-0.3,0.6-0.5,0.9-0.7c0.4-0.2,0.8-0.2,1.2-0.2
			c0.5,0,0.9,0.1,1.3,0.3s0.7,0.4,0.9,0.7s0.4,0.7,0.5,1.1s0.2,0.9,0.2,1.4H70.8z M74.4,140.3c0-0.3-0.1-0.5-0.2-0.8
			c-0.1-0.2-0.2-0.4-0.4-0.5c-0.2-0.1-0.3-0.3-0.5-0.3c-0.2-0.1-0.4-0.1-0.6-0.1c-0.4,0-0.8,0.1-1.2,0.4c-0.3,0.3-0.5,0.7-0.7,1.3
			H74.4z"/>
		<path class="st3" d="M77.5,144.5v-6.7h1l0.1,0.5c0.3-0.2,0.6-0.4,1-0.5c0.4-0.1,0.8-0.2,1.2-0.2c0.9,0,1.6,0.2,1.9,0.7
			c0.4,0.5,0.6,1.1,0.6,2v4.2h-1.1v-4.2c0-0.6-0.1-1-0.4-1.3s-0.7-0.5-1.2-0.5c-0.4,0-0.7,0.1-1,0.2c-0.3,0.2-0.6,0.3-0.9,0.5v5.2
			H77.5z"/>
		<path class="st3" d="M86.9,143c0,0.3,0.1,0.5,0.2,0.7s0.3,0.2,0.5,0.2c0.2,0,0.3,0,0.5-0.1c0.2-0.1,0.3-0.2,0.4-0.3l0.4,0.7
			c-0.2,0.2-0.4,0.3-0.6,0.4c-0.2,0.1-0.5,0.1-0.9,0.1c-0.5,0-0.9-0.1-1.2-0.4c-0.3-0.3-0.4-0.7-0.4-1.2v-4.4h-1.1v-0.9h1.1V136H87
			v1.8h1.8v0.9h-1.8V143z"/>
		<path class="st3" d="M100.1,142.8c-0.1,0.2-0.3,0.4-0.4,0.7c-0.2,0.2-0.4,0.4-0.6,0.6c-0.2,0.2-0.5,0.3-0.8,0.4
			c-0.3,0.1-0.7,0.2-1.1,0.2c-0.6,0-1.1-0.1-1.5-0.3s-0.9-0.5-1.2-0.9c-0.4-0.4-0.6-0.9-0.8-1.5c-0.2-0.6-0.3-1.3-0.3-2.2
			c0-0.9,0.1-1.6,0.3-2.2c0.2-0.6,0.5-1.1,0.8-1.5c0.3-0.4,0.7-0.7,1.2-0.9c0.4-0.2,0.9-0.3,1.4-0.3c0.7,0,1.3,0.2,1.9,0.5
			c0.6,0.3,1,0.8,1.2,1.4l-0.9,0.5c-0.1-0.2-0.2-0.3-0.3-0.5c-0.1-0.2-0.3-0.3-0.5-0.5c-0.2-0.1-0.4-0.2-0.6-0.3
			c-0.2-0.1-0.5-0.1-0.7-0.1c-0.8,0-1.5,0.3-1.9,1c-0.5,0.7-0.7,1.6-0.7,2.9c0,0.6,0.1,1.1,0.2,1.6c0.1,0.5,0.3,0.9,0.6,1.2
			c0.2,0.3,0.5,0.6,0.9,0.7c0.3,0.2,0.7,0.2,1.1,0.2c0.3,0,0.5,0,0.7-0.1c0.2-0.1,0.4-0.2,0.6-0.3s0.3-0.3,0.5-0.4
			c0.1-0.2,0.3-0.4,0.4-0.5L100.1,142.8z"/>
		<path class="st3" d="M105.5,144.5l-0.1-0.6c-0.2,0.2-0.5,0.4-0.8,0.5c-0.3,0.1-0.6,0.2-1,0.2c-0.3,0-0.6,0-0.8-0.1
			c-0.3-0.1-0.5-0.2-0.7-0.4c-0.2-0.2-0.4-0.4-0.5-0.7c-0.1-0.3-0.2-0.6-0.2-0.9c0-0.5,0.1-0.9,0.4-1.2c0.3-0.3,0.6-0.6,1-0.7
			c0.4-0.2,0.8-0.3,1.3-0.4c0.5-0.1,0.9-0.1,1.4-0.1v-0.1c0-0.6-0.1-1-0.4-1.2c-0.2-0.2-0.6-0.4-1-0.4c-0.3,0-0.6,0.1-0.8,0.2
			c-0.3,0.1-0.5,0.3-0.7,0.5l-0.8-0.5c0.3-0.4,0.6-0.6,1-0.8c0.4-0.2,0.8-0.3,1.4-0.3c0.7,0,1.3,0.2,1.7,0.6c0.4,0.4,0.6,1,0.6,1.9
			v4.4H105.5z M105.4,141c-0.3,0-0.6,0-1,0.1c-0.3,0-0.7,0.1-1,0.2c-0.3,0.1-0.5,0.3-0.7,0.5s-0.3,0.5-0.3,0.8c0,0.2,0,0.4,0.1,0.5
			c0.1,0.1,0.2,0.3,0.3,0.4c0.1,0.1,0.3,0.2,0.4,0.2c0.2,0,0.3,0.1,0.5,0.1c0.3,0,0.6-0.1,0.9-0.2s0.5-0.3,0.7-0.5V141z"/>
		<path class="st3" d="M108.8,147.2v-9.3h1l0.1,0.5c0.3-0.2,0.6-0.4,0.9-0.5c0.3-0.1,0.7-0.2,1-0.2c0.5,0,0.9,0.1,1.3,0.3
			c0.3,0.2,0.6,0.4,0.8,0.8c0.2,0.3,0.4,0.7,0.5,1.1c0.1,0.4,0.1,0.8,0.1,1.3c0,0.5-0.1,1-0.3,1.5c-0.2,0.4-0.4,0.8-0.7,1.1
			c-0.3,0.3-0.6,0.6-1.1,0.7c-0.4,0.2-0.9,0.3-1.3,0.3c-0.5,0-1-0.1-1.3-0.2v2.7H108.8z M109.8,143.5c0.1,0.1,0.3,0.1,0.4,0.2
			s0.4,0.1,0.7,0.1c0.4,0,0.7-0.1,1-0.2c0.3-0.1,0.6-0.3,0.8-0.5c0.2-0.2,0.4-0.5,0.5-0.8c0.1-0.3,0.2-0.7,0.2-1.1
			c0-0.3,0-0.6-0.1-0.9s-0.2-0.6-0.3-0.8c-0.1-0.2-0.3-0.4-0.6-0.6c-0.2-0.2-0.6-0.2-0.9-0.2c-0.3,0-0.6,0.1-0.9,0.2
			c-0.3,0.1-0.5,0.3-0.8,0.5V143.5z"/>
		<path class="st3" d="M120.2,144.5l-0.1-0.6c-0.2,0.2-0.5,0.4-0.8,0.5c-0.3,0.1-0.6,0.2-1,0.2c-0.3,0-0.6,0-0.8-0.1
			c-0.3-0.1-0.5-0.2-0.7-0.4c-0.2-0.2-0.4-0.4-0.5-0.7c-0.1-0.3-0.2-0.6-0.2-0.9c0-0.5,0.1-0.9,0.4-1.2c0.3-0.3,0.6-0.6,1-0.7
			c0.4-0.2,0.8-0.3,1.3-0.4c0.5-0.1,0.9-0.1,1.4-0.1v-0.1c0-0.6-0.1-1-0.4-1.2c-0.2-0.2-0.6-0.4-1-0.4c-0.3,0-0.6,0.1-0.8,0.2
			c-0.3,0.1-0.5,0.3-0.7,0.5l-0.8-0.5c0.3-0.4,0.6-0.6,1-0.8c0.4-0.2,0.8-0.3,1.4-0.3c0.7,0,1.3,0.2,1.7,0.6c0.4,0.4,0.6,1,0.6,1.9
			v4.4H120.2z M120.1,141c-0.3,0-0.6,0-1,0.1c-0.3,0-0.7,0.1-1,0.2c-0.3,0.1-0.5,0.3-0.7,0.5s-0.3,0.5-0.3,0.8c0,0.2,0,0.4,0.1,0.5
			c0.1,0.1,0.2,0.3,0.3,0.4c0.1,0.1,0.3,0.2,0.4,0.2c0.2,0,0.3,0.1,0.5,0.1c0.3,0,0.6-0.1,0.9-0.2s0.5-0.3,0.7-0.5V141z"/>
		<path class="st3" d="M128.7,143.1c-0.3,0.5-0.6,0.9-1.1,1.2c-0.5,0.3-0.9,0.4-1.4,0.4c-0.4,0-0.8-0.1-1.2-0.2s-0.7-0.4-1-0.6
			c-0.3-0.3-0.5-0.7-0.7-1.1c-0.2-0.4-0.3-0.9-0.3-1.5c0-0.6,0.1-1.2,0.3-1.6c0.2-0.4,0.4-0.8,0.7-1.1c0.3-0.3,0.6-0.5,1-0.6
			s0.7-0.2,1.1-0.2c0.4,0,0.7,0.1,1,0.2c0.3,0.1,0.5,0.3,0.7,0.4c0.2,0.2,0.4,0.3,0.5,0.5s0.2,0.4,0.3,0.5l-0.8,0.5
			c-0.2-0.4-0.4-0.8-0.7-1s-0.6-0.3-0.9-0.3c-0.3,0-0.5,0.1-0.7,0.2c-0.2,0.1-0.4,0.3-0.6,0.5c-0.2,0.2-0.3,0.5-0.4,0.8
			c-0.1,0.3-0.2,0.7-0.2,1.1s0.1,0.8,0.2,1.1c0.1,0.3,0.3,0.6,0.5,0.8c0.2,0.2,0.4,0.4,0.7,0.5c0.3,0.1,0.5,0.2,0.8,0.2
			c0.3,0,0.6-0.1,0.9-0.3c0.3-0.2,0.6-0.5,0.7-0.9L128.7,143.1z"/>
		<path class="st3" d="M130.9,136.8c-0.2,0-0.4-0.1-0.5-0.2c-0.1-0.2-0.2-0.3-0.2-0.6c0-0.2,0.1-0.4,0.2-0.6
			c0.1-0.2,0.3-0.2,0.5-0.2c0.2,0,0.4,0.1,0.5,0.2c0.1,0.2,0.2,0.3,0.2,0.6c0,0.2-0.1,0.4-0.2,0.6
			C131.3,136.7,131.1,136.8,130.9,136.8z M130.4,144.5v-6.7h1.1v6.7H130.4z"/>
		<path class="st3" d="M135.3,143c0,0.3,0.1,0.5,0.2,0.7s0.3,0.2,0.5,0.2c0.2,0,0.3,0,0.5-0.1c0.2-0.1,0.3-0.2,0.4-0.3l0.4,0.7
			c-0.2,0.2-0.4,0.3-0.6,0.4c-0.2,0.1-0.5,0.1-0.9,0.1c-0.5,0-0.9-0.1-1.2-0.4c-0.3-0.3-0.4-0.7-0.4-1.2v-4.4H133v-0.9h1.1V136h1.1
			v1.8h1.8v0.9h-1.8V143z"/>
		<path class="st3" d="M138.1,146.3c0.1,0,0.2,0.1,0.4,0.1c0.2,0,0.3,0,0.5,0c0.2,0,0.4-0.1,0.5-0.2c0.1-0.1,0.2-0.3,0.4-0.6
			l0.5-1.3l-2.6-6.5h1.2l2,5.1l2-5.1h1.2l-3.4,8.4c-0.2,0.4-0.4,0.7-0.7,0.8c-0.3,0.1-0.6,0.2-0.9,0.2c-0.2,0-0.4,0-0.7-0.1
			c-0.2-0.1-0.4-0.1-0.6-0.2L138.1,146.3z"/>
		<path class="st3" d="M96.1,177.5v-9.3h1.3l2.7,7.2l2.8-7.2h1.3v9.3h-1.1v-7.1l-2.9,7.3h-0.2l-2.8-7.3v7.1H96.1z"/>
		<path class="st3" d="M108.1,177.4c-0.4-0.2-0.7-0.5-1-0.8c-0.3-0.3-0.5-0.7-0.6-1.1c-0.1-0.4-0.2-0.9-0.2-1.3
			c0-0.4,0.1-0.9,0.2-1.3c0.1-0.4,0.3-0.8,0.6-1.1c0.3-0.3,0.6-0.6,1-0.8c0.4-0.2,0.8-0.3,1.4-0.3c0.5,0,1,0.1,1.4,0.3
			c0.4,0.2,0.7,0.5,1,0.8c0.3,0.3,0.5,0.7,0.6,1.1s0.2,0.8,0.2,1.3s-0.1,0.9-0.2,1.3s-0.3,0.8-0.6,1.1c-0.3,0.3-0.6,0.6-1,0.8
			c-0.4,0.2-0.8,0.3-1.4,0.3S108.5,177.6,108.1,177.4z M108,176c0.2,0.2,0.4,0.4,0.7,0.6c0.3,0.2,0.6,0.2,0.9,0.2
			c0.3,0,0.6-0.1,0.9-0.2c0.3-0.2,0.5-0.4,0.6-0.6s0.3-0.5,0.4-0.8s0.1-0.6,0.1-1c0-0.3,0-0.6-0.1-1c-0.1-0.3-0.2-0.6-0.4-0.8
			s-0.4-0.4-0.6-0.6c-0.3-0.1-0.6-0.2-0.9-0.2s-0.6,0.1-0.9,0.2s-0.5,0.3-0.6,0.6s-0.3,0.5-0.4,0.8c-0.1,0.3-0.1,0.6-0.1,1
			c0,0.3,0,0.7,0.1,1S107.8,175.7,108,176z"/>
		<path class="st3" d="M114.6,177.5v-6.7h1l0.1,0.5c0.3-0.2,0.6-0.4,1-0.5c0.4-0.1,0.8-0.2,1.2-0.2c0.9,0,1.6,0.2,1.9,0.7
			c0.4,0.5,0.6,1.1,0.6,2v4.2h-1.1v-4.2c0-0.6-0.1-1-0.4-1.3s-0.7-0.5-1.2-0.5c-0.4,0-0.7,0.1-1,0.2c-0.3,0.2-0.6,0.3-0.9,0.5v5.2
			H114.6z"/>
		<path class="st3" d="M124,176c0,0.3,0.1,0.5,0.2,0.7s0.3,0.2,0.5,0.2c0.2,0,0.3,0,0.5-0.1c0.2-0.1,0.3-0.2,0.4-0.3l0.4,0.7
			c-0.2,0.2-0.4,0.3-0.6,0.4c-0.2,0.1-0.5,0.1-0.9,0.1c-0.5,0-0.9-0.1-1.2-0.4c-0.3-0.3-0.4-0.7-0.4-1.2v-4.4h-1.1v-0.9h1.1V169h1.1
			v1.8h1.8v0.9H124V176z"/>
		<path class="st3" d="M127.4,177.5v-9.3h1.1v3.2c0.3-0.2,0.6-0.4,0.9-0.5c0.3-0.1,0.7-0.2,1.2-0.2c0.9,0,1.5,0.2,1.9,0.7
			c0.4,0.5,0.6,1.1,0.6,2v4.2H132v-4.2c0-0.6-0.1-1.1-0.4-1.4s-0.7-0.4-1.2-0.4c-0.4,0-0.7,0.1-1,0.2c-0.3,0.2-0.6,0.3-0.9,0.5v5.2
			H127.4z"/>
		<path class="st3" d="M135.3,177.5v-9.3h1.1v9.3H135.3z"/>
		<path class="st3" d="M138.1,179.3c0.1,0,0.2,0.1,0.4,0.1c0.2,0,0.3,0,0.5,0c0.2,0,0.4-0.1,0.5-0.2c0.1-0.1,0.2-0.3,0.4-0.6
			l0.5-1.3l-2.6-6.5h1.2l2,5.1l2-5.1h1.2l-3.4,8.4c-0.2,0.4-0.4,0.7-0.7,0.8c-0.3,0.1-0.6,0.2-0.9,0.2c-0.2,0-0.4,0-0.7-0.1
			c-0.2-0.1-0.4-0.1-0.6-0.2L138.1,179.3z"/>
		<path class="st3" d="M20.9,195.3c-0.5-0.3-0.9-0.6-1.2-1.1c-0.3-0.5-0.6-1-0.7-1.6s-0.2-1.2-0.2-1.8s0.1-1.2,0.2-1.8
			c0.2-0.6,0.4-1.1,0.7-1.6s0.7-0.8,1.2-1.1c0.5-0.3,1.1-0.4,1.8-0.4c0.7,0,1.3,0.1,1.8,0.4c0.5,0.3,0.9,0.6,1.2,1.1s0.6,1,0.7,1.6
			c0.2,0.6,0.2,1.2,0.2,1.8s-0.1,1.2-0.2,1.8s-0.4,1.1-0.7,1.6c-0.3,0.5-0.7,0.8-1.2,1.1c-0.5,0.3-1.1,0.4-1.8,0.4
			C22,195.7,21.4,195.6,20.9,195.3z M20.6,193.5c0.2,0.4,0.5,0.7,0.9,0.9c0.3,0.2,0.8,0.3,1.2,0.3c0.5,0,0.9-0.1,1.2-0.3
			c0.3-0.2,0.6-0.5,0.9-0.9c0.2-0.4,0.4-0.8,0.5-1.2c0.1-0.5,0.2-0.9,0.2-1.4c0-0.5-0.1-0.9-0.2-1.4c-0.1-0.5-0.3-0.9-0.5-1.2
			c-0.2-0.4-0.5-0.7-0.9-0.9c-0.3-0.2-0.8-0.3-1.2-0.3c-0.5,0-0.9,0.1-1.2,0.3c-0.3,0.2-0.6,0.5-0.9,0.9c-0.2,0.4-0.4,0.8-0.5,1.2
			c-0.1,0.5-0.2,0.9-0.2,1.4c0,0.5,0.1,1,0.2,1.4C20.2,192.7,20.4,193.2,20.6,193.5z"/>
		<path class="st3" d="M28.6,195.5v-6.7h1l0.1,0.5c0.3-0.2,0.6-0.4,1-0.5c0.4-0.1,0.8-0.2,1.2-0.2c0.9,0,1.6,0.2,1.9,0.7
			c0.4,0.5,0.6,1.1,0.6,2v4.2h-1.1v-4.2c0-0.6-0.1-1-0.4-1.3s-0.7-0.5-1.2-0.5c-0.4,0-0.7,0.1-1,0.2c-0.3,0.2-0.6,0.3-0.9,0.5v5.2
			H28.6z"/>
		<path class="st3" d="M37.6,189.1c0.3-0.1,0.6-0.2,0.8-0.3c0.3-0.1,0.5-0.1,0.8-0.1c0.4,0,0.8,0.1,1.2,0.2s0.7,0.4,1,0.7
			s0.5,0.7,0.6,1.1c0.2,0.4,0.2,0.9,0.2,1.5c0,0.5-0.1,1-0.3,1.4s-0.4,0.8-0.7,1.1c-0.3,0.3-0.7,0.5-1.1,0.7
			c-0.4,0.2-0.8,0.2-1.3,0.2c-0.5,0-1-0.1-1.4-0.2c-0.4-0.1-0.7-0.2-1-0.3v-9h1.1V189.1z M37.6,194.6c0.2,0.1,0.4,0.1,0.6,0.2
			c0.2,0,0.4,0.1,0.6,0.1c0.4,0,0.7-0.1,1-0.2c0.3-0.1,0.6-0.3,0.8-0.5s0.4-0.5,0.5-0.8c0.1-0.3,0.2-0.7,0.2-1.1s-0.1-0.8-0.2-1.1
			c-0.1-0.3-0.3-0.6-0.5-0.8c-0.2-0.2-0.4-0.4-0.7-0.5c-0.3-0.1-0.5-0.2-0.9-0.2c-0.2,0-0.5,0-0.7,0.1c-0.2,0.1-0.5,0.2-0.7,0.3
			V194.6z"/>
		<path class="st3" d="M45.7,195.4c-0.4-0.2-0.7-0.5-1-0.8c-0.3-0.3-0.5-0.7-0.6-1.1c-0.1-0.4-0.2-0.9-0.2-1.3
			c0-0.4,0.1-0.9,0.2-1.3c0.1-0.4,0.3-0.8,0.6-1.1c0.3-0.3,0.6-0.6,1-0.8c0.4-0.2,0.8-0.3,1.4-0.3c0.5,0,1,0.1,1.4,0.3
			c0.4,0.2,0.7,0.5,1,0.8c0.3,0.3,0.5,0.7,0.6,1.1s0.2,0.8,0.2,1.3s-0.1,0.9-0.2,1.3s-0.3,0.8-0.6,1.1c-0.3,0.3-0.6,0.6-1,0.8
			c-0.4,0.2-0.8,0.3-1.4,0.3S46.1,195.6,45.7,195.4z M45.5,194c0.2,0.2,0.4,0.4,0.7,0.6c0.3,0.2,0.6,0.2,0.9,0.2
			c0.3,0,0.6-0.1,0.9-0.2c0.3-0.2,0.5-0.4,0.6-0.6s0.3-0.5,0.4-0.8s0.1-0.6,0.1-1c0-0.3,0-0.6-0.1-1c-0.1-0.3-0.2-0.6-0.4-0.8
			s-0.4-0.4-0.6-0.6c-0.3-0.1-0.6-0.2-0.9-0.2s-0.6,0.1-0.9,0.2s-0.5,0.3-0.6,0.6s-0.3,0.5-0.4,0.8c-0.1,0.3-0.1,0.6-0.1,1
			c0,0.3,0,0.7,0.1,1S45.3,193.7,45.5,194z"/>
		<path class="st3" d="M55.8,195.5l-0.1-0.6c-0.2,0.2-0.5,0.4-0.8,0.5c-0.3,0.1-0.6,0.2-1,0.2c-0.3,0-0.6,0-0.8-0.1
			c-0.3-0.1-0.5-0.2-0.7-0.4c-0.2-0.2-0.4-0.4-0.5-0.7c-0.1-0.3-0.2-0.6-0.2-0.9c0-0.5,0.1-0.9,0.4-1.2c0.3-0.3,0.6-0.6,1-0.7
			c0.4-0.2,0.8-0.3,1.3-0.4c0.5-0.1,0.9-0.1,1.4-0.1v-0.1c0-0.6-0.1-1-0.4-1.2c-0.2-0.2-0.6-0.4-1-0.4c-0.3,0-0.6,0.1-0.8,0.2
			c-0.3,0.1-0.5,0.3-0.7,0.5l-0.8-0.5c0.3-0.4,0.6-0.6,1-0.8c0.4-0.2,0.8-0.3,1.4-0.3c0.7,0,1.3,0.2,1.7,0.6c0.4,0.4,0.6,1,0.6,1.9
			v4.4H55.8z M55.7,192c-0.3,0-0.6,0-1,0.1c-0.3,0-0.7,0.1-1,0.2c-0.3,0.1-0.5,0.3-0.7,0.5s-0.3,0.5-0.3,0.8c0,0.2,0,0.4,0.1,0.5
			c0.1,0.1,0.2,0.3,0.3,0.4c0.1,0.1,0.3,0.2,0.4,0.2c0.2,0,0.3,0.1,0.5,0.1c0.3,0,0.6-0.1,0.9-0.2s0.5-0.3,0.7-0.5V192z"/>
		<path class="st3" d="M59,195.5v-6.7h1l0.1,0.6c0.2-0.2,0.4-0.4,0.7-0.5c0.3-0.2,0.6-0.2,0.9-0.2c0.2,0,0.4,0,0.6,0
			s0.3,0.1,0.4,0.1l-0.2,1c-0.2-0.1-0.5-0.2-0.9-0.2c-0.3,0-0.5,0.1-0.8,0.2c-0.2,0.1-0.5,0.3-0.6,0.5v5.2H59z"/>
		<path class="st3" d="M68.2,195.5l-0.1-0.5c-0.2,0.3-0.5,0.4-0.8,0.5c-0.3,0.1-0.6,0.2-0.9,0.2c-0.5,0-0.9-0.1-1.3-0.3
			c-0.4-0.2-0.7-0.4-0.9-0.7c-0.3-0.3-0.4-0.7-0.6-1.1c-0.1-0.4-0.2-0.9-0.2-1.4c0-0.4,0.1-0.9,0.2-1.3c0.1-0.4,0.3-0.8,0.6-1.1
			c0.3-0.3,0.6-0.6,1-0.8s0.9-0.3,1.4-0.3c0.3,0,0.6,0,0.9,0.1c0.2,0.1,0.4,0.1,0.6,0.2v-2.7h1.1v9.3H68.2z M68.1,189.9
			c-0.1,0-0.1-0.1-0.2-0.1c-0.1,0-0.2-0.1-0.3-0.1c-0.1,0-0.2-0.1-0.4-0.1c-0.1,0-0.3,0-0.4,0c-0.4,0-0.7,0.1-1,0.2
			s-0.5,0.3-0.7,0.6c-0.2,0.2-0.3,0.5-0.4,0.8c-0.1,0.3-0.1,0.6-0.1,1c0,0.4,0,0.7,0.1,1s0.2,0.6,0.4,0.8s0.4,0.4,0.6,0.6
			c0.3,0.1,0.6,0.2,0.9,0.2c0.3,0,0.6-0.1,0.8-0.2c0.3-0.1,0.5-0.3,0.7-0.6V189.9z"/>
		<path class="st3" d="M72,187.8c-0.2,0-0.4-0.1-0.5-0.2c-0.1-0.2-0.2-0.3-0.2-0.6c0-0.2,0.1-0.4,0.2-0.6c0.1-0.2,0.3-0.2,0.5-0.2
			c0.2,0,0.4,0.1,0.5,0.2c0.1,0.2,0.2,0.3,0.2,0.6c0,0.2-0.1,0.4-0.2,0.6C72.4,187.7,72.2,187.8,72,187.8z M71.4,195.5v-6.7h1.1v6.7
			H71.4z"/>
		<path class="st3" d="M74.8,195.5v-6.7h1l0.1,0.5c0.3-0.2,0.6-0.4,1-0.5c0.4-0.1,0.8-0.2,1.2-0.2c0.9,0,1.6,0.2,1.9,0.7
			c0.4,0.5,0.6,1.1,0.6,2v4.2h-1.1v-4.2c0-0.6-0.1-1-0.4-1.3s-0.7-0.5-1.2-0.5c-0.4,0-0.7,0.1-1,0.2c-0.3,0.2-0.6,0.3-0.9,0.5v5.2
			H74.8z"/>
		<path class="st3" d="M87.8,189.6c0.2,0.2,0.3,0.4,0.4,0.6s0.2,0.5,0.2,0.8c0,0.4-0.1,0.7-0.2,1s-0.4,0.5-0.7,0.7
			c-0.3,0.2-0.6,0.3-0.9,0.4c-0.4,0.1-0.7,0.1-1.1,0.1c-0.1,0-0.3,0-0.5,0c-0.2,0-0.3,0-0.4-0.1c-0.1,0-0.3,0.1-0.4,0.1
			s-0.2,0.2-0.2,0.3c0,0.1,0.1,0.3,0.3,0.3c0.2,0.1,0.6,0.1,1.2,0.1c0.6,0,1.1,0,1.5,0.1c0.4,0.1,0.8,0.2,1.1,0.3s0.5,0.4,0.7,0.6
			c0.2,0.3,0.2,0.6,0.2,1c0,0.4-0.1,0.7-0.3,1c-0.2,0.3-0.4,0.5-0.7,0.7c-0.3,0.2-0.6,0.3-1,0.4c-0.4,0.1-0.8,0.1-1.2,0.1
			c-1.1,0-1.9-0.2-2.5-0.5c-0.6-0.3-0.9-0.8-0.9-1.5c0-0.7,0.3-1.2,1-1.6c-0.2-0.1-0.3-0.2-0.4-0.3s-0.2-0.3-0.2-0.5
			c0-0.3,0.1-0.5,0.3-0.6c0.2-0.2,0.5-0.3,0.7-0.4c-0.1-0.1-0.2-0.1-0.4-0.2s-0.3-0.2-0.4-0.4c-0.1-0.2-0.2-0.3-0.3-0.6
			c-0.1-0.2-0.1-0.5-0.1-0.7c0-0.4,0.1-0.7,0.2-1s0.4-0.5,0.7-0.7s0.6-0.3,0.9-0.4c0.3-0.1,0.7-0.1,1-0.1c0.3,0,0.6,0,0.8,0.1
			c0.3,0.1,0.5,0.1,0.8,0.2l1-1l0.7,0.6L87.8,189.6z M85.4,195.1c-0.6,0-1.1,0-1.3-0.1c-0.2,0.1-0.4,0.3-0.6,0.5s-0.2,0.4-0.2,0.8
			c0,0.2,0.1,0.4,0.2,0.6c0.1,0.2,0.3,0.3,0.5,0.4s0.5,0.2,0.8,0.2s0.6,0.1,1,0.1c0.6,0,1.2-0.1,1.6-0.3c0.4-0.2,0.6-0.5,0.6-0.9
			c0-0.2,0-0.4-0.1-0.5c-0.1-0.1-0.2-0.3-0.4-0.3c-0.2-0.1-0.4-0.2-0.8-0.2C86.3,195.1,85.9,195.1,85.4,195.1z M83.7,191.6
			c0.1,0.2,0.2,0.3,0.4,0.5c0.2,0.1,0.3,0.3,0.6,0.3c0.2,0.1,0.5,0.1,0.7,0.1c0.2,0,0.4,0,0.7-0.1c0.2-0.1,0.4-0.1,0.6-0.3
			c0.2-0.1,0.3-0.3,0.4-0.5s0.2-0.4,0.2-0.7c0-0.2-0.1-0.4-0.2-0.6s-0.2-0.3-0.4-0.4c-0.2-0.1-0.4-0.2-0.6-0.3
			c-0.2-0.1-0.4-0.1-0.7-0.1c-0.2,0-0.4,0-0.7,0.1c-0.2,0.1-0.4,0.1-0.6,0.3c-0.2,0.1-0.3,0.3-0.4,0.4c-0.1,0.2-0.2,0.4-0.2,0.6
			C83.6,191.2,83.6,191.4,83.7,191.6z"/>
		<path class="st3" d="M100.1,193.8c-0.1,0.2-0.3,0.4-0.4,0.7c-0.2,0.2-0.4,0.4-0.6,0.6c-0.2,0.2-0.5,0.3-0.8,0.4
			c-0.3,0.1-0.7,0.2-1.1,0.2c-0.6,0-1.1-0.1-1.5-0.3s-0.9-0.5-1.2-0.9c-0.4-0.4-0.6-0.9-0.8-1.5c-0.2-0.6-0.3-1.3-0.3-2.2
			c0-0.9,0.1-1.6,0.3-2.2c0.2-0.6,0.5-1.1,0.8-1.5c0.3-0.4,0.7-0.7,1.2-0.9c0.4-0.2,0.9-0.3,1.4-0.3c0.7,0,1.3,0.2,1.9,0.5
			c0.6,0.3,1,0.8,1.2,1.4l-0.9,0.5c-0.1-0.2-0.2-0.3-0.3-0.5c-0.1-0.2-0.3-0.3-0.5-0.5c-0.2-0.1-0.4-0.2-0.6-0.3
			c-0.2-0.1-0.5-0.1-0.7-0.1c-0.8,0-1.5,0.3-1.9,1c-0.5,0.7-0.7,1.6-0.7,2.9c0,0.6,0.1,1.1,0.2,1.6c0.1,0.5,0.3,0.9,0.6,1.2
			c0.2,0.3,0.5,0.6,0.9,0.7c0.3,0.2,0.7,0.2,1.1,0.2c0.3,0,0.5,0,0.7-0.1c0.2-0.1,0.4-0.2,0.6-0.3s0.3-0.3,0.5-0.4
			c0.1-0.2,0.3-0.4,0.4-0.5L100.1,193.8z"/>
		<path class="st3" d="M105.5,195.5l-0.1-0.6c-0.2,0.2-0.5,0.4-0.8,0.5c-0.3,0.1-0.6,0.2-1,0.2c-0.3,0-0.6,0-0.8-0.1
			c-0.3-0.1-0.5-0.2-0.7-0.4c-0.2-0.2-0.4-0.4-0.5-0.7c-0.1-0.3-0.2-0.6-0.2-0.9c0-0.5,0.1-0.9,0.4-1.2c0.3-0.3,0.6-0.6,1-0.7
			c0.4-0.2,0.8-0.3,1.3-0.4c0.5-0.1,0.9-0.1,1.4-0.1v-0.1c0-0.6-0.1-1-0.4-1.2c-0.2-0.2-0.6-0.4-1-0.4c-0.3,0-0.6,0.1-0.8,0.2
			c-0.3,0.1-0.5,0.3-0.7,0.5l-0.8-0.5c0.3-0.4,0.6-0.6,1-0.8c0.4-0.2,0.8-0.3,1.4-0.3c0.7,0,1.3,0.2,1.7,0.6c0.4,0.4,0.6,1,0.6,1.9
			v4.4H105.5z M105.4,192c-0.3,0-0.6,0-1,0.1c-0.3,0-0.7,0.1-1,0.2c-0.3,0.1-0.5,0.3-0.7,0.5s-0.3,0.5-0.3,0.8c0,0.2,0,0.4,0.1,0.5
			c0.1,0.1,0.2,0.3,0.3,0.4c0.1,0.1,0.3,0.2,0.4,0.2c0.2,0,0.3,0.1,0.5,0.1c0.3,0,0.6-0.1,0.9-0.2s0.5-0.3,0.7-0.5V192z"/>
		<path class="st3" d="M108.8,198.2v-9.3h1l0.1,0.5c0.3-0.2,0.6-0.4,0.9-0.5c0.3-0.1,0.7-0.2,1-0.2c0.5,0,0.9,0.1,1.3,0.3
			c0.3,0.2,0.6,0.4,0.8,0.8c0.2,0.3,0.4,0.7,0.5,1.1c0.1,0.4,0.1,0.8,0.1,1.3c0,0.5-0.1,1-0.3,1.5c-0.2,0.4-0.4,0.8-0.7,1.1
			c-0.3,0.3-0.6,0.6-1.1,0.7c-0.4,0.2-0.9,0.3-1.3,0.3c-0.5,0-1-0.1-1.3-0.2v2.7H108.8z M109.8,194.5c0.1,0.1,0.3,0.1,0.4,0.2
			s0.4,0.1,0.7,0.1c0.4,0,0.7-0.1,1-0.2c0.3-0.1,0.6-0.3,0.8-0.5c0.2-0.2,0.4-0.5,0.5-0.8c0.1-0.3,0.2-0.7,0.2-1.1
			c0-0.3,0-0.6-0.1-0.9s-0.2-0.6-0.3-0.8c-0.1-0.2-0.3-0.4-0.6-0.6c-0.2-0.2-0.6-0.2-0.9-0.2c-0.3,0-0.6,0.1-0.9,0.2
			c-0.3,0.1-0.5,0.3-0.8,0.5V194.5z"/>
		<path class="st3" d="M120.2,195.5l-0.1-0.6c-0.2,0.2-0.5,0.4-0.8,0.5c-0.3,0.1-0.6,0.2-1,0.2c-0.3,0-0.6,0-0.8-0.1
			c-0.3-0.1-0.5-0.2-0.7-0.4c-0.2-0.2-0.4-0.4-0.5-0.7c-0.1-0.3-0.2-0.6-0.2-0.9c0-0.5,0.1-0.9,0.4-1.2c0.3-0.3,0.6-0.6,1-0.7
			c0.4-0.2,0.8-0.3,1.3-0.4c0.5-0.1,0.9-0.1,1.4-0.1v-0.1c0-0.6-0.1-1-0.4-1.2c-0.2-0.2-0.6-0.4-1-0.4c-0.3,0-0.6,0.1-0.8,0.2
			c-0.3,0.1-0.5,0.3-0.7,0.5l-0.8-0.5c0.3-0.4,0.6-0.6,1-0.8c0.4-0.2,0.8-0.3,1.4-0.3c0.7,0,1.3,0.2,1.7,0.6c0.4,0.4,0.6,1,0.6,1.9
			v4.4H120.2z M120.1,192c-0.3,0-0.6,0-1,0.1c-0.3,0-0.7,0.1-1,0.2c-0.3,0.1-0.5,0.3-0.7,0.5s-0.3,0.5-0.3,0.8c0,0.2,0,0.4,0.1,0.5
			c0.1,0.1,0.2,0.3,0.3,0.4c0.1,0.1,0.3,0.2,0.4,0.2c0.2,0,0.3,0.1,0.5,0.1c0.3,0,0.6-0.1,0.9-0.2s0.5-0.3,0.7-0.5V192z"/>
		<path class="st3" d="M128.7,194.1c-0.3,0.5-0.6,0.9-1.1,1.2c-0.5,0.3-0.9,0.4-1.4,0.4c-0.4,0-0.8-0.1-1.2-0.2s-0.7-0.4-1-0.6
			c-0.3-0.3-0.5-0.7-0.7-1.1c-0.2-0.4-0.3-0.9-0.3-1.5c0-0.6,0.1-1.2,0.3-1.6c0.2-0.4,0.4-0.8,0.7-1.1c0.3-0.3,0.6-0.5,1-0.6
			s0.7-0.2,1.1-0.2c0.4,0,0.7,0.1,1,0.2c0.3,0.1,0.5,0.3,0.7,0.4c0.2,0.2,0.4,0.3,0.5,0.5s0.2,0.4,0.3,0.5l-0.8,0.5
			c-0.2-0.4-0.4-0.8-0.7-1s-0.6-0.3-0.9-0.3c-0.3,0-0.5,0.1-0.7,0.2c-0.2,0.1-0.4,0.3-0.6,0.5c-0.2,0.2-0.3,0.5-0.4,0.8
			c-0.1,0.3-0.2,0.7-0.2,1.1s0.1,0.8,0.2,1.1c0.1,0.3,0.3,0.6,0.5,0.8c0.2,0.2,0.4,0.4,0.7,0.5c0.3,0.1,0.5,0.2,0.8,0.2
			c0.3,0,0.6-0.1,0.9-0.3c0.3-0.2,0.6-0.5,0.7-0.9L128.7,194.1z"/>
		<path class="st3" d="M130.9,187.8c-0.2,0-0.4-0.1-0.5-0.2c-0.1-0.2-0.2-0.3-0.2-0.6c0-0.2,0.1-0.4,0.2-0.6
			c0.1-0.2,0.3-0.2,0.5-0.2c0.2,0,0.4,0.1,0.5,0.2c0.1,0.2,0.2,0.3,0.2,0.6c0,0.2-0.1,0.4-0.2,0.6
			C131.3,187.7,131.1,187.8,130.9,187.8z M130.4,195.5v-6.7h1.1v6.7H130.4z"/>
		<path class="st3" d="M135.3,194c0,0.3,0.1,0.5,0.2,0.7s0.3,0.2,0.5,0.2c0.2,0,0.3,0,0.5-0.1c0.2-0.1,0.3-0.2,0.4-0.3l0.4,0.7
			c-0.2,0.2-0.4,0.3-0.6,0.4c-0.2,0.1-0.5,0.1-0.9,0.1c-0.5,0-0.9-0.1-1.2-0.4c-0.3-0.3-0.4-0.7-0.4-1.2v-4.4H133v-0.9h1.1V187h1.1
			v1.8h1.8v0.9h-1.8V194z"/>
		<path class="st3" d="M138.1,197.3c0.1,0,0.2,0.1,0.4,0.1c0.2,0,0.3,0,0.5,0c0.2,0,0.4-0.1,0.5-0.2c0.1-0.1,0.2-0.3,0.4-0.6
			l0.5-1.3l-2.6-6.5h1.2l2,5.1l2-5.1h1.2l-3.4,8.4c-0.2,0.4-0.4,0.7-0.7,0.8c-0.3,0.1-0.6,0.2-0.9,0.2c-0.2,0-0.4,0-0.7-0.1
			c-0.2-0.1-0.4-0.1-0.6-0.2L138.1,197.3z"/>
	</g>
	<g>
		<path class="st1" d="M344.4,81.6c0.4-0.7,1-1.2,1.7-1.6c-0.6-0.4-1.1-0.9-1.5-1.6c-0.4-0.6-0.6-1.3-0.6-2c0-0.7,0.1-1.3,0.4-1.9
			c0.3-0.5,0.6-1,1.1-1.3s1-0.6,1.5-0.8c0.6-0.2,1.1-0.3,1.7-0.3c0.6,0,1.2,0.1,1.7,0.3c0.6,0.2,1.1,0.4,1.5,0.8
			c0.4,0.3,0.8,0.8,1.1,1.3c0.3,0.5,0.4,1.1,0.4,1.8c0,0.8-0.2,1.5-0.5,2.1c-0.4,0.6-0.8,1.2-1.5,1.6c0.7,0.4,1.3,0.9,1.7,1.6
			c0.4,0.7,0.6,1.5,0.6,2.3c0,0.8-0.1,1.5-0.4,2.1s-0.7,1.1-1.1,1.5c-0.5,0.4-1,0.7-1.6,0.9s-1.2,0.3-1.8,0.3s-1.2-0.1-1.8-0.3
			s-1.1-0.5-1.6-0.9c-0.5-0.4-0.9-0.9-1.2-1.5s-0.4-1.3-0.4-2C343.8,83,344,82.3,344.4,81.6z M346,85.2c0.2,0.4,0.4,0.7,0.7,0.9
			c0.3,0.2,0.6,0.4,1,0.6c0.4,0.1,0.8,0.2,1.2,0.2c0.4,0,0.8-0.1,1.1-0.2c0.4-0.1,0.7-0.3,1-0.6c0.3-0.2,0.5-0.6,0.7-0.9
			c0.2-0.4,0.3-0.8,0.3-1.3c0-0.5-0.1-0.9-0.3-1.3c-0.2-0.4-0.4-0.7-0.7-1c-0.3-0.3-0.6-0.5-1-0.6c-0.4-0.1-0.8-0.2-1.2-0.2
			c-0.4,0-0.8,0.1-1.1,0.2s-0.7,0.3-1,0.6c-0.3,0.3-0.5,0.6-0.7,1c-0.2,0.4-0.3,0.8-0.3,1.3C345.7,84.3,345.8,84.8,346,85.2z
			 M346.2,77.6c0.2,0.4,0.4,0.6,0.7,0.9c0.3,0.2,0.6,0.4,0.9,0.5c0.3,0.1,0.7,0.2,1,0.2c0.4,0,0.7-0.1,1.1-0.2
			c0.4-0.1,0.7-0.3,0.9-0.6c0.3-0.2,0.5-0.5,0.7-0.9c0.2-0.4,0.3-0.8,0.3-1.2c0-0.4-0.1-0.8-0.3-1.2s-0.4-0.6-0.7-0.8
			c-0.3-0.2-0.6-0.4-0.9-0.5c-0.3-0.1-0.7-0.2-1-0.2c-0.4,0-0.7,0.1-1.1,0.2c-0.4,0.1-0.7,0.3-0.9,0.5c-0.3,0.2-0.5,0.5-0.7,0.8
			c-0.2,0.3-0.3,0.7-0.3,1.2C345.9,76.8,346,77.2,346.2,77.6z"/>
		<path class="st1" d="M357.4,81.6c0.4-0.7,1-1.2,1.7-1.6c-0.6-0.4-1.1-0.9-1.5-1.6c-0.4-0.6-0.6-1.3-0.6-2c0-0.7,0.1-1.3,0.4-1.9
			c0.3-0.5,0.6-1,1.1-1.3s1-0.6,1.5-0.8c0.6-0.2,1.1-0.3,1.7-0.3c0.6,0,1.2,0.1,1.7,0.3c0.6,0.2,1.1,0.4,1.5,0.8
			c0.4,0.3,0.8,0.8,1.1,1.3c0.3,0.5,0.4,1.1,0.4,1.8c0,0.8-0.2,1.5-0.5,2.1c-0.4,0.6-0.8,1.2-1.5,1.6c0.7,0.4,1.3,0.9,1.7,1.6
			c0.4,0.7,0.6,1.5,0.6,2.3c0,0.8-0.1,1.5-0.4,2.1s-0.7,1.1-1.1,1.5c-0.5,0.4-1,0.7-1.6,0.9s-1.2,0.3-1.8,0.3s-1.2-0.1-1.8-0.3
			s-1.1-0.5-1.6-0.9c-0.5-0.4-0.9-0.9-1.2-1.5s-0.4-1.3-0.4-2C356.8,83,357,82.3,357.4,81.6z M358.9,85.2c0.2,0.4,0.4,0.7,0.7,0.9
			c0.3,0.2,0.6,0.4,1,0.6c0.4,0.1,0.8,0.2,1.2,0.2c0.4,0,0.8-0.1,1.1-0.2c0.4-0.1,0.7-0.3,1-0.6c0.3-0.2,0.5-0.6,0.7-0.9
			c0.2-0.4,0.3-0.8,0.3-1.3c0-0.5-0.1-0.9-0.3-1.3c-0.2-0.4-0.4-0.7-0.7-1c-0.3-0.3-0.6-0.5-1-0.6c-0.4-0.1-0.8-0.2-1.2-0.2
			c-0.4,0-0.8,0.1-1.1,0.2s-0.7,0.3-1,0.6c-0.3,0.3-0.5,0.6-0.7,1c-0.2,0.4-0.3,0.8-0.3,1.3C358.6,84.3,358.7,84.8,358.9,85.2z
			 M359.1,77.6c0.2,0.4,0.4,0.6,0.7,0.9c0.3,0.2,0.6,0.4,0.9,0.5c0.3,0.1,0.7,0.2,1,0.2c0.4,0,0.7-0.1,1.1-0.2
			c0.4-0.1,0.7-0.3,0.9-0.6c0.3-0.2,0.5-0.5,0.7-0.9c0.2-0.4,0.3-0.8,0.3-1.2c0-0.4-0.1-0.8-0.3-1.2s-0.4-0.6-0.7-0.8
			c-0.3-0.2-0.6-0.4-0.9-0.5c-0.3-0.1-0.7-0.2-1-0.2c-0.4,0-0.7,0.1-1.1,0.2c-0.4,0.1-0.7,0.3-0.9,0.5c-0.3,0.2-0.5,0.5-0.7,0.8
			c-0.2,0.3-0.3,0.7-0.3,1.2C358.9,76.8,359,77.2,359.1,77.6z"/>
		<path class="st1" d="M370.1,88.4l-1.2-1.2l15.2-15l1.1,1.2L370.1,88.4z M371.3,79.1c-0.4-0.2-0.8-0.5-1.1-0.8
			c-0.3-0.3-0.6-0.7-0.8-1.2s-0.3-0.9-0.3-1.4c0-0.5,0.1-1,0.3-1.4c0.2-0.4,0.5-0.8,0.8-1.2c0.3-0.3,0.7-0.6,1.2-0.8
			c0.4-0.2,0.9-0.3,1.4-0.3s1,0.1,1.4,0.3c0.4,0.2,0.8,0.5,1.2,0.8c0.3,0.3,0.6,0.7,0.8,1.2c0.2,0.4,0.3,0.9,0.3,1.4
			c0,0.5-0.1,1-0.3,1.4c-0.2,0.4-0.5,0.8-0.8,1.2c-0.3,0.3-0.7,0.6-1.2,0.8c-0.4,0.2-0.9,0.3-1.4,0.3S371.8,79.3,371.3,79.1z
			 M371.3,77.2c0.2,0.2,0.4,0.3,0.7,0.5c0.3,0.1,0.5,0.2,0.8,0.2s0.6-0.1,0.8-0.2s0.5-0.3,0.7-0.5c0.2-0.2,0.3-0.4,0.5-0.7
			c0.1-0.3,0.2-0.5,0.2-0.8s-0.1-0.6-0.2-0.8s-0.3-0.5-0.5-0.7c-0.2-0.2-0.4-0.4-0.7-0.5c-0.3-0.1-0.5-0.2-0.8-0.2s-0.6,0.1-0.8,0.2
			c-0.3,0.1-0.5,0.3-0.7,0.5s-0.3,0.4-0.4,0.7c-0.1,0.3-0.2,0.5-0.2,0.8s0.1,0.6,0.2,0.8C370.9,76.8,371.1,77,371.3,77.2z
			 M380.3,88.1c-0.4-0.2-0.8-0.5-1.1-0.8s-0.6-0.7-0.8-1.2c-0.2-0.4-0.3-0.9-0.3-1.4c0-0.5,0.1-1,0.3-1.4c0.2-0.4,0.5-0.8,0.8-1.2
			c0.3-0.3,0.7-0.6,1.2-0.8c0.4-0.2,0.9-0.3,1.4-0.3s1,0.1,1.4,0.3c0.4,0.2,0.8,0.5,1.2,0.8c0.3,0.3,0.6,0.7,0.8,1.2
			c0.2,0.4,0.3,0.9,0.3,1.4c0,0.5-0.1,1-0.3,1.4c-0.2,0.4-0.5,0.8-0.8,1.2c-0.3,0.3-0.7,0.6-1.2,0.8s-0.9,0.3-1.4,0.3
			S380.8,88.3,380.3,88.1z M380.3,86.2c0.2,0.2,0.4,0.3,0.7,0.5c0.3,0.1,0.5,0.2,0.8,0.2s0.6-0.1,0.8-0.2s0.5-0.3,0.7-0.5
			c0.2-0.2,0.3-0.4,0.5-0.7c0.1-0.3,0.2-0.5,0.2-0.8c0-0.3-0.1-0.6-0.2-0.8s-0.3-0.5-0.5-0.7c-0.2-0.2-0.4-0.4-0.7-0.5
			c-0.3-0.1-0.5-0.2-0.8-0.2s-0.6,0.1-0.8,0.2c-0.3,0.1-0.5,0.3-0.7,0.5s-0.3,0.4-0.4,0.7c-0.1,0.3-0.2,0.5-0.2,0.8
			c0,0.3,0.1,0.6,0.2,0.8C379.9,85.8,380.1,86,380.3,86.2z"/>
		<path class="st3" d="M394.8,88.2v-8h1v8H394.8z"/>
		<path class="st3" d="M398,88.2v-8h1l4,6v-6h0.9v8h-0.7l-4.3-6.3v6.3H398z"/>
		<path class="st3" d="M411.8,86.8c-0.1,0.2-0.2,0.4-0.4,0.6s-0.3,0.4-0.5,0.5s-0.4,0.3-0.7,0.4c-0.3,0.1-0.6,0.1-0.9,0.1
			c-0.5,0-0.9-0.1-1.3-0.2c-0.4-0.2-0.8-0.4-1.1-0.7c-0.3-0.3-0.5-0.8-0.7-1.3c-0.2-0.5-0.3-1.1-0.3-1.9c0-0.7,0.1-1.4,0.3-1.9
			c0.2-0.5,0.4-1,0.7-1.3c0.3-0.3,0.6-0.6,1-0.7c0.4-0.2,0.8-0.2,1.2-0.2c0.6,0,1.1,0.1,1.6,0.4c0.5,0.3,0.8,0.7,1.1,1.2l-0.8,0.5
			c-0.1-0.1-0.2-0.3-0.3-0.4c-0.1-0.1-0.3-0.3-0.4-0.4c-0.2-0.1-0.3-0.2-0.5-0.3s-0.4-0.1-0.6-0.1c-0.7,0-1.3,0.3-1.6,0.9
			c-0.4,0.6-0.6,1.4-0.6,2.5c0,0.5,0.1,1,0.2,1.4c0.1,0.4,0.3,0.7,0.5,1c0.2,0.3,0.5,0.5,0.7,0.6c0.3,0.1,0.6,0.2,0.9,0.2
			c0.2,0,0.4,0,0.6-0.1c0.2-0.1,0.3-0.1,0.5-0.3c0.1-0.1,0.3-0.2,0.4-0.4c0.1-0.1,0.2-0.3,0.3-0.5L411.8,86.8z"/>
		<path class="st3" d="M413.4,88.2v-8h2.6c0.9,0,1.6,0.2,2,0.6c0.4,0.4,0.6,0.9,0.6,1.6c0,0.4,0,0.7-0.1,0.9
			c-0.1,0.3-0.2,0.5-0.4,0.7c-0.2,0.2-0.4,0.3-0.6,0.4c-0.2,0.1-0.5,0.2-0.8,0.2l2.2,3.6h-1.1l-2.2-3.5h-1.2v3.5H413.4z M414.3,83.9
			h1.5c1.1,0,1.7-0.5,1.7-1.5c0-0.5-0.1-0.8-0.4-1c-0.3-0.2-0.7-0.3-1.2-0.3h-1.6V83.9z"/>
		<path class="st3" d="M420.3,88.2v-8h4.7V81h-3.7v2.6h2.7v0.8h-2.7v3h4v0.8H420.3z"/>
		<path class="st3" d="M425.8,88.2l3.1-8h0.6l3.1,8h-1l-0.9-2.5h-2.9l-0.9,2.5H425.8z M428,84.9h2.3l-1.2-3.1L428,84.9z"/>
		<path class="st3" d="M434,86.5c0.2,0.3,0.5,0.6,0.9,0.8s0.8,0.3,1.2,0.3c0.2,0,0.4,0,0.6-0.1c0.2-0.1,0.4-0.1,0.5-0.2
			c0.1-0.1,0.3-0.2,0.3-0.4c0.1-0.2,0.1-0.4,0.1-0.6c0-0.2-0.1-0.4-0.2-0.6s-0.2-0.3-0.4-0.5c-0.2-0.1-0.4-0.3-0.6-0.4
			c-0.2-0.1-0.5-0.2-0.7-0.3c-0.3-0.1-0.5-0.2-0.8-0.4c-0.3-0.1-0.5-0.3-0.7-0.4c-0.2-0.2-0.4-0.4-0.5-0.6c-0.1-0.2-0.2-0.5-0.2-0.9
			c0-0.3,0.1-0.6,0.2-0.9c0.1-0.3,0.3-0.5,0.6-0.6s0.5-0.3,0.8-0.4c0.3-0.1,0.6-0.1,0.9-0.1c0.5,0,1,0.1,1.5,0.3
			c0.5,0.2,0.8,0.5,1.1,0.9l-0.7,0.6c-0.2-0.3-0.5-0.5-0.8-0.7c-0.3-0.2-0.7-0.3-1.1-0.3c-0.5,0-0.8,0.1-1.1,0.3
			c-0.3,0.2-0.4,0.5-0.4,0.8c0,0.2,0,0.4,0.1,0.5c0.1,0.1,0.2,0.3,0.4,0.4c0.2,0.1,0.4,0.2,0.6,0.3s0.5,0.2,0.8,0.3
			c0.3,0.1,0.5,0.2,0.8,0.4c0.3,0.1,0.5,0.3,0.7,0.5s0.4,0.4,0.5,0.6c0.1,0.2,0.2,0.5,0.2,0.9c0,0.4-0.1,0.8-0.2,1.1
			c-0.1,0.3-0.3,0.5-0.6,0.7c-0.2,0.2-0.5,0.3-0.8,0.4s-0.7,0.1-1,0.1c-0.3,0-0.5,0-0.8-0.1s-0.5-0.1-0.8-0.3
			c-0.2-0.1-0.5-0.2-0.7-0.4c-0.2-0.2-0.4-0.3-0.5-0.6L434,86.5z"/>
		<path class="st3" d="M440.4,88.2v-8h4.7V81h-3.7v2.6h2.7v0.8h-2.7v3h4v0.8H440.4z"/>
	</g>
	<g>
		<path class="st1" d="M316.4,135.1c0.7,1.1,1.8,1.7,3.3,1.7c1,0,1.8-0.3,2.5-0.9c0.6-0.6,0.9-1.4,0.9-2.6c0-1.2-0.5-2.2-1.5-2.9
			c-1-0.7-2.4-1-4.2-1h-1.8v-7.1h8.5v1.6h-6.7v3.8h0.2c1,0,2,0.1,2.8,0.3c0.9,0.2,1.6,0.5,2.3,0.9c0.6,0.4,1.2,1,1.5,1.7
			s0.6,1.6,0.6,2.6c0,0.8-0.1,1.6-0.4,2.2c-0.3,0.6-0.6,1.2-1.1,1.6s-1,0.8-1.7,1c-0.6,0.2-1.3,0.3-2,0.3c-1,0-1.9-0.2-2.8-0.6
			s-1.5-1-2-1.9L316.4,135.1z"/>
		<path class="st1" d="M330.3,137.8c-0.7-0.5-1.3-1.1-1.8-1.9c-0.5-0.8-0.8-1.7-1-2.6c-0.2-1-0.3-2-0.3-3c0-1,0.1-2,0.3-3
			c0.2-1,0.6-1.9,1-2.6c0.5-0.8,1.1-1.4,1.8-1.9s1.6-0.7,2.6-0.7c1,0,1.8,0.2,2.5,0.7c0.7,0.5,1.3,1.1,1.8,1.9
			c0.5,0.8,0.8,1.7,1,2.6c0.2,1,0.3,2,0.3,3c0,1-0.1,2-0.3,3c-0.2,1-0.6,1.9-1,2.6s-1.1,1.4-1.8,1.9c-0.7,0.5-1.6,0.7-2.5,0.7
			C331.8,138.5,331,138.3,330.3,137.8z M330,134.7c0.3,0.6,0.7,1.1,1.2,1.5c0.5,0.4,1,0.6,1.7,0.6c0.6,0,1.2-0.2,1.7-0.6
			c0.5-0.4,0.8-0.9,1.1-1.5s0.5-1.3,0.7-2.1s0.2-1.6,0.2-2.4s-0.1-1.6-0.2-2.4c-0.1-0.8-0.4-1.5-0.7-2.1c-0.3-0.6-0.7-1.1-1.2-1.5
			c-0.5-0.4-1-0.6-1.7-0.6c-0.7,0-1.2,0.2-1.7,0.6s-0.8,0.9-1.2,1.5c-0.3,0.6-0.5,1.3-0.7,2.1s-0.2,1.6-0.2,2.4s0.1,1.6,0.2,2.4
			S329.7,134.1,330,134.7z"/>
		<path class="st1" d="M341.1,138.4l-1.2-1.2l15.2-15l1.1,1.2L341.1,138.4z M342.3,129.1c-0.4-0.2-0.8-0.5-1.1-0.8s-0.6-0.7-0.8-1.2
			c-0.2-0.4-0.3-0.9-0.3-1.4c0-0.5,0.1-1,0.3-1.4s0.5-0.8,0.8-1.2c0.3-0.3,0.7-0.6,1.2-0.8c0.4-0.2,0.9-0.3,1.4-0.3s1,0.1,1.4,0.3
			c0.4,0.2,0.8,0.5,1.2,0.8c0.3,0.3,0.6,0.7,0.8,1.2c0.2,0.4,0.3,0.9,0.3,1.4c0,0.5-0.1,1-0.3,1.4c-0.2,0.4-0.5,0.8-0.8,1.2
			c-0.3,0.3-0.7,0.6-1.2,0.8s-0.9,0.3-1.4,0.3S342.8,129.3,342.3,129.1z M342.3,127.2c0.2,0.2,0.4,0.3,0.7,0.5
			c0.3,0.1,0.5,0.2,0.8,0.2s0.6-0.1,0.8-0.2s0.5-0.3,0.7-0.5c0.2-0.2,0.3-0.4,0.5-0.7s0.2-0.5,0.2-0.8s-0.1-0.6-0.2-0.8
			c-0.1-0.3-0.3-0.5-0.5-0.7c-0.2-0.2-0.4-0.4-0.7-0.5s-0.5-0.2-0.8-0.2s-0.6,0.1-0.8,0.2c-0.3,0.1-0.5,0.3-0.7,0.5
			s-0.3,0.4-0.4,0.7c-0.1,0.3-0.2,0.5-0.2,0.8s0.1,0.6,0.2,0.8C341.9,126.8,342.1,127,342.3,127.2z M351.3,138.1
			c-0.4-0.2-0.8-0.5-1.1-0.8s-0.6-0.7-0.8-1.2c-0.2-0.4-0.3-0.9-0.3-1.4c0-0.5,0.1-1,0.3-1.4c0.2-0.4,0.5-0.8,0.8-1.2
			s0.7-0.6,1.2-0.8c0.4-0.2,0.9-0.3,1.4-0.3s1,0.1,1.4,0.3s0.8,0.5,1.2,0.8c0.3,0.3,0.6,0.7,0.8,1.2c0.2,0.4,0.3,0.9,0.3,1.4
			c0,0.5-0.1,1-0.3,1.4c-0.2,0.4-0.5,0.8-0.8,1.2c-0.3,0.3-0.7,0.6-1.2,0.8c-0.4,0.2-0.9,0.3-1.4,0.3S351.8,138.3,351.3,138.1z
			 M351.3,136.2c0.2,0.2,0.4,0.3,0.7,0.5c0.3,0.1,0.5,0.2,0.8,0.2s0.6-0.1,0.8-0.2s0.5-0.3,0.7-0.5c0.2-0.2,0.3-0.4,0.5-0.7
			c0.1-0.3,0.2-0.5,0.2-0.8c0-0.3-0.1-0.6-0.2-0.8c-0.1-0.3-0.3-0.5-0.5-0.7c-0.2-0.2-0.4-0.4-0.7-0.5c-0.3-0.1-0.5-0.2-0.8-0.2
			s-0.6,0.1-0.8,0.2c-0.3,0.1-0.5,0.3-0.7,0.5s-0.3,0.4-0.4,0.7c-0.1,0.3-0.2,0.5-0.2,0.8c0,0.3,0.1,0.6,0.2,0.8
			C350.9,135.8,351.1,136,351.3,136.2z"/>
		<path class="st3" d="M365.8,138.2v-8h1v8H365.8z"/>
		<path class="st3" d="M369,138.2v-8h1l4,6v-6h0.9v8h-0.7l-4.3-6.3v6.3H369z"/>
		<path class="st3" d="M382.8,136.8c-0.1,0.2-0.2,0.4-0.4,0.6c-0.2,0.2-0.3,0.4-0.5,0.5c-0.2,0.2-0.4,0.3-0.7,0.4
			c-0.3,0.1-0.6,0.1-0.9,0.1c-0.5,0-0.9-0.1-1.3-0.2c-0.4-0.2-0.8-0.4-1.1-0.7c-0.3-0.3-0.5-0.8-0.7-1.3c-0.2-0.5-0.3-1.1-0.3-1.9
			c0-0.7,0.1-1.4,0.3-1.9s0.4-1,0.7-1.3c0.3-0.3,0.6-0.6,1-0.7s0.8-0.2,1.2-0.2c0.6,0,1.1,0.1,1.6,0.4c0.5,0.3,0.8,0.7,1.1,1.2
			l-0.8,0.5c-0.1-0.1-0.2-0.3-0.3-0.4c-0.1-0.1-0.3-0.3-0.4-0.4c-0.2-0.1-0.3-0.2-0.5-0.3s-0.4-0.1-0.6-0.1c-0.7,0-1.3,0.3-1.6,0.9
			s-0.6,1.4-0.6,2.5c0,0.5,0.1,1,0.2,1.4c0.1,0.4,0.3,0.7,0.5,1s0.5,0.5,0.7,0.6c0.3,0.1,0.6,0.2,0.9,0.2c0.2,0,0.4,0,0.6-0.1
			c0.2-0.1,0.3-0.2,0.5-0.3c0.1-0.1,0.3-0.2,0.4-0.4c0.1-0.1,0.2-0.3,0.3-0.5L382.8,136.8z"/>
		<path class="st3" d="M384.4,138.2v-8h2.6c0.9,0,1.6,0.2,2,0.6c0.4,0.4,0.6,0.9,0.6,1.6c0,0.4,0,0.7-0.1,0.9
			c-0.1,0.3-0.2,0.5-0.4,0.7c-0.2,0.2-0.4,0.3-0.6,0.4c-0.2,0.1-0.5,0.2-0.8,0.2l2.2,3.6h-1.1l-2.2-3.5h-1.2v3.5H384.4z
			 M385.3,133.9h1.5c1.1,0,1.7-0.5,1.7-1.5c0-0.5-0.1-0.8-0.4-1c-0.3-0.2-0.7-0.3-1.2-0.3h-1.6V133.9z"/>
		<path class="st3" d="M391.3,138.2v-8h4.7v0.8h-3.7v2.6h2.7v0.8h-2.7v3h4v0.8H391.3z"/>
		<path class="st3" d="M396.8,138.2l3.1-8h0.6l3.1,8h-1l-0.9-2.5h-2.9l-0.9,2.5H396.8z M399,134.9h2.3l-1.2-3.1L399,134.9z"/>
		<path class="st3" d="M405,136.5c0.2,0.3,0.5,0.6,0.9,0.8s0.8,0.3,1.2,0.3c0.2,0,0.4,0,0.6-0.1c0.2-0.1,0.4-0.1,0.5-0.2
			c0.1-0.1,0.3-0.2,0.3-0.4c0.1-0.2,0.1-0.4,0.1-0.6c0-0.2-0.1-0.4-0.2-0.6s-0.2-0.3-0.4-0.5s-0.4-0.3-0.6-0.4
			c-0.2-0.1-0.5-0.2-0.7-0.3c-0.3-0.1-0.5-0.2-0.8-0.4c-0.3-0.1-0.5-0.3-0.7-0.5s-0.4-0.4-0.5-0.6c-0.1-0.2-0.2-0.5-0.2-0.9
			c0-0.3,0.1-0.6,0.2-0.9c0.1-0.3,0.3-0.5,0.6-0.6s0.5-0.3,0.8-0.4c0.3-0.1,0.6-0.1,0.9-0.1c0.5,0,1,0.1,1.5,0.3
			c0.5,0.2,0.8,0.5,1.1,0.9l-0.7,0.6c-0.2-0.3-0.5-0.5-0.8-0.7c-0.3-0.2-0.7-0.3-1.1-0.3c-0.5,0-0.8,0.1-1.1,0.3
			c-0.3,0.2-0.4,0.5-0.4,0.8c0,0.2,0,0.4,0.1,0.5c0.1,0.1,0.2,0.3,0.4,0.4c0.2,0.1,0.4,0.2,0.6,0.3c0.2,0.1,0.5,0.2,0.8,0.3
			c0.3,0.1,0.5,0.2,0.8,0.4c0.3,0.1,0.5,0.3,0.7,0.5c0.2,0.2,0.4,0.4,0.5,0.6c0.1,0.2,0.2,0.5,0.2,0.9c0,0.4-0.1,0.8-0.2,1.1
			c-0.1,0.3-0.3,0.5-0.6,0.7c-0.2,0.2-0.5,0.3-0.8,0.4s-0.7,0.1-1,0.1c-0.3,0-0.5,0-0.8-0.1c-0.3-0.1-0.5-0.1-0.8-0.3
			s-0.5-0.2-0.7-0.4s-0.4-0.3-0.5-0.6L405,136.5z"/>
		<path class="st3" d="M411.4,138.2v-8h4.7v0.8h-3.7v2.6h2.7v0.8h-2.7v3h4v0.8H411.4z"/>
	</g>
	<g>
		<path class="st1" d="M297.8,184.7c0.4,0.7,0.9,1.3,1.5,1.6c0.6,0.3,1.2,0.5,1.9,0.5c0.4,0,0.9-0.1,1.3-0.2
			c0.4-0.1,0.8-0.3,1.1-0.6c0.3-0.3,0.6-0.6,0.7-1c0.2-0.4,0.3-0.8,0.3-1.3c0-0.5-0.1-0.9-0.3-1.3c-0.2-0.4-0.4-0.7-0.8-0.9
			s-0.7-0.5-1.1-0.6s-0.9-0.2-1.3-0.3v-1.4c0.4,0,0.8-0.1,1.2-0.2c0.4-0.1,0.7-0.3,1-0.6c0.3-0.2,0.5-0.5,0.7-0.9
			c0.2-0.3,0.3-0.7,0.3-1.2c0-0.4-0.1-0.8-0.2-1.1c-0.2-0.3-0.4-0.6-0.6-0.8c-0.3-0.2-0.6-0.4-0.9-0.5s-0.7-0.2-1.1-0.2
			c-0.7,0-1.3,0.2-1.8,0.5c-0.6,0.4-1,0.8-1.3,1.5l-1.5-0.9c0.5-0.9,1.1-1.6,2-2.1c0.9-0.5,1.8-0.7,2.8-0.7c0.6,0,1.2,0.1,1.8,0.3
			s1.1,0.5,1.5,0.8c0.4,0.4,0.8,0.8,1.1,1.3c0.3,0.5,0.4,1.1,0.4,1.7c0,0.9-0.2,1.7-0.7,2.3c-0.4,0.6-1,1.1-1.7,1.3
			c0.4,0.1,0.7,0.3,1,0.5s0.6,0.5,0.8,0.8c0.2,0.3,0.4,0.7,0.6,1.1c0.1,0.4,0.2,0.9,0.2,1.5c0,0.8-0.2,1.4-0.5,2
			c-0.3,0.6-0.7,1.1-1.2,1.5c-0.5,0.4-1.1,0.7-1.7,0.9c-0.6,0.2-1.3,0.3-2,0.3c-0.5,0-1-0.1-1.5-0.2c-0.5-0.1-0.9-0.3-1.4-0.5
			c-0.4-0.2-0.8-0.5-1.2-0.9c-0.4-0.4-0.7-0.8-0.9-1.3L297.8,184.7z"/>
		<path class="st1" d="M312.2,188.2L318,174h-8.8v-1.6h11v1.3l-6,14.5H312.2z"/>
		<path class="st1" d="M323.1,188.4l-1.2-1.2l15.2-15l1.1,1.2L323.1,188.4z M324.3,179.1c-0.4-0.2-0.8-0.5-1.1-0.8s-0.6-0.7-0.8-1.2
			c-0.2-0.4-0.3-0.9-0.3-1.4c0-0.5,0.1-1,0.3-1.4s0.5-0.8,0.8-1.2c0.3-0.3,0.7-0.6,1.2-0.8c0.4-0.2,0.9-0.3,1.4-0.3s1,0.1,1.4,0.3
			c0.4,0.2,0.8,0.5,1.2,0.8c0.3,0.3,0.6,0.7,0.8,1.2c0.2,0.4,0.3,0.9,0.3,1.4c0,0.5-0.1,1-0.3,1.4c-0.2,0.4-0.5,0.8-0.8,1.2
			c-0.3,0.3-0.7,0.6-1.2,0.8s-0.9,0.3-1.4,0.3S324.8,179.3,324.3,179.1z M324.3,177.2c0.2,0.2,0.4,0.3,0.7,0.5
			c0.3,0.1,0.5,0.2,0.8,0.2s0.6-0.1,0.8-0.2s0.5-0.3,0.7-0.5c0.2-0.2,0.3-0.4,0.5-0.7s0.2-0.5,0.2-0.8s-0.1-0.6-0.2-0.8
			c-0.1-0.3-0.3-0.5-0.5-0.7c-0.2-0.2-0.4-0.4-0.7-0.5s-0.5-0.2-0.8-0.2s-0.6,0.1-0.8,0.2c-0.3,0.1-0.5,0.3-0.7,0.5
			s-0.3,0.4-0.4,0.7c-0.1,0.3-0.2,0.5-0.2,0.8s0.1,0.6,0.2,0.8C323.9,176.8,324.1,177,324.3,177.2z M333.3,188.1
			c-0.4-0.2-0.8-0.5-1.1-0.8s-0.6-0.7-0.8-1.2c-0.2-0.4-0.3-0.9-0.3-1.4c0-0.5,0.1-1,0.3-1.4c0.2-0.4,0.5-0.8,0.8-1.2
			s0.7-0.6,1.2-0.8c0.4-0.2,0.9-0.3,1.4-0.3s1,0.1,1.4,0.3s0.8,0.5,1.2,0.8c0.3,0.3,0.6,0.7,0.8,1.2c0.2,0.4,0.3,0.9,0.3,1.4
			c0,0.5-0.1,1-0.3,1.4c-0.2,0.4-0.5,0.8-0.8,1.2c-0.3,0.3-0.7,0.6-1.2,0.8c-0.4,0.2-0.9,0.3-1.4,0.3S333.8,188.3,333.3,188.1z
			 M333.3,186.2c0.2,0.2,0.4,0.3,0.7,0.5c0.3,0.1,0.5,0.2,0.8,0.2s0.6-0.1,0.8-0.2s0.5-0.3,0.7-0.5c0.2-0.2,0.3-0.4,0.5-0.7
			c0.1-0.3,0.2-0.5,0.2-0.8c0-0.3-0.1-0.6-0.2-0.8c-0.1-0.3-0.3-0.5-0.5-0.7c-0.2-0.2-0.4-0.4-0.7-0.5c-0.3-0.1-0.5-0.2-0.8-0.2
			s-0.6,0.1-0.8,0.2c-0.3,0.1-0.5,0.3-0.7,0.5s-0.3,0.4-0.4,0.7c-0.1,0.3-0.2,0.5-0.2,0.8c0,0.3,0.1,0.6,0.2,0.8
			C332.9,185.8,333.1,186,333.3,186.2z"/>
		<path class="st3" d="M347.8,188.2v-8h1v8H347.8z"/>
		<path class="st3" d="M351,188.2v-8h1l4,6v-6h0.9v8h-0.7l-4.3-6.3v6.3H351z"/>
		<path class="st3" d="M364.8,186.8c-0.1,0.2-0.2,0.4-0.4,0.6c-0.2,0.2-0.3,0.4-0.5,0.5c-0.2,0.2-0.4,0.3-0.7,0.4
			c-0.3,0.1-0.6,0.1-0.9,0.1c-0.5,0-0.9-0.1-1.3-0.2c-0.4-0.2-0.8-0.4-1.1-0.7c-0.3-0.3-0.5-0.8-0.7-1.3c-0.2-0.5-0.3-1.1-0.3-1.9
			c0-0.7,0.1-1.4,0.3-1.9s0.4-1,0.7-1.3c0.3-0.3,0.6-0.6,1-0.7s0.8-0.2,1.2-0.2c0.6,0,1.1,0.1,1.6,0.4c0.5,0.3,0.8,0.7,1.1,1.2
			l-0.8,0.5c-0.1-0.1-0.2-0.3-0.3-0.4c-0.1-0.1-0.3-0.3-0.4-0.4c-0.2-0.1-0.3-0.2-0.5-0.3s-0.4-0.1-0.6-0.1c-0.7,0-1.3,0.3-1.6,0.9
			s-0.6,1.4-0.6,2.5c0,0.5,0.1,1,0.2,1.4c0.1,0.4,0.3,0.7,0.5,1s0.5,0.5,0.7,0.6c0.3,0.1,0.6,0.2,0.9,0.2c0.2,0,0.4,0,0.6-0.1
			c0.2-0.1,0.3-0.2,0.5-0.3c0.1-0.1,0.3-0.2,0.4-0.4c0.1-0.1,0.2-0.3,0.3-0.5L364.8,186.8z"/>
		<path class="st3" d="M366.4,188.2v-8h2.6c0.9,0,1.6,0.2,2,0.6c0.4,0.4,0.6,0.9,0.6,1.6c0,0.4,0,0.7-0.1,0.9
			c-0.1,0.3-0.2,0.5-0.4,0.7c-0.2,0.2-0.4,0.3-0.6,0.4c-0.2,0.1-0.5,0.2-0.8,0.2l2.2,3.6h-1.1l-2.2-3.5h-1.2v3.5H366.4z
			 M367.3,183.9h1.5c1.1,0,1.7-0.5,1.7-1.5c0-0.5-0.1-0.8-0.4-1c-0.3-0.2-0.7-0.3-1.2-0.3h-1.6V183.9z"/>
		<path class="st3" d="M373.3,188.2v-8h4.7v0.8h-3.7v2.6h2.7v0.8h-2.7v3h4v0.8H373.3z"/>
		<path class="st3" d="M378.8,188.2l3.1-8h0.6l3.1,8h-1l-0.9-2.5h-2.9l-0.9,2.5H378.8z M381,184.9h2.3l-1.2-3.1L381,184.9z"/>
		<path class="st3" d="M387,186.5c0.2,0.3,0.5,0.6,0.9,0.8s0.8,0.3,1.2,0.3c0.2,0,0.4,0,0.6-0.1c0.2-0.1,0.4-0.1,0.5-0.2
			c0.1-0.1,0.3-0.2,0.3-0.4c0.1-0.2,0.1-0.4,0.1-0.6c0-0.2-0.1-0.4-0.2-0.6s-0.2-0.3-0.4-0.5s-0.4-0.3-0.6-0.4
			c-0.2-0.1-0.5-0.2-0.7-0.3c-0.3-0.1-0.5-0.2-0.8-0.4c-0.3-0.1-0.5-0.3-0.7-0.5s-0.4-0.4-0.5-0.6c-0.1-0.2-0.2-0.5-0.2-0.9
			c0-0.3,0.1-0.6,0.2-0.9c0.1-0.3,0.3-0.5,0.6-0.6s0.5-0.3,0.8-0.4c0.3-0.1,0.6-0.1,0.9-0.1c0.5,0,1,0.1,1.5,0.3
			c0.5,0.2,0.8,0.5,1.1,0.9l-0.7,0.6c-0.2-0.3-0.5-0.5-0.8-0.7c-0.3-0.2-0.7-0.3-1.1-0.3c-0.5,0-0.8,0.1-1.1,0.3
			c-0.3,0.2-0.4,0.5-0.4,0.8c0,0.2,0,0.4,0.1,0.5c0.1,0.1,0.2,0.3,0.4,0.4c0.2,0.1,0.4,0.2,0.6,0.3c0.2,0.1,0.5,0.2,0.8,0.3
			c0.3,0.1,0.5,0.2,0.8,0.4c0.3,0.1,0.5,0.3,0.7,0.5c0.2,0.2,0.4,0.4,0.5,0.6c0.1,0.2,0.2,0.5,0.2,0.9c0,0.4-0.1,0.8-0.2,1.1
			c-0.1,0.3-0.3,0.5-0.6,0.7c-0.2,0.2-0.5,0.3-0.8,0.4s-0.7,0.1-1,0.1c-0.3,0-0.5,0-0.8-0.1c-0.3-0.1-0.5-0.1-0.8-0.3
			s-0.5-0.2-0.7-0.4s-0.4-0.3-0.5-0.6L387,186.5z"/>
		<path class="st3" d="M393.4,188.2v-8h4.7v0.8h-3.7v2.6h2.7v0.8h-2.7v3h4v0.8H393.4z"/>
	</g>
	<g>
		<path class="st3" d="M256,8.1v-8h2.5c0.4,0,0.8,0,1.1,0.1c0.3,0.1,0.7,0.2,1,0.3c0.4,0.2,0.7,0.5,0.9,0.9c0.2,0.4,0.3,0.8,0.3,1.2
			c0,0.2,0,0.5-0.1,0.7c-0.1,0.2-0.2,0.5-0.3,0.7c-0.1,0.2-0.3,0.4-0.4,0.6c-0.2,0.2-0.4,0.3-0.6,0.4c-0.3,0.1-0.6,0.2-0.9,0.2
			s-0.6,0.1-0.9,0.1h-1.1v2.9H256z M257.6,3.9h0.9c0.2,0,0.4,0,0.6,0c0.2,0,0.3-0.1,0.5-0.1c0.2-0.1,0.4-0.2,0.5-0.4
			c0.1-0.2,0.1-0.4,0.1-0.6c0-0.2-0.1-0.4-0.2-0.6c-0.1-0.2-0.3-0.3-0.5-0.4c-0.1,0-0.3-0.1-0.4-0.1c-0.2,0-0.3,0-0.6,0h-1V3.9z"/>
		<path class="st3" d="M263.2,8.1V2.4h1.4l0.1,0.5c0.2-0.2,0.4-0.4,0.7-0.5c0.2-0.1,0.5-0.1,0.7-0.1c0.1,0,0.3,0,0.4,0
			c0.2,0,0.3,0.1,0.5,0.1l-0.3,1.4c-0.2-0.1-0.3-0.1-0.5-0.1s-0.3-0.1-0.4-0.1c-0.2,0-0.4,0.1-0.6,0.2c-0.2,0.1-0.3,0.2-0.4,0.4v4.1
			H263.2z"/>
		<path class="st3" d="M269.1,5.6c0,0.5,0.2,0.8,0.5,1.1c0.3,0.2,0.5,0.3,0.9,0.3c0.3,0,0.5,0,0.8-0.1c0.2-0.1,0.5-0.3,0.7-0.7
			l1.2,0.7c-0.3,0.5-0.7,0.9-1.1,1.1c-0.4,0.2-0.9,0.3-1.5,0.3c-0.4,0-0.7-0.1-1.1-0.2c-0.3-0.1-0.6-0.3-0.9-0.6s-0.5-0.6-0.6-0.9
			c-0.2-0.4-0.2-0.8-0.2-1.3c0-0.5,0.1-0.9,0.2-1.3c0.1-0.4,0.4-0.7,0.6-0.9c0.3-0.3,0.6-0.5,0.9-0.6c0.3-0.1,0.7-0.2,1.1-0.2
			c0.8,0,1.5,0.3,2,0.8s0.7,1.4,0.8,2.6H269.1z M271.4,4.5c0-0.4-0.2-0.7-0.4-0.9c-0.2-0.2-0.5-0.3-0.7-0.3c-0.1,0-0.3,0-0.4,0.1
			c-0.1,0.1-0.3,0.1-0.4,0.2s-0.2,0.2-0.3,0.4s-0.1,0.3-0.1,0.5H271.4z"/>
		<path class="st3" d="M276.2,8.1l-2.6-5.8h1.7l1.6,3.8l1.5-3.8h1.6l-2.5,5.8H276.2z"/>
		<path class="st3" d="M281.9,1.7c-0.3,0-0.5-0.1-0.7-0.3c-0.2-0.2-0.2-0.4-0.2-0.6c0-0.2,0.1-0.4,0.2-0.6c0.2-0.2,0.4-0.3,0.7-0.3
			c0.3,0,0.5,0.1,0.7,0.3c0.2,0.2,0.2,0.4,0.2,0.6c0,0.2-0.1,0.4-0.2,0.6C282.4,1.6,282.2,1.7,281.9,1.7z M281.1,8.1V2.4h1.6v5.8
			H281.1z"/>
		<path class="st3" d="M285.8,8c-0.4-0.2-0.7-0.4-0.9-0.7c-0.2-0.3-0.4-0.6-0.5-1c-0.1-0.4-0.2-0.7-0.2-1.1s0.1-0.7,0.2-1.1
			c0.1-0.4,0.3-0.7,0.5-1c0.2-0.3,0.5-0.5,0.9-0.7c0.4-0.2,0.8-0.3,1.3-0.3s0.9,0.1,1.3,0.3c0.4,0.2,0.7,0.4,0.9,0.7
			c0.2,0.3,0.4,0.6,0.5,1s0.2,0.7,0.2,1.1s-0.1,0.7-0.2,1.1c-0.1,0.4-0.3,0.7-0.5,1c-0.2,0.3-0.5,0.5-0.9,0.7
			c-0.4,0.2-0.8,0.3-1.3,0.3S286.2,8.2,285.8,8z M286,6.5c0.1,0.2,0.3,0.3,0.4,0.4c0.2,0.1,0.4,0.1,0.6,0.1c0.2,0,0.4,0,0.6-0.1
			c0.2-0.1,0.3-0.2,0.4-0.4c0.1-0.2,0.2-0.3,0.3-0.6s0.1-0.4,0.1-0.7c0-0.2,0-0.5-0.1-0.7c-0.1-0.2-0.1-0.4-0.3-0.6
			c-0.1-0.2-0.3-0.3-0.4-0.4c-0.2-0.1-0.4-0.1-0.6-0.1s-0.4,0-0.6,0.1c-0.2,0.1-0.3,0.2-0.4,0.4c-0.1,0.2-0.2,0.3-0.3,0.6
			c-0.1,0.2-0.1,0.4-0.1,0.7c0,0.2,0,0.5,0.1,0.7C285.8,6.1,285.9,6.3,286,6.5z"/>
		<path class="st3" d="M295.4,8.1l-0.1-0.5c-0.3,0.2-0.6,0.4-0.9,0.5s-0.6,0.1-0.9,0.1c-0.7,0-1.2-0.2-1.6-0.6
			c-0.4-0.4-0.6-1-0.6-1.8V2.4h1.6v3.3c0,0.4,0.1,0.7,0.2,1S293.7,7,294,7c0.3,0,0.6-0.1,0.8-0.2c0.2-0.1,0.4-0.2,0.5-0.3V2.4h1.6
			v5.8H295.4z"/>
		<path class="st3" d="M299.5,6.2c0.1,0.3,0.3,0.5,0.6,0.6c0.2,0.2,0.5,0.3,0.9,0.3c0.3,0,0.6,0,0.8-0.1s0.3-0.2,0.3-0.4
			c0-0.2-0.1-0.3-0.3-0.4c-0.2-0.1-0.5-0.2-1.1-0.3c-0.3-0.1-0.6-0.1-0.8-0.2s-0.5-0.2-0.6-0.4c-0.2-0.1-0.3-0.3-0.4-0.5
			c-0.1-0.2-0.1-0.4-0.1-0.7c0-0.5,0.2-0.9,0.6-1.2c0.4-0.3,1-0.5,1.7-0.5c0.7,0,1.2,0.1,1.6,0.3s0.7,0.5,0.9,0.8l-1.1,0.8
			c-0.1-0.2-0.3-0.4-0.6-0.5c-0.2-0.1-0.5-0.2-0.8-0.2c-0.3,0-0.6,0-0.7,0.1c-0.1,0.1-0.2,0.2-0.2,0.4c0,0.2,0.1,0.3,0.2,0.4
			s0.5,0.2,0.9,0.3c0.4,0.1,0.7,0.2,0.9,0.3c0.3,0.1,0.5,0.2,0.7,0.4c0.2,0.1,0.3,0.3,0.4,0.5c0.1,0.2,0.2,0.5,0.2,0.7
			c0,0.3-0.1,0.6-0.2,0.8s-0.3,0.4-0.5,0.6c-0.2,0.1-0.5,0.3-0.8,0.3c-0.3,0.1-0.6,0.1-1,0.1c-0.7,0-1.2-0.1-1.7-0.4
			c-0.4-0.3-0.8-0.6-1-1L299.5,6.2z"/>
		<path class="st3" d="M307.7,8.1v-8h2.5c0.4,0,0.8,0,1.1,0.1c0.3,0.1,0.7,0.2,1,0.3c0.4,0.2,0.7,0.5,0.9,0.9
			c0.2,0.4,0.3,0.8,0.3,1.2c0,0.2,0,0.5-0.1,0.7c-0.1,0.2-0.2,0.5-0.3,0.7c-0.1,0.2-0.3,0.4-0.4,0.6c-0.2,0.2-0.4,0.3-0.6,0.4
			c-0.3,0.1-0.6,0.2-0.9,0.2s-0.6,0.1-0.9,0.1h-1.1v2.9H307.7z M309.3,3.9h0.9c0.2,0,0.4,0,0.6,0c0.2,0,0.3-0.1,0.5-0.1
			c0.2-0.1,0.4-0.2,0.5-0.4c0.1-0.2,0.1-0.4,0.1-0.6c0-0.2-0.1-0.4-0.2-0.6c-0.1-0.2-0.3-0.3-0.5-0.4c-0.1,0-0.3-0.1-0.4-0.1
			c-0.2,0-0.3,0-0.6,0h-1V3.9z"/>
		<path class="st3" d="M315,8.1V2.4h1.4l0.1,0.5c0.2-0.2,0.4-0.4,0.7-0.5c0.2-0.1,0.5-0.1,0.7-0.1c0.1,0,0.3,0,0.4,0
			c0.2,0,0.3,0.1,0.5,0.1l-0.3,1.4c-0.2-0.1-0.3-0.1-0.5-0.1s-0.3-0.1-0.4-0.1c-0.2,0-0.4,0.1-0.6,0.2c-0.2,0.1-0.3,0.2-0.4,0.4v4.1
			H315z"/>
		<path class="st3" d="M320.9,8c-0.4-0.2-0.7-0.4-0.9-0.7c-0.2-0.3-0.4-0.6-0.5-1c-0.1-0.4-0.2-0.7-0.2-1.1s0.1-0.7,0.2-1.1
			c0.1-0.4,0.3-0.7,0.5-1c0.2-0.3,0.5-0.5,0.9-0.7c0.4-0.2,0.8-0.3,1.3-0.3s0.9,0.1,1.3,0.3c0.4,0.2,0.7,0.4,0.9,0.7
			c0.2,0.3,0.4,0.6,0.5,1s0.2,0.7,0.2,1.1S325,6,324.9,6.3c-0.1,0.4-0.3,0.7-0.5,1c-0.2,0.3-0.5,0.5-0.9,0.7
			c-0.4,0.2-0.8,0.3-1.3,0.3S321.2,8.2,320.9,8z M321.1,6.5c0.1,0.2,0.3,0.3,0.4,0.4c0.2,0.1,0.4,0.1,0.6,0.1c0.2,0,0.4,0,0.6-0.1
			c0.2-0.1,0.3-0.2,0.4-0.4c0.1-0.2,0.2-0.3,0.3-0.6s0.1-0.4,0.1-0.7c0-0.2,0-0.5-0.1-0.7c-0.1-0.2-0.1-0.4-0.3-0.6
			c-0.1-0.2-0.3-0.3-0.4-0.4c-0.2-0.1-0.4-0.1-0.6-0.1s-0.4,0-0.6,0.1c-0.2,0.1-0.3,0.2-0.4,0.4c-0.1,0.2-0.2,0.3-0.3,0.6
			c-0.1,0.2-0.1,0.4-0.1,0.7c0,0.2,0,0.5,0.1,0.7C320.9,6.1,321,6.3,321.1,6.5z"/>
		<path class="st3" d="M330.3,8.1l-0.1-0.4c-0.1,0.2-0.3,0.3-0.6,0.4s-0.5,0.2-0.8,0.2c-0.4,0-0.8-0.1-1.1-0.3
			c-0.3-0.2-0.6-0.4-0.8-0.7c-0.2-0.3-0.4-0.6-0.5-1c-0.1-0.4-0.2-0.8-0.2-1.2c0-0.4,0.1-0.7,0.2-1.1c0.1-0.4,0.3-0.7,0.5-1
			c0.2-0.3,0.5-0.5,0.9-0.7s0.8-0.3,1.3-0.3c0.3,0,0.7,0.1,1,0.2V0.1h1.6v8H330.3z M330.1,3.6c-0.3-0.1-0.6-0.2-0.8-0.2
			s-0.5,0-0.7,0.1c-0.2,0.1-0.4,0.2-0.5,0.4s-0.2,0.3-0.3,0.6c-0.1,0.2-0.1,0.4-0.1,0.6c0,0.2,0,0.5,0.1,0.7
			c0.1,0.2,0.1,0.4,0.3,0.6c0.1,0.2,0.3,0.3,0.4,0.4s0.4,0.1,0.6,0.1c0.2,0,0.4,0,0.6-0.1s0.3-0.2,0.4-0.4V3.6z"/>
		<path class="st3" d="M337.5,8.1l-0.1-0.5c-0.3,0.2-0.6,0.4-0.9,0.5s-0.6,0.1-0.9,0.1c-0.7,0-1.2-0.2-1.6-0.6
			c-0.4-0.4-0.6-1-0.6-1.8V2.4h1.6v3.3c0,0.4,0.1,0.7,0.2,1s0.4,0.4,0.8,0.4c0.3,0,0.6-0.1,0.8-0.2c0.2-0.1,0.4-0.2,0.5-0.3V2.4h1.6
			v5.8H337.5z"/>
		<path class="st3" d="M345.7,6.7c-0.2,0.5-0.6,0.9-1,1.2c-0.4,0.2-0.9,0.4-1.5,0.4c-0.4,0-0.7-0.1-1.1-0.2s-0.6-0.3-0.9-0.6
			c-0.3-0.3-0.5-0.6-0.6-0.9c-0.2-0.4-0.2-0.8-0.2-1.3c0-0.5,0.1-1,0.2-1.3c0.2-0.4,0.4-0.7,0.6-1s0.5-0.4,0.9-0.6
			c0.3-0.1,0.7-0.2,1-0.2c0.4,0,0.7,0.1,0.9,0.2s0.5,0.2,0.7,0.4c0.2,0.2,0.4,0.3,0.5,0.5c0.1,0.2,0.2,0.4,0.3,0.6l-1.2,0.6
			c-0.1-0.4-0.3-0.7-0.5-0.8c-0.2-0.2-0.4-0.2-0.7-0.2c-0.2,0-0.3,0-0.5,0.1c-0.1,0.1-0.3,0.2-0.4,0.3s-0.2,0.3-0.3,0.6
			C342,4.7,342,4.9,342,5.2c0,0.6,0.1,1,0.4,1.3s0.6,0.5,1,0.5c0.3,0,0.6-0.1,0.7-0.2c0.2-0.2,0.4-0.4,0.5-0.6L345.7,6.7z"/>
		<path class="st3" d="M348.8,6.5c0,0.2,0,0.3,0.1,0.4S349,7,349.1,7c0.2,0,0.3,0,0.5-0.1c0.2-0.1,0.3-0.2,0.4-0.3l0.6,1.1
			c-0.3,0.2-0.5,0.3-0.8,0.4c-0.3,0.1-0.6,0.2-0.9,0.2c-0.2,0-0.4,0-0.6-0.1c-0.2-0.1-0.4-0.1-0.5-0.3c-0.1-0.1-0.3-0.3-0.4-0.5
			c-0.1-0.2-0.1-0.4-0.1-0.7V3.6h-0.9V2.4h0.9V0.9h1.6v1.5h1.4v1.2h-1.4V6.5z"/>
		<path class="st3" d="M352.4,1.7c-0.3,0-0.5-0.1-0.7-0.3c-0.2-0.2-0.2-0.4-0.2-0.6c0-0.2,0.1-0.4,0.2-0.6c0.2-0.2,0.4-0.3,0.7-0.3
			c0.3,0,0.5,0.1,0.7,0.3c0.2,0.2,0.2,0.4,0.2,0.6c0,0.2-0.1,0.4-0.2,0.6C353,1.6,352.7,1.7,352.4,1.7z M351.7,8.1V2.4h1.6v5.8
			H351.7z"/>
		<path class="st3" d="M356.9,8.1l-2.6-5.8h1.7l1.6,3.8l1.5-3.8h1.6l-2.5,5.8H356.9z"/>
		<path class="st3" d="M362.6,1.7c-0.3,0-0.5-0.1-0.7-0.3c-0.2-0.2-0.2-0.4-0.2-0.6c0-0.2,0.1-0.4,0.2-0.6c0.2-0.2,0.4-0.3,0.7-0.3
			c0.3,0,0.5,0.1,0.7,0.3c0.2,0.2,0.2,0.4,0.2,0.6c0,0.2-0.1,0.4-0.2,0.6C363.1,1.6,362.9,1.7,362.6,1.7z M361.8,8.1V2.4h1.6v5.8
			H361.8z"/>
		<path class="st3" d="M367,6.5c0,0.2,0,0.3,0.1,0.4s0.2,0.1,0.2,0.1c0.2,0,0.3,0,0.5-0.1c0.2-0.1,0.3-0.2,0.4-0.3l0.6,1.1
			c-0.3,0.2-0.5,0.3-0.8,0.4c-0.3,0.1-0.6,0.2-0.9,0.2c-0.2,0-0.4,0-0.6-0.1c-0.2-0.1-0.4-0.1-0.5-0.3c-0.1-0.1-0.3-0.3-0.4-0.5
			c-0.1-0.2-0.1-0.4-0.1-0.7V3.6h-0.9V2.4h0.9V0.9h1.6v1.5h1.4v1.2H367V6.5z"/>
		<path class="st3" d="M369.7,9.1c0.2,0.1,0.3,0.1,0.5,0.2c0.1,0,0.3,0,0.4,0c0.1,0,0.2,0,0.3-0.1c0.1-0.1,0.2-0.2,0.3-0.3l0.4-1
			l-2.4-5.5h1.7l1.5,3.9l1.4-3.9h1.6l-3,7.2c-0.1,0.2-0.2,0.4-0.3,0.5c-0.1,0.1-0.3,0.2-0.4,0.3c-0.1,0.1-0.3,0.1-0.5,0.2
			c-0.2,0-0.3,0-0.5,0c-0.2,0-0.4,0-0.7-0.1c-0.3-0.1-0.5-0.1-0.8-0.2L369.7,9.1z"/>
		<path class="st3" d="M379.3,8.1v-8h1.6v6.6h4v1.5H379.3z"/>
		<path class="st3" d="M387,5.6c0,0.5,0.2,0.8,0.5,1.1c0.3,0.2,0.5,0.3,0.9,0.3c0.3,0,0.5,0,0.8-0.1c0.2-0.1,0.5-0.3,0.7-0.7
			l1.2,0.7c-0.3,0.5-0.7,0.9-1.1,1.1c-0.4,0.2-0.9,0.3-1.5,0.3c-0.4,0-0.7-0.1-1.1-0.2c-0.3-0.1-0.6-0.3-0.9-0.6s-0.5-0.6-0.6-0.9
			c-0.2-0.4-0.2-0.8-0.2-1.3c0-0.5,0.1-0.9,0.2-1.3c0.1-0.4,0.4-0.7,0.6-0.9c0.3-0.3,0.6-0.5,0.9-0.6c0.3-0.1,0.7-0.2,1.1-0.2
			c0.8,0,1.5,0.3,2,0.8s0.7,1.4,0.8,2.6H387z M389.4,4.5c0-0.4-0.2-0.7-0.4-0.9c-0.2-0.2-0.5-0.3-0.7-0.3c-0.1,0-0.3,0-0.4,0.1
			c-0.1,0.1-0.3,0.1-0.4,0.2s-0.2,0.2-0.3,0.4s-0.1,0.3-0.1,0.5H389.4z"/>
		<path class="st3" d="M394.1,8.1l-2.6-5.8h1.7l1.6,3.8l1.5-3.8h1.6l-2.5,5.8H394.1z"/>
		<path class="st3" d="M400.1,5.6c0,0.5,0.2,0.8,0.5,1.1c0.3,0.2,0.5,0.3,0.9,0.3c0.3,0,0.5,0,0.8-0.1c0.2-0.1,0.5-0.3,0.7-0.7
			l1.2,0.7c-0.3,0.5-0.7,0.9-1.1,1.1c-0.4,0.2-0.9,0.3-1.5,0.3c-0.4,0-0.7-0.1-1.1-0.2c-0.3-0.1-0.6-0.3-0.9-0.6s-0.5-0.6-0.6-0.9
			c-0.2-0.4-0.2-0.8-0.2-1.3c0-0.5,0.1-0.9,0.2-1.3c0.1-0.4,0.4-0.7,0.6-0.9c0.3-0.3,0.6-0.5,0.9-0.6c0.3-0.1,0.7-0.2,1.1-0.2
			c0.8,0,1.5,0.3,2,0.8s0.7,1.4,0.8,2.6H400.1z M402.5,4.5c0-0.4-0.2-0.7-0.4-0.9c-0.2-0.2-0.5-0.3-0.7-0.3c-0.1,0-0.3,0-0.4,0.1
			c-0.1,0.1-0.3,0.1-0.4,0.2s-0.2,0.2-0.3,0.4s-0.1,0.3-0.1,0.5H402.5z"/>
		<path class="st3" d="M405.5,8.1v-8h1.6v8H405.5z"/>
	</g>
	<g>
		<path class="st3" d="M165.1,254.4l-0.3-0.6l1.5-1l-1.5-1l0.4-0.6l1.4,1v-1.6h0.7v1.6l1.4-0.9l0.4,0.6l-1.5,1l1.5,1l-0.3,0.6
			l-1.5-1v1.7h-0.7v-1.7L165.1,254.4z"/>
		<path class="st3" d="M179,257.7c-0.1,0.2-0.2,0.4-0.4,0.6c-0.2,0.2-0.3,0.4-0.5,0.5c-0.2,0.2-0.4,0.3-0.7,0.4s-0.6,0.1-0.9,0.1
			c-0.5,0-0.9-0.1-1.3-0.2s-0.8-0.4-1.1-0.7c-0.3-0.3-0.5-0.8-0.7-1.3c-0.2-0.5-0.3-1.1-0.3-1.9c0-0.7,0.1-1.4,0.3-1.9
			c0.2-0.5,0.4-1,0.7-1.3c0.3-0.3,0.6-0.6,1-0.7c0.4-0.2,0.8-0.2,1.2-0.2c0.6,0,1.1,0.1,1.6,0.4c0.5,0.3,0.8,0.7,1.1,1.2l-0.8,0.5
			c-0.1-0.1-0.2-0.3-0.3-0.4c-0.1-0.1-0.3-0.3-0.4-0.4c-0.2-0.1-0.3-0.2-0.5-0.3s-0.4-0.1-0.6-0.1c-0.7,0-1.3,0.3-1.6,0.9
			c-0.4,0.6-0.6,1.4-0.6,2.5c0,0.5,0.1,1,0.2,1.4s0.3,0.7,0.5,1c0.2,0.3,0.5,0.5,0.7,0.6c0.3,0.1,0.6,0.2,0.9,0.2
			c0.2,0,0.4,0,0.6-0.1c0.2-0.1,0.3-0.1,0.5-0.3s0.3-0.2,0.4-0.4c0.1-0.1,0.2-0.3,0.3-0.5L179,257.7z"/>
		<path class="st3" d="M181.3,257.1c0,0.5,0.1,0.9,0.3,1.1c0.2,0.2,0.6,0.3,1,0.3c0.3,0,0.6-0.1,0.9-0.2s0.5-0.3,0.7-0.5v-4.5h0.9
			v5.7h-0.9l-0.1-0.4c-0.2,0.2-0.5,0.3-0.8,0.4c-0.3,0.1-0.6,0.2-1,0.2c-0.8,0-1.3-0.2-1.6-0.6c-0.3-0.4-0.5-0.9-0.5-1.7v-3.6h0.9
			V257.1z"/>
		<path class="st3" d="M187.5,257.7c0.1,0.3,0.3,0.5,0.5,0.6c0.2,0.1,0.5,0.2,0.9,0.2c0.8,0,1.2-0.3,1.2-0.8c0-0.2,0-0.3-0.1-0.4
			c-0.1-0.1-0.1-0.2-0.3-0.3c-0.1-0.1-0.3-0.2-0.5-0.3s-0.4-0.2-0.7-0.3c-0.3-0.1-0.5-0.2-0.7-0.3c-0.2-0.1-0.4-0.2-0.5-0.4
			s-0.2-0.3-0.3-0.4c-0.1-0.2-0.1-0.3-0.1-0.6c0-0.5,0.2-0.8,0.5-1.1c0.3-0.3,0.8-0.4,1.3-0.4c0.5,0,0.9,0.1,1.2,0.2
			c0.3,0.2,0.6,0.4,0.8,0.7l-0.6,0.5c-0.2-0.2-0.3-0.4-0.6-0.5c-0.2-0.1-0.5-0.2-0.7-0.2c-0.3,0-0.6,0.1-0.8,0.2
			c-0.2,0.1-0.2,0.3-0.2,0.5c0,0.1,0,0.2,0.1,0.3s0.1,0.2,0.2,0.3c0.1,0.1,0.3,0.2,0.4,0.2c0.2,0.1,0.4,0.2,0.7,0.3
			c0.5,0.2,0.9,0.4,1.2,0.7c0.3,0.3,0.4,0.7,0.4,1.1c0,0.3-0.1,0.5-0.2,0.7c-0.1,0.2-0.2,0.4-0.4,0.5c-0.2,0.1-0.4,0.3-0.6,0.3
			s-0.5,0.1-0.8,0.1c-0.6,0-1-0.1-1.3-0.3c-0.3-0.2-0.6-0.5-0.8-0.8L187.5,257.7z"/>
		<path class="st3" d="M193.7,257.8c0,0.3,0.1,0.5,0.2,0.6s0.2,0.1,0.4,0.1c0.2,0,0.3,0,0.4-0.1c0.1-0.1,0.3-0.1,0.4-0.2l0.4,0.6
			c-0.2,0.1-0.4,0.2-0.5,0.3c-0.2,0.1-0.4,0.1-0.8,0.1c-0.4,0-0.8-0.1-1-0.3c-0.2-0.2-0.3-0.6-0.3-1v-3.8h-1v-0.8h1v-1.6h0.9v1.6
			h1.5v0.8h-1.5V257.8z"/>
		<path class="st3" d="M197.9,259c-0.3-0.2-0.6-0.4-0.8-0.7c-0.2-0.3-0.4-0.6-0.5-1c-0.1-0.4-0.2-0.7-0.2-1.1s0.1-0.7,0.2-1.1
			c0.1-0.4,0.3-0.7,0.5-1s0.5-0.5,0.8-0.7s0.7-0.3,1.2-0.3c0.4,0,0.8,0.1,1.2,0.3s0.6,0.4,0.8,0.7c0.2,0.3,0.4,0.6,0.5,1
			c0.1,0.4,0.2,0.7,0.2,1.1s-0.1,0.7-0.2,1.1c-0.1,0.4-0.3,0.7-0.5,1c-0.2,0.3-0.5,0.5-0.8,0.7s-0.7,0.3-1.2,0.3
			S198.2,259.2,197.9,259z M197.8,257.8c0.2,0.2,0.3,0.4,0.6,0.5c0.2,0.1,0.5,0.2,0.8,0.2c0.3,0,0.6-0.1,0.8-0.2
			c0.2-0.1,0.4-0.3,0.6-0.5s0.3-0.5,0.3-0.7c0.1-0.3,0.1-0.5,0.1-0.8c0-0.3,0-0.6-0.1-0.8c-0.1-0.3-0.2-0.5-0.3-0.7
			s-0.3-0.4-0.6-0.5c-0.2-0.1-0.5-0.2-0.8-0.2s-0.6,0.1-0.8,0.2s-0.4,0.3-0.5,0.5s-0.3,0.5-0.3,0.7c-0.1,0.3-0.1,0.5-0.1,0.8
			c0,0.3,0,0.6,0.1,0.8C197.5,257.4,197.6,257.6,197.8,257.8z"/>
		<path class="st3" d="M203.4,259.1v-5.7h0.9l0.1,0.5c0.2-0.1,0.4-0.3,0.7-0.4s0.6-0.2,1-0.2c0.3,0,0.6,0.1,0.9,0.2
			c0.3,0.1,0.5,0.3,0.7,0.6c0.2-0.2,0.5-0.4,0.9-0.5c0.3-0.1,0.7-0.2,1.1-0.2c0.4,0,0.7,0.1,1,0.2c0.3,0.1,0.5,0.3,0.6,0.5
			c0.2,0.2,0.3,0.5,0.3,0.8s0.1,0.6,0.1,1v3.5h-0.9v-3.6c0-0.5-0.1-0.9-0.3-1.1c-0.2-0.3-0.5-0.4-1-0.4c-0.2,0-0.3,0-0.5,0.1
			s-0.3,0.1-0.4,0.2c-0.1,0.1-0.3,0.1-0.4,0.2c-0.1,0.1-0.2,0.1-0.3,0.2c0,0.1,0.1,0.3,0.1,0.4s0,0.3,0,0.6v3.5h-0.9v-3.6
			c0-0.2,0-0.4-0.1-0.6c0-0.2-0.1-0.3-0.2-0.5c-0.1-0.1-0.2-0.2-0.4-0.3s-0.3-0.1-0.6-0.1c-0.3,0-0.6,0.1-0.8,0.2
			c-0.3,0.1-0.5,0.3-0.7,0.4v4.5H203.4z"/>
		<path class="st3" d="M214.3,256.2c0,0.7,0.2,1.3,0.5,1.7c0.3,0.4,0.8,0.6,1.4,0.6c0.4,0,0.7-0.1,0.9-0.3s0.4-0.4,0.6-0.6l0.6,0.4
			c-0.2,0.4-0.5,0.7-0.8,0.9c-0.3,0.2-0.8,0.4-1.3,0.4c-0.4,0-0.8-0.1-1.2-0.2c-0.3-0.1-0.6-0.3-0.9-0.6s-0.4-0.6-0.6-0.9
			s-0.2-0.8-0.2-1.3c0-0.5,0.1-0.9,0.2-1.2s0.3-0.7,0.5-0.9c0.2-0.3,0.5-0.5,0.8-0.6c0.3-0.1,0.7-0.2,1-0.2c0.4,0,0.8,0.1,1.1,0.2
			c0.3,0.1,0.6,0.3,0.8,0.6s0.4,0.6,0.5,0.9c0.1,0.4,0.2,0.8,0.2,1.2H214.3z M217.4,255.5c0-0.2-0.1-0.5-0.1-0.7
			c-0.1-0.2-0.2-0.3-0.3-0.5c-0.1-0.1-0.3-0.2-0.5-0.3c-0.2-0.1-0.4-0.1-0.5-0.1c-0.4,0-0.7,0.1-1,0.3c-0.3,0.2-0.5,0.6-0.6,1.1
			H217.4z"/>
		<path class="st3" d="M220,259.1v-5.7h0.8l0.1,0.5c0.2-0.2,0.3-0.3,0.6-0.4c0.2-0.1,0.5-0.2,0.7-0.2c0.2,0,0.3,0,0.5,0
			c0.1,0,0.3,0,0.3,0.1l-0.2,0.9c-0.2-0.1-0.5-0.1-0.8-0.1c-0.2,0-0.5,0.1-0.7,0.2c-0.2,0.1-0.4,0.3-0.5,0.4v4.5H220z"/>
		<path class="st3" d="M226.9,259.1v-5.7h0.8l0.1,0.5c0.2-0.2,0.3-0.3,0.6-0.4c0.2-0.1,0.5-0.2,0.7-0.2c0.2,0,0.3,0,0.5,0
			c0.1,0,0.3,0,0.3,0.1l-0.2,0.9c-0.2-0.1-0.5-0.1-0.8-0.1c-0.2,0-0.5,0.1-0.7,0.2c-0.2,0.1-0.4,0.3-0.5,0.4v4.5H226.9z"/>
		<path class="st3" d="M231.6,256.2c0,0.7,0.2,1.3,0.5,1.7c0.3,0.4,0.8,0.6,1.4,0.6c0.4,0,0.7-0.1,0.9-0.3s0.4-0.4,0.6-0.6l0.6,0.4
			c-0.2,0.4-0.5,0.7-0.8,0.9c-0.3,0.2-0.8,0.4-1.3,0.4c-0.4,0-0.8-0.1-1.2-0.2c-0.3-0.1-0.6-0.3-0.9-0.6s-0.4-0.6-0.6-0.9
			s-0.2-0.8-0.2-1.3c0-0.5,0.1-0.9,0.2-1.2s0.3-0.7,0.5-0.9c0.2-0.3,0.5-0.5,0.8-0.6c0.3-0.1,0.7-0.2,1-0.2c0.4,0,0.8,0.1,1.1,0.2
			c0.3,0.1,0.6,0.3,0.8,0.6s0.4,0.6,0.5,0.9c0.1,0.4,0.2,0.8,0.2,1.2H231.6z M234.7,255.5c0-0.2-0.1-0.5-0.1-0.7
			c-0.1-0.2-0.2-0.3-0.3-0.5c-0.1-0.1-0.3-0.2-0.5-0.3c-0.2-0.1-0.4-0.1-0.5-0.1c-0.4,0-0.7,0.1-1,0.3c-0.3,0.2-0.5,0.6-0.6,1.1
			H234.7z"/>
		<path class="st3" d="M237.7,257.7c0.1,0.3,0.3,0.5,0.5,0.6c0.2,0.1,0.5,0.2,0.9,0.2c0.8,0,1.2-0.3,1.2-0.8c0-0.2,0-0.3-0.1-0.4
			c-0.1-0.1-0.1-0.2-0.3-0.3c-0.1-0.1-0.3-0.2-0.5-0.3s-0.4-0.2-0.7-0.3c-0.3-0.1-0.5-0.2-0.7-0.3c-0.2-0.1-0.4-0.2-0.5-0.4
			s-0.2-0.3-0.3-0.4c-0.1-0.2-0.1-0.3-0.1-0.6c0-0.5,0.2-0.8,0.5-1.1c0.3-0.3,0.8-0.4,1.3-0.4c0.5,0,0.9,0.1,1.2,0.2
			c0.3,0.2,0.6,0.4,0.8,0.7l-0.6,0.5c-0.2-0.2-0.3-0.4-0.6-0.5c-0.2-0.1-0.5-0.2-0.7-0.2c-0.3,0-0.6,0.1-0.8,0.2
			c-0.2,0.1-0.2,0.3-0.2,0.5c0,0.1,0,0.2,0.1,0.3s0.1,0.2,0.2,0.3c0.1,0.1,0.3,0.2,0.4,0.2c0.2,0.1,0.4,0.2,0.7,0.3
			c0.5,0.2,0.9,0.4,1.2,0.7c0.3,0.3,0.4,0.7,0.4,1.1c0,0.3-0.1,0.5-0.2,0.7c-0.1,0.2-0.2,0.4-0.4,0.5c-0.2,0.1-0.4,0.3-0.6,0.3
			s-0.5,0.1-0.8,0.1c-0.6,0-1-0.1-1.3-0.3c-0.3-0.2-0.6-0.5-0.8-0.8L237.7,257.7z"/>
		<path class="st3" d="M243.5,257.1c0,0.5,0.1,0.9,0.3,1.1c0.2,0.2,0.6,0.3,1,0.3c0.3,0,0.6-0.1,0.9-0.2s0.5-0.3,0.7-0.5v-4.5h0.9
			v5.7h-0.9l-0.1-0.4c-0.2,0.2-0.5,0.3-0.8,0.4c-0.3,0.1-0.6,0.2-1,0.2c-0.8,0-1.3-0.2-1.6-0.6c-0.3-0.4-0.5-0.9-0.5-1.7v-3.6h0.9
			V257.1z"/>
		<path class="st3" d="M249.3,259.1v-8h0.9v8H249.3z"/>
		<path class="st3" d="M253.5,257.8c0,0.3,0.1,0.5,0.2,0.6c0.1,0.1,0.2,0.1,0.4,0.1c0.2,0,0.3,0,0.4-0.1c0.1-0.1,0.3-0.1,0.4-0.2
			l0.4,0.6c-0.2,0.1-0.4,0.2-0.5,0.3c-0.2,0.1-0.4,0.1-0.8,0.1c-0.4,0-0.8-0.1-1-0.3c-0.2-0.2-0.3-0.6-0.3-1v-3.8h-1v-0.8h1v-1.6
			h0.9v1.6h1.5v0.8h-1.5V257.8z"/>
		<path class="st3" d="M256.8,257.7c0.1,0.3,0.3,0.5,0.5,0.6s0.5,0.2,0.9,0.2c0.8,0,1.2-0.3,1.2-0.8c0-0.2,0-0.3-0.1-0.4
			c-0.1-0.1-0.1-0.2-0.3-0.3c-0.1-0.1-0.3-0.2-0.5-0.3c-0.2-0.1-0.4-0.2-0.7-0.3c-0.3-0.1-0.5-0.2-0.7-0.3s-0.4-0.2-0.5-0.4
			s-0.2-0.3-0.3-0.4c-0.1-0.2-0.1-0.3-0.1-0.6c0-0.5,0.2-0.8,0.5-1.1c0.3-0.3,0.8-0.4,1.3-0.4c0.5,0,0.9,0.1,1.2,0.2
			c0.3,0.2,0.6,0.4,0.8,0.7l-0.6,0.5c-0.2-0.2-0.3-0.4-0.6-0.5c-0.2-0.1-0.5-0.2-0.7-0.2c-0.3,0-0.6,0.1-0.8,0.2
			c-0.2,0.1-0.2,0.3-0.2,0.5c0,0.1,0,0.2,0.1,0.3s0.1,0.2,0.2,0.3c0.1,0.1,0.3,0.2,0.4,0.2c0.2,0.1,0.4,0.2,0.7,0.3
			c0.5,0.2,0.9,0.4,1.2,0.7c0.3,0.3,0.4,0.7,0.4,1.1c0,0.3-0.1,0.5-0.2,0.7c-0.1,0.2-0.2,0.4-0.4,0.5c-0.2,0.1-0.4,0.3-0.6,0.3
			s-0.5,0.1-0.8,0.1c-0.6,0-1-0.1-1.3-0.3c-0.3-0.2-0.6-0.5-0.8-0.8L256.8,257.7z"/>
		<path class="st3" d="M262.1,259.3c-0.2,0-0.3-0.1-0.5-0.2s-0.2-0.3-0.2-0.5s0.1-0.4,0.2-0.5c0.1-0.1,0.3-0.2,0.5-0.2
			c0.2,0,0.3,0.1,0.5,0.2c0.1,0.1,0.2,0.3,0.2,0.5s-0.1,0.4-0.2,0.5C262.4,259.2,262.3,259.3,262.1,259.3z"/>
		<path class="st3" d="M269,259.1v-3.8l-2.7-4.2h1.1l2.1,3.2l2.2-3.2h1l-2.8,4.2v3.9H269z"/>
		<path class="st3" d="M274,259c-0.3-0.2-0.6-0.4-0.8-0.7c-0.2-0.3-0.4-0.6-0.5-1s-0.2-0.7-0.2-1.1s0.1-0.7,0.2-1.1
			c0.1-0.4,0.3-0.7,0.5-1s0.5-0.5,0.8-0.7s0.7-0.3,1.2-0.3c0.4,0,0.8,0.1,1.2,0.3s0.6,0.4,0.8,0.7c0.2,0.3,0.4,0.6,0.5,1
			c0.1,0.4,0.2,0.7,0.2,1.1s-0.1,0.7-0.2,1.1c-0.1,0.4-0.3,0.7-0.5,1c-0.2,0.3-0.5,0.5-0.8,0.7s-0.7,0.3-1.2,0.3
			C274.7,259.3,274.3,259.2,274,259z M273.8,257.8c0.2,0.2,0.3,0.4,0.6,0.5c0.2,0.1,0.5,0.2,0.8,0.2c0.3,0,0.6-0.1,0.8-0.2
			c0.2-0.1,0.4-0.3,0.6-0.5c0.1-0.2,0.3-0.5,0.3-0.7c0.1-0.3,0.1-0.5,0.1-0.8c0-0.3,0-0.6-0.1-0.8c-0.1-0.3-0.2-0.5-0.3-0.7
			c-0.1-0.2-0.3-0.4-0.6-0.5c-0.2-0.1-0.5-0.2-0.8-0.2s-0.6,0.1-0.8,0.2c-0.2,0.1-0.4,0.3-0.5,0.5c-0.1,0.2-0.3,0.5-0.3,0.7
			c-0.1,0.3-0.1,0.5-0.1,0.8c0,0.3,0,0.6,0.1,0.8C273.6,257.4,273.7,257.6,273.8,257.8z"/>
		<path class="st3" d="M280.4,257.1c0,0.5,0.1,0.9,0.3,1.1c0.2,0.2,0.6,0.3,1,0.3c0.3,0,0.6-0.1,0.9-0.2s0.5-0.3,0.7-0.5v-4.5h0.9
			v5.7h-0.9l-0.1-0.4c-0.2,0.2-0.5,0.3-0.8,0.4c-0.3,0.1-0.6,0.2-1,0.2c-0.8,0-1.3-0.2-1.6-0.6s-0.5-0.9-0.5-1.7v-3.6h0.9V257.1z"/>
		<path class="st3" d="M286.3,259.1v-5.7h0.8l0.1,0.5c0.2-0.2,0.3-0.3,0.6-0.4s0.5-0.2,0.7-0.2c0.2,0,0.3,0,0.5,0
			c0.1,0,0.3,0,0.3,0.1l-0.2,0.9c-0.2-0.1-0.5-0.1-0.8-0.1c-0.2,0-0.5,0.1-0.7,0.2c-0.2,0.1-0.4,0.3-0.5,0.4v4.5H286.3z"/>
		<path class="st3" d="M293.8,256.2c0,0.7,0.2,1.3,0.5,1.7c0.3,0.4,0.8,0.6,1.4,0.6c0.4,0,0.7-0.1,0.9-0.3s0.4-0.4,0.6-0.6l0.6,0.4
			c-0.2,0.4-0.5,0.7-0.8,0.9c-0.3,0.2-0.8,0.4-1.3,0.4c-0.4,0-0.8-0.1-1.2-0.2c-0.3-0.1-0.6-0.3-0.9-0.6c-0.2-0.3-0.4-0.6-0.6-0.9
			s-0.2-0.8-0.2-1.3c0-0.5,0.1-0.9,0.2-1.2s0.3-0.7,0.5-0.9c0.2-0.3,0.5-0.5,0.8-0.6c0.3-0.1,0.7-0.2,1.1-0.2c0.4,0,0.8,0.1,1.1,0.2
			c0.3,0.1,0.6,0.3,0.8,0.6s0.4,0.6,0.5,0.9c0.1,0.4,0.2,0.8,0.2,1.2H293.8z M296.9,255.5c0-0.2-0.1-0.5-0.1-0.7
			c-0.1-0.2-0.2-0.3-0.3-0.5c-0.1-0.1-0.3-0.2-0.5-0.3c-0.2-0.1-0.4-0.1-0.5-0.1c-0.4,0-0.7,0.1-1,0.3c-0.3,0.2-0.5,0.6-0.6,1.1
			H296.9z"/>
		<path class="st3" d="M298.7,259.1l1.9-2.9l-1.8-2.8h1l1.3,2.1l1.3-2.1h1l-1.8,2.8l1.9,2.9h-1l-1.4-2.1l-1.4,2.1H298.7z"/>
		<path class="st3" d="M304.6,261.4v-8h0.8l0.1,0.4c0.2-0.2,0.5-0.3,0.8-0.4c0.3-0.1,0.6-0.1,0.9-0.1c0.4,0,0.8,0.1,1.1,0.2
			s0.5,0.4,0.7,0.6c0.2,0.3,0.3,0.6,0.4,0.9c0.1,0.4,0.1,0.7,0.1,1.1c0,0.5-0.1,0.9-0.2,1.3c-0.1,0.4-0.3,0.7-0.6,1
			s-0.6,0.5-0.9,0.6c-0.4,0.1-0.7,0.2-1.1,0.2c-0.4,0-0.8-0.1-1.1-0.2v2.3H304.6z M305.6,258.3c0.1,0.1,0.2,0.1,0.4,0.2
			c0.2,0.1,0.4,0.1,0.6,0.1c0.3,0,0.6-0.1,0.8-0.2c0.3-0.1,0.5-0.3,0.7-0.4c0.2-0.2,0.3-0.4,0.4-0.7c0.1-0.3,0.2-0.6,0.2-1
			c0-0.3,0-0.5-0.1-0.8c-0.1-0.3-0.1-0.5-0.3-0.7s-0.3-0.4-0.5-0.5c-0.2-0.1-0.5-0.2-0.8-0.2c-0.3,0-0.5,0.1-0.7,0.2
			s-0.5,0.3-0.7,0.4V258.3z"/>
		<path class="st3" d="M311.9,256.2c0,0.7,0.2,1.3,0.5,1.7c0.3,0.4,0.8,0.6,1.4,0.6c0.4,0,0.7-0.1,0.9-0.3s0.4-0.4,0.6-0.6l0.6,0.4
			c-0.2,0.4-0.5,0.7-0.8,0.9c-0.3,0.2-0.8,0.4-1.3,0.4c-0.4,0-0.8-0.1-1.2-0.2c-0.3-0.1-0.6-0.3-0.9-0.6c-0.2-0.3-0.4-0.6-0.6-0.9
			s-0.2-0.8-0.2-1.3c0-0.5,0.1-0.9,0.2-1.2s0.3-0.7,0.5-0.9c0.2-0.3,0.5-0.5,0.8-0.6c0.3-0.1,0.7-0.2,1.1-0.2c0.4,0,0.8,0.1,1.1,0.2
			c0.3,0.1,0.6,0.3,0.8,0.6s0.4,0.6,0.5,0.9c0.1,0.4,0.2,0.8,0.2,1.2H311.9z M315,255.5c0-0.2-0.1-0.5-0.1-0.7
			c-0.1-0.2-0.2-0.3-0.3-0.5c-0.1-0.1-0.3-0.2-0.5-0.3c-0.2-0.1-0.4-0.1-0.5-0.1c-0.4,0-0.7,0.1-1,0.3c-0.3,0.2-0.5,0.6-0.6,1.1H315
			z"/>
		<path class="st3" d="M317.6,259.1v-5.7h0.8l0.1,0.5c0.2-0.2,0.3-0.3,0.6-0.4s0.5-0.2,0.7-0.2c0.2,0,0.3,0,0.5,0
			c0.1,0,0.3,0,0.3,0.1l-0.2,0.9c-0.2-0.1-0.5-0.1-0.8-0.1c-0.2,0-0.5,0.1-0.7,0.2c-0.2,0.1-0.4,0.3-0.5,0.4v4.5H317.6z"/>
		<path class="st3" d="M322.3,252.5c-0.2,0-0.3-0.1-0.4-0.2s-0.2-0.3-0.2-0.5c0-0.2,0.1-0.3,0.2-0.5c0.1-0.1,0.3-0.2,0.4-0.2
			s0.3,0.1,0.4,0.2c0.1,0.1,0.2,0.3,0.2,0.5c0,0.2-0.1,0.4-0.2,0.5C322.6,252.4,322.4,252.5,322.3,252.5z M321.8,259.1v-5.7h0.9v5.7
			H321.8z"/>
		<path class="st3" d="M325.3,256.2c0,0.7,0.2,1.3,0.5,1.7c0.3,0.4,0.8,0.6,1.4,0.6c0.4,0,0.7-0.1,0.9-0.3s0.4-0.4,0.6-0.6l0.6,0.4
			c-0.2,0.4-0.5,0.7-0.8,0.9c-0.3,0.2-0.8,0.4-1.3,0.4c-0.4,0-0.8-0.1-1.2-0.2c-0.3-0.1-0.6-0.3-0.9-0.6c-0.2-0.3-0.4-0.6-0.6-0.9
			s-0.2-0.8-0.2-1.3c0-0.5,0.1-0.9,0.2-1.2s0.3-0.7,0.5-0.9c0.2-0.3,0.5-0.5,0.8-0.6c0.3-0.1,0.7-0.2,1.1-0.2c0.4,0,0.8,0.1,1.1,0.2
			c0.3,0.1,0.6,0.3,0.8,0.6s0.4,0.6,0.5,0.9c0.1,0.4,0.2,0.8,0.2,1.2H325.3z M328.4,255.5c0-0.2-0.1-0.5-0.1-0.7
			c-0.1-0.2-0.2-0.3-0.3-0.5c-0.1-0.1-0.3-0.2-0.5-0.3c-0.2-0.1-0.4-0.1-0.5-0.1c-0.4,0-0.7,0.1-1,0.3c-0.3,0.2-0.5,0.6-0.6,1.1
			H328.4z"/>
		<path class="st3" d="M331.1,259.1v-5.7h0.9l0.1,0.5c0.2-0.2,0.5-0.3,0.8-0.4c0.3-0.1,0.6-0.2,1-0.2c0.8,0,1.3,0.2,1.7,0.6
			s0.5,1,0.5,1.7v3.6H335v-3.6c0-0.5-0.1-0.9-0.3-1.1c-0.2-0.3-0.6-0.4-1.1-0.4c-0.3,0-0.6,0.1-0.9,0.2c-0.3,0.1-0.5,0.3-0.8,0.4
			v4.5H331.1z"/>
		<path class="st3" d="M342.4,257.9c-0.2,0.5-0.5,0.8-0.9,1s-0.8,0.3-1.2,0.3c-0.3,0-0.7-0.1-1-0.2c-0.3-0.1-0.6-0.3-0.9-0.6
			c-0.2-0.2-0.4-0.6-0.6-0.9c-0.2-0.4-0.2-0.8-0.2-1.3c0-0.5,0.1-1,0.2-1.4c0.2-0.4,0.4-0.7,0.6-0.9s0.5-0.4,0.8-0.5
			c0.3-0.1,0.6-0.2,0.9-0.2c0.3,0,0.6,0,0.8,0.1c0.2,0.1,0.5,0.2,0.6,0.4s0.3,0.3,0.4,0.5c0.1,0.2,0.2,0.3,0.2,0.4l-0.7,0.4
			c-0.2-0.4-0.4-0.7-0.6-0.8s-0.5-0.3-0.8-0.3c-0.2,0-0.4,0-0.6,0.1c-0.2,0.1-0.4,0.2-0.5,0.4c-0.2,0.2-0.3,0.4-0.4,0.7
			c-0.1,0.3-0.1,0.6-0.1,1s0,0.7,0.1,1c0.1,0.3,0.2,0.5,0.4,0.7s0.4,0.3,0.6,0.4c0.2,0.1,0.5,0.2,0.7,0.2c0.3,0,0.5-0.1,0.8-0.2
			c0.3-0.2,0.5-0.4,0.6-0.8L342.4,257.9z"/>
		<path class="st3" d="M344.4,256.2c0,0.7,0.2,1.3,0.5,1.7c0.3,0.4,0.8,0.6,1.4,0.6c0.4,0,0.7-0.1,0.9-0.3s0.4-0.4,0.6-0.6l0.6,0.4
			c-0.2,0.4-0.5,0.7-0.8,0.9c-0.3,0.2-0.8,0.4-1.3,0.4c-0.4,0-0.8-0.1-1.2-0.2c-0.3-0.1-0.6-0.3-0.9-0.6c-0.2-0.3-0.4-0.6-0.6-0.9
			s-0.2-0.8-0.2-1.3c0-0.5,0.1-0.9,0.2-1.2s0.3-0.7,0.5-0.9c0.2-0.3,0.5-0.5,0.8-0.6c0.3-0.1,0.7-0.2,1.1-0.2c0.4,0,0.8,0.1,1.1,0.2
			c0.3,0.1,0.6,0.3,0.8,0.6s0.4,0.6,0.5,0.9c0.1,0.4,0.2,0.8,0.2,1.2H344.4z M347.5,255.5c0-0.2-0.1-0.5-0.1-0.7
			c-0.1-0.2-0.2-0.3-0.3-0.5c-0.1-0.1-0.3-0.2-0.5-0.3c-0.2-0.1-0.4-0.1-0.5-0.1c-0.4,0-0.7,0.1-1,0.3c-0.3,0.2-0.5,0.6-0.6,1.1
			H347.5z"/>
		<path class="st3" d="M352.9,259.1v-5.7h0.9l0.1,0.5c0.2-0.1,0.4-0.3,0.7-0.4c0.3-0.1,0.6-0.2,1-0.2c0.3,0,0.6,0.1,0.9,0.2
			c0.3,0.1,0.5,0.3,0.7,0.6c0.2-0.2,0.5-0.4,0.9-0.5c0.3-0.1,0.7-0.2,1.1-0.2c0.4,0,0.7,0.1,1,0.2c0.3,0.1,0.5,0.3,0.6,0.5
			s0.3,0.5,0.3,0.8s0.1,0.6,0.1,1v3.5h-0.9v-3.6c0-0.5-0.1-0.9-0.3-1.1c-0.2-0.3-0.5-0.4-1-0.4c-0.2,0-0.3,0-0.5,0.1
			c-0.2,0-0.3,0.1-0.5,0.2c-0.1,0.1-0.3,0.1-0.4,0.2c-0.1,0.1-0.2,0.1-0.3,0.2c0,0.1,0.1,0.3,0.1,0.4c0,0.1,0,0.3,0,0.6v3.5h-0.9
			v-3.6c0-0.2,0-0.4-0.1-0.6c0-0.2-0.1-0.3-0.2-0.5c-0.1-0.1-0.2-0.2-0.4-0.3c-0.2-0.1-0.3-0.1-0.6-0.1c-0.3,0-0.6,0.1-0.8,0.2
			c-0.3,0.1-0.5,0.3-0.7,0.4v4.5H352.9z"/>
		<path class="st3" d="M366.3,259.1l0-0.5c-0.2,0.2-0.4,0.4-0.7,0.5c-0.3,0.1-0.5,0.2-0.9,0.2c-0.2,0-0.5,0-0.7-0.1
			c-0.2-0.1-0.4-0.2-0.6-0.3c-0.2-0.1-0.3-0.3-0.4-0.6c-0.1-0.2-0.2-0.5-0.2-0.8c0-0.4,0.1-0.7,0.3-1c0.2-0.3,0.5-0.5,0.8-0.6
			c0.3-0.2,0.7-0.3,1.1-0.3c0.4-0.1,0.8-0.1,1.2-0.1v-0.1c0-0.5-0.1-0.8-0.3-1s-0.5-0.3-0.9-0.3c-0.3,0-0.5,0.1-0.7,0.2
			s-0.4,0.3-0.6,0.5l-0.6-0.5c0.2-0.3,0.5-0.5,0.8-0.7c0.3-0.1,0.7-0.2,1.2-0.2c0.6,0,1.1,0.2,1.5,0.5c0.4,0.3,0.5,0.9,0.5,1.6v3.7
			H366.3z M366.2,256.1c-0.3,0-0.5,0-0.8,0.1c-0.3,0-0.6,0.1-0.8,0.2s-0.5,0.2-0.6,0.4c-0.2,0.2-0.2,0.4-0.2,0.7
			c0,0.2,0,0.3,0.1,0.5s0.2,0.2,0.3,0.3c0.1,0.1,0.2,0.1,0.4,0.2c0.1,0,0.3,0.1,0.4,0.1c0.3,0,0.5-0.1,0.8-0.2
			c0.2-0.1,0.4-0.3,0.6-0.4V256.1z"/>
		<path class="st3" d="M368.5,260.6c0.1,0,0.2,0.1,0.3,0.1s0.3,0,0.4,0c0.2,0,0.3,0,0.4-0.1c0.1-0.1,0.2-0.3,0.3-0.5l0.5-1.1
			l-2.3-5.6h1.1l1.7,4.4l1.7-4.4h1l-2.9,7.2c-0.1,0.4-0.3,0.6-0.6,0.7c-0.3,0.1-0.5,0.2-0.8,0.2c-0.2,0-0.4,0-0.6-0.1
			s-0.4-0.1-0.5-0.2L368.5,260.6z"/>
		<path class="st3" d="M381.3,259.1l-0.1-0.5c-0.2,0.2-0.4,0.4-0.7,0.5s-0.5,0.1-0.8,0.1c-0.4,0-0.8-0.1-1.1-0.2
			c-0.3-0.2-0.6-0.4-0.8-0.6c-0.2-0.3-0.4-0.6-0.5-1s-0.2-0.8-0.2-1.2c0-0.4,0.1-0.7,0.2-1.1c0.1-0.4,0.3-0.7,0.5-0.9
			c0.2-0.3,0.5-0.5,0.9-0.7c0.3-0.2,0.7-0.3,1.2-0.3c0.3,0,0.5,0,0.7,0.1s0.4,0.1,0.5,0.1v-2.4h0.9v8H381.3z M381.2,254.3
			c0,0-0.1-0.1-0.2-0.1s-0.2-0.1-0.3-0.1c-0.1,0-0.2,0-0.3-0.1c-0.1,0-0.2,0-0.3,0c-0.3,0-0.6,0.1-0.9,0.2c-0.2,0.1-0.5,0.3-0.6,0.5
			s-0.3,0.5-0.4,0.7c-0.1,0.3-0.1,0.5-0.1,0.8c0,0.3,0,0.6,0.1,0.9c0.1,0.3,0.2,0.5,0.3,0.7c0.1,0.2,0.3,0.4,0.6,0.5
			c0.2,0.1,0.5,0.2,0.8,0.2c0.2,0,0.5,0,0.7-0.2c0.2-0.1,0.4-0.3,0.6-0.5V254.3z"/>
		<path class="st3" d="M384.6,252.5c-0.2,0-0.3-0.1-0.4-0.2s-0.2-0.3-0.2-0.5c0-0.2,0.1-0.3,0.2-0.5c0.1-0.1,0.3-0.2,0.4-0.2
			s0.3,0.1,0.4,0.2c0.1,0.1,0.2,0.3,0.2,0.5c0,0.2-0.1,0.4-0.2,0.5C384.9,252.4,384.7,252.5,384.6,252.5z M384.1,259.1v-5.7h0.9v5.7
			H384.1z"/>
		<path class="st3" d="M387.2,259.1v-5h-0.8v-0.8h0.9V253c0-0.4,0-0.7,0.1-0.9s0.2-0.5,0.4-0.6c0.2-0.2,0.3-0.3,0.5-0.3
			c0.2-0.1,0.4-0.1,0.7-0.1c0.3,0,0.6,0,0.8,0.1c0.2,0.1,0.4,0.1,0.6,0.2L390,252c-0.1-0.1-0.3-0.1-0.5-0.2
			c-0.2-0.1-0.4-0.1-0.6-0.1c-0.1,0-0.3,0-0.4,0c-0.1,0-0.2,0.1-0.3,0.2c-0.1,0.1-0.1,0.2-0.2,0.4c0,0.2-0.1,0.4-0.1,0.6v0.4h2.6
			V253c0-0.4,0-0.7,0.1-0.9s0.2-0.5,0.4-0.6s0.3-0.3,0.5-0.3c0.2-0.1,0.4-0.1,0.7-0.1c0.3,0,0.6,0,0.8,0.1c0.2,0.1,0.4,0.1,0.6,0.2
			l-0.3,0.7c-0.1-0.1-0.3-0.1-0.5-0.2c-0.2-0.1-0.3-0.1-0.6-0.1c-0.1,0-0.3,0-0.4,0c-0.1,0-0.2,0.1-0.3,0.2s-0.1,0.2-0.2,0.4
			s-0.1,0.4-0.1,0.6v0.4h1.4v0.8h-1.4v5h-0.9v-5h-2.6v5H387.2z"/>
		<path class="st3" d="M394.8,256.2c0,0.7,0.2,1.3,0.5,1.7c0.3,0.4,0.8,0.6,1.4,0.6c0.4,0,0.7-0.1,0.9-0.3s0.4-0.4,0.6-0.6l0.6,0.4
			c-0.2,0.4-0.5,0.7-0.8,0.9c-0.3,0.2-0.8,0.4-1.3,0.4c-0.4,0-0.8-0.1-1.2-0.2c-0.3-0.1-0.6-0.3-0.9-0.6c-0.2-0.3-0.4-0.6-0.6-0.9
			s-0.2-0.8-0.2-1.3c0-0.5,0.1-0.9,0.2-1.2s0.3-0.7,0.5-0.9c0.2-0.3,0.5-0.5,0.8-0.6c0.3-0.1,0.7-0.2,1.1-0.2c0.4,0,0.8,0.1,1.1,0.2
			c0.3,0.1,0.6,0.3,0.8,0.6s0.4,0.6,0.5,0.9c0.1,0.4,0.2,0.8,0.2,1.2H394.8z M397.9,255.5c0-0.2-0.1-0.5-0.1-0.7
			c-0.1-0.2-0.2-0.3-0.3-0.5c-0.1-0.1-0.3-0.2-0.5-0.3c-0.2-0.1-0.4-0.1-0.5-0.1c-0.4,0-0.7,0.1-1,0.3c-0.3,0.2-0.5,0.6-0.6,1.1
			H397.9z"/>
		<path class="st3" d="M400.5,259.1v-5.7h0.8l0.1,0.5c0.2-0.2,0.3-0.3,0.6-0.4s0.5-0.2,0.7-0.2c0.2,0,0.3,0,0.5,0
			c0.1,0,0.3,0,0.3,0.1l-0.2,0.9c-0.2-0.1-0.5-0.1-0.8-0.1c-0.2,0-0.5,0.1-0.7,0.2c-0.2,0.1-0.4,0.3-0.5,0.4v4.5H400.5z"/>
		<path class="st3" d="M405.1,259.3c-0.2,0-0.3-0.1-0.5-0.2s-0.2-0.3-0.2-0.5s0.1-0.4,0.2-0.5c0.1-0.1,0.3-0.2,0.5-0.2
			c0.2,0,0.3,0.1,0.5,0.2c0.1,0.1,0.2,0.3,0.2,0.5s-0.1,0.4-0.2,0.5C405.4,259.2,405.2,259.3,405.1,259.3z"/>
	</g>
	<g>
		<polyline class="st4" points="253.4,25.3 256.5,28.5 259.7,25.3 		"/>
		<line class="st4" x1="256.5" y1="28.1" x2="256.5" y2="15.9"/>
	</g>
</g>
</svg>
