<?xml version="1.0" encoding="utf-8"?>
<!-- Generator: Adobe Illustrator 21.0.0, SVG Export Plug-In . SVG Version: 6.00 Build 0)  -->
<svg version="1.1" id="chart" xmlns="http://www.w3.org/2000/svg" xmlns:xlink="http://www.w3.org/1999/xlink" x="0px" y="0px"
	 viewBox="0 0 533 307" style="enable-background:new 0 0 533 307;" xml:space="preserve">
<style type="text/css">
	.st0{fill:none;stroke:#E8E8E8;stroke-miterlimit:10;}
	.st1{fill:#5BCAAE;}
	.st2{fill:#53B798;}
	.st3{fill:#7C858C;}
	.st4{opacity:0.6;fill:#FFFFFF;}
	.st5{fill:none;stroke:#7C858C;stroke-width:1.25;stroke-linecap:round;stroke-miterlimit:10;}
</style>
<g>
	<line class="st0" x1="167.9" y1="39.9" x2="167.9" y2="265.9"/>
	<line class="st0" x1="262.9" y1="39.5" x2="262.9" y2="265.5"/>
	<line class="st0" x1="357.9" y1="39.5" x2="357.9" y2="265.5"/>
	<line class="st0" x1="452.9" y1="39.5" x2="452.9" y2="265.5"/>
	<rect x="167.4" y="60.5" class="st1" width="242" height="40"/>
	<rect x="167.4" y="110.5" class="st1" width="172" height="40"/>
	<rect x="167.4" y="160.5" class="st1" width="134" height="40"/>
	<rect x="263.4" y="60.5" class="st2" width="146" height="40"/>
	<rect x="263.4" y="110.5" class="st2" width="76" height="40"/>
	<rect x="263.4" y="160.5" class="st2" width="38" height="40"/>
	<g>
		<path class="st3" d="M32.2,83.5v-9.3h2.4c0.4,0,0.7,0,1.1,0.1c0.4,0.1,0.8,0.2,1.1,0.3s0.6,0.4,0.9,0.6c0.3,0.2,0.5,0.5,0.7,0.9
			c0.2,0.3,0.4,0.7,0.5,1.2c0.1,0.4,0.2,0.9,0.2,1.4c0,0.7-0.1,1.2-0.2,1.8s-0.4,1-0.6,1.4c-0.3,0.4-0.6,0.7-0.9,1
			c-0.4,0.3-0.8,0.4-1.2,0.6c-0.2,0.1-0.5,0.1-0.8,0.1s-0.6,0-0.8,0H32.2z M33.3,82.6h1.1c0.2,0,0.4,0,0.7,0c0.3,0,0.5-0.1,0.7-0.2
			c0.3-0.1,0.5-0.3,0.8-0.5c0.2-0.2,0.5-0.4,0.7-0.7s0.3-0.6,0.4-1s0.2-0.8,0.2-1.4c0-0.8-0.1-1.5-0.4-2s-0.6-0.9-1-1.2
			c-0.3-0.2-0.6-0.3-1-0.4c-0.4-0.1-0.7-0.1-1.1-0.1h-1.2V82.6z"/>
		<path class="st3" d="M44.7,83.5L44.7,83c-0.2,0.2-0.5,0.4-0.8,0.5c-0.3,0.1-0.6,0.2-1,0.2c-0.3,0-0.6,0-0.8-0.1s-0.5-0.2-0.7-0.4
			c-0.2-0.2-0.4-0.4-0.5-0.7c-0.1-0.3-0.2-0.6-0.2-0.9c0-0.5,0.1-0.9,0.4-1.2s0.6-0.6,1-0.7c0.4-0.2,0.8-0.3,1.3-0.4
			c0.5-0.1,0.9-0.1,1.4-0.1v-0.1c0-0.6-0.1-1-0.4-1.2c-0.2-0.2-0.6-0.4-1-0.4c-0.3,0-0.6,0.1-0.8,0.2s-0.5,0.3-0.7,0.5L41,77.8
			c0.3-0.4,0.6-0.6,1-0.8c0.4-0.2,0.8-0.3,1.4-0.3c0.7,0,1.3,0.2,1.7,0.6c0.4,0.4,0.6,1,0.6,1.9v4.4H44.7z M44.6,80
			c-0.3,0-0.6,0-1,0.1c-0.3,0-0.7,0.1-1,0.2c-0.3,0.1-0.5,0.3-0.7,0.5c-0.2,0.2-0.3,0.5-0.3,0.8c0,0.2,0,0.4,0.1,0.5
			c0.1,0.1,0.2,0.3,0.3,0.4s0.3,0.2,0.4,0.2c0.2,0,0.3,0.1,0.5,0.1c0.3,0,0.6-0.1,0.9-0.2c0.3-0.1,0.5-0.3,0.7-0.5V80z"/>
		<path class="st3" d="M48.5,75.8c-0.2,0-0.4-0.1-0.5-0.2c-0.1-0.2-0.2-0.3-0.2-0.6c0-0.2,0.1-0.4,0.2-0.6c0.1-0.2,0.3-0.2,0.5-0.2
			c0.2,0,0.4,0.1,0.5,0.2c0.1,0.2,0.2,0.3,0.2,0.6c0,0.2-0.1,0.4-0.2,0.6C48.9,75.7,48.7,75.8,48.5,75.8z M47.9,83.5v-6.7H49v6.7
			H47.9z"/>
		<path class="st3" d="M51.3,83.5v-9.3h1.1v9.3H51.3z"/>
		<path class="st3" d="M54.1,85.3c0.1,0,0.2,0.1,0.4,0.1c0.2,0,0.3,0,0.5,0c0.2,0,0.4-0.1,0.5-0.2c0.1-0.1,0.2-0.3,0.4-0.6l0.5-1.3
			l-2.6-6.5h1.2l2,5.1l2-5.1h1.2l-3.4,8.4c-0.2,0.4-0.4,0.7-0.7,0.8c-0.3,0.1-0.6,0.2-0.9,0.2c-0.2,0-0.4,0-0.7-0.1
			c-0.2-0.1-0.4-0.1-0.6-0.2L54.1,85.3z"/>
		<path class="st3" d="M71.1,81.8c-0.1,0.2-0.3,0.4-0.4,0.7c-0.2,0.2-0.4,0.4-0.6,0.6c-0.2,0.2-0.5,0.3-0.8,0.4
			c-0.3,0.1-0.7,0.2-1.1,0.2c-0.6,0-1.1-0.1-1.5-0.3c-0.5-0.2-0.9-0.5-1.2-0.9c-0.4-0.4-0.6-0.9-0.8-1.5c-0.2-0.6-0.3-1.3-0.3-2.2
			c0-0.9,0.1-1.6,0.3-2.2c0.2-0.6,0.5-1.1,0.8-1.5c0.3-0.4,0.7-0.7,1.2-0.9S67.5,74,68,74c0.7,0,1.3,0.2,1.9,0.5s1,0.8,1.2,1.4
			l-0.9,0.5c-0.1-0.2-0.2-0.3-0.3-0.5c-0.1-0.2-0.3-0.3-0.5-0.5c-0.2-0.1-0.4-0.2-0.6-0.3c-0.2-0.1-0.5-0.1-0.7-0.1
			c-0.8,0-1.5,0.3-1.9,1c-0.5,0.7-0.7,1.6-0.7,2.9c0,0.6,0.1,1.1,0.2,1.6s0.3,0.9,0.6,1.2c0.2,0.3,0.5,0.6,0.9,0.7
			c0.3,0.2,0.7,0.2,1.1,0.2c0.3,0,0.5,0,0.7-0.1c0.2-0.1,0.4-0.2,0.6-0.3s0.3-0.3,0.5-0.4c0.1-0.2,0.3-0.4,0.4-0.5L71.1,81.8z"/>
		<path class="st3" d="M76.5,83.5L76.5,83c-0.2,0.2-0.5,0.4-0.8,0.5c-0.3,0.1-0.6,0.2-1,0.2c-0.3,0-0.6,0-0.8-0.1s-0.5-0.2-0.7-0.4
			c-0.2-0.2-0.4-0.4-0.5-0.7c-0.1-0.3-0.2-0.6-0.2-0.9c0-0.5,0.1-0.9,0.4-1.2s0.6-0.6,1-0.7c0.4-0.2,0.8-0.3,1.3-0.4
			c0.5-0.1,0.9-0.1,1.4-0.1v-0.1c0-0.6-0.1-1-0.4-1.2c-0.2-0.2-0.6-0.4-1-0.4c-0.3,0-0.6,0.1-0.8,0.2s-0.5,0.3-0.7,0.5l-0.8-0.5
			c0.3-0.4,0.6-0.6,1-0.8c0.4-0.2,0.8-0.3,1.4-0.3c0.7,0,1.3,0.2,1.7,0.6c0.4,0.4,0.6,1,0.6,1.9v4.4H76.5z M76.5,80
			c-0.3,0-0.6,0-1,0.1c-0.3,0-0.7,0.1-1,0.2c-0.3,0.1-0.5,0.3-0.7,0.5c-0.2,0.2-0.3,0.5-0.3,0.8c0,0.2,0,0.4,0.1,0.5
			c0.1,0.1,0.2,0.3,0.3,0.4s0.3,0.2,0.4,0.2c0.2,0,0.3,0.1,0.5,0.1c0.3,0,0.6-0.1,0.9-0.2c0.3-0.1,0.5-0.3,0.7-0.5V80z"/>
		<path class="st3" d="M80.1,81.9c0.2,0.3,0.4,0.5,0.6,0.7c0.2,0.2,0.6,0.2,1,0.2c0.9,0,1.4-0.3,1.4-1c0-0.2,0-0.4-0.1-0.5
			s-0.2-0.3-0.3-0.4c-0.1-0.1-0.3-0.2-0.5-0.3c-0.2-0.1-0.5-0.2-0.8-0.3c-0.3-0.1-0.6-0.2-0.9-0.4s-0.4-0.3-0.6-0.4
			c-0.1-0.1-0.3-0.3-0.3-0.5c-0.1-0.2-0.1-0.4-0.1-0.7c0-0.5,0.2-1,0.6-1.3c0.4-0.3,0.9-0.5,1.6-0.5c0.5,0,1,0.1,1.4,0.3
			c0.4,0.2,0.7,0.4,0.9,0.8l-0.8,0.6c-0.2-0.2-0.4-0.4-0.7-0.6s-0.5-0.2-0.9-0.2c-0.4,0-0.7,0.1-0.9,0.2c-0.2,0.2-0.3,0.3-0.3,0.6
			c0,0.1,0,0.3,0.1,0.4c0.1,0.1,0.1,0.2,0.3,0.3c0.1,0.1,0.3,0.2,0.5,0.3c0.2,0.1,0.5,0.2,0.8,0.3c0.6,0.2,1.1,0.5,1.4,0.8
			c0.3,0.3,0.5,0.8,0.5,1.3c0,0.3-0.1,0.6-0.2,0.8c-0.1,0.2-0.3,0.5-0.5,0.6c-0.2,0.2-0.5,0.3-0.7,0.4c-0.3,0.1-0.6,0.1-1,0.1
			c-0.7,0-1.2-0.1-1.6-0.4s-0.7-0.6-0.9-0.9L80.1,81.9z"/>
		<path class="st3" d="M86.6,80.1c0,0.8,0.2,1.5,0.6,2c0.4,0.5,0.9,0.7,1.7,0.7c0.4,0,0.8-0.1,1.1-0.3c0.3-0.2,0.5-0.5,0.7-0.8
			l0.7,0.5c-0.2,0.4-0.6,0.8-0.9,1c-0.4,0.3-0.9,0.4-1.6,0.4c-0.5,0-1-0.1-1.4-0.2c-0.4-0.2-0.7-0.4-1-0.7c-0.3-0.3-0.5-0.7-0.7-1.1
			c-0.2-0.4-0.2-0.9-0.2-1.5c0-0.5,0.1-1,0.2-1.4c0.1-0.4,0.3-0.8,0.6-1.1s0.6-0.5,0.9-0.7c0.4-0.2,0.8-0.2,1.2-0.2
			c0.5,0,0.9,0.1,1.3,0.3c0.4,0.2,0.7,0.4,0.9,0.7c0.2,0.3,0.4,0.7,0.5,1.1s0.2,0.9,0.2,1.4H86.6z M90.3,79.3c0-0.3-0.1-0.5-0.2-0.8
			s-0.2-0.4-0.4-0.5c-0.2-0.1-0.3-0.3-0.5-0.3c-0.2-0.1-0.4-0.1-0.6-0.1c-0.4,0-0.8,0.1-1.2,0.4c-0.3,0.3-0.5,0.7-0.7,1.3H90.3z"/>
		<path class="st3" d="M103.1,81.8c-0.1,0.2-0.3,0.4-0.4,0.7c-0.2,0.2-0.4,0.4-0.6,0.6c-0.2,0.2-0.5,0.3-0.8,0.4
			c-0.3,0.1-0.7,0.2-1.1,0.2c-0.6,0-1.1-0.1-1.5-0.3c-0.5-0.2-0.9-0.5-1.2-0.9c-0.4-0.4-0.6-0.9-0.8-1.5c-0.2-0.6-0.3-1.3-0.3-2.2
			c0-0.9,0.1-1.6,0.3-2.2c0.2-0.6,0.5-1.1,0.8-1.5c0.3-0.4,0.7-0.7,1.2-0.9s0.9-0.3,1.4-0.3c0.7,0,1.3,0.2,1.9,0.5s1,0.8,1.2,1.4
			l-0.9,0.5c-0.1-0.2-0.2-0.3-0.3-0.5c-0.1-0.2-0.3-0.3-0.5-0.5c-0.2-0.1-0.4-0.2-0.6-0.3c-0.2-0.1-0.5-0.1-0.7-0.1
			c-0.8,0-1.5,0.3-1.9,1c-0.5,0.7-0.7,1.6-0.7,2.9c0,0.6,0.1,1.1,0.2,1.6s0.3,0.9,0.6,1.2c0.2,0.3,0.5,0.6,0.9,0.7
			c0.3,0.2,0.7,0.2,1.1,0.2c0.3,0,0.5,0,0.7-0.1c0.2-0.1,0.4-0.2,0.6-0.3s0.3-0.3,0.5-0.4c0.1-0.2,0.3-0.4,0.4-0.5L103.1,81.8z"/>
		<path class="st3" d="M108.5,83.5l-0.1-0.6c-0.2,0.2-0.5,0.4-0.8,0.5c-0.3,0.1-0.6,0.2-1,0.2c-0.3,0-0.6,0-0.8-0.1
			s-0.5-0.2-0.7-0.4c-0.2-0.2-0.4-0.4-0.5-0.7c-0.1-0.3-0.2-0.6-0.2-0.9c0-0.5,0.1-0.9,0.4-1.2s0.6-0.6,1-0.7
			c0.4-0.2,0.8-0.3,1.3-0.4c0.5-0.1,0.9-0.1,1.4-0.1v-0.1c0-0.6-0.1-1-0.4-1.2c-0.2-0.2-0.6-0.4-1-0.4c-0.3,0-0.6,0.1-0.8,0.2
			s-0.5,0.3-0.7,0.5l-0.8-0.5c0.3-0.4,0.6-0.6,1-0.8c0.4-0.2,0.8-0.3,1.4-0.3c0.7,0,1.3,0.2,1.7,0.6c0.4,0.4,0.6,1,0.6,1.9v4.4
			H108.5z M108.4,80c-0.3,0-0.6,0-1,0.1c-0.3,0-0.7,0.1-1,0.2c-0.3,0.1-0.5,0.3-0.7,0.5c-0.2,0.2-0.3,0.5-0.3,0.8
			c0,0.2,0,0.4,0.1,0.5c0.1,0.1,0.2,0.3,0.3,0.4s0.3,0.2,0.4,0.2c0.2,0,0.3,0.1,0.5,0.1c0.3,0,0.6-0.1,0.9-0.2
			c0.3-0.1,0.5-0.3,0.7-0.5V80z"/>
		<path class="st3" d="M111.7,86.2v-9.3h1l0.1,0.5c0.3-0.2,0.6-0.4,0.9-0.5c0.3-0.1,0.7-0.2,1-0.2c0.5,0,0.9,0.1,1.3,0.3
			c0.3,0.2,0.6,0.4,0.8,0.8c0.2,0.3,0.4,0.7,0.5,1.1c0.1,0.4,0.1,0.8,0.1,1.3c0,0.5-0.1,1-0.3,1.5c-0.2,0.4-0.4,0.8-0.7,1.1
			c-0.3,0.3-0.6,0.6-1.1,0.7c-0.4,0.2-0.9,0.3-1.3,0.3c-0.5,0-1-0.1-1.3-0.2v2.7H111.7z M112.8,82.5c0.1,0.1,0.3,0.1,0.4,0.2
			c0.2,0.1,0.4,0.1,0.7,0.1c0.4,0,0.7-0.1,1-0.2c0.3-0.1,0.6-0.3,0.8-0.5s0.4-0.5,0.5-0.8c0.1-0.3,0.2-0.7,0.2-1.1
			c0-0.3,0-0.6-0.1-0.9c-0.1-0.3-0.2-0.6-0.3-0.8c-0.1-0.2-0.3-0.4-0.6-0.6c-0.2-0.2-0.6-0.2-0.9-0.2c-0.3,0-0.6,0.1-0.9,0.2
			c-0.3,0.1-0.5,0.3-0.8,0.5V82.5z"/>
		<path class="st3" d="M123.1,83.5l-0.1-0.6c-0.2,0.2-0.5,0.4-0.8,0.5c-0.3,0.1-0.6,0.2-1,0.2c-0.3,0-0.6,0-0.8-0.1
			s-0.5-0.2-0.7-0.4c-0.2-0.2-0.4-0.4-0.5-0.7c-0.1-0.3-0.2-0.6-0.2-0.9c0-0.5,0.1-0.9,0.4-1.2s0.6-0.6,1-0.7
			c0.4-0.2,0.8-0.3,1.3-0.4c0.5-0.1,0.9-0.1,1.4-0.1v-0.1c0-0.6-0.1-1-0.4-1.2c-0.2-0.2-0.6-0.4-1-0.4c-0.3,0-0.6,0.1-0.8,0.2
			s-0.5,0.3-0.7,0.5l-0.8-0.5c0.3-0.4,0.6-0.6,1-0.8c0.4-0.2,0.8-0.3,1.4-0.3c0.7,0,1.3,0.2,1.7,0.6c0.4,0.4,0.6,1,0.6,1.9v4.4
			H123.1z M123,80c-0.3,0-0.6,0-1,0.1c-0.3,0-0.7,0.1-1,0.2c-0.3,0.1-0.5,0.3-0.7,0.5c-0.2,0.2-0.3,0.5-0.3,0.8c0,0.2,0,0.4,0.1,0.5
			c0.1,0.1,0.2,0.3,0.3,0.4s0.3,0.2,0.4,0.2c0.2,0,0.3,0.1,0.5,0.1c0.3,0,0.6-0.1,0.9-0.2c0.3-0.1,0.5-0.3,0.7-0.5V80z"/>
		<path class="st3" d="M131.7,82.1c-0.3,0.5-0.6,0.9-1.1,1.2c-0.5,0.3-0.9,0.4-1.4,0.4c-0.4,0-0.8-0.1-1.2-0.2
			c-0.4-0.1-0.7-0.4-1-0.6c-0.3-0.3-0.5-0.7-0.7-1.1c-0.2-0.4-0.3-0.9-0.3-1.5c0-0.6,0.1-1.2,0.3-1.6c0.2-0.4,0.4-0.8,0.7-1.1
			c0.3-0.3,0.6-0.5,1-0.6s0.7-0.2,1.1-0.2c0.4,0,0.7,0.1,1,0.2c0.3,0.1,0.5,0.3,0.7,0.4c0.2,0.2,0.4,0.3,0.5,0.5
			c0.1,0.2,0.2,0.4,0.3,0.5l-0.8,0.5c-0.2-0.4-0.4-0.8-0.7-1c-0.3-0.2-0.6-0.3-0.9-0.3c-0.3,0-0.5,0.1-0.7,0.2
			c-0.2,0.1-0.4,0.3-0.6,0.5c-0.2,0.2-0.3,0.5-0.4,0.8s-0.2,0.7-0.2,1.1c0,0.4,0.1,0.8,0.2,1.1s0.3,0.6,0.5,0.8s0.4,0.4,0.7,0.5
			c0.3,0.1,0.5,0.2,0.8,0.2c0.3,0,0.6-0.1,0.9-0.3c0.3-0.2,0.6-0.5,0.7-0.9L131.7,82.1z"/>
		<path class="st3" d="M133.9,75.8c-0.2,0-0.4-0.1-0.5-0.2c-0.1-0.2-0.2-0.3-0.2-0.6c0-0.2,0.1-0.4,0.2-0.6c0.1-0.2,0.3-0.2,0.5-0.2
			c0.2,0,0.4,0.1,0.5,0.2c0.1,0.2,0.2,0.3,0.2,0.6c0,0.2-0.1,0.4-0.2,0.6C134.3,75.7,134.1,75.8,133.9,75.8z M133.3,83.5v-6.7h1.1
			v6.7H133.3z"/>
		<path class="st3" d="M138.2,82c0,0.3,0.1,0.5,0.2,0.7s0.3,0.2,0.5,0.2c0.2,0,0.3,0,0.5-0.1c0.2-0.1,0.3-0.2,0.4-0.3l0.4,0.7
			c-0.2,0.2-0.4,0.3-0.6,0.4s-0.5,0.1-0.9,0.1c-0.5,0-0.9-0.1-1.2-0.4c-0.3-0.3-0.4-0.7-0.4-1.2v-4.4H136v-0.9h1.1V75h1.1v1.8h1.8
			v0.9h-1.8V82z"/>
		<path class="st3" d="M141,85.3c0.1,0,0.2,0.1,0.4,0.1c0.2,0,0.3,0,0.5,0c0.2,0,0.4-0.1,0.5-0.2c0.1-0.1,0.2-0.3,0.4-0.6l0.5-1.3
			l-2.6-6.5h1.2l2,5.1l2-5.1h1.2l-3.4,8.4c-0.2,0.4-0.4,0.7-0.7,0.8c-0.3,0.1-0.6,0.2-0.9,0.2c-0.2,0-0.4,0-0.7-0.1
			c-0.2-0.1-0.4-0.1-0.6-0.2L141,85.3z"/>
		<path class="st3" d="M99.1,127.5v-9.3h1.3l2.7,7.2l2.8-7.2h1.3v9.3h-1.1v-7.1l-2.9,7.3H103l-2.8-7.3v7.1H99.1z"/>
		<path class="st3" d="M111.1,127.4c-0.4-0.2-0.7-0.5-1-0.8c-0.3-0.3-0.5-0.7-0.6-1.1c-0.1-0.4-0.2-0.9-0.2-1.3
			c0-0.4,0.1-0.9,0.2-1.3c0.1-0.4,0.3-0.8,0.6-1.1c0.3-0.3,0.6-0.6,1-0.8c0.4-0.2,0.8-0.3,1.4-0.3c0.5,0,1,0.1,1.4,0.3
			c0.4,0.2,0.7,0.5,1,0.8c0.3,0.3,0.5,0.7,0.6,1.1s0.2,0.8,0.2,1.3s-0.1,0.9-0.2,1.3s-0.3,0.8-0.6,1.1c-0.3,0.3-0.6,0.6-1,0.8
			c-0.4,0.2-0.8,0.3-1.4,0.3S111.5,127.6,111.1,127.4z M110.9,126c0.2,0.2,0.4,0.4,0.7,0.6c0.3,0.2,0.6,0.2,0.9,0.2
			c0.3,0,0.6-0.1,0.9-0.2c0.3-0.2,0.5-0.4,0.6-0.6s0.3-0.5,0.4-0.8s0.1-0.6,0.1-1c0-0.3,0-0.6-0.1-1c-0.1-0.3-0.2-0.6-0.4-0.8
			s-0.4-0.4-0.6-0.6c-0.3-0.1-0.6-0.2-0.9-0.2s-0.6,0.1-0.9,0.2s-0.5,0.3-0.6,0.6s-0.3,0.5-0.4,0.8c-0.1,0.3-0.1,0.6-0.1,1
			c0,0.3,0,0.7,0.1,1S110.8,125.7,110.9,126z"/>
		<path class="st3" d="M117.5,127.5v-6.7h1l0.1,0.5c0.3-0.2,0.6-0.4,1-0.5c0.4-0.1,0.8-0.2,1.2-0.2c0.9,0,1.6,0.2,1.9,0.7
			c0.4,0.5,0.6,1.1,0.6,2v4.2h-1.1v-4.2c0-0.6-0.1-1-0.4-1.3s-0.7-0.5-1.2-0.5c-0.4,0-0.7,0.1-1,0.2c-0.3,0.2-0.6,0.3-0.9,0.5v5.2
			H117.5z"/>
		<path class="st3" d="M127,126c0,0.3,0.1,0.5,0.2,0.7s0.3,0.2,0.5,0.2c0.2,0,0.3,0,0.5-0.1c0.2-0.1,0.3-0.2,0.4-0.3l0.4,0.7
			c-0.2,0.2-0.4,0.3-0.6,0.4c-0.2,0.1-0.5,0.1-0.9,0.1c-0.5,0-0.9-0.1-1.2-0.4c-0.3-0.3-0.4-0.7-0.4-1.2v-4.4h-1.1v-0.9h1.1V119h1.1
			v1.8h1.8v0.9H127V126z"/>
		<path class="st3" d="M130.4,127.5v-9.3h1.1v3.2c0.3-0.2,0.6-0.4,0.9-0.5c0.3-0.1,0.7-0.2,1.2-0.2c0.9,0,1.5,0.2,1.9,0.7
			c0.4,0.5,0.6,1.1,0.6,2v4.2H135v-4.2c0-0.6-0.1-1.1-0.4-1.4s-0.7-0.4-1.2-0.4c-0.4,0-0.7,0.1-1,0.2c-0.3,0.2-0.6,0.3-0.9,0.5v5.2
			H130.4z"/>
		<path class="st3" d="M138.3,127.5v-9.3h1.1v9.3H138.3z"/>
		<path class="st3" d="M141,129.3c0.1,0,0.2,0.1,0.4,0.1c0.2,0,0.3,0,0.5,0c0.2,0,0.4-0.1,0.5-0.2c0.1-0.1,0.2-0.3,0.4-0.6l0.5-1.3
			l-2.6-6.5h1.2l2,5.1l2-5.1h1.2l-3.4,8.4c-0.2,0.4-0.4,0.7-0.7,0.8c-0.3,0.1-0.6,0.2-0.9,0.2c-0.2,0-0.4,0-0.7-0.1
			c-0.2-0.1-0.4-0.1-0.6-0.2L141,129.3z"/>
		<path class="st3" d="M0,145.5v-9.3h1.1v9.3H0z"/>
		<path class="st3" d="M3.6,145.5v-6.7h1l0.1,0.5c0.3-0.2,0.6-0.4,1-0.5c0.4-0.1,0.8-0.2,1.2-0.2c0.9,0,1.6,0.2,1.9,0.7
			c0.4,0.5,0.6,1.1,0.6,2v4.2H8.2v-4.2c0-0.6-0.1-1-0.4-1.3s-0.7-0.5-1.2-0.5c-0.4,0-0.7,0.1-1,0.2c-0.3,0.2-0.6,0.3-0.9,0.5v5.2
			H3.6z"/>
		<path class="st3" d="M13,145.5l-2.5-6.7h1.2l2,5.4l2-5.4h1.1l-2.5,6.7H13z"/>
		<path class="st3" d="M18.8,142.1c0,0.8,0.2,1.5,0.6,2s0.9,0.7,1.7,0.7c0.4,0,0.8-0.1,1.1-0.3s0.5-0.5,0.7-0.8l0.7,0.5
			c-0.2,0.4-0.6,0.8-0.9,1c-0.4,0.3-0.9,0.4-1.6,0.4c-0.5,0-1-0.1-1.4-0.2c-0.4-0.2-0.7-0.4-1-0.7c-0.3-0.3-0.5-0.7-0.7-1.1
			s-0.2-0.9-0.2-1.5c0-0.5,0.1-1,0.2-1.4c0.1-0.4,0.3-0.8,0.6-1.1c0.3-0.3,0.6-0.5,0.9-0.7c0.4-0.2,0.8-0.2,1.2-0.2
			c0.5,0,0.9,0.1,1.3,0.3s0.7,0.4,0.9,0.7s0.4,0.7,0.5,1.1s0.2,0.9,0.2,1.4H18.8z M22.5,141.3c0-0.3-0.1-0.5-0.2-0.8
			c-0.1-0.2-0.2-0.4-0.4-0.5c-0.2-0.1-0.3-0.3-0.5-0.3c-0.2-0.1-0.4-0.1-0.6-0.1c-0.4,0-0.8,0.1-1.2,0.4c-0.3,0.3-0.5,0.7-0.7,1.3
			H22.5z"/>
		<path class="st3" d="M25.9,143.9c0.2,0.3,0.4,0.5,0.6,0.7c0.2,0.2,0.6,0.2,1,0.2c0.9,0,1.4-0.3,1.4-1c0-0.2,0-0.4-0.1-0.5
			c-0.1-0.1-0.2-0.3-0.3-0.4c-0.1-0.1-0.3-0.2-0.5-0.3c-0.2-0.1-0.5-0.2-0.8-0.3c-0.3-0.1-0.6-0.2-0.9-0.4s-0.4-0.3-0.6-0.4
			c-0.1-0.1-0.3-0.3-0.3-0.5c-0.1-0.2-0.1-0.4-0.1-0.7c0-0.5,0.2-1,0.6-1.3c0.4-0.3,0.9-0.5,1.6-0.5c0.5,0,1,0.1,1.4,0.3
			c0.4,0.2,0.7,0.4,0.9,0.8l-0.8,0.6c-0.2-0.2-0.4-0.4-0.7-0.6s-0.5-0.2-0.9-0.2c-0.4,0-0.7,0.1-0.9,0.2c-0.2,0.2-0.3,0.3-0.3,0.6
			c0,0.1,0,0.3,0.1,0.4c0.1,0.1,0.1,0.2,0.3,0.3s0.3,0.2,0.5,0.3c0.2,0.1,0.5,0.2,0.8,0.3c0.6,0.2,1.1,0.5,1.4,0.8
			c0.3,0.3,0.5,0.8,0.5,1.3c0,0.3-0.1,0.6-0.2,0.8c-0.1,0.2-0.3,0.5-0.5,0.6c-0.2,0.2-0.5,0.3-0.7,0.4c-0.3,0.1-0.6,0.1-1,0.1
			c-0.7,0-1.2-0.1-1.6-0.4c-0.4-0.2-0.7-0.6-0.9-0.9L25.9,143.9z"/>
		<path class="st3" d="M33.2,144c0,0.3,0.1,0.5,0.2,0.7s0.3,0.2,0.5,0.2c0.2,0,0.3,0,0.5-0.1c0.2-0.1,0.3-0.2,0.4-0.3l0.4,0.7
			c-0.2,0.2-0.4,0.3-0.6,0.4c-0.2,0.1-0.5,0.1-0.9,0.1c-0.5,0-0.9-0.1-1.2-0.4c-0.3-0.3-0.4-0.7-0.4-1.2v-4.4H31v-0.9h1.1V137h1.1
			v1.8h1.8v0.9h-1.8V144z"/>
		<path class="st3" d="M37.2,137.8c-0.2,0-0.4-0.1-0.5-0.2c-0.1-0.2-0.2-0.3-0.2-0.6c0-0.2,0.1-0.4,0.2-0.6c0.1-0.2,0.3-0.2,0.5-0.2
			c0.2,0,0.4,0.1,0.5,0.2c0.1,0.2,0.2,0.3,0.2,0.6c0,0.2-0.1,0.4-0.2,0.6C37.5,137.7,37.4,137.8,37.2,137.8z M36.6,145.5v-6.7h1.1
			v6.7H36.6z"/>
		<path class="st3" d="M45,139.6c0.2,0.2,0.3,0.4,0.4,0.6s0.2,0.5,0.2,0.8c0,0.4-0.1,0.7-0.2,1s-0.4,0.5-0.7,0.7
			c-0.3,0.2-0.6,0.3-0.9,0.4c-0.4,0.1-0.7,0.1-1.1,0.1c-0.1,0-0.3,0-0.5,0c-0.2,0-0.3,0-0.4-0.1c-0.1,0-0.3,0.1-0.4,0.1
			s-0.2,0.2-0.2,0.3c0,0.1,0.1,0.3,0.3,0.3c0.2,0.1,0.6,0.1,1.2,0.1c0.6,0,1.1,0,1.5,0.1c0.4,0.1,0.8,0.2,1.1,0.3s0.5,0.4,0.7,0.6
			c0.2,0.3,0.2,0.6,0.2,1c0,0.4-0.1,0.7-0.3,1c-0.2,0.3-0.4,0.5-0.7,0.7c-0.3,0.2-0.6,0.3-1,0.4c-0.4,0.1-0.8,0.1-1.2,0.1
			c-1.1,0-1.9-0.2-2.5-0.5c-0.6-0.3-0.9-0.8-0.9-1.5c0-0.7,0.3-1.2,1-1.6c-0.2-0.1-0.3-0.2-0.4-0.3s-0.2-0.3-0.2-0.5
			c0-0.3,0.1-0.5,0.3-0.6c0.2-0.2,0.5-0.3,0.7-0.4c-0.1-0.1-0.2-0.1-0.4-0.2s-0.3-0.2-0.4-0.4c-0.1-0.2-0.2-0.3-0.3-0.6
			c-0.1-0.2-0.1-0.5-0.1-0.7c0-0.4,0.1-0.7,0.2-1s0.4-0.5,0.7-0.7s0.6-0.3,0.9-0.4c0.3-0.1,0.7-0.1,1-0.1c0.3,0,0.6,0,0.8,0.1
			c0.3,0.1,0.5,0.1,0.8,0.2l1-1l0.7,0.6L45,139.6z M42.6,145.1c-0.6,0-1.1,0-1.3-0.1c-0.2,0.1-0.4,0.3-0.6,0.5s-0.2,0.4-0.2,0.8
			c0,0.2,0.1,0.4,0.2,0.6c0.1,0.2,0.3,0.3,0.5,0.4s0.5,0.2,0.8,0.2s0.6,0.1,1,0.1c0.6,0,1.2-0.1,1.6-0.3c0.4-0.2,0.6-0.5,0.6-0.9
			c0-0.2,0-0.4-0.1-0.5c-0.1-0.1-0.2-0.3-0.4-0.3c-0.2-0.1-0.4-0.2-0.8-0.2C43.5,145.1,43.1,145.1,42.6,145.1z M41,141.6
			c0.1,0.2,0.2,0.3,0.4,0.5c0.2,0.1,0.3,0.3,0.6,0.3c0.2,0.1,0.5,0.1,0.7,0.1c0.2,0,0.4,0,0.7-0.1c0.2-0.1,0.4-0.1,0.6-0.3
			c0.2-0.1,0.3-0.3,0.4-0.5s0.2-0.4,0.2-0.7c0-0.2-0.1-0.4-0.2-0.6s-0.2-0.3-0.4-0.4c-0.2-0.1-0.4-0.2-0.6-0.3
			c-0.2-0.1-0.4-0.1-0.7-0.1c-0.2,0-0.4,0-0.7,0.1c-0.2,0.1-0.4,0.1-0.6,0.3c-0.2,0.1-0.3,0.3-0.4,0.4c-0.1,0.2-0.2,0.4-0.2,0.6
			C40.9,141.2,40.9,141.4,41,141.6z"/>
		<path class="st3" d="M51.3,145.5l-0.1-0.6c-0.2,0.2-0.5,0.4-0.8,0.5c-0.3,0.1-0.6,0.2-1,0.2c-0.3,0-0.6,0-0.8-0.1
			c-0.3-0.1-0.5-0.2-0.7-0.4c-0.2-0.2-0.4-0.4-0.5-0.7c-0.1-0.3-0.2-0.6-0.2-0.9c0-0.5,0.1-0.9,0.4-1.2c0.3-0.3,0.6-0.6,1-0.7
			c0.4-0.2,0.8-0.3,1.3-0.4c0.5-0.1,0.9-0.1,1.4-0.1v-0.1c0-0.6-0.1-1-0.4-1.2c-0.2-0.2-0.6-0.4-1-0.4c-0.3,0-0.6,0.1-0.8,0.2
			c-0.3,0.1-0.5,0.3-0.7,0.5l-0.8-0.5c0.3-0.4,0.6-0.6,1-0.8c0.4-0.2,0.8-0.3,1.4-0.3c0.7,0,1.3,0.2,1.7,0.6c0.4,0.4,0.6,1,0.6,1.9
			v4.4H51.3z M51.2,142c-0.3,0-0.6,0-1,0.1c-0.3,0-0.7,0.1-1,0.2c-0.3,0.1-0.5,0.3-0.7,0.5s-0.3,0.5-0.3,0.8c0,0.2,0,0.4,0.1,0.5
			c0.1,0.1,0.2,0.3,0.3,0.4c0.1,0.1,0.3,0.2,0.4,0.2c0.2,0,0.3,0.1,0.5,0.1c0.3,0,0.6-0.1,0.9-0.2s0.5-0.3,0.7-0.5V142z"/>
		<path class="st3" d="M56.1,144c0,0.3,0.1,0.5,0.2,0.7s0.3,0.2,0.5,0.2c0.2,0,0.3,0,0.5-0.1c0.2-0.1,0.3-0.2,0.4-0.3l0.4,0.7
			c-0.2,0.2-0.4,0.3-0.6,0.4c-0.2,0.1-0.5,0.1-0.9,0.1c-0.5,0-0.9-0.1-1.2-0.4c-0.3-0.3-0.4-0.7-0.4-1.2v-4.4h-1.1v-0.9H55V137h1.1
			v1.8h1.8v0.9h-1.8V144z"/>
		<path class="st3" d="M60.9,145.4c-0.4-0.2-0.7-0.5-1-0.8c-0.3-0.3-0.5-0.7-0.6-1.1c-0.1-0.4-0.2-0.9-0.2-1.3
			c0-0.4,0.1-0.9,0.2-1.3c0.1-0.4,0.3-0.8,0.6-1.1c0.3-0.3,0.6-0.6,1-0.8c0.4-0.2,0.8-0.3,1.4-0.3c0.5,0,1,0.1,1.4,0.3
			c0.4,0.2,0.7,0.5,1,0.8c0.3,0.3,0.5,0.7,0.6,1.1s0.2,0.8,0.2,1.3s-0.1,0.9-0.2,1.3s-0.3,0.8-0.6,1.1c-0.3,0.3-0.6,0.6-1,0.8
			c-0.4,0.2-0.8,0.3-1.4,0.3S61.3,145.6,60.9,145.4z M60.7,144c0.2,0.2,0.4,0.4,0.7,0.6c0.3,0.2,0.6,0.2,0.9,0.2
			c0.3,0,0.6-0.1,0.9-0.2c0.3-0.2,0.5-0.4,0.6-0.6s0.3-0.5,0.4-0.8s0.1-0.6,0.1-1c0-0.3,0-0.6-0.1-1c-0.1-0.3-0.2-0.6-0.4-0.8
			s-0.4-0.4-0.6-0.6c-0.3-0.1-0.6-0.2-0.9-0.2s-0.6,0.1-0.9,0.2s-0.5,0.3-0.6,0.6s-0.3,0.5-0.4,0.8c-0.1,0.3-0.1,0.6-0.1,1
			c0,0.3,0,0.7,0.1,1S60.6,143.7,60.7,144z"/>
		<path class="st3" d="M67.3,145.5v-6.7h1l0.1,0.6c0.2-0.2,0.4-0.4,0.7-0.5c0.3-0.2,0.6-0.2,0.9-0.2c0.2,0,0.4,0,0.6,0
			s0.3,0.1,0.4,0.1l-0.2,1c-0.2-0.1-0.5-0.2-0.9-0.2c-0.3,0-0.5,0.1-0.8,0.2c-0.2,0.1-0.5,0.3-0.6,0.5v5.2H67.3z"/>
		<path class="st3" d="M75.5,145.5v-9.3h2.9c1.1,0,1.9,0.2,2.4,0.7c0.5,0.5,0.8,1.2,0.8,2.1c0,0.9-0.3,1.6-0.8,2.1
			c-0.5,0.5-1.3,0.7-2.4,0.7h-1.8v3.8H75.5z M76.6,140.8h1.8c0.6,0,1-0.1,1.4-0.4c0.4-0.3,0.5-0.7,0.5-1.4c0-0.6-0.2-1.1-0.5-1.4
			s-0.8-0.4-1.4-0.4h-1.8V140.8z"/>
		<path class="st3" d="M83.3,145.5v-6.7h1l0.1,0.6c0.2-0.2,0.4-0.4,0.7-0.5c0.3-0.2,0.6-0.2,0.9-0.2c0.2,0,0.4,0,0.6,0
			s0.3,0.1,0.4,0.1l-0.2,1c-0.2-0.1-0.5-0.2-0.9-0.2c-0.3,0-0.5,0.1-0.8,0.2c-0.2,0.1-0.5,0.3-0.6,0.5v5.2H83.3z"/>
		<path class="st3" d="M89.5,145.4c-0.4-0.2-0.7-0.5-1-0.8c-0.3-0.3-0.5-0.7-0.6-1.1c-0.1-0.4-0.2-0.9-0.2-1.3
			c0-0.4,0.1-0.9,0.2-1.3c0.1-0.4,0.3-0.8,0.6-1.1c0.3-0.3,0.6-0.6,1-0.8c0.4-0.2,0.8-0.3,1.4-0.3c0.5,0,1,0.1,1.4,0.3
			c0.4,0.2,0.7,0.5,1,0.8c0.3,0.3,0.5,0.7,0.6,1.1s0.2,0.8,0.2,1.3s-0.1,0.9-0.2,1.3s-0.3,0.8-0.6,1.1c-0.3,0.3-0.6,0.6-1,0.8
			c-0.4,0.2-0.8,0.3-1.4,0.3S89.9,145.6,89.5,145.4z M89.3,144c0.2,0.2,0.4,0.4,0.7,0.6c0.3,0.2,0.6,0.2,0.9,0.2
			c0.3,0,0.6-0.1,0.9-0.2c0.3-0.2,0.5-0.4,0.6-0.6s0.3-0.5,0.4-0.8s0.1-0.6,0.1-1c0-0.3,0-0.6-0.1-1c-0.1-0.3-0.2-0.6-0.4-0.8
			s-0.4-0.4-0.6-0.6c-0.3-0.1-0.6-0.2-0.9-0.2s-0.6,0.1-0.9,0.2s-0.5,0.3-0.6,0.6s-0.3,0.5-0.4,0.8c-0.1,0.3-0.1,0.6-0.1,1
			c0,0.3,0,0.7,0.1,1S89.1,143.7,89.3,144z"/>
		<path class="st3" d="M100.3,145.5l-0.1-0.5c-0.2,0.3-0.5,0.4-0.8,0.5c-0.3,0.1-0.6,0.2-0.9,0.2c-0.5,0-0.9-0.1-1.3-0.3
			c-0.4-0.2-0.7-0.4-0.9-0.7c-0.3-0.3-0.4-0.7-0.6-1.1c-0.1-0.4-0.2-0.9-0.2-1.4c0-0.4,0.1-0.9,0.2-1.3c0.1-0.4,0.3-0.8,0.6-1.1
			c0.3-0.3,0.6-0.6,1-0.8s0.9-0.3,1.4-0.3c0.3,0,0.6,0,0.9,0.1c0.2,0.1,0.4,0.1,0.6,0.2v-2.7h1.1v9.3H100.3z M100.3,139.9
			c-0.1,0-0.1-0.1-0.2-0.1c-0.1,0-0.2-0.1-0.3-0.1c-0.1,0-0.2-0.1-0.4-0.1c-0.1,0-0.3,0-0.4,0c-0.4,0-0.7,0.1-1,0.2
			s-0.5,0.3-0.7,0.6c-0.2,0.2-0.3,0.5-0.4,0.8c-0.1,0.3-0.1,0.6-0.1,1c0,0.4,0,0.7,0.1,1s0.2,0.6,0.4,0.8s0.4,0.4,0.6,0.6
			c0.3,0.1,0.6,0.2,0.9,0.2c0.3,0,0.6-0.1,0.8-0.2c0.3-0.1,0.5-0.3,0.7-0.6V139.9z"/>
		<path class="st3" d="M104.6,143.1c0,0.6,0.1,1,0.4,1.3c0.3,0.3,0.7,0.4,1.2,0.4c0.3,0,0.7-0.1,1-0.2s0.6-0.3,0.8-0.5v-5.2h1.1v6.7
			h-1l-0.1-0.5c-0.3,0.2-0.6,0.4-0.9,0.5c-0.3,0.1-0.7,0.2-1.2,0.2c-0.9,0-1.5-0.2-1.9-0.6c-0.4-0.4-0.6-1.1-0.6-2v-4.2h1.1V143.1z"
			/>
		<path class="st3" d="M116.8,144.1c-0.3,0.5-0.6,0.9-1.1,1.2c-0.5,0.3-0.9,0.4-1.4,0.4c-0.4,0-0.8-0.1-1.2-0.2s-0.7-0.4-1-0.6
			c-0.3-0.3-0.5-0.7-0.7-1.1c-0.2-0.4-0.3-0.9-0.3-1.5c0-0.6,0.1-1.2,0.3-1.6c0.2-0.4,0.4-0.8,0.7-1.1c0.3-0.3,0.6-0.5,1-0.6
			s0.7-0.2,1.1-0.2c0.4,0,0.7,0.1,1,0.2c0.3,0.1,0.5,0.3,0.7,0.4c0.2,0.2,0.4,0.3,0.5,0.5s0.2,0.4,0.3,0.5l-0.8,0.5
			c-0.2-0.4-0.4-0.8-0.7-1s-0.6-0.3-0.9-0.3c-0.3,0-0.5,0.1-0.7,0.2c-0.2,0.1-0.4,0.3-0.6,0.5c-0.2,0.2-0.3,0.5-0.4,0.8
			c-0.1,0.3-0.2,0.7-0.2,1.1s0.1,0.8,0.2,1.1c0.1,0.3,0.3,0.6,0.5,0.8c0.2,0.2,0.4,0.4,0.7,0.5c0.3,0.1,0.5,0.2,0.8,0.2
			c0.3,0,0.6-0.1,0.9-0.3c0.3-0.2,0.6-0.5,0.7-0.9L116.8,144.1z"/>
		<path class="st3" d="M120,144c0,0.3,0.1,0.5,0.2,0.7s0.3,0.2,0.5,0.2c0.2,0,0.3,0,0.5-0.1c0.2-0.1,0.3-0.2,0.4-0.3l0.4,0.7
			c-0.2,0.2-0.4,0.3-0.6,0.4c-0.2,0.1-0.5,0.1-0.9,0.1c-0.5,0-0.9-0.1-1.2-0.4c-0.3-0.3-0.4-0.7-0.4-1.2v-4.4h-1.1v-0.9h1.1V137h1.1
			v1.8h1.8v0.9H120V144z"/>
		<path class="st3" d="M123.9,137.8c-0.2,0-0.4-0.1-0.5-0.2c-0.1-0.2-0.2-0.3-0.2-0.6c0-0.2,0.1-0.4,0.2-0.6
			c0.1-0.2,0.3-0.2,0.5-0.2c0.2,0,0.4,0.1,0.5,0.2c0.1,0.2,0.2,0.3,0.2,0.6c0,0.2-0.1,0.4-0.2,0.6
			C124.3,137.7,124.1,137.8,123.9,137.8z M123.4,145.5v-6.7h1.1v6.7H123.4z"/>
		<path class="st3" d="M128.3,145.5l-2.5-6.7h1.2l2,5.4l2-5.4h1.1l-2.5,6.7H128.3z"/>
		<path class="st3" d="M133.9,137.8c-0.2,0-0.4-0.1-0.5-0.2c-0.1-0.2-0.2-0.3-0.2-0.6c0-0.2,0.1-0.4,0.2-0.6
			c0.1-0.2,0.3-0.2,0.5-0.2c0.2,0,0.4,0.1,0.5,0.2c0.1,0.2,0.2,0.3,0.2,0.6c0,0.2-0.1,0.4-0.2,0.6
			C134.3,137.7,134.1,137.8,133.9,137.8z M133.3,145.5v-6.7h1.1v6.7H133.3z"/>
		<path class="st3" d="M138.2,144c0,0.3,0.1,0.5,0.2,0.7s0.3,0.2,0.5,0.2c0.2,0,0.3,0,0.5-0.1c0.2-0.1,0.3-0.2,0.4-0.3l0.4,0.7
			c-0.2,0.2-0.4,0.3-0.6,0.4c-0.2,0.1-0.5,0.1-0.9,0.1c-0.5,0-0.9-0.1-1.2-0.4c-0.3-0.3-0.4-0.7-0.4-1.2v-4.4H136v-0.9h1.1V137h1.1
			v1.8h1.8v0.9h-1.8V144z"/>
		<path class="st3" d="M141,147.3c0.1,0,0.2,0.1,0.4,0.1c0.2,0,0.3,0,0.5,0c0.2,0,0.4-0.1,0.5-0.2c0.1-0.1,0.2-0.3,0.4-0.6l0.5-1.3
			l-2.6-6.5h1.2l2,5.1l2-5.1h1.2l-3.4,8.4c-0.2,0.4-0.4,0.7-0.7,0.8c-0.3,0.1-0.6,0.2-0.9,0.2c-0.2,0-0.4,0-0.7-0.1
			c-0.2-0.1-0.4-0.1-0.6-0.2L141,147.3z"/>
		<path class="st3" d="M12.1,184.5v-9.3h1.3l2.7,7.2l2.8-7.2h1.3v9.3h-1.1v-7.1l-2.9,7.3h-0.2l-2.8-7.3v7.1H12.1z"/>
		<path class="st3" d="M24.1,184.4c-0.4-0.2-0.7-0.5-1-0.8c-0.3-0.3-0.5-0.7-0.6-1.1c-0.1-0.4-0.2-0.9-0.2-1.3
			c0-0.4,0.1-0.9,0.2-1.3c0.1-0.4,0.3-0.8,0.6-1.1c0.3-0.3,0.6-0.6,1-0.8c0.4-0.2,0.8-0.3,1.4-0.3c0.5,0,1,0.1,1.4,0.3
			c0.4,0.2,0.7,0.5,1,0.8c0.3,0.3,0.5,0.7,0.6,1.1s0.2,0.8,0.2,1.3s-0.1,0.9-0.2,1.3s-0.3,0.8-0.6,1.1c-0.3,0.3-0.6,0.6-1,0.8
			c-0.4,0.2-0.8,0.3-1.4,0.3S24.5,184.6,24.1,184.4z M24,183c0.2,0.2,0.4,0.4,0.7,0.6c0.3,0.2,0.6,0.2,0.9,0.2
			c0.3,0,0.6-0.1,0.9-0.2c0.3-0.2,0.5-0.4,0.6-0.6s0.3-0.5,0.4-0.8s0.1-0.6,0.1-1c0-0.3,0-0.6-0.1-1c-0.1-0.3-0.2-0.6-0.4-0.8
			s-0.4-0.4-0.6-0.6c-0.3-0.1-0.6-0.2-0.9-0.2s-0.6,0.1-0.9,0.2s-0.5,0.3-0.6,0.6s-0.3,0.5-0.4,0.8c-0.1,0.3-0.1,0.6-0.1,1
			c0,0.3,0,0.7,0.1,1S23.8,182.7,24,183z"/>
		<path class="st3" d="M30.6,184.5v-6.7h1l0.1,0.5c0.3-0.2,0.6-0.4,1-0.5c0.4-0.1,0.8-0.2,1.2-0.2c0.9,0,1.6,0.2,1.9,0.7
			c0.4,0.5,0.6,1.1,0.6,2v4.2h-1.1v-4.2c0-0.6-0.1-1-0.4-1.3s-0.7-0.5-1.2-0.5c-0.4,0-0.7,0.1-1,0.2c-0.3,0.2-0.6,0.3-0.9,0.5v5.2
			H30.6z"/>
		<path class="st3" d="M40,183c0,0.3,0.1,0.5,0.2,0.7s0.3,0.2,0.5,0.2c0.2,0,0.3,0,0.5-0.1c0.2-0.1,0.3-0.2,0.4-0.3l0.4,0.7
			c-0.2,0.2-0.4,0.3-0.6,0.4c-0.2,0.1-0.5,0.1-0.9,0.1c-0.5,0-0.9-0.1-1.2-0.4c-0.3-0.3-0.4-0.7-0.4-1.2v-4.4h-1.1v-0.9h1.1V176H40
			v1.8h1.8v0.9H40V183z"/>
		<path class="st3" d="M43.4,184.5v-9.3h1.1v3.2c0.3-0.2,0.6-0.4,0.9-0.5c0.3-0.1,0.7-0.2,1.2-0.2c0.9,0,1.5,0.2,1.9,0.7
			c0.4,0.5,0.6,1.1,0.6,2v4.2H48v-4.2c0-0.6-0.1-1.1-0.4-1.4s-0.7-0.4-1.2-0.4c-0.4,0-0.7,0.1-1,0.2c-0.3,0.2-0.6,0.3-0.9,0.5v5.2
			H43.4z"/>
		<path class="st3" d="M51.3,184.5v-9.3h1.1v9.3H51.3z"/>
		<path class="st3" d="M54.1,186.3c0.1,0,0.2,0.1,0.4,0.1c0.2,0,0.3,0,0.5,0c0.2,0,0.4-0.1,0.5-0.2c0.1-0.1,0.2-0.3,0.4-0.6l0.5-1.3
			l-2.6-6.5H55l2,5.1l2-5.1h1.2l-3.4,8.4c-0.2,0.4-0.4,0.7-0.7,0.8c-0.3,0.1-0.6,0.2-0.9,0.2c-0.2,0-0.4,0-0.7-0.1
			c-0.2-0.1-0.4-0.1-0.6-0.2L54.1,186.3z"/>
		<path class="st3" d="M71.1,182.8c-0.1,0.2-0.3,0.4-0.4,0.7c-0.2,0.2-0.4,0.4-0.6,0.6c-0.2,0.2-0.5,0.3-0.8,0.4
			c-0.3,0.1-0.7,0.2-1.1,0.2c-0.6,0-1.1-0.1-1.5-0.3s-0.9-0.5-1.2-0.9c-0.4-0.4-0.6-0.9-0.8-1.5c-0.2-0.6-0.3-1.3-0.3-2.2
			c0-0.9,0.1-1.6,0.3-2.2c0.2-0.6,0.5-1.1,0.8-1.5c0.3-0.4,0.7-0.7,1.2-0.9c0.4-0.2,0.9-0.3,1.4-0.3c0.7,0,1.3,0.2,1.9,0.5
			c0.6,0.3,1,0.8,1.2,1.4l-0.9,0.5c-0.1-0.2-0.2-0.3-0.3-0.5c-0.1-0.2-0.3-0.3-0.5-0.5c-0.2-0.1-0.4-0.2-0.6-0.3
			c-0.2-0.1-0.5-0.1-0.7-0.1c-0.8,0-1.5,0.3-1.9,1c-0.5,0.7-0.7,1.6-0.7,2.9c0,0.6,0.1,1.1,0.2,1.6c0.1,0.5,0.3,0.9,0.6,1.2
			c0.2,0.3,0.5,0.6,0.9,0.7c0.3,0.2,0.7,0.2,1.1,0.2c0.3,0,0.5,0,0.7-0.1c0.2-0.1,0.4-0.2,0.6-0.3s0.3-0.3,0.5-0.4
			c0.1-0.2,0.3-0.4,0.4-0.5L71.1,182.8z"/>
		<path class="st3" d="M76.6,184.5l-0.1-0.6c-0.2,0.2-0.5,0.4-0.8,0.5c-0.3,0.1-0.6,0.2-1,0.2c-0.3,0-0.6,0-0.8-0.1
			c-0.3-0.1-0.5-0.2-0.7-0.4c-0.2-0.2-0.4-0.4-0.5-0.7c-0.1-0.3-0.2-0.6-0.2-0.9c0-0.5,0.1-0.9,0.4-1.2c0.3-0.3,0.6-0.6,1-0.7
			c0.4-0.2,0.8-0.3,1.3-0.4c0.5-0.1,0.9-0.1,1.4-0.1v-0.1c0-0.6-0.1-1-0.4-1.2c-0.2-0.2-0.6-0.4-1-0.4c-0.3,0-0.6,0.1-0.8,0.2
			c-0.3,0.1-0.5,0.3-0.7,0.5l-0.8-0.5c0.3-0.4,0.6-0.6,1-0.8c0.4-0.2,0.8-0.3,1.4-0.3c0.7,0,1.3,0.2,1.7,0.6c0.4,0.4,0.6,1,0.6,1.9
			v4.4H76.6z M76.5,181c-0.3,0-0.6,0-1,0.1c-0.3,0-0.7,0.1-1,0.2c-0.3,0.1-0.5,0.3-0.7,0.5s-0.3,0.5-0.3,0.8c0,0.2,0,0.4,0.1,0.5
			c0.1,0.1,0.2,0.3,0.3,0.4c0.1,0.1,0.3,0.2,0.4,0.2c0.2,0,0.3,0.1,0.5,0.1c0.3,0,0.6-0.1,0.9-0.2s0.5-0.3,0.7-0.5V181z"/>
		<path class="st3" d="M80.1,182.9c0.2,0.3,0.4,0.5,0.6,0.7c0.2,0.2,0.6,0.2,1,0.2c0.9,0,1.4-0.3,1.4-1c0-0.2,0-0.4-0.1-0.5
			c-0.1-0.1-0.2-0.3-0.3-0.4c-0.1-0.1-0.3-0.2-0.5-0.3c-0.2-0.1-0.5-0.2-0.8-0.3c-0.3-0.1-0.6-0.2-0.9-0.4s-0.4-0.3-0.6-0.4
			c-0.1-0.1-0.3-0.3-0.3-0.5c-0.1-0.2-0.1-0.4-0.1-0.7c0-0.5,0.2-1,0.6-1.3c0.4-0.3,0.9-0.5,1.6-0.5c0.5,0,1,0.1,1.4,0.3
			c0.4,0.2,0.7,0.4,0.9,0.8l-0.8,0.6c-0.2-0.2-0.4-0.4-0.7-0.6s-0.5-0.2-0.9-0.2c-0.4,0-0.7,0.1-0.9,0.2c-0.2,0.2-0.3,0.3-0.3,0.6
			c0,0.1,0,0.3,0.1,0.4c0.1,0.1,0.1,0.2,0.3,0.3s0.3,0.2,0.5,0.3c0.2,0.1,0.5,0.2,0.8,0.3c0.6,0.2,1.1,0.5,1.4,0.8
			c0.3,0.3,0.5,0.8,0.5,1.3c0,0.3-0.1,0.6-0.2,0.8c-0.1,0.2-0.3,0.5-0.5,0.6c-0.2,0.2-0.5,0.3-0.7,0.4c-0.3,0.1-0.6,0.1-1,0.1
			c-0.7,0-1.2-0.1-1.6-0.4c-0.4-0.2-0.7-0.6-0.9-0.9L80.1,182.9z"/>
		<path class="st3" d="M86.6,181.1c0,0.8,0.2,1.5,0.6,2s0.9,0.7,1.7,0.7c0.4,0,0.8-0.1,1.1-0.3s0.5-0.5,0.7-0.8l0.7,0.5
			c-0.2,0.4-0.6,0.8-0.9,1c-0.4,0.3-0.9,0.4-1.6,0.4c-0.5,0-1-0.1-1.4-0.2c-0.4-0.2-0.7-0.4-1-0.7c-0.3-0.3-0.5-0.7-0.7-1.1
			s-0.2-0.9-0.2-1.5c0-0.5,0.1-1,0.2-1.4c0.1-0.4,0.3-0.8,0.6-1.1c0.3-0.3,0.6-0.5,0.9-0.7c0.4-0.2,0.8-0.2,1.2-0.2
			c0.5,0,0.9,0.1,1.3,0.3s0.7,0.4,0.9,0.7s0.4,0.7,0.5,1.1s0.2,0.9,0.2,1.4H86.6z M90.3,180.3c0-0.3-0.1-0.5-0.2-0.8
			c-0.1-0.2-0.2-0.4-0.4-0.5c-0.2-0.1-0.3-0.3-0.5-0.3c-0.2-0.1-0.4-0.1-0.6-0.1c-0.4,0-0.8,0.1-1.2,0.4c-0.3,0.3-0.5,0.7-0.7,1.3
			H90.3z"/>
		<path class="st3" d="M103.1,182.8c-0.1,0.2-0.3,0.4-0.4,0.7c-0.2,0.2-0.4,0.4-0.6,0.6c-0.2,0.2-0.5,0.3-0.8,0.4
			c-0.3,0.1-0.7,0.2-1.1,0.2c-0.6,0-1.1-0.1-1.5-0.3s-0.9-0.5-1.2-0.9c-0.4-0.4-0.6-0.9-0.8-1.5c-0.2-0.6-0.3-1.3-0.3-2.2
			c0-0.9,0.1-1.6,0.3-2.2c0.2-0.6,0.5-1.1,0.8-1.5c0.3-0.4,0.7-0.7,1.2-0.9c0.4-0.2,0.9-0.3,1.4-0.3c0.7,0,1.3,0.2,1.9,0.5
			c0.6,0.3,1,0.8,1.2,1.4l-0.9,0.5c-0.1-0.2-0.2-0.3-0.3-0.5c-0.1-0.2-0.3-0.3-0.5-0.5c-0.2-0.1-0.4-0.2-0.6-0.3
			c-0.2-0.1-0.5-0.1-0.7-0.1c-0.8,0-1.5,0.3-1.9,1c-0.5,0.7-0.7,1.6-0.7,2.9c0,0.6,0.1,1.1,0.2,1.6c0.1,0.5,0.3,0.9,0.6,1.2
			c0.2,0.3,0.5,0.6,0.9,0.7c0.3,0.2,0.7,0.2,1.1,0.2c0.3,0,0.5,0,0.7-0.1c0.2-0.1,0.4-0.2,0.6-0.3s0.3-0.3,0.5-0.4
			c0.1-0.2,0.3-0.4,0.4-0.5L103.1,182.8z"/>
		<path class="st3" d="M108.5,184.5l-0.1-0.6c-0.2,0.2-0.5,0.4-0.8,0.5c-0.3,0.1-0.6,0.2-1,0.2c-0.3,0-0.6,0-0.8-0.1
			c-0.3-0.1-0.5-0.2-0.7-0.4c-0.2-0.2-0.4-0.4-0.5-0.7c-0.1-0.3-0.2-0.6-0.2-0.9c0-0.5,0.1-0.9,0.4-1.2c0.3-0.3,0.6-0.6,1-0.7
			c0.4-0.2,0.8-0.3,1.3-0.4c0.5-0.1,0.9-0.1,1.4-0.1v-0.1c0-0.6-0.1-1-0.4-1.2c-0.2-0.2-0.6-0.4-1-0.4c-0.3,0-0.6,0.1-0.8,0.2
			c-0.3,0.1-0.5,0.3-0.7,0.5l-0.8-0.5c0.3-0.4,0.6-0.6,1-0.8c0.4-0.2,0.8-0.3,1.4-0.3c0.7,0,1.3,0.2,1.7,0.6c0.4,0.4,0.6,1,0.6,1.9
			v4.4H108.5z M108.4,181c-0.3,0-0.6,0-1,0.1c-0.3,0-0.7,0.1-1,0.2c-0.3,0.1-0.5,0.3-0.7,0.5s-0.3,0.5-0.3,0.8c0,0.2,0,0.4,0.1,0.5
			c0.1,0.1,0.2,0.3,0.3,0.4c0.1,0.1,0.3,0.2,0.4,0.2c0.2,0,0.3,0.1,0.5,0.1c0.3,0,0.6-0.1,0.9-0.2s0.5-0.3,0.7-0.5V181z"/>
		<path class="st3" d="M111.7,187.2v-9.3h1l0.1,0.5c0.3-0.2,0.6-0.4,0.9-0.5c0.3-0.1,0.7-0.2,1-0.2c0.5,0,0.9,0.1,1.3,0.3
			c0.3,0.2,0.6,0.4,0.8,0.8c0.2,0.3,0.4,0.7,0.5,1.1c0.1,0.4,0.1,0.8,0.1,1.3c0,0.5-0.1,1-0.3,1.5c-0.2,0.4-0.4,0.8-0.7,1.1
			c-0.3,0.3-0.6,0.6-1.1,0.7c-0.4,0.2-0.9,0.3-1.3,0.3c-0.5,0-1-0.1-1.3-0.2v2.7H111.7z M112.8,183.5c0.1,0.1,0.3,0.1,0.4,0.2
			s0.4,0.1,0.7,0.1c0.4,0,0.7-0.1,1-0.2c0.3-0.1,0.6-0.3,0.8-0.5c0.2-0.2,0.4-0.5,0.5-0.8c0.1-0.3,0.2-0.7,0.2-1.1
			c0-0.3,0-0.6-0.1-0.9s-0.2-0.6-0.3-0.8c-0.1-0.2-0.3-0.4-0.6-0.6c-0.2-0.2-0.6-0.2-0.9-0.2c-0.3,0-0.6,0.1-0.9,0.2
			c-0.3,0.1-0.5,0.3-0.8,0.5V183.5z"/>
		<path class="st3" d="M123.1,184.5l-0.1-0.6c-0.2,0.2-0.5,0.4-0.8,0.5c-0.3,0.1-0.6,0.2-1,0.2c-0.3,0-0.6,0-0.8-0.1
			c-0.3-0.1-0.5-0.2-0.7-0.4c-0.2-0.2-0.4-0.4-0.5-0.7c-0.1-0.3-0.2-0.6-0.2-0.9c0-0.5,0.1-0.9,0.4-1.2c0.3-0.3,0.6-0.6,1-0.7
			c0.4-0.2,0.8-0.3,1.3-0.4c0.5-0.1,0.9-0.1,1.4-0.1v-0.1c0-0.6-0.1-1-0.4-1.2c-0.2-0.2-0.6-0.4-1-0.4c-0.3,0-0.6,0.1-0.8,0.2
			c-0.3,0.1-0.5,0.3-0.7,0.5l-0.8-0.5c0.3-0.4,0.6-0.6,1-0.8c0.4-0.2,0.8-0.3,1.4-0.3c0.7,0,1.3,0.2,1.7,0.6c0.4,0.4,0.6,1,0.6,1.9
			v4.4H123.1z M123,181c-0.3,0-0.6,0-1,0.1c-0.3,0-0.7,0.1-1,0.2c-0.3,0.1-0.5,0.3-0.7,0.5s-0.3,0.5-0.3,0.8c0,0.2,0,0.4,0.1,0.5
			c0.1,0.1,0.2,0.3,0.3,0.4c0.1,0.1,0.3,0.2,0.4,0.2c0.2,0,0.3,0.1,0.5,0.1c0.3,0,0.6-0.1,0.9-0.2s0.5-0.3,0.7-0.5V181z"/>
		<path class="st3" d="M131.7,183.1c-0.3,0.5-0.6,0.9-1.1,1.2c-0.5,0.3-0.9,0.4-1.4,0.4c-0.4,0-0.8-0.1-1.2-0.2s-0.7-0.4-1-0.6
			c-0.3-0.3-0.5-0.7-0.7-1.1c-0.2-0.4-0.3-0.9-0.3-1.5c0-0.6,0.1-1.2,0.3-1.6c0.2-0.4,0.4-0.8,0.7-1.1c0.3-0.3,0.6-0.5,1-0.6
			s0.7-0.2,1.1-0.2c0.4,0,0.7,0.1,1,0.2c0.3,0.1,0.5,0.3,0.7,0.4c0.2,0.2,0.4,0.3,0.5,0.5s0.2,0.4,0.3,0.5l-0.8,0.5
			c-0.2-0.4-0.4-0.8-0.7-1s-0.6-0.3-0.9-0.3c-0.3,0-0.5,0.1-0.7,0.2c-0.2,0.1-0.4,0.3-0.6,0.5c-0.2,0.2-0.3,0.5-0.4,0.8
			c-0.1,0.3-0.2,0.7-0.2,1.1s0.1,0.8,0.2,1.1c0.1,0.3,0.3,0.6,0.5,0.8c0.2,0.2,0.4,0.4,0.7,0.5c0.3,0.1,0.5,0.2,0.8,0.2
			c0.3,0,0.6-0.1,0.9-0.3c0.3-0.2,0.6-0.5,0.7-0.9L131.7,183.1z"/>
		<path class="st3" d="M133.9,176.8c-0.2,0-0.4-0.1-0.5-0.2c-0.1-0.2-0.2-0.3-0.2-0.6c0-0.2,0.1-0.4,0.2-0.6
			c0.1-0.2,0.3-0.2,0.5-0.2c0.2,0,0.4,0.1,0.5,0.2c0.1,0.2,0.2,0.3,0.2,0.6c0,0.2-0.1,0.4-0.2,0.6
			C134.3,176.7,134.1,176.8,133.9,176.8z M133.3,184.5v-6.7h1.1v6.7H133.3z"/>
		<path class="st3" d="M138.2,183c0,0.3,0.1,0.5,0.2,0.7s0.3,0.2,0.5,0.2c0.2,0,0.3,0,0.5-0.1c0.2-0.1,0.3-0.2,0.4-0.3l0.4,0.7
			c-0.2,0.2-0.4,0.3-0.6,0.4c-0.2,0.1-0.5,0.1-0.9,0.1c-0.5,0-0.9-0.1-1.2-0.4c-0.3-0.3-0.4-0.7-0.4-1.2v-4.4H136v-0.9h1.1V176h1.1
			v1.8h1.8v0.9h-1.8V183z"/>
		<path class="st3" d="M141,186.3c0.1,0,0.2,0.1,0.4,0.1c0.2,0,0.3,0,0.5,0c0.2,0,0.4-0.1,0.5-0.2c0.1-0.1,0.2-0.3,0.4-0.6l0.5-1.3
			l-2.6-6.5h1.2l2,5.1l2-5.1h1.2l-3.4,8.4c-0.2,0.4-0.4,0.7-0.7,0.8c-0.3,0.1-0.6,0.2-0.9,0.2c-0.2,0-0.4,0-0.7-0.1
			c-0.2-0.1-0.4-0.1-0.6-0.2L141,186.3z"/>
		<path class="st3" d="M53.6,234.5v-9.3h5.4v1h-4.3v3h3.1v1h-3.1v3.4h4.7v1H53.6z"/>
		<path class="st3" d="M61,234.5v-6.7h1l0.1,0.6c0.2-0.2,0.4-0.4,0.7-0.5c0.3-0.2,0.6-0.2,0.9-0.2c0.2,0,0.4,0,0.6,0
			c0.2,0,0.3,0.1,0.4,0.1l-0.2,1c-0.2-0.1-0.5-0.2-0.9-0.2c-0.3,0-0.5,0.1-0.8,0.2s-0.5,0.3-0.6,0.5v5.2H61z"/>
		<path class="st3" d="M65.9,234.5v-6.7h1l0.1,0.6c0.2-0.2,0.4-0.4,0.7-0.5c0.3-0.2,0.6-0.2,0.9-0.2c0.2,0,0.4,0,0.6,0
			c0.2,0,0.3,0.1,0.4,0.1l-0.2,1c-0.2-0.1-0.5-0.2-0.9-0.2c-0.3,0-0.5,0.1-0.8,0.2s-0.5,0.3-0.6,0.5v5.2H65.9z"/>
		<path class="st3" d="M72,234.4c-0.4-0.2-0.7-0.5-1-0.8c-0.3-0.3-0.5-0.7-0.6-1.1s-0.2-0.9-0.2-1.3s0.1-0.9,0.2-1.3
			c0.1-0.4,0.3-0.8,0.6-1.1c0.3-0.3,0.6-0.6,1-0.8c0.4-0.2,0.8-0.3,1.4-0.3c0.5,0,1,0.1,1.4,0.3c0.4,0.2,0.7,0.5,1,0.8
			s0.5,0.7,0.6,1.1s0.2,0.8,0.2,1.3s-0.1,0.9-0.2,1.3s-0.3,0.8-0.6,1.1c-0.3,0.3-0.6,0.6-1,0.8c-0.4,0.2-0.8,0.3-1.4,0.3
			S72.4,234.6,72,234.4z M71.8,233c0.2,0.2,0.4,0.4,0.7,0.6c0.3,0.2,0.6,0.2,0.9,0.2c0.3,0,0.6-0.1,0.9-0.2c0.3-0.2,0.5-0.4,0.6-0.6
			s0.3-0.5,0.4-0.8s0.1-0.6,0.1-1c0-0.3,0-0.6-0.1-1s-0.2-0.6-0.4-0.8s-0.4-0.4-0.6-0.6c-0.3-0.1-0.6-0.2-0.9-0.2s-0.6,0.1-0.9,0.2
			s-0.5,0.3-0.6,0.6s-0.3,0.5-0.4,0.8s-0.1,0.6-0.1,1c0,0.3,0,0.7,0.1,1S71.7,232.7,71.8,233z"/>
		<path class="st3" d="M78.5,234.5v-6.7h1l0.1,0.6c0.2-0.2,0.4-0.4,0.7-0.5c0.3-0.2,0.6-0.2,0.9-0.2c0.2,0,0.4,0,0.6,0
			c0.2,0,0.3,0.1,0.4,0.1l-0.2,1c-0.2-0.1-0.5-0.2-0.9-0.2c-0.3,0-0.5,0.1-0.8,0.2s-0.5,0.3-0.6,0.5v5.2H78.5z"/>
		<path class="st3" d="M86.6,234.5v-9.3h3c1,0,1.8,0.2,2.3,0.7c0.5,0.5,0.7,1.1,0.7,1.8c0,0.4-0.1,0.8-0.2,1.1
			c-0.1,0.3-0.3,0.6-0.5,0.8s-0.5,0.4-0.7,0.5c-0.3,0.1-0.6,0.2-0.9,0.3l2.5,4.2h-1.3l-2.5-4.1h-1.4v4.1H86.6z M87.8,229.5h1.8
			c1.3,0,1.9-0.6,1.9-1.7c0-0.5-0.2-0.9-0.5-1.2c-0.3-0.3-0.8-0.4-1.4-0.4h-1.9V229.5z"/>
		<path class="st3" d="M95,231.1c0,0.8,0.2,1.5,0.6,2c0.4,0.5,0.9,0.7,1.7,0.7c0.4,0,0.8-0.1,1.1-0.3c0.3-0.2,0.5-0.5,0.7-0.8
			l0.7,0.5c-0.2,0.4-0.6,0.8-0.9,1c-0.4,0.3-0.9,0.4-1.6,0.4c-0.5,0-1-0.1-1.4-0.2s-0.7-0.4-1-0.7c-0.3-0.3-0.5-0.7-0.7-1.1
			s-0.2-0.9-0.2-1.5c0-0.5,0.1-1,0.2-1.4c0.1-0.4,0.3-0.8,0.6-1.1c0.3-0.3,0.6-0.5,0.9-0.7c0.4-0.2,0.8-0.2,1.2-0.2
			c0.5,0,0.9,0.1,1.3,0.3s0.7,0.4,0.9,0.7c0.2,0.3,0.4,0.7,0.5,1.1s0.2,0.9,0.2,1.4H95z M98.6,230.3c0-0.3-0.1-0.5-0.2-0.8
			c-0.1-0.2-0.2-0.4-0.4-0.5c-0.2-0.1-0.3-0.3-0.5-0.3c-0.2-0.1-0.4-0.1-0.6-0.1c-0.4,0-0.8,0.1-1.2,0.4c-0.3,0.3-0.5,0.7-0.7,1.3
			H98.6z"/>
		<path class="st3" d="M106.2,234.5l-0.1-0.5c-0.2,0.3-0.5,0.4-0.8,0.5c-0.3,0.1-0.6,0.2-0.9,0.2c-0.5,0-0.9-0.1-1.3-0.3
			c-0.4-0.2-0.7-0.4-0.9-0.7s-0.4-0.7-0.6-1.1c-0.1-0.4-0.2-0.9-0.2-1.4c0-0.4,0.1-0.9,0.2-1.3c0.1-0.4,0.3-0.8,0.6-1.1
			c0.3-0.3,0.6-0.6,1-0.8c0.4-0.2,0.9-0.3,1.4-0.3c0.3,0,0.6,0,0.9,0.1c0.2,0.1,0.4,0.1,0.6,0.2v-2.7h1.1v9.3H106.2z M106.1,228.9
			c-0.1,0-0.1-0.1-0.2-0.1c-0.1,0-0.2-0.1-0.3-0.1c-0.1,0-0.2-0.1-0.4-0.1c-0.1,0-0.3,0-0.4,0c-0.4,0-0.7,0.1-1,0.2
			s-0.5,0.3-0.7,0.6c-0.2,0.2-0.3,0.5-0.4,0.8c-0.1,0.3-0.1,0.6-0.1,1c0,0.4,0,0.7,0.1,1c0.1,0.3,0.2,0.6,0.4,0.8s0.4,0.4,0.6,0.6
			c0.3,0.1,0.6,0.2,0.9,0.2c0.3,0,0.6-0.1,0.8-0.2c0.3-0.1,0.5-0.3,0.7-0.6V228.9z"/>
		<path class="st3" d="M110.4,232.1c0,0.6,0.1,1,0.4,1.3c0.3,0.3,0.7,0.4,1.2,0.4c0.3,0,0.7-0.1,1-0.2s0.6-0.3,0.8-0.5v-5.2h1.1v6.7
			h-1l-0.1-0.5c-0.3,0.2-0.6,0.4-0.9,0.5s-0.7,0.2-1.2,0.2c-0.9,0-1.5-0.2-1.9-0.6c-0.4-0.4-0.6-1.1-0.6-2v-4.2h1.1V232.1z"/>
		<path class="st3" d="M122.6,233.1c-0.3,0.5-0.6,0.9-1.1,1.2c-0.5,0.3-0.9,0.4-1.4,0.4c-0.4,0-0.8-0.1-1.2-0.2
			c-0.4-0.1-0.7-0.4-1-0.6c-0.3-0.3-0.5-0.7-0.7-1.1c-0.2-0.4-0.3-0.9-0.3-1.5c0-0.6,0.1-1.2,0.3-1.6c0.2-0.4,0.4-0.8,0.7-1.1
			c0.3-0.3,0.6-0.5,1-0.6c0.4-0.1,0.7-0.2,1.1-0.2c0.4,0,0.7,0.1,1,0.2c0.3,0.1,0.5,0.3,0.7,0.4c0.2,0.2,0.4,0.3,0.5,0.5
			s0.2,0.4,0.3,0.5l-0.8,0.5c-0.2-0.4-0.4-0.8-0.7-1c-0.3-0.2-0.6-0.3-0.9-0.3c-0.3,0-0.5,0.1-0.7,0.2c-0.2,0.1-0.4,0.3-0.6,0.5
			c-0.2,0.2-0.3,0.5-0.4,0.8c-0.1,0.3-0.2,0.7-0.2,1.1s0.1,0.8,0.2,1.1c0.1,0.3,0.3,0.6,0.5,0.8c0.2,0.2,0.4,0.4,0.7,0.5
			c0.3,0.1,0.5,0.2,0.8,0.2c0.3,0,0.6-0.1,0.9-0.3c0.3-0.2,0.6-0.5,0.7-0.9L122.6,233.1z"/>
		<path class="st3" d="M125.8,233c0,0.3,0.1,0.5,0.2,0.7s0.3,0.2,0.5,0.2c0.2,0,0.3,0,0.5-0.1c0.2-0.1,0.3-0.2,0.4-0.3l0.4,0.7
			c-0.2,0.2-0.4,0.3-0.6,0.4c-0.2,0.1-0.5,0.1-0.9,0.1c-0.5,0-0.9-0.1-1.2-0.4c-0.3-0.3-0.4-0.7-0.4-1.2v-4.4h-1.1v-0.9h1.1V226h1.1
			v1.8h1.8v0.9h-1.8V233z"/>
		<path class="st3" d="M129.8,226.8c-0.2,0-0.4-0.1-0.5-0.2c-0.1-0.2-0.2-0.3-0.2-0.6c0-0.2,0.1-0.4,0.2-0.6
			c0.1-0.2,0.3-0.2,0.5-0.2c0.2,0,0.4,0.1,0.5,0.2c0.1,0.2,0.2,0.3,0.2,0.6c0,0.2-0.1,0.4-0.2,0.6
			C130.1,226.7,129.9,226.8,129.8,226.8z M129.2,234.5v-6.7h1.1v6.7H129.2z"/>
		<path class="st3" d="M134,234.4c-0.4-0.2-0.7-0.5-1-0.8c-0.3-0.3-0.5-0.7-0.6-1.1s-0.2-0.9-0.2-1.3s0.1-0.9,0.2-1.3
			c0.1-0.4,0.3-0.8,0.6-1.1c0.3-0.3,0.6-0.6,1-0.8c0.4-0.2,0.8-0.3,1.4-0.3c0.5,0,1,0.1,1.4,0.3c0.4,0.2,0.7,0.5,1,0.8
			s0.5,0.7,0.6,1.1s0.2,0.8,0.2,1.3s-0.1,0.9-0.2,1.3s-0.3,0.8-0.6,1.1c-0.3,0.3-0.6,0.6-1,0.8c-0.4,0.2-0.8,0.3-1.4,0.3
			S134.4,234.6,134,234.4z M133.8,233c0.2,0.2,0.4,0.4,0.7,0.6c0.3,0.2,0.6,0.2,0.9,0.2c0.3,0,0.6-0.1,0.9-0.2
			c0.3-0.2,0.5-0.4,0.6-0.6s0.3-0.5,0.4-0.8s0.1-0.6,0.1-1c0-0.3,0-0.6-0.1-1s-0.2-0.6-0.4-0.8s-0.4-0.4-0.6-0.6
			c-0.3-0.1-0.6-0.2-0.9-0.2s-0.6,0.1-0.9,0.2s-0.5,0.3-0.6,0.6s-0.3,0.5-0.4,0.8s-0.1,0.6-0.1,1c0,0.3,0,0.7,0.1,1
			S133.7,232.7,133.8,233z"/>
		<path class="st3" d="M140.4,234.5v-6.7h1l0.1,0.5c0.3-0.2,0.6-0.4,1-0.5c0.4-0.1,0.8-0.2,1.2-0.2c0.9,0,1.6,0.2,1.9,0.7
			c0.4,0.5,0.6,1.1,0.6,2v4.2H145v-4.2c0-0.6-0.1-1-0.4-1.3s-0.7-0.5-1.2-0.5c-0.4,0-0.7,0.1-1,0.2s-0.6,0.3-0.9,0.5v5.2H140.4z"/>
	</g>
	<g>
		<path class="st1" d="M425.8,88.2V74.5l-3.6,2.3l-0.9-1.3l4.8-3.2h1.7v15.8H425.8z"/>
		<path class="st1" d="M433,85.1c0.7,1.1,1.8,1.7,3.3,1.7c1,0,1.8-0.3,2.5-0.9c0.6-0.6,0.9-1.4,0.9-2.6c0-1.2-0.5-2.2-1.5-2.9
			c-1-0.7-2.4-1-4.2-1h-1.8v-7.1h8.5V74h-6.7v3.8h0.2c1,0,2,0.1,2.8,0.3s1.6,0.5,2.3,0.9s1.2,1,1.5,1.7s0.6,1.6,0.6,2.6
			c0,0.8-0.1,1.6-0.4,2.2c-0.3,0.6-0.6,1.2-1.1,1.6c-0.5,0.4-1,0.8-1.7,1c-0.6,0.2-1.3,0.3-2,0.3c-1,0-1.9-0.2-2.8-0.6
			c-0.8-0.4-1.5-1-2-1.9L433,85.1z"/>
		<path class="st1" d="M446.8,87.8c-0.7-0.5-1.3-1.1-1.8-1.9c-0.5-0.8-0.8-1.7-1-2.6c-0.2-1-0.3-2-0.3-3s0.1-2,0.3-3
			c0.2-1,0.6-1.9,1-2.6c0.5-0.8,1.1-1.4,1.8-1.9c0.7-0.5,1.6-0.7,2.6-0.7c1,0,1.8,0.2,2.5,0.7c0.7,0.5,1.3,1.1,1.8,1.9
			c0.5,0.8,0.8,1.7,1,2.6s0.3,2,0.3,3s-0.1,2-0.3,3c-0.2,1-0.6,1.9-1,2.6c-0.5,0.8-1.1,1.4-1.8,1.9c-0.7,0.5-1.6,0.7-2.5,0.7
			C448.4,88.5,447.5,88.3,446.8,87.8z M446.5,84.7c0.3,0.6,0.7,1.1,1.2,1.5c0.5,0.4,1,0.6,1.7,0.6c0.6,0,1.2-0.2,1.7-0.6
			c0.5-0.4,0.8-0.9,1.1-1.5s0.5-1.3,0.7-2.1c0.1-0.8,0.2-1.6,0.2-2.4c0-0.8-0.1-1.6-0.2-2.4c-0.1-0.8-0.4-1.5-0.7-2.1
			c-0.3-0.6-0.7-1.1-1.2-1.5c-0.5-0.4-1-0.6-1.7-0.6c-0.7,0-1.2,0.2-1.7,0.6s-0.8,0.9-1.2,1.5c-0.3,0.6-0.5,1.3-0.7,2.1
			c-0.1,0.8-0.2,1.6-0.2,2.4c0,0.8,0.1,1.6,0.2,2.4C446,83.4,446.3,84.1,446.5,84.7z"/>
		<path class="st1" d="M457.7,88.4l-1.2-1.2l15.2-15l1.1,1.2L457.7,88.4z M458.9,79.1c-0.4-0.2-0.8-0.5-1.1-0.8
			c-0.3-0.3-0.6-0.7-0.8-1.2s-0.3-0.9-0.3-1.4c0-0.5,0.1-1,0.3-1.4c0.2-0.4,0.5-0.8,0.8-1.2c0.3-0.3,0.7-0.6,1.2-0.8
			c0.4-0.2,0.9-0.3,1.4-0.3s1,0.1,1.4,0.3c0.4,0.2,0.8,0.5,1.2,0.8c0.3,0.3,0.6,0.7,0.8,1.2c0.2,0.4,0.3,0.9,0.3,1.4
			c0,0.5-0.1,1-0.3,1.4c-0.2,0.4-0.5,0.8-0.8,1.2c-0.3,0.3-0.7,0.6-1.2,0.8c-0.4,0.2-0.9,0.3-1.4,0.3S459.3,79.3,458.9,79.1z
			 M458.8,77.2c0.2,0.2,0.4,0.3,0.7,0.5c0.3,0.1,0.5,0.2,0.8,0.2s0.6-0.1,0.8-0.2s0.5-0.3,0.7-0.5c0.2-0.2,0.3-0.4,0.5-0.7
			c0.1-0.3,0.2-0.5,0.2-0.8s-0.1-0.6-0.2-0.8s-0.3-0.5-0.5-0.7c-0.2-0.2-0.4-0.4-0.7-0.5c-0.3-0.1-0.5-0.2-0.8-0.2s-0.6,0.1-0.8,0.2
			c-0.3,0.1-0.5,0.3-0.7,0.5s-0.3,0.4-0.4,0.7c-0.1,0.3-0.2,0.5-0.2,0.8s0.1,0.6,0.2,0.8C458.5,76.8,458.6,77,458.8,77.2z
			 M467.9,88.1c-0.4-0.2-0.8-0.5-1.1-0.8s-0.6-0.7-0.8-1.2c-0.2-0.4-0.3-0.9-0.3-1.4c0-0.5,0.1-1,0.3-1.4c0.2-0.4,0.5-0.8,0.8-1.2
			c0.3-0.3,0.7-0.6,1.2-0.8c0.4-0.2,0.9-0.3,1.4-0.3s1,0.1,1.4,0.3c0.4,0.2,0.8,0.5,1.2,0.8c0.3,0.3,0.6,0.7,0.8,1.2
			c0.2,0.4,0.3,0.9,0.3,1.4c0,0.5-0.1,1-0.3,1.4c-0.2,0.4-0.5,0.8-0.8,1.2c-0.3,0.3-0.7,0.6-1.2,0.8s-0.9,0.3-1.4,0.3
			S468.3,88.3,467.9,88.1z M467.8,86.2c0.2,0.2,0.4,0.3,0.7,0.5c0.3,0.1,0.5,0.2,0.8,0.2s0.6-0.1,0.8-0.2s0.5-0.3,0.7-0.5
			c0.2-0.2,0.3-0.4,0.5-0.7c0.1-0.3,0.2-0.5,0.2-0.8c0-0.3-0.1-0.6-0.2-0.8s-0.3-0.5-0.5-0.7c-0.2-0.2-0.4-0.4-0.7-0.5
			c-0.3-0.1-0.5-0.2-0.8-0.2s-0.6,0.1-0.8,0.2c-0.3,0.1-0.5,0.3-0.7,0.5s-0.3,0.4-0.4,0.7c-0.1,0.3-0.2,0.5-0.2,0.8
			c0,0.3,0.1,0.6,0.2,0.8C467.5,85.8,467.6,86,467.8,86.2z"/>
		<path class="st3" d="M482.4,88.2v-8h1v8H482.4z"/>
		<path class="st3" d="M485.6,88.2v-8h1l4,6v-6h0.9v8h-0.7l-4.3-6.3v6.3H485.6z"/>
		<path class="st3" d="M499.3,86.8c-0.1,0.2-0.2,0.4-0.4,0.6s-0.3,0.4-0.5,0.5s-0.4,0.3-0.7,0.4c-0.3,0.1-0.6,0.1-0.9,0.1
			c-0.5,0-0.9-0.1-1.3-0.2c-0.4-0.2-0.8-0.4-1.1-0.7c-0.3-0.3-0.5-0.8-0.7-1.3c-0.2-0.5-0.3-1.1-0.3-1.9c0-0.7,0.1-1.4,0.3-1.9
			c0.2-0.5,0.4-1,0.7-1.3c0.3-0.3,0.6-0.6,1-0.7c0.4-0.2,0.8-0.2,1.2-0.2c0.6,0,1.1,0.1,1.6,0.4c0.5,0.3,0.8,0.7,1.1,1.2l-0.8,0.5
			c-0.1-0.1-0.2-0.3-0.3-0.4c-0.1-0.1-0.3-0.3-0.4-0.4c-0.2-0.1-0.3-0.2-0.5-0.3s-0.4-0.1-0.6-0.1c-0.7,0-1.3,0.3-1.6,0.9
			c-0.4,0.6-0.6,1.4-0.6,2.5c0,0.5,0.1,1,0.2,1.4c0.1,0.4,0.3,0.7,0.5,1c0.2,0.3,0.5,0.5,0.7,0.6c0.3,0.1,0.6,0.2,0.9,0.2
			c0.2,0,0.4,0,0.6-0.1c0.2-0.1,0.3-0.1,0.5-0.3c0.1-0.1,0.3-0.2,0.4-0.4c0.1-0.1,0.2-0.3,0.3-0.5L499.3,86.8z"/>
		<path class="st3" d="M500.9,88.2v-8h2.6c0.9,0,1.6,0.2,2,0.6c0.4,0.4,0.6,0.9,0.6,1.6c0,0.4,0,0.7-0.1,0.9
			c-0.1,0.3-0.2,0.5-0.4,0.7c-0.2,0.2-0.4,0.3-0.6,0.4c-0.2,0.1-0.5,0.2-0.8,0.2l2.2,3.6h-1.1l-2.2-3.5h-1.2v3.5H500.9z M501.9,83.9
			h1.5c1.1,0,1.7-0.5,1.7-1.5c0-0.5-0.1-0.8-0.4-1c-0.3-0.2-0.7-0.3-1.2-0.3h-1.6V83.9z"/>
		<path class="st3" d="M507.8,88.2v-8h4.7V81h-3.7v2.6h2.7v0.8h-2.7v3h4v0.8H507.8z"/>
		<path class="st3" d="M513.3,88.2l3.1-8h0.6l3.1,8h-1l-0.9-2.5h-2.9l-0.9,2.5H513.3z M515.6,84.9h2.3l-1.2-3.1L515.6,84.9z"/>
		<path class="st3" d="M521.6,86.5c0.2,0.3,0.5,0.6,0.9,0.8s0.8,0.3,1.2,0.3c0.2,0,0.4,0,0.6-0.1c0.2-0.1,0.4-0.1,0.5-0.2
			c0.1-0.1,0.3-0.2,0.3-0.4c0.1-0.2,0.1-0.4,0.1-0.6c0-0.2-0.1-0.4-0.2-0.6s-0.2-0.3-0.4-0.5c-0.2-0.1-0.4-0.3-0.6-0.4
			c-0.2-0.1-0.5-0.2-0.7-0.3c-0.3-0.1-0.5-0.2-0.8-0.4c-0.3-0.1-0.5-0.3-0.7-0.4c-0.2-0.2-0.4-0.4-0.5-0.6c-0.1-0.2-0.2-0.5-0.2-0.9
			c0-0.3,0.1-0.6,0.2-0.9c0.1-0.3,0.3-0.5,0.6-0.6s0.5-0.3,0.8-0.4c0.3-0.1,0.6-0.1,0.9-0.1c0.5,0,1,0.1,1.5,0.3
			c0.5,0.2,0.8,0.5,1.1,0.9l-0.7,0.6c-0.2-0.3-0.5-0.5-0.8-0.7c-0.3-0.2-0.7-0.3-1.1-0.3c-0.5,0-0.8,0.1-1.1,0.3
			c-0.3,0.2-0.4,0.5-0.4,0.8c0,0.2,0,0.4,0.1,0.5c0.1,0.1,0.2,0.3,0.4,0.4c0.2,0.1,0.4,0.2,0.6,0.3s0.5,0.2,0.8,0.3
			c0.3,0.1,0.5,0.2,0.8,0.4c0.3,0.1,0.5,0.3,0.7,0.5s0.4,0.4,0.5,0.6c0.1,0.2,0.2,0.5,0.2,0.9c0,0.4-0.1,0.8-0.2,1.1
			c-0.1,0.3-0.3,0.5-0.6,0.7c-0.2,0.2-0.5,0.3-0.8,0.4s-0.7,0.1-1,0.1c-0.3,0-0.5,0-0.8-0.1s-0.5-0.1-0.8-0.3
			c-0.2-0.1-0.5-0.2-0.7-0.4c-0.2-0.2-0.4-0.3-0.5-0.6L521.6,86.5z"/>
		<path class="st3" d="M527.9,88.2v-8h4.7V81h-3.7v2.6h2.7v0.8h-2.7v3h4v0.8H527.9z"/>
	</g>
	<g>
		<path class="st1" d="M351.4,131.6c0.4-0.7,1-1.2,1.7-1.6c-0.6-0.4-1.1-0.9-1.5-1.6c-0.4-0.6-0.6-1.3-0.6-2s0.1-1.3,0.4-1.9
			c0.3-0.5,0.6-1,1.1-1.3c0.5-0.4,1-0.6,1.5-0.8c0.6-0.2,1.1-0.3,1.7-0.3c0.6,0,1.2,0.1,1.7,0.3c0.6,0.2,1.1,0.4,1.5,0.8
			c0.4,0.3,0.8,0.8,1.1,1.3c0.3,0.5,0.4,1.1,0.4,1.8c0,0.8-0.2,1.5-0.5,2.1s-0.8,1.2-1.5,1.6c0.7,0.4,1.3,0.9,1.7,1.6
			c0.4,0.7,0.6,1.5,0.6,2.3c0,0.8-0.1,1.5-0.4,2.1s-0.7,1.1-1.1,1.5c-0.5,0.4-1,0.7-1.6,0.9c-0.6,0.2-1.2,0.3-1.8,0.3
			s-1.2-0.1-1.8-0.3c-0.6-0.2-1.1-0.5-1.6-0.9s-0.9-0.9-1.2-1.5s-0.4-1.3-0.4-2C350.8,133,351,132.3,351.4,131.6z M352.9,135.2
			c0.2,0.4,0.4,0.7,0.7,0.9s0.6,0.4,1,0.6c0.4,0.1,0.8,0.2,1.2,0.2c0.4,0,0.8-0.1,1.1-0.2c0.4-0.1,0.7-0.3,1-0.6
			c0.3-0.2,0.5-0.6,0.7-0.9c0.2-0.4,0.3-0.8,0.3-1.3c0-0.5-0.1-0.9-0.3-1.3c-0.2-0.4-0.4-0.7-0.7-1c-0.3-0.3-0.6-0.5-1-0.6
			c-0.4-0.1-0.8-0.2-1.2-0.2c-0.4,0-0.8,0.1-1.1,0.2c-0.4,0.1-0.7,0.3-1,0.6c-0.3,0.3-0.5,0.6-0.7,1c-0.2,0.4-0.3,0.8-0.3,1.3
			C352.7,134.3,352.8,134.8,352.9,135.2z M353.2,127.6c0.2,0.4,0.4,0.6,0.7,0.9c0.3,0.2,0.6,0.4,0.9,0.5c0.3,0.1,0.7,0.2,1,0.2
			c0.4,0,0.7-0.1,1.1-0.2c0.4-0.1,0.7-0.3,0.9-0.6c0.3-0.2,0.5-0.5,0.7-0.9c0.2-0.4,0.3-0.8,0.3-1.2c0-0.4-0.1-0.8-0.3-1.2
			s-0.4-0.6-0.7-0.8c-0.3-0.2-0.6-0.4-0.9-0.5c-0.3-0.1-0.7-0.2-1-0.2c-0.4,0-0.7,0.1-1.1,0.2c-0.4,0.1-0.7,0.3-0.9,0.5
			s-0.5,0.5-0.7,0.8c-0.2,0.3-0.3,0.7-0.3,1.2C352.9,126.8,353,127.2,353.2,127.6z"/>
		<path class="st1" d="M365,138.2l5.9-14.2H362v-1.6h11v1.3l-6,14.5H365z"/>
		<path class="st1" d="M376.5,138.5c-0.4,0-0.7-0.1-0.9-0.4c-0.2-0.3-0.4-0.6-0.4-1c0-0.4,0.1-0.7,0.4-1c0.2-0.3,0.6-0.4,0.9-0.4
			c0.4,0,0.7,0.1,0.9,0.4c0.2,0.3,0.4,0.6,0.4,1c0,0.4-0.1,0.7-0.4,1C377.1,138.3,376.8,138.5,376.5,138.5z"/>
		<path class="st1" d="M381.9,135.1c0.7,1.1,1.8,1.7,3.3,1.7c1,0,1.8-0.3,2.5-0.9c0.6-0.6,0.9-1.4,0.9-2.6c0-1.2-0.5-2.2-1.5-2.9
			c-1-0.7-2.4-1-4.2-1h-1.8v-7.1h8.5v1.6H383v3.8h0.2c1,0,2,0.1,2.8,0.3c0.9,0.2,1.6,0.5,2.3,0.9c0.6,0.4,1.2,1,1.5,1.7
			s0.6,1.6,0.6,2.6c0,0.8-0.1,1.6-0.4,2.2c-0.3,0.6-0.6,1.2-1.1,1.6s-1,0.8-1.7,1c-0.6,0.2-1.3,0.3-2,0.3c-1,0-1.9-0.2-2.8-0.6
			s-1.5-1-2-1.9L381.9,135.1z"/>
		<path class="st1" d="M393.6,138.4l-1.2-1.2l15.2-15l1.1,1.2L393.6,138.4z M394.8,129.1c-0.4-0.2-0.8-0.5-1.1-0.8s-0.6-0.7-0.8-1.2
			c-0.2-0.4-0.3-0.9-0.3-1.4c0-0.5,0.1-1,0.3-1.4s0.5-0.8,0.8-1.2c0.3-0.3,0.7-0.6,1.2-0.8c0.4-0.2,0.9-0.3,1.4-0.3s1,0.1,1.4,0.3
			c0.4,0.2,0.8,0.5,1.2,0.8c0.3,0.3,0.6,0.7,0.8,1.2c0.2,0.4,0.3,0.9,0.3,1.4c0,0.5-0.1,1-0.3,1.4c-0.2,0.4-0.5,0.8-0.8,1.2
			c-0.3,0.3-0.7,0.6-1.2,0.8s-0.9,0.3-1.4,0.3S395.3,129.3,394.8,129.1z M394.8,127.2c0.2,0.2,0.4,0.3,0.7,0.5
			c0.3,0.1,0.5,0.2,0.8,0.2s0.6-0.1,0.8-0.2s0.5-0.3,0.7-0.5c0.2-0.2,0.3-0.4,0.5-0.7s0.2-0.5,0.2-0.8s-0.1-0.6-0.2-0.8
			c-0.1-0.3-0.3-0.5-0.5-0.7c-0.2-0.2-0.4-0.4-0.7-0.5s-0.5-0.2-0.8-0.2s-0.6,0.1-0.8,0.2c-0.3,0.1-0.5,0.3-0.7,0.5
			s-0.3,0.4-0.4,0.7c-0.1,0.3-0.2,0.5-0.2,0.8s0.1,0.6,0.2,0.8C394.4,126.8,394.6,127,394.8,127.2z M403.8,138.1
			c-0.4-0.2-0.8-0.5-1.1-0.8s-0.6-0.7-0.8-1.2c-0.2-0.4-0.3-0.9-0.3-1.4c0-0.5,0.1-1,0.3-1.4c0.2-0.4,0.5-0.8,0.8-1.2
			s0.7-0.6,1.2-0.8c0.4-0.2,0.9-0.3,1.4-0.3s1,0.1,1.4,0.3s0.8,0.5,1.2,0.8c0.3,0.3,0.6,0.7,0.8,1.2c0.2,0.4,0.3,0.9,0.3,1.4
			c0,0.5-0.1,1-0.3,1.4c-0.2,0.4-0.5,0.8-0.8,1.2c-0.3,0.3-0.7,0.6-1.2,0.8c-0.4,0.2-0.9,0.3-1.4,0.3S404.3,138.3,403.8,138.1z
			 M403.8,136.2c0.2,0.2,0.4,0.3,0.7,0.5c0.3,0.1,0.5,0.2,0.8,0.2s0.6-0.1,0.8-0.2s0.5-0.3,0.7-0.5c0.2-0.2,0.3-0.4,0.5-0.7
			c0.1-0.3,0.2-0.5,0.2-0.8c0-0.3-0.1-0.6-0.2-0.8c-0.1-0.3-0.3-0.5-0.5-0.7c-0.2-0.2-0.4-0.4-0.7-0.5c-0.3-0.1-0.5-0.2-0.8-0.2
			s-0.6,0.1-0.8,0.2c-0.3,0.1-0.5,0.3-0.7,0.5s-0.3,0.4-0.4,0.7c-0.1,0.3-0.2,0.5-0.2,0.8c0,0.3,0.1,0.6,0.2,0.8
			C403.4,135.8,403.6,136,403.8,136.2z"/>
		<path class="st3" d="M418.3,138.2v-8h1v8H418.3z"/>
		<path class="st3" d="M421.5,138.2v-8h1l4,6v-6h0.9v8h-0.7l-4.3-6.3v6.3H421.5z"/>
		<path class="st3" d="M435.3,136.8c-0.1,0.2-0.2,0.4-0.4,0.6c-0.2,0.2-0.3,0.4-0.5,0.5c-0.2,0.2-0.4,0.3-0.7,0.4
			c-0.3,0.1-0.6,0.1-0.9,0.1c-0.5,0-0.9-0.1-1.3-0.2c-0.4-0.2-0.8-0.4-1.1-0.7c-0.3-0.3-0.5-0.8-0.7-1.3c-0.2-0.5-0.3-1.1-0.3-1.9
			c0-0.7,0.1-1.4,0.3-1.9s0.4-1,0.7-1.3c0.3-0.3,0.6-0.6,1-0.7s0.8-0.2,1.2-0.2c0.6,0,1.1,0.1,1.6,0.4c0.5,0.3,0.8,0.7,1.1,1.2
			l-0.8,0.5c-0.1-0.1-0.2-0.3-0.3-0.4c-0.1-0.1-0.3-0.3-0.4-0.4c-0.2-0.1-0.3-0.2-0.5-0.3s-0.4-0.1-0.6-0.1c-0.7,0-1.3,0.3-1.6,0.9
			s-0.6,1.4-0.6,2.5c0,0.5,0.1,1,0.2,1.4c0.1,0.4,0.3,0.7,0.5,1s0.5,0.5,0.7,0.6c0.3,0.1,0.6,0.2,0.9,0.2c0.2,0,0.4,0,0.6-0.1
			c0.2-0.1,0.3-0.2,0.5-0.3c0.1-0.1,0.3-0.2,0.4-0.4c0.1-0.1,0.2-0.3,0.3-0.5L435.3,136.8z"/>
		<path class="st3" d="M436.9,138.2v-8h2.6c0.9,0,1.6,0.2,2,0.6c0.4,0.4,0.6,0.9,0.6,1.6c0,0.4,0,0.7-0.1,0.9
			c-0.1,0.3-0.2,0.5-0.4,0.7c-0.2,0.2-0.4,0.3-0.6,0.4c-0.2,0.1-0.5,0.2-0.8,0.2l2.2,3.6h-1.1l-2.2-3.5h-1.2v3.5H436.9z
			 M437.8,133.9h1.5c1.1,0,1.7-0.5,1.7-1.5c0-0.5-0.1-0.8-0.4-1c-0.3-0.2-0.7-0.3-1.2-0.3h-1.6V133.9z"/>
		<path class="st3" d="M443.8,138.2v-8h4.7v0.8h-3.7v2.6h2.7v0.8h-2.7v3h4v0.8H443.8z"/>
		<path class="st3" d="M449.3,138.2l3.1-8h0.6l3.1,8h-1l-0.9-2.5h-2.9l-0.9,2.5H449.3z M451.5,134.9h2.3l-1.2-3.1L451.5,134.9z"/>
		<path class="st3" d="M457.5,136.5c0.2,0.3,0.5,0.6,0.9,0.8s0.8,0.3,1.2,0.3c0.2,0,0.4,0,0.6-0.1c0.2-0.1,0.4-0.1,0.5-0.2
			c0.1-0.1,0.3-0.2,0.3-0.4c0.1-0.2,0.1-0.4,0.1-0.6c0-0.2-0.1-0.4-0.2-0.6s-0.2-0.3-0.4-0.5s-0.4-0.3-0.6-0.4
			c-0.2-0.1-0.5-0.2-0.7-0.3c-0.3-0.1-0.5-0.2-0.8-0.4c-0.3-0.1-0.5-0.3-0.7-0.5s-0.4-0.4-0.5-0.6c-0.1-0.2-0.2-0.5-0.2-0.9
			c0-0.3,0.1-0.6,0.2-0.9c0.1-0.3,0.3-0.5,0.6-0.6s0.5-0.3,0.8-0.4c0.3-0.1,0.6-0.1,0.9-0.1c0.5,0,1,0.1,1.5,0.3
			c0.5,0.2,0.8,0.5,1.1,0.9l-0.7,0.6c-0.2-0.3-0.5-0.5-0.8-0.7c-0.3-0.2-0.7-0.3-1.1-0.3c-0.5,0-0.8,0.1-1.1,0.3
			c-0.3,0.2-0.4,0.5-0.4,0.8c0,0.2,0,0.4,0.1,0.5c0.1,0.1,0.2,0.3,0.4,0.4c0.2,0.1,0.4,0.2,0.6,0.3c0.2,0.1,0.5,0.2,0.8,0.3
			c0.3,0.1,0.5,0.2,0.8,0.4c0.3,0.1,0.5,0.3,0.7,0.5c0.2,0.2,0.4,0.4,0.5,0.6c0.1,0.2,0.2,0.5,0.2,0.9c0,0.4-0.1,0.8-0.2,1.1
			c-0.1,0.3-0.3,0.5-0.6,0.7c-0.2,0.2-0.5,0.3-0.8,0.4s-0.7,0.1-1,0.1c-0.3,0-0.5,0-0.8-0.1c-0.3-0.1-0.5-0.1-0.8-0.3
			s-0.5-0.2-0.7-0.4s-0.4-0.3-0.5-0.6L457.5,136.5z"/>
		<path class="st3" d="M463.9,138.2v-8h4.7v0.8h-3.7v2.6h2.7v0.8h-2.7v3h4v0.8H463.9z"/>
	</g>
	<g>
		<path class="st1" d="M321.5,173.6c-0.7,0.1-1.4,0.3-2,0.6c-0.6,0.3-1.2,0.7-1.8,1.1c-0.5,0.5-1,1-1.4,1.5
			c-0.4,0.6-0.7,1.2-0.9,1.8c0.4-0.3,0.9-0.5,1.4-0.6c0.5-0.2,1-0.2,1.6-0.2c0.8,0,1.4,0.1,2,0.4c0.6,0.3,1.1,0.7,1.5,1.2
			c0.4,0.5,0.7,1.1,0.9,1.7c0.2,0.6,0.3,1.3,0.3,2s-0.1,1.4-0.3,2s-0.5,1.2-1,1.7c-0.4,0.5-0.9,0.9-1.5,1.1c-0.6,0.3-1.3,0.4-2,0.4
			c-0.9,0-1.7-0.2-2.4-0.5c-0.7-0.4-1.2-0.8-1.6-1.4s-0.7-1.3-0.9-2c-0.2-0.8-0.3-1.5-0.3-2.3c0-1.3,0.2-2.5,0.6-3.6
			c0.4-1.1,0.9-2.1,1.6-3c0.7-0.9,1.6-1.6,2.6-2.2c1-0.6,2.1-1,3.4-1.2L321.5,173.6z M316.4,179.8c-0.5,0.2-0.9,0.4-1.3,0.7
			c-0.1,0.6-0.1,1.1-0.1,1.7c0,0.5,0.1,1,0.2,1.6c0.1,0.6,0.3,1.1,0.5,1.5c0.2,0.5,0.6,0.8,1,1.1c0.4,0.3,0.9,0.4,1.6,0.4
			c0.5,0,0.9-0.1,1.3-0.3s0.7-0.5,0.9-0.8s0.4-0.7,0.6-1.2c0.1-0.4,0.2-0.9,0.2-1.3c0-0.5-0.1-1-0.2-1.4s-0.3-0.9-0.6-1.2
			c-0.3-0.3-0.6-0.6-1-0.8c-0.4-0.2-0.9-0.3-1.4-0.3C317.4,179.5,316.9,179.6,316.4,179.8z"/>
		<path class="st1" d="M326.3,181.6c0.4-0.7,1-1.2,1.7-1.6c-0.6-0.4-1.1-0.9-1.5-1.6c-0.4-0.6-0.6-1.3-0.6-2s0.1-1.3,0.4-1.9
			c0.3-0.5,0.6-1,1.1-1.3c0.5-0.4,1-0.6,1.5-0.8c0.6-0.2,1.1-0.3,1.7-0.3c0.6,0,1.2,0.1,1.7,0.3c0.6,0.2,1.1,0.4,1.5,0.8
			c0.4,0.3,0.8,0.8,1.1,1.3c0.3,0.5,0.4,1.1,0.4,1.8c0,0.8-0.2,1.5-0.5,2.1s-0.8,1.2-1.5,1.6c0.7,0.4,1.3,0.9,1.7,1.6
			c0.4,0.7,0.6,1.5,0.6,2.3c0,0.8-0.1,1.5-0.4,2.1s-0.7,1.1-1.1,1.5c-0.5,0.4-1,0.7-1.6,0.9c-0.6,0.2-1.2,0.3-1.8,0.3
			s-1.2-0.1-1.8-0.3c-0.6-0.2-1.1-0.5-1.6-0.9s-0.9-0.9-1.2-1.5s-0.4-1.3-0.4-2C325.8,183,326,182.3,326.3,181.6z M327.9,185.2
			c0.2,0.4,0.4,0.7,0.7,0.9s0.6,0.4,1,0.6c0.4,0.1,0.8,0.2,1.2,0.2c0.4,0,0.8-0.1,1.1-0.2c0.4-0.1,0.7-0.3,1-0.6
			c0.3-0.2,0.5-0.6,0.7-0.9c0.2-0.4,0.3-0.8,0.3-1.3c0-0.5-0.1-0.9-0.3-1.3c-0.2-0.4-0.4-0.7-0.7-1c-0.3-0.3-0.6-0.5-1-0.6
			c-0.4-0.1-0.8-0.2-1.2-0.2c-0.4,0-0.8,0.1-1.1,0.2c-0.4,0.1-0.7,0.3-1,0.6c-0.3,0.3-0.5,0.6-0.7,1c-0.2,0.4-0.3,0.8-0.3,1.3
			C327.6,184.3,327.7,184.8,327.9,185.2z M328.1,177.6c0.2,0.4,0.4,0.6,0.7,0.9c0.3,0.2,0.6,0.4,0.9,0.5c0.3,0.1,0.7,0.2,1,0.2
			c0.4,0,0.7-0.1,1.1-0.2c0.4-0.1,0.7-0.3,0.9-0.6c0.3-0.2,0.5-0.5,0.7-0.9c0.2-0.4,0.3-0.8,0.3-1.2c0-0.4-0.1-0.8-0.3-1.2
			s-0.4-0.6-0.7-0.8c-0.3-0.2-0.6-0.4-0.9-0.5c-0.3-0.1-0.7-0.2-1-0.2c-0.4,0-0.7,0.1-1.1,0.2c-0.4,0.1-0.7,0.3-0.9,0.5
			s-0.5,0.5-0.7,0.8c-0.2,0.3-0.3,0.7-0.3,1.2C327.9,176.8,328,177.2,328.1,177.6z"/>
		<path class="st1" d="M339.1,188.4l-1.2-1.2l15.2-15l1.1,1.2L339.1,188.4z M340.3,179.1c-0.4-0.2-0.8-0.5-1.1-0.8s-0.6-0.7-0.8-1.2
			c-0.2-0.4-0.3-0.9-0.3-1.4c0-0.5,0.1-1,0.3-1.4s0.5-0.8,0.8-1.2c0.3-0.3,0.7-0.6,1.2-0.8c0.4-0.2,0.9-0.3,1.4-0.3s1,0.1,1.4,0.3
			c0.4,0.2,0.8,0.5,1.2,0.8c0.3,0.3,0.6,0.7,0.8,1.2c0.2,0.4,0.3,0.9,0.3,1.4c0,0.5-0.1,1-0.3,1.4c-0.2,0.4-0.5,0.8-0.8,1.2
			c-0.3,0.3-0.7,0.6-1.2,0.8s-0.9,0.3-1.4,0.3S340.8,179.3,340.3,179.1z M340.2,177.2c0.2,0.2,0.4,0.3,0.7,0.5
			c0.3,0.1,0.5,0.2,0.8,0.2s0.6-0.1,0.8-0.2s0.5-0.3,0.7-0.5c0.2-0.2,0.3-0.4,0.5-0.7s0.2-0.5,0.2-0.8s-0.1-0.6-0.2-0.8
			c-0.1-0.3-0.3-0.5-0.5-0.7c-0.2-0.2-0.4-0.4-0.7-0.5s-0.5-0.2-0.8-0.2s-0.6,0.1-0.8,0.2c-0.3,0.1-0.5,0.3-0.7,0.5
			s-0.3,0.4-0.4,0.7c-0.1,0.3-0.2,0.5-0.2,0.8s0.1,0.6,0.2,0.8C339.9,176.8,340.1,177,340.2,177.2z M349.3,188.1
			c-0.4-0.2-0.8-0.5-1.1-0.8s-0.6-0.7-0.8-1.2c-0.2-0.4-0.3-0.9-0.3-1.4c0-0.5,0.1-1,0.3-1.4c0.2-0.4,0.5-0.8,0.8-1.2
			s0.7-0.6,1.2-0.8c0.4-0.2,0.9-0.3,1.4-0.3s1,0.1,1.4,0.3s0.8,0.5,1.2,0.8c0.3,0.3,0.6,0.7,0.8,1.2c0.2,0.4,0.3,0.9,0.3,1.4
			c0,0.5-0.1,1-0.3,1.4c-0.2,0.4-0.5,0.8-0.8,1.2c-0.3,0.3-0.7,0.6-1.2,0.8c-0.4,0.2-0.9,0.3-1.4,0.3S349.8,188.3,349.3,188.1z
			 M349.2,186.2c0.2,0.2,0.4,0.3,0.7,0.5c0.3,0.1,0.5,0.2,0.8,0.2s0.6-0.1,0.8-0.2s0.5-0.3,0.7-0.5c0.2-0.2,0.3-0.4,0.5-0.7
			c0.1-0.3,0.2-0.5,0.2-0.8c0-0.3-0.1-0.6-0.2-0.8c-0.1-0.3-0.3-0.5-0.5-0.7c-0.2-0.2-0.4-0.4-0.7-0.5c-0.3-0.1-0.5-0.2-0.8-0.2
			s-0.6,0.1-0.8,0.2c-0.3,0.1-0.5,0.3-0.7,0.5s-0.3,0.4-0.4,0.7c-0.1,0.3-0.2,0.5-0.2,0.8c0,0.3,0.1,0.6,0.2,0.8
			C348.9,185.8,349.1,186,349.2,186.2z"/>
		<path class="st3" d="M363.8,188.2v-8h1v8H363.8z"/>
		<path class="st3" d="M367,188.2v-8h1l4,6v-6h0.9v8h-0.7l-4.3-6.3v6.3H367z"/>
		<path class="st3" d="M380.7,186.8c-0.1,0.2-0.2,0.4-0.4,0.6c-0.2,0.2-0.3,0.4-0.5,0.5c-0.2,0.2-0.4,0.3-0.7,0.4
			c-0.3,0.1-0.6,0.1-0.9,0.1c-0.5,0-0.9-0.1-1.3-0.2c-0.4-0.2-0.8-0.4-1.1-0.7c-0.3-0.3-0.5-0.8-0.7-1.3c-0.2-0.5-0.3-1.1-0.3-1.9
			c0-0.7,0.1-1.4,0.3-1.9s0.4-1,0.7-1.3c0.3-0.3,0.6-0.6,1-0.7s0.8-0.2,1.2-0.2c0.6,0,1.1,0.1,1.6,0.4c0.5,0.3,0.8,0.7,1.1,1.2
			l-0.8,0.5c-0.1-0.1-0.2-0.3-0.3-0.4c-0.1-0.1-0.3-0.3-0.4-0.4c-0.2-0.1-0.3-0.2-0.5-0.3s-0.4-0.1-0.6-0.1c-0.7,0-1.3,0.3-1.6,0.9
			s-0.6,1.4-0.6,2.5c0,0.5,0.1,1,0.2,1.4c0.1,0.4,0.3,0.7,0.5,1s0.5,0.5,0.7,0.6c0.3,0.1,0.6,0.2,0.9,0.2c0.2,0,0.4,0,0.6-0.1
			c0.2-0.1,0.3-0.2,0.5-0.3c0.1-0.1,0.3-0.2,0.4-0.4c0.1-0.1,0.2-0.3,0.3-0.5L380.7,186.8z"/>
		<path class="st3" d="M382.4,188.2v-8h2.6c0.9,0,1.6,0.2,2,0.6c0.4,0.4,0.6,0.9,0.6,1.6c0,0.4,0,0.7-0.1,0.9
			c-0.1,0.3-0.2,0.5-0.4,0.7c-0.2,0.2-0.4,0.3-0.6,0.4c-0.2,0.1-0.5,0.2-0.8,0.2l2.2,3.6h-1.1l-2.2-3.5h-1.2v3.5H382.4z
			 M383.3,183.9h1.5c1.1,0,1.7-0.5,1.7-1.5c0-0.5-0.1-0.8-0.4-1c-0.3-0.2-0.7-0.3-1.2-0.3h-1.6V183.9z"/>
		<path class="st3" d="M389.3,188.2v-8h4.7v0.8h-3.7v2.6h2.7v0.8h-2.7v3h4v0.8H389.3z"/>
		<path class="st3" d="M394.8,188.2l3.1-8h0.6l3.1,8h-1l-0.9-2.5h-2.9l-0.9,2.5H394.8z M397,184.9h2.3l-1.2-3.1L397,184.9z"/>
		<path class="st3" d="M403,186.5c0.2,0.3,0.5,0.6,0.9,0.8s0.8,0.3,1.2,0.3c0.2,0,0.4,0,0.6-0.1c0.2-0.1,0.4-0.1,0.5-0.2
			c0.1-0.1,0.3-0.2,0.3-0.4c0.1-0.2,0.1-0.4,0.1-0.6c0-0.2-0.1-0.4-0.2-0.6s-0.2-0.3-0.4-0.5s-0.4-0.3-0.6-0.4
			c-0.2-0.1-0.5-0.2-0.7-0.3c-0.3-0.1-0.5-0.2-0.8-0.4c-0.3-0.1-0.5-0.3-0.7-0.5s-0.4-0.4-0.5-0.6c-0.1-0.2-0.2-0.5-0.2-0.9
			c0-0.3,0.1-0.6,0.2-0.9c0.1-0.3,0.3-0.5,0.6-0.6s0.5-0.3,0.8-0.4c0.3-0.1,0.6-0.1,0.9-0.1c0.5,0,1,0.1,1.5,0.3
			c0.5,0.2,0.8,0.5,1.1,0.9l-0.7,0.6c-0.2-0.3-0.5-0.5-0.8-0.7c-0.3-0.2-0.7-0.3-1.1-0.3c-0.5,0-0.8,0.1-1.1,0.3
			c-0.3,0.2-0.4,0.5-0.4,0.8c0,0.2,0,0.4,0.1,0.5c0.1,0.1,0.2,0.3,0.4,0.4c0.2,0.1,0.4,0.2,0.6,0.3c0.2,0.1,0.5,0.2,0.8,0.3
			c0.3,0.1,0.5,0.2,0.8,0.4c0.3,0.1,0.5,0.3,0.7,0.5c0.2,0.2,0.4,0.4,0.5,0.6c0.1,0.2,0.2,0.5,0.2,0.9c0,0.4-0.1,0.8-0.2,1.1
			c-0.1,0.3-0.3,0.5-0.6,0.7c-0.2,0.2-0.5,0.3-0.8,0.4s-0.7,0.1-1,0.1c-0.3,0-0.5,0-0.8-0.1c-0.3-0.1-0.5-0.1-0.8-0.3
			s-0.5-0.2-0.7-0.4s-0.4-0.3-0.5-0.6L403,186.5z"/>
		<path class="st3" d="M409.3,188.2v-8h4.7v0.8h-3.7v2.6h2.7v0.8h-2.7v3h4v0.8H409.3z"/>
	</g>
	<g>
		<path class="st1" d="M273.3,233.3v-1.7l7.9-9.2h1.2v9.3h1.7v1.6h-1.7v4.9h-1.8v-4.9H273.3z M275.3,231.7h5.3v-6L275.3,231.7z"/>
		<path class="st1" d="M289.2,237.8c-0.7-0.5-1.3-1.1-1.8-1.9c-0.5-0.8-0.8-1.7-1-2.6c-0.2-1-0.3-2-0.3-3c0-1,0.1-2,0.3-3
			c0.2-1,0.6-1.9,1-2.6c0.5-0.8,1.1-1.4,1.8-1.9s1.6-0.7,2.6-0.7c1,0,1.8,0.2,2.5,0.7c0.7,0.5,1.3,1.1,1.8,1.9
			c0.5,0.8,0.8,1.7,1,2.6c0.2,1,0.3,2,0.3,3c0,1-0.1,2-0.3,3c-0.2,1-0.6,1.9-1,2.6s-1.1,1.4-1.8,1.9c-0.7,0.5-1.6,0.7-2.5,0.7
			C290.8,238.5,290,238.3,289.2,237.8z M289,234.7c0.3,0.6,0.7,1.1,1.2,1.5c0.5,0.4,1,0.6,1.7,0.6c0.6,0,1.2-0.2,1.7-0.6
			c0.5-0.4,0.8-0.9,1.1-1.5s0.5-1.3,0.7-2.1s0.2-1.6,0.2-2.4s-0.1-1.6-0.2-2.4c-0.1-0.8-0.4-1.5-0.7-2.1c-0.3-0.6-0.7-1.1-1.2-1.5
			c-0.5-0.4-1-0.6-1.7-0.6c-0.7,0-1.2,0.2-1.7,0.6s-0.8,0.9-1.2,1.5c-0.3,0.6-0.5,1.3-0.7,2.1s-0.2,1.6-0.2,2.4s0.1,1.6,0.2,2.4
			S288.7,234.1,289,234.7z"/>
		<path class="st1" d="M300.1,238.4l-1.2-1.2l15.2-15l1.1,1.2L300.1,238.4z M301.3,229.1c-0.4-0.2-0.8-0.5-1.1-0.8s-0.6-0.7-0.8-1.2
			c-0.2-0.4-0.3-0.9-0.3-1.4c0-0.5,0.1-1,0.3-1.4s0.5-0.8,0.8-1.2c0.3-0.3,0.7-0.6,1.2-0.8c0.4-0.2,0.9-0.3,1.4-0.3s1,0.1,1.4,0.3
			c0.4,0.2,0.8,0.5,1.2,0.8c0.3,0.3,0.6,0.7,0.8,1.2c0.2,0.4,0.3,0.9,0.3,1.4c0,0.5-0.1,1-0.3,1.4c-0.2,0.4-0.5,0.8-0.8,1.2
			c-0.3,0.3-0.7,0.6-1.2,0.8s-0.9,0.3-1.4,0.3S301.8,229.3,301.3,229.1z M301.2,227.2c0.2,0.2,0.4,0.3,0.7,0.5
			c0.3,0.1,0.5,0.2,0.8,0.2s0.6-0.1,0.8-0.2s0.5-0.3,0.7-0.5c0.2-0.2,0.3-0.4,0.5-0.7s0.2-0.5,0.2-0.8s-0.1-0.6-0.2-0.8
			c-0.1-0.3-0.3-0.5-0.5-0.7c-0.2-0.2-0.4-0.4-0.7-0.5s-0.5-0.2-0.8-0.2s-0.6,0.1-0.8,0.2c-0.3,0.1-0.5,0.3-0.7,0.5
			s-0.3,0.4-0.4,0.7c-0.1,0.3-0.2,0.5-0.2,0.8s0.1,0.6,0.2,0.8C300.9,226.8,301.1,227,301.2,227.2z M310.3,238.1
			c-0.4-0.2-0.8-0.5-1.1-0.8s-0.6-0.7-0.8-1.2c-0.2-0.4-0.3-0.9-0.3-1.4c0-0.5,0.1-1,0.3-1.4c0.2-0.4,0.5-0.8,0.8-1.2
			s0.7-0.6,1.2-0.8c0.4-0.2,0.9-0.3,1.4-0.3s1,0.1,1.4,0.3s0.8,0.5,1.2,0.8c0.3,0.3,0.6,0.7,0.8,1.2c0.2,0.4,0.3,0.9,0.3,1.4
			c0,0.5-0.1,1-0.3,1.4c-0.2,0.4-0.5,0.8-0.8,1.2c-0.3,0.3-0.7,0.6-1.2,0.8c-0.4,0.2-0.9,0.3-1.4,0.3S310.8,238.3,310.3,238.1z
			 M310.2,236.2c0.2,0.2,0.4,0.3,0.7,0.5c0.3,0.1,0.5,0.2,0.8,0.2s0.6-0.1,0.8-0.2s0.5-0.3,0.7-0.5c0.2-0.2,0.3-0.4,0.5-0.7
			c0.1-0.3,0.2-0.5,0.2-0.8c0-0.3-0.1-0.6-0.2-0.8c-0.1-0.3-0.3-0.5-0.5-0.7c-0.2-0.2-0.4-0.4-0.7-0.5c-0.3-0.1-0.5-0.2-0.8-0.2
			s-0.6,0.1-0.8,0.2c-0.3,0.1-0.5,0.3-0.7,0.5s-0.3,0.4-0.4,0.7c-0.1,0.3-0.2,0.5-0.2,0.8c0,0.3,0.1,0.6,0.2,0.8
			C309.9,235.8,310.1,236,310.2,236.2z"/>
		<path class="st3" d="M324.8,238.2v-8h2.1c0.3,0,0.6,0,1,0.1c0.3,0.1,0.6,0.1,0.9,0.3s0.6,0.3,0.8,0.5c0.2,0.2,0.4,0.5,0.6,0.8
			c0.2,0.3,0.3,0.6,0.4,1c0.1,0.4,0.1,0.8,0.1,1.2c0,0.6-0.1,1.1-0.2,1.5c-0.1,0.4-0.3,0.8-0.5,1.2c-0.2,0.3-0.5,0.6-0.8,0.8
			s-0.6,0.4-1,0.5c-0.2,0.1-0.4,0.1-0.7,0.1c-0.3,0-0.5,0-0.7,0H324.8z M325.8,237.4h1c0.2,0,0.4,0,0.6,0c0.2,0,0.4-0.1,0.6-0.1
			c0.2-0.1,0.5-0.2,0.7-0.4c0.2-0.2,0.4-0.4,0.6-0.6c0.2-0.2,0.3-0.5,0.4-0.9s0.1-0.7,0.1-1.2c0-0.7-0.1-1.3-0.3-1.7
			c-0.2-0.4-0.5-0.8-0.9-1c-0.2-0.2-0.5-0.3-0.8-0.3c-0.3-0.1-0.6-0.1-0.9-0.1h-1V237.4z"/>
		<path class="st3" d="M332.6,238.2v-8h4.7v0.8h-3.7v2.6h2.7v0.8h-2.7v3h4v0.8H332.6z"/>
		<path class="st3" d="M344.3,236.8c-0.1,0.2-0.2,0.4-0.4,0.6c-0.2,0.2-0.3,0.4-0.5,0.5c-0.2,0.2-0.4,0.3-0.7,0.4
			c-0.3,0.1-0.6,0.1-0.9,0.1c-0.5,0-0.9-0.1-1.3-0.2c-0.4-0.2-0.8-0.4-1.1-0.7c-0.3-0.3-0.5-0.8-0.7-1.3c-0.2-0.5-0.3-1.1-0.3-1.9
			c0-0.7,0.1-1.4,0.3-1.9s0.4-1,0.7-1.3c0.3-0.3,0.6-0.6,1-0.7s0.8-0.2,1.2-0.2c0.6,0,1.1,0.1,1.6,0.4c0.5,0.3,0.8,0.7,1.1,1.2
			l-0.8,0.5c-0.1-0.1-0.2-0.3-0.3-0.4c-0.1-0.1-0.3-0.3-0.4-0.4c-0.2-0.1-0.3-0.2-0.5-0.3s-0.4-0.1-0.6-0.1c-0.7,0-1.3,0.3-1.6,0.9
			s-0.6,1.4-0.6,2.5c0,0.5,0.1,1,0.2,1.4c0.1,0.4,0.3,0.7,0.5,1s0.5,0.5,0.7,0.6c0.3,0.1,0.6,0.2,0.9,0.2c0.2,0,0.4,0,0.6-0.1
			c0.2-0.1,0.3-0.2,0.5-0.3c0.1-0.1,0.3-0.2,0.4-0.4c0.1-0.1,0.2-0.3,0.3-0.5L344.3,236.8z"/>
		<path class="st3" d="M345.9,238.2v-8h2.6c0.9,0,1.6,0.2,2,0.6c0.4,0.4,0.6,0.9,0.6,1.6c0,0.4,0,0.7-0.1,0.9
			c-0.1,0.3-0.2,0.5-0.4,0.7c-0.2,0.2-0.4,0.3-0.6,0.4c-0.2,0.1-0.5,0.2-0.8,0.2l2.2,3.6h-1.1l-2.2-3.5h-1.2v3.5H345.9z
			 M346.9,233.9h1.5c1.1,0,1.7-0.5,1.7-1.5c0-0.5-0.1-0.8-0.4-1c-0.3-0.2-0.7-0.3-1.2-0.3h-1.6V233.9z"/>
		<path class="st3" d="M352.8,238.2v-8h4.7v0.8h-3.7v2.6h2.7v0.8h-2.7v3h4v0.8H352.8z"/>
		<path class="st3" d="M358.3,238.2l3.1-8h0.6l3.1,8h-1l-0.9-2.5h-2.9l-0.9,2.5H358.3z M360.6,234.9h2.3l-1.2-3.1L360.6,234.9z"/>
		<path class="st3" d="M366.6,236.5c0.2,0.3,0.5,0.6,0.9,0.8s0.8,0.3,1.2,0.3c0.2,0,0.4,0,0.6-0.1c0.2-0.1,0.4-0.1,0.5-0.2
			c0.1-0.1,0.3-0.2,0.3-0.4c0.1-0.2,0.1-0.4,0.1-0.6c0-0.2-0.1-0.4-0.2-0.6s-0.2-0.3-0.4-0.5s-0.4-0.3-0.6-0.4
			c-0.2-0.1-0.5-0.2-0.7-0.3c-0.3-0.1-0.5-0.2-0.8-0.4c-0.3-0.1-0.5-0.3-0.7-0.5s-0.4-0.4-0.5-0.6c-0.1-0.2-0.2-0.5-0.2-0.9
			c0-0.3,0.1-0.6,0.2-0.9c0.1-0.3,0.3-0.5,0.6-0.6s0.5-0.3,0.8-0.4c0.3-0.1,0.6-0.1,0.9-0.1c0.5,0,1,0.1,1.5,0.3
			c0.5,0.2,0.8,0.5,1.1,0.9l-0.7,0.6c-0.2-0.3-0.5-0.5-0.8-0.7c-0.3-0.2-0.7-0.3-1.1-0.3c-0.5,0-0.8,0.1-1.1,0.3
			c-0.3,0.2-0.4,0.5-0.4,0.8c0,0.2,0,0.4,0.1,0.5c0.1,0.1,0.2,0.3,0.4,0.4c0.2,0.1,0.4,0.2,0.6,0.3c0.2,0.1,0.5,0.2,0.8,0.3
			c0.3,0.1,0.5,0.2,0.8,0.4c0.3,0.1,0.5,0.3,0.7,0.5c0.2,0.2,0.4,0.4,0.5,0.6c0.1,0.2,0.2,0.5,0.2,0.9c0,0.4-0.1,0.8-0.2,1.1
			c-0.1,0.3-0.3,0.5-0.6,0.7c-0.2,0.2-0.5,0.3-0.8,0.4s-0.7,0.1-1,0.1c-0.3,0-0.5,0-0.8-0.1c-0.3-0.1-0.5-0.1-0.8-0.3
			s-0.5-0.2-0.7-0.4s-0.4-0.3-0.5-0.6L366.6,236.5z"/>
		<path class="st3" d="M372.9,238.2v-8h4.7v0.8h-3.7v2.6h2.7v0.8h-2.7v3h4v0.8H372.9z"/>
	</g>
	<rect x="167.4" y="210.5" class="st1" width="96" height="40"/>
	
		<rect x="224.3" y="210.5" transform="matrix(-1 -1.224647e-16 1.224647e-16 -1 487.6284 461.0557)" class="st4" width="39.1" height="40"/>
	<g>
		<path class="st3" d="M262,8.1v-8h2.5c0.4,0,0.8,0,1.1,0.1c0.3,0.1,0.7,0.2,1,0.3c0.4,0.2,0.7,0.5,0.9,0.9c0.2,0.4,0.3,0.8,0.3,1.2
			c0,0.2,0,0.5-0.1,0.7c-0.1,0.2-0.2,0.5-0.3,0.7c-0.1,0.2-0.3,0.4-0.4,0.6c-0.2,0.2-0.4,0.3-0.6,0.4c-0.3,0.1-0.6,0.2-0.9,0.2
			s-0.6,0.1-0.9,0.1h-1.1v2.9H262z M263.5,3.9h0.9c0.2,0,0.4,0,0.6,0c0.2,0,0.3-0.1,0.5-0.1c0.2-0.1,0.4-0.2,0.5-0.4
			c0.1-0.2,0.1-0.4,0.1-0.6c0-0.2-0.1-0.4-0.2-0.6c-0.1-0.2-0.3-0.3-0.5-0.4c-0.1,0-0.3-0.1-0.4-0.1c-0.2,0-0.3,0-0.6,0h-1V3.9z"/>
		<path class="st3" d="M269.2,8.1V2.4h1.4l0.1,0.5c0.2-0.2,0.4-0.4,0.7-0.5c0.2-0.1,0.5-0.1,0.7-0.1c0.1,0,0.3,0,0.4,0
			c0.2,0,0.3,0.1,0.5,0.1l-0.3,1.4c-0.2-0.1-0.3-0.1-0.5-0.1s-0.3-0.1-0.4-0.1c-0.2,0-0.4,0.1-0.6,0.2c-0.2,0.1-0.3,0.2-0.4,0.4v4.1
			H269.2z"/>
		<path class="st3" d="M275.1,5.6c0,0.5,0.2,0.8,0.5,1.1c0.3,0.2,0.5,0.3,0.9,0.3c0.3,0,0.5,0,0.8-0.1c0.2-0.1,0.5-0.3,0.7-0.7
			l1.2,0.7c-0.3,0.5-0.7,0.9-1.1,1.1c-0.4,0.2-0.9,0.3-1.5,0.3c-0.4,0-0.7-0.1-1.1-0.2c-0.3-0.1-0.6-0.3-0.9-0.6s-0.5-0.6-0.6-0.9
			c-0.2-0.4-0.2-0.8-0.2-1.3c0-0.5,0.1-0.9,0.2-1.3c0.1-0.4,0.4-0.7,0.6-0.9c0.3-0.3,0.6-0.5,0.9-0.6c0.3-0.1,0.7-0.2,1.1-0.2
			c0.8,0,1.5,0.3,2,0.8s0.7,1.4,0.8,2.6H275.1z M277.4,4.5c0-0.4-0.2-0.7-0.4-0.9c-0.2-0.2-0.5-0.3-0.7-0.3c-0.1,0-0.3,0-0.4,0.1
			c-0.1,0.1-0.3,0.1-0.4,0.2s-0.2,0.2-0.3,0.4s-0.1,0.3-0.1,0.5H277.4z"/>
		<path class="st3" d="M282.2,8.1l-2.6-5.8h1.7l1.6,3.8l1.5-3.8h1.6l-2.5,5.8H282.2z"/>
		<path class="st3" d="M287.9,1.7c-0.3,0-0.5-0.1-0.7-0.3c-0.2-0.2-0.2-0.4-0.2-0.6c0-0.2,0.1-0.4,0.2-0.6c0.2-0.2,0.4-0.3,0.7-0.3
			c0.3,0,0.5,0.1,0.7,0.3c0.2,0.2,0.2,0.4,0.2,0.6c0,0.2-0.1,0.4-0.2,0.6C288.4,1.6,288.2,1.7,287.9,1.7z M287.1,8.1V2.4h1.6v5.8
			H287.1z"/>
		<path class="st3" d="M291.8,8c-0.4-0.2-0.7-0.4-0.9-0.7c-0.2-0.3-0.4-0.6-0.5-1c-0.1-0.4-0.2-0.7-0.2-1.1s0.1-0.7,0.2-1.1
			c0.1-0.4,0.3-0.7,0.5-1c0.2-0.3,0.5-0.5,0.9-0.7c0.4-0.2,0.8-0.3,1.3-0.3s0.9,0.1,1.3,0.3c0.4,0.2,0.7,0.4,0.9,0.7
			c0.2,0.3,0.4,0.6,0.5,1s0.2,0.7,0.2,1.1s-0.1,0.7-0.2,1.1c-0.1,0.4-0.3,0.7-0.5,1c-0.2,0.3-0.5,0.5-0.9,0.7
			c-0.4,0.2-0.8,0.3-1.3,0.3S292.1,8.2,291.8,8z M292,6.5c0.1,0.2,0.3,0.3,0.4,0.4c0.2,0.1,0.4,0.1,0.6,0.1c0.2,0,0.4,0,0.6-0.1
			c0.2-0.1,0.3-0.2,0.4-0.4c0.1-0.2,0.2-0.3,0.3-0.6s0.1-0.4,0.1-0.7c0-0.2,0-0.5-0.1-0.7c-0.1-0.2-0.1-0.4-0.3-0.6
			c-0.1-0.2-0.3-0.3-0.4-0.4c-0.2-0.1-0.4-0.1-0.6-0.1s-0.4,0-0.6,0.1c-0.2,0.1-0.3,0.2-0.4,0.4c-0.1,0.2-0.2,0.3-0.3,0.6
			c-0.1,0.2-0.1,0.4-0.1,0.7c0,0.2,0,0.5,0.1,0.7C291.8,6.1,291.9,6.3,292,6.5z"/>
		<path class="st3" d="M301.4,8.1l-0.1-0.5c-0.3,0.2-0.6,0.4-0.9,0.5s-0.6,0.1-0.9,0.1c-0.7,0-1.2-0.2-1.6-0.6
			c-0.4-0.4-0.6-1-0.6-1.8V2.4h1.6v3.3c0,0.4,0.1,0.7,0.2,1S299.6,7,300,7c0.3,0,0.6-0.1,0.8-0.2c0.2-0.1,0.4-0.2,0.5-0.3V2.4h1.6
			v5.8H301.4z"/>
		<path class="st3" d="M305.5,6.2c0.1,0.3,0.3,0.5,0.6,0.6c0.2,0.2,0.5,0.3,0.9,0.3c0.3,0,0.6,0,0.8-0.1s0.3-0.2,0.3-0.4
			c0-0.2-0.1-0.3-0.3-0.4c-0.2-0.1-0.5-0.2-1.1-0.3c-0.3-0.1-0.6-0.1-0.8-0.2s-0.5-0.2-0.6-0.4c-0.2-0.1-0.3-0.3-0.4-0.5
			c-0.1-0.2-0.1-0.4-0.1-0.7c0-0.5,0.2-0.9,0.6-1.2c0.4-0.3,1-0.5,1.7-0.5c0.7,0,1.2,0.1,1.6,0.3s0.7,0.5,0.9,0.8l-1.1,0.8
			c-0.1-0.2-0.3-0.4-0.6-0.5c-0.2-0.1-0.5-0.2-0.8-0.2c-0.3,0-0.6,0-0.7,0.1c-0.1,0.1-0.2,0.2-0.2,0.4c0,0.2,0.1,0.3,0.2,0.4
			s0.5,0.2,0.9,0.3c0.4,0.1,0.7,0.2,0.9,0.3c0.3,0.1,0.5,0.2,0.7,0.4c0.2,0.1,0.3,0.3,0.4,0.5c0.1,0.2,0.2,0.5,0.2,0.7
			c0,0.3-0.1,0.6-0.2,0.8s-0.3,0.4-0.5,0.6c-0.2,0.1-0.5,0.3-0.8,0.3c-0.3,0.1-0.6,0.1-1,0.1c-0.7,0-1.2-0.1-1.7-0.4
			c-0.4-0.3-0.8-0.6-1-1L305.5,6.2z"/>
		<path class="st3" d="M313.7,8.1v-8h2.5c0.4,0,0.8,0,1.1,0.1c0.3,0.1,0.7,0.2,1,0.3c0.4,0.2,0.7,0.5,0.9,0.9
			c0.2,0.4,0.3,0.8,0.3,1.2c0,0.2,0,0.5-0.1,0.7c-0.1,0.2-0.2,0.5-0.3,0.7c-0.1,0.2-0.3,0.4-0.4,0.6c-0.2,0.2-0.4,0.3-0.6,0.4
			c-0.3,0.1-0.6,0.2-0.9,0.2s-0.6,0.1-0.9,0.1h-1.1v2.9H313.7z M315.3,3.9h0.9c0.2,0,0.4,0,0.6,0c0.2,0,0.3-0.1,0.5-0.1
			c0.2-0.1,0.4-0.2,0.5-0.4c0.1-0.2,0.1-0.4,0.1-0.6c0-0.2-0.1-0.4-0.2-0.6c-0.1-0.2-0.3-0.3-0.5-0.4c-0.1,0-0.3-0.1-0.4-0.1
			c-0.2,0-0.3,0-0.6,0h-1V3.9z"/>
		<path class="st3" d="M320.9,8.1V2.4h1.4l0.1,0.5c0.2-0.2,0.4-0.4,0.7-0.5c0.2-0.1,0.5-0.1,0.7-0.1c0.1,0,0.3,0,0.4,0
			c0.2,0,0.3,0.1,0.5,0.1l-0.3,1.4c-0.2-0.1-0.3-0.1-0.5-0.1s-0.3-0.1-0.4-0.1c-0.2,0-0.4,0.1-0.6,0.2c-0.2,0.1-0.3,0.2-0.4,0.4v4.1
			H320.9z"/>
		<path class="st3" d="M326.8,8c-0.4-0.2-0.7-0.4-0.9-0.7c-0.2-0.3-0.4-0.6-0.5-1c-0.1-0.4-0.2-0.7-0.2-1.1s0.1-0.7,0.2-1.1
			c0.1-0.4,0.3-0.7,0.5-1c0.2-0.3,0.5-0.5,0.9-0.7c0.4-0.2,0.8-0.3,1.3-0.3s0.9,0.1,1.3,0.3c0.4,0.2,0.7,0.4,0.9,0.7
			c0.2,0.3,0.4,0.6,0.5,1s0.2,0.7,0.2,1.1S331,6,330.9,6.3c-0.1,0.4-0.3,0.7-0.5,1c-0.2,0.3-0.5,0.5-0.9,0.7
			c-0.4,0.2-0.8,0.3-1.3,0.3S327.2,8.2,326.8,8z M327.1,6.5c0.1,0.2,0.3,0.3,0.4,0.4c0.2,0.1,0.4,0.1,0.6,0.1c0.2,0,0.4,0,0.6-0.1
			c0.2-0.1,0.3-0.2,0.4-0.4c0.1-0.2,0.2-0.3,0.3-0.6s0.1-0.4,0.1-0.7c0-0.2,0-0.5-0.1-0.7c-0.1-0.2-0.1-0.4-0.3-0.6
			c-0.1-0.2-0.3-0.3-0.4-0.4c-0.2-0.1-0.4-0.1-0.6-0.1s-0.4,0-0.6,0.1c-0.2,0.1-0.3,0.2-0.4,0.4c-0.1,0.2-0.2,0.3-0.3,0.6
			c-0.1,0.2-0.1,0.4-0.1,0.7c0,0.2,0,0.5,0.1,0.7C326.9,6.1,327,6.3,327.1,6.5z"/>
		<path class="st3" d="M336.2,8.1l-0.1-0.4c-0.1,0.2-0.3,0.3-0.6,0.4s-0.5,0.2-0.8,0.2c-0.4,0-0.8-0.1-1.1-0.3
			c-0.3-0.2-0.6-0.4-0.8-0.7c-0.2-0.3-0.4-0.6-0.5-1c-0.1-0.4-0.2-0.8-0.2-1.2c0-0.4,0.1-0.7,0.2-1.1c0.1-0.4,0.3-0.7,0.5-1
			c0.2-0.3,0.5-0.5,0.9-0.7s0.8-0.3,1.3-0.3c0.3,0,0.7,0.1,1,0.2V0.1h1.6v8H336.2z M336.1,3.6c-0.3-0.1-0.6-0.2-0.8-0.2
			s-0.5,0-0.7,0.1c-0.2,0.1-0.4,0.2-0.5,0.4s-0.2,0.3-0.3,0.6c-0.1,0.2-0.1,0.4-0.1,0.6c0,0.2,0,0.5,0.1,0.7
			c0.1,0.2,0.1,0.4,0.3,0.6c0.1,0.2,0.3,0.3,0.4,0.4s0.4,0.1,0.6,0.1c0.2,0,0.4,0,0.6-0.1s0.3-0.2,0.4-0.4V3.6z"/>
		<path class="st3" d="M343.5,8.1l-0.1-0.5c-0.3,0.2-0.6,0.4-0.9,0.5s-0.6,0.1-0.9,0.1c-0.7,0-1.2-0.2-1.6-0.6
			c-0.4-0.4-0.6-1-0.6-1.8V2.4h1.6v3.3c0,0.4,0.1,0.7,0.2,1s0.4,0.4,0.8,0.4c0.3,0,0.6-0.1,0.8-0.2c0.2-0.1,0.4-0.2,0.5-0.3V2.4h1.6
			v5.8H343.5z"/>
		<path class="st3" d="M351.7,6.7c-0.2,0.5-0.6,0.9-1,1.2c-0.4,0.2-0.9,0.4-1.5,0.4c-0.4,0-0.7-0.1-1.1-0.2s-0.6-0.3-0.9-0.6
			c-0.3-0.3-0.5-0.6-0.6-0.9c-0.2-0.4-0.2-0.8-0.2-1.3c0-0.5,0.1-1,0.2-1.3c0.2-0.4,0.4-0.7,0.6-1s0.5-0.4,0.9-0.6
			c0.3-0.1,0.7-0.2,1-0.2c0.4,0,0.7,0.1,0.9,0.2s0.5,0.2,0.7,0.4c0.2,0.2,0.4,0.3,0.5,0.5c0.1,0.2,0.2,0.4,0.3,0.6l-1.2,0.6
			c-0.1-0.4-0.3-0.7-0.5-0.8c-0.2-0.2-0.4-0.2-0.7-0.2c-0.2,0-0.3,0-0.5,0.1c-0.1,0.1-0.3,0.2-0.4,0.3s-0.2,0.3-0.3,0.6
			C348,4.7,348,4.9,348,5.2c0,0.6,0.1,1,0.4,1.3s0.6,0.5,1,0.5c0.3,0,0.6-0.1,0.7-0.2c0.2-0.2,0.4-0.4,0.5-0.6L351.7,6.7z"/>
		<path class="st3" d="M354.7,6.5c0,0.2,0,0.3,0.1,0.4S355,7,355.1,7c0.2,0,0.3,0,0.5-0.1c0.2-0.1,0.3-0.2,0.4-0.3l0.6,1.1
			c-0.3,0.2-0.5,0.3-0.8,0.4c-0.3,0.1-0.6,0.2-0.9,0.2c-0.2,0-0.4,0-0.6-0.1c-0.2-0.1-0.4-0.1-0.5-0.3c-0.1-0.1-0.3-0.3-0.4-0.5
			c-0.1-0.2-0.1-0.4-0.1-0.7V3.6h-0.9V2.4h0.9V0.9h1.6v1.5h1.4v1.2h-1.4V6.5z"/>
		<path class="st3" d="M358.4,1.7c-0.3,0-0.5-0.1-0.7-0.3c-0.2-0.2-0.2-0.4-0.2-0.6c0-0.2,0.1-0.4,0.2-0.6c0.2-0.2,0.4-0.3,0.7-0.3
			c0.3,0,0.5,0.1,0.7,0.3c0.2,0.2,0.2,0.4,0.2,0.6c0,0.2-0.1,0.4-0.2,0.6C359,1.6,358.7,1.7,358.4,1.7z M357.6,8.1V2.4h1.6v5.8
			H357.6z"/>
		<path class="st3" d="M362.8,8.1l-2.6-5.8h1.7l1.6,3.8l1.5-3.8h1.6l-2.5,5.8H362.8z"/>
		<path class="st3" d="M368.5,1.7c-0.3,0-0.5-0.1-0.7-0.3c-0.2-0.2-0.2-0.4-0.2-0.6c0-0.2,0.1-0.4,0.2-0.6c0.2-0.2,0.4-0.3,0.7-0.3
			c0.3,0,0.5,0.1,0.7,0.3c0.2,0.2,0.2,0.4,0.2,0.6c0,0.2-0.1,0.4-0.2,0.6C369.1,1.6,368.8,1.7,368.5,1.7z M367.8,8.1V2.4h1.6v5.8
			H367.8z"/>
		<path class="st3" d="M373,6.5c0,0.2,0,0.3,0.1,0.4s0.2,0.1,0.2,0.1c0.2,0,0.3,0,0.5-0.1c0.2-0.1,0.3-0.2,0.4-0.3l0.6,1.1
			c-0.3,0.2-0.5,0.3-0.8,0.4c-0.3,0.1-0.6,0.2-0.9,0.2c-0.2,0-0.4,0-0.6-0.1c-0.2-0.1-0.4-0.1-0.5-0.3c-0.1-0.1-0.3-0.3-0.4-0.5
			c-0.1-0.2-0.1-0.4-0.1-0.7V3.6h-0.9V2.4h0.9V0.9h1.6v1.5h1.4v1.2H373V6.5z"/>
		<path class="st3" d="M375.7,9.1c0.2,0.1,0.3,0.1,0.5,0.2c0.1,0,0.3,0,0.4,0c0.1,0,0.2,0,0.3-0.1c0.1-0.1,0.2-0.2,0.3-0.3l0.4-1
			l-2.4-5.5h1.7l1.5,3.9l1.4-3.9h1.6l-3,7.2c-0.1,0.2-0.2,0.4-0.3,0.5c-0.1,0.1-0.3,0.2-0.4,0.3c-0.1,0.1-0.3,0.1-0.5,0.2
			c-0.2,0-0.3,0-0.5,0c-0.2,0-0.4,0-0.7-0.1c-0.3-0.1-0.5-0.1-0.8-0.2L375.7,9.1z"/>
		<path class="st3" d="M385.2,8.1v-8h1.6v6.6h4v1.5H385.2z"/>
		<path class="st3" d="M393,5.6c0,0.5,0.2,0.8,0.5,1.1c0.3,0.2,0.5,0.3,0.9,0.3c0.3,0,0.5,0,0.8-0.1c0.2-0.1,0.5-0.3,0.7-0.7
			l1.2,0.7c-0.3,0.5-0.7,0.9-1.1,1.1c-0.4,0.2-0.9,0.3-1.5,0.3c-0.4,0-0.7-0.1-1.1-0.2c-0.3-0.1-0.6-0.3-0.9-0.6s-0.5-0.6-0.6-0.9
			c-0.2-0.4-0.2-0.8-0.2-1.3c0-0.5,0.1-0.9,0.2-1.3c0.1-0.4,0.4-0.7,0.6-0.9c0.3-0.3,0.6-0.5,0.9-0.6c0.3-0.1,0.7-0.2,1.1-0.2
			c0.8,0,1.5,0.3,2,0.8s0.7,1.4,0.8,2.6H393z M395.4,4.5c0-0.4-0.2-0.7-0.4-0.9c-0.2-0.2-0.5-0.3-0.7-0.3c-0.1,0-0.3,0-0.4,0.1
			c-0.1,0.1-0.3,0.1-0.4,0.2s-0.2,0.2-0.3,0.4s-0.1,0.3-0.1,0.5H395.4z"/>
		<path class="st3" d="M400.1,8.1l-2.6-5.8h1.7l1.6,3.8l1.5-3.8h1.6l-2.5,5.8H400.1z"/>
		<path class="st3" d="M406.1,5.6c0,0.5,0.2,0.8,0.5,1.1c0.3,0.2,0.5,0.3,0.9,0.3c0.3,0,0.5,0,0.8-0.1c0.2-0.1,0.5-0.3,0.7-0.7
			l1.2,0.7c-0.3,0.5-0.7,0.9-1.1,1.1c-0.4,0.2-0.9,0.3-1.5,0.3c-0.4,0-0.7-0.1-1.1-0.2c-0.3-0.1-0.6-0.3-0.9-0.6s-0.5-0.6-0.6-0.9
			c-0.2-0.4-0.2-0.8-0.2-1.3c0-0.5,0.1-0.9,0.2-1.3c0.1-0.4,0.4-0.7,0.6-0.9c0.3-0.3,0.6-0.5,0.9-0.6c0.3-0.1,0.7-0.2,1.1-0.2
			c0.8,0,1.5,0.3,2,0.8s0.7,1.4,0.8,2.6H406.1z M408.5,4.5c0-0.4-0.2-0.7-0.4-0.9c-0.2-0.2-0.5-0.3-0.7-0.3c-0.1,0-0.3,0-0.4,0.1
			c-0.1,0.1-0.3,0.1-0.4,0.2s-0.2,0.2-0.3,0.4s-0.1,0.3-0.1,0.5H408.5z"/>
		<path class="st3" d="M411.5,8.1v-8h1.6v8H411.5z"/>
	</g>
	<g>
		<path class="st3" d="M168.1,299.4l-0.3-0.6l1.5-1l-1.5-1l0.4-0.6l1.4,1v-1.6h0.7v1.6l1.4-0.9l0.4,0.6l-1.5,1l1.5,1l-0.3,0.6
			l-1.5-1v1.7h-0.7v-1.7L168.1,299.4z"/>
		<path class="st3" d="M182,302.7c-0.1,0.2-0.2,0.4-0.4,0.6c-0.2,0.2-0.3,0.4-0.5,0.5c-0.2,0.2-0.4,0.3-0.7,0.4s-0.6,0.1-0.9,0.1
			c-0.5,0-0.9-0.1-1.3-0.2s-0.8-0.4-1.1-0.7c-0.3-0.3-0.5-0.8-0.7-1.3c-0.2-0.5-0.3-1.1-0.3-1.9c0-0.7,0.1-1.4,0.3-1.9
			c0.2-0.5,0.4-1,0.7-1.3c0.3-0.3,0.6-0.6,1-0.7c0.4-0.2,0.8-0.2,1.2-0.2c0.6,0,1.1,0.1,1.6,0.4c0.5,0.3,0.8,0.7,1.1,1.2l-0.8,0.5
			c-0.1-0.1-0.2-0.3-0.3-0.4c-0.1-0.1-0.3-0.3-0.4-0.4c-0.2-0.1-0.3-0.2-0.5-0.3s-0.4-0.1-0.6-0.1c-0.7,0-1.3,0.3-1.6,0.9
			c-0.4,0.6-0.6,1.4-0.6,2.5c0,0.5,0.1,1,0.2,1.4s0.3,0.7,0.5,1c0.2,0.3,0.5,0.5,0.7,0.6c0.3,0.1,0.6,0.2,0.9,0.2
			c0.2,0,0.4,0,0.6-0.1c0.2-0.1,0.3-0.1,0.5-0.3s0.3-0.2,0.4-0.4c0.1-0.1,0.2-0.3,0.3-0.5L182,302.7z"/>
		<path class="st3" d="M184.3,302.1c0,0.5,0.1,0.9,0.3,1.1c0.2,0.2,0.6,0.3,1,0.3c0.3,0,0.6-0.1,0.9-0.2s0.5-0.3,0.7-0.5v-4.5h0.9
			v5.7h-0.9l-0.1-0.4c-0.2,0.2-0.5,0.3-0.8,0.4c-0.3,0.1-0.6,0.2-1,0.2c-0.8,0-1.3-0.2-1.6-0.6c-0.3-0.4-0.5-0.9-0.5-1.7v-3.6h0.9
			V302.1z"/>
		<path class="st3" d="M190.5,302.7c0.1,0.3,0.3,0.5,0.5,0.6c0.2,0.1,0.5,0.2,0.9,0.2c0.8,0,1.2-0.3,1.2-0.8c0-0.2,0-0.3-0.1-0.4
			c-0.1-0.1-0.1-0.2-0.3-0.3c-0.1-0.1-0.3-0.2-0.5-0.3s-0.4-0.2-0.7-0.3c-0.3-0.1-0.5-0.2-0.7-0.3c-0.2-0.1-0.4-0.2-0.5-0.4
			s-0.2-0.3-0.3-0.4c-0.1-0.2-0.1-0.3-0.1-0.6c0-0.5,0.2-0.8,0.5-1.1c0.3-0.3,0.8-0.4,1.3-0.4c0.5,0,0.9,0.1,1.2,0.2
			c0.3,0.2,0.6,0.4,0.8,0.7l-0.6,0.5c-0.2-0.2-0.3-0.4-0.6-0.5c-0.2-0.1-0.5-0.2-0.7-0.2c-0.3,0-0.6,0.1-0.8,0.2
			c-0.2,0.1-0.2,0.3-0.2,0.5c0,0.1,0,0.2,0.1,0.3s0.1,0.2,0.2,0.3c0.1,0.1,0.3,0.2,0.4,0.2c0.2,0.1,0.4,0.2,0.7,0.3
			c0.5,0.2,0.9,0.4,1.2,0.7c0.3,0.3,0.4,0.7,0.4,1.1c0,0.3-0.1,0.5-0.2,0.7c-0.1,0.2-0.2,0.4-0.4,0.5c-0.2,0.1-0.4,0.3-0.6,0.3
			s-0.5,0.1-0.8,0.1c-0.6,0-1-0.1-1.3-0.3c-0.3-0.2-0.6-0.5-0.8-0.8L190.5,302.7z"/>
		<path class="st3" d="M196.7,302.8c0,0.3,0.1,0.5,0.2,0.6s0.2,0.1,0.4,0.1c0.2,0,0.3,0,0.4-0.1c0.1-0.1,0.3-0.1,0.4-0.2l0.4,0.6
			c-0.2,0.1-0.4,0.2-0.5,0.3c-0.2,0.1-0.4,0.1-0.8,0.1c-0.4,0-0.8-0.1-1-0.3c-0.2-0.2-0.3-0.6-0.3-1v-3.8h-1v-0.8h1v-1.6h0.9v1.6
			h1.5v0.8h-1.5V302.8z"/>
		<path class="st3" d="M200.9,304c-0.3-0.2-0.6-0.4-0.8-0.7c-0.2-0.3-0.4-0.6-0.5-1c-0.1-0.4-0.2-0.7-0.2-1.1s0.1-0.7,0.2-1.1
			c0.1-0.4,0.3-0.7,0.5-1s0.5-0.5,0.8-0.7s0.7-0.3,1.2-0.3c0.4,0,0.8,0.1,1.2,0.3s0.6,0.4,0.8,0.7c0.2,0.3,0.4,0.6,0.5,1
			c0.1,0.4,0.2,0.7,0.2,1.1s-0.1,0.7-0.2,1.1c-0.1,0.4-0.3,0.7-0.5,1c-0.2,0.3-0.5,0.5-0.8,0.7s-0.7,0.3-1.2,0.3
			S201.2,304.2,200.9,304z M200.7,302.8c0.2,0.2,0.3,0.4,0.6,0.5c0.2,0.1,0.5,0.2,0.8,0.2c0.3,0,0.6-0.1,0.8-0.2
			c0.2-0.1,0.4-0.3,0.6-0.5s0.3-0.5,0.3-0.7c0.1-0.3,0.1-0.5,0.1-0.8c0-0.3,0-0.6-0.1-0.8c-0.1-0.3-0.2-0.5-0.3-0.7
			s-0.3-0.4-0.6-0.5c-0.2-0.1-0.5-0.2-0.8-0.2s-0.6,0.1-0.8,0.2s-0.4,0.3-0.5,0.5s-0.3,0.5-0.3,0.7c-0.1,0.3-0.1,0.5-0.1,0.8
			c0,0.3,0,0.6,0.1,0.8C200.5,302.4,200.6,302.6,200.7,302.8z"/>
		<path class="st3" d="M206.4,304.1v-5.7h0.9l0.1,0.5c0.2-0.1,0.4-0.3,0.7-0.4s0.6-0.2,1-0.2c0.3,0,0.6,0.1,0.9,0.2
			c0.3,0.1,0.5,0.3,0.7,0.6c0.2-0.2,0.5-0.4,0.9-0.5c0.3-0.1,0.7-0.2,1.1-0.2c0.4,0,0.7,0.1,1,0.2c0.3,0.1,0.5,0.3,0.6,0.5
			c0.2,0.2,0.3,0.5,0.3,0.8s0.1,0.6,0.1,1v3.5h-0.9v-3.6c0-0.5-0.1-0.9-0.3-1.1c-0.2-0.3-0.5-0.4-1-0.4c-0.2,0-0.3,0-0.5,0.1
			s-0.3,0.1-0.4,0.2c-0.1,0.1-0.3,0.1-0.4,0.2c-0.1,0.1-0.2,0.1-0.3,0.2c0,0.1,0.1,0.3,0.1,0.4s0,0.3,0,0.6v3.5h-0.9v-3.6
			c0-0.2,0-0.4-0.1-0.6c0-0.2-0.1-0.3-0.2-0.5c-0.1-0.1-0.2-0.2-0.4-0.3s-0.3-0.1-0.6-0.1c-0.3,0-0.6,0.1-0.8,0.2
			c-0.3,0.1-0.5,0.3-0.7,0.4v4.5H206.4z"/>
		<path class="st3" d="M217.3,301.2c0,0.7,0.2,1.3,0.5,1.7c0.3,0.4,0.8,0.6,1.4,0.6c0.4,0,0.7-0.1,0.9-0.3s0.4-0.4,0.6-0.6l0.6,0.4
			c-0.2,0.4-0.5,0.7-0.8,0.9c-0.3,0.2-0.8,0.4-1.3,0.4c-0.4,0-0.8-0.1-1.2-0.2c-0.3-0.1-0.6-0.3-0.9-0.6s-0.4-0.6-0.6-0.9
			s-0.2-0.8-0.2-1.3c0-0.5,0.1-0.9,0.2-1.2s0.3-0.7,0.5-0.9c0.2-0.3,0.5-0.5,0.8-0.6c0.3-0.1,0.7-0.2,1-0.2c0.4,0,0.8,0.1,1.1,0.2
			c0.3,0.1,0.6,0.3,0.8,0.6s0.4,0.6,0.5,0.9c0.1,0.4,0.2,0.8,0.2,1.2H217.3z M220.4,300.5c0-0.2-0.1-0.5-0.1-0.7
			c-0.1-0.2-0.2-0.3-0.3-0.5c-0.1-0.1-0.3-0.2-0.5-0.3c-0.2-0.1-0.4-0.1-0.5-0.1c-0.4,0-0.7,0.1-1,0.3c-0.3,0.2-0.5,0.6-0.6,1.1
			H220.4z"/>
		<path class="st3" d="M223,304.1v-5.7h0.8l0.1,0.5c0.2-0.2,0.3-0.3,0.6-0.4c0.2-0.1,0.5-0.2,0.7-0.2c0.2,0,0.3,0,0.5,0
			c0.1,0,0.3,0,0.3,0.1l-0.2,0.9c-0.2-0.1-0.5-0.1-0.8-0.1c-0.2,0-0.5,0.1-0.7,0.2c-0.2,0.1-0.4,0.3-0.5,0.4v4.5H223z"/>
		<path class="st3" d="M229.9,304.1v-5.7h0.8l0.1,0.5c0.2-0.2,0.3-0.3,0.6-0.4c0.2-0.1,0.5-0.2,0.7-0.2c0.2,0,0.3,0,0.5,0
			c0.1,0,0.3,0,0.3,0.1l-0.2,0.9c-0.2-0.1-0.5-0.1-0.8-0.1c-0.2,0-0.5,0.1-0.7,0.2c-0.2,0.1-0.4,0.3-0.5,0.4v4.5H229.9z"/>
		<path class="st3" d="M234.6,301.2c0,0.7,0.2,1.3,0.5,1.7c0.3,0.4,0.8,0.6,1.4,0.6c0.4,0,0.7-0.1,0.9-0.3s0.4-0.4,0.6-0.6l0.6,0.4
			c-0.2,0.4-0.5,0.7-0.8,0.9c-0.3,0.2-0.8,0.4-1.3,0.4c-0.4,0-0.8-0.1-1.2-0.2c-0.3-0.1-0.6-0.3-0.9-0.6s-0.4-0.6-0.6-0.9
			s-0.2-0.8-0.2-1.3c0-0.5,0.1-0.9,0.2-1.2s0.3-0.7,0.5-0.9c0.2-0.3,0.5-0.5,0.8-0.6c0.3-0.1,0.7-0.2,1-0.2c0.4,0,0.8,0.1,1.1,0.2
			c0.3,0.1,0.6,0.3,0.8,0.6s0.4,0.6,0.5,0.9c0.1,0.4,0.2,0.8,0.2,1.2H234.6z M237.7,300.5c0-0.2-0.1-0.5-0.1-0.7
			c-0.1-0.2-0.2-0.3-0.3-0.5c-0.1-0.1-0.3-0.2-0.5-0.3c-0.2-0.1-0.4-0.1-0.5-0.1c-0.4,0-0.7,0.1-1,0.3c-0.3,0.2-0.5,0.6-0.6,1.1
			H237.7z"/>
		<path class="st3" d="M240.6,302.7c0.1,0.3,0.3,0.5,0.5,0.6c0.2,0.1,0.5,0.2,0.9,0.2c0.8,0,1.2-0.3,1.2-0.8c0-0.2,0-0.3-0.1-0.4
			c-0.1-0.1-0.1-0.2-0.3-0.3c-0.1-0.1-0.3-0.2-0.5-0.3s-0.4-0.2-0.7-0.3c-0.3-0.1-0.5-0.2-0.7-0.3c-0.2-0.1-0.4-0.2-0.5-0.4
			s-0.2-0.3-0.3-0.4c-0.1-0.2-0.1-0.3-0.1-0.6c0-0.5,0.2-0.8,0.5-1.1c0.3-0.3,0.8-0.4,1.3-0.4c0.5,0,0.9,0.1,1.2,0.2
			c0.3,0.2,0.6,0.4,0.8,0.7l-0.6,0.5c-0.2-0.2-0.3-0.4-0.6-0.5c-0.2-0.1-0.5-0.2-0.7-0.2c-0.3,0-0.6,0.1-0.8,0.2
			c-0.2,0.1-0.2,0.3-0.2,0.5c0,0.1,0,0.2,0.1,0.3s0.1,0.2,0.2,0.3c0.1,0.1,0.3,0.2,0.4,0.2c0.2,0.1,0.4,0.2,0.7,0.3
			c0.5,0.2,0.9,0.4,1.2,0.7c0.3,0.3,0.4,0.7,0.4,1.1c0,0.3-0.1,0.5-0.2,0.7c-0.1,0.2-0.2,0.4-0.4,0.5c-0.2,0.1-0.4,0.3-0.6,0.3
			s-0.5,0.1-0.8,0.1c-0.6,0-1-0.1-1.3-0.3c-0.3-0.2-0.6-0.5-0.8-0.8L240.6,302.7z"/>
		<path class="st3" d="M246.5,302.1c0,0.5,0.1,0.9,0.3,1.1c0.2,0.2,0.6,0.3,1,0.3c0.3,0,0.6-0.1,0.9-0.2s0.5-0.3,0.7-0.5v-4.5h0.9
			v5.7h-0.9l-0.1-0.4c-0.2,0.2-0.5,0.3-0.8,0.4c-0.3,0.1-0.6,0.2-1,0.2c-0.8,0-1.3-0.2-1.6-0.6c-0.3-0.4-0.5-0.9-0.5-1.7v-3.6h0.9
			V302.1z"/>
		<path class="st3" d="M252.3,304.1v-8h0.9v8H252.3z"/>
		<path class="st3" d="M256.5,302.8c0,0.3,0.1,0.5,0.2,0.6c0.1,0.1,0.2,0.1,0.4,0.1c0.2,0,0.3,0,0.4-0.1c0.1-0.1,0.3-0.1,0.4-0.2
			l0.4,0.6c-0.2,0.1-0.4,0.2-0.5,0.3c-0.2,0.1-0.4,0.1-0.8,0.1c-0.4,0-0.8-0.1-1-0.3c-0.2-0.2-0.3-0.6-0.3-1v-3.8h-1v-0.8h1v-1.6
			h0.9v1.6h1.5v0.8h-1.5V302.8z"/>
		<path class="st3" d="M259.8,302.7c0.1,0.3,0.3,0.5,0.5,0.6s0.5,0.2,0.9,0.2c0.8,0,1.2-0.3,1.2-0.8c0-0.2,0-0.3-0.1-0.4
			c-0.1-0.1-0.1-0.2-0.3-0.3c-0.1-0.1-0.3-0.2-0.5-0.3c-0.2-0.1-0.4-0.2-0.7-0.3c-0.3-0.1-0.5-0.2-0.7-0.3s-0.4-0.2-0.5-0.4
			s-0.2-0.3-0.3-0.4c-0.1-0.2-0.1-0.3-0.1-0.6c0-0.5,0.2-0.8,0.5-1.1c0.3-0.3,0.8-0.4,1.3-0.4c0.5,0,0.9,0.1,1.2,0.2
			c0.3,0.2,0.6,0.4,0.8,0.7l-0.6,0.5c-0.2-0.2-0.3-0.4-0.6-0.5c-0.2-0.1-0.5-0.2-0.7-0.2c-0.3,0-0.6,0.1-0.8,0.2
			c-0.2,0.1-0.2,0.3-0.2,0.5c0,0.1,0,0.2,0.1,0.3s0.1,0.2,0.2,0.3c0.1,0.1,0.3,0.2,0.4,0.2c0.2,0.1,0.4,0.2,0.7,0.3
			c0.5,0.2,0.9,0.4,1.2,0.7c0.3,0.3,0.4,0.7,0.4,1.1c0,0.3-0.1,0.5-0.2,0.7c-0.1,0.2-0.2,0.4-0.4,0.5c-0.2,0.1-0.4,0.3-0.6,0.3
			s-0.5,0.1-0.8,0.1c-0.6,0-1-0.1-1.3-0.3c-0.3-0.2-0.6-0.5-0.8-0.8L259.8,302.7z"/>
		<path class="st3" d="M265.1,304.3c-0.2,0-0.3-0.1-0.5-0.2s-0.2-0.3-0.2-0.5s0.1-0.4,0.2-0.5c0.1-0.1,0.3-0.2,0.5-0.2
			c0.2,0,0.3,0.1,0.5,0.2c0.1,0.1,0.2,0.3,0.2,0.5s-0.1,0.4-0.2,0.5C265.4,304.2,265.2,304.3,265.1,304.3z"/>
		<path class="st3" d="M272,304.1v-3.8l-2.7-4.2h1.1l2.1,3.2l2.2-3.2h1l-2.8,4.2v3.9H272z"/>
		<path class="st3" d="M277,304c-0.3-0.2-0.6-0.4-0.8-0.7c-0.2-0.3-0.4-0.6-0.5-1s-0.2-0.7-0.2-1.1s0.1-0.7,0.2-1.1
			c0.1-0.4,0.3-0.7,0.5-1s0.5-0.5,0.8-0.7s0.7-0.3,1.2-0.3c0.4,0,0.8,0.1,1.2,0.3s0.6,0.4,0.8,0.7c0.2,0.3,0.4,0.6,0.5,1
			c0.1,0.4,0.2,0.7,0.2,1.1s-0.1,0.7-0.2,1.1c-0.1,0.4-0.3,0.7-0.5,1c-0.2,0.3-0.5,0.5-0.8,0.7s-0.7,0.3-1.2,0.3
			C277.7,304.3,277.3,304.2,277,304z M276.8,302.8c0.2,0.2,0.3,0.4,0.6,0.5c0.2,0.1,0.5,0.2,0.8,0.2c0.3,0,0.6-0.1,0.8-0.2
			c0.2-0.1,0.4-0.3,0.6-0.5c0.1-0.2,0.3-0.5,0.3-0.7c0.1-0.3,0.1-0.5,0.1-0.8c0-0.3,0-0.6-0.1-0.8c-0.1-0.3-0.2-0.5-0.3-0.7
			c-0.1-0.2-0.3-0.4-0.6-0.5c-0.2-0.1-0.5-0.2-0.8-0.2s-0.6,0.1-0.8,0.2c-0.2,0.1-0.4,0.3-0.5,0.5c-0.1,0.2-0.3,0.5-0.3,0.7
			c-0.1,0.3-0.1,0.5-0.1,0.8c0,0.3,0,0.6,0.1,0.8C276.6,302.4,276.7,302.6,276.8,302.8z"/>
		<path class="st3" d="M283.4,302.1c0,0.5,0.1,0.9,0.3,1.1c0.2,0.2,0.6,0.3,1,0.3c0.3,0,0.6-0.1,0.9-0.2s0.5-0.3,0.7-0.5v-4.5h0.9
			v5.7h-0.9l-0.1-0.4c-0.2,0.2-0.5,0.3-0.8,0.4c-0.3,0.1-0.6,0.2-1,0.2c-0.8,0-1.3-0.2-1.6-0.6s-0.5-0.9-0.5-1.7v-3.6h0.9V302.1z"/>
		<path class="st3" d="M289.2,304.1v-5.7h0.8l0.1,0.5c0.2-0.2,0.3-0.3,0.6-0.4s0.5-0.2,0.7-0.2c0.2,0,0.3,0,0.5,0
			c0.1,0,0.3,0,0.3,0.1l-0.2,0.9c-0.2-0.1-0.5-0.1-0.8-0.1c-0.2,0-0.5,0.1-0.7,0.2c-0.2,0.1-0.4,0.3-0.5,0.4v4.5H289.2z"/>
		<path class="st3" d="M296.7,301.2c0,0.7,0.2,1.3,0.5,1.7c0.3,0.4,0.8,0.6,1.4,0.6c0.4,0,0.7-0.1,0.9-0.3s0.4-0.4,0.6-0.6l0.6,0.4
			c-0.2,0.4-0.5,0.7-0.8,0.9c-0.3,0.2-0.8,0.4-1.3,0.4c-0.4,0-0.8-0.1-1.2-0.2c-0.3-0.1-0.6-0.3-0.9-0.6c-0.2-0.3-0.4-0.6-0.6-0.9
			s-0.2-0.8-0.2-1.3c0-0.5,0.1-0.9,0.2-1.2s0.3-0.7,0.5-0.9c0.2-0.3,0.5-0.5,0.8-0.6c0.3-0.1,0.7-0.2,1.1-0.2c0.4,0,0.8,0.1,1.1,0.2
			c0.3,0.1,0.6,0.3,0.8,0.6s0.4,0.6,0.5,0.9c0.1,0.4,0.2,0.8,0.2,1.2H296.7z M299.9,300.5c0-0.2-0.1-0.5-0.1-0.7
			c-0.1-0.2-0.2-0.3-0.3-0.5c-0.1-0.1-0.3-0.2-0.5-0.3c-0.2-0.1-0.4-0.1-0.5-0.1c-0.4,0-0.7,0.1-1,0.3c-0.3,0.2-0.5,0.6-0.6,1.1
			H299.9z"/>
		<path class="st3" d="M301.7,304.1l1.9-2.9l-1.8-2.8h1l1.3,2.1l1.3-2.1h1l-1.8,2.8l1.9,2.9h-1l-1.4-2.1l-1.4,2.1H301.7z"/>
		<path class="st3" d="M307.6,306.4v-8h0.8l0.1,0.4c0.2-0.2,0.5-0.3,0.8-0.4c0.3-0.1,0.6-0.1,0.9-0.1c0.4,0,0.8,0.1,1.1,0.2
			s0.5,0.4,0.7,0.6c0.2,0.3,0.3,0.6,0.4,0.9c0.1,0.4,0.1,0.7,0.1,1.1c0,0.5-0.1,0.9-0.2,1.3c-0.1,0.4-0.3,0.7-0.6,1
			s-0.6,0.5-0.9,0.6c-0.4,0.1-0.7,0.2-1.1,0.2c-0.4,0-0.8-0.1-1.1-0.2v2.3H307.6z M308.6,303.3c0.1,0.1,0.2,0.1,0.4,0.2
			c0.2,0.1,0.4,0.1,0.6,0.1c0.3,0,0.6-0.1,0.8-0.2c0.3-0.1,0.5-0.3,0.7-0.4c0.2-0.2,0.3-0.4,0.4-0.7c0.1-0.3,0.2-0.6,0.2-1
			c0-0.3,0-0.5-0.1-0.8c-0.1-0.3-0.1-0.5-0.3-0.7s-0.3-0.4-0.5-0.5c-0.2-0.1-0.5-0.2-0.8-0.2c-0.3,0-0.5,0.1-0.7,0.2
			s-0.5,0.3-0.7,0.4V303.3z"/>
		<path class="st3" d="M314.9,301.2c0,0.7,0.2,1.3,0.5,1.7c0.3,0.4,0.8,0.6,1.4,0.6c0.4,0,0.7-0.1,0.9-0.3s0.4-0.4,0.6-0.6l0.6,0.4
			c-0.2,0.4-0.5,0.7-0.8,0.9c-0.3,0.2-0.8,0.4-1.3,0.4c-0.4,0-0.8-0.1-1.2-0.2c-0.3-0.1-0.6-0.3-0.9-0.6c-0.2-0.3-0.4-0.6-0.6-0.9
			s-0.2-0.8-0.2-1.3c0-0.5,0.1-0.9,0.2-1.2s0.3-0.7,0.5-0.9c0.2-0.3,0.5-0.5,0.8-0.6c0.3-0.1,0.7-0.2,1.1-0.2c0.4,0,0.8,0.1,1.1,0.2
			c0.3,0.1,0.6,0.3,0.8,0.6s0.4,0.6,0.5,0.9c0.1,0.4,0.2,0.8,0.2,1.2H314.9z M318,300.5c0-0.2-0.1-0.5-0.1-0.7
			c-0.1-0.2-0.2-0.3-0.3-0.5c-0.1-0.1-0.3-0.2-0.5-0.3c-0.2-0.1-0.4-0.1-0.5-0.1c-0.4,0-0.7,0.1-1,0.3c-0.3,0.2-0.5,0.6-0.6,1.1H318
			z"/>
		<path class="st3" d="M320.6,304.1v-5.7h0.8l0.1,0.5c0.2-0.2,0.3-0.3,0.6-0.4s0.5-0.2,0.7-0.2c0.2,0,0.3,0,0.5,0
			c0.1,0,0.3,0,0.3,0.1l-0.2,0.9c-0.2-0.1-0.5-0.1-0.8-0.1c-0.2,0-0.5,0.1-0.7,0.2c-0.2,0.1-0.4,0.3-0.5,0.4v4.5H320.6z"/>
		<path class="st3" d="M325.2,297.5c-0.2,0-0.3-0.1-0.4-0.2s-0.2-0.3-0.2-0.5c0-0.2,0.1-0.3,0.2-0.5c0.1-0.1,0.3-0.2,0.4-0.2
			s0.3,0.1,0.4,0.2c0.1,0.1,0.2,0.3,0.2,0.5c0,0.2-0.1,0.4-0.2,0.5C325.6,297.4,325.4,297.5,325.2,297.5z M324.8,304.1v-5.7h0.9v5.7
			H324.8z"/>
		<path class="st3" d="M328.3,301.2c0,0.7,0.2,1.3,0.5,1.7c0.3,0.4,0.8,0.6,1.4,0.6c0.4,0,0.7-0.1,0.9-0.3s0.4-0.4,0.6-0.6l0.6,0.4
			c-0.2,0.4-0.5,0.7-0.8,0.9c-0.3,0.2-0.8,0.4-1.3,0.4c-0.4,0-0.8-0.1-1.2-0.2c-0.3-0.1-0.6-0.3-0.9-0.6c-0.2-0.3-0.4-0.6-0.6-0.9
			s-0.2-0.8-0.2-1.3c0-0.5,0.1-0.9,0.2-1.2s0.3-0.7,0.5-0.9c0.2-0.3,0.5-0.5,0.8-0.6c0.3-0.1,0.7-0.2,1.1-0.2c0.4,0,0.8,0.1,1.1,0.2
			c0.3,0.1,0.6,0.3,0.8,0.6s0.4,0.6,0.5,0.9c0.1,0.4,0.2,0.8,0.2,1.2H328.3z M331.4,300.5c0-0.2-0.1-0.5-0.1-0.7
			c-0.1-0.2-0.2-0.3-0.3-0.5c-0.1-0.1-0.3-0.2-0.5-0.3c-0.2-0.1-0.4-0.1-0.5-0.1c-0.4,0-0.7,0.1-1,0.3c-0.3,0.2-0.5,0.6-0.6,1.1
			H331.4z"/>
		<path class="st3" d="M334.1,304.1v-5.7h0.9l0.1,0.5c0.2-0.2,0.5-0.3,0.8-0.4c0.3-0.1,0.6-0.2,1-0.2c0.8,0,1.3,0.2,1.7,0.6
			s0.5,1,0.5,1.7v3.6H338v-3.6c0-0.5-0.1-0.9-0.3-1.1c-0.2-0.3-0.6-0.4-1.1-0.4c-0.3,0-0.6,0.1-0.9,0.2c-0.3,0.1-0.5,0.3-0.8,0.4
			v4.5H334.1z"/>
		<path class="st3" d="M345.4,302.9c-0.2,0.5-0.5,0.8-0.9,1s-0.8,0.3-1.2,0.3c-0.3,0-0.7-0.1-1-0.2c-0.3-0.1-0.6-0.3-0.9-0.6
			c-0.2-0.2-0.4-0.6-0.6-0.9c-0.2-0.4-0.2-0.8-0.2-1.3c0-0.5,0.1-1,0.2-1.4c0.2-0.4,0.4-0.7,0.6-0.9s0.5-0.4,0.8-0.5
			c0.3-0.1,0.6-0.2,0.9-0.2c0.3,0,0.6,0,0.8,0.1c0.2,0.1,0.5,0.2,0.6,0.4s0.3,0.3,0.4,0.5c0.1,0.2,0.2,0.3,0.2,0.4l-0.7,0.4
			c-0.2-0.4-0.4-0.7-0.6-0.8s-0.5-0.3-0.8-0.3c-0.2,0-0.4,0-0.6,0.1c-0.2,0.1-0.4,0.2-0.5,0.4c-0.2,0.2-0.3,0.4-0.4,0.7
			c-0.1,0.3-0.1,0.6-0.1,1s0,0.7,0.1,1c0.1,0.3,0.2,0.5,0.4,0.7s0.4,0.3,0.6,0.4c0.2,0.1,0.5,0.2,0.7,0.2c0.3,0,0.5-0.1,0.8-0.2
			c0.3-0.2,0.5-0.4,0.6-0.8L345.4,302.9z"/>
		<path class="st3" d="M347.4,301.2c0,0.7,0.2,1.3,0.5,1.7c0.3,0.4,0.8,0.6,1.4,0.6c0.4,0,0.7-0.1,0.9-0.3s0.4-0.4,0.6-0.6l0.6,0.4
			c-0.2,0.4-0.5,0.7-0.8,0.9c-0.3,0.2-0.8,0.4-1.3,0.4c-0.4,0-0.8-0.1-1.2-0.2c-0.3-0.1-0.6-0.3-0.9-0.6c-0.2-0.3-0.4-0.6-0.6-0.9
			s-0.2-0.8-0.2-1.3c0-0.5,0.1-0.9,0.2-1.2s0.3-0.7,0.5-0.9c0.2-0.3,0.5-0.5,0.8-0.6c0.3-0.1,0.7-0.2,1.1-0.2c0.4,0,0.8,0.1,1.1,0.2
			c0.3,0.1,0.6,0.3,0.8,0.6s0.4,0.6,0.5,0.9c0.1,0.4,0.2,0.8,0.2,1.2H347.4z M350.5,300.5c0-0.2-0.1-0.5-0.1-0.7
			c-0.1-0.2-0.2-0.3-0.3-0.5c-0.1-0.1-0.3-0.2-0.5-0.3c-0.2-0.1-0.4-0.1-0.5-0.1c-0.4,0-0.7,0.1-1,0.3c-0.3,0.2-0.5,0.6-0.6,1.1
			H350.5z"/>
		<path class="st3" d="M355.9,304.1v-5.7h0.9l0.1,0.5c0.2-0.1,0.4-0.3,0.7-0.4c0.3-0.1,0.6-0.2,1-0.2c0.3,0,0.6,0.1,0.9,0.2
			c0.3,0.1,0.5,0.3,0.7,0.6c0.2-0.2,0.5-0.4,0.9-0.5c0.3-0.1,0.7-0.2,1.1-0.2c0.4,0,0.7,0.1,1,0.2c0.3,0.1,0.5,0.3,0.6,0.5
			s0.3,0.5,0.3,0.8s0.1,0.6,0.1,1v3.5h-0.9v-3.6c0-0.5-0.1-0.9-0.3-1.1c-0.2-0.3-0.5-0.4-1-0.4c-0.2,0-0.3,0-0.5,0.1
			c-0.2,0-0.3,0.1-0.5,0.2c-0.1,0.1-0.3,0.1-0.4,0.2c-0.1,0.1-0.2,0.1-0.3,0.2c0,0.1,0.1,0.3,0.1,0.4c0,0.1,0,0.3,0,0.6v3.5h-0.9
			v-3.6c0-0.2,0-0.4-0.1-0.6c0-0.2-0.1-0.3-0.2-0.5c-0.1-0.1-0.2-0.2-0.4-0.3c-0.2-0.1-0.3-0.1-0.6-0.1c-0.3,0-0.6,0.1-0.8,0.2
			c-0.3,0.1-0.5,0.3-0.7,0.4v4.5H355.9z"/>
		<path class="st3" d="M369.3,304.1l0-0.5c-0.2,0.2-0.4,0.4-0.7,0.5c-0.3,0.1-0.5,0.2-0.9,0.2c-0.2,0-0.5,0-0.7-0.1
			c-0.2-0.1-0.4-0.2-0.6-0.3c-0.2-0.1-0.3-0.3-0.4-0.6c-0.1-0.2-0.2-0.5-0.2-0.8c0-0.4,0.1-0.7,0.3-1c0.2-0.3,0.5-0.5,0.8-0.6
			c0.3-0.2,0.7-0.3,1.1-0.3c0.4-0.1,0.8-0.1,1.2-0.1v-0.1c0-0.5-0.1-0.8-0.3-1s-0.5-0.3-0.9-0.3c-0.3,0-0.5,0.1-0.7,0.2
			s-0.4,0.3-0.6,0.5l-0.6-0.5c0.2-0.3,0.5-0.5,0.8-0.7c0.3-0.1,0.7-0.2,1.2-0.2c0.6,0,1.1,0.2,1.5,0.5c0.4,0.3,0.5,0.9,0.5,1.6v3.7
			H369.3z M369.2,301.1c-0.3,0-0.5,0-0.8,0.1c-0.3,0-0.6,0.1-0.8,0.2s-0.5,0.2-0.6,0.4c-0.2,0.2-0.2,0.4-0.2,0.7
			c0,0.2,0,0.3,0.1,0.5s0.2,0.2,0.3,0.3c0.1,0.1,0.2,0.1,0.4,0.2c0.1,0,0.3,0.1,0.4,0.1c0.3,0,0.5-0.1,0.8-0.2
			c0.2-0.1,0.4-0.3,0.6-0.4V301.1z"/>
		<path class="st3" d="M371.5,305.6c0.1,0,0.2,0.1,0.3,0.1s0.3,0,0.4,0c0.2,0,0.3,0,0.4-0.1c0.1-0.1,0.2-0.3,0.3-0.5l0.5-1.1
			l-2.3-5.6h1.1l1.7,4.4l1.7-4.4h1l-2.9,7.2c-0.1,0.4-0.3,0.6-0.6,0.7c-0.3,0.1-0.5,0.2-0.8,0.2c-0.2,0-0.4,0-0.6-0.1
			s-0.4-0.1-0.5-0.2L371.5,305.6z"/>
		<path class="st3" d="M384.3,304.1l-0.1-0.5c-0.2,0.2-0.4,0.4-0.7,0.5s-0.5,0.1-0.8,0.1c-0.4,0-0.8-0.1-1.1-0.2
			c-0.3-0.2-0.6-0.4-0.8-0.6c-0.2-0.3-0.4-0.6-0.5-1s-0.2-0.8-0.2-1.2c0-0.4,0.1-0.7,0.2-1.1c0.1-0.4,0.3-0.7,0.5-0.9
			c0.2-0.3,0.5-0.5,0.9-0.7c0.3-0.2,0.7-0.3,1.2-0.3c0.3,0,0.5,0,0.7,0.1s0.4,0.1,0.5,0.1v-2.4h0.9v8H384.3z M384.2,299.3
			c0,0-0.1-0.1-0.2-0.1s-0.2-0.1-0.3-0.1c-0.1,0-0.2,0-0.3-0.1c-0.1,0-0.2,0-0.3,0c-0.3,0-0.6,0.1-0.9,0.2c-0.2,0.1-0.5,0.3-0.6,0.5
			s-0.3,0.5-0.4,0.7c-0.1,0.3-0.1,0.5-0.1,0.8c0,0.3,0,0.6,0.1,0.9c0.1,0.3,0.2,0.5,0.3,0.7c0.1,0.2,0.3,0.4,0.6,0.5
			c0.2,0.1,0.5,0.2,0.8,0.2c0.2,0,0.5,0,0.7-0.2c0.2-0.1,0.4-0.3,0.6-0.5V299.3z"/>
		<path class="st3" d="M387.5,297.5c-0.2,0-0.3-0.1-0.4-0.2s-0.2-0.3-0.2-0.5c0-0.2,0.1-0.3,0.2-0.5c0.1-0.1,0.3-0.2,0.4-0.2
			s0.3,0.1,0.4,0.2c0.1,0.1,0.2,0.3,0.2,0.5c0,0.2-0.1,0.4-0.2,0.5C387.8,297.4,387.7,297.5,387.5,297.5z M387.1,304.1v-5.7h0.9v5.7
			H387.1z"/>
		<path class="st3" d="M390.2,304.1v-5h-0.8v-0.8h0.9V298c0-0.4,0-0.7,0.1-0.9s0.2-0.5,0.4-0.6c0.2-0.2,0.3-0.3,0.5-0.3
			c0.2-0.1,0.4-0.1,0.7-0.1c0.3,0,0.6,0,0.8,0.1c0.2,0.1,0.4,0.1,0.6,0.2L393,297c-0.1-0.1-0.3-0.1-0.5-0.2
			c-0.2-0.1-0.4-0.1-0.6-0.1c-0.1,0-0.3,0-0.4,0c-0.1,0-0.2,0.1-0.3,0.2c-0.1,0.1-0.1,0.2-0.2,0.4c0,0.2-0.1,0.4-0.1,0.6v0.4h2.6
			V298c0-0.4,0-0.7,0.1-0.9s0.2-0.5,0.4-0.6s0.3-0.3,0.5-0.3c0.2-0.1,0.4-0.1,0.7-0.1c0.3,0,0.6,0,0.8,0.1c0.2,0.1,0.4,0.1,0.6,0.2
			l-0.3,0.7c-0.1-0.1-0.3-0.1-0.5-0.2c-0.2-0.1-0.3-0.1-0.6-0.1c-0.1,0-0.3,0-0.4,0c-0.1,0-0.2,0.1-0.3,0.2s-0.1,0.2-0.2,0.4
			s-0.1,0.4-0.1,0.6v0.4h1.4v0.8h-1.4v5h-0.9v-5h-2.6v5H390.2z"/>
		<path class="st3" d="M397.7,301.2c0,0.7,0.2,1.3,0.5,1.7c0.3,0.4,0.8,0.6,1.4,0.6c0.4,0,0.7-0.1,0.9-0.3s0.4-0.4,0.6-0.6l0.6,0.4
			c-0.2,0.4-0.5,0.7-0.8,0.9c-0.3,0.2-0.8,0.4-1.3,0.4c-0.4,0-0.8-0.1-1.2-0.2c-0.3-0.1-0.6-0.3-0.9-0.6c-0.2-0.3-0.4-0.6-0.6-0.9
			s-0.2-0.8-0.2-1.3c0-0.5,0.1-0.9,0.2-1.2s0.3-0.7,0.5-0.9c0.2-0.3,0.5-0.5,0.8-0.6c0.3-0.1,0.7-0.2,1.1-0.2c0.4,0,0.8,0.1,1.1,0.2
			c0.3,0.1,0.6,0.3,0.8,0.6s0.4,0.6,0.5,0.9c0.1,0.4,0.2,0.8,0.2,1.2H397.7z M400.9,300.5c0-0.2-0.1-0.5-0.1-0.7
			c-0.1-0.2-0.2-0.3-0.3-0.5c-0.1-0.1-0.3-0.2-0.5-0.3c-0.2-0.1-0.4-0.1-0.5-0.1c-0.4,0-0.7,0.1-1,0.3c-0.3,0.2-0.5,0.6-0.6,1.1
			H400.9z"/>
		<path class="st3" d="M403.5,304.1v-5.7h0.8l0.1,0.5c0.2-0.2,0.3-0.3,0.6-0.4s0.5-0.2,0.7-0.2c0.2,0,0.3,0,0.5,0
			c0.1,0,0.3,0,0.3,0.1l-0.2,0.9c-0.2-0.1-0.5-0.1-0.8-0.1c-0.2,0-0.5,0.1-0.7,0.2c-0.2,0.1-0.4,0.3-0.5,0.4v4.5H403.5z"/>
		<path class="st3" d="M408,304.3c-0.2,0-0.3-0.1-0.5-0.2s-0.2-0.3-0.2-0.5s0.1-0.4,0.2-0.5c0.1-0.1,0.3-0.2,0.5-0.2
			c0.2,0,0.3,0.1,0.5,0.2c0.1,0.1,0.2,0.3,0.2,0.5s-0.1,0.4-0.2,0.5C408.4,304.2,408.2,304.3,408,304.3z"/>
	</g>
	<g>
		<polyline class="st5" points="259.4,25.3 262.5,28.5 265.7,25.3 		"/>
		<line class="st5" x1="262.5" y1="28.1" x2="262.5" y2="15.9"/>
	</g>
</g>
</svg>
