<svg id="Alacra_Surveillance" xmlns="http://www.w3.org/2000/svg" viewBox="0 0 50 50"><style>.st0{fill:#496885}</style><path class="st0" d="M37.6 12.4l-2.5 2.5c3.8 3.8 5.5 9.8 3 16-1.4 3.4-4.1 6.1-7.5 7.4-10.2 3.8-19.9-3.6-19.9-13.3 0-7.3 5.4-13.3 12.5-14.2v3.6c-6.5 1.1-10.9 7.9-8 15 1 2.3 2.8 4.2 5.1 5.2 7.8 3.4 15.4-2.3 15.4-9.7 0-3-1.2-5.6-3.1-7.6l-2.5 2.5c2.1 2.1 2.9 5.6 1 9-.6 1-1.4 1.8-2.4 2.3-5.5 2.9-10.8-1-10.8-6.1 0-3.3 2.3-6.1 5.4-6.9v3.8c-1.5.9-2.3 2.8-1.4 4.8.2.5.7 1 1.2 1.3 2.7 1.6 5.6-.4 5.6-3 0-1.3-.7-2.5-1.8-3.1V7.1h-2.2C17.5 7.1 11 11.4 8.5 18c-5.8 15 8.1 29.1 23.1 23.7 4.8-1.7 8.6-5.6 10.3-10.5 2.4-7.3.3-14.3-4.3-18.8z"/></svg>