<?xml version="1.0" encoding="utf-8"?>
<!-- Generator: Adobe Illustrator 20.0.0, SVG Export Plug-In . SVG Version: 6.00 Build 0)  -->
<svg version="1.1" id="Alacra_Compliance_Enterprise"
	 xmlns="http://www.w3.org/2000/svg" xmlns:xlink="http://www.w3.org/1999/xlink" x="0px" y="0px" viewBox="0 0 50 50"
	 style="enable-background:new 0 0 50 50;" xml:space="preserve">
<style type="text/css">
	.st0{fill:#496885;}
</style>
<path class="st0" d="M15.4,25.1h21.8v2.3H15.4V25.1z M15.4,33.2h21.8v-2.3H15.4V33.2z M15.4,39h21.8v-2.3H15.4V39z M42,14.6v30.6
	H10.7V20.8l2.3,0.6V43h26.7V16.5h-10V7h-7.3l-1.8-2.3h11.2L42,14.6z M32,14.2h6.3L32,8.1V14.2z M37.2,19.2H21.5l-3.1,2.2
	c0,0,0,0.1,0,0.1c3.5,0,18.8,0,18.8,0V19.2z M21.1,13.9c0.1,0.1,0.2,0.3,0.1,0.4l-1.4,2.3c-0.1,0.1-0.3,0.2-0.4,0.1l-1.7-0.7
	c-0.4,0.3-0.7,0.5-1.1,0.7l-0.3,1.8c0,0.2-0.2,0.3-0.3,0.3h-2.7c-0.2,0-0.3-0.1-0.3-0.3l-0.3-1.8c-0.4-0.2-0.8-0.4-1.1-0.7l-1.7,0.7
	c-0.1,0.1-0.3,0-0.4-0.1l-1.4-2.3C8,14.2,8,14,8.1,13.9l1.4-1.1c0-0.2,0-0.4,0-0.7s0-0.4,0-0.7l-1.4-1.1C8,10.2,8,10,8.1,9.9
	l1.4-2.3c0.1-0.1,0.3-0.2,0.4-0.1l1.7,0.7c0.4-0.3,0.7-0.5,1.1-0.7l0.3-1.8c0-0.2,0.2-0.3,0.3-0.3H16c0.2,0,0.3,0.1,0.3,0.3l0.3,1.8
	c0.4,0.2,0.8,0.4,1.1,0.7l1.7-0.7c0.1-0.1,0.3,0,0.4,0.1l1.4,2.3c0.1,0.1,0,0.3-0.1,0.4l-1.4,1.1c0,0.2,0,0.4,0,0.7
	c0,0.2,0,0.4,0,0.7L21.1,13.9z M17,12.1c0-1.3-1.1-2.4-2.4-2.4s-2.4,1.1-2.4,2.4s1.1,2.4,2.4,2.4S17,13.4,17,12.1z"/>
</svg>
