<?xml version="1.0" encoding="utf-8"?>
<!-- Generator: Adobe Illustrator 20.0.0, SVG Export Plug-In . SVG Version: 6.00 Build 0)  -->
<svg version="1.1" id="RD_Legal_Entity_Directory" xmlns="http://www.w3.org/2000/svg" xmlns:xlink="http://www.w3.org/1999/xlink"
	 x="0px" y="0px" viewBox="0 0 50 50" style="enable-background:new 0 0 50 50;" xml:space="preserve">
<style type="text/css">
	.st0{fill:#496885;}
</style>
<g>
	<ellipse class="st0" cx="25" cy="12.9" rx="17.2" ry="6.6"/>
	<path class="st0" d="M25.1,21.7c-8.5,0-15.6-2.3-17.2-5.4c0,1.6,0,4.5,0,4.9c0.8,3.4,8.2,6.1,17.2,6.1c8.5,0,15.6-2.4,17-5.4
		c0-0.5,0-3.8,0-5.2C40.2,19.6,33.3,21.7,25.1,21.7z"/>
	<path class="st0" d="M25.1,29.5c-8.2,0-15.1-2.1-17.2-5c0,1.5,0,4,0,4.4c0.9,3.5,8.2,6.2,17.2,6.2c8.5,0,15.6-2.4,17-5.6
		c0-0.4,0-3.2,0-4.7C39.9,27.5,33.1,29.5,25.1,29.5z"/>
	<path class="st0" d="M25.1,37.3c-8.3,0-15.2-2.2-17.2-5.1c0,1-0.1,4.3,0,4.5c0.8,3.9,8.2,7,17.2,7c8.5,0,15.6-2.7,17-6.3
		c0-0.5,0-4.8,0-4.9C39.9,35.3,33.2,37.3,25.1,37.3z"/>
</g>
</svg>
