<svg id="Hiperos_3PM" xmlns="http://www.w3.org/2000/svg" viewBox="0 0 50 50"><style>.st0{fill:#496885}</style><path class="st0" d="M50 28.8H36.9l-.1-.1c-1-.9-3.4-2.4-5.2-3.4 1.3-1.1 5.5-3.4 5.5-3.4s.1-.6.2-.9c.1-.2.4-.5.4-.5v-.9c-.1-.1-.5-.7-.6-.9-.1-.3-.3-1.3-.4-1.3-.1 0-.1.1-.4.1-.1 0-.2-.2-.3-.3v-.4c0-.2-.4-1-.4-1.2-.1-.2-.3-.4-.3-.5 0-.1-.2-.8.1-1 .3-.1.6.1.7.1.1 0-.1-.9-.1-1.1 0-.1-.2-.9-.2-1.6 0-.7.2-1.8 1.2-2.7.6-.6 1-.8 1.3-.9.1 0 .8-.4.9-.7.2.1.6 0 .7-.2.3.2.4 0 .4 0 .5.2.4 0 .8.2.2.2 1.1.7 1.2.7.2.1.5.3 1.2.9 1 .9 1.2 2.2 1.2 2.9 0 .7-.2 1.4-.2 1.6 0 .1-.1.8 0 .9.1 0 .5-.2.7-.1.3.1.1.8.1 1 0 .1-.2.3-.3.5 0 .1-.4 1-.4 1.2v.4c0 .2-.1.3-.3.3-.3 0-.3-.1-.4-.1-.1 0-.3 1-.4 1.3-.1.3-.5.8-.6.9v.9s.3.2.4.5c.1.3.2.8.2.8s4.4 2.4 5.6 3.5c.4.5.6 1.3.9 3.5zm-36.8-.2c1-.9 3.4-2.4 5.2-3.4-1.3-1.1-5.5-3.4-5.5-3.4s-.1-.6-.2-.8c-.1-.2-.4-.5-.4-.5v-.9c.1-.1.5-.7.6-.9.1-.3.3-1.3.4-1.3.1 0 .1.1.4.1.1 0 .2-.2.3-.3v-.4c0-.2.4-1 .4-1.2.1-.2.3-.4.3-.5 0-.1.2-.8-.1-1-.3-.1-.6.1-.7.1-.1 0 0-.7 0-.9 0-.2.2-.9.2-1.6 0-.7-.2-2-1.2-2.9-.6-.6-.9-.8-1.1-.9-.1-.1-1-.5-1.2-.7-.4-.1-.4 0-.8-.2 0 0-.1.2-.4 0-.1.1-.5.2-.7.2 0 .3-.8.6-.9.7-.2.1-.6.3-1.2.9-1 .9-1.1 2-1.2 2.7 0 .7.2 1.5.2 1.6 0 .1.2 1 .1 1.1-.1 0-.5-.2-.7-.1-.3.1-.1.9-.1 1 0 .1.2.3.3.5 0 .1.4 1 .4 1.2v.4c0 .2.1.3.3.3.3 0 .3-.1.4-.1.1 0 .3 1 .4 1.3.1.3.5.8.6.9v.9s-.3.2-.4.5c-.1.2-.2.9-.2.9S2.2 24.2 1 25.3c-.5.5-.7 1.2-1 3.4h13.1s.1 0 .1-.1zm5.1 1.5v-1.3l1.2.6c.3.1.6.2 1.1.2 1.4 0 3.2-.8 4-1.6l.6-.6.6.6c.8.8 2.5 1.7 3.9 1.7.4 0 .8-.1 1.1-.2l1.2-.7v5.1h5.4c-.4-2.9-.7-3.8-1.4-4.5-1.5-1.4-7-4.4-7-4.4s-.1-.7-.7-.8c-.1-.2-.1-.4-.1-.4v-1.1l.2-.2c.5-.1 1.1-.3 1.4-.6.3-.3 2-2.3 2-4.5 0-2.1-1-4.1-1.2-5.3s-.9-3.3-2.1-3.7c-1.1-.4-1.7 0-1.7 0s-.5-1-2.4-1c-2 0-3.5 1.6-4.2 2.7-.5.8-2.2 3.7-2.2 6.6 0 2.9 2.2 6.4 2.8 6.4.4 0 .6-.3 1-.4l.1.1v1.1s0 .2-.1.4c-.7-.1-.8.7-.8.7s-5.5 3.1-7 4.4c-.7.6-.9 1.6-1.3 4.3h5.7v-3.6zm12.9 0v5c0 3.7-2.6 6.8-6 8-3.4-1.3-6-4.3-6-8v-5c1.8.9 4.9-.4 6-1.6 1.1 1.2 4.1 2.6 6 1.6zm-2.1 3.7l-.9-.9-4.4 4.4-1.7-1.7-.9.9 2.6 2.6.9-.9 4.4-4.4z"/></svg>