<?xml version="1.0" encoding="utf-8"?>
<!-- Generator: Adobe Illustrator 20.0.0, SVG Export Plug-In . SVG Version: 6.00 Build 0)  -->
<svg version="1.1" id="RD_Concordance_Service" xmlns="http://www.w3.org/2000/svg" xmlns:xlink="http://www.w3.org/1999/xlink"
	 x="0px" y="0px" viewBox="0 0 50 50" style="enable-background:new 0 0 50 50;" xml:space="preserve">
<style type="text/css">
	.st0{fill:#496885;}
</style>
<path class="st0" d="M36.8,36.8c1.2-1.2,1.4-3.1,0.4-4.5l4.4-4.4c1.4,0.9,3.3,0.8,4.5-0.4c1.4-1.4,1.4-3.6,0-5
	C45,21.2,43,21.1,41.7,22l-4.4-4.4c0.9-1.4,0.8-3.3-0.4-4.5c-1.2-1.2-3.1-1.4-4.5-0.4L28,8.3c0.9-1.4,0.8-3.3-0.4-4.5
	c-1.4-1.4-3.6-1.4-5,0c-1.2,1.2-1.4,3.1-0.4,4.5l-4.4,4.4c-1.4-0.9-3.3-0.8-4.5,0.4s-1.4,3.1-0.4,4.5l-4.4,4.4
	c-1.4-0.9-3.3-0.8-4.5,0.4c-1.4,1.4-1.4,3.6,0,5c1.2,1.2,3.1,1.4,4.5,0.4l4.4,4.4c-0.9,1.4-0.8,3.3,0.4,4.5s3.1,1.4,4.5,0.4l4.4,4.4
	c-0.9,1.4-0.8,3.3,0.4,4.5c1.4,1.4,3.6,1.4,5,0c1.2-1.2,1.4-3.1,0.4-4.5l4.4-4.4C33.7,38.2,35.6,38.1,36.8,36.8z M23,40.7l-4.4-4.4
	c0.8-1.2,0.8-2.8,0-4l4.4-4.4c1.2,0.8,2.8,0.8,4,0l4.4,4.4c-0.8,1.2-0.8,2.8,0,4L27,40.7C25.8,39.9,24.2,39.9,23,40.7z M13.6,31.4
	L9.3,27c0.8-1.2,0.8-2.8,0-4l4.4-4.4c1.2,0.8,2.8,0.8,4,0l4.4,4.4c-0.8,1.2-0.8,2.8,0,4l-4.4,4.4C16.5,30.6,14.9,30.6,13.6,31.4z
	 M27,9.3l4.4,4.4c-0.8,1.2-0.8,2.8,0,4L27,22.1c-1.2-0.8-2.8-0.8-4,0l-4.4-4.4c0.8-1.2,0.8-2.8,0-4L23,9.3
	C24.2,10.1,25.8,10.1,27,9.3z M36.3,18.6l4.4,4.4c-0.8,1.2-0.8,2.8,0,4l-4.4,4.4c-1.2-0.8-2.8-0.8-4,0L27.9,27c0.8-1.2,0.8-2.8,0-4
	l4.4-4.4C33.5,19.4,35.1,19.4,36.3,18.6z"/>
</svg>
