<?xml version="1.0" encoding="utf-8"?>
<!-- Generator: Adobe Illustrator 20.0.0, SVG Export Plug-In . SVG Version: 6.00 Build 0)  -->
<svg version="1.1" id="RD_Opus_Authority_File" xmlns="http://www.w3.org/2000/svg" xmlns:xlink="http://www.w3.org/1999/xlink"
	 x="0px" y="0px" viewBox="0 0 50 50" style="enable-background:new 0 0 50 50;" xml:space="preserve">
<style type="text/css">
	.st0{fill:#496885;}
</style>
<g>
	<g>
		<path class="st0" d="M31.4,31.7c0.8,0,1.5-0.1,2.2-0.1C32.9,31.6,32.2,31.7,31.4,31.7z"/>
		<path class="st0" d="M27.5,31.6c-0.7,0-1.3-0.1-2-0.2C26.2,31.5,26.8,31.6,27.5,31.6z"/>
		<path class="st0" d="M27.5,31.6c0.9,0.1,1.8,0.1,2.8,0.1c0.4,0,0.8,0,1.2,0c-0.4,0-0.8,0-1.2,0C29.3,31.7,28.4,31.7,27.5,31.6z"/>
	</g>
	<g>
		<g>
			<ellipse class="st0" cx="30.2" cy="19.6" rx="14.4" ry="5.5"/>
			<path class="st0" d="M19.5,14.4c2.9-1.1,6.6-1.7,10.6-1.7c0.8,0,1.5,0,2.2,0.1c1.2-0.8,1.8-1.7,1.8-2.7c0-3-6.4-5.5-14.4-5.5
				S5.4,7.1,5.4,10.1c0,2.7,5.1,5,11.8,5.4C17.9,15.1,18.7,14.8,19.5,14.4z"/>
		</g>
		<g>
			<path class="st0" d="M30.3,27c-7.1,0-13-1.9-14.4-4.5c0,1.3,0,3.8,0,4.1c0.6,2.8,6.9,5.1,14.4,5.1c7.1,0,13-2,14.3-4.6
				c0-0.4,0-3.2,0-4.3C42.8,25.2,37.1,27,30.3,27z"/>
			<path class="st0" d="M14.5,19.6c0-0.8,0.2-1.6,0.8-2.3c-4.9-0.6-8.7-2.2-9.8-4.2c0,1.3,0,3.8,0,4.1c0.5,2.1,4.1,3.9,9,4.7
				C14.5,21.8,14.5,19.8,14.5,19.6z"/>
		</g>
		<g>
			<path class="st0" d="M30.3,33.5c-6.9,0-12.7-1.8-14.4-4.2c0,1.3,0,3.3,0,3.7c0.7,2.9,6.9,5.2,14.4,5.2c7.1,0,13-2,14.3-4.7
				c0-0.3,0-2.7,0-3.9C42.6,31.8,36.9,33.5,30.3,33.5z"/>
			<path class="st0" d="M14.5,23.6c-4.4-0.7-7.8-2.1-9-3.8c0,1.3,0,3.3,0,3.7c0.5,2.2,4.1,4,9,4.7V23.6z"/>
		</g>
		<g>
			<path class="st0" d="M30.3,40c-6.9,0-12.7-1.8-14.4-4.2c0,0.9,0,3.6,0,3.8c0.7,3.3,6.9,5.8,14.4,5.8c7.1,0,13-2.3,14.3-5.3
				c0-0.4,0-4,0-4.1C42.7,38.4,37,40,30.3,40z"/>
			<path class="st0" d="M14.5,30.2c-4.4-0.7-7.8-2.1-9-3.9c0,0.9,0,3.6,0,3.8c0.5,2.4,4.1,4.5,9,5.4V30.2z"/>
		</g>
	</g>
</g>
</svg>
