<?xml version="1.0" encoding="utf-8"?>
<!-- Generator: Adobe Illustrator 20.0.0, SVG Export Plug-In . SVG Version: 6.00 Build 0)  -->
<svg version="1.1" id="Hiperos_Network" xmlns="http://www.w3.org/2000/svg" xmlns:xlink="http://www.w3.org/1999/xlink" x="0px"
	 y="0px" viewBox="0 0 50 50" style="enable-background:new 0 0 50 50;" xml:space="preserve">
<style type="text/css">
	.st0{fill:#496885;}
</style>
<path class="st0" d="M13.8,26.9c-1,0-1.9,0.8-1.9,1.9c0,1,0.8,1.9,1.9,1.9s1.9-0.8,1.9-1.9C15.7,27.7,14.8,26.9,13.8,26.9z
	 M13.8,34.3c-1,0-1.9,0.8-1.9,1.9c0,1,0.8,1.9,1.9,1.9s1.9-0.8,1.9-1.9C15.7,35.2,14.8,34.3,13.8,34.3z M13.8,19.4
	c-1,0-1.9,0.8-1.9,1.9s0.8,1.9,1.9,1.9s1.9-0.8,1.9-1.9S14.8,19.4,13.8,19.4z M8.2,20.3c-0.5,0-0.9,0.4-0.9,0.9s0.4,0.9,0.9,0.9
	s0.9-0.4,0.9-0.9S8.7,20.3,8.2,20.3z M13.8,12c-1,0-1.9,0.8-1.9,1.9s0.8,1.9,1.9,1.9s1.9-0.8,1.9-1.9S14.8,12,13.8,12z M41.8,22.2
	c0.5,0,0.9-0.4,0.9-0.9s-0.4-0.9-0.9-0.9c-0.5,0-0.9,0.4-0.9,0.9S41.2,22.2,41.8,22.2z M28.7,15.7c1,0,1.9-0.8,1.9-1.9
	S29.8,12,28.7,12s-1.9,0.8-1.9,1.9S27.7,15.7,28.7,15.7z M28.7,9.2c0.5,0,0.9-0.4,0.9-0.9s-0.4-0.9-0.9-0.9c-0.5,0-0.9,0.4-0.9,0.9
	S28.2,9.2,28.7,9.2z M8.2,27.8c-0.5,0-0.9,0.4-0.9,0.9c0,0.5,0.4,0.9,0.9,0.9s0.9-0.4,0.9-0.9C9.2,28.2,8.7,27.8,8.2,27.8z
	 M21.3,40.8c-0.5,0-0.9,0.4-0.9,0.9c0,0.5,0.4,0.9,0.9,0.9c0.5,0,0.9-0.4,0.9-0.9C22.2,41.2,21.8,40.8,21.3,40.8z M21.3,9.2
	c0.5,0,0.9-0.4,0.9-0.9s-0.4-0.9-0.9-0.9c-0.5,0-0.9,0.4-0.9,0.9S20.8,9.2,21.3,9.2z M21.3,15.7c1,0,1.9-0.8,1.9-1.9
	S22.3,12,21.3,12s-1.9,0.8-1.9,1.9S20.2,15.7,21.3,15.7z M21.3,25.9c-1.5,0-2.8,1.2-2.8,2.8c0,1.5,1.2,2.8,2.8,2.8
	c1.5,0,2.8-1.2,2.8-2.8C24.1,27.2,22.8,25.9,21.3,25.9z M36.2,26.9c-1,0-1.9,0.8-1.9,1.9c0,1,0.8,1.9,1.9,1.9c1,0,1.9-0.8,1.9-1.9
	C38,27.7,37.2,26.9,36.2,26.9z M36.2,34.3c-1,0-1.9,0.8-1.9,1.9c0,1,0.8,1.9,1.9,1.9c1,0,1.9-0.8,1.9-1.9
	C38,35.2,37.2,34.3,36.2,34.3z M36.2,19.4c-1,0-1.9,0.8-1.9,1.9s0.8,1.9,1.9,1.9c1,0,1.9-0.8,1.9-1.9S37.2,19.4,36.2,19.4z M36.2,12
	c-1,0-1.9,0.8-1.9,1.9s0.8,1.9,1.9,1.9c1,0,1.9-0.8,1.9-1.9S37.2,12,36.2,12z M41.8,27.8c-0.5,0-0.9,0.4-0.9,0.9
	c0,0.5,0.4,0.9,0.9,0.9c0.5,0,0.9-0.4,0.9-0.9C42.7,28.2,42.3,27.8,41.8,27.8z M28.7,34.3c-1,0-1.9,0.8-1.9,1.9c0,1,0.8,1.9,1.9,1.9
	s1.9-0.8,1.9-1.9C30.6,35.2,29.8,34.3,28.7,34.3z M28.7,40.8c-0.5,0-0.9,0.4-0.9,0.9c0,0.5,0.4,0.9,0.9,0.9c0.5,0,0.9-0.4,0.9-0.9
	C29.7,41.2,29.2,40.8,28.7,40.8z M21.3,18.5c-1.5,0-2.8,1.2-2.8,2.8c0,1.5,1.2,2.8,2.8,2.8c1.5,0,2.8-1.2,2.8-2.8
	C24.1,19.7,22.8,18.5,21.3,18.5z M21.3,34.3c-1,0-1.9,0.8-1.9,1.9c0,1,0.8,1.9,1.9,1.9s1.9-0.8,1.9-1.9
	C23.1,35.2,22.3,34.3,21.3,34.3z M28.7,25.9c-1.5,0-2.8,1.2-2.8,2.8c0,1.5,1.2,2.8,2.8,2.8c1.5,0,2.8-1.2,2.8-2.8
	C31.5,27.2,30.3,25.9,28.7,25.9z M28.7,18.5c-1.5,0-2.8,1.2-2.8,2.8c0,1.5,1.2,2.8,2.8,2.8c1.5,0,2.8-1.2,2.8-2.8
	C31.5,19.7,30.3,18.5,28.7,18.5z"/>
</svg>
