<svg xmlns="http://www.w3.org/2000/svg" viewBox="0 0 500 500"><path d="M382.7 384.2c13.5-13.5 15.8-35 4.5-50.8l49.7-49.7c15.8 10.2 37.2 9 50.8-4.5 15.8-15.8 15.8-40.6 0-56.4-12.4-14.7-35-15.8-49.7-5.6l-49.7-49.7c10.2-15.8 9-37.2-4.5-50.8-13.5-13.5-35-15.8-50.8-4.5l-49.7-49.7c10.2-15.8 9-37.2-4.5-50.8-15.8-15.8-40.6-15.8-56.4 0-13.5 13.5-15.8 35-4.5 50.8l-49.7 49.7c-15.8-10.2-37.2-9-50.8 4.5s-15.8 35-4.5 50.8l-49.7 49.7c-15.8-10.2-37.2-9-50.8 4.5-15.8 15.8-15.8 40.6 0 56.4 13.5 13.5 35 15.8 50.8 4.5l49.7 49.7c-10.2 15.8-9 37.2 4.5 50.8 13.5 13.5 35 15.8 50.8 4.5l49.7 49.7c-10.2 15.8-9 37.2 4.5 50.8 15.8 15.8 40.6 15.8 56.4 0 13.5-13.5 15.8-35 4.5-50.8l49.7-49.7c14.7 12.4 36.1 11.3 49.7-3.4zm-155.8 44l-49.7-49.7c9-13.5 9-31.6 0-45.1l49.7-49.7c13.5 9 31.6 9 45.1 0l49.7 49.7c-9 13.5-9 31.6 0 45.1L272 428.2c-13.5-9-31.5-9-45.1 0zM120.8 323.3l-48.5-49.7c9-13.5 9-31.6 0-45.1l49.7-49.7c13.5 9 31.6 9 45.1 0l49.7 49.7c-9 13.5-9 31.6 0 45.1l-49.7 49.7c-13.6-9.1-31.6-9.1-46.3 0zM272.1 73.8l49.7 49.7c-9 13.5-9 31.6 0 45.1l-49.7 49.7c-13.5-9-31.6-9-45.1 0l-49.7-49.7c9-13.5 9-31.6 0-45.1L227 73.8c13.5 9.1 31.5 9.1 45.1 0zm104.9 105l49.7 49.7c-9 13.5-9 31.6 0 45.1L377 323.3c-13.5-9-31.6-9-45.1 0l-49.7-49.7c9-13.5 9-31.6 0-45.1l49.7-49.7c13.5 9 31.6 9 45.1 0z"/></svg>