<svg xmlns="http://www.w3.org/2000/svg" viewBox="0 0 500 500"><path d="M222.5 285l72.5-37.5-72.5-37.5z"/><path d="M250 0C112.5 0 0 112.5 0 250s112.5 250 250 250 250-112.5 250-250S387.5 0 250 0zm133.8 260c0 21.2-2.5 43.8-2.5 43.8s-2.5 18.8-11.2 26.2c-10 11.2-21.2 11.2-26.2 11.2-37.5 2.5-93.8 2.5-93.8 2.5s-70-1.2-91.2-2.5c-6.2-1.2-18.8-1.2-30-11.2-7.5-7.5-11.2-26.2-11.2-26.2S115 282.5 115 260v-20c0-21.3 2.5-43.8 2.5-43.8s2.5-18.8 11.2-26.2c10-11.2 21.2-11.2 26.3-11.2 37.5-2.5 93.8-2.5 93.8-2.5s56.2 0 93.8 2.5c5 1.2 16.2 1.2 26.2 11.2 7.5 7.5 11.2 26.2 11.2 26.2s2.5 21.3 2.5 43.8v20h1.3z"/></svg>