<svg xmlns="http://www.w3.org/2000/svg" viewBox="0 0 500 500"><path d="M250 0C112.5 0 0 112.5 0 250s112.5 250 250 250 250-112.5 250-250S387.5 0 250 0zm108.8 193.8v7.5C358.8 275 302.5 360 200 360c-31.2 0-61.2-8.8-86.2-25 5 0 8.7 1.2 13.8 1.2 26.3 0 50-8.8 70-23.8-25 0-45-16.2-52.5-38.8 3.8 1.2 7.5 1.2 10 1.2 5 0 10-1.2 15-2.5-25-5-45-27.5-45-55V216c7.5 3.8 16.3 6.2 25 7.5-15-10-25-27.5-25-46.2 0-10 2.5-20 7.5-28.8 27.5 33.8 68.8 56.2 115 58.7-1.2-3.8-1.2-8.8-1.2-12.5 0-31.2 25-56.2 56.2-56.2 16.2 0 31.2 6.2 41.2 17.5 12.5-2.5 25-7.5 35-13.8-3.7 12.5-12.5 23.8-25 31.2 11.2-1.2 22.5-3.8 32.5-8.8-7.5 11.6-16.3 21.6-27.5 29.2z"/></svg>