<svg xmlns="http://www.w3.org/2000/svg" viewBox="0 0 500 500"><path d="M266.4 346.4c0-21.2 17.3-48.2 26.1-58.4 8.8-10.2 14.6-23.5 14.6-38.1 0-13.7-4.9-26.5-12.8-36.3-.4-.4-.9-1.3-1.8-1.8-11.9-13.3-26.1-33.2-26.1-58.4 0-21.2 17.3-48.2 26.1-58.4 8.8-10.2 14.6-23.5 14.6-38.1 0-31.4-25.2-57.1-56.6-57.1-31.4 0-56.6 25.7-56.6 57.1 0 14.6 5.3 27.9 14.6 38.1 8.8 10.2 26.1 37.2 26.1 58.4 0 24.8-13.7 45.1-26.1 58.4-.4.4-.9.9-.9 1.3-8.4 9.7-13.7 22.6-13.7 36.7 0 14.6 5.3 27.9 14.6 38.1 8.8 10.2 26.1 37.2 26.1 58.4 0 24.8-13.7 45.1-26.1 58.4-8.8 10.2-14.6 23.5-14.6 38.1 0 31.4 25.2 57.1 56.6 57.1 31.4 0 56.6-25.7 56.6-57.1 0-14.6-5.8-27.9-14.6-38.1-12-12.8-26.1-33.1-26.1-58.3zM386.3 250.3c0-21.2 17.3-48.2 26.1-58.4 8.8-10.2 14.6-23.5 14.6-38.1 0-31.4-25.2-57.1-56.6-57.1-31.4 0-56.6 25.7-56.6 57.1 0 14.6 5.3 27.9 14.6 38.1 8.8 10.2 26.1 37.2 26.1 58.4 0 24.8-13.7 45.1-26.1 58.4-8.8 10.2-14.6 23.5-14.6 38.1 0 31.4 25.2 57.1 56.6 57.1 31.4 0 56.6-25.7 56.6-57.1 0-14.6-5.8-27.9-14.6-38.1-12-13.2-26.1-33.6-26.1-58.4zM146.5 250.3c0-21.2 17.3-48.2 26.1-58.4 8.8-10.2 14.6-23.5 14.6-38.1 0-31.4-25.2-57.1-56.6-57.1-32.4.5-57.6 26.2-57.6 57.6 0 14.6 5.3 27.9 14.6 38.1 8.8 10.2 26.1 37.2 26.1 58.4 0 24.8-13.7 45.1-26.1 58.4-8.8 10.2-14.6 23.4-14.6 38 0 31.4 25.2 57.1 56.6 57.1 31.4 0 56.6-25.7 56.6-57.1 0-14.6-5.8-27.9-14.6-38.1-11.4-13.6-25.1-34-25.1-58.8z"/></svg>