<svg xmlns="http://www.w3.org/2000/svg" viewBox="0 0 500 500"><path d="M131.3 251.8h269.1v28.4H131.3v-28.4zm0 100h269.1v-28.4H131.3v28.4zm0 71.6h269.1V395H131.3v28.4zm328.4-301.2V500H73.3V198.7l28.4 7.4v266.7h329.6V145.6H307.9V28.3h-90.1L195.5 0h138.3l125.9 122.2zm-123.4-5h77.8l-77.8-75.3v75.3zm64.2 61.8H206.6l-38.3 27.2v1.2h232.1l.1-28.4zm-198.8-65.5c1.2 1.2 2.5 3.7 1.2 4.9l-17.3 28.4c-1.2 1.2-3.7 2.5-4.9 1.2l-21-8.6c-4.9 3.7-8.6 6.2-13.6 8.6l-3.7 22.2c0 2.5-2.5 3.7-3.7 3.7h-33.3c-2.5 0-3.7-1.2-3.7-3.7L98 148.1c-4.9-2.5-9.9-4.9-13.6-8.6l-21 8.6c-1.2 1.2-3.7 0-4.9-1.2l-17.3-28.4c-1.2-1.2-1.2-3.7 0-4.9L58.5 100v-8.6-8.6L41.2 69.1c-1.2-1.2-1.2-3.7 0-4.9l17.3-28.4c1.2-1.2 3.7-2.5 4.9-1.2l21 8.6C89.3 39.5 93 37 98 34.6l3.7-22.2c0-2.5 2.5-3.7 3.7-3.7h33.3c2.5 0 3.7 1.2 3.7 3.7l3.7 22.2c4.9 2.5 9.9 4.9 13.6 8.6l21-8.6c1.2-1.2 3.7 0 4.9 1.2l17.3 28.4c1.2 1.2 0 3.7-1.2 4.9l-17.3 13.6v17.2l17.3 13.6zm-50.6-22.2c0-16-13.6-29.6-29.6-29.6S91.8 75.3 91.8 91.3s13.6 29.6 29.6 29.6 29.7-13.5 29.7-29.6z"/></svg>