<svg xmlns="http://www.w3.org/2000/svg" viewBox="0 0 500 500"><ellipse cx="250" cy="88.2" rx="229.9" ry="88.2"/><path d="M251.3 205.9c-113.6 0-208.6-30.7-229.9-72.2v65.5c10.7 45.5 109.6 81.6 229.9 81.6 113.6 0 208.6-32.1 227.3-72.2v-69.5c-25.4 38.7-117.6 66.8-227.3 66.8z"/><path d="M251.3 310.2c-109.6 0-201.9-28.1-229.9-66.8v58.8C33.4 348.9 131 385 251.3 385c113.6 0 208.6-32.1 227.3-74.9v-62.8c-29.4 36.1-120.3 62.9-227.3 62.9z"/><path d="M251.3 414.4c-111 0-203.2-29.4-229.9-68.2 0 13.4-1.3 57.5 0 60.2C32.1 458.6 131 500 251.3 500c113.6 0 208.6-36.1 227.3-84.2v-65.5c-29.4 37.4-119 64.1-227.3 64.1z"/></svg>