<svg xmlns="http://www.w3.org/2000/svg" viewBox="0 0 500 500"><path d="M328.4 332.1c9.8 0 18.4-1.2 27-1.2-8.6 0-17.2 1.2-27 1.2zM280.6 330.9c-8.6 0-15.9-1.2-24.5-2.5 8.6 1.3 16 2.5 24.5 2.5z"/><path d="M280.6 330.9c11 1.2 22.1 1.2 34.3 1.2h14.7-14.7c-12.2 0-23.2 0-34.3-1.2z"/><g><ellipse cx="313.7" cy="183.8" rx="176.5" ry="67.4"/><path d="M182.6 120.1c35.5-13.5 80.9-20.8 129.9-20.8 9.8 0 18.4 0 27 1.2 14.7-9.8 22.1-20.8 22.1-33.1C361.5 30.6 283.1 0 185 0S9.8 30.6 9.8 67.4c0 33.1 62.5 61.3 144.6 66.2 8.6-4.9 18.4-8.6 28.2-13.5zM315 274.5c-87 0-159.3-23.3-176.5-55.1v50.2c7.4 34.3 84.6 62.5 176.5 62.5 87 0 159.3-24.5 175.2-56.4V223c-22.1 29.5-91.9 51.5-175.2 51.5zM121.3 183.8c0-9.8 2.5-19.6 9.8-28.2-60-7.4-106.6-27-120.1-51.5v50.2c6.1 25.7 50.2 47.8 110.3 57.6v-28.1z"/><g><path d="M315 354.2c-84.6 0-155.6-22.1-176.5-51.5V348c8.6 35.5 84.6 63.7 176.5 63.7 87 0 159.3-24.5 175.2-57.6v-47.8c-24.5 27-94.4 47.9-175.2 47.9zM121.3 232.8c-53.9-8.6-95.6-25.7-110.3-46.6v45.3c6.1 27 50.2 49 110.3 57.6v-56.3z"/></g><g><path d="M315 433.8c-84.6 0-155.6-22.1-176.5-51.5v46.6C147.1 469.4 223 500 315 500c87 0 159.3-28.2 175.2-65v-50.2c-23.3 29.4-93.1 49-175.2 49zM121.3 313.7C67.4 305.1 25.7 288 11 265.9v46.6c6.1 29.4 50.2 55.1 110.3 66.2v-65z"/></g></g></svg>