<svg xmlns="http://www.w3.org/2000/svg" viewBox="0 0 500 500"><path d="M91.8 276.8c-14.1 0-26.8 11.3-26.8 26.8 0 14.1 11.3 26.8 26.8 26.8s26.8-11.3 26.8-26.8-12.7-26.8-26.8-26.8zm0 104.6c-14.1 0-26.8 11.3-26.8 26.8 0 14.1 11.3 26.8 26.8 26.8s26.8-11.3 26.8-26.8c0-14.1-12.7-26.8-26.8-26.8zm0-210.5c-14.1 0-26.8 11.3-26.8 26.8s11.3 26.8 26.8 26.8 26.8-11.3 26.8-26.8-12.7-26.8-26.8-26.8zm-79.1 12.7c-7.1 0-12.7 5.6-12.7 12.7S5.6 209 12.7 209s12.7-5.6 12.7-12.7-5.6-12.7-12.7-12.7zM91.8 66.4C77.7 66.4 65 77.7 65 93.2S76.3 120 91.8 120s26.8-11.3 26.8-26.8-12.7-26.8-26.8-26.8zm395.5 144.1c7.1 0 12.7-5.6 12.7-12.7s-5.6-12.7-12.7-12.7-12.7 5.6-12.7 12.7 4.2 12.7 12.7 12.7zm-185-91.9c14.1 0 26.8-11.3 26.8-26.8s-11.3-25.4-26.8-25.4-26.8 11.3-26.8 26.8 12.6 25.4 26.8 25.4zm0-91.8c7.1 0 12.7-5.6 12.7-12.7s-5.6-12.7-12.7-12.7-12.7 5.6-12.7 12.7 5.6 12.7 12.7 12.7zM12.7 289.5c-7.1 0-12.7 5.6-12.7 12.7s5.6 12.7 12.7 12.7 12.7-5.6 12.7-12.7c1.4-7-5.6-12.7-12.7-12.7zm185 183.7c-7.1 0-12.7 5.6-12.7 12.7s5.6 12.7 12.7 12.7 12.7-5.6 12.7-12.7c.1-7.1-5.6-12.7-12.7-12.7zm0-446.4c7.1 0 12.7-5.6 12.7-12.7s-5.6-12.7-12.7-12.7S185 7.1 185 14.1s5.7 12.7 12.7 12.7zm0 91.8c14.1 0 26.8-11.3 26.8-26.8s-12.7-25.4-26.8-25.4c-14.1 0-26.8 11.3-26.8 26.8s11.3 25.4 26.8 25.4zm0 144.1c-21.2 0-39.5 16.9-39.5 39.5 0 21.2 16.9 39.5 39.5 39.5 21.2 0 39.5-16.9 39.5-39.5.1-21.1-18.3-39.5-39.5-39.5zm210.5 14.1c-14.1 0-26.8 11.3-26.8 26.8 0 14.1 11.3 26.8 26.8 26.8 14.1 0 26.8-11.3 26.8-26.8-1.4-15.5-12.7-26.8-26.8-26.8zm0 104.6c-14.1 0-26.8 11.3-26.8 26.8 0 14.1 11.3 26.8 26.8 26.8 14.1 0 26.8-11.3 26.8-26.8-1.4-14.1-12.7-26.8-26.8-26.8zm0-210.5c-14.1 0-26.8 11.3-26.8 26.8s11.3 26.8 26.8 26.8c14.1 0 26.8-11.3 26.8-26.8s-12.7-26.8-26.8-26.8zm0-104.5c-14.1 0-26.8 11.3-26.8 26.8s11.3 26.8 26.8 26.8c14.1 0 26.8-11.3 26.8-26.8s-12.7-26.8-26.8-26.8zm79.1 223.1c-7.1 0-12.7 5.6-12.7 12.7s5.6 12.7 12.7 12.7 12.7-5.6 12.7-12.7-5.6-12.7-12.7-12.7zm-185 91.9c-14.1 0-26.8 11.3-26.8 26.8 0 14.1 11.3 26.8 26.8 26.8s26.8-11.3 26.8-26.8c0-14.1-11.3-26.8-26.8-26.8zm0 91.8c-7.1 0-12.7 5.6-12.7 12.7s5.6 12.7 12.7 12.7S315 493 315 485.9c1.4-7.1-5.7-12.7-12.7-12.7zm-104.6-315c-21.2 0-39.5 16.9-39.5 39.5 0 21.2 16.9 39.5 39.5 39.5 21.2 0 39.5-16.9 39.5-39.5.1-22.6-18.3-39.5-39.5-39.5zm0 223.2c-14.1 0-26.8 11.3-26.8 26.8 0 14.1 11.3 26.8 26.8 26.8s26.8-11.3 26.8-26.8c-1.3-14.1-12.6-26.8-26.8-26.8zm104.6-118.7c-21.2 0-39.5 16.9-39.5 39.5 0 21.2 16.9 39.5 39.5 39.5 21.2 0 39.5-16.9 39.5-39.5 0-21.1-16.9-39.5-39.5-39.5zm0-104.5c-21.2 0-39.5 16.9-39.5 39.5 0 21.2 16.9 39.5 39.5 39.5 21.2 0 39.5-16.9 39.5-39.5s-16.9-39.5-39.5-39.5z"/></svg>