<svg xmlns="http://www.w3.org/2000/svg" viewBox="0 0 500 500"><path d="M425.7 74.1L390.8 109c53.1 53.1 76.9 137 41.9 223.6-19.6 47.5-57.3 85.3-104.8 103.4-142.5 53.1-278.1-50.3-278.1-185.8 0-102 75.5-185.9 174.7-198.5V102c-90.8 15.4-152.3 110.4-111.8 209.6 14 32.1 39.1 58.7 71.3 72.7 109 47.5 215.2-32.1 215.2-135.6 0-41.9-16.8-78.3-43.3-106.2L321 177.4c29.3 29.3 40.5 78.3 14 125.8-8.4 14-19.6 25.2-33.5 32.1-76.9 40.5-150.9-14-150.9-85.3 0-46.1 32.1-85.3 75.5-96.4v53.1c-21 12.6-32.1 39.1-19.6 67.1 2.8 7 9.8 14 16.8 18.2 37.7 22.4 78.3-5.6 78.3-41.9 0-18.2-9.8-34.9-25.2-43.3V0h-30.7C144.8 0 54 60.1 19 152.3-62 362 132.3 559 341.9 483.5c67.1-23.8 120.2-78.3 143.9-146.7 33.6-102 4.2-199.9-60.1-262.7z"/></svg>