<svg xmlns="http://www.w3.org/2000/svg" viewBox="0 0 540.25 270"><defs><style>.cls-1{fill:#192837;}</style></defs><title>Asset 1</title><g id="Layer_2" data-name="Layer 2"><g id="Layer_1_copy" data-name="Layer 1 copy"><path class="cls-1" d="M76.74,266.93H58.28A3.08,3.08,0,0,0,55.21,270H79.81A3.08,3.08,0,0,0,76.74,266.93Z"/><path class="cls-1" d="M131.9,266.93H95.09A3.08,3.08,0,0,0,92,270H135A3.08,3.08,0,0,0,131.9,266.93Z"/><path class="cls-1" d="M61.35,257.73a3.08,3.08,0,0,0-3.07-3.07H39.88a3.07,3.07,0,0,0,0,6.14h18.4A3.08,3.08,0,0,0,61.35,257.73Z"/><path class="cls-1" d="M110.43,257.73a3.08,3.08,0,0,0-3.07-3.07H76.69a3.07,3.07,0,0,0,0,6.14h30.67A3.08,3.08,0,0,0,110.43,257.73Z"/><path class="cls-1" d="M153.37,245.45a3.08,3.08,0,0,0-3.07-3.07H101.23a3.07,3.07,0,0,0,0,6.14h49.08A3.08,3.08,0,0,0,153.37,245.45Z"/><path class="cls-1" d="M85.89,245.45a3.08,3.08,0,0,0-3.07-3.07H64.42a3.07,3.07,0,0,0,0,6.14h18.4A3.08,3.08,0,0,0,85.89,245.45Z"/><path class="cls-1" d="M67.48,233.18a3.08,3.08,0,0,0-3.07-3.07H52.15a3.07,3.07,0,0,0,0,6.14H64.42A3.08,3.08,0,0,0,67.48,233.18Z"/><path class="cls-1" d="M116.56,233.18a3.08,3.08,0,0,0-3.07-3.07H82.82a3.07,3.07,0,0,0,0,6.14H113.5A3.08,3.08,0,0,0,116.56,233.18Z"/><path class="cls-1" d="M177.91,233.18a3.08,3.08,0,0,0-3.07-3.07H138a3.07,3.07,0,0,0,0,6.14h36.81A3.08,3.08,0,0,0,177.91,233.18Z"/><path class="cls-1" d="M30.67,245.45a3.08,3.08,0,0,0-3.07-3.07H21.47a3.07,3.07,0,0,0,0,6.14h6.13A3.08,3.08,0,0,0,30.67,245.45Z"/><path class="cls-1" d="M39.88,266.93H33.74A3.08,3.08,0,0,0,30.67,270H42.94A3.08,3.08,0,0,0,39.88,266.93Z"/><path class="cls-1" d="M153.37,220.91a3.08,3.08,0,0,0-3.07-3.07,3.07,3.07,0,0,1,0-6.14h12.27a3.07,3.07,0,0,0,0-6.14H119.63a3.07,3.07,0,0,0,0,6.14H131.9a3.07,3.07,0,0,1,0,6.14H113.5a3.07,3.07,0,0,0,0,6.14h36.81A3.08,3.08,0,0,0,153.37,220.91Z"/><path class="cls-1" d="M98.16,220.91a3.08,3.08,0,0,0-3.07-3.07H76.69a3.07,3.07,0,0,0,0,6.14h18.4A3.08,3.08,0,0,0,98.16,220.91Z"/><path class="cls-1" d="M55.21,220.91a3.08,3.08,0,0,0-3.07-3.07H46A3.07,3.07,0,0,0,46,224h6.13A3.08,3.08,0,0,0,55.21,220.91Z"/><path class="cls-1" d="M104.29,208.64a3.08,3.08,0,0,0-3.07-3.07H64.42a3.07,3.07,0,0,0,0,6.14h36.81A3.08,3.08,0,0,0,104.29,208.64Z"/><path class="cls-1" d="M42.94,208.64a3.08,3.08,0,0,0-3.07-3.07H27.61a3.07,3.07,0,0,0,0,6.14H39.88A3.08,3.08,0,0,0,42.94,208.64Z"/><path class="cls-1" d="M190.18,196.36a3.08,3.08,0,0,0-3.07-3.07H131.9a3.07,3.07,0,0,0,0,6.14h55.21A3.08,3.08,0,0,0,190.18,196.36Z"/><path class="cls-1" d="M116.56,196.36a3.08,3.08,0,0,0-3.07-3.07H89a3.07,3.07,0,0,0,0,6.14H113.5A3.08,3.08,0,0,0,116.56,196.36Z"/><path class="cls-1" d="M67.48,196.36a3.08,3.08,0,0,0-3.07-3.07H46a3.07,3.07,0,0,0,0,6.14h18.4A3.08,3.08,0,0,0,67.48,196.36Z"/><rect class="cls-1" x="55.21" y="131.93" width="24.54" height="6.14" rx="3.07" ry="3.07"/><path class="cls-1" d="M135,135h0a3.08,3.08,0,0,0-3.07-3.07H95.09A3.08,3.08,0,0,0,92,135h0a3.08,3.08,0,0,0,3.07,3.07H131.9A3.08,3.08,0,0,0,135,135Z"/><path class="cls-1" d="M85.89,184.09A3.08,3.08,0,0,0,82.82,181H64.42a3.07,3.07,0,0,0,0,6.14h18.4A3.08,3.08,0,0,0,85.89,184.09Z"/><path class="cls-1" d="M30.67,184.09A3.08,3.08,0,0,0,27.61,181H21.47a3.07,3.07,0,0,0,0,6.14h6.13A3.08,3.08,0,0,0,30.67,184.09Z"/><path class="cls-1" d="M98.16,171.82a3.08,3.08,0,0,0-3.07-3.07H76.69a3.07,3.07,0,0,0,0,6.14h18.4A3.08,3.08,0,0,0,98.16,171.82Z"/><path class="cls-1" d="M55.21,171.82a3.08,3.08,0,0,0-3.07-3.07H46a3.07,3.07,0,0,0,0,6.14h6.13A3.08,3.08,0,0,0,55.21,171.82Z"/><path class="cls-1" d="M116.56,147.27a3.08,3.08,0,0,0-3.07-3.07H70.55a3.07,3.07,0,0,0,0,6.14H113.5A3.08,3.08,0,0,0,116.56,147.27Z"/><path class="cls-1" d="M49.08,147.27A3.08,3.08,0,0,0,46,144.21H39.88a3.07,3.07,0,0,0,0,6.14H46A3.08,3.08,0,0,0,49.08,147.27Z"/><path class="cls-1" d="M67.48,159.55a3.08,3.08,0,0,0-3.07-3.07H52.15a3.07,3.07,0,0,0,0,6.14H64.42A3.08,3.08,0,0,0,67.48,159.55Z"/><path class="cls-1" d="M128.83,159.55a3.08,3.08,0,0,0-3.07-3.07H89a3.07,3.07,0,0,0,0,6.14h36.81A3.08,3.08,0,0,0,128.83,159.55Z"/><path class="cls-1" d="M30.67,159.55a3.08,3.08,0,0,0-3.07-3.07H21.47a3.07,3.07,0,0,0,0,6.14h6.13A3.08,3.08,0,0,0,30.67,159.55Z"/><path class="cls-1" d="M159.51,159.55a3.08,3.08,0,0,0-3.07-3.07H144.17a3.07,3.07,0,0,0,0,6.14h12.27A3.08,3.08,0,0,0,159.51,159.55Z"/><path class="cls-1" d="M18.4,233.18a3.08,3.08,0,0,0-3.07-3.07H9.2a3.07,3.07,0,0,0,0,6.14h6.13A3.08,3.08,0,0,0,18.4,233.18Z"/><path class="cls-1" d="M9.2,266.93A3.08,3.08,0,0,0,6.14,270h6.13A3.08,3.08,0,0,0,9.2,266.93Z"/><circle class="cls-1" cx="3.07" cy="208.64" r="3.07"/><path class="cls-1" d="M540.25,0h-393a3.08,3.08,0,0,0,3.07,3.07h12.27a3.07,3.07,0,0,1,0,6.14H131.9a3.07,3.07,0,0,0,0,6.14h55.21a3.07,3.07,0,0,0,0-6.14H174.85a3.07,3.07,0,0,1,0-6.14h49.08a3.07,3.07,0,0,1,0,6.14h-18.4a3.07,3.07,0,0,0,0,6.14h6.13a3.07,3.07,0,0,1,0,6.14H174.85a3.07,3.07,0,0,0,0,6.14h55.21a3.07,3.07,0,1,1,0,6.13H181a3.08,3.08,0,0,0-3.07,3.07h0A3.08,3.08,0,0,0,181,39.89h12.27a3.07,3.07,0,0,1,0,6.14H168.71a3.07,3.07,0,0,0,0,6.14h55.21a3.07,3.07,0,0,1,0,6.14h-18.4a3.07,3.07,0,0,0,0,6.14h24.54a3.07,3.07,0,0,1,0,6.14H181a3.07,3.07,0,0,0,0,6.14h30.67a3.07,3.07,0,0,1,0,6.14H168.71a3.07,3.07,0,0,0,0,6.14h49.08a3.07,3.07,0,0,1,0,6.14H193.25a3.07,3.07,0,0,0,0,6.14h12.27a3.07,3.07,0,0,1,0,6.14H168.71a3.07,3.07,0,0,0,0,6.14h55.21a3.07,3.07,0,0,1,0,6.14H199.39a3.07,3.07,0,0,0,0,6.14h6.13a3.07,3.07,0,0,1,0,6.14H174.85a3.07,3.07,0,0,1,0-6.14H181a3.07,3.07,0,0,0,0-6.14H131.9a3.07,3.07,0,0,0,0,6.14h24.54a3.07,3.07,0,0,1,0,6.14h-6.13a3.08,3.08,0,0,0-3.07,3.07h0a3.08,3.08,0,0,0,3.07,3.07h12.27a3.07,3.07,0,0,1,0,6.14H131.9a3.07,3.07,0,0,0,0,6.14h55.21a3.07,3.07,0,0,0,0-6.14H174.85a3.07,3.07,0,0,1,0-6.14h49.08a3.07,3.07,0,0,1,0,6.14h-18.4a3.07,3.07,0,0,0,0,6.14h6.13a3.07,3.07,0,0,1,0,6.14H174.85a3.07,3.07,0,0,0,0,6.14h55.21a3.07,3.07,0,1,1,0,6.13H181a3.08,3.08,0,0,0-3.07,3.07h0a3.08,3.08,0,0,0,3.07,3.07h12.27a3.07,3.07,0,0,1,0,6.14H168.71a3.07,3.07,0,0,0,0,6.14h55.21a3.07,3.07,0,0,1,0,6.14h-18.4a3.07,3.07,0,0,0,0,6.14h24.54a3.07,3.07,0,0,1,0,6.14H181a3.07,3.07,0,0,0,0,6.14h30.67a3.07,3.07,0,0,1,0,6.14H168.71a3.07,3.07,0,0,0,0,6.14h49.08a3.07,3.07,0,0,1,0,6.14H193.25a3.07,3.07,0,0,0,0,6.14h12.27a3.07,3.07,0,0,1,0,6.14H168.71a3.07,3.07,0,0,0,0,6.14h55.21a3.07,3.07,0,0,1,0,6.14H199.39a3.07,3.07,0,0,0,0,6.14h6.13a3.07,3.07,0,0,1,0,6.14H174.85a3.07,3.07,0,0,1,0-6.14H181a3.07,3.07,0,0,0,0-6.14H131.9a3.07,3.07,0,0,0,0,6.14h24.54a3.07,3.07,0,0,1,0,6.14h-6.13a3.08,3.08,0,0,0-3.07,3.07h393Zm-301,6.14a3.07,3.07,0,1,1,3.07,3.07A3.08,3.08,0,0,1,239.26,6.14ZM223.93,21.48a3.07,3.07,0,0,1,0-6.14H236.2a3.07,3.07,0,0,1,0,6.14Zm18.4,12.27a3.07,3.07,0,0,1,0-6.14h6.13a3.07,3.07,0,0,1,0,6.14ZM211.66,46a3.07,3.07,0,0,1,0-6.14H236.2a3.07,3.07,0,0,1,0,6.14Zm36.81,24.55h-6.13a3.07,3.07,0,0,1,0-6.14H254.6a3.07,3.07,0,0,1,0,6.14Zm-27.61,9.2a3.07,3.07,0,1,1,3.07,3.07A3.08,3.08,0,0,1,220.86,79.77Zm9.2,15.34a3.07,3.07,0,0,1,0-6.14h6.13a3.07,3.07,0,0,1,0,6.14ZM251.53,92a3.07,3.07,0,1,1,3.07,3.07A3.08,3.08,0,0,1,251.53,92Zm-33.74,15.34a3.07,3.07,0,0,1,0-6.14h12.27a3.07,3.07,0,0,1,0,6.14Zm30.67,12.27h-6.13a3.07,3.07,0,0,1,0-6.14H254.6a3.07,3.07,0,0,1,0,6.14Zm-30.67,12.27a3.07,3.07,0,0,1,0-6.14h18.4a3.07,3.07,0,0,1,0,6.14Zm21.47,9.21a3.07,3.07,0,1,1,3.07,3.07A3.08,3.08,0,0,1,239.26,141.14Zm-15.34,15.34a3.07,3.07,0,0,1,0-6.14H236.2a3.07,3.07,0,0,1,0,6.14ZM211.66,181a3.07,3.07,0,0,1,0-6.14H236.2a3.07,3.07,0,0,1,0,6.14Zm36.81,24.55h-6.13a3.07,3.07,0,0,1,0-6.14H254.6a3.07,3.07,0,0,1,0,6.14Zm-27.61,9.2a3.07,3.07,0,1,1,3.07,3.07A3.08,3.08,0,0,1,220.86,214.77Zm9.2,15.34a3.07,3.07,0,0,1,0-6.14h6.13a3.07,3.07,0,0,1,0,6.14ZM251.53,227a3.07,3.07,0,1,1,3.07,3.07A3.08,3.08,0,0,1,251.53,227Zm-33.74,15.34a3.07,3.07,0,0,1,0-6.14h12.27a3.07,3.07,0,0,1,0,6.14Zm30.67,12.27h-6.13a3.07,3.07,0,0,1,0-6.14H254.6a3.07,3.07,0,0,1,0,6.14Z"/><path class="cls-1" d="M153.37,184.09a3.08,3.08,0,0,0-3.07-3.07H138a3.07,3.07,0,0,1,0-6.14h24.54a3.07,3.07,0,0,0,0-6.14H113.5a3.07,3.07,0,0,0,0,6.14h12.27a3.07,3.07,0,0,1,0,6.14H101.23a3.07,3.07,0,0,0,0,6.14h49.08A3.08,3.08,0,0,0,153.37,184.09Z"/><path class="cls-1" d="M61.35,122.73a3.08,3.08,0,0,0-3.07-3.07H39.88a3.07,3.07,0,0,0,0,6.14h18.4A3.08,3.08,0,0,0,61.35,122.73Z"/><path class="cls-1" d="M110.43,122.73a3.08,3.08,0,0,0-3.07-3.07H76.69a3.07,3.07,0,0,0,0,6.14h30.67A3.08,3.08,0,0,0,110.43,122.73Z"/><path class="cls-1" d="M153.37,110.45a3.08,3.08,0,0,0-3.07-3.07H101.23a3.07,3.07,0,0,0,0,6.14h49.08A3.08,3.08,0,0,0,153.37,110.45Z"/><path class="cls-1" d="M85.89,110.45a3.08,3.08,0,0,0-3.07-3.07H64.42a3.07,3.07,0,0,0,0,6.14h18.4A3.08,3.08,0,0,0,85.89,110.45Z"/><path class="cls-1" d="M67.48,98.18a3.08,3.08,0,0,0-3.07-3.07H52.15a3.07,3.07,0,0,0,0,6.14H64.42A3.08,3.08,0,0,0,67.48,98.18Z"/><path class="cls-1" d="M116.56,98.18a3.08,3.08,0,0,0-3.07-3.07H82.82a3.07,3.07,0,0,0,0,6.14H113.5A3.08,3.08,0,0,0,116.56,98.18Z"/><path class="cls-1" d="M177.91,98.18a3.08,3.08,0,0,0-3.07-3.07H138a3.07,3.07,0,0,0,0,6.14h36.81A3.08,3.08,0,0,0,177.91,98.18Z"/><path class="cls-1" d="M30.67,110.45a3.08,3.08,0,0,0-3.07-3.07H21.47a3.07,3.07,0,0,0,0,6.14h6.13A3.08,3.08,0,0,0,30.67,110.45Z"/><path class="cls-1" d="M42.94,135h0a3.08,3.08,0,0,0-3.07-3.07H33.74A3.08,3.08,0,0,0,30.67,135h0a3.08,3.08,0,0,0,3.07,3.07h6.13A3.08,3.08,0,0,0,42.94,135Z"/><path class="cls-1" d="M153.37,85.91a3.08,3.08,0,0,0-3.07-3.07,3.07,3.07,0,0,1,0-6.14h12.27a3.07,3.07,0,0,0,0-6.14H119.63a3.07,3.07,0,0,0,0,6.14H131.9a3.07,3.07,0,0,1,0,6.14H113.5a3.07,3.07,0,0,0,0,6.14h36.81A3.08,3.08,0,0,0,153.37,85.91Z"/><path class="cls-1" d="M98.16,85.91a3.08,3.08,0,0,0-3.07-3.07H76.69a3.07,3.07,0,0,0,0,6.14h18.4A3.08,3.08,0,0,0,98.16,85.91Z"/><path class="cls-1" d="M55.21,85.91a3.08,3.08,0,0,0-3.07-3.07H46A3.07,3.07,0,0,0,46,89h6.13A3.08,3.08,0,0,0,55.21,85.91Z"/><path class="cls-1" d="M104.29,73.64a3.08,3.08,0,0,0-3.07-3.07H64.42a3.07,3.07,0,0,0,0,6.14h36.81A3.08,3.08,0,0,0,104.29,73.64Z"/><path class="cls-1" d="M42.94,73.64a3.08,3.08,0,0,0-3.07-3.07H27.61a3.07,3.07,0,0,0,0,6.14H39.88A3.08,3.08,0,0,0,42.94,73.64Z"/><path class="cls-1" d="M190.18,61.36a3.08,3.08,0,0,0-3.07-3.07H131.9a3.07,3.07,0,0,0,0,6.14h55.21A3.08,3.08,0,0,0,190.18,61.36Z"/><path class="cls-1" d="M116.56,61.36a3.08,3.08,0,0,0-3.07-3.07H89a3.07,3.07,0,0,0,0,6.14H113.5A3.08,3.08,0,0,0,116.56,61.36Z"/><path class="cls-1" d="M67.48,61.36a3.08,3.08,0,0,0-3.07-3.07H46a3.07,3.07,0,0,0,0,6.14h18.4A3.08,3.08,0,0,0,67.48,61.36Z"/><path class="cls-1" d="M58.28,3.07h18.4A3.08,3.08,0,0,0,79.75,0H55.21A3.08,3.08,0,0,0,58.28,3.07Z"/><path class="cls-1" d="M95.09,3.07H131.9A3.08,3.08,0,0,0,135,0H92A3.08,3.08,0,0,0,95.09,3.07Z"/><path class="cls-1" d="M85.89,49.09A3.08,3.08,0,0,0,82.82,46H64.42a3.07,3.07,0,0,0,0,6.14h18.4A3.08,3.08,0,0,0,85.89,49.09Z"/><path class="cls-1" d="M30.67,49.09A3.08,3.08,0,0,0,27.61,46H21.47a3.07,3.07,0,0,0,0,6.14h6.13A3.08,3.08,0,0,0,30.67,49.09Z"/><path class="cls-1" d="M33.74,3.07h6.13A3.08,3.08,0,0,0,42.94,0H30.67A3.08,3.08,0,0,0,33.74,3.07Z"/><path class="cls-1" d="M98.16,36.82a3.08,3.08,0,0,0-3.07-3.07H76.69a3.07,3.07,0,0,0,0,6.14h18.4A3.08,3.08,0,0,0,98.16,36.82Z"/><path class="cls-1" d="M55.21,36.82a3.08,3.08,0,0,0-3.07-3.07H46a3.07,3.07,0,0,0,0,6.14h6.13A3.08,3.08,0,0,0,55.21,36.82Z"/><path class="cls-1" d="M116.56,12.27a3.08,3.08,0,0,0-3.07-3.07H70.55a3.07,3.07,0,0,0,0,6.14H113.5A3.08,3.08,0,0,0,116.56,12.27Z"/><path class="cls-1" d="M49.08,12.27A3.08,3.08,0,0,0,46,9.21H39.88a3.07,3.07,0,0,0,0,6.14H46A3.08,3.08,0,0,0,49.08,12.27Z"/><path class="cls-1" d="M67.48,24.55a3.08,3.08,0,0,0-3.07-3.07H52.15a3.07,3.07,0,0,0,0,6.14H64.42A3.08,3.08,0,0,0,67.48,24.55Z"/><path class="cls-1" d="M128.83,24.55a3.08,3.08,0,0,0-3.07-3.07H89a3.07,3.07,0,0,0,0,6.14h36.81A3.08,3.08,0,0,0,128.83,24.55Z"/><path class="cls-1" d="M30.67,24.55a3.08,3.08,0,0,0-3.07-3.07H21.47a3.07,3.07,0,0,0,0,6.14h6.13A3.08,3.08,0,0,0,30.67,24.55Z"/><path class="cls-1" d="M159.51,24.55a3.08,3.08,0,0,0-3.07-3.07H144.17a3.07,3.07,0,0,0,0,6.14h12.27A3.08,3.08,0,0,0,159.51,24.55Z"/><path class="cls-1" d="M18.4,98.18a3.08,3.08,0,0,0-3.07-3.07H9.2a3.07,3.07,0,0,0,0,6.14h6.13A3.08,3.08,0,0,0,18.4,98.18Z"/><path class="cls-1" d="M9.2,3.07A3.08,3.08,0,0,0,12.27,0H6.14A3.08,3.08,0,0,0,9.2,3.07Z"/><path class="cls-1" d="M12.27,135h0a3.07,3.07,0,1,0-6.13,0h0a3.07,3.07,0,1,0,6.13,0Z"/><circle class="cls-1" cx="3.07" cy="73.64" r="3.07"/><path class="cls-1" d="M153.37,49.09A3.08,3.08,0,0,0,150.31,46H138a3.07,3.07,0,0,1,0-6.14h24.54a3.07,3.07,0,0,0,0-6.14H113.5a3.07,3.07,0,0,0,0,6.14h12.27a3.07,3.07,0,0,1,0,6.14H101.23a3.07,3.07,0,0,0,0,6.14h49.08A3.08,3.08,0,0,0,153.37,49.09Z"/></g></g></svg>