<svg xmlns="http://www.w3.org/2000/svg" viewBox="0 0 1085 37.42"><defs><style>.cls-1,.cls-2,.cls-3{fill:#ff6800;}.cls-2{opacity:0.5;}.cls-3{opacity:0.3;}.cls-4{fill:#fff;}</style></defs><title>Asset 4</title><g id="Layer_2" data-name="Layer 2"><g id="wave_detail" data-name="wave detail"><path class="cls-1" d="M1085,7.08V3.23C933.95,9.36,754.41,20,589.59,28c2.36.7,4.69,1.36,7,2C756.64,21.84,921.9,11.48,1085,7.08Z"/><path class="cls-1" d="M0,26v5.8C3.51,30,7.17,28.39,11,26.87Z"/><path class="cls-2" d="M276.91,19.87q-23.8-2.09-47.91-4.48C176,10.11,75.09,1.09,11,26.87c52,4.22,94.77,8.51,169.17,10.39C213.3,32.25,245.4,25.9,276.91,19.87Z"/><path class="cls-1" d="M179,37.42l1.09-.16C105.73,35.38,63,31.09,11,26.87,7.17,28.39,3.51,30,0,31.8c33.35,1.84,72.24,3.9,111,5.63Z"/><path class="cls-2" d="M179,37.42l1.09-.16C105.73,35.38,63,31.09,11,26.87,7.17,28.39,3.51,30,0,31.8c33.35,1.84,72.24,3.9,111,5.63Z"/><path class="cls-3" d="M589.59,28c-21.27-6.33-45-15.93-88.95-23.06-75.49-12.26-147.89.41-223.73,14.93C345.49,25.88,412.58,30,484,32.76,518.18,31.35,553.53,29.74,589.59,28Z"/><path class="cls-1" d="M515.56,33.89q40.25-1.82,81-3.92c-2.32-.61-4.65-1.27-7-2-36.06,1.74-71.41,3.35-105.61,4.76Q499.62,33.37,515.56,33.89Z"/><path class="cls-3" d="M515.56,33.89q40.25-1.82,81-3.92c-2.32-.61-4.65-1.27-7-2-36.06,1.74-71.41,3.35-105.61,4.76Q499.62,33.37,515.56,33.89Z"/><path class="cls-2" d="M187,37.42H339.53c44.54-.92,93.19-2.56,144.45-4.66C412.58,30,345.49,25.88,276.91,19.87c-31.51,6-63.62,12.38-96.78,17.39Z"/><path class="cls-3" d="M187,37.42H339.53c44.54-.92,93.19-2.56,144.45-4.66C412.58,30,345.49,25.88,276.91,19.87c-31.51,6-63.62,12.38-96.78,17.39Z"/><path class="cls-1" d="M179,37.42H187l-6.85-.16Z"/><path class="cls-2" d="M179,37.42H187l-6.85-.16Z"/><path class="cls-3" d="M179,37.42H187l-6.85-.16Z"/><path class="cls-1" d="M484,32.76c-51.26,2.1-99.91,3.74-144.45,4.66H429q42.9-1.53,86.54-3.53Q499.62,33.37,484,32.76Z"/><path class="cls-2" d="M484,32.76c-51.26,2.1-99.91,3.74-144.45,4.66H429q42.9-1.53,86.54-3.53Q499.62,33.37,484,32.76Z"/><path class="cls-3" d="M484,32.76c-51.26,2.1-99.91,3.74-144.45,4.66H429q42.9-1.53,86.54-3.53Q499.62,33.37,484,32.76Z"/><path class="cls-4" d="M0,31.8v5.63H111C72.24,35.7,33.35,33.63,0,31.8Z"/><path class="cls-4" d="M515.56,33.89q-43.63,2-86.54,3.53h656V7.08C921.9,11.48,756.64,21.84,596.59,30Q555.84,32.05,515.56,33.89Z"/></g></g></svg>