<?xml version="1.0" encoding="UTF-8" standalone="no"?>
<svg width="420px" height="351px" viewBox="0 0 420 351" version="1.1" xmlns="http://www.w3.org/2000/svg" xmlns:xlink="http://www.w3.org/1999/xlink">
    <!-- Generator: Sketch 46.2 (44496) - http://www.bohemiancoding.com/sketch -->
    <title>chart</title>
    <desc>Created with Sketch.</desc>
    <defs></defs>
    <g id="Landing-Page" stroke="none" stroke-width="1" fill="none" fill-rule="evenodd">
        <g id="Version-3" transform="translate(-903.000000, -2321.000000)">
            <g id="section-1" transform="translate(0.000000, 699.000000)">
                <g id="slide---text-left-copy" transform="translate(0.000000, 1399.000000)">
                    <g id="bg">
                        <g id="chart" transform="translate(545.000000, 223.000000)">
                            <g transform="translate(358.000000, 0.000000)">
                                <g id="dashes" transform="translate(0.000000, 79.906000)" stroke="#FFFFFF" stroke-width="1.81" stroke-dasharray="3.619,7.239" opacity="0.3">
                                    <path d="M-0.0001,177.8036 L419.9999,177.8036" id="Stroke-4"></path>
                                    <path d="M-0.0001,118.6577 L419.9999,118.6577" id="Stroke-7"></path>
                                    <path d="M-0.0001,59.5122 L419.9999,59.5122" id="Stroke-10"></path>
                                    <path d="M-0.0001,0.3661 L419.9999,0.3661" id="Stroke-13"></path>
                                </g>
                                <g id="bars" transform="translate(36.000000, 0.906000)" fill="#FF6800">
                                    <polygon id="Fill-16" opacity="0.65" points="0 317.328375 20 317.328375 20 59.2991512 0 59.2991512"></polygon>
                                    <polygon id="Fill-18" opacity="0.7" points="46.643 317.328375 66.643 317.328375 66.643 50.8392044 46.643 50.8392044"></polygon>
                                    <polygon id="Fill-20" opacity="0.75" points="93.286 317.328375 113.286 317.328375 113.286 42.3792575 93.286 42.3792575"></polygon>
                                    <polygon id="Fill-22" opacity="0.8" points="139.929 317.328375 159.929 317.328375 159.929 33.9193107 139.929 33.9193107"></polygon>
                                    <polygon id="Fill-24" opacity="0.85" points="186.572 317.328375 206.572 317.328375 206.572 25.4593639 186.572 25.4593639"></polygon>
                                    <polygon id="Fill-26" opacity="0.95" points="279.857 317.328375 299.857 317.328375 299.857 8.53947031 279.857 8.53947031"></polygon>
                                    <polygon id="Fill-28" opacity="0.9" points="233.214 317.328375 253.214 317.328375 253.214 16.9994171 233.214 16.9994171"></polygon>
                                    <polygon id="Fill-31" points="326.5 317.329221 346.5 317.329221 346.5 0.0803694947 326.5 0.0803694947"></polygon>
                                </g>
                                <path d="M0,317 L420,317" id="Stroke-32" stroke="#FFFFFF" stroke-width="1.81"></path>
                                <text id="2016" font-family="InterFace-Regular, InterFace" font-size="14" font-weight="normal" fill="#FFFFFF">
                                    <tspan x="29" y="350">2016</tspan>
                                </text>
                                <text id="2017" font-family="InterFace-Regular, InterFace" font-size="14" font-weight="normal" fill="#FFFFFF">
                                    <tspan x="357" y="350">2017</tspan>
                                </text>
                            </g>
                        </g>
                    </g>
                </g>
            </g>
        </g>
    </g>
</svg>