<?xml version="1.0" encoding="UTF-8" standalone="no"?>
<svg width="422px" height="422px" viewBox="0 0 422 422" version="1.1" xmlns="http://www.w3.org/2000/svg" xmlns:xlink="http://www.w3.org/1999/xlink">
    <!-- Generator: Sketch 46.2 (44496) - http://www.bohemiancoding.com/sketch -->
    <title>icon</title>
    <desc>Created with Sketch.</desc>
    <defs></defs>
    <g id="Landing-Page" stroke="none" stroke-width="1" fill="none" fill-rule="evenodd">
        <g id="Version-3" transform="translate(-197.000000, -6490.000000)">
            <g id="section-3" transform="translate(-6.000000, 4197.000000)">
                <g id="slide---3" transform="translate(6.000000, 2125.000000)">
                    <g id="bg">
                        <g id="icon" transform="translate(198.000000, 169.000000)">
                            <path d="M210.0332,209.3454 L373.9942,162.3304 C399.9602,252.8844 347.6012,347.3414 257.0482,373.3064 C166.4952,399.2724 72.0372,346.9144 46.0722,256.3614 C20.1062,165.8074 72.4652,71.3504 163.0182,45.3844 C178.9552,40.8144 193.4532,38.7774 210.0332,38.7774 L210.0332,209.3454 Z" id="Fill-1" fill="#1C2E3F"></path>
                            <path d="M210.0332,209.3454 L357.7502,124.0614 C365.0982,136.7874 369.9442,148.2044 373.9942,162.3304 L210.0332,209.3454 Z" id="Fill-3" fill="#C04E00"></path>
                            <path d="M210.0332,209.3454 L210.0332,38.7774 C272.7722,38.7774 326.3812,69.7274 357.7502,124.0614 L210.0332,209.3454 Z" id="Fill-5" fill="#FF6800"></path>
                            <path d="M420,210.0002 C420,325.9792 325.98,420.0002 210,420.0002 C94.02,420.0002 0,325.9792 0,210.0002 C0,94.0202 94.02,0.0002 210,0.0002 C325.98,0.0002 420,94.0202 420,210.0002 Z" id="Stroke-7" stroke="#1C2E3F" stroke-width="2" stroke-dasharray="4,8"></path>
                            <path d="M380.4546,209.4914 C380.4546,303.6304 304.1396,379.9454 209.9996,379.9454 C115.8606,379.9454 39.5456,303.6304 39.5456,209.4914 C39.5456,115.3514 115.8606,39.0364 209.9996,39.0364 C304.1396,39.0364 380.4546,115.3514 380.4546,209.4914 Z" id="Stroke-9" stroke="#1C2E3F" stroke-width="24" opacity="0.3"></path>
                            <path d="M210,240.8825 C227.056,240.8825 240.882,227.0555 240.882,210.0005 C240.882,192.9445 227.056,179.1175 210,179.1175 C192.944,179.1175 179.118,192.9445 179.118,210.0005 C179.118,227.0555 192.944,240.8825 210,240.8825" id="Fill-11" fill="#FF6800"></path>
                            <path d="M210,240.8825 C227.056,240.8825 240.882,227.0555 240.882,210.0005 C240.882,192.9445 227.056,179.1175 210,179.1175 C192.944,179.1175 179.118,192.9445 179.118,210.0005 C179.118,227.0555 192.944,240.8825 210,240.8825 Z" id="Stroke-13" stroke="#FFFFFF" stroke-width="12"></path>
                        </g>
                    </g>
                </g>
            </g>
        </g>
    </g>
</svg>