<?xml version="1.0" encoding="UTF-8" standalone="no"?>
<svg width="423px" height="423px" viewBox="0 0 423 423" version="1.1" xmlns="http://www.w3.org/2000/svg" xmlns:xlink="http://www.w3.org/1999/xlink">
    <!-- Generator: Sketch 46.2 (44496) - http://www.bohemiancoding.com/sketch -->
    <title>icon</title>
    <desc>Created with Sketch.</desc>
    <defs>
        <path d="M0.434,31.111 C0.434,48.167 14.26,61.993 31.315,61.993 C48.373,61.993 62.197,48.167 62.197,31.111 C62.197,14.053 48.373,0.227 31.315,0.227 C14.26,0.227 0.434,14.053 0.434,31.111 Z" id="path-1"></path>
    </defs>
    <g id="Landing-Page" stroke="none" stroke-width="1" fill="none" fill-rule="evenodd">
        <g id="Version-3" transform="translate(-197.000000, -6490.000000)">
            <g id="section-3" transform="translate(-6.000000, 4197.000000)">
                <g id="slide---3" transform="translate(6.000000, 2125.000000)">
                    <g id="bg">
                        <g id="icon" transform="translate(198.000000, 169.000000)">
                            <g id="Group-9" transform="translate(0.000000, 0.800000)">
                                <path d="M210.3493,209.4561 L359.5323,126.7621 C405.2033,209.1541 375.4343,312.9681 293.0423,358.6391 C210.6513,404.3091 106.8373,374.5411 61.1663,292.1491 C15.4963,209.7581 45.2653,105.9431 127.6563,60.2731 C154.0213,45.6591 180.2043,38.8871 210.3493,38.8871 L210.3493,209.4561 Z" id="Fill-1" fill="#C04E00"></path>
                                <path d="M210.3493,209.4561 L210.3493,38.8871 C274.4073,38.8871 328.4763,70.7361 359.5323,126.7621 L210.3493,209.4561 Z" id="Fill-3" fill="#FF6800"></path>
                                <path d="M420.3161,210.1104 C420.3161,326.0894 326.2951,420.1104 210.3161,420.1104 C94.3371,420.1104 0.3161,326.0894 0.3161,210.1104 C0.3161,94.1304 94.3371,0.1104 210.3161,0.1104 C326.2951,0.1104 420.3161,94.1304 420.3161,210.1104 Z" id="Stroke-5" stroke="#1C2E3F" stroke-width="2" stroke-dasharray="4,8"></path>
                                <path d="M380.7702,209.6016 C380.7702,303.7406 304.4562,380.0556 210.3162,380.0556 C116.1772,380.0556 39.8612,303.7406 39.8612,209.6016 C39.8612,115.4616 116.1772,39.1466 210.3162,39.1466 C304.4562,39.1466 380.7702,115.4616 380.7702,209.6016 Z" id="Stroke-7" stroke="#FFFFFF" stroke-width="24"></path>
                            </g>
                            <g id="Group-12" transform="translate(179.000000, 179.800000)">
                                <mask id="mask-2" fill="white">
                                    <use xlink:href="#path-1"></use>
                                </mask>
                                <g id="Clip-11"></g>
                                <polygon id="Fill-10" fill="#FFFFFF" mask="url(#mask-2)" points="-3.427 65.853 66.058 65.853 66.058 -3.632 -3.427 -3.632"></polygon>
                            </g>
                            <polyline id="Stroke-13" stroke="#FF6800" stroke-width="3.088" points="225.3625 199.7927 203.3975 221.8127 195.4925 213.8887"></polyline>
                        </g>
                    </g>
                </g>
            </g>
        </g>
    </g>
</svg>