<?xml version="1.0" encoding="UTF-8" standalone="no"?>
<svg width="423px" height="423px" viewBox="0 0 423 423" version="1.1" xmlns="http://www.w3.org/2000/svg" xmlns:xlink="http://www.w3.org/1999/xlink">
    <!-- Generator: Sketch 46.2 (44496) - http://www.bohemiancoding.com/sketch -->
    <title>icon thin</title>
    <desc>Created with Sketch.</desc>
    <defs></defs>
    <g id="Landing-Page" stroke="none" stroke-width="1" fill="none" fill-rule="evenodd">
        <g id="Version-3" transform="translate(-189.000000, -5069.000000)">
            <g id="section-3" transform="translate(-6.000000, 4197.000000)">
                <g id="slide---1" transform="translate(6.000000, 700.000000)">
                    <g id="bg">
                        <g id="illustration" transform="translate(0.000000, 151.000000)">
                            <g id="icon-thin" transform="translate(201.000000, 33.000000)">
                                <path d="M356.7368,199.129 C356.7368,286.199 286.1768,356.807 199.1268,356.807 C112.0728,356.807 41.5158,286.199 41.5158,199.129 C41.5158,112.054 112.0728,41.445 199.1268,41.445 C286.1768,41.445 356.7368,112.054 356.7368,199.129" id="Fill-1" fill="#FF6800"></path>
                                <path d="M199.1147,114.1436 C136.2457,114.1436 81.3717,148.3466 52.0167,199.1276 C81.3717,249.9096 136.2457,284.1086 199.1147,284.1086 C262.0107,284.1086 316.8527,249.9096 346.2347,199.1276 C316.8527,148.3466 262.0107,114.1436 199.1147,114.1436" id="Fill-3" fill="#FFFFFF"></path>
                                <path d="M260.438,199.1241 C260.438,192.1151 265.819,186.3331 272.672,185.7291 C271.968,181.6661 270.919,177.7181 269.557,173.9351 C263.294,176.8511 255.751,174.5381 252.24,168.4701 C248.74,162.3741 250.489,154.7011 256.136,150.7341 C253.489,147.6231 250.61,144.7331 247.499,142.1111 C243.544,147.7291 235.884,149.5091 229.792,145.9981 C223.722,142.4851 221.406,134.9191 224.321,128.6731 C220.514,127.3271 216.569,126.2701 212.526,125.5341 C211.918,132.3941 206.147,137.7801 199.139,137.7801 C192.127,137.7801 186.36,132.3941 185.75,125.5341 C181.687,126.2701 177.746,127.3271 173.967,128.6731 C176.872,134.9191 174.562,142.4851 168.489,145.9981 C162.409,149.5091 154.732,147.7291 150.774,142.1111 C147.667,144.7331 144.778,147.6231 142.155,150.7341 C147.769,154.7011 149.555,162.3741 146.031,168.4681 C142.523,174.5411 134.978,176.8511 128.718,173.9351 C127.377,177.7181 126.314,181.6661 125.58,185.7291 C132.439,186.3331 137.828,192.1191 137.828,199.1241 C137.828,206.1311 132.439,211.9151 125.58,212.5201 C126.314,216.5821 127.377,220.5261 128.718,224.3081 C134.974,221.3971 142.523,223.7101 146.031,229.7821 C149.557,235.8741 147.769,243.5471 142.155,247.5141 C144.778,250.6251 147.667,253.5151 150.774,256.1371 C154.732,250.5211 162.409,248.7331 168.489,252.2521 C174.567,255.7641 176.872,263.3261 173.967,269.5771 C177.746,270.9231 181.687,271.9791 185.75,272.7181 C186.36,265.8531 192.131,260.4691 199.139,260.4691 C206.151,260.4691 211.918,265.8501 212.526,272.7181 C216.569,271.9791 220.514,270.9231 224.321,269.5771 C221.406,263.3261 223.722,255.7641 229.792,252.2521 C235.884,248.7321 243.544,250.5201 247.499,256.1371 C250.643,253.5151 253.493,250.6251 256.144,247.5141 C250.497,243.5471 248.744,235.8721 252.24,229.7821 C255.751,223.7091 263.294,221.3971 269.561,224.3081 C270.919,220.5261 271.968,216.5821 272.672,212.5201 C265.819,211.9151 260.438,206.1311 260.438,199.1241 M199.139,248.9901 C171.603,248.9901 149.296,226.6731 149.296,199.1241 C149.296,171.5811 171.603,149.2611 199.139,149.2611 C226.674,149.2611 248.98,171.5811 248.98,199.1241 C248.98,226.6731 226.674,248.9901 199.139,248.9901" id="Fill-5" fill="#2FA5F4"></path>
                                <path d="M219.0551,199.1295 C219.0551,210.1555 210.1351,219.0765 199.1381,219.0765 C188.1321,219.0765 179.1971,210.1555 179.1971,199.1295 C179.1971,188.1025 188.1321,179.1755 199.1381,179.1755 C210.1351,179.1755 219.0551,188.1025 219.0551,199.1295" id="Fill-7" fill="#1C2E3F"></path>
                                <path d="M398.2524,199.1261 C398.2524,309.1011 309.1004,398.2521 199.1264,398.2521 C89.1514,398.2521 0.0004,309.1011 0.0004,199.1261 C0.0004,89.1511 89.1514,0.0001 199.1264,0.0001 C309.1004,0.0001 398.2524,89.1511 398.2524,199.1261 Z" id="Stroke-9" stroke="#1C2E3F" stroke-width="24" stroke-dasharray="3.972,15.888"></path>
                                <path d="M234.1206,199.1261 C234.1206,218.4531 218.4526,234.1201 199.1256,234.1201 C179.7996,234.1201 164.1316,218.4531 164.1316,199.1261 C164.1316,179.7991 179.7996,164.1311 199.1256,164.1311 C218.4526,164.1311 234.1206,179.7991 234.1206,199.1261 Z" id="Stroke-11" stroke="#1C2E3F" stroke-width="2" stroke-dasharray="4.071,8.141"></path>
                            </g>
                        </g>
                    </g>
                </g>
            </g>
        </g>
    </g>
</svg>