<?xml version="1.0" encoding="UTF-8" standalone="no"?>
<svg width="20px" height="20px" viewBox="0 0 20 20" version="1.1" xmlns="http://www.w3.org/2000/svg" xmlns:xlink="http://www.w3.org/1999/xlink">
    <!-- Generator: Sketch 46.2 (44496) - http://www.bohemiancoding.com/sketch -->
    <title>question</title>
    <desc>Created with Sketch.</desc>
    <defs></defs>
    <g id="Landing-Page" stroke="none" stroke-width="1" fill="none" fill-rule="evenodd">
        <g id="Version-3" transform="translate(-1489.000000, -110.000000)" fill-rule="nonzero" fill="#FFFFFF">
            <g id="flyout-area" transform="translate(1220.000000, 80.000000)">
                <g id="default" transform="translate(79.000000, 30.000000)">
                    <path d="M199.00144,16.0009602 L201.003361,16.0009602 L201.003361,13.9990398 L199.00144,13.9990398 L199.00144,16.0009602 Z M200,0 C194.479117,0 190,4.47911666 190,10 C190,15.5208833 194.479117,20 200,20 C205.520883,20 210,15.5208833 210,10 C210,4.47911666 205.520883,0 200,0 Z M200,18.0028805 C195.588094,18.0028805 191.99712,14.4119059 191.99712,10 C191.99712,5.5880941 195.588094,1.99711954 200,1.99711954 C204.411906,1.99711954 208.00288,5.5880941 208.00288,10 C208.00288,14.4119059 204.411906,18.0028805 200,18.0028805 Z M200,3.99903985 C197.791647,3.99903985 196.00096,5.78972636 196.00096,7.99807969 L198.00288,7.99807969 C198.00288,6.89870379 198.905425,5.99615939 200.004801,5.99615939 C201.104177,5.99615939 202.006721,6.89390302 202.006721,7.99807969 C202.006721,10 199.006241,9.75036006 199.006241,13.0004801 L201.008161,13.0004801 C201.008161,10.7489198 204.008641,10.4992799 204.008641,7.99807969 C203.99904,5.78972636 202.208353,3.99903985 200,3.99903985 Z" id="question"></path>
                </g>
            </g>
        </g>
    </g>
</svg>