<?xml version="1.0" encoding="UTF-8" standalone="no"?>
<svg width="109px" height="50px" viewBox="0 0 109 50" version="1.1" xmlns="http://www.w3.org/2000/svg" xmlns:xlink="http://www.w3.org/1999/xlink">
    <!-- Generator: Sketch 46.2 (44496) - http://www.bohemiancoding.com/sketch -->
    <title>logo</title>
    <desc>Created with Sketch.</desc>
    <defs></defs>
    <g id="Landing-Page" stroke="none" stroke-width="1" fill="none" fill-rule="evenodd">
        <g id="Version-3" transform="translate(-200.000000, -15.000000)">
            <g id="hero">
                <g id="nav-white-bg">
                    <g id="logo" transform="translate(200.000000, 15.000000)">
                        <path d="M48.1633303,25.6107196 C48.1633303,28.5295515 49.5378136,30.2626453 51.8589183,30.2626453 C54.1191336,30.2626453 55.5242798,28.5295515 55.5242798,25.6107196 C55.5242798,22.7220851 54.1191336,20.9892086 51.8589183,20.9892086 C49.5378136,20.9892086 48.1633303,22.7220851 48.1633303,25.6107196 M58.8843218,25.6107196 C58.8843218,30.3538893 56.1962445,33.3333333 51.8588091,33.3333333 C47.4910382,33.3333333 44.8032883,30.3538893 44.8032883,25.6107196 C44.8032883,20.9283792 47.4910382,17.9487179 51.8588091,17.9487179 C56.1962445,17.9487179 58.8843218,20.9283792 58.8843218,25.6107196" id="Fill-1" fill="#1C2E3F"></path>
                        <path d="M67.0762184,29.8592223 C67.8227902,30.2274912 68.6920693,30.3812473 69.6247565,30.3812473 C72.0184944,30.3812473 73.3861543,28.6314766 73.3861543,25.6845578 C73.3861543,22.7680174 72.0184944,21.0184661 69.7179252,21.0184661 C67.3870401,21.0184661 66.1439754,22.9215542 66.1439754,25.5924358 L66.1439754,29.429429 L67.0762184,29.8592223 Z M65.3361055,19.8210987 C65.4593682,20.1587699 65.7084475,20.1282819 65.9262115,19.8519157 C67.1381829,18.5012309 68.5989005,17.9487179 70.2777152,17.9487179 C74.3493795,17.9487179 76.8056371,20.9262344 76.8056371,25.6844482 C76.8056371,30.5037477 74.1942463,33.4812641 69.8426315,33.4812641 C68.7238288,33.4812641 67.9158479,33.2972393 67.0140319,32.8982631 L66.1744024,32.5299942 L66.1744024,39.4060282 C66.1744024,39.6209797 66.0503625,39.7435897 65.8332648,39.7435897 L63.0666297,39.7435897 C62.8488657,39.7435897 62.7246036,39.6209797 62.7246036,39.4060282 L62.7246036,18.5932433 C62.7246036,18.3785112 62.8488657,18.2557915 63.0666297,18.2557915 L64.620516,18.2557915 C64.8383911,18.2557915 64.9632083,18.3479135 64.9933022,18.532048 L65.3361055,19.8210987 Z" id="Fill-3" fill="#1C2E3F"></path>
                        <path d="M90.9830748,31.4683565 C90.80229,31.0954944 90.6225787,31.1265847 90.2919272,31.4374882 C89.119617,32.8046864 87.6171921,33.3333333 86.1451485,33.3333333 C82.719362,33.3333333 80.645919,31.1266958 80.645919,27.4592559 L80.645919,18.2903787 C80.645919,18.0729683 80.7666927,17.9487179 80.9765705,17.9487179 L83.6503394,17.9487179 C83.8610761,17.9487179 83.9816351,18.0729683 83.9816351,18.2903787 L83.9816351,27.0861717 C83.9816351,29.0440865 84.9733751,30.2254087 86.5956076,30.2254087 C88.8196688,30.2254087 90.1112497,28.5467519 90.1112497,25.5322094 L90.1112497,18.2903787 C90.1112497,18.0729683 90.2319161,17.9487179 90.4417939,17.9487179 L93.1170657,17.9487179 C93.3269436,17.9487179 93.4468585,18.0729683 93.4468585,18.2903787 L93.4468585,32.680436 C93.4468585,32.8979574 93.3269436,33.0224298 93.1170657,33.0224298 L91.6134599,33.0224298 C91.4035821,33.0224298 91.2836672,32.9291588 91.2528565,32.7114153 L90.9830748,31.4683565 Z" id="Fill-5" fill="#1C2E3F"></path>
                        <path d="M101.12962,26.4620649 C98.6692341,25.8235693 97.5124958,24.5161633 97.5124958,22.327051 C97.5124958,19.5906879 99.4997428,17.9487179 102.938712,17.9487179 C104.272864,17.9487179 105.635932,18.1616222 106.614409,18.4352477 L107.919646,18.7697029 C108.126929,18.8304241 108.215583,18.9822813 108.156374,19.1951856 L107.533572,21.4755425 C107.474363,21.6884468 107.325759,21.7796915 107.118688,21.7188617 L105.814087,21.3539916 C105.01313,21.110781 103.827582,20.98923 102.938712,20.98923 C101.574161,20.98923 100.774051,21.5060661 100.774051,22.3269424 C100.774051,23.0262678 101.18957,23.4519677 102.108097,23.7254846 L105.072974,24.5160546 C107.652625,25.1848565 108.807986,26.5530924 108.807986,28.7423132 C108.807986,31.6004446 106.733356,33.3333333 103.235178,33.3333333 C101.693214,33.3333333 100.152096,33.1206463 98.6986795,32.6948377 L97.5426826,32.3604911 C97.334976,32.2996613 97.2453688,32.1476955 97.3055306,31.9348998 L97.9873294,29.6546515 C98.0466439,29.4721621 98.1951419,29.3808088 98.3726617,29.4416386 L99.4406402,29.745679 C100.56698,30.0800256 102.137966,30.2627322 103.235284,30.2627322 C104.68796,30.2627322 105.517727,29.6850664 105.517727,28.7424218 C105.517727,28.0125729 105.102737,27.5566754 104.124366,27.2525264 L101.12962,26.4620649 Z" id="Fill-7" fill="#1C2E3F"></path>
                        <path d="M18.9171406,34.6598908 C18.9150559,32.5376201 20.6408786,29.8284498 21.5330309,28.8289956 C22.4373624,27.8201528 22.9934352,26.491441 22.9917894,25.0324891 C22.9924477,23.6551965 22.5023181,22.3923144 21.6860936,21.4065066 C21.6375963,21.3417686 21.5856976,21.2782314 21.5301781,21.2160044 C20.3150032,19.9059607 18.9151656,17.8759389 18.9172504,15.3853275 C18.9151656,13.2616376 20.6409883,10.553559 21.5331406,9.55432314 C22.4374722,8.54569869 22.993545,7.2158952 22.9918991,5.75792576 C22.993545,2.61174672 20.4338325,0.0619650655 17.2739389,0.0499563319 L17.2728417,0.0489737991 C17.2697694,0.0483187773 17.2665875,0.0489737991 17.2628569,0.0499563319 C17.2590167,0.0489737991 17.2568222,0.0481004367 17.2533111,0.0477729258 L17.2527625,0.0499563319 C14.0941855,0.0605458515 11.5353509,2.61174672 11.5340342,5.75978166 C11.5341439,7.2180786 12.0893389,8.54340611 12.9953163,9.55377729 C13.8875784,10.5526856 15.6090121,13.2621834 15.612633,15.3845633 C15.6104385,17.8749563 14.2126856,19.9058515 12.9978399,21.2160044 C12.9595468,21.2583624 12.9299218,21.3047598 12.894262,21.3483188 C12.0475347,22.3428603 11.5345828,23.6277948 11.5340342,25.0337991 C11.5341439,26.4923144 12.0893389,27.8175328 12.9953163,28.8279039 C13.8875784,29.8270306 15.6090121,32.5375109 15.612633,34.6597817 C15.6104385,37.1495197 14.2126856,39.1800873 12.9978399,40.4905677 C12.0898876,41.5002838 11.5352411,42.8276856 11.5341439,44.289476 C11.532937,47.4354367 14.09243,49.9868559 17.2515555,49.9987555 L17.2526528,49.9995197 C17.2567125,49.9987555 17.2614306,49.9981004 17.2648319,49.9987555 C17.2673556,49.9987555 17.26955,49.9987555 17.2738292,50.0000655 L17.272732,49.9987555 C20.4337228,49.9868559 22.9912408,47.4359825 22.9921186,44.2889301 C22.9912408,42.8284498 22.4343999,41.5015939 21.5300684,40.4905677 C20.3148935,39.1801965 18.9150559,37.1502838 18.9171406,34.6598908" id="Fill-9" fill="#FF6800"></path>
                        <path d="M31.7448908,25.6394927 C31.7436773,23.510171 33.4779601,20.7933066 34.3752197,19.7910023 C35.2838427,18.780267 35.8430717,17.4465256 35.8426304,15.9833628 C35.8430717,12.8280861 33.269449,10.2702064 30.0925782,10.2586001 L30.0916957,10.2586001 C30.088386,10.2572862 30.0848556,10.2580527 30.0817666,10.2586001 C30.0779052,10.2586001 30.0751472,10.2564103 30.0718375,10.2564103 L30.0718375,10.2586001 C26.8949667,10.2693305 24.3221163,12.8280861 24.3217853,15.9855527 C24.3217853,17.448168 24.880242,18.7767632 25.7905199,19.7905643 C26.6871176,20.7929781 28.418532,23.5100615 28.421621,25.6391643 C28.4201868,28.135837 27.0135643,30.1740601 25.7936089,31.4877642 C24.880904,32.5004704 24.3227782,33.8322409 24.3217853,35.2978125 C24.3209027,38.4536367 26.8944151,41.0123923 30.0708445,41.0238891 L30.0711755,41.0252031 C30.0750368,41.0238891 30.0803324,41.0227942 30.0834214,41.0232322 C30.0854072,41.0238891 30.0881653,41.0244366 30.0924679,41.025641 L30.0915853,41.0237796 C33.2693386,41.0123923 35.8416375,38.4535272 35.8425201,35.2963891 C35.8416375,33.8321314 35.2816362,32.5015653 34.3720204,31.4876547 C33.151072,30.1734032 31.7436773,28.1376984 31.7448908,25.6394927" id="Fill-12" fill="#FF6800"></path>
                        <path d="M7.42337309,25.639438 C7.42204926,23.5101238 9.15648635,20.7932691 10.0534911,19.7909684 C10.9621896,18.7802367 11.5212868,17.4465 11.520294,15.9833424 C11.5211765,12.828077 8.94820386,10.2702064 5.77145469,10.2586001 L5.77013087,10.2586001 C5.7662697,10.2572862 5.76373236,10.2580527 5.75987119,10.2586001 C5.7564513,10.2586001 5.75369332,10.2564103 5.7507147,10.2564103 L5.75016311,10.2586001 C2.57396554,10.2694399 0.000882552901,12.828077 0,15.9856418 C0.00044127645,17.4482519 0.558435348,18.7768424 1.46867835,19.7906399 C2.3665656,20.7930501 4.09681057,23.5101238 4.10067173,25.639219 C4.09879631,28.1358829 2.6926689,30.1740987 1.47143632,31.4877981 C0.559207582,32.5005007 0.000992872013,33.8322665 0.00044127645,35.2978329 C0,38.4537553 2.57231075,41.0125018 5.74883928,41.0238891 L5.75016311,41.0252031 C5.75369332,41.0238891 5.75865768,41.0227942 5.76240853,41.0232322 C5.76450459,41.0238891 5.7662697,41.0244366 5.77145469,41.025641 L5.77013087,41.0237796 C8.94820386,41.0123923 11.520294,38.4535363 11.5208456,35.2964095 C11.520294,33.832157 10.9603142,32.5015956 10.0507331,31.4875791 C8.82983145,30.1733323 7.42204926,28.1376348 7.42337309,25.639438" id="Fill-14" fill="#FF6800"></path>
                    </g>
                </g>
            </g>
        </g>
    </g>
</svg>