<?xml version="1.0" encoding="UTF-8"?> <svg xmlns="http://www.w3.org/2000/svg" xmlns:xlink="http://www.w3.org/1999/xlink" width="442px" height="363px" viewBox="0 0 442 363"> <!-- Generator: Sketch 46.2 (44496) - http://www.bohemiancoding.com/sketch --> <title>17-22_v04</title> <desc>Created with Sketch.</desc> <defs></defs> <g id="Page-1" stroke="none" stroke-width="1" fill="none" fill-rule="evenodd"> <g id="17-22_v04" transform="translate(1.000000, 0.000000)"> <path d="M318.5,158.4 C311.7,158.6 292.1,162.4 279.6,165.2" id="Shape_27_" fill="#D1D3D4" fill-rule="nonzero"></path> <path d="M301.8,112.3 L267.6,132 C296.2,182.1 278.9,245.7 228.8,274.3 C178.7,302.9 115.1,285.6 86.5,235.5 C57.9,185.4 75.2,121.8 125.3,93.2 C141.1,84.2 158.9,79.5 177.1,79.5 L177.1,79.5 L177.1,40 L177.1,40 C97.7,40 33.4,104.4 33.4,183.7 C33.4,263.1 97.8,327.4 177.2,327.4 C256.6,327.4 320.8,263 320.8,183.5 C320.7,158.6 314.1,134 301.8,112.3 L301.8,112.3 Z" id="Shape_26_" fill="#D1D3D4" fill-rule="nonzero"></path> <circle id="Oval_5_" stroke="#0094C7" stroke-width="1.6854" stroke-dasharray="3.371,6.7419" cx="177" cy="185" r="177"></circle> <path d="M318.6,159.1 L177,184.3" id="Shape_25_" stroke="#FF6800" stroke-width="2.5283" stroke-linejoin="round"></path> <path d="M265.6,168.5 L318.6,159 C306.6,90.3 246.8,40 177,40 L177,93.7 C220.8,93.8 258.1,125.4 265.6,168.5 Z" id="Shape_24_" stroke="#FF6800" stroke-width="2.5283" fill="#F49758" fill-rule="nonzero" stroke-linejoin="round"></path> <path d="M267.6,132 L301.8,112.2 C276.2,67.5 228.5,40 177,40 L177,79.4 C214.5,79.4 249,99.5 267.6,132 Z" id="Shape_23_" stroke="#0094C7" stroke-width="2.5283" fill="#5BB4D8" fill-rule="nonzero" stroke-linecap="round" stroke-linejoin="round"></path> <polyline id="Shape_22_" stroke="#0094C7" stroke-width="2.5283" stroke-linecap="round" stroke-linejoin="round" points="301.5 111.9 177 184.3 177 184.3 177 40.6"></polyline> <g id="Group_4_" transform="translate(347.000000, 0.000000)" fill-rule="nonzero" fill="#F2F2F2"> <path d="M0.7,13.7 L0.7,12.7 C1.4,11.9 2.2,11 2.9,10.3 C3.6,9.6 4.2,8.7 4.7,8 C5.1,7.6 5.3,7.2 5.5,6.8 C5.7,6.4 6,6.1 6.1,5.7 C6.2,5.3 6.5,5.1 6.5,4.7 C6.6,4.3 6.6,4.1 6.6,3.7 C6.6,3 6.4,2.4 6,2 C5.6,1.6 5,1.4 4.4,1.4 C3.2,1.4 2.2,2.1 1.4,3.5 L0.1,2.8 C0.6,2 1.2,1.2 1.9,0.7 C2.6,0.2 3.5,0 4.6,0 C5.2,0 5.7,0.1 6.2,0.2 C6.6,0.4 7,0.6 7.4,1 C7.8,1.4 8,1.7 8.1,2.1 C8.2,2.5 8.3,3.1 8.3,3.6 C8.3,4.4 8.1,5.3 7.7,6 C7.2,6.7 6.7,7.6 6.1,8.3 C5.6,9 5,9.6 4.4,10.2 C3.8,10.8 3.3,11.4 2.7,12.1 L8.5,12.1 L8.5,13.4 L0.6,13.4 L0.6,13.7 L0.7,13.7 Z" id="Shape_21_"></path> <path d="M13.4,13.5 C12.8,13.1 12.3,12.5 11.9,11.9 C11.5,11.3 11.2,10.4 11.1,9.7 C10.9,8.9 10.9,8 10.9,7.2 C10.9,6.4 11,5.5 11.1,4.7 C11.3,3.9 11.6,3.1 11.9,2.5 C12.3,1.9 12.7,1.3 13.4,0.9 C14,0.5 14.7,0.3 15.6,0.3 C16.4,0.3 17.2,0.5 17.8,0.9 C18.4,1.3 18.9,1.9 19.3,2.5 C19.7,3.1 20,4 20.1,4.7 C20.3,5.5 20.3,6.4 20.3,7.2 C20.3,8 20.2,8.9 20.1,9.7 C19.9,10.5 19.6,11.3 19.3,11.9 C18.9,12.5 18.5,13.1 17.8,13.5 C17.2,13.9 16.5,14.1 15.6,14.1 C14.8,14.1 14,13.8 13.4,13.5 Z M13.2,10.8 C13.4,11.3 13.8,11.8 14.2,12.1 C14.6,12.5 15,12.6 15.7,12.6 C16.2,12.6 16.7,12.5 17.2,12.1 C17.6,11.7 17.9,11.4 18.2,10.8 C18.4,10.3 18.7,9.7 18.8,9 C18.9,8.4 19,7.7 19,6.9 C19,6.2 19,5.6 18.9,5 C18.8,4.4 18.7,3.8 18.3,3.3 C18.1,2.8 17.7,2.3 17.3,2.1 C16.9,1.7 16.5,1.6 15.8,1.6 C15.2,1.6 14.8,1.7 14.3,2.1 C13.9,2.5 13.6,2.8 13.3,3.3 C13.1,3.8 12.8,4.4 12.7,5 C12.6,5.6 12.6,6.3 12.6,6.9 C12.6,7.6 12.6,8.2 12.8,9 C12.7,9.7 13,10.3 13.2,10.8 Z" id="Shape_20_"></path> <polygon id="Shape_19_" points="26.4 13.7 26.4 2.2 23.4 4.1 22.6 3 26.6 0.4 28.1 0.4 28.1 13.7"></polygon> <polygon id="Shape_18_" points="35.1 13.7 40.1 1.7 32.7 1.7 32.7 0.4 41.9 0.4 41.9 1.4 36.8 13.7"></polygon> </g> <g id="Group_3_" transform="translate(398.000000, 111.000000)" fill-rule="nonzero" fill="#F2F2F2"> <path d="M1.4,13.7 L1.4,12.7 C2.1,11.9 2.9,11 3.6,10.3 C4.3,9.6 4.9,8.7 5.4,8 C5.8,7.6 6,7.2 6.2,6.8 C6.4,6.4 6.7,6.1 6.8,5.7 C6.9,5.3 7.2,5.1 7.2,4.7 C7.3,4.3 7.3,4.1 7.3,3.7 C7.3,3 7.1,2.4 6.7,2 C6.3,1.6 5.7,1.4 5.1,1.4 C3.9,1.4 2.9,2.1 2.1,3.5 L0.8,2.8 C1.3,2 1.9,1.2 2.6,0.7 C3.3,0.2 4.2,3.55271368e-15 5.3,3.55271368e-15 C5.9,3.55271368e-15 6.4,0.1 6.9,0.2 C7.4,0.3 7.7,0.6 8.1,0.9 C8.5,1.3 8.7,1.6 8.8,2 C9,2.5 9,3 9,3.5 C9,4.3 8.8,5.2 8.4,5.9 C7.9,6.6 7.4,7.5 6.8,8.2 C6.3,8.9 5.7,9.5 5.1,10.1 C4.5,10.7 4,11.3 3.4,12 L9.2,12 L9.2,13.3 L1.3,13.3 L1.3,13.7 L1.4,13.7 Z" id="Shape_10_"></path> <path d="M14,13.5 C13.4,13.1 12.9,12.5 12.5,11.9 C12.1,11.3 11.8,10.4 11.7,9.7 C11.5,8.9 11.5,8 11.5,7.2 C11.5,6.4 11.6,5.5 11.7,4.7 C11.9,3.9 12.2,3.1 12.5,2.5 C12.9,1.9 13.3,1.3 14,0.9 C14.6,0.5 15.3,0.3 16.2,0.3 C17,0.3 17.8,0.5 18.4,0.9 C19,1.3 19.5,1.9 19.9,2.5 C20.3,3.1 20.6,4 20.7,4.7 C20.9,5.5 20.9,6.4 20.9,7.2 C20.9,8 20.8,8.9 20.7,9.7 C20.5,10.5 20.2,11.3 19.9,11.9 C19.5,12.5 19.1,13.1 18.4,13.5 C17.8,13.9 17.1,14.1 16.2,14.1 C15.3,14.1 14.6,13.9 14,13.5 Z M13.7,10.8 C13.9,11.3 14.3,11.8 14.7,12.1 C15.1,12.5 15.5,12.6 16.2,12.6 C16.7,12.6 17.2,12.5 17.7,12.1 C18.1,11.7 18.4,11.4 18.7,10.8 C18.9,10.3 19.2,9.7 19.3,9 C19.4,8.4 19.5,7.7 19.5,6.9 C19.5,6.1 19.5,5.6 19.4,5 C19.3,4.4 19.2,3.8 18.8,3.3 C18.4,2.8 18.2,2.3 17.8,2.1 C17.4,1.7 17,1.6 16.3,1.6 C15.6,1.6 15.3,1.7 14.8,2.1 C14.4,2.5 14.1,2.8 13.8,3.3 C13.6,3.8 13.3,4.4 13.2,5 C13.1,5.6 13.1,6.3 13.1,6.9 C13.1,7.6 13.2,8.2 13.3,9 C13.4,9.7 13.5,10.4 13.7,10.8 Z" id="Shape_11_"></path> <polygon id="Shape_12_" points="27.1 13.7 27.1 2.3 24 4.3 23.2 3.2 27.2 0.5 28.6 0.5 28.6 13.9 27.1 13.9"></polygon> <path d="M41.1,1.5 C40.5,1.6 40,1.7 39.4,2.1 C38.9,2.3 38.3,2.7 37.9,3.1 C37.4,3.5 37.1,3.9 36.7,4.4 C36.3,4.9 36.1,5.4 35.9,6 C36.3,5.8 36.6,5.6 37.1,5.4 C37.6,5.2 37.9,5.2 38.4,5.2 C39,5.2 39.6,5.3 40.1,5.6 C40.6,5.8 40.9,6.2 41.3,6.6 C41.7,7 41.9,7.4 42,8.1 C42.1,8.6 42.2,9.2 42.2,9.8 C42.2,10.4 42.1,11 42,11.5 C41.8,12 41.5,12.5 41.2,13 C40.8,13.4 40.4,13.7 39.9,14 C39.4,14.3 38.8,14.4 38.2,14.4 C37.5,14.4 36.7,14.3 36.3,13.9 C35.7,13.5 35.3,13.2 35,12.7 C34.7,12.2 34.4,11.6 34.3,11 C34.2,10.4 34.1,9.7 34.1,9.1 C34.1,8 34.2,7 34.6,6.1 C35,5.1 35.3,4.3 35.9,3.6 C36.5,2.9 37.2,2.3 38.1,1.8 C38.9,1.3 39.9,1 40.9,0.8 L41.1,1.5 Z M36.8,6.7 C36.4,6.8 36.1,7.1 35.7,7.3 C35.6,7.8 35.6,8.3 35.6,8.8 C35.6,9.3 35.6,9.6 35.7,10.1 C35.8,10.6 35.9,10.9 36.2,11.4 C36.4,11.8 36.7,12.1 37,12.4 C37.4,12.6 37.8,12.8 38.3,12.8 C38.7,12.8 39,12.7 39.4,12.6 C39.8,12.5 40,12.2 40.2,11.9 C40.4,11.7 40.6,11.3 40.7,10.9 C40.8,10.5 40.8,10.2 40.8,9.8 C40.8,9.4 40.8,9 40.7,8.6 C40.6,8.2 40.5,7.9 40.2,7.6 C40,7.4 39.7,7.1 39.4,6.9 C39,6.8 38.7,6.7 38.2,6.7 C37.6,6.5 37.2,6.6 36.8,6.7 Z" id="Shape_13_"></path> </g> <polyline id="Shape_14_" stroke="#0094C7" stroke-width="1.2641" stroke-linecap="round" stroke-linejoin="round" points="338.5 8 289 8 233.9 70.2"></polyline> <polygon id="Shape_15_" fill="#FFFFFF" fill-rule="nonzero" points="234.3 70.7 233.4 69.8 245.6 56 246.8 56.6"></polygon> <polyline id="Shape_16_" stroke="#FF6800" stroke-width="1.2641" stroke-linecap="round" stroke-linejoin="round" points="388 118.8 321.6 118.8 296.4 143.7"></polyline> <polygon id="Shape_17_" fill="#FFFFFF" fill-rule="nonzero" points="296.8 144.1 295.9 143.2 311 128.4 311.6 129.6"></polygon> <circle id="Oval_4_" stroke="#FF6800" stroke-width="1.2641" fill="#FFFFFF" fill-rule="nonzero" stroke-linejoin="round" cx="296.4" cy="143.7" r="5.3"></circle> <circle id="Oval_3_" stroke="#0094C7" stroke-width="1.2641" fill="#FFFFFF" fill-rule="nonzero" stroke-linecap="round" stroke-linejoin="round" cx="233.9" cy="70.2" r="5.3"></circle> </g> </g> </svg> 