<?xml version="1.0" encoding="UTF-8"?> <svg xmlns="http://www.w3.org/2000/svg" xmlns:xlink="http://www.w3.org/1999/xlink" width="345px" height="301px" viewBox="0 0 345 301"> <!-- Generator: Sketch 46.2 (44496) - http://www.bohemiancoding.com/sketch --> <title>49-56</title> <desc>Created with Sketch.</desc> <defs></defs> <g id="Page-1" stroke="none" stroke-width="1" fill="none" fill-rule="evenodd"> <g id="49-56" transform="translate(1.000000, -5.000000)"> <circle id="Oval" stroke="#0094C7" stroke-width="1.4041" stroke-dasharray="2.8081,5.6162" cx="147.9" cy="157.2" r="147.4"></circle> <path d="M155.2,276.3 L147.9,156.7" id="Shape" stroke="#FF6800" stroke-width="2.1061" stroke-linecap="round" stroke-linejoin="round"></path> <path d="M60.9,156.9 C60.9,108.9 99.8,70 147.8,70 C147.8,70 147.9,70 147.9,70 L147.9,37.3 C147.9,37.3 147.8,37.3 147.8,37.3 C81.7,37.3 28.2,90.9 28.2,156.9 C28.2,207.5 59.6,250.8 104,268.2 L116,237.8 C83.7,225.1 60.9,193.7 60.9,156.9 Z" id="Shape" fill="#D1D3D4" fill-rule="nonzero"></path> <path d="M267.4,156.9 C267.4,90.9 213.9,37.3 147.9,37.3 L147.9,83.3 C187.2,83.3 221.4,114.8 221.4,156.9 C221.4,196.1 190.9,227.6 152.5,230.3 L155.2,276.2 C217.8,272.5 267.4,220.5 267.4,156.9 Z" id="Shape" stroke="#FF6800" stroke-width="2.1061" fill="#F49758" fill-rule="nonzero" stroke-linejoin="round"></path> <polyline id="Shape" stroke="#0094C7" stroke-width="2.1061" stroke-linecap="round" stroke-linejoin="round" points="104 268.2 147.9 156.7 147.9 156.7 147.9 37.3"></polyline> <path d="M147.9,37.3 L147.9,70 C195.9,70.1 234.7,108.9 234.7,156.9 C234.7,204.9 195.8,243.8 147.8,243.8 C136.6,243.8 125.8,241.7 116,237.8 L104,268.2 C117.6,273.5 132.3,276.5 147.8,276.5 C213.9,276.5 267.4,222.9 267.4,156.9 C267.4,90.9 213.9,37.3 147.9,37.3 Z" id="Shape" stroke="#0094C7" stroke-width="2.1061" fill="#5BB4D8" fill-rule="nonzero" stroke-linecap="round" stroke-linejoin="round"></path> <g id="Group" transform="translate(196.000000, 204.000000)"> <text id="2016" fill="#D1D3D4" font-family="Helvetica" font-size="16.8487" font-weight="normal"> <tspan x="111.2666" y="51.0088">2016</tspan> </text> <polyline id="Shape" stroke="#FF6800" stroke-width="1.053" stroke-linecap="round" stroke-linejoin="round" points="101.8 45.7 46.5 45.7 7.1 6.6"></polyline> <polygon id="Shape" fill="#FFFFFF" fill-rule="nonzero" points="9.4 8.1 8.7 8.9 37.7 37.7 38.4 36.9"></polygon> <circle id="Oval" stroke="#FF6800" stroke-width="1.053" fill="#FFFFFF" fill-rule="nonzero" stroke-linejoin="round" cx="5.3" cy="5.2" r="4.5"></circle> </g> <g id="Group" transform="translate(192.000000, 0.000000)"> <text id="2017" fill="#D1D3D4" font-family="Helvetica" font-size="16.8487" font-weight="normal"> <tspan x="89.5664" y="16.5327">2017</tspan> </text> <polyline id="Shape" stroke="#0094C7" stroke-width="1.053" stroke-linecap="round" stroke-linejoin="round" points="83.2 11.8 51.1 11.8 5.1 63.6"></polyline> <polygon id="Shape" fill="#FFFFFF" fill-rule="nonzero" points="5.5 63.9 4.8 63.2 14.9 51.7 15.9 52.3"></polygon> <circle id="Oval" stroke="#0094C7" stroke-width="1.053" fill="#FFFFFF" fill-rule="nonzero" stroke-linecap="round" stroke-linejoin="round" cx="5.1" cy="63.6" r="4.5"></circle> </g> </g> </g> </svg> 