<?xml version="1.0" encoding="UTF-8"?> <svg xmlns="http://www.w3.org/2000/svg" xmlns:xlink="http://www.w3.org/1999/xlink" width="418px" height="364px" viewBox="0 0 418 364"> <!-- Generator: Sketch 46.2 (44496) - http://www.bohemiancoding.com/sketch --> <title>49-56_v02</title> <desc>Created with Sketch.</desc> <defs></defs> <g id="Page-1" stroke="none" stroke-width="1" fill="none" fill-rule="evenodd"> <g id="49-56_v02" transform="translate(1.000000, 0.000000)"> <circle id="Oval_5_" stroke="#0094C7" stroke-width="1.6947" stroke-dasharray="3.3893,6.7786" cx="178.3" cy="184.5" r="177.9"></circle> <path d="M187.1,328.3 L178.3,183.9" id="Shape_18_" stroke="#FF6800" stroke-width="2.542" stroke-linecap="round" stroke-linejoin="round"></path> <path d="M73.3,184.1 C73.3,126.2 120.3,79.2 178.2,79.2 L178.3,79.2 L178.3,39.8 L178.2,39.8 C98.4,39.8 33.8,104.5 33.8,184.2 C33.8,245.3 71.7,297.5 125.3,318.5 L139.8,281.8 C100.8,266.5 73.3,228.6 73.3,184.1 Z" id="Shape_17_" fill="#D1D3D4" fill-rule="nonzero"></path> <path d="M322.5,184.1 C322.5,104.4 257.9,39.7 178.3,39.7 L178.3,95.2 C225.7,95.2 267,133.2 267,184 C267,231.3 230.2,269.3 183.8,272.6 L187.1,328 C262.6,323.7 322.5,260.9 322.5,184.1 Z" id="Shape_16_" stroke="#FF6800" stroke-width="2.542" fill="#F49758" fill-rule="nonzero" stroke-linejoin="round"></path> <polyline id="Shape_15_" stroke="#0094C7" stroke-width="2.542" stroke-linecap="round" stroke-linejoin="round" points="125.3 318.5 178.3 183.9 178.3 183.9 178.3 39.8"></polyline> <path d="M178.3,39.8 L178.3,79.3 C236.2,79.4 283.1,126.3 283.1,184.2 C283.1,242.1 236.1,289 178.2,289 C164.7,289 151.6,286.5 139.8,281.8 L125.3,318.5 C141.7,324.9 159.5,328.5 178.2,328.5 C258,328.5 322.6,263.8 322.6,184.1 C322.6,104.4 257.9,39.8 178.3,39.8 Z" id="Shape_14_" stroke="#0094C7" stroke-width="2.542" fill="#5BB4D8" fill-rule="nonzero" stroke-linecap="round" stroke-linejoin="round"></path> <g id="Group_4_" transform="translate(237.000000, 241.000000)"> <g id="Group" transform="translate(134.000000, 47.000000)" fill-rule="nonzero" fill="#D1D3D4"> <path d="M1.2,14.6 L1.2,13.6 C1.9,12.7 2.7,11.9 3.3,11.1 C3.9,10.3 4.6,9.6 5.2,8.8 C5.5,8.4 5.8,8 6.1,7.6 C6.4,7.2 6.6,6.9 6.8,6.6 C7,6.3 7.1,5.9 7.2,5.6 C7.3,5.3 7.3,4.9 7.3,4.6 C7.3,3.8 7.1,3.2 6.7,2.8 C6.3,2.4 5.8,2.2 5.1,2.2 C3.9,2.2 2.9,2.9 2.1,4.2 L0.8,3.4 C1.3,2.5 1.9,1.9 2.6,1.4 C3.3,0.9 4.2,0.7 5.2,0.7 C5.8,0.7 6.3,0.8 6.8,1 C7.3,1.2 7.7,1.4 8,1.7 C8.3,2 8.6,2.4 8.8,2.8 C9,3.2 9.1,3.7 9.1,4.3 C9.1,5.2 8.9,6 8.4,6.8 C8,7.6 7.5,8.3 6.9,9.1 C6.4,9.8 5.8,10.5 5.3,11.1 C4.7,11.7 4.2,12.4 3.6,13 L9.5,13 L9.5,14.4 L1.2,14.4 L1.2,14.6 Z" id="Shape"></path> <path d="M14.9,14.2 C14.3,13.8 13.8,13.3 13.4,12.6 C13,11.9 12.7,11.2 12.5,10.4 C12.3,9.6 12.2,8.7 12.2,7.8 C12.2,6.9 12.3,6.1 12.5,5.2 C12.7,4.4 13,3.6 13.4,3 C13.8,2.3 14.3,1.8 14.9,1.4 C15.5,1 16.2,0.8 17.1,0.8 C17.9,0.8 18.6,1 19.3,1.4 C19.9,1.8 20.4,2.3 20.8,3 C21.2,3.7 21.5,4.4 21.7,5.2 C21.9,6 22,6.9 22,7.8 C22,8.7 21.9,9.5 21.7,10.4 C21.5,11.2 21.2,12 20.8,12.6 C20.4,13.3 19.9,13.8 19.3,14.2 C18.7,14.6 18,14.8 17.1,14.8 C16.3,14.8 15.6,14.6 14.9,14.2 Z M14.7,11.6 C15,12.1 15.3,12.6 15.7,12.9 C16.1,13.2 16.6,13.4 17.1,13.4 C17.6,13.4 18.1,13.2 18.5,12.9 C18.9,12.6 19.2,12.1 19.5,11.6 C19.7,11.1 19.9,10.5 20.1,9.8 C20.3,9.1 20.3,8.5 20.3,7.8 C20.3,7.1 20.2,6.5 20.1,5.8 C20,5.1 19.8,4.6 19.5,4 C19.2,3.5 18.9,3.1 18.5,2.7 C18.1,2.4 17.6,2.2 17.1,2.2 C16.5,2.2 16.1,2.4 15.7,2.7 C15.3,3 15,3.4 14.7,4 C14.4,4.6 14.3,5.1 14.1,5.8 C14,6.5 13.9,7.1 13.9,7.8 C13.9,8.5 14,9.1 14.1,9.8 C14.2,10.5 14.5,11.1 14.7,11.6 Z" id="Shape"></path> <polygon id="Shape" points="29.1 14.6 29.1 3 26 5 25.2 3.9 29.3 1.2 30.7 1.2 30.7 14.6 29.1 14.6"></polygon> <path d="M44.2,2.2 C43.6,2.3 43.1,2.5 42.5,2.7 C42,3 41.5,3.3 41,3.7 C40.5,4.1 40.1,4.5 39.8,5 C39.5,5.5 39.2,6 39,6.6 C39.4,6.4 39.7,6.2 40.2,6.1 C40.7,6 41.1,5.9 41.5,5.9 C42.1,5.9 42.7,6 43.2,6.3 C43.7,6.5 44.1,6.9 44.5,7.3 C44.9,7.7 45.1,8.2 45.3,8.7 C45.5,9.2 45.6,9.8 45.6,10.4 C45.6,11 45.5,11.6 45.3,12.1 C45.1,12.6 44.8,13.1 44.5,13.5 C44.1,13.9 43.7,14.2 43.2,14.5 C42.7,14.7 42.1,14.9 41.5,14.9 C40.7,14.9 40.1,14.7 39.5,14.4 C38.9,14.1 38.5,13.7 38.1,13.2 C37.7,12.7 37.5,12.1 37.3,11.5 C37.1,10.9 37,10.2 37,9.5 C37,8.4 37.2,7.4 37.5,6.4 C37.8,5.4 38.3,4.6 38.9,3.8 C39.5,3.1 40.2,2.4 41.1,1.9 C41.9,1.4 42.9,1.1 44,0.9 L44.2,2.2 Z M39.9,7.4 C39.5,7.5 39.1,7.7 38.8,8 C38.7,8.5 38.7,8.9 38.7,9.4 C38.7,9.8 38.7,10.3 38.8,10.8 C38.9,11.3 39,11.7 39.2,12.1 C39.4,12.5 39.7,12.8 40,13.1 C40.4,13.4 40.8,13.5 41.3,13.5 C41.7,13.5 42.1,13.4 42.4,13.2 C42.7,13 43,12.8 43.2,12.5 C43.4,12.2 43.6,11.9 43.7,11.5 C43.8,11.1 43.9,10.8 43.9,10.4 C43.9,10 43.8,9.6 43.7,9.2 C43.6,8.8 43.4,8.5 43.2,8.2 C43,7.9 42.7,7.7 42.4,7.5 C42.1,7.3 41.7,7.2 41.2,7.2 C40.8,7.2 40.3,7.3 39.9,7.4 Z" id="Shape"></path> </g> <polyline id="Shape_13_" stroke="#FF6800" stroke-width="1.2709" stroke-linecap="round" stroke-linejoin="round" points="122.2 55.1 55.5 55.1 7.9 8"></polyline> <polygon id="Shape_12_" fill="#FFFFFF" fill-rule="nonzero" points="10.7 9.8 9.8 10.7 44.8 45.5 45.7 44.5"></polygon> <circle id="Oval_4_" stroke="#FF6800" stroke-width="1.2709" fill="#FFFFFF" fill-rule="nonzero" stroke-linejoin="round" cx="5.7" cy="6.3" r="5.4"></circle> </g> <g id="Group_3_" transform="translate(232.000000, 0.000000)"> <g id="Group" transform="translate(108.000000, 0.000000)" fill-rule="nonzero" fill="#D1D3D4"> <path d="M1.1,14.7 L1.1,13.7 C1.8,12.8 2.6,12 3.2,11.2 C3.9,10.4 4.5,9.7 5.1,8.9 C5.4,8.5 5.7,8.1 6,7.7 C6.3,7.3 6.5,7 6.7,6.7 C6.9,6.4 7,6 7.1,5.7 C7.2,5.4 7.2,5 7.2,4.7 C7.2,3.9 7,3.3 6.6,2.9 C6.2,2.5 5.7,2.3 5,2.3 C3.8,2.3 2.8,3 2,4.3 L0.7,3.5 C1.2,2.6 1.8,2 2.5,1.5 C3.2,1 4.1,0.8 5.1,0.8 C5.7,0.8 6.2,0.9 6.7,1.1 C7.2,1.3 7.6,1.5 7.9,1.8 C8.2,2.1 8.5,2.5 8.7,2.9 C8.9,3.3 9,3.8 9,4.4 C9,5.3 8.8,6.1 8.3,6.9 C7.9,7.7 7.4,8.4 6.8,9.2 C6.3,9.9 5.7,10.6 5.2,11.2 C4.6,11.8 4.1,12.5 3.5,13.1 L9.4,13.1 L9.4,14.5 L1.1,14.5 L1.1,14.7 Z" id="Shape"></path> <path d="M14.9,14.4 C14.3,14 13.8,13.5 13.4,12.8 C13,12.1 12.7,11.4 12.5,10.6 C12.3,9.8 12.2,8.9 12.2,8 C12.2,7.1 12.3,6.3 12.5,5.4 C12.7,4.6 13,3.8 13.4,3.2 C13.8,2.5 14.3,2 14.9,1.6 C15.5,1.2 16.2,1 17.1,1 C17.9,1 18.6,1.2 19.3,1.6 C19.9,2 20.4,2.5 20.8,3.2 C21.2,3.9 21.5,4.6 21.7,5.4 C21.9,6.2 22,7.1 22,8 C22,8.9 21.9,9.7 21.7,10.6 C21.5,11.4 21.2,12.2 20.8,12.8 C20.4,13.5 19.9,14 19.3,14.4 C18.7,14.8 18,15 17.1,15 C16.3,15 15.5,14.8 14.9,14.4 Z M14.7,11.8 C15,12.3 15.3,12.8 15.7,13.1 C16.1,13.4 16.6,13.6 17.1,13.6 C17.6,13.6 18.1,13.4 18.5,13.1 C18.9,12.8 19.2,12.3 19.5,11.8 C19.7,11.3 19.9,10.7 20.1,10 C20.3,9.3 20.3,8.7 20.3,8 C20.3,7.3 20.2,6.7 20.1,6 C20,5.3 19.8,4.8 19.5,4.2 C19.2,3.7 18.9,3.3 18.5,2.9 C18.1,2.6 17.6,2.4 17.1,2.4 C16.5,2.4 16.1,2.6 15.7,2.9 C15.3,3.2 15,3.6 14.7,4.2 C14.4,4.8 14.3,5.3 14.1,6 C14,6.7 13.9,7.3 13.9,8 C13.9,8.7 14,9.3 14.1,10 C14.2,10.7 14.5,11.3 14.7,11.8 Z" id="Shape"></path> <polygon id="Shape" points="29.1 14.7 29.1 3.1 26 5.1 25.2 4 29.3 1.3 30.7 1.3 30.7 14.7 29.1 14.7"></polygon> <polygon id="Shape" points="38.9 14.7 43.9 2.7 36.5 2.7 36.5 1.3 45.8 1.3 45.8 2.4 40.7 14.7"></polygon> </g> <polyline id="Shape_11_" stroke="#0094C7" stroke-width="1.2709" stroke-linecap="round" stroke-linejoin="round" points="99.9 9 61.2 9 5.7 71.5"></polyline> <polygon id="Shape_10_" fill="#FFFFFF" fill-rule="nonzero" points="6.1 71.9 5.3 71 17.5 57.2 18.7 57.9"></polygon> <circle id="Oval_3_" stroke="#0094C7" stroke-width="1.2709" fill="#FFFFFF" fill-rule="nonzero" stroke-linecap="round" stroke-linejoin="round" cx="5.7" cy="71.5" r="5.4"></circle> </g> </g> </g> </svg> 