<?xml version="1.0" encoding="UTF-8"?> <svg xmlns="http://www.w3.org/2000/svg" xmlns:xlink="http://www.w3.org/1999/xlink" width="356px" height="356px" viewBox="0 0 356 356"> <!-- Generator: Sketch 46.2 (44496) - http://www.bohemiancoding.com/sketch --> <title>57</title> <desc>Created with Sketch.</desc> <defs></defs> <g id="Page-1" stroke="none" stroke-width="1" fill="none" fill-rule="evenodd"> <g id="57" transform="translate(1.000000, 1.000000)"> <circle id="Oval" stroke="#0094C7" stroke-width="1.6793" stroke-dasharray="3.3586,6.7172" cx="177" cy="176.9" r="176.3"></circle> <polyline id="Shape" stroke="#0094C7" stroke-width="2.5189" stroke-linecap="round" stroke-linejoin="round" points="116.4 306.1 177 176.2 177 176.2 177 33.1"></polyline> <g id="Group" transform="translate(33.000000, 33.000000)" fill-rule="nonzero"> <path d="M40.1,143.3 C40.1,85.9 86.6,39.4 144,39.4 L144,0.1 C64.9,0.1 0.8,64.2 0.8,143.3 C0.8,200.7 34.6,250.2 83.3,273 L99.9,237.4 C64.6,220.9 40.1,185 40.1,143.3 Z" id="Shape" fill="#D1D3D4"></path> <path d="M144.1,0.1 C144.1,0.1 144,0.1 144.1,0.1 L144.1,39.4 C144.1,39.4 144.1,39.4 144.1,39.4 C201.5,39.4 248,85.9 248,143.3 C248,200.7 201.5,247.2 144.1,247.2 C128.3,247.2 113.4,243.7 100,237.4 L83.4,273 C101.8,281.6 122.4,286.5 144.1,286.5 C223.2,286.5 287.3,222.4 287.3,143.3 C287.3,64.2 223.2,0.1 144.1,0.1 Z" id="Shape" stroke="#0094C7" stroke-width="2.5189" fill="#5BB4D8" stroke-linecap="round" stroke-linejoin="round"></path> </g> </g> </g> </svg> 