<?xml version="1.0" encoding="UTF-8"?> <svg xmlns="http://www.w3.org/2000/svg" xmlns:xlink="http://www.w3.org/1999/xlink" width="575px" height="386px" viewBox="0 0 575 386"> <!-- Generator: Sketch 46.2 (44496) - http://www.bohemiancoding.com/sketch --> <title>57_v04</title> <desc>Created with Sketch.</desc> <defs></defs> <g id="Page-1" stroke="none" stroke-width="1" fill="none" fill-rule="evenodd"> <g id="57_v04"> <g id="Group_6_" transform="translate(138.000000, 33.000000)"> <circle id="Oval_5_" stroke="#0094C7" stroke-width="1.674" stroke-dasharray="3.3479,6.6958" cx="176.4" cy="175.8" r="175.8"></circle> <polyline id="Shape_14_" stroke="#0094C7" stroke-width="2.511" stroke-linecap="round" stroke-linejoin="round" points="115.9 304.6 176.4 175 176.4 175 176.4 32.4"></polyline> <g id="Shape_13_" transform="translate(33.000000, 32.000000)" fill-rule="nonzero"> <path d="M39.8,143.2 C39.8,86 86.2,39.6 143.3,39.6 L143.3,0.4 C64.5,0.4 0.5,64.3 0.5,143.2 C0.5,200.4 34.1,249.8 82.8,272.6 L99.4,237.1 C64.2,220.6 39.8,184.7 39.8,143.2 Z" id="Shape" fill="#D1D3D4"></path> <path d="M143.4,0.4 L143.4,0.4 L143.4,39.5 L143.4,39.5 C200.6,39.5 247,85.9 247,143.1 C247,200.3 200.6,246.7 143.4,246.7 C127.7,246.7 112.8,243.2 99.4,236.9 L82.8,272.4 C101.2,281 121.7,285.9 143.4,285.9 C222.2,285.9 286.2,222 286.2,143.1 C286.2,64.2 222.3,0.4 143.4,0.4 Z" id="Shape" stroke="#0094C7" stroke-width="2.511" fill="#5BB4D8" stroke-linecap="round" stroke-linejoin="round"></path> </g> </g> <g id="Group_5_" transform="translate(1.000000, 275.000000)"> <g id="Group" transform="translate(0.000000, 46.000000)" fill-rule="nonzero" fill="#1C2E3F"> <g id="Shape"> <path d="M0.6,14 L0.6,0.6 L4.1,0.6 C4.6,0.6 5.2,0.6 5.7,0.7 C6.3,0.8 6.8,0.9 7.3,1.2 C7.8,1.4 8.2,1.7 8.6,2.1 C9,2.5 9.3,2.9 9.6,3.4 C9.9,3.9 10.1,4.5 10.3,5.1 C10.5,5.7 10.6,6.4 10.6,7.2 C10.6,8.1 10.5,9 10.3,9.7 C10.1,10.4 9.8,11.1 9.4,11.6 C9,12.1 8.6,12.6 8,13 C7.5,13.4 6.9,13.6 6.3,13.8 C6,13.9 5.6,14 5.2,14 C4.8,14 4.4,14.1 4.1,14.1 L0.6,14.1 L0.6,14 Z M2.2,12.7 L3.8,12.7 C4.1,12.7 4.4,12.7 4.8,12.6 C5.2,12.6 5.5,12.5 5.8,12.4 C6.2,12.2 6.6,12 6.9,11.7 C7.2,11.4 7.6,11.1 7.8,10.7 C8.1,10.3 8.3,9.8 8.4,9.2 C8.5,8.6 8.6,8 8.6,7.2 C8.6,6 8.4,5.1 8.1,4.4 C7.8,3.7 7.3,3.1 6.6,2.7 C6.2,2.4 5.8,2.3 5.2,2.1 C4.7,2 4.2,1.9 3.7,1.9 L2,1.9 L2,12.7 L2.2,12.7 Z"></path> <path d="M16.6,13.7 C15.9,13.3 15.3,12.8 14.8,12.1 C14.3,11.4 14,10.7 13.8,9.9 C13.6,9.1 13.5,8.2 13.5,7.3 C13.5,6.4 13.6,5.6 13.8,4.7 C14,3.9 14.4,3.1 14.8,2.5 C15.2,1.9 15.8,1.3 16.6,0.9 C17.3,0.5 18.2,0.3 19.2,0.3 C20.2,0.3 21,0.5 21.7,0.9 C22.4,1.3 23,1.8 23.5,2.5 C24,3.2 24.3,3.9 24.5,4.7 C24.7,5.5 24.8,6.4 24.8,7.3 C24.8,8.2 24.7,9 24.5,9.9 C24.3,10.7 23.9,11.5 23.5,12.1 C23,12.7 22.5,13.3 21.7,13.7 C21,14.1 20.1,14.3 19.2,14.3 C18.1,14.3 17.3,14.1 16.6,13.7 Z M16.1,11.1 C16.4,11.6 16.9,12 17.3,12.4 C17.8,12.7 18.4,12.9 19.1,12.9 C19.8,12.9 20.4,12.7 20.9,12.4 C21.4,12.1 21.8,11.7 22.1,11.1 C22.4,10.5 22.7,10 22.8,9.3 C23,8.6 23,8 23,7.3 C23,6.6 22.9,5.9 22.8,5.3 C22.6,4.6 22.4,4 22.1,3.5 C21.8,3 21.4,2.6 20.9,2.2 C20.4,1.9 19.8,1.7 19.1,1.7 C18.4,1.7 17.8,1.9 17.3,2.2 C16.8,2.5 16.4,2.9 16.1,3.5 C15.8,4 15.5,4.6 15.4,5.3 C15.2,6 15.2,6.6 15.2,7.3 C15.2,8 15.3,8.7 15.4,9.3 C15.5,10 15.8,10.6 16.1,11.1 Z"></path> <polygon points="28.4 14 28.4 0.6 30 0.6 36.7 10.6 36.7 0.6 38.3 0.6 38.3 14 37.1 14 29.9 3.4 29.9 14"></polygon> <path d="M41,4.1 C41.2,4 41.5,3.9 41.8,3.7 C42.1,3.5 42.3,3.3 42.4,3.1 C42.3,3 42.1,2.9 42,2.7 C41.8,2.5 41.8,2.2 41.8,1.8 C41.8,1.5 41.9,1.2 42.1,0.9 C42.3,0.6 42.5,0.5 42.9,0.5 C43.3,0.5 43.5,0.6 43.7,0.9 C43.9,1.2 44,1.5 44,1.9 C44,2.3 43.9,2.6 43.8,2.9 C43.7,3.2 43.4,3.5 43.2,3.7 C42.9,3.9 42.7,4.2 42.3,4.3 C41.9,4.4 41.7,4.6 41.3,4.8 L41,4.1 Z"></path> <polygon points="50.2 14 50.2 2 46 2 46 0.6 55.9 0.6 55.9 2 51.7 2 51.7 14"></polygon> <polygon points="63.7 14 63.7 0.6 65.3 0.6 65.3 6.5 71.1 0.6 73 0.6 67.8 5.9 73.2 14 71.3 14 66.7 7 65.3 8.4 65.3 13.9 63.7 13.9"></polygon> <polygon points="76 14 76 0.6 77.6 0.6 84.3 10.6 84.3 0.6 86 0.6 86 14 84.8 14 77.6 3.4 77.6 14"></polygon> <path d="M92.7,13.7 C92,13.3 91.4,12.8 90.9,12.1 C90.4,11.4 90.1,10.7 89.9,9.9 C89.7,9.1 89.6,8.2 89.6,7.3 C89.6,6.4 89.7,5.6 89.9,4.7 C90.1,3.9 90.5,3.1 90.9,2.5 C91.3,1.9 91.9,1.3 92.7,0.9 C93.4,0.5 94.3,0.3 95.3,0.3 C96.3,0.3 97.1,0.5 97.8,0.9 C98.5,1.3 99.1,1.8 99.6,2.5 C100.1,3.2 100.4,3.9 100.6,4.7 C100.8,5.5 100.9,6.4 100.9,7.3 C100.9,8.2 100.8,9 100.6,9.9 C100.4,10.7 100,11.5 99.6,12.1 C99.1,12.7 98.6,13.3 97.8,13.7 C97.1,14.1 96.2,14.3 95.3,14.3 C94.3,14.3 93.4,14.1 92.7,13.7 Z M92.3,11.1 C92.6,11.6 93.1,12 93.5,12.4 C94,12.7 94.6,12.9 95.3,12.9 C96,12.9 96.6,12.7 97.1,12.4 C97.6,12.1 98,11.7 98.3,11.1 C98.6,10.5 98.9,10 99,9.3 C99.2,8.6 99.2,8 99.2,7.3 C99.2,6.6 99.1,5.9 99,5.3 C98.8,4.6 98.6,4 98.3,3.5 C98,3 97.6,2.6 97.1,2.2 C96.6,1.9 96,1.7 95.3,1.7 C94.6,1.7 94,1.9 93.5,2.2 C93,2.5 92.6,2.9 92.3,3.5 C92,4 91.7,4.6 91.6,5.3 C91.4,6 91.4,6.6 91.4,7.3 C91.4,8 91.5,8.7 91.6,9.3 C91.7,10 91.9,10.6 92.3,11.1 Z"></path> <polygon points="106.3 14 102.9 0.6 104.5 0.6 107 10.1 110 0.6 110.8 0.6 113.9 10.1 116.3 0.6 117.9 0.6 114.5 14 113.5 14 110.3 4 107.1 14"></polygon> </g> </g> <polyline id="Shape_12_" stroke="#1C2E3F" stroke-width="1.2554" points="125.9 53.7 158.2 53.7 205.2 7.1"></polyline> <circle id="Oval_4_" stroke="#1C2E3F" stroke-width="1.2554" fill="#FFFFFF" fill-rule="nonzero" stroke-linejoin="round" cx="207.3" cy="5.4" r="5.4"></circle> </g> <g id="Group_4_" transform="translate(412.000000, 75.000000)"> <g id="Group" transform="translate(108.000000, 0.000000)" fill-rule="nonzero" fill="#1C2E3F"> <g id="Shape"> <polygon points="0.1 14.6 0.1 1.2 1.7 1.2 1.7 7 7.5 1.1 9.4 1.1 4.2 6.4 9.6 14.5 7.7 14.5 3.1 7.5 1.7 8.9 1.7 14.4 0.1 14.4"></polygon> <polygon points="12.4 14.6 12.4 1.2 14 1.2 20.8 11.2 20.8 1.2 22.4 1.2 22.4 14.6 21.2 14.6 14 3.9 14 14.5 12.4 14.5"></polygon> <path d="M29.1,14.2 C28.4,13.8 27.8,13.3 27.3,12.6 C26.8,12 26.5,11.2 26.3,10.4 C26.1,9.6 26,8.7 26,7.8 C26,6.9 26.1,6.1 26.3,5.2 C26.5,4.4 26.9,3.6 27.3,3 C27.8,2.3 28.3,1.8 29.1,1.4 C29.9,1 30.7,0.8 31.7,0.8 C32.7,0.8 33.5,1 34.2,1.4 C34.9,1.8 35.5,2.3 36,3 C36.5,3.7 36.8,4.4 37,5.2 C37.2,6 37.3,6.9 37.3,7.8 C37.3,8.7 37.2,9.5 37,10.4 C36.8,11.2 36.4,12 36,12.6 C35.5,13.2 35,13.8 34.2,14.2 C33.5,14.6 32.6,14.8 31.7,14.8 C30.7,14.8 29.8,14.6 29.1,14.2 Z M28.7,11.7 C29,12.2 29.5,12.6 29.9,13 C30.4,13.3 31,13.5 31.7,13.5 C32.4,13.5 33,13.3 33.5,13 C34,12.7 34.4,12.3 34.7,11.7 C35,11.2 35.3,10.6 35.4,9.9 C35.6,9.2 35.6,8.6 35.6,7.9 C35.6,7.2 35.5,6.5 35.4,5.9 C35.3,5.3 35,4.6 34.7,4.1 C34.4,3.6 34,3.2 33.5,2.8 C33,2.5 32.4,2.3 31.7,2.3 C31,2.3 30.4,2.5 29.9,2.8 C29.4,3.1 29,3.5 28.7,4.1 C28.4,4.7 28.1,5.2 28,5.9 C27.8,6.6 27.8,7.2 27.8,7.9 C27.8,8.6 27.9,9.3 28,9.9 C28.1,10.6 28.3,11.1 28.7,11.7 Z"></path> <polygon points="42.7 14.6 39.3 1.2 40.9 1.2 43.4 10.7 46.4 1.2 47.2 1.2 50.3 10.7 52.7 1.2 54.3 1.2 51 14.6 50 14.6 46.8 4.6 43.6 14.6"></polygon> </g> </g> <polyline id="Shape_11_" stroke="#0094C7" stroke-width="1.2554" stroke-linecap="round" stroke-linejoin="round" points="98.9 8.9 60.6 8.9 5.9 70.7"></polyline> <polygon id="Shape_10_" fill="#FFFFFF" fill-rule="nonzero" points="6.3 71 5.4 70.3 21.5 52.2 22.2 53.1"></polygon> <circle id="Oval_3_" stroke="#0094C7" stroke-width="1.2554" fill="#FFFFFF" fill-rule="nonzero" stroke-linecap="round" stroke-linejoin="round" cx="5.9" cy="70.7" r="5.4"></circle> </g> <g id="Group_3_" transform="translate(0.001000, 0.158200)" fill-rule="nonzero" fill="#1C2E3F"> <g id="Group"> <polygon id="Shape" points="4.3 14.2 4.3 2.2 0.1 2.2 0.1 0.8 10 0.8 10 2.2 5.8 2.2 5.8 14.2"></polygon> <polygon id="Shape" points="12.9 14.2 12.9 0.8 14.5 0.8 14.5 6.6 21.2 6.6 21.2 0.8 22.8 0.8 22.8 14.2 21.2 14.2 21.2 8 14.5 8 14.5 14.2"></polygon> <polygon id="Shape" points="27.1 14.2 27.1 0.8 28.7 0.8 28.7 14.2 27.1 14.2"></polygon> <path d="M32.9,14.2 L32.9,0.8 L37.2,0.8 C38.7,0.8 39.8,1.1 40.5,1.8 C41.2,2.5 41.6,3.4 41.6,4.5 C41.6,5.1 41.5,5.6 41.3,6 C41.1,6.4 40.9,6.8 40.6,7.1 C40.3,7.4 39.9,7.6 39.5,7.8 C39.1,8 38.7,8.1 38.2,8.2 L41.9,14.2 L40.1,14.2 L36.5,8.3 L34.6,8.3 L34.6,14.2 L32.9,14.2 L32.9,14.2 Z M34.5,6.9 L37.1,6.9 C39,6.9 39.9,6.1 39.9,4.4 C39.9,3.6 39.7,3.1 39.2,2.7 C38.7,2.3 38.1,2.1 37.2,2.1 L34.5,2.1 L34.5,6.9 L34.5,6.9 Z" id="Shape"></path> <path d="M45,14.2 L45,0.8 L48.5,0.8 C49,0.8 49.6,0.8 50.1,0.9 C50.7,1 51.2,1.1 51.7,1.4 C52.2,1.6 52.6,1.9 53,2.3 C53.4,2.7 53.7,3.1 54,3.6 C54.3,4.1 54.5,4.7 54.7,5.3 C54.9,5.9 55,6.6 55,7.4 C55,8.3 54.9,9.2 54.7,9.9 C54.5,10.6 54.2,11.3 53.8,11.8 C53.4,12.3 53,12.8 52.4,13.2 C51.9,13.6 51.3,13.8 50.7,14 C50.4,14.1 50,14.2 49.6,14.2 C49.2,14.2 48.8,14.3 48.5,14.3 L45,14.3 L45,14.2 Z M46.6,12.8 L48.2,12.8 C48.5,12.8 48.8,12.8 49.2,12.8 C49.6,12.8 49.9,12.7 50.2,12.6 C50.6,12.4 51,12.2 51.3,11.9 C51.6,11.6 52,11.3 52.2,10.9 C52.5,10.5 52.7,10 52.8,9.4 C53,8.8 53,8.2 53,7.4 C53,6.2 52.8,5.3 52.5,4.6 C52.1,3.9 51.7,3.3 51,2.9 C50.6,2.6 50.2,2.5 49.6,2.3 C49.1,2.2 48.6,2.1 48.1,2.1 L46.4,2.1 L46.4,12.8 L46.6,12.8 Z" id="Shape"></path> <path d="M63.5,14.2 L63.5,0.8 L67.7,0.8 C69.2,0.8 70.4,1.1 71.1,1.8 C71.8,2.5 72.2,3.5 72.2,4.8 C72.2,6.1 71.8,7.1 71,7.8 C70.2,8.5 69.1,8.8 67.6,8.8 L65.1,8.8 L65.1,14.2 L63.5,14.2 L63.5,14.2 Z M65.1,7.4 L67.7,7.4 C68.5,7.4 69.2,7.2 69.7,6.8 C70.2,6.4 70.5,5.7 70.5,4.8 C70.5,3.9 70.3,3.2 69.8,2.8 C69.3,2.4 68.6,2.2 67.8,2.2 L65.2,2.2 L65.2,7.4 L65.1,7.4 Z" id="Shape"></path> <path d="M73.8,14.2 L79,0.8 L80,0.8 L85.3,14.2 L83.6,14.2 L81.9,10 L77,10 L75.5,14.1 L73.8,14.1 L73.8,14.2 Z M77.5,8.6 L81.3,8.6 L79.4,3.5 L77.5,8.6 Z" id="Shape"></path> <path d="M87.8,14.2 L87.8,0.8 L92.1,0.8 C93.6,0.8 94.7,1.1 95.4,1.8 C96.1,2.5 96.5,3.4 96.5,4.5 C96.5,5.1 96.4,5.6 96.2,6 C96,6.4 95.8,6.8 95.5,7.1 C95.2,7.4 94.8,7.6 94.4,7.8 C94,8 93.6,8.1 93.1,8.2 L96.8,14.2 L95,14.2 L91.4,8.3 L89.5,8.3 L89.5,14.2 L87.8,14.2 L87.8,14.2 Z M89.4,6.9 L92,6.9 C93.9,6.9 94.8,6.1 94.8,4.4 C94.8,3.6 94.6,3.1 94.1,2.7 C93.6,2.3 93,2.1 92.1,2.1 L89.4,2.1 L89.4,6.9 L89.4,6.9 Z" id="Shape"></path> <polygon id="Shape" points="102.6 14.2 102.6 2.2 98.4 2.2 98.4 0.8 108.3 0.8 108.3 2.2 104.1 2.2 104.1 14.2"></polygon> <polygon id="Shape" points="111.2 14.2 111.2 0.8 112.8 0.8 112.8 14.2 111.2 14.2"></polygon> <polygon id="Shape" points="117 14.2 117 0.8 124.8 0.8 124.8 2.2 118.6 2.2 118.6 6.5 123 6.5 123 7.9 118.5 7.9 118.5 12.8 125.2 12.8 125.2 14.2 117 14.2"></polygon> <path d="M128.6,11.3 C129,11.9 129.5,12.3 130.1,12.6 C130.7,12.9 131.4,13 132,13 C132.3,13 132.7,13 133,12.9 C133.3,12.8 133.6,12.7 133.8,12.5 C134,12.3 134.2,12.1 134.4,11.8 C134.5,11.5 134.6,11.2 134.6,10.8 C134.6,10.4 134.5,10.1 134.3,9.8 C134.1,9.5 133.9,9.3 133.6,9 C133.3,8.7 133,8.6 132.6,8.4 C132.2,8.2 131.8,8 131.4,7.9 C130.9,7.7 130.5,7.5 130.1,7.3 C129.7,7.1 129.3,6.8 128.9,6.5 C128.5,6.2 128.3,5.9 128,5.5 C127.8,5.1 127.7,4.6 127.7,4.1 C127.7,3.5 127.8,3 128.1,2.6 C128.3,2.2 128.6,1.8 129,1.5 C129.4,1.2 129.8,1 130.3,0.9 C130.8,0.8 131.3,0.7 131.9,0.7 C132.7,0.7 133.6,0.9 134.3,1.2 C135.1,1.5 135.7,2.1 136.2,2.8 L135,3.8 C134.7,3.3 134.2,2.9 133.7,2.6 C133.2,2.3 132.6,2.1 131.9,2.1 C131.1,2.1 130.5,2.3 130.1,2.6 C129.7,3 129.4,3.4 129.4,4 C129.4,4.3 129.5,4.6 129.6,4.9 C129.8,5.1 130,5.3 130.2,5.5 C130.5,5.7 130.8,5.9 131.2,6.1 C131.6,6.3 132,6.5 132.5,6.7 C133,6.9 133.4,7.1 133.8,7.3 C134.2,7.5 134.6,7.8 135,8.1 C135.3,8.4 135.6,8.8 135.8,9.2 C136,9.6 136.1,10.1 136.1,10.7 C136.1,11.4 136,12 135.7,12.5 C135.5,13 135.1,13.4 134.7,13.7 C134.3,14 133.8,14.3 133.3,14.4 C132.8,14.5 132.2,14.6 131.6,14.6 C131.1,14.6 130.7,14.5 130.2,14.4 C129.8,14.3 129.3,14.2 128.9,14 C128.5,13.8 128.1,13.6 127.8,13.3 C127.5,13 127.2,12.7 126.9,12.4 L128.6,11.3 Z" id="Shape"></path> <polygon id="Shape" points="146.5 14.2 143.1 0.8 144.7 0.8 147.2 10.3 150.2 0.8 151 0.8 154.1 10.3 156.5 0.8 158.1 0.8 154.7 14.2 153.7 14.2 150.5 4.2 147.3 14.2 146.5 14.2"></polygon> <polygon id="Shape" points="160.8 14.2 160.8 0.8 162.4 0.8 162.4 14.2 160.8 14.2"></polygon> <polygon id="Shape" points="169.4 14.2 169.4 2.2 165.2 2.2 165.2 0.8 175.1 0.8 175.1 2.2 171 2.2 171 14.2"></polygon> <polygon id="Shape" points="178 14.2 178 0.8 179.6 0.8 179.6 6.6 186.3 6.6 186.3 0.8 187.9 0.8 187.9 14.2 186.3 14.2 186.3 8 179.6 8 179.6 14.2"></polygon> </g> <g id="Group" transform="translate(0.000000, 24.000000)"> <g id="Shape"> <path d="M1.9,11.4 C2.3,12 2.8,12.4 3.4,12.7 C4,13 4.7,13.1 5.3,13.1 C5.6,13.1 6,13.1 6.3,13 C6.6,12.9 6.9,12.8 7.1,12.6 C7.3,12.4 7.5,12.2 7.7,11.9 C7.8,11.6 7.9,11.3 7.9,10.9 C7.9,10.5 7.8,10.2 7.6,9.9 C7.4,9.6 7.2,9.4 6.9,9.1 C6.6,8.8 6.3,8.7 5.9,8.5 C5.5,8.3 5.1,8.1 4.7,8 C4.2,7.8 3.8,7.6 3.4,7.4 C3,7.2 2.6,6.9 2.2,6.6 C1.8,6.3 1.6,6 1.3,5.6 C1.1,5.1 1,4.6 1,4 C1,3.4 1.1,2.9 1.4,2.5 C1.6,2.1 1.9,1.7 2.3,1.4 C2.7,1.1 3.1,0.9 3.6,0.8 C4.1,0.7 4.6,0.6 5.2,0.6 C6,0.6 6.9,0.8 7.6,1.1 C8.3,1.4 9,2 9.5,2.7 L8.3,3.7 C8,3.2 7.5,2.8 7,2.5 C6.5,2.2 5.9,2 5.2,2 C4.4,2 3.8,2.2 3.4,2.5 C3,2.9 2.7,3.3 2.7,3.9 C2.7,4.2 2.8,4.5 2.9,4.8 C3.1,5 3.3,5.2 3.5,5.4 C3.8,5.6 4.1,5.8 4.5,6 C4.9,6.2 5.3,6.4 5.8,6.6 C6.3,6.8 6.7,7 7.1,7.2 C7.5,7.4 7.9,7.7 8.3,8 C8.6,8.3 8.9,8.7 9.1,9.1 C9.3,9.5 9.4,10 9.4,10.6 C9.4,11.3 9.3,11.9 9,12.4 C8.8,12.9 8.4,13.3 8,13.6 C7.6,13.9 7.1,14.2 6.6,14.3 C6.1,14.4 5.5,14.5 4.9,14.5 C4.4,14.5 4,14.4 3.5,14.3 C3.1,14.2 2.6,14.1 2.2,13.9 C1.8,13.7 1.4,13.5 1.1,13.2 C0.8,12.9 0.5,12.6 0.2,12.3 L1.9,11.4 Z"></path> <polygon points="13 14.3 13 0.9 20.8 0.9 20.8 2.3 14.6 2.3 14.6 6.6 19 6.6 19 8 14.5 8 14.5 12.9 21.2 12.9 21.2 14.3 13 14.3"></polygon> <polygon points="24.3 14.3 24.3 0.9 25.9 0.9 32.6 10.9 32.6 0.9 34.2 0.9 34.2 14.3 33 14.3 25.8 3.7 25.8 14.3"></polygon> <path d="M38.8,11.4 C39.2,12 39.7,12.4 40.3,12.7 C40.9,13 41.6,13.1 42.2,13.1 C42.5,13.1 42.9,13.1 43.2,13 C43.5,12.9 43.8,12.8 44,12.6 C44.2,12.4 44.4,12.2 44.6,11.9 C44.7,11.6 44.8,11.3 44.8,10.9 C44.8,10.5 44.7,10.2 44.5,9.9 C44.3,9.6 44.1,9.4 43.8,9.1 C43.5,8.8 43.2,8.7 42.8,8.5 C42.4,8.3 42,8.1 41.6,8 C41.1,7.8 40.7,7.6 40.3,7.4 C39.9,7.2 39.5,6.9 39.1,6.6 C38.7,6.3 38.5,6 38.2,5.6 C38.1,5.1 38,4.6 38,4 C38,3.4 38.1,2.9 38.4,2.5 C38.6,2.1 38.9,1.7 39.3,1.4 C39.7,1.1 40.1,0.9 40.6,0.8 C41.1,0.7 41.6,0.6 42.2,0.6 C43,0.6 43.9,0.8 44.6,1.1 C45.3,1.4 46,2 46.5,2.7 L45.3,3.7 C45,3.2 44.5,2.8 44,2.5 C43.5,2.2 42.8,2 42.2,2 C41.4,2 40.8,2.2 40.4,2.5 C40,2.9 39.7,3.3 39.7,3.9 C39.7,4.2 39.8,4.5 39.9,4.8 C40.1,5 40.3,5.2 40.5,5.4 C40.8,5.6 41.1,5.8 41.5,6 C41.9,6.2 42.3,6.4 42.8,6.6 C43.3,6.8 43.7,7 44.1,7.2 C44.5,7.4 44.9,7.7 45.3,8 C45.6,8.3 45.9,8.7 46.1,9.1 C46.3,9.5 46.4,10 46.4,10.6 C46.4,11.3 46.3,11.9 46,12.4 C45.8,12.9 45.4,13.3 45,13.6 C44.6,13.9 44.1,14.2 43.6,14.3 C43.1,14.4 42.5,14.5 41.9,14.5 C41.4,14.5 41,14.4 40.5,14.3 C40.1,14.2 39.6,14.1 39.2,13.9 C38.8,13.7 38.4,13.5 38.1,13.2 C37.8,12.9 37.5,12.6 37.2,12.3 L38.8,11.4 Z"></path> <polygon points="49.9 14.3 49.9 0.9 51.5 0.9 51.5 14.3"></polygon> <polygon points="58.5 14.3 58.5 2.3 54.3 2.3 54.3 0.9 64.2 0.9 64.2 2.3 60 2.3 60 14.3"></polygon> <polygon points="67 14.3 67 0.9 68.6 0.9 68.6 14.3"></polygon> <polygon points="76.4 14.3 71.3 0.9 73.1 0.9 77 11.1 80.8 0.9 82.5 0.9 77.4 14.3 76.4 14.3"></polygon> <polygon points="85.1 14.3 85.1 0.9 92.9 0.9 92.9 2.3 86.7 2.3 86.7 6.6 91.1 6.6 91.1 8 86.6 8 86.6 12.9 93.3 12.9 93.3 14.3 85.1 14.3"></polygon> <path d="M101.4,14.3 L101.4,0.9 L104.9,0.9 C105.4,0.9 106,0.9 106.5,1 C107.1,1.1 107.6,1.2 108.1,1.5 C108.6,1.7 109,2 109.4,2.4 C109.8,2.8 110.1,3.2 110.4,3.7 C110.7,4.2 110.9,4.8 111.1,5.4 C111.3,6 111.4,6.7 111.4,7.5 C111.4,8.4 111.3,9.3 111.1,10 C110.9,10.7 110.6,11.4 110.2,11.9 C109.8,12.4 109.4,12.9 108.8,13.3 C108.3,13.7 107.7,13.9 107.1,14.1 C106.8,14.2 106.4,14.3 106,14.3 C105.6,14.3 105.2,14.4 104.9,14.4 L101.4,14.4 L101.4,14.3 Z M103,12.9 L104.6,12.9 C104.9,12.9 105.2,12.9 105.6,12.9 C106,12.9 106.3,12.8 106.6,12.7 C107,12.5 107.4,12.3 107.7,12 C108,11.7 108.4,11.4 108.6,11 C108.9,10.6 109.1,10.1 109.2,9.5 C109.4,8.9 109.4,8.3 109.4,7.5 C109.4,6.3 109.2,5.4 108.9,4.7 C108.5,4 108.1,3.4 107.4,3 C107,2.7 106.6,2.6 106,2.4 C105.5,2.3 105,2.2 104.5,2.2 L103,2.2 L103,12.9 Z"></path> <path d="M112.7,14.3 L117.9,0.9 L118.9,0.9 L124.2,14.3 L122.5,14.3 L120.9,10.2 L116,10.2 L114.5,14.3 L112.7,14.3 Z M116.5,8.7 L120.3,8.7 L118.4,3.6 L116.5,8.7 Z"></path> <polygon points="127.9 14.3 127.9 2.3 123.7 2.3 123.7 0.9 133.6 0.9 133.6 2.3 129.4 2.3 129.4 14.3"></polygon> <path d="M133.2,14.3 L138.4,0.9 L139.4,0.9 L144.7,14.3 L143,14.3 L141.4,10.2 L136.5,10.2 L135,14.3 L133.2,14.3 Z M137,8.7 L140.8,8.7 L138.9,3.6 L137,8.7 Z"></path> </g> </g> </g> </g> </g> </svg> 