<?xml version="1.0" encoding="UTF-8"?> <svg xmlns="http://www.w3.org/2000/svg" xmlns:xlink="http://www.w3.org/1999/xlink" width="471px" height="297px" viewBox="0 0 471 297"> <!-- Generator: Sketch 46.2 (44496) - http://www.bohemiancoding.com/sketch --> <title>82-18</title> <desc>Created with Sketch.</desc> <defs></defs> <g id="Page-1" stroke="none" stroke-width="1" fill="none" fill-rule="evenodd"> <g id="82-18" transform="translate(-1.000000, 1.000000)"> <circle id="Oval" stroke="#0094C7" stroke-width="1.4008" stroke-dasharray="2.8017,5.6034" cx="198.2" cy="147.5" r="147.1"></circle> <path d="M198.2,27.8 L198.2,60.4 C246,60.5 284.8,99.3 284.8,147.1 C284.8,195 246,233.8 198.1,233.8 C186.9,233.8 176.2,231.7 166.3,227.8 L154.4,258.2 C167.9,263.5 182.7,266.5 198.1,266.5 C264,266.5 317.4,213.1 317.4,147.2 C317.4,81.3 264,27.9 198.2,27.8 Z" id="Shape" stroke="#0094C7" stroke-width="2.1013" fill="#5BB4D8" fill-rule="nonzero" stroke-linecap="round" stroke-linejoin="round"></path> <g id="Group" transform="translate(78.000000, 27.000000)" fill-rule="nonzero"> <path d="M120.2,0.8 L120.2,33.4 C168,33.5 206.8,72.3 206.8,120.1 C206.8,168 168,206.8 120.1,206.8 C72.2,206.8 33.4,168 33.4,120.1 C33.4,107 36.3,94.5 41.6,83.3 L12,69.6 C4.8,84.9 0.8,102.1 0.8,120.1 C0.8,186 54.2,239.4 120.1,239.4 C186,239.4 239.4,186 239.4,120.1 C239.4,54.3 186,0.9 120.2,0.8 Z" id="Shape" stroke="#0094C7" stroke-width="2.1013" fill="#5BB4D8" stroke-linecap="round" stroke-linejoin="round"></path> <path d="M120.1,33.5 C120.1,33.5 120.2,33.5 120.2,33.5 L120.2,0.8 C120.2,0.8 120.1,0.8 120.1,0.8 C72.3,0.8 31,29 12,69.6 L41.6,83.3 C55.4,53.9 85.3,33.5 120.1,33.5 Z" id="Shape" fill="#D1D3D4"></path> </g> <g id="Group" transform="translate(0.000000, 22.000000)"> <text id="KNOW" fill="#1C2E3F" font-family="Helvetica" font-size="16.8101" font-weight="normal"> <tspan x="0.801" y="16.6953">KNOW</tspan> </text> <polyline id="Shape" stroke="#1C2E3F" stroke-width="1.0506" points="55.1 11.7 82.2 11.7 121.5 50.7"></polyline> <circle id="Oval" stroke="#1C2E3F" stroke-width="1.0506" fill="#FFFFFF" fill-rule="nonzero" stroke-linejoin="round" cx="123.3" cy="52.1" r="4.4"></circle> </g> <g id="Group" transform="translate(276.000000, 22.000000)"> <text id="DON’T-KNOW" fill="#1C2E3F" font-family="Helvetica" font-size="16.8101" font-weight="normal"> <tspan x="87.5569" y="16.6953">DON’T KNOW</tspan> </text> <polyline id="Shape" stroke="#0094C7" stroke-width="1.0506" stroke-linecap="round" stroke-linejoin="round" points="81.2 11.9 49.1 11.9 3.3 63.7"></polyline> <polygon id="Shape" fill="#FFFFFF" fill-rule="nonzero" points="3.7 64 2.9 63.3 15.4 49.2 16.1 50"></polygon> <circle id="Oval" stroke="#0094C7" stroke-width="1.0506" fill="#FFFFFF" fill-rule="nonzero" stroke-linecap="round" stroke-linejoin="round" cx="4.7" cy="62.2" r="4.4"></circle> </g> <polyline id="Shape" stroke="#0094C7" stroke-width="2.1013" stroke-linecap="round" stroke-linejoin="round" points="89.9 96.7 198.2 146.9 198.2 146.9 198.2 27.8"></polyline> </g> </g> </svg> 