<?xml version="1.0" encoding="UTF-8"?> <svg xmlns="http://www.w3.org/2000/svg" xmlns:xlink="http://www.w3.org/1999/xlink" width="540px" height="355px" viewBox="0 0 540 355"> <!-- Generator: Sketch 46.2 (44496) - http://www.bohemiancoding.com/sketch --> <title>82-18_v02</title> <desc>Created with Sketch.</desc> <defs></defs> <g id="Page-1" stroke="none" stroke-width="1" fill="none" fill-rule="evenodd"> <g id="82-18_v02" transform="translate(0.000000, 1.000000)"> <circle id="Oval_5_" stroke="#0094C7" stroke-width="1.6727" stroke-dasharray="3.3456,6.6912" cx="232.3" cy="176.5" r="175.7"></circle> <path d="M232.3,33.6 L232.3,72.5 C289.4,72.6 335.7,119 335.7,176 C335.7,233.2 289.4,279.5 232.2,279.5 C218.8,279.5 206,277 194.2,272.3 L180,308.7 C196.1,315 213.8,318.6 232.2,318.6 C310.9,318.6 374.7,254.8 374.7,176.1 C374.7,97.4 310.9,33.7 232.3,33.6 Z" id="Shape_16_" stroke="#0094C7" stroke-width="2.5092" fill="#5BB4D8" fill-rule="nonzero" stroke-linecap="round" stroke-linejoin="round"></path> <g id="Group_5_" transform="translate(89.000000, 33.000000)" fill-rule="nonzero"> <path d="M143.3,0.6 L143.3,39.5 C200.4,39.6 246.7,86 246.7,143 C246.7,200.2 200.4,246.5 143.2,246.5 C86,246.5 39.7,200.2 39.7,143 C39.7,127.4 43.2,112.4 49.5,99.1 L14.1,82.7 C5.5,101 0.8,121.5 0.8,143 C0.8,221.7 64.6,285.5 143.3,285.5 C222,285.5 285.7,221.7 285.7,143 C285.7,64.4 221.9,0.7 143.3,0.6 Z" id="Shape_15_" stroke="#0094C7" stroke-width="2.5092" fill="#5BB4D8" stroke-linecap="round" stroke-linejoin="round"></path> <path d="M143.2,39.6 L143.2,39.6 L143.3,0.6 L143.2,0.6 C86.1,0.6 36.8,34.3 14.1,82.8 L49.4,99.2 C66,64 101.7,39.6 143.2,39.6 Z" id="Shape_14_" fill="#D1D3D4"></path> </g> <g id="Group_4_" transform="translate(0.000000, 32.000000)"> <g id="Group" fill-rule="nonzero" fill="#1C2E3F"> <polygon id="Shape" points="0.6 14.6 0.6 1.2 2.2 1.2 2.2 7.1 8 1.2 9.9 1.2 4.7 6.5 10.1 14.6 8.2 14.6 3.6 7.6 2.2 9 2.2 14.5 0.6 14.5"></polygon> <polygon id="Shape" points="11.9 14.6 11.9 1.2 13.5 1.2 20.2 11.2 20.2 1.2 21.8 1.2 21.8 14.6 20.6 14.6 13.4 4 13.4 14.6"></polygon> <path d="M27.6,14.2 C26.9,13.8 26.3,13.3 25.8,12.6 C25.3,12 25,11.2 24.8,10.4 C24.6,9.6 24.5,8.7 24.5,7.8 C24.5,6.9 24.6,6.1 24.8,5.3 C25,4.5 25.4,3.7 25.8,3.1 C26.3,2.4 26.8,1.9 27.6,1.5 C28.3,1.1 29.2,0.9 30.1,0.9 C31.1,0.9 31.9,1.1 32.6,1.5 C33.3,1.9 33.9,2.4 34.4,3.1 C34.9,3.8 35.2,4.5 35.4,5.3 C35.6,6.1 35.7,7 35.7,7.8 C35.7,8.7 35.6,9.5 35.4,10.4 C35.2,11.3 34.8,12 34.4,12.6 C33.9,13.2 33.4,13.8 32.6,14.2 C31.8,14.6 31,14.8 30.1,14.8 C29.1,14.8 28.3,14.6 27.6,14.2 Z M27.1,11.7 C27.4,12.2 27.8,12.6 28.3,13 C28.8,13.3 29.4,13.5 30.1,13.5 C30.8,13.5 31.4,13.3 31.9,13 C32.4,12.7 32.8,12.3 33.1,11.7 C33.4,11.1 33.7,10.6 33.8,9.9 C34,9.2 34,8.6 34,7.9 C34,7.2 33.9,6.5 33.8,5.9 C33.6,5.2 33.4,4.6 33.1,4.1 C32.8,3.6 32.4,3.2 31.9,2.8 C31.4,2.4 30.8,2.3 30.1,2.3 C29.4,2.3 28.8,2.5 28.3,2.8 C27.8,3.1 27.4,3.5 27.1,4.1 C26.8,4.6 26.5,5.2 26.4,5.9 C26.2,6.6 26.2,7.2 26.2,7.9 C26.2,8.6 26.3,9.3 26.4,9.9 C26.6,10.6 26.8,11.2 27.1,11.7 Z" id="Shape"></path> <polygon id="Shape" points="40.1 14.6 36.7 1.2 38.3 1.2 40.8 10.7 43.8 1.2 44.6 1.2 47.7 10.7 50.1 1.2 51.7 1.2 48.3 14.6 47.3 14.6 44.1 4.6 40.9 14.6"></polygon> </g> <polyline id="Shape_13_" stroke="#1C2E3F" stroke-width="1.2545" points="61.5 8.6 93.8 8.6 140.7 55.2"></polyline> <circle id="Oval_4_" stroke="#1C2E3F" stroke-width="1.2545" fill="#FFFFFF" fill-rule="nonzero" stroke-linejoin="round" cx="142.9" cy="56.8" r="5.3"></circle> </g> <g id="Group_3_" transform="translate(325.000000, 32.000000)"> <g id="Group" transform="translate(106.000000, 0.000000)" fill-rule="nonzero" fill="#1C2E3F"> <path d="M0.4,14.6 L0.4,1.2 L3.9,1.2 C4.4,1.2 5,1.2 5.5,1.3 C6.1,1.4 6.6,1.5 7.1,1.8 C7.6,2 8,2.3 8.4,2.7 C8.8,3.1 9.1,3.5 9.4,4 C9.7,4.5 9.9,5.1 10.1,5.7 C10.3,6.3 10.4,7 10.4,7.8 C10.4,8.7 10.3,9.6 10.1,10.3 C9.9,11 9.6,11.7 9.2,12.2 C8.8,12.7 8.4,13.2 7.8,13.6 C7.3,14 6.7,14.2 6.1,14.4 C5.8,14.5 5.4,14.6 5,14.6 C4.6,14.6 4.2,14.7 3.9,14.7 L0.4,14.7 L0.4,14.6 Z M2,13.2 L3.6,13.2 C3.9,13.2 4.2,13.2 4.6,13.2 C5,13.2 5.3,13.1 5.6,13 C6,12.8 6.4,12.6 6.7,12.3 C7.1,12 7.4,11.7 7.6,11.3 C7.8,10.9 8.1,10.4 8.2,9.8 C8.4,9.2 8.4,8.6 8.4,7.8 C8.4,6.6 8.2,5.7 7.9,5 C7.5,4.3 7.1,3.7 6.4,3.3 C6,3 5.6,2.9 5,2.7 C4.5,2.6 4,2.5 3.5,2.5 L2,2.5 L2,13.2 Z" id="Shape"></path> <path d="M15.3,14.2 C14.6,13.8 14,13.3 13.5,12.6 C13,12 12.7,11.2 12.5,10.4 C12.3,9.6 12.2,8.7 12.2,7.8 C12.2,6.9 12.3,6.1 12.5,5.3 C12.7,4.5 13.1,3.7 13.5,3.1 C14,2.4 14.5,1.9 15.3,1.5 C16.1,1.1 16.9,0.9 17.8,0.9 C18.8,0.9 19.6,1.1 20.3,1.5 C21,1.9 21.6,2.4 22.1,3.1 C22.6,3.8 22.9,4.5 23.1,5.3 C23.3,6.1 23.4,7 23.4,7.8 C23.4,8.7 23.3,9.5 23.1,10.4 C22.9,11.2 22.5,12 22.1,12.6 C21.6,13.2 21.1,13.8 20.3,14.2 C19.6,14.6 18.7,14.8 17.8,14.8 C16.9,14.8 16,14.6 15.3,14.2 Z M14.9,11.7 C15.2,12.2 15.7,12.6 16.1,13 C16.5,13.4 17.2,13.5 17.9,13.5 C18.6,13.5 19.2,13.3 19.7,13 C20.2,12.7 20.6,12.3 20.9,11.7 C21.2,11.2 21.5,10.6 21.6,9.9 C21.8,9.2 21.8,8.6 21.8,7.9 C21.8,7.2 21.7,6.5 21.6,5.9 C21.4,5.2 21.2,4.6 20.9,4.1 C20.6,3.6 20.2,3.2 19.7,2.8 C19.2,2.4 18.6,2.3 17.9,2.3 C17.2,2.3 16.6,2.5 16.1,2.8 C15.6,3.1 15.2,3.5 14.9,4.1 C14.6,4.7 14.3,5.2 14.2,5.9 C14,6.6 14,7.2 14,7.9 C14,8.6 14.1,9.3 14.2,9.9 C14.3,10.6 14.5,11.2 14.9,11.7 Z" id="Shape"></path> <polygon id="Shape" points="26.1 14.6 26.1 1.2 27.7 1.2 34.4 11.2 34.4 1.2 36 1.2 36 14.6 34.8 14.6 27.6 4 27.6 14.6"></polygon> <path d="M37.8,4.7 C38,4.6 38.3,4.5 38.6,4.3 C38.9,4.1 39.1,3.9 39.2,3.7 C39.1,3.6 38.9,3.5 38.8,3.3 C38.6,3.1 38.6,2.8 38.6,2.4 C38.6,2.1 38.7,1.8 38.9,1.5 C39.1,1.2 39.3,1.1 39.7,1.1 C40.1,1.1 40.3,1.2 40.5,1.5 C40.7,1.8 40.8,2.1 40.8,2.5 C40.8,2.9 40.7,3.2 40.6,3.5 C40.4,3.8 40.2,4.1 40,4.3 C39.8,4.5 39.5,4.8 39.1,4.9 C38.7,5 38.5,5.2 38.1,5.4 L37.8,4.7 Z" id="Shape"></path> <polygon id="Shape" points="45.9 14.6 45.9 2.6 41.7 2.6 41.7 1.2 51.6 1.2 51.6 2.6 47.4 2.6 47.4 14.6"></polygon> <polygon id="Shape" points="57.5 14.6 57.5 1.2 59.1 1.2 59.1 7.1 64.9 1.2 66.8 1.2 61.6 6.5 67 14.6 65.1 14.6 60.5 7.6 59.1 9 59.1 14.5 57.5 14.5"></polygon> <polygon id="Shape" points="68.7 14.6 68.7 1.2 70.3 1.2 77 11.2 77 1.2 78.6 1.2 78.6 14.6 77.4 14.6 70.2 4 70.2 14.6"></polygon> <path d="M84.4,14.2 C83.7,13.8 83.1,13.3 82.6,12.6 C82.1,12 81.8,11.2 81.6,10.4 C81.4,9.6 81.3,8.7 81.3,7.8 C81.3,6.9 81.4,6.1 81.6,5.3 C81.8,4.5 82.2,3.7 82.6,3.1 C83.1,2.4 83.6,1.9 84.4,1.5 C85.2,1.1 86,0.9 86.9,0.9 C87.9,0.9 88.7,1.1 89.4,1.5 C90.1,1.9 90.7,2.4 91.2,3.1 C91.7,3.8 92,4.5 92.2,5.3 C92.4,6.1 92.5,7 92.5,7.8 C92.5,8.7 92.4,9.5 92.2,10.4 C92,11.2 91.6,12 91.2,12.6 C90.7,13.2 90.2,13.8 89.4,14.2 C88.7,14.6 87.8,14.8 86.9,14.8 C86,14.8 85.1,14.6 84.4,14.2 Z M84,11.7 C84.3,12.2 84.8,12.6 85.2,13 C85.6,13.4 86.3,13.5 87,13.5 C87.7,13.5 88.3,13.3 88.8,13 C89.3,12.7 89.7,12.3 90,11.7 C90.3,11.2 90.6,10.6 90.7,9.9 C90.9,9.2 90.9,8.6 90.9,7.9 C90.9,7.2 90.8,6.5 90.7,5.9 C90.5,5.2 90.3,4.6 90,4.1 C89.7,3.6 89.3,3.2 88.8,2.8 C88.3,2.4 87.7,2.3 87,2.3 C86.3,2.3 85.7,2.5 85.2,2.8 C84.7,3.1 84.3,3.5 84,4.1 C83.7,4.7 83.4,5.2 83.3,5.9 C83.1,6.6 83.1,7.2 83.1,7.9 C83.1,8.6 83.2,9.3 83.3,9.9 C83.4,10.6 83.6,11.2 84,11.7 Z" id="Shape"></path> <polygon id="Shape" points="97 14.6 93.6 1.2 95.2 1.2 97.7 10.7 100.7 1.2 101.5 1.2 104.6 10.7 107 1.2 108.6 1.2 105.2 14.6 104.2 14.6 101 4.6 97.8 14.6"></polygon> </g> <polyline id="Shape_12_" stroke="#0094C7" stroke-width="1.2545" stroke-linecap="round" stroke-linejoin="round" points="97.2 8.8 58.9 8.8 4.2 70.7"></polyline> <polygon id="Shape_11_" fill="#FFFFFF" fill-rule="nonzero" points="4.7 71 3.7 70.2 18.6 53.4 19.5 54.3"></polygon> <circle id="Oval_3_" stroke="#0094C7" stroke-width="1.2545" fill="#FFFFFF" fill-rule="nonzero" stroke-linecap="round" stroke-linejoin="round" cx="5.8" cy="68.9" r="5.3"></circle> </g> <polyline id="Shape_10_" stroke="#0094C7" stroke-width="2.5092" stroke-linecap="round" stroke-linejoin="round" points="103 115.8 232.3 175.8 232.3 175.8 232.3 33.6"></polyline> </g> </g> </svg> 