<?xml version="1.0" encoding="UTF-8"?> <svg xmlns="http://www.w3.org/2000/svg" xmlns:xlink="http://www.w3.org/1999/xlink" width="365px" height="300px" viewBox="0 0 365 300"> <!-- Generator: Sketch 46.2 (44496) - http://www.bohemiancoding.com/sketch --> <title>just_17percent</title> <desc>Created with Sketch.</desc> <defs></defs> <g id="Page-1" stroke="none" stroke-width="1" fill="none" fill-rule="evenodd"> <g id="just_17percent" transform="translate(1.000000, 0.000000)"> <path d="M262.8,131.2 C257.2,131.4 241,134.5 230.7,136.8" id="Shape" fill="#D1D3D4" fill-rule="nonzero"></path> <path d="M249,93.1 L220.8,109.4 C244.4,150.7 230.1,203.2 188.8,226.8 C147.5,250.4 95,236.1 71.4,194.8 C47.8,153.5 62.1,101 103.4,77.4 C116.4,70 131.1,66.1 146.1,66.1 L146.1,66.1 L146.1,33.5 L146.1,33.5 C80.6,33.5 27.6,86.6 27.6,152 C27.6,217.5 80.7,270.5 146.2,270.5 C211.7,270.5 264.7,217.4 264.7,151.9 C264.6,131.3 259.2,111 249,93.1 L249,93.1 Z" id="Shape_1_" fill="#D1D3D4" fill-rule="nonzero"></path> <circle id="Oval" stroke="#0094C7" stroke-width="1.3902" stroke-dasharray="2.7805,5.561" cx="146.1" cy="153.1" r="146"></circle> <path d="M262.9,131.7 L146.1,152.5" id="Shape_2_" stroke="#FF6800" stroke-width="2.0854" stroke-linejoin="round"></path> <path d="M219.2,139.5 L262.9,131.7 C253,75 203.7,33.5 146.1,33.5 L146.1,77.8 C182.2,77.9 213,103.9 219.2,139.5 Z" id="Shape_3_" stroke="#FF6800" stroke-width="2.0854" fill="#F49758" fill-rule="nonzero" stroke-linejoin="round"></path> <path d="M220.8,109.4 L249,93.1 C227.9,56.2 188.6,33.5 146.1,33.5 L146.1,66 C177,66 205.5,82.6 220.8,109.4 Z" id="Shape_4_" stroke="#0094C7" stroke-width="2.0854" fill="#5BB4D8" fill-rule="nonzero" stroke-linecap="round" stroke-linejoin="round"></path> <polyline id="Shape_5_" stroke="#0094C7" stroke-width="2.0854" stroke-linecap="round" stroke-linejoin="round" points="248.8 92.8 146.1 152.5 146.1 152.5 146.1 34"></polyline> <g id="Group" transform="translate(286.000000, 0.000000)" fill-rule="nonzero" fill="#F2F2F2"> <path d="M0.9,11.8 L0.9,11 C1.5,10.3 2.1,9.6 2.7,9 C3.3,8.4 3.8,7.7 4.2,7.1 C4.5,6.8 4.7,6.4 4.9,6.1 C5.1,5.8 5.3,5.5 5.4,5.2 C5.5,4.9 5.7,4.7 5.7,4.4 C5.8,4.1 5.8,3.9 5.8,3.6 C5.8,3 5.6,2.5 5.3,2.2 C5,1.9 4.5,1.7 4,1.7 C3,1.7 2.2,2.3 1.5,3.4 L0.4,2.8 C0.8,2.1 1.3,1.5 1.9,1.1 C2.5,0.7 3.2,0.5 4.1,0.5 C4.6,0.5 5,0.6 5.4,0.7 C5.8,0.8 6.1,1 6.4,1.3 C6.7,1.6 6.9,1.9 7,2.2 C7.1,2.5 7.2,3 7.2,3.4 C7.2,4.1 7,4.8 6.7,5.4 C6.3,6 5.9,6.7 5.4,7.3 C5,7.9 4.5,8.4 4,8.9 C3.5,9.4 3.1,9.9 2.6,10.5 L7.4,10.5 L7.4,11.6 L0.9,11.6 L0.9,11.8 Z" id="Shape"></path> <path d="M11.4,11.6 C10.9,11.3 10.5,10.8 10.2,10.3 C9.9,9.8 9.6,9.1 9.5,8.5 C9.3,7.8 9.3,7.1 9.3,6.4 C9.3,5.7 9.4,5 9.5,4.3 C9.7,3.6 9.9,3 10.2,2.5 C10.5,2 10.9,1.5 11.4,1.2 C11.9,0.9 12.5,0.7 13.2,0.7 C13.9,0.7 14.5,0.9 15,1.2 C15.5,1.5 15.9,2 16.2,2.5 C16.5,3 16.8,3.7 16.9,4.3 C17.1,5 17.1,5.7 17.1,6.4 C17.1,7.1 17,7.8 16.9,8.5 C16.7,9.2 16.5,9.8 16.2,10.3 C15.9,10.8 15.5,11.3 15,11.6 C14.5,11.9 13.9,12.1 13.2,12.1 C12.5,12.1 11.9,11.9 11.4,11.6 Z M11.2,9.4 C11.4,9.8 11.7,10.2 12,10.5 C12.3,10.8 12.7,10.9 13.2,10.9 C13.6,10.9 14,10.8 14.4,10.5 C14.7,10.2 15,9.9 15.2,9.4 C15.4,9 15.6,8.5 15.7,7.9 C15.8,7.4 15.9,6.8 15.9,6.2 C15.9,5.6 15.9,5.1 15.8,4.6 C15.7,4.1 15.6,3.6 15.3,3.2 C15.1,2.8 14.8,2.4 14.5,2.2 C14.2,1.9 13.8,1.8 13.3,1.8 C12.8,1.8 12.5,1.9 12.1,2.2 C11.8,2.5 11.5,2.8 11.3,3.2 C11.1,3.6 10.9,4.1 10.8,4.6 C10.7,5.1 10.7,5.7 10.7,6.2 C10.7,6.8 10.7,7.3 10.9,7.9 C10.8,8.5 11,9 11.2,9.4 Z" id="Shape"></path> <polygon id="Shape" points="22.1 11.8 22.1 2.3 19.6 3.9 19 3 22.3 0.8 23.5 0.8 23.5 11.8"></polygon> <polygon id="Shape" points="29.3 11.8 33.4 1.9 27.3 1.9 27.3 0.8 34.9 0.8 34.9 1.7 30.7 11.8"></polygon> </g> <g id="Group" transform="translate(329.000000, 92.000000)" fill-rule="nonzero" fill="#F2F2F2"> <path d="M0.5,11.4 L0.5,10.6 C1.1,9.9 1.7,9.2 2.3,8.6 C2.9,8 3.4,7.3 3.8,6.7 C4.1,6.4 4.3,6 4.5,5.7 C4.7,5.4 4.9,5.1 5,4.8 C5.1,4.5 5.3,4.3 5.3,4 C5.4,3.7 5.4,3.5 5.4,3.2 C5.4,2.6 5.2,2.1 4.9,1.8 C4.6,1.5 4.1,1.3 3.6,1.3 C2.6,1.3 1.8,1.9 1.1,3 L0,2.4 C0.4,1.7 0.9,1.1 1.5,0.7 C2.1,0.3 2.8,0.1 3.7,0.1 C4.2,0.1 4.6,0.2 5,0.3 C5.4,0.4 5.7,0.6 6,0.9 C6.3,1.2 6.5,1.5 6.6,1.8 C6.8,2.2 6.8,2.6 6.8,3 C6.8,3.7 6.6,4.4 6.3,5 C5.9,5.6 5.5,6.3 5,6.9 C4.6,7.5 4.1,8 3.6,8.5 C3.1,9 2.7,9.5 2.2,10.1 L7,10.1 L7,11.2 L0.5,11.2 L0.5,11.4 Z" id="Shape"></path> <path d="M10.9,11.2 C10.4,10.9 10,10.4 9.7,9.9 C9.4,9.4 9.1,8.7 9,8.1 C8.8,7.4 8.8,6.7 8.8,6 C8.8,5.3 8.9,4.6 9,3.9 C9.2,3.2 9.4,2.6 9.7,2.1 C10,1.6 10.4,1.1 10.9,0.8 C11.4,0.5 12,0.3 12.7,0.3 C13.4,0.3 14,0.5 14.5,0.8 C15,1.1 15.4,1.6 15.7,2.1 C16,2.6 16.3,3.3 16.4,3.9 C16.6,4.6 16.6,5.3 16.6,6 C16.6,6.7 16.5,7.4 16.4,8.1 C16.2,8.8 16,9.4 15.7,9.9 C15.4,10.4 15,10.9 14.5,11.2 C14,11.5 13.4,11.7 12.7,11.7 C12,11.7 11.4,11.5 10.9,11.2 Z M10.7,9 C10.9,9.4 11.2,9.8 11.5,10.1 C11.8,10.4 12.2,10.5 12.7,10.5 C13.1,10.5 13.5,10.4 13.9,10.1 C14.2,9.8 14.5,9.5 14.7,9 C14.9,8.6 15.1,8.1 15.2,7.5 C15.3,7 15.4,6.4 15.4,5.8 C15.4,5.2 15.4,4.7 15.3,4.2 C15.2,3.7 15.1,3.2 14.8,2.8 C14.5,2.4 14.3,2 14,1.8 C13.7,1.5 13.3,1.4 12.8,1.4 C12.3,1.4 12,1.5 11.6,1.8 C11.3,2.1 11,2.4 10.8,2.8 C10.6,3.2 10.4,3.7 10.3,4.2 C10.2,4.7 10.2,5.3 10.2,5.8 C10.2,6.4 10.3,6.9 10.4,7.5 C10.4,8.1 10.5,8.6 10.7,9 Z" id="Shape"></path> <polygon id="Shape" points="21.7 11.4 21.7 2 19.2 3.6 18.5 2.7 21.8 0.5 23 0.5 23 11.5 21.7 11.5"></polygon> <path d="M33.3,1.3 C32.8,1.4 32.4,1.5 31.9,1.8 C31.5,2 31,2.3 30.7,2.6 C30.3,2.9 30,3.3 29.7,3.7 C29.4,4.1 29.2,4.5 29,5 C29.3,4.8 29.6,4.7 30,4.5 C30.4,4.3 30.7,4.3 31.1,4.3 C31.6,4.3 32.1,4.4 32.5,4.6 C32.9,4.8 33.2,5.1 33.5,5.4 C33.8,5.7 34,6.1 34.1,6.6 C34.2,7 34.3,7.5 34.3,8 C34.3,8.5 34.2,9 34.1,9.4 C33.9,9.8 33.7,10.2 33.4,10.6 C33.1,10.9 32.7,11.2 32.3,11.4 C31.9,11.6 31.4,11.7 30.9,11.7 C30.3,11.7 29.7,11.6 29.3,11.3 C28.8,11 28.5,10.7 28.2,10.3 C27.9,9.9 27.7,9.4 27.6,8.9 C27.5,8.4 27.4,7.8 27.4,7.3 C27.4,6.4 27.5,5.6 27.8,4.8 C28.1,4 28.4,3.3 28.9,2.7 C29.4,2.1 30,1.6 30.7,1.2 C31.4,0.8 32.2,0.5 33,0.4 L33.3,1.3 Z M29.7,5.6 C29.4,5.7 29.1,5.9 28.8,6.1 C28.7,6.5 28.7,6.9 28.7,7.3 C28.7,7.7 28.7,8 28.8,8.4 C28.9,8.8 29,9.1 29.2,9.5 C29.4,9.8 29.6,10.1 29.9,10.3 C30.2,10.5 30.6,10.6 31,10.6 C31.3,10.6 31.6,10.5 31.9,10.4 C32.2,10.3 32.4,10.1 32.6,9.8 C32.8,9.6 32.9,9.3 33,9 C33.1,8.7 33.1,8.4 33.1,8.1 C33.1,7.8 33.1,7.4 33,7.1 C32.9,6.8 32.8,6.5 32.6,6.3 C32.4,6.1 32.2,5.9 31.9,5.7 C31.6,5.6 31.3,5.5 30.9,5.5 C30.4,5.4 30.1,5.5 29.7,5.6 Z" id="Shape"></path> </g> <polyline id="Shape_6_" stroke="#0094C7" stroke-width="1.0427" stroke-linecap="round" stroke-linejoin="round" points="279.3 7.1 238.5 7.1 193 58.4"></polyline> <polygon id="Shape_7_" fill="#FFFFFF" fill-rule="nonzero" points="193.4 58.8 192.6 58.1 202.7 46.7 203.7 47.2"></polygon> <polyline id="Shape_8_" stroke="#FF6800" stroke-width="1.0427" stroke-linecap="round" stroke-linejoin="round" points="320.1 98.5 265.4 98.5 244.6 119"></polyline> <polygon id="Shape_9_" fill="#FFFFFF" fill-rule="nonzero" points="244.9 119.4 244.2 118.6 256.6 106.4 257.1 107.4"></polygon> <circle id="Oval_1_" stroke="#FF6800" stroke-width="1.0427" fill="#FFFFFF" fill-rule="nonzero" stroke-linejoin="round" cx="244.6" cy="119" r="4.4"></circle> <circle id="Oval_2_" stroke="#0094C7" stroke-width="1.0427" fill="#FFFFFF" fill-rule="nonzero" stroke-linecap="round" stroke-linejoin="round" cx="193" cy="58.4" r="4.4"></circle> </g> </g> </svg> 