<?xml version="1.0" encoding="UTF-8"?> <svg xmlns="http://www.w3.org/2000/svg" xmlns:xlink="http://www.w3.org/1999/xlink" width="553px" height="362px" viewBox="0 0 553 362"> <!-- Generator: Sketch 46.2 (44496) - http://www.bohemiancoding.com/sketch --> <title>third_party_risk_accountability_v02</title> <desc>Created with Sketch.</desc> <defs></defs> <g id="Page-1" stroke="none" stroke-width="1" fill="none" fill-rule="evenodd"> <g id="third_party_risk_accountability_v02"> <g id="Group_10_" transform="translate(174.000000, 0.000000)" fill-rule="nonzero" fill="#F5F5F5"> <polygon id="Shape_69_" points="0.1 14 0.1 0.5 1.7 0.5 8.5 10.6 8.5 0.5 10.1 0.5 10.1 13.9 8.9 13.9 1.7 3.3 1.7 13.9 0.1 13.9"></polygon> <path d="M15.7,13.7 C15,13.3 14.4,12.7 13.9,12.1 C13.4,11.5 13.1,10.7 12.8,9.8 C12.6,9 12.4,8.1 12.4,7.3 C12.4,6.5 12.5,5.6 12.8,4.8 C13,4 13.4,3.2 13.9,2.5 C14.4,1.8 15,1.4 15.7,1 C16.4,0.6 17.3,0.4 18.2,0.4 C19.2,0.4 20,0.6 20.7,1 C21.4,1.4 22,2 22.5,2.6 C23,3.2 23.3,4 23.6,4.9 C23.8,5.7 24,6.6 24,7.4 C24,8.2 23.9,9.1 23.6,9.9 C23.4,10.7 23,11.5 22.5,12.2 C22,12.8 21.4,13.4 20.7,13.8 C20,14.2 19.1,14.4 18.2,14.4 C17.3,14.3 16.4,14 15.7,13.7 Z M15.2,11 C15.6,11.5 15.9,12 16.4,12.3 C16.9,12.7 17.5,12.8 18.2,12.8 C18.9,12.8 19.5,12.7 20,12.3 C20.5,11.9 21,11.6 21.2,11 C21.6,10.5 21.8,9.9 21.9,9.2 C22,8.5 22.1,7.9 22.1,7.2 C22.1,6.5 22,5.9 21.9,5.2 C21.8,4.5 21.5,3.9 21.2,3.4 C20.8,2.9 20.5,2.4 20,2.1 C19.5,1.7 18.9,1.6 18.2,1.6 C17.5,1.6 16.9,1.7 16.4,2.1 C15.9,2.5 15.4,2.8 15.2,3.4 C15,4 14.6,4.5 14.5,5.2 C14.4,5.9 14.3,6.5 14.3,7.2 C14.3,7.9 14.4,8.6 14.5,9.2 C14.8,10 15,10.6 15.2,11 Z" id="Shape_68_"></path> </g> <polyline id="Shape_67_" stroke="#E6E5E5" stroke-width="1.2542" points="304.5 78.1 242.6 8.3 204.3 8.3"></polyline> <circle id="Oval" stroke="#0094C7" stroke-width="1.6731" stroke-dasharray="3.3462,6.6923" cx="376.1" cy="184.7" r="175.7"></circle> <g id="Group_9_" transform="translate(0.000000, 38.000000)" fill-rule="nonzero" fill="#F5F5F5"> <polygon id="Shape_66_" points="5.1 13.6 5.1 1.6 0.9 1.6 0.9 0.1 10.8 0.1 10.8 1.6 6.6 1.6 6.6 13.6"></polygon> <polygon id="Shape_65_" points="12.6 13.6 12.6 0.2 14.2 0.2 14.2 6.1 20.8 6.1 20.8 0.2 22.4 0.2 22.4 13.6 20.8 13.6 20.8 7.4 14.2 7.4 14.2 13.6"></polygon> <polygon id="Shape_64_" points="25.7 13.6 25.7 0.2 27.3 0.2 27.3 13.6"></polygon> <path d="M30.6,13.6 L30.6,0.2 L34.9,0.2 C36.5,0.2 37.5,0.6 38.2,1.2 C38.9,1.9 39.3,2.8 39.3,3.8 C39.3,4.4 39.2,4.9 39.1,5.4 C39,5.9 38.7,6.2 38.4,6.5 C38,6.7 37.8,7.1 37.3,7.2 C36.9,7.4 36.5,7.6 36,7.6 L39.7,13.6 L37.8,13.6 L34.2,7.9 L32.3,7.9 L32.3,13.7 L30.6,13.7 L30.6,13.6 Z M32.2,6.3 L34.8,6.3 C36.7,6.3 37.5,5.5 37.5,3.8 C37.5,3.1 37.3,2.5 36.8,2.1 C36.3,1.7 35.7,1.5 34.9,1.5 L32.2,1.5 L32.2,6.3 L32.2,6.3 Z" id="Shape_63_"></path> <path d="M41.7,13.6 L41.7,0.2 L45.2,0.2 C45.7,0.2 46.3,0.2 46.9,0.3 C47.5,0.4 48,0.5 48.5,0.8 C49,1 49.5,1.3 49.8,1.6 C50.2,2 50.5,2.4 50.9,2.9 C51.3,3.4 51.4,4 51.6,4.6 C51.8,5.2 51.8,5.9 51.8,6.6 C51.8,7.6 51.7,8.4 51.4,9.1 C51.2,9.8 50.9,10.5 50.6,11 C50.2,11.6 49.8,12 49.3,12.3 C48.8,12.7 48.2,12.9 47.6,13.1 C47.2,13.2 46.9,13.2 46.5,13.3 C46,13.3 45.7,13.4 45.3,13.4 L41.7,13.4 L41.7,13.6 Z M43.3,12.2 L45,12.2 C45.2,12.2 45.6,12.2 46,12.2 C46.4,12.2 46.7,12.1 47.1,12 C47.5,11.9 47.9,11.6 48.3,11.3 C48.7,11.1 49,10.7 49.3,10.2 C49.5,9.8 49.8,9.4 49.9,8.8 C50,8.2 50.1,7.6 50.1,6.9 C50.1,5.7 50,4.8 49.6,4 C49.2,3.3 48.8,2.7 48.2,2.3 C47.8,2.1 47.4,1.8 46.8,1.7 C46.3,1.6 45.7,1.6 45.2,1.6 L43.5,1.6 L43.5,12.2 L43.3,12.2 L43.3,12.2 Z" id="Shape_62_"></path> <path d="M58.2,13.6 L58.2,0.2 L62.4,0.2 C64,0.2 65,0.6 65.9,1.3 C66.6,2 67,3 67,4.3 C67,5.6 66.6,6.6 65.8,7.3 C65,8 63.9,8.3 62.3,8.3 L59.8,8.3 L59.8,13.7 L58.2,13.7 L58.2,13.6 Z M59.8,6.8 L62.4,6.8 C63.2,6.8 63.8,6.6 64.4,6.2 C64.9,5.8 65.1,5.1 65.1,4.2 C65.1,3.3 64.9,2.6 64.4,2.2 C63.9,1.7 63.2,1.6 62.4,1.6 L59.8,1.6 L59.8,6.8 Z" id="Shape_61_"></path> <path d="M67.4,13.6 L72.5,0.2 L73.6,0.2 L78.9,13.6 L77.1,13.6 L75.5,9.4 L70.6,9.4 L69,13.6 L67.4,13.6 L67.4,13.6 Z M71.2,8 L75,8 L73.1,2.9 L71.2,8 Z" id="Shape_60_"></path> <path d="M80.5,13.6 L80.5,0.2 L84.8,0.2 C86.4,0.2 87.4,0.6 88.1,1.2 C88.8,1.9 89.2,2.8 89.2,3.8 C89.2,4.4 89.1,4.9 89,5.4 C88.9,5.9 88.6,6.2 88.3,6.5 C87.9,6.7 87.7,7.1 87.2,7.2 C86.8,7.4 86.4,7.6 85.9,7.6 L89.6,13.6 L87.8,13.6 L84.2,7.8 L82.3,7.8 L82.3,13.6 L80.5,13.6 L80.5,13.6 Z M82.1,6.3 L84.7,6.3 C86.6,6.3 87.4,5.5 87.4,3.8 C87.4,3.1 87.2,2.5 86.7,2.1 C86.2,1.7 85.6,1.5 84.8,1.5 L82.1,1.5 L82.1,6.3 L82.1,6.3 Z" id="Shape_59_"></path> <polygon id="Shape_58_" points="94.2 13.6 94.2 1.6 90.1 1.6 90.1 0.1 100 0.1 100 1.6 95.8 1.6 95.8 13.6"></polygon> <polygon id="Shape_57_" points="104.7 13.6 104.7 7.2 100.2 0.2 102 0.2 105.6 5.6 109.3 0.2 111.1 0.2 106.3 7.2 106.3 13.6"></polygon> <path d="M116.7,13.6 L116.7,0.2 L121,0.2 C122.6,0.2 123.6,0.6 124.3,1.2 C125,1.9 125.4,2.8 125.4,3.8 C125.4,4.4 125.3,4.9 125.2,5.4 C125.1,5.9 124.8,6.2 124.5,6.5 C124.1,6.7 123.9,7.1 123.4,7.2 C123,7.4 122.6,7.6 122.1,7.6 L125.8,13.6 L124,13.6 L120.4,7.8 L118.5,7.8 L118.5,13.6 L116.7,13.6 L116.7,13.6 Z M118.3,6.3 L120.9,6.3 C122.8,6.3 123.6,5.5 123.6,3.8 C123.6,3.1 123.4,2.5 122.9,2.1 C122.4,1.7 121.8,1.5 121,1.5 L118.3,1.5 L118.3,6.3 L118.3,6.3 Z" id="Shape_56_"></path> <polygon id="Shape_55_" points="127.8 13.6 127.8 0.2 129.3 0.2 129.3 13.6"></polygon> <path d="M132.9,10.7 C133.3,11.3 133.9,11.7 134.5,12 C135.1,12.2 135.8,12.5 136.4,12.5 C136.8,12.5 137.1,12.5 137.4,12.4 C137.8,12.3 138,12.2 138.2,12 C138.4,11.8 138.7,11.5 138.8,11.3 C138.9,11.1 139,10.7 139,10.2 C139,9.8 138.9,9.5 138.8,9.2 C138.7,8.9 138.4,8.6 138.1,8.5 C137.9,8.3 137.5,8 137.1,7.9 C136.7,7.7 136.4,7.5 135.9,7.4 C135.4,7.2 134.9,7 134.6,6.8 C134.1,6.6 133.8,6.3 133.4,6.1 C133,5.9 132.8,5.5 132.6,5 C132.4,4.6 132.2,4.2 132.2,3.6 C132.2,3 132.3,2.5 132.6,2 C132.9,1.5 133.2,1.2 133.6,0.9 C134,0.7 134.4,0.4 134.9,0.3 C135.4,0.2 136,0.1 136.5,0.1 C137.3,0.1 138.2,0.2 138.9,0.6 C139.6,1 140.3,1.4 140.8,2.2 L139.6,3.2 C139.2,2.7 138.8,2.4 138.3,2 C137.8,1.6 137.1,1.5 136.5,1.5 C135.7,1.5 135.1,1.6 134.7,2 C134.2,2.4 134.1,2.8 134.1,3.4 C134.1,3.8 134.2,4 134.3,4.2 C134.4,4.4 134.7,4.7 134.9,4.8 C135.1,4.9 135.5,5.2 135.9,5.4 C136.3,5.5 136.7,5.8 137.2,6 C137.7,6.2 138.2,6.4 138.5,6.6 C139,6.8 139.3,7.1 139.7,7.4 C140.1,7.7 140.3,8.1 140.5,8.5 C140.7,8.9 140.9,9.5 140.9,9.9 C140.9,10.6 140.8,11.2 140.5,11.7 C140.3,12.2 139.9,12.7 139.5,12.9 C139.1,13.3 138.7,13.5 138.1,13.6 C137.6,13.7 137,13.8 136.4,13.8 C135.9,13.8 135.4,13.8 135.1,13.7 C134.6,13.6 134.3,13.5 133.8,13.2 C133.4,13 133,12.7 132.7,12.5 C132.3,12.3 132.1,11.9 131.9,11.5 L132.9,10.7 Z" id="Shape_54_"></path> <polygon id="Shape_53_" points="143 13.6 143 0.2 144.6 0.2 144.6 6.1 150.3 0.2 152.2 0.2 147.1 5.5 152.6 13.6 150.7 13.6 146 6.7 144.6 8.1 144.6 13.6"></polygon> <path d="M0.7,37.7 L5.8,24.3 L6.8,24.3 L12,37.7 L10.3,37.7 L8.7,33.5 L3.8,33.5 L2.2,37.7 L0.7,37.7 Z M4.5,32.1 L8.3,32.1 L6.4,27 L4.5,32.1 Z" id="Shape_52_"></path> <path d="M22.5,35.2 C22.4,35.6 22.1,35.8 21.9,36.2 C21.7,36.6 21.3,36.8 20.9,37 C20.5,37.2 20.2,37.5 19.7,37.6 C19.2,37.7 18.7,37.8 18.1,37.8 C17.3,37.8 16.5,37.7 16,37.4 C15.4,37.2 14.7,36.7 14.2,36.2 C13.7,35.6 13.2,34.9 13,34.1 C12.8,33.3 12.5,32.2 12.5,31 C12.5,29.8 12.6,28.7 13,27.8 C13.4,27 13.7,26.1 14.2,25.7 C14.7,25.1 15.3,24.7 15.9,24.5 C16.5,24.3 17.2,24.1 17.8,24.1 C18.9,24.1 19.7,24.3 20.5,24.8 C21.3,25.3 21.9,26 22.3,26.8 L21,27.5 C20.9,27.3 20.8,27 20.5,26.8 C20.3,26.6 20,26.3 19.8,26.1 C19.6,25.9 19.2,25.7 19,25.6 C18.6,25.5 18.4,25.4 18,25.4 C16.8,25.4 15.9,25.9 15.3,26.8 C14.6,27.8 14.3,29.2 14.3,30.9 C14.3,31.7 14.4,32.6 14.7,33.2 C14.9,33.9 15.2,34.4 15.5,34.9 C15.9,35.4 16.2,35.7 16.7,36 C17.2,36.2 17.7,36.4 18.3,36.4 C18.7,36.4 19,36.4 19.4,36.3 C19.8,36.2 20,36.1 20.2,35.8 C20.4,35.6 20.7,35.4 20.9,35.2 C21.1,35 21.3,34.7 21.4,34.5 L22.5,35.2 Z" id="Shape_51_"></path> <path d="M33.7,35.2 C33.6,35.6 33.3,35.8 33.1,36.2 C32.9,36.6 32.5,36.8 32.1,37 C31.7,37.2 31.4,37.5 30.9,37.6 C30.4,37.7 29.9,37.8 29.3,37.8 C28.5,37.8 27.7,37.7 27.2,37.4 C26.6,37.2 25.9,36.7 25.4,36.2 C24.9,35.6 24.4,34.9 24.2,34.1 C24,33.3 23.7,32.2 23.7,31 C23.7,29.8 23.8,28.7 24.2,27.8 C24.6,27 24.9,26.1 25.4,25.7 C25.9,25.1 26.5,24.7 27.1,24.5 C27.7,24.3 28.4,24.1 29,24.1 C30.1,24.1 30.9,24.3 31.7,24.8 C32.5,25.3 33.1,26 33.5,26.8 L32.2,27.6 C32.1,27.4 32,27.1 31.7,26.9 C31.5,26.7 31.2,26.4 31,26.2 C30.8,26 30.4,25.8 30.2,25.7 C29.8,25.6 29.6,25.5 29.2,25.5 C28,25.5 27.1,26 26.5,26.9 C25.8,27.9 25.5,29.3 25.5,31 C25.5,31.8 25.6,32.7 25.9,33.3 C26.1,34 26.4,34.5 26.7,35 C27.1,35.5 27.4,35.8 27.9,36.1 C28.4,36.3 28.9,36.5 29.5,36.5 C29.9,36.5 30.2,36.5 30.6,36.4 C31,36.3 31.2,36.2 31.4,35.9 C31.6,35.7 31.9,35.5 32.1,35.3 C32.3,35.1 32.5,34.8 32.6,34.6 L33.7,35.2 Z" id="Shape_50_"></path> <path d="M38.2,37.4 C37.5,37 36.9,36.4 36.4,35.8 C35.9,35.2 35.6,34.4 35.3,33.5 C35.1,32.7 34.9,31.8 34.9,31 C34.9,30.2 35,29.3 35.3,28.5 C35.5,27.7 35.9,26.9 36.4,26.2 C36.9,25.5 37.5,25 38.2,24.6 C38.9,24.2 39.8,24 40.7,24 C41.7,24 42.5,24.2 43.2,24.6 C43.9,25 44.5,25.6 45,26.2 C45.5,26.8 45.8,27.6 46.1,28.5 C46.3,29.3 46.5,30.2 46.5,31 C46.5,31.8 46.4,32.7 46.1,33.5 C45.8,34.3 45.5,35.1 45,35.8 C44.5,36.4 43.9,37 43.2,37.4 C42.5,37.8 41.6,38 40.7,38 C39.7,37.9 38.9,37.7 38.2,37.4 Z M37.7,34.7 C38.1,35.2 38.4,35.7 38.9,36 C39.4,36.4 40,36.5 40.7,36.5 C41.4,36.5 42,36.4 42.5,36 C43,35.6 43.5,35.3 43.7,34.7 C44.1,34.2 44.3,33.6 44.4,32.9 C44.5,32.2 44.6,31.6 44.6,30.9 C44.6,30.2 44.5,29.6 44.4,28.9 C44.3,28.2 44,27.6 43.7,27.1 C43.3,26.6 43,26.1 42.5,25.8 C42,25.4 41.4,25.3 40.7,25.3 C40,25.3 39.4,25.4 38.9,25.8 C38.4,26.2 37.9,26.5 37.7,27.1 C37.5,27.7 37.1,28.2 37,28.9 C36.9,29.6 36.8,30.2 36.8,30.9 C36.8,31.6 36.9,32.3 37,32.9 C37.1,33.5 37.4,34.2 37.7,34.7 Z" id="Shape_20_"></path> <path d="M50.6,32.9 C50.6,34.1 50.8,34.9 51.4,35.5 C52,36.1 52.8,36.5 53.9,36.5 C55,36.5 55.8,36.1 56.4,35.5 C57,34.9 57.2,33.9 57.2,32.8 L57.2,24.2 L58.8,24.2 L58.8,33.2 C58.8,34 58.7,34.6 58.4,35.2 C58.2,35.8 57.8,36.3 57.3,36.6 C56.8,37 56.3,37.3 55.7,37.4 C55.1,37.6 54.5,37.8 53.8,37.8 C53.1,37.8 52.5,37.7 51.9,37.4 C51.3,37.2 50.8,36.9 50.3,36.6 C49.8,36.2 49.5,35.8 49.2,35.2 C49,34.6 48.8,33.9 48.8,33.2 L48.8,24.2 L50.4,24.2 L50.4,32.9 L50.6,32.9 Z" id="Shape_21_"></path> <polygon id="Shape_22_" points="62 37.7 62 24.2 63.7 24.2 70.5 34.2 70.5 24.2 72 24.2 72 37.6 70.8 37.6 63.7 27 63.7 37.6 62 37.6"></polygon> <polygon id="Shape_23_" points="77.9 37.7 77.9 25.7 73.7 25.7 73.7 24.2 83.6 24.2 83.6 25.7 79.4 25.7 79.4 37.7"></polygon> <path d="M82.2,37.7 L87.3,24.3 L88.3,24.3 L93.6,37.7 L91.8,37.7 L90.4,33.5 L85.5,33.5 L83.9,37.7 L82.2,37.7 Z M85.9,32.1 L89.7,32.1 L87.8,27 L85.9,32.1 Z" id="Shape_24_"></path> <path d="M95.2,37.7 L95.2,24.2 L99,24.2 C100.3,24.2 101.4,24.6 102,25.2 C102.7,25.8 103.1,26.6 103.1,27.7 C103.1,28.5 102.9,29.3 102.4,29.7 C101.9,30.2 101.3,30.4 100.5,30.5 C100.9,30.5 101.2,30.6 101.7,30.7 C102.1,30.8 102.4,31.1 102.8,31.3 C103.2,31.5 103.4,31.9 103.5,32.3 C103.7,32.7 103.9,33.3 103.9,33.9 C103.9,34.5 103.8,35 103.7,35.5 C103.5,36 103.2,36.3 102.9,36.7 C102.5,37.1 102.2,37.3 101.7,37.4 C101.2,37.5 100.7,37.6 100.1,37.6 L95.3,37.6 L95.3,37.7 L95.2,37.7 Z M96.9,30 L98.9,30 C99.7,30 100.3,29.8 100.8,29.4 C101.3,28.9 101.4,28.4 101.4,27.7 C101.4,26.4 100.7,25.8 99.1,25.8 L96.8,25.8 L96.8,30 L96.9,30 Z M96.9,36.3 L99.9,36.3 C100.6,36.3 101.1,36.1 101.6,35.7 C102,35.3 102.2,34.7 102.2,33.9 C102.2,32.2 101.1,31.4 99.1,31.4 L97,31.4 L97,36.3 L96.9,36.3 Z" id="Shape_25_"></path> <polygon id="Shape_26_" points="106.1 37.7 106.1 24.2 107.6 24.2 107.6 37.6 106.1 37.6"></polygon> <polygon id="Shape_27_" points="110.8 37.7 110.8 24.2 112.4 24.2 112.4 36.3 118.6 36.3 118.6 37.7"></polygon> <polygon id="Shape_28_" points="120.7 37.7 120.7 24.2 122.3 24.2 122.3 37.6 120.7 37.6"></polygon> <polygon id="Shape_29_" points="128.3 37.7 128.3 25.7 124.1 25.7 124.1 24.2 134 24.2 134 25.7 129.8 25.7 129.8 37.7"></polygon> <polygon id="Shape_30_" points="138.8 37.7 138.8 31.3 134.2 24.3 136 24.3 139.6 29.7 143.3 24.3 145.1 24.3 140.3 31.3 140.3 37.7"></polygon> </g> <polyline id="Shape_32_" stroke="#FF6800" stroke-width="2.5096" stroke-linejoin="round" points="236.6 149.3 375 184.8 375 184.8"></polyline> <path d="M375.3,41.8 C375.2,41.8 375.2,41.8 375.1,41.8 L375.1,98.2 C375.2,98.2 375.2,98.2 375.3,98.2 C423.2,98.2 462.1,137.1 462.1,185 C462.1,232.9 423.2,271.8 375.3,271.8 C327.4,271.8 288.5,232.9 288.5,185 C288.5,177.5 289.5,170.2 291.2,163.3 L236.5,149.3 C233.6,160.8 232,172.7 232,185 C232,264.1 296.1,328.2 375.2,328.2 C454.3,328.2 518.5,264.1 518.5,185 C518.5,105.9 454.4,41.8 375.3,41.8 Z" id="Shape_33_" stroke="#FF6800" stroke-width="2.5096" fill="#F49758" fill-rule="nonzero" stroke-linejoin="round"></path> <g id="Group_8_" transform="translate(232.000000, 41.000000)" fill-rule="nonzero"> <path d="M143,40 L143,0.8 C92.2,0.9 47.7,27.4 22.2,67.3 L55.3,88.2 C73.8,59.3 106.2,40.1 143,40 Z" id="Shape_34_" fill="#D1D3D4"></path> <path d="M143.3,0.8 C143.2,0.8 143.2,0.8 143.1,0.8 L143.1,40 C143.2,40 143.2,40 143.3,40 C200.8,40 247.4,86.5 247.4,144.1 C247.4,201.7 200.9,248.2 143.3,248.2 C85.7,248.2 39.2,201.5 39.2,144 C39.2,123.5 45.2,104.4 55.4,88.3 L22.4,67.4 C8.3,89.6 0.1,115.9 0.1,144.1 C0.1,223.2 64.2,287.3 143.3,287.3 C222.4,287.3 286.5,223.2 286.5,144.1 C286.5,64.9 222.4,0.8 143.3,0.8 Z" id="Shape_35_" stroke="#0094C7" stroke-width="2.4985" fill="#5BB4D8" stroke-linecap="round" stroke-linejoin="round"></path> </g> <g id="Group_7_" transform="translate(154.000000, 281.000000)" fill-rule="nonzero" fill="#F5F5F5"> <polygon id="Shape_36_" points="5.2 13.7 5.2 7.2 0.6 0.3 2.4 0.3 6 5.7 9.7 0.3 11.5 0.3 6.7 7.2 6.7 13.7"></polygon> <polygon id="Shape_37_" points="13.2 13.7 13.2 0.3 20.9 0.3 20.9 1.8 14.7 1.8 14.7 6.1 19.1 6.1 19.1 7.5 14.7 7.5 14.7 12.4 21.4 12.4 21.4 13.8 13.2 13.8"></polygon> <path d="M23.7,10.8 C24.1,11.4 24.7,11.8 25.3,12.1 C25.9,12.3 26.6,12.6 27.2,12.6 C27.6,12.6 27.9,12.6 28.2,12.5 C28.6,12.4 28.8,12.3 29,12.1 C29.2,11.9 29.5,11.6 29.6,11.4 C29.7,11.2 29.8,10.8 29.8,10.3 C29.8,9.9 29.7,9.6 29.6,9.3 C29.5,9.1 29.2,8.7 28.9,8.6 C28.7,8.4 28.3,8.1 27.9,8 C27.5,7.8 27.2,7.6 26.7,7.5 C26.2,7.3 25.7,7.1 25.4,6.9 C25,6.7 24.6,6.4 24.2,6.2 C23.8,6 23.6,5.6 23.4,5.1 C23.2,4.6 23,4.3 23,3.7 C23,3.1 23.1,2.6 23.4,2.1 C23.7,1.6 24,1.3 24.4,1 C24.8,0.8 25.2,0.5 25.7,0.4 C26.2,0.3 26.8,0.2 27.3,0.2 C28.1,0.2 29,0.3 29.7,0.7 C30.4,1.1 31.1,1.5 31.6,2.3 L30.4,3.3 C30,2.8 29.6,2.5 29.1,2.1 C28.5,1.7 27.9,1.6 27.3,1.6 C26.5,1.6 25.9,1.7 25.5,2.1 C25,2.5 24.9,2.9 24.9,3.5 C24.9,3.9 25,4.1 25.1,4.3 C25.2,4.5 25.5,4.8 25.7,4.9 C25.9,5.1 26.3,5.3 26.7,5.5 C27.1,5.6 27.5,5.9 28,6.1 C28.5,6.3 29,6.5 29.3,6.7 C29.8,6.9 30.1,7.2 30.5,7.5 C30.9,7.9 31.1,8.2 31.3,8.6 C31.5,9 31.7,9.6 31.7,10 C31.7,10.7 31.6,11.3 31.3,11.8 C31.1,12.3 30.7,12.8 30.3,13 C29.9,13.4 29.5,13.6 28.9,13.7 C28.4,13.8 27.8,13.9 27.2,13.9 C26.7,13.9 26.2,13.9 25.9,13.8 C25.4,13.7 25.1,13.6 24.6,13.3 C24.2,13.1 23.8,12.8 23.5,12.6 C23.1,12.4 22.9,12 22.7,11.6 L23.7,10.8 Z" id="Shape_38_"></path> </g> <g id="Group_6_" transform="translate(155.000000, 305.000000)" fill-rule="nonzero" fill="#F5F5F5"> <path d="M1.1,13.8 L1.1,12.8 C1.8,12 2.5,11.1 3.2,10.4 C3.9,9.6 4.5,8.8 5,8.1 C5.4,7.7 5.6,7.3 5.8,6.9 C6,6.5 6.3,6.2 6.4,5.8 C6.5,5.4 6.8,5.2 6.8,4.8 C6.9,4.4 6.9,4.2 6.9,3.8 C6.9,3.1 6.7,2.5 6.3,2 C5.9,1.6 5.3,1.4 4.7,1.4 C3.5,1.4 2.4,2.1 1.7,3.4 L0.4,2.7 C0.9,1.9 1.5,1.1 2.2,0.7 C2.9,0.3 3.8,-1.42108547e-14 4.8,-1.42108547e-14 C5.4,-1.42108547e-14 5.9,0.1 6.4,0.2 C6.9,0.3 7.2,0.7 7.6,0.9 C8,1.1 8.2,1.6 8.3,2 C8.5,2.5 8.5,3 8.5,3.4 C8.5,4.2 8.3,5.1 7.9,5.9 C7.4,6.6 6.9,7.5 6.3,8.2 C5.8,8.9 5.2,9.5 4.6,10.2 C4,10.8 3.5,11.5 2.9,12.1 L8.7,12.1 L8.7,13.4 L0.8,13.4 L0.8,13.8 L1.1,13.8 Z" id="Shape_39_"></path> <path d="M13.7,13.4 C13.1,13 12.6,12.4 12.3,11.8 C12,11.2 11.6,10.4 11.5,9.5 C11.3,8.7 11.3,7.8 11.3,7 C11.3,6.2 11.4,5.3 11.5,4.5 C11.7,3.7 12,2.9 12.3,2.2 C12.7,1.6 13.1,1 13.7,0.6 C14.3,0.2 15,1.42108547e-14 15.8,1.42108547e-14 C16.6,1.42108547e-14 17.4,0.2 17.9,0.6 C18.5,1 19,1.6 19.5,2.2 C19.9,2.8 20.2,3.6 20.3,4.5 C20.5,5.3 20.5,6.2 20.5,7 C20.5,7.8 20.4,8.7 20.3,9.5 C20.1,10.3 19.8,11.1 19.5,11.8 C19.1,12.4 18.7,13 18.1,13.4 C17.5,13.8 16.8,14 16,14 C15,14 14.3,13.9 13.7,13.4 Z M13.5,10.9 C13.7,11.4 14.1,11.9 14.5,12.2 C14.9,12.5 15.3,12.7 15.9,12.7 C16.4,12.7 16.9,12.6 17.3,12.2 C17.7,11.8 18,11.5 18.3,10.9 C18.5,10.3 18.8,9.8 18.9,9.1 C19,8.5 19.1,7.8 19.1,7.1 C19.1,6.4 19.1,5.8 19,5.1 C18.9,4.5 18.8,3.9 18.4,3.3 C18.2,2.8 17.8,2.3 17.4,2.1 C17,1.9 16.6,1.6 16,1.6 C15.4,1.6 14.9,1.7 14.6,2.1 C14.2,2.5 13.9,2.8 13.6,3.3 C13.3,3.8 13.1,4.4 13,5.1 C12.9,5.7 12.9,6.4 12.9,7.1 C12.9,7.8 13,8.4 13.1,9.1 C13.1,9.7 13.2,10.3 13.5,10.9 Z" id="Shape_40_"></path> <polygon id="Shape_41_" points="26.6 13.8 26.6 2.3 23.6 4.3 22.8 3.2 26.8 0.6 28.3 0.6 28.3 13.8"></polygon> <path d="M40.6,1.6 C40,1.7 39.5,1.8 38.9,2.2 C38.4,2.4 37.8,2.8 37.5,3.2 C37.2,3.6 36.7,4 36.3,4.5 C35.9,5 35.7,5.5 35.5,6.1 C35.9,5.9 36.2,5.7 36.7,5.5 C37.1,5.4 37.5,5.3 38,5.3 C38.6,5.3 39.2,5.4 39.7,5.7 C40.2,5.9 40.7,6.3 40.9,6.7 C41.3,7.1 41.5,7.5 41.6,8.1 C41.7,8.6 41.8,9.2 41.8,9.8 C41.8,10.4 41.7,11 41.6,11.5 C41.4,12 41.1,12.5 40.8,12.9 C40.4,13.3 40,13.6 39.5,13.9 C39,14.1 38.4,14.3 37.8,14.3 C37.1,14.3 36.4,14.2 35.9,13.8 C35.3,13.4 34.9,13.1 34.6,12.6 C34.2,12.1 34,11.5 33.9,10.9 C33.8,10.3 33.7,9.6 33.7,9 C33.7,7.9 33.8,6.9 34.2,5.9 C34.6,4.9 34.9,4.1 35.5,3.4 C36.1,2.7 36.8,2.1 37.6,1.6 C38.4,1.1 39.4,0.8 40.5,0.6 L40.6,1.6 Z M36.4,6.8 C36,6.9 35.7,7.2 35.3,7.4 C35.2,7.9 35.2,8.4 35.2,8.8 C35.2,9.2 35.2,9.6 35.3,10.1 C35.4,10.6 35.5,11.1 35.8,11.4 C36,11.8 36.3,12.1 36.6,12.4 C37,12.6 37.4,12.8 37.9,12.8 C38.3,12.8 38.7,12.7 39,12.6 C39.2,12.5 39.6,12.2 39.8,11.9 C40,11.7 40.2,11.3 40.3,10.9 C40.4,10.5 40.4,10.2 40.4,9.8 C40.4,9.4 40.4,9 40.3,8.6 C40.2,8.2 40.1,7.9 39.8,7.6 C39.5,7.3 39.3,7.1 39,6.9 C38.6,6.8 38.3,6.7 37.8,6.7 C37.2,6.5 36.7,6.6 36.4,6.8 Z" id="Shape_42_"></path> </g> <polyline id="Shape_43_" stroke="#FF6800" stroke-width="1.2548" stroke-linecap="round" stroke-linejoin="round" points="291.1 229.7 236.5 288.4 198.2 288.4"></polyline> <polygon id="Shape_44_" fill="#FFFFFF" fill-rule="nonzero" points="285.4 235 286 236.1 291.6 230.1 290.7 229.3"></polygon> <circle id="Oval_6_" stroke="#FF6800" stroke-width="1.2548" fill="#FFFFFF" fill-rule="nonzero" stroke-linecap="round" stroke-linejoin="round" cx="291.1" cy="229.7" r="5.4"></circle> <g id="Group_2_" transform="translate(127.000000, 126.000000)"> <g id="Shape_45_" fill-rule="nonzero" fill="#F5F5F5"> <polygon id="Shape" points="5.1 14.3 5.1 7.8 0.5 0.9 2.3 0.9 5.9 6.3 9.6 0.9 11.4 0.9 6.6 7.8 6.6 14.3"></polygon> <polygon id="Shape" points="13.1 14.3 13.1 0.9 20.8 0.9 20.8 2.3 14.6 2.3 14.6 6.6 19 6.6 19 8.1 14.6 8.1 14.6 13 21.3 13 21.3 14.4 13.1 14.4"></polygon> <path d="M23.6,11.4 C24,12 24.6,12.4 25.2,12.7 C25.8,12.9 26.5,13.2 27.1,13.2 C27.5,13.2 27.8,13.2 28.1,13.1 C28.5,13 28.7,12.9 28.9,12.7 C29.1,12.5 29.4,12.2 29.5,12 C29.6,11.8 29.7,11.4 29.7,10.9 C29.7,10.5 29.6,10.2 29.5,9.9 C29.4,9.7 29.1,9.3 28.8,9.2 C28.6,9 28.2,8.7 27.8,8.6 C27.4,8.4 27.1,8.2 26.6,8.1 C26.1,7.9 25.6,7.7 25.3,7.5 C24.9,7.3 24.5,7 24.1,6.8 C23.7,6.6 23.5,6.2 23.3,5.7 C23.1,5.2 22.9,4.9 22.9,4.3 C22.9,3.7 23,3.2 23.3,2.7 C23.5,2.2 23.9,1.9 24.3,1.6 C24.7,1.4 25.1,1.1 25.6,1 C26.1,0.9 26.7,0.8 27.2,0.8 C28,0.8 28.9,0.9 29.6,1.3 C30.3,1.7 31,2.1 31.5,2.9 L30.3,3.9 C29.9,3.4 29.5,3.1 29,2.7 C28.4,2.3 27.8,2.2 27.2,2.2 C26.4,2.2 25.8,2.3 25.4,2.7 C24.9,3.1 24.8,3.5 24.8,4.1 C24.8,4.5 24.9,4.7 25,4.9 C25.1,5.1 25.4,5.4 25.6,5.5 C25.8,5.7 26.2,5.9 26.6,6.1 C27,6.2 27.4,6.5 27.9,6.7 C28.4,6.9 28.9,7.1 29.2,7.3 C29.7,7.5 30,7.8 30.4,8.1 C30.8,8.5 31,8.8 31.2,9.2 C31.4,9.6 31.6,10.2 31.6,10.6 C31.6,11.3 31.5,11.9 31.2,12.4 C30.9,12.9 30.6,13.4 30.2,13.6 C29.8,14 29.4,14.2 28.8,14.3 C28.3,14.4 27.7,14.5 27.1,14.5 C26.6,14.5 26.1,14.5 25.8,14.4 C25.3,14.3 25,14.2 24.5,13.9 C24.1,13.7 23.7,13.4 23.4,13.2 C23,13 22.8,12.6 22.6,12.2 L23.6,11.4 Z" id="Shape"></path> </g> <g id="Shape_46_" transform="translate(1.000000, 24.000000)" fill-rule="nonzero" fill="#F5F5F5"> <path d="M1,14.4 L1,13.4 C1.7,12.6 2.4,11.7 3.1,11 C3.8,10.2 4.4,9.4 4.9,8.7 C5.3,8.3 5.5,7.9 5.7,7.5 C5.9,7.1 6.2,6.8 6.3,6.4 C6.4,6 6.7,5.8 6.7,5.4 C6.8,5 6.8,4.8 6.8,4.4 C6.8,3.7 6.6,3.1 6.2,2.6 C5.8,2.2 5.2,2 4.6,2 C3.4,2 2.3,2.7 1.6,4 L0.3,3.3 C0.8,2.5 1.4,1.7 2.1,1.3 C2.8,0.8 3.7,0.6 4.7,0.6 C5.3,0.6 5.8,0.7 6.3,0.8 C6.8,0.9 7.1,1.3 7.5,1.5 C7.9,1.7 8.1,2.2 8.2,2.6 C8.4,3.1 8.4,3.6 8.4,4 C8.4,4.8 8.2,5.7 7.8,6.5 C7.3,7.2 6.8,8.1 6.2,8.8 C5.7,9.5 5.1,10.1 4.5,10.8 C3.9,11.4 3.4,12.1 2.8,12.7 L8.6,12.7 L8.6,14 L1,14 L1,14.4 Z" id="Shape"></path> <path d="M13.6,14 C13,13.6 12.5,13 12.2,12.4 C11.8,11.8 11.5,11 11.4,10.1 C11.2,9.3 11.2,8.4 11.2,7.6 C11.2,6.8 11.3,5.9 11.4,5.1 C11.6,4.3 11.9,3.5 12.2,2.8 C12.6,2.2 13,1.6 13.6,1.2 C14.2,0.8 14.9,0.6 15.7,0.6 C16.5,0.6 17.3,0.8 17.8,1.2 C18.4,1.6 18.9,2.2 19.4,2.8 C19.8,3.4 20.1,4.2 20.2,5.1 C20.4,5.9 20.4,6.8 20.4,7.6 C20.4,8.4 20.3,9.3 20.2,10.1 C20,10.9 19.7,11.7 19.4,12.4 C19,13 18.6,13.6 18,14 C17.4,14.4 16.7,14.6 15.9,14.6 C14.9,14.6 14.2,14.5 13.6,14 Z M13.4,11.5 C13.6,12 14,12.5 14.4,12.8 C14.8,13.1 15.2,13.3 15.8,13.3 C16.3,13.3 16.8,13.2 17.2,12.8 C17.6,12.4 17.9,12.1 18.2,11.5 C18.4,10.9 18.7,10.4 18.8,9.7 C18.9,9.1 19,8.4 19,7.7 C19,7 19,6.4 18.9,5.7 C18.8,5.1 18.7,4.5 18.3,3.9 C18.1,3.4 17.7,2.9 17.3,2.7 C16.9,2.5 16.5,2.2 15.9,2.2 C15.3,2.2 14.8,2.3 14.5,2.7 C14.2,3.1 13.8,3.4 13.5,3.9 C13.3,4.4 13,5 12.9,5.7 C12.8,6.3 12.8,7 12.8,7.7 C12.8,8.4 12.9,9 13,9.7 C12.9,10.3 13.1,10.9 13.4,11.5 Z" id="Shape"></path> <polygon id="Shape" points="26.5 14.4 26.5 2.9 23.5 4.8 22.7 3.8 26.7 1.1 28.2 1.1 28.2 14.4"></polygon> <polygon id="Shape" points="35.2 14.4 40.1 2.6 32.7 2.6 32.7 1.3 41.9 1.3 41.9 2.3 36.9 14.5 35.2 14.5"></polygon> </g> <polyline id="Shape_47_" stroke="#0094C7" stroke-width="1.2542" stroke-linecap="round" stroke-linejoin="round" points="126 70.4 71.3 8.5 44.9 8.5"></polyline> </g> <polygon id="Shape_48_" fill="#FFFFFF" fill-rule="nonzero" points="293.9 67.2 295 66.5 303.9 76.7 303 77.5"></polygon> <circle id="Oval_2_" stroke="#7C858C" stroke-width="1.2548" fill="#FFFFFF" fill-rule="nonzero" stroke-linecap="round" stroke-linejoin="round" cx="305.9" cy="79.5" r="5.4"></circle> <circle id="Oval_1_" stroke="#0094C7" stroke-width="1.2548" fill="#FFFFFF" fill-rule="nonzero" stroke-linecap="round" stroke-linejoin="round" cx="253" cy="195.5" r="5.4"></circle> <polygon id="Shape_49_" fill="#FFFFFF" fill-rule="nonzero" points="231.5 173.1 231.7 171.3 249 191 248.2 191.9"></polygon> <polyline id="Shape_31_" stroke="#0094C7" stroke-width="2.4985" stroke-linecap="round" stroke-linejoin="round" points="254.3 108.3 375 184.8 375 184.8 375 41.8"></polyline> </g> </g> </svg> 