<?xml version="1.0" encoding="UTF-8"?> <svg xmlns="http://www.w3.org/2000/svg" xmlns:xlink="http://www.w3.org/1999/xlink" width="535px" height="317px" viewBox="0 0 535 317"> <!-- Generator: Sketch 46.2 (44496) - http://www.bohemiancoding.com/sketch --> <title>third_party_with_sensitive_data</title> <desc>Created with Sketch.</desc> <defs></defs> <g id="Page-1" stroke="none" stroke-width="1" fill="none" fill-rule="evenodd"> <g id="third_party_with_sensitive_data"> <g id="Page-1" transform="translate(26.000000, 21.000000)"> <g id="third_party_with_sensitive_data"> <g id="_16_21_"> <circle id="Oval" stroke="#0094C7" stroke-width="1.4021" stroke-dasharray="2.8042,5.6085" cx="224.2" cy="147.7" r="147.2"></circle> <polyline id="Shape_27_" stroke="#0094C7" stroke-width="2.1032" stroke-linecap="round" stroke-linejoin="round" points="180.4 258.6 224.2 147.1 224.2 147.1 224.2 27.9"></polyline> <path d="M137.3,147.4 C137.3,99.5 176.2,60.6 224.1,60.6 L224.1,60.6 L224.2,60.6 L224.2,27.9 L224.1,27.9 C158.1,27.9 104.6,81.4 104.6,147.3 C104.6,196.4 134.6,240.5 180.3,258.5 L192.3,228.1 C159.1,215.1 137.3,183.1 137.3,147.4 Z" id="Shape_28_" fill="#D1D3D4" fill-rule="nonzero"></path> <path d="M224.2,27.9 L224.2,60.5 C272.1,60.6 310.9,99.5 310.8,147.5 C310.7,195.4 271.8,234.2 223.8,234.1 C213,234.1 202.3,232 192.3,228.1 L180.4,258.5 C241.8,282.6 311.1,252.4 335.3,191 C359.4,129.6 329.2,60.3 267.8,36.1 C253.9,30.7 239.1,27.9 224.2,27.9 L224.2,27.9 Z" id="Shape_29_" stroke="#0094C7" stroke-width="2.1032" fill="#5BB4D8" fill-rule="nonzero" stroke-linecap="round" stroke-linejoin="round"></path> <g id="Group_1_" transform="translate(407.000000, 58.000000)" fill-rule="nonzero" fill="#1C2E3F"> <path d="M0.3,12.4 L0.3,0.8 L3.3,0.8 C3.8,0.8 4.2,0.8 4.7,0.9 C5.2,1 5.6,1.1 6.1,1.3 C6.6,1.5 6.9,1.7 7.2,2.1 C7.5,2.4 7.8,2.8 8.1,3.2 C8.3,3.6 8.5,4.1 8.7,4.6 C8.8,5.1 8.9,5.7 8.9,6.4 C8.9,7.2 8.8,7.9 8.6,8.6 C8.4,9.2 8.2,9.8 7.8,10.3 C7.5,10.8 7.1,11.2 6.6,11.5 C6.1,11.8 5.7,12 5.1,12.2 C4.8,12.3 4.5,12.3 4.2,12.4 C3.8,12.4 3.5,12.5 3.2,12.5 L0.3,12.5 L0.3,12.4 Z M1.7,11.2 L3.1,11.2 C3.4,11.2 3.6,11.2 4,11.2 C4.3,11.2 4.6,11.1 4.9,11 C5.2,10.8 5.6,10.7 5.9,10.4 C6.2,10.2 6.5,9.9 6.7,9.5 C6.9,9.1 7.1,8.7 7.3,8.2 C7.4,7.7 7.5,7.1 7.5,6.5 C7.5,5.5 7.3,4.7 7,4.1 C6.7,3.5 6.3,3 5.7,2.7 C5.4,2.5 5,2.3 4.5,2.2 C4,2.1 3.6,2.1 3.2,2.1 L1.7,2.1 L1.7,11.2 L1.7,11.2 Z" id="Shape_30_"></path> <path d="M14,12.1 C13.4,11.8 12.9,11.3 12.5,10.7 C12.1,10.1 11.8,9.5 11.6,8.8 C11.4,8.1 11.3,7.3 11.3,6.6 C11.3,5.9 11.4,5.1 11.6,4.4 C11.8,3.7 12.1,3 12.5,2.5 C12.9,2 13.4,1.5 14,1.1 C14.6,0.8 15.3,0.6 16.2,0.6 C17,0.6 17.8,0.8 18.4,1.1 C19,1.4 19.5,1.9 19.9,2.5 C20.3,3.1 20.6,3.7 20.8,4.4 C21,5.1 21.1,5.9 21.1,6.6 C21.1,7.3 21,8.1 20.8,8.8 C20.6,9.5 20.3,10.2 19.9,10.7 C19.5,11.2 19,11.7 18.4,12.1 C17.8,12.4 17.1,12.6 16.2,12.6 C15.4,12.6 14.7,12.4 14,12.1 Z M13.6,9.9 C13.9,10.4 14.2,10.7 14.7,11 C15.1,11.3 15.6,11.4 16.2,11.4 C16.8,11.4 17.3,11.3 17.7,11 C18.1,10.7 18.5,10.4 18.8,9.9 C19.1,9.4 19.3,8.9 19.4,8.4 C19.5,7.8 19.6,7.2 19.6,6.6 C19.6,6 19.5,5.4 19.4,4.9 C19.3,4.3 19.1,3.8 18.8,3.4 C18.5,2.9 18.2,2.6 17.7,2.3 C17.3,2 16.8,1.9 16.2,1.9 C15.6,1.9 15.1,2 14.7,2.3 C14.3,2.6 13.9,2.9 13.6,3.4 C13.3,3.9 13.1,4.4 13,4.9 C12.9,5.5 12.8,6.1 12.8,6.6 C12.8,7.2 12.9,7.8 13,8.4 C13.2,8.9 13.4,9.4 13.6,9.9 Z" id="Shape_31_"></path> <polygon id="Shape_32_" points="24.3 12.4 24.3 0.8 25.7 0.8 31.5 9.4 31.5 0.8 32.9 0.8 32.9 12.4 31.9 12.4 25.7 3.2 25.7 12.4"></polygon> <path d="M35.2,3.8 C35.4,3.7 35.6,3.6 35.9,3.4 C36.2,3.2 36.3,3.1 36.4,2.9 C36.3,2.8 36.2,2.7 36,2.5 C35.9,2.3 35.8,2.1 35.8,1.8 C35.8,1.5 35.9,1.2 36,1 C36.2,0.8 36.4,0.7 36.7,0.7 C37,0.7 37.2,0.8 37.4,1 C37.6,1.2 37.6,1.5 37.6,1.8 C37.6,2.1 37.5,2.4 37.4,2.7 C37.3,3 37.1,3.2 36.9,3.4 C36.7,3.6 36.4,3.8 36.2,4 C35.9,4.2 35.7,4.3 35.4,4.4 L35.2,3.8 Z" id="Shape_33_"></path> <polygon id="Shape_34_" points="43.1 12.4 43.1 2 39.5 2 39.5 0.8 48.1 0.8 48.1 2 44.5 2 44.5 12.4"></polygon> <polygon id="Shape_35_" points="54.8 12.4 54.8 0.8 56.2 0.8 56.2 5.9 61.2 0.8 62.8 0.8 58.3 5.3 63 12.3 61.3 12.3 57.3 6.3 56.1 7.5 56.1 12.3 54.8 12.3"></polygon> <polygon id="Shape_36_" points="65.5 12.4 65.5 0.8 66.9 0.8 72.7 9.4 72.7 0.8 74.1 0.8 74.1 12.4 73.1 12.4 66.9 3.2 66.9 12.4"></polygon> <path d="M79.9,12.1 C79.3,11.8 78.8,11.3 78.4,10.7 C78,10.1 77.7,9.5 77.5,8.8 C77.3,8.1 77.2,7.3 77.2,6.6 C77.2,5.9 77.3,5.1 77.5,4.4 C77.7,3.7 78,3 78.4,2.5 C78.8,2 79.3,1.5 79.9,1.1 C80.5,0.8 81.2,0.6 82.1,0.6 C82.9,0.6 83.7,0.8 84.3,1.1 C84.9,1.4 85.4,1.9 85.8,2.5 C86.2,3.1 86.5,3.7 86.7,4.4 C86.9,5.1 87,5.9 87,6.6 C87,7.3 86.9,8.1 86.7,8.8 C86.5,9.5 86.2,10.2 85.8,10.7 C85.4,11.2 84.9,11.7 84.3,12.1 C83.7,12.4 83,12.6 82.1,12.6 C81.2,12.6 80.5,12.4 79.9,12.1 Z M79.5,9.9 C79.8,10.4 80.1,10.7 80.6,11 C81,11.3 81.5,11.4 82.1,11.4 C82.7,11.4 83.2,11.3 83.6,11 C84,10.7 84.4,10.4 84.7,9.9 C85,9.4 85.2,8.9 85.3,8.4 C85.4,7.8 85.5,7.2 85.5,6.6 C85.5,6 85.4,5.4 85.3,4.9 C85.2,4.3 85,3.8 84.7,3.4 C84.4,2.9 84.1,2.6 83.6,2.3 C83.2,2 82.7,1.9 82.1,1.9 C81.5,1.9 81,2 80.6,2.3 C80.2,2.6 79.8,2.9 79.5,3.4 C79.2,3.9 79,4.4 78.9,4.9 C78.8,5.5 78.7,6.1 78.7,6.6 C78.7,7.2 78.8,7.8 78.9,8.4 C79,8.9 79.2,9.4 79.5,9.9 Z" id="Shape_37_"></path> <polygon id="Shape_38_" points="91.6 12.4 88.7 0.8 90.1 0.8 92.2 9 94.8 0.8 95.5 0.8 98.1 9 100.2 0.8 101.6 0.8 98.7 12.4 98 12.4 95.2 3.8 92.4 12.4"></polygon> </g> <polyline id="Shape_39_" stroke="#0094C7" stroke-width="1.0516" stroke-linecap="round" stroke-linejoin="round" points="399.5 65.6 367.4 65.6 321.6 117.4"></polyline> <polygon id="Shape_40_" fill="#FFFFFF" fill-rule="nonzero" points="322 117.7 321.2 117 333.7 102.9 334.4 103.7"></polygon> <circle id="Oval_1_" stroke="#0094C7" stroke-width="1.0516" fill="#FFFFFF" fill-rule="nonzero" stroke-linecap="round" stroke-linejoin="round" cx="323" cy="115.9" r="4.5"></circle> <g id="Group_2_" transform="translate(0.000000, 91.000000)" fill-rule="nonzero" fill="#1C2E3F"> <polygon id="Shape_41_" points="0 12.3 0 0.7 1.4 0.7 1.4 5.8 6.4 0.7 8 0.7 3.5 5.2 8.2 12.2 6.5 12.2 2.5 6.2 1.3 7.4 1.3 12.2 0 12.2"></polygon> <polygon id="Shape_42_" points="10.7 12.3 10.7 0.7 12.1 0.7 17.9 9.3 17.9 0.7 19.3 0.7 19.3 12.3 18.3 12.3 12.1 3.1 12.1 12.3"></polygon> <path d="M25.1,12 C24.5,11.7 24,11.2 23.6,10.6 C23.2,10 22.9,9.4 22.7,8.7 C22.5,8 22.4,7.2 22.4,6.5 C22.4,5.8 22.5,5 22.7,4.3 C22.9,3.6 23.2,2.9 23.6,2.4 C24,1.9 24.5,1.4 25.1,1 C25.7,0.6 26.4,0.5 27.3,0.5 C28.1,0.5 28.9,0.7 29.5,1 C30.1,1.3 30.6,1.8 31,2.4 C31.4,3 31.7,3.6 31.9,4.3 C32.1,5 32.2,5.8 32.2,6.5 C32.2,7.2 32.1,8 31.9,8.7 C31.7,9.4 31.4,10.1 31,10.6 C30.6,11.1 30.1,11.6 29.5,12 C28.9,12.3 28.2,12.5 27.3,12.5 C26.4,12.5 25.7,12.4 25.1,12 Z M24.7,9.8 C25,10.3 25.3,10.6 25.8,10.9 C26.2,11.2 26.7,11.3 27.3,11.3 C27.9,11.3 28.4,11.2 28.8,10.9 C29.2,10.6 29.6,10.3 29.9,9.8 C30.2,9.3 30.4,8.8 30.5,8.3 C30.6,7.7 30.7,7.1 30.7,6.5 C30.7,5.9 30.6,5.3 30.5,4.8 C30.4,4.2 30.2,3.7 29.9,3.3 C29.6,2.9 29.3,2.5 28.8,2.2 C28.4,1.9 27.9,1.8 27.3,1.8 C26.7,1.8 26.2,1.9 25.8,2.2 C25.4,2.5 25,2.8 24.7,3.3 C24.4,3.8 24.2,4.3 24.1,4.8 C24,5.4 23.9,6 23.9,6.5 C23.9,7.1 24,7.7 24.1,8.3 C24.2,8.8 24.4,9.4 24.7,9.8 Z" id="Shape_43_"></path> <polygon id="Shape_44_" points="36.8 12.3 33.9 0.7 35.3 0.7 37.4 8.9 40 0.7 40.7 0.7 43.3 8.9 45.4 0.7 46.8 0.7 44 12.3 43.2 12.3 40.4 3.7 37.6 12.3"></polygon> </g> <polyline id="Shape_45_" stroke="#1C2E3F" stroke-width="1.0516" points="53 98.3 80.1 98.3 119.4 137.4"></polyline> <circle id="Oval_2_" stroke="#1C2E3F" stroke-width="1.0516" fill="#FFFFFF" fill-rule="nonzero" stroke-linejoin="round" cx="121.3" cy="138.7" r="4.5"></circle> </g> </g> </g> <g id="Group" fill-rule="nonzero" fill="#1C2E3F"> <polygon id="Shape" points="4.3 12 4.3 1.5 0.7 1.5 0.7 0.3 9.3 0.3 9.3 1.5 5.7 1.5 5.7 12"></polygon> <polygon id="Shape" points="11.8 12 11.8 0.3 13.2 0.3 13.2 5.4 19 5.4 19 0.3 20.4 0.3 20.4 12 19 12 19 6.6 13.2 6.6 13.2 12"></polygon> <polygon id="Shape" points="24.1 12 24.1 0.3 25.5 0.3 25.5 12"></polygon> <path d="M29.2,12 L29.2,0.3 L33,0.3 C34.3,0.3 35.3,0.6 35.9,1.2 C36.5,1.8 36.8,2.6 36.8,3.5 C36.8,4 36.7,4.5 36.6,4.8 C36.5,5.2 36.2,5.5 36,5.8 C35.7,6.1 35.4,6.3 35.1,6.4 C34.7,6.6 34.4,6.7 34,6.8 L37.2,12 L35.6,12 L32.5,6.9 L30.8,6.9 L30.8,12 L29.2,12 Z M30.6,5.7 L32.9,5.7 C34.5,5.7 35.3,5 35.3,3.5 C35.3,2.8 35.1,2.3 34.7,2 C34.3,1.7 33.7,1.5 33,1.5 L30.6,1.5 L30.6,5.7 L30.6,5.7 Z" id="Shape"></path> <path d="M39.7,12 L39.7,0.3 L42.7,0.3 C43.2,0.3 43.6,0.3 44.1,0.4 C44.6,0.5 45,0.6 45.5,0.8 C46,1 46.3,1.3 46.7,1.6 C47,1.9 47.3,2.3 47.6,2.7 C47.9,3.1 48,3.6 48.2,4.2 C48.3,4.7 48.4,5.3 48.4,6 C48.4,6.8 48.3,7.5 48.1,8.2 C47.9,8.9 47.7,9.4 47.3,9.9 C46.9,10.4 46.6,10.8 46.1,11.1 C45.6,11.4 45.2,11.6 44.6,11.8 C44.3,11.9 44,11.9 43.6,12 C43.2,12 42.9,12.1 42.6,12.1 L39.7,12.1 L39.7,12 Z M41.1,10.8 L42.5,10.8 C42.8,10.8 43,10.8 43.4,10.8 C43.8,10.8 44,10.7 44.3,10.6 C44.6,10.4 45,10.2 45.3,10 C45.6,9.8 45.9,9.5 46.1,9.1 C46.3,8.7 46.5,8.3 46.7,7.8 C46.8,7.3 46.9,6.7 46.9,6.1 C46.9,5.1 46.7,4.3 46.4,3.7 C46.1,3.1 45.7,2.6 45.1,2.2 C44.8,2 44.4,1.8 43.9,1.7 C43.4,1.6 43,1.6 42.6,1.6 L41.1,1.6 L41.1,10.8 Z" id="Shape"></path> <path d="M55.8,12 L55.8,0.3 L59.4,0.3 C60.7,0.3 61.7,0.6 62.4,1.2 C63,1.8 63.4,2.7 63.4,3.8 C63.4,4.9 63.1,5.8 62.4,6.4 C61.7,7 60.7,7.3 59.4,7.3 L57.2,7.3 L57.2,12 L55.8,12 Z M57.2,6.1 L59.5,6.1 C60.2,6.1 60.8,5.9 61.2,5.6 C61.6,5.3 61.9,4.7 61.9,3.9 C61.9,3.1 61.7,2.5 61.3,2.2 C60.9,1.8 60.3,1.7 59.5,1.7 L57.2,1.7 L57.2,6.1 L57.2,6.1 Z" id="Shape"></path> <path d="M64.8,12 L69.3,0.3 L70.2,0.3 L74.8,12 L73.3,12 L71.9,8.4 L67.7,8.4 L66.3,12 L64.8,12 Z M68.1,7.1 L71.4,7.1 L69.7,2.6 L68.1,7.1 Z" id="Shape"></path> <path d="M77.1,12 L77.1,0.3 L80.8,0.3 C82.1,0.3 83.1,0.6 83.7,1.2 C84.3,1.8 84.6,2.6 84.6,3.5 C84.6,4 84.5,4.5 84.4,4.8 C84.3,5.2 84,5.5 83.8,5.8 C83.5,6.1 83.2,6.3 82.9,6.4 C82.5,6.6 82.2,6.7 81.8,6.8 L85,12 L83.4,12 L80.3,6.9 L78.6,6.9 L78.6,12 L77.1,12 Z M78.5,5.7 L80.8,5.7 C82.4,5.7 83.2,5 83.2,3.5 C83.2,2.8 83,2.3 82.6,2 C82.2,1.7 81.6,1.5 80.9,1.5 L78.5,1.5 L78.5,5.7 Z" id="Shape"></path> <polygon id="Shape" points="89.9 12 89.9 1.5 86.3 1.5 86.3 0.3 94.9 0.3 94.9 1.5 91.3 1.5 91.3 12"></polygon> <polygon id="Shape" points="97.4 12 97.4 0.3 98.8 0.3 98.8 12"></polygon> <polygon id="Shape" points="102.5 12 102.5 0.3 109.3 0.3 109.3 1.5 103.9 1.5 103.9 5.2 107.8 5.2 107.8 6.4 103.9 6.4 103.9 10.7 109.7 10.7 109.7 12"></polygon> <path d="M112.6,9.5 C112.9,10 113.4,10.4 113.9,10.6 C114.4,10.8 115,11 115.6,11 C115.9,11 116.2,11 116.5,10.9 C116.8,10.8 117,10.7 117.2,10.5 C117.4,10.3 117.6,10.1 117.7,9.9 C117.8,9.6 117.9,9.3 117.9,9 C117.9,8.7 117.8,8.4 117.7,8.1 C117.5,7.8 117.3,7.6 117.1,7.4 C116.8,7.2 116.6,7 116.2,6.9 C115.9,6.7 115.5,6.6 115.2,6.4 C114.8,6.2 114.4,6 114,5.9 C113.6,5.7 113.3,5.5 113,5.2 C112.7,4.9 112.4,4.6 112.2,4.3 C112,4 111.9,3.5 111.9,3.1 C111.9,2.6 112,2.2 112.2,1.8 C112.4,1.4 112.7,1.1 113,0.9 C113.3,0.6 113.7,0.5 114.2,0.3 C114.6,0.2 115.1,0.1 115.6,0.1 C116.3,0.1 117,0.2 117.7,0.5 C118.4,0.8 118.9,1.3 119.3,1.9 L118.2,2.7 C117.9,2.3 117.5,1.9 117,1.7 C116.5,1.4 116,1.3 115.5,1.3 C114.8,1.3 114.3,1.5 113.9,1.8 C113.5,2.1 113.3,2.5 113.3,3 C113.3,3.3 113.4,3.5 113.5,3.7 C113.6,3.9 113.8,4.1 114.1,4.3 C114.3,4.5 114.6,4.6 115,4.8 C115.3,5 115.7,5.1 116.1,5.3 C116.5,5.5 116.9,5.7 117.3,5.9 C117.7,6.1 118,6.3 118.3,6.6 C118.6,6.9 118.8,7.2 119,7.5 C119.2,7.8 119.3,8.3 119.3,8.8 C119.3,9.4 119.2,9.9 119,10.3 C118.8,10.7 118.5,11.1 118.2,11.4 C117.9,11.7 117.4,11.9 117,12 C116.5,12.1 116,12.2 115.5,12.2 C115.1,12.2 114.7,12.2 114.3,12.1 C113.9,12 113.5,11.9 113.2,11.7 C112.8,11.5 112.5,11.3 112.2,11.1 C111.9,10.9 111.7,10.6 111.5,10.3 L112.6,9.5 Z" id="Shape"></path> <polygon id="Shape" points="128.2 12 125.3 0.3 126.7 0.3 128.9 8.5 131.5 0.3 132.2 0.3 134.9 8.5 137 0.3 138.4 0.3 135.4 12 134.6 12 131.8 3.3 129 12"></polygon> <polygon id="Shape" points="140.7 12 140.7 0.3 142.1 0.3 142.1 12"></polygon> <polygon id="Shape" points="148.1 12 148.1 1.5 144.5 1.5 144.5 0.3 153.1 0.3 153.1 1.5 149.5 1.5 149.5 12"></polygon> <polygon id="Shape" points="155.6 12 155.6 0.3 157 0.3 157 5.4 162.8 5.4 162.8 0.3 164.2 0.3 164.2 12 162.8 12 162.8 6.6 157 6.6 157 12"></polygon> <path d="M2.2,30.5 C2.5,31 3,31.3 3.5,31.6 C4,31.9 4.6,32 5.2,32 C5.5,32 5.8,32 6.1,31.9 C6.4,31.8 6.6,31.7 6.8,31.5 C7,31.3 7.2,31.1 7.3,30.9 C7.4,30.6 7.5,30.3 7.5,30 C7.5,29.7 7.4,29.4 7.3,29.1 C7.1,28.8 6.9,28.6 6.7,28.4 C6.4,28.2 6.2,28 5.8,27.9 C5.5,27.7 5.1,27.6 4.8,27.4 C4.4,27.2 4,27 3.6,26.9 C3.2,26.7 2.9,26.5 2.6,26.2 C2.3,25.9 2,25.6 1.8,25.3 C1.6,25 1.5,24.5 1.5,24.1 C1.5,23.6 1.6,23.2 1.8,22.8 C2,22.4 2.3,22.1 2.6,21.9 C2.9,21.6 3.3,21.5 3.8,21.3 C4.2,21.2 4.7,21.1 5.2,21.1 C5.9,21.1 6.6,21.2 7.3,21.5 C8,21.8 8.5,22.3 8.9,22.9 L7.8,23.7 C7.5,23.3 7.1,22.9 6.6,22.7 C6.1,22.4 5.6,22.3 5.1,22.3 C4.4,22.3 3.9,22.5 3.5,22.8 C3.1,23.1 2.9,23.5 2.9,24 C2.9,24.3 3,24.5 3.1,24.7 C3.2,24.9 3.4,25.1 3.7,25.3 C3.9,25.5 4.2,25.6 4.6,25.8 C4.9,26 5.3,26.1 5.7,26.3 C6.1,26.5 6.5,26.7 6.9,26.9 C7.3,27.1 7.6,27.3 7.9,27.6 C8.2,27.9 8.4,28.2 8.6,28.5 C8.8,28.8 8.9,29.3 8.9,29.8 C8.9,30.4 8.8,30.9 8.6,31.3 C8.4,31.7 8.1,32.1 7.8,32.4 C7.4,32.7 7,32.9 6.6,33 C6.1,33.1 5.6,33.2 5.1,33.2 C4.7,33.2 4.3,33.2 3.9,33.1 C3.5,33 3.1,32.9 2.8,32.7 C2.4,32.5 2.1,32.3 1.8,32.1 C1.5,31.9 1.3,31.6 1.1,31.3 L2.2,30.5 Z" id="Shape"></path> <polygon id="Shape" points="11.9 33 11.9 21.3 18.7 21.3 18.7 22.5 13.3 22.5 13.3 26.2 17.2 26.2 17.2 27.4 13.3 27.4 13.3 31.7 19.1 31.7 19.1 33"></polygon> <polygon id="Shape" points="21.7 33 21.7 21.3 23.1 21.3 29 30 29 21.3 30.4 21.3 30.4 33 29.4 33 23.1 23.7 23.1 33"></polygon> <path d="M34.3,30.5 C34.6,31 35.1,31.4 35.6,31.6 C36.1,31.8 36.7,32 37.3,32 C37.6,32 37.9,32 38.2,31.9 C38.5,31.8 38.7,31.7 38.9,31.5 C39.1,31.3 39.3,31.1 39.4,30.9 C39.5,30.6 39.6,30.3 39.6,30 C39.6,29.7 39.5,29.4 39.4,29.1 C39.2,28.8 39,28.6 38.8,28.4 C38.5,28.2 38.3,28 37.9,27.9 C37.6,27.7 37.2,27.6 36.9,27.4 C36.5,27.2 36.1,27 35.7,26.9 C35.3,26.7 35,26.5 34.7,26.2 C34.4,25.9 34.1,25.6 33.9,25.3 C33.7,25 33.6,24.5 33.6,24.1 C33.6,23.6 33.7,23.2 33.9,22.8 C34.1,22.4 34.4,22.1 34.7,21.9 C35,21.6 35.4,21.5 35.9,21.3 C36.3,21.2 36.8,21.1 37.3,21.1 C38,21.1 38.7,21.2 39.4,21.5 C40.1,21.8 40.6,22.3 41,22.9 L40,23.7 C39.7,23.3 39.3,22.9 38.8,22.7 C38.3,22.4 37.8,22.3 37.3,22.3 C36.6,22.3 36.1,22.5 35.7,22.8 C35.3,23.1 35.1,23.5 35.1,24 C35.1,24.3 35.2,24.5 35.3,24.7 C35.4,24.9 35.6,25.1 35.9,25.3 C36.1,25.5 36.4,25.6 36.8,25.8 C37.1,26 37.5,26.1 37.9,26.3 C38.3,26.5 38.7,26.7 39.1,26.9 C39.5,27.1 39.8,27.3 40.1,27.6 C40.4,27.9 40.6,28.2 40.8,28.5 C41,28.8 41.1,29.3 41.1,29.8 C41.1,30.4 41,30.9 40.8,31.3 C40.6,31.7 40.3,32.1 40,32.4 C39.7,32.7 39.2,32.9 38.8,33 C38.3,33.1 37.8,33.2 37.3,33.2 C36.9,33.2 36.5,33.2 36.1,33.1 C35.7,33 35.3,32.9 35,32.7 C34.6,32.5 34.3,32.3 34,32.1 C33.7,31.9 33.5,31.6 33.3,31.3 L34.3,30.5 Z" id="Shape"></path> <polygon id="Shape" points="44 33 44 21.3 45.4 21.3 45.4 33"></polygon> <polygon id="Shape" points="51.5 33 51.5 22.5 47.9 22.5 47.9 21.3 56.5 21.3 56.5 22.5 52.9 22.5 52.9 33"></polygon> <polygon id="Shape" points="59 33 59 21.3 60.4 21.3 60.4 33"></polygon> <polygon id="Shape" points="67.1 33 62.6 21.3 64.1 21.3 67.5 30.2 70.8 21.3 72.3 21.3 67.9 33"></polygon> <polygon id="Shape" points="74.7 33 74.7 21.3 81.5 21.3 81.5 22.5 76.1 22.5 76.1 26.2 80 26.2 80 27.4 76 27.4 76 31.7 81.8 31.7 81.8 33"></polygon> <path d="M88.9,33 L88.9,21.3 L91.9,21.3 C92.4,21.3 92.8,21.3 93.3,21.4 C93.8,21.5 94.2,21.6 94.7,21.8 C95.1,22 95.5,22.3 95.9,22.6 C96.2,22.9 96.5,23.3 96.8,23.7 C97.1,24.1 97.2,24.6 97.4,25.2 C97.5,25.7 97.6,26.3 97.6,27 C97.6,27.8 97.5,28.5 97.3,29.2 C97.1,29.9 96.9,30.4 96.5,30.9 C96.1,31.4 95.8,31.8 95.3,32.1 C94.8,32.4 94.4,32.6 93.8,32.8 C93.5,32.9 93.2,32.9 92.8,33 C92.4,33 92.1,33.1 91.8,33.1 L88.9,33.1 L88.9,33 Z M90.3,31.8 L91.7,31.8 C92,31.8 92.2,31.8 92.6,31.8 C93,31.8 93.2,31.7 93.5,31.6 C93.8,31.4 94.2,31.2 94.5,31 C94.8,30.8 95.1,30.5 95.3,30.1 C95.5,29.7 95.7,29.3 95.9,28.8 C96,28.3 96.1,27.7 96.1,27.1 C96.1,26.1 95.9,25.3 95.6,24.7 C95.3,24.1 94.9,23.6 94.3,23.2 C94,23 93.6,22.8 93.1,22.7 C92.6,22.6 92.2,22.6 91.8,22.6 L90.3,22.6 L90.3,31.8 L90.3,31.8 Z" id="Shape"></path> <path d="M98.8,33 L103.3,21.3 L104.2,21.3 L108.8,33 L107.3,33 L105.9,29.4 L101.7,29.4 L100.4,33 L98.8,33 Z M102,28.1 L105.3,28.1 L103.6,23.6 L102,28.1 Z" id="Shape"></path> <polygon id="Shape" points="112 33 112 22.5 108.4 22.5 108.4 21.3 117 21.3 117 22.5 113.4 22.5 113.4 33"></polygon> <path d="M116.6,33 L121.1,21.3 L122,21.3 L126.6,33 L125,33 L123.6,29.4 L119.4,29.4 L118.1,33 L116.6,33 Z M119.9,28.1 L123.2,28.1 L121.5,23.6 L119.9,28.1 Z" id="Shape"></path> </g> </g> </g> </svg> 