<?xml version="1.0" encoding="UTF-8"?> <svg xmlns="http://www.w3.org/2000/svg" xmlns:xlink="http://www.w3.org/1999/xlink" width="464px" height="303px" viewBox="0 0 464 303"> <!-- Generator: Sketch 46.2 (44496) - http://www.bohemiancoding.com/sketch --> <title>third_party_risk_accountability</title> <desc>Created with Sketch.</desc> <defs></defs> <g id="Page-1" stroke="none" stroke-width="1" fill="none" fill-rule="evenodd"> <g id="third_party_risk_accountability"> <g id="Group" transform="translate(146.000000, 0.000000)" fill-rule="nonzero" fill="#F5F5F5"> <polygon id="Shape" points="0.2 11.4 0.2 0.1 1.6 0.1 7.3 8.5 7.3 0.1 8.6 0.1 8.6 11.3 7.6 11.3 1.6 2.4 1.6 11.3 0.2 11.3"></polygon> <path d="M13.3,11.1 C12.7,10.8 12.2,10.3 11.8,9.8 C11.4,9.3 11.1,8.6 10.9,7.9 C10.7,7.2 10.6,6.5 10.6,5.8 C10.6,5.1 10.7,4.4 10.9,3.7 C11.1,3 11.4,2.4 11.8,1.8 C12.2,1.2 12.7,0.8 13.3,0.5 C13.9,0.2 14.6,-8.8817842e-16 15.4,-8.8817842e-16 C16.2,-8.8817842e-16 16.9,0.2 17.5,0.5 C18.1,0.8 18.6,1.3 19,1.8 C19.4,2.3 19.7,3 19.9,3.7 C20.1,4.4 20.2,5.1 20.2,5.8 C20.2,6.5 20.1,7.2 19.9,7.9 C19.7,8.6 19.4,9.2 19,9.8 C18.6,10.3 18.1,10.8 17.5,11.1 C16.9,11.4 16.2,11.6 15.4,11.6 C14.6,11.6 13.9,11.4 13.3,11.1 Z M12.9,8.9 C13.2,9.3 13.5,9.7 13.9,10 C14.3,10.3 14.8,10.4 15.4,10.4 C16,10.4 16.5,10.3 16.9,10 C17.3,9.7 17.7,9.4 17.9,8.9 C18.2,8.5 18.4,8 18.5,7.4 C18.6,6.8 18.7,6.3 18.7,5.7 C18.7,5.1 18.6,4.6 18.5,4 C18.4,3.4 18.2,2.9 17.9,2.5 C17.6,2.1 17.3,1.7 16.9,1.4 C16.5,1.1 16,1 15.4,1 C14.8,1 14.3,1.1 13.9,1.4 C13.5,1.7 13.1,2 12.9,2.5 C12.7,3 12.4,3.4 12.3,4 C12.2,4.6 12.1,5.1 12.1,5.7 C12.1,6.3 12.2,6.9 12.3,7.4 C12.5,8 12.7,8.5 12.9,8.9 Z" id="Shape"></path> </g> <polyline id="Shape" stroke="#E6E5E5" stroke-width="1.051" points="255.5 65.1 203.6 6.6 171.5 6.6"></polyline> <circle id="Oval" stroke="#0094C7" stroke-width="1.402" stroke-dasharray="2.804,5.6079" cx="315.5" cy="154.4" r="147.2"></circle> <g id="Group" transform="translate(0.000000, 31.000000)" fill-rule="nonzero" fill="#F5F5F5"> <polygon id="Shape" points="4.6 11.9 4.6 1.8 1.1 1.8 1.1 0.6 9.4 0.6 9.4 1.8 5.9 1.8 5.9 11.9"></polygon> <polygon id="Shape" points="10.9 11.9 10.9 0.7 12.2 0.7 12.2 5.6 17.8 5.6 17.8 0.7 19.1 0.7 19.1 11.9 17.8 11.9 17.8 6.7 12.2 6.7 12.2 11.9 10.9 11.9"></polygon> <polygon id="Shape" points="21.9 11.9 21.9 0.7 23.2 0.7 23.2 11.9 21.9 11.9"></polygon> <path d="M26,11.9 L26,0.7 L29.6,0.7 C30.9,0.7 31.8,1 32.4,1.5 C33,2.1 33.3,2.8 33.3,3.7 C33.3,4.2 33.2,4.6 33.1,5 C33,5.4 32.8,5.7 32.5,5.9 C32.2,6.1 32,6.4 31.6,6.5 C31.3,6.7 30.9,6.8 30.5,6.8 L33.6,11.8 L32,11.8 L29,7 L27.4,7 L27.4,11.9 L26,11.9 Z M27.3,5.8 L29.5,5.8 C31.1,5.8 31.8,5.1 31.8,3.7 C31.8,3.1 31.6,2.6 31.2,2.3 C30.8,2 30.3,1.8 29.6,1.8 L27.3,1.8 L27.3,5.8 L27.3,5.8 Z" id="Shape"></path> <path d="M35.3,11.9 L35.3,0.7 L38.2,0.7 C38.6,0.7 39.1,0.7 39.6,0.8 C40.1,0.9 40.5,1 40.9,1.2 C41.3,1.4 41.7,1.6 42,1.9 C42.3,2.2 42.6,2.6 42.9,3 C43.2,3.4 43.3,3.9 43.5,4.4 C43.7,4.9 43.7,5.5 43.7,6.1 C43.7,6.9 43.6,7.6 43.4,8.2 C43.2,8.8 43,9.4 42.7,9.8 C42.4,10.3 42,10.6 41.6,10.9 C41.2,11.2 40.7,11.4 40.2,11.6 C39.9,11.7 39.6,11.7 39.3,11.8 C38.9,11.8 38.6,11.9 38.3,11.9 L35.3,11.9 L35.3,11.9 Z M36.6,10.7 L38,10.7 C38.2,10.7 38.5,10.7 38.8,10.7 C39.1,10.7 39.4,10.6 39.7,10.5 C40,10.4 40.4,10.2 40.7,9.9 C41,9.7 41.3,9.4 41.5,9 C41.7,8.7 41.9,8.3 42,7.8 C42.1,7.3 42.2,6.8 42.2,6.2 C42.2,5.2 42.1,4.4 41.8,3.8 C41.5,3.2 41.1,2.7 40.6,2.4 C40.3,2.2 39.9,2 39.4,1.9 C39,1.8 38.5,1.8 38.1,1.8 L36.7,1.8 L36.7,10.7 L36.6,10.7 Z" id="Shape"></path> <path d="M49.1,11.9 L49.1,0.7 L52.6,0.7 C53.9,0.7 54.8,1 55.5,1.6 C56.1,2.2 56.4,3 56.4,4.1 C56.4,5.2 56.1,6 55.4,6.6 C54.7,7.2 53.8,7.4 52.5,7.4 L50.4,7.4 L50.4,11.9 L49.1,11.9 Z M50.4,6.2 L52.6,6.2 C53.3,6.2 53.8,6 54.3,5.7 C54.7,5.4 54.9,4.8 54.9,4 C54.9,3.2 54.7,2.7 54.3,2.3 C53.9,1.9 53.3,1.8 52.6,1.8 L50.4,1.8 L50.4,6.2 Z" id="Shape"></path> <path d="M56.8,11.9 L61.1,0.7 L62,0.7 L66.4,11.9 L64.9,11.9 L63.6,8.4 L59.5,8.4 L58.2,11.9 L56.8,11.9 L56.8,11.9 Z M60,7.2 L63.2,7.2 L61.6,2.9 L60,7.2 Z" id="Shape"></path> <path d="M67.8,11.9 L67.8,0.7 L71.4,0.7 C72.7,0.7 73.6,1 74.2,1.5 C74.8,2.1 75.1,2.8 75.1,3.7 C75.1,4.2 75,4.6 74.9,5 C74.8,5.4 74.6,5.7 74.3,5.9 C74,6.1 73.8,6.4 73.4,6.5 C73.1,6.7 72.7,6.8 72.3,6.8 L75.4,11.8 L73.9,11.8 L70.9,6.9 L69.3,6.9 L69.3,11.8 L67.8,11.8 L67.8,11.9 Z M69.1,5.8 L71.3,5.8 C72.9,5.8 73.6,5.1 73.6,3.7 C73.6,3.1 73.4,2.6 73,2.3 C72.6,2 72.1,1.8 71.4,1.8 L69.1,1.8 L69.1,5.8 L69.1,5.8 Z" id="Shape"></path> <polygon id="Shape" points="79.3 11.9 79.3 1.8 75.8 1.8 75.8 0.6 84.1 0.6 84.1 1.8 80.6 1.8 80.6 11.9"></polygon> <polygon id="Shape" points="88.1 11.9 88.1 6.5 84.3 0.7 85.8 0.7 88.8 5.2 91.9 0.7 93.4 0.7 89.4 6.5 89.4 11.9"></polygon> <path d="M98.1,11.9 L98.1,0.7 L101.7,0.7 C103,0.7 103.9,1 104.5,1.5 C105.1,2.1 105.4,2.8 105.4,3.7 C105.4,4.2 105.3,4.6 105.2,5 C105.1,5.4 104.9,5.7 104.6,5.9 C104.3,6.1 104.1,6.4 103.7,6.5 C103.4,6.7 103,6.8 102.6,6.8 L105.7,11.8 L104.2,11.8 L101.2,6.9 L99.6,6.9 L99.6,11.8 L98.1,11.8 L98.1,11.9 Z M99.5,5.8 L101.7,5.8 C103.3,5.8 104,5.1 104,3.7 C104,3.1 103.8,2.6 103.4,2.3 C103,2 102.5,1.8 101.8,1.8 L99.5,1.8 L99.5,5.8 L99.5,5.8 Z" id="Shape"></path> <polygon id="Shape" points="107.4 11.9 107.4 0.7 108.7 0.7 108.7 11.9 107.4 11.9"></polygon> <path d="M111.7,9.5 C112,10 112.5,10.3 113,10.6 C113.5,10.8 114.1,11 114.6,11 C114.9,11 115.2,11 115.4,10.9 C115.7,10.8 115.9,10.7 116.1,10.6 C116.3,10.4 116.5,10.2 116.6,10 C116.7,9.8 116.8,9.5 116.8,9.1 C116.8,8.8 116.7,8.5 116.6,8.3 C116.5,8.1 116.3,7.8 116,7.7 C115.8,7.5 115.5,7.3 115.2,7.2 C114.9,7 114.6,6.9 114.2,6.8 C113.8,6.6 113.4,6.5 113.1,6.3 C112.7,6.1 112.4,5.9 112.1,5.7 C111.8,5.5 111.6,5.2 111.4,4.8 C111.2,4.5 111.1,4.1 111.1,3.6 C111.1,3.1 111.2,2.7 111.4,2.3 C111.6,1.9 111.9,1.6 112.2,1.4 C112.5,1.2 112.9,1 113.3,0.9 C113.7,0.8 114.2,0.7 114.6,0.7 C115.3,0.7 116,0.8 116.6,1.1 C117.2,1.4 117.8,1.8 118.2,2.4 L117.2,3.2 C116.9,2.8 116.5,2.5 116.1,2.2 C115.7,1.9 115.1,1.8 114.6,1.8 C113.9,1.8 113.4,1.9 113.1,2.2 C112.7,2.5 112.6,2.9 112.6,3.4 C112.6,3.7 112.7,3.9 112.8,4.1 C112.9,4.3 113.1,4.5 113.3,4.6 C113.5,4.7 113.8,4.9 114.1,5.1 C114.4,5.2 114.8,5.4 115.2,5.6 C115.6,5.8 116,5.9 116.3,6.1 C116.7,6.3 117,6.5 117.3,6.8 C117.6,7.1 117.8,7.4 118,7.7 C118.2,8 118.3,8.5 118.3,8.9 C118.3,9.5 118.2,10 118,10.4 C117.8,10.8 117.5,11.2 117.2,11.4 C116.9,11.7 116.5,11.9 116,12 C115.6,12.1 115.1,12.2 114.6,12.2 C114.2,12.2 113.8,12.2 113.5,12.1 C113.1,12 112.8,11.9 112.4,11.7 C112.1,11.5 111.7,11.3 111.5,11.1 C111.2,10.9 111,10.6 110.8,10.3 L111.7,9.5 Z" id="Shape"></path> <polygon id="Shape" points="120.2 11.9 120.2 0.7 121.5 0.7 121.5 5.6 126.3 0.7 127.9 0.7 123.6 5.1 128.2 11.9 126.6 11.9 122.7 6.1 121.5 7.3 121.5 11.9 120.2 11.9"></polygon> <path d="M0.9,32.1 L5.2,20.9 L6,20.9 L10.4,32.1 L9,32.1 L7.7,28.6 L3.6,28.6 L2.3,32.1 L0.9,32.1 Z M4.1,27.4 L7.3,27.4 L5.7,23.1 L4.1,27.4 Z" id="Shape"></path> <path d="M19.2,30 C19.1,30.3 18.9,30.5 18.7,30.8 C18.5,31.1 18.2,31.3 17.9,31.5 C17.6,31.7 17.3,31.9 16.9,32 C16.5,32.1 16.1,32.2 15.6,32.2 C14.9,32.2 14.3,32.1 13.8,31.9 C13.3,31.7 12.7,31.3 12.3,30.9 C11.9,30.4 11.5,29.8 11.3,29.1 C11.1,28.4 10.9,27.5 10.9,26.5 C10.9,25.5 11,24.6 11.3,23.8 C11.6,23.1 11.9,22.4 12.3,22 C12.7,21.5 13.2,21.2 13.7,21 C14.2,20.8 14.8,20.7 15.3,20.7 C16.2,20.7 16.9,20.9 17.6,21.3 C18.3,21.7 18.8,22.3 19.1,23 L18,23.6 C17.9,23.4 17.8,23.2 17.6,23 C17.4,22.8 17.2,22.6 17,22.4 C16.8,22.2 16.5,22.1 16.3,22 C16,21.9 15.8,21.8 15.5,21.8 C14.5,21.8 13.7,22.2 13.2,23 C12.6,23.8 12.4,25 12.4,26.4 C12.4,27.1 12.5,27.8 12.7,28.3 C12.9,28.9 13.1,29.3 13.4,29.7 C13.7,30.1 14,30.4 14.4,30.6 C14.8,30.8 15.2,30.9 15.7,30.9 C16,30.9 16.3,30.9 16.6,30.8 C16.9,30.7 17.1,30.6 17.3,30.4 C17.5,30.2 17.7,30.1 17.9,29.9 C18.1,29.7 18.2,29.5 18.3,29.3 L19.2,30 Z" id="Shape"></path> <path d="M28.6,30 C28.5,30.3 28.3,30.5 28.1,30.8 C27.9,31.1 27.6,31.3 27.3,31.5 C27,31.7 26.7,31.9 26.3,32 C25.9,32.1 25.5,32.2 25,32.2 C24.3,32.2 23.7,32.1 23.2,31.9 C22.7,31.7 22.1,31.3 21.7,30.9 C21.3,30.4 20.9,29.8 20.7,29.1 C20.5,28.4 20.3,27.5 20.3,26.5 C20.3,25.5 20.4,24.6 20.7,23.8 C21,23.1 21.3,22.4 21.7,22 C22.1,21.5 22.6,21.2 23.1,21 C23.6,20.8 24.2,20.7 24.7,20.7 C25.6,20.7 26.3,20.9 27,21.3 C27.7,21.7 28.2,22.3 28.5,23 L27.4,23.7 C27.3,23.5 27.2,23.3 27,23.1 C26.8,22.9 26.6,22.7 26.4,22.5 C26.2,22.3 25.9,22.2 25.7,22.1 C25.4,22 25.2,21.9 24.9,21.9 C23.9,21.9 23.1,22.3 22.6,23.1 C22,23.9 21.8,25.1 21.8,26.5 C21.8,27.2 21.9,27.9 22.1,28.4 C22.3,29 22.5,29.4 22.8,29.8 C23.1,30.2 23.4,30.5 23.8,30.7 C24.2,30.9 24.6,31 25.1,31 C25.4,31 25.7,31 26,30.9 C26.3,30.8 26.5,30.7 26.7,30.5 C26.9,30.3 27.1,30.2 27.3,30 C27.5,29.8 27.6,29.6 27.7,29.4 L28.6,30 Z" id="Shape"></path> <path d="M32.3,31.8 C31.7,31.5 31.2,31 30.8,30.5 C30.4,30 30.1,29.3 29.9,28.6 C29.7,27.9 29.6,27.2 29.6,26.5 C29.6,25.8 29.7,25.1 29.9,24.4 C30.1,23.7 30.4,23.1 30.8,22.5 C31.2,21.9 31.7,21.5 32.3,21.2 C32.9,20.9 33.6,20.7 34.4,20.7 C35.2,20.7 35.9,20.9 36.5,21.2 C37.1,21.5 37.6,22 38,22.5 C38.4,23 38.7,23.7 38.9,24.4 C39.1,25.1 39.2,25.8 39.2,26.5 C39.2,27.2 39.1,27.9 38.9,28.6 C38.7,29.3 38.4,29.9 38,30.5 C37.6,31 37.1,31.5 36.5,31.8 C35.9,32.1 35.2,32.3 34.4,32.3 C33.6,32.3 32.9,32.1 32.3,31.8 Z M31.9,29.6 C32.2,30 32.5,30.4 32.9,30.7 C33.3,31 33.8,31.1 34.4,31.1 C35,31.1 35.5,31 35.9,30.7 C36.3,30.4 36.7,30.1 36.9,29.6 C37.2,29.2 37.4,28.7 37.5,28.1 C37.6,27.5 37.7,27 37.7,26.4 C37.7,25.8 37.6,25.3 37.5,24.7 C37.4,24.1 37.2,23.6 36.9,23.2 C36.6,22.8 36.3,22.4 35.9,22.1 C35.5,21.8 35,21.7 34.4,21.7 C33.8,21.7 33.3,21.8 32.9,22.1 C32.5,22.4 32.1,22.7 31.9,23.2 C31.7,23.7 31.4,24.1 31.3,24.7 C31.2,25.3 31.1,25.8 31.1,26.4 C31.1,27 31.2,27.6 31.3,28.1 C31.4,28.6 31.7,29.2 31.9,29.6 Z" id="Shape"></path> <path d="M42.7,28.1 C42.7,29.1 42.9,29.8 43.4,30.3 C43.9,30.8 44.6,31.1 45.5,31.1 C46.4,31.1 47.1,30.8 47.6,30.3 C48.1,29.8 48.3,29 48.3,28 L48.3,20.8 L49.6,20.8 L49.6,28.3 C49.6,29 49.5,29.5 49.3,30 C49.1,30.5 48.8,30.9 48.4,31.2 C48,31.5 47.6,31.8 47.1,31.9 C46.6,32.1 46.1,32.2 45.5,32.2 C44.9,32.2 44.4,32.1 43.9,31.9 C43.4,31.7 43,31.5 42.6,31.2 C42.2,30.9 41.9,30.5 41.7,30 C41.5,29.5 41.4,28.9 41.4,28.3 L41.4,20.8 L42.7,20.8 L42.7,28.1 L42.7,28.1 Z" id="Shape"></path> <polygon id="Shape" points="52.3 32.1 52.3 20.8 53.7 20.8 59.4 29.2 59.4 20.8 60.7 20.8 60.7 32 59.7 32 53.7 23.1 53.7 32 52.3 32"></polygon> <polygon id="Shape" points="65.6 32.1 65.6 22 62.1 22 62.1 20.8 70.4 20.8 70.4 22 66.9 22 66.9 32.1"></polygon> <path d="M69.2,32.1 L73.5,20.9 L74.3,20.9 L78.7,32.1 L77.2,32.1 L76,28.6 L71.9,28.6 L70.6,32.1 L69.2,32.1 Z M72.3,27.4 L75.5,27.4 L73.9,23.1 L72.3,27.4 Z" id="Shape"></path> <path d="M80.1,32.1 L80.1,20.8 L83.3,20.8 C84.4,20.8 85.3,21.1 85.8,21.6 C86.4,22.1 86.7,22.8 86.7,23.7 C86.7,24.4 86.5,25 86.1,25.4 C85.7,25.8 85.2,26 84.5,26.1 C84.8,26.1 85.1,26.2 85.5,26.3 C85.8,26.4 86.1,26.6 86.4,26.8 C86.7,27 86.9,27.3 87,27.6 C87.2,27.9 87.3,28.4 87.3,28.9 C87.3,29.4 87.2,29.8 87.1,30.2 C86.9,30.6 86.7,30.9 86.4,31.2 C86.1,31.5 85.8,31.7 85.4,31.8 C85,31.9 84.6,32 84.1,32 L80.1,32 L80.1,32.1 Z M81.5,25.6 L83.2,25.6 C83.9,25.6 84.4,25.4 84.8,25.1 C85.2,24.7 85.3,24.3 85.3,23.7 C85.3,22.6 84.7,22.1 83.4,22.1 L81.5,22.1 L81.5,25.6 L81.5,25.6 Z M81.5,30.9 L84,30.9 C84.6,30.9 85,30.7 85.4,30.4 C85.7,30.1 85.9,29.6 85.9,28.9 C85.9,27.5 85,26.8 83.3,26.8 L81.5,26.8 L81.5,30.9 L81.5,30.9 Z" id="Shape"></path> <polygon id="Shape" points="89.2 32.1 89.2 20.8 90.5 20.8 90.5 32 89.2 32"></polygon> <polygon id="Shape" points="93.2 32.1 93.2 20.8 94.5 20.8 94.5 30.9 99.7 30.9 99.7 32.1"></polygon> <polygon id="Shape" points="101.5 32.1 101.5 20.8 102.8 20.8 102.8 32 101.5 32"></polygon> <polygon id="Shape" points="107.8 32.1 107.8 22 104.3 22 104.3 20.8 112.6 20.8 112.6 22 109.1 22 109.1 32.1"></polygon> <polygon id="Shape" points="116.6 32.1 116.6 26.7 112.8 20.9 114.3 20.9 117.3 25.4 120.4 20.9 121.9 20.9 117.9 26.7 117.9 32.1"></polygon> </g> <polyline id="Shape" stroke="#0094C7" stroke-width="2.0937" stroke-linecap="round" stroke-linejoin="round" points="209.8 88.1 314.6 154.5 314.6 154.5 314.6 27"></polyline> <polyline id="Shape" stroke="#FF6800" stroke-width="2.103" stroke-linejoin="round" points="198.6 124.8 314.6 154.5 314.6 154.5"></polyline> <path d="M314.8,34.7 C314.7,34.7 314.7,34.7 314.6,34.7 L314.6,82 C314.7,82 314.7,82 314.8,82 C354.9,82 387.5,114.6 387.5,154.7 C387.5,194.8 354.9,227.4 314.8,227.4 C274.7,227.4 242.1,194.8 242.1,154.7 C242.1,148.4 242.9,142.3 244.4,136.5 L198.6,124.8 C196.2,134.4 194.8,144.4 194.8,154.7 C194.8,221 248.5,274.7 314.8,274.7 C381.1,274.7 434.8,221 434.8,154.7 C434.8,88.4 381.1,34.7 314.8,34.7 Z" id="Shape" stroke="#FF6800" stroke-width="2.103" fill="#F49758" fill-rule="nonzero" stroke-linejoin="round"></path> <g id="Group" transform="translate(194.000000, 34.000000)" fill-rule="nonzero"> <path d="M120.6,33.5 L120.6,0.7 C78,0.8 40.7,23 19.4,56.4 L47.1,73.9 C62.6,49.7 89.7,33.6 120.6,33.5 Z" id="Shape" fill="#D1D3D4"></path> <path d="M120.8,0.7 C120.7,0.7 120.7,0.7 120.6,0.7 L120.6,33.5 C120.7,33.5 120.7,33.5 120.8,33.5 C169,33.5 208,72.5 208,120.7 C208,168.9 169,207.9 120.8,207.9 C72.6,207.9 33.6,168.9 33.6,120.7 C33.6,103.5 38.6,87.5 47.2,74 L19.5,56.5 C7.7,75.1 0.8,97.1 0.8,120.8 C0.8,187.1 54.5,240.8 120.8,240.8 C187.1,240.8 240.8,187.1 240.8,120.8 C240.8,54.4 187.1,0.7 120.8,0.7 Z" id="Shape" stroke="#0094C7" stroke-width="2.0937" fill="#5BB4D8" stroke-linecap="round" stroke-linejoin="round"></path> </g> <g id="Group" transform="translate(129.000000, 235.000000)" fill-rule="nonzero" fill="#F5F5F5"> <polygon id="Shape" points="4.7 11.6 4.7 6.2 0.9 0.4 2.4 0.4 5.4 4.9 8.5 0.4 10 0.4 6 6.2 6 11.6"></polygon> <polygon id="Shape" points="11.4 11.6 11.4 0.4 17.9 0.4 17.9 1.6 12.7 1.6 12.7 5.2 16.4 5.2 16.4 6.4 12.7 6.4 12.7 10.5 18.3 10.5 18.3 11.7 11.4 11.7"></polygon> <path d="M20.2,9.2 C20.5,9.7 21,10 21.5,10.3 C22,10.5 22.6,10.7 23.1,10.7 C23.4,10.7 23.7,10.7 23.9,10.6 C24.2,10.5 24.4,10.4 24.6,10.3 C24.8,10.1 25,9.9 25.1,9.7 C25.2,9.5 25.3,9.2 25.3,8.8 C25.3,8.5 25.2,8.2 25.1,8 C25,7.8 24.8,7.5 24.5,7.4 C24.3,7.2 24,7 23.7,6.9 C23.4,6.7 23.1,6.6 22.7,6.5 C22.3,6.3 21.9,6.2 21.6,6 C21.3,5.8 20.9,5.6 20.6,5.4 C20.3,5.2 20.1,4.9 19.9,4.5 C19.7,4.1 19.6,3.8 19.6,3.3 C19.6,2.8 19.7,2.4 19.9,2 C20.1,1.6 20.4,1.3 20.7,1.1 C21,0.9 21.4,0.7 21.8,0.6 C22.2,0.5 22.7,0.4 23.1,0.4 C23.8,0.4 24.5,0.5 25.1,0.8 C25.7,1.1 26.3,1.5 26.7,2.1 L25.7,2.9 C25.4,2.5 25,2.2 24.6,1.9 C24.1,1.6 23.6,1.5 23.1,1.5 C22.4,1.5 21.9,1.6 21.6,1.9 C21.2,2.2 21.1,2.6 21.1,3.1 C21.1,3.4 21.2,3.6 21.3,3.8 C21.4,4 21.6,4.2 21.8,4.3 C22,4.5 22.3,4.6 22.6,4.8 C22.9,4.9 23.3,5.1 23.7,5.3 C24.1,5.5 24.5,5.6 24.8,5.8 C25.2,6 25.5,6.2 25.8,6.5 C26.1,6.8 26.3,7.1 26.5,7.4 C26.7,7.7 26.8,8.2 26.8,8.6 C26.8,9.2 26.7,9.7 26.5,10.1 C26.3,10.5 26,10.9 25.7,11.1 C25.4,11.4 25,11.6 24.5,11.7 C24.1,11.8 23.6,11.9 23.1,11.9 C22.7,11.9 22.3,11.9 22,11.8 C21.6,11.7 21.3,11.6 20.9,11.4 C20.6,11.2 20.2,11 20,10.8 C19.7,10.6 19.5,10.3 19.3,10 L20.2,9.2 Z" id="Shape"></path> </g> <g id="Group" transform="translate(130.000000, 255.000000)" fill-rule="nonzero" fill="#F5F5F5"> <path d="M1.1,11.8 L1.1,11 C1.7,10.3 2.3,9.6 2.9,9 C3.5,8.3 4,7.7 4.4,7.1 C4.7,6.8 4.9,6.4 5.1,6.1 C5.3,5.8 5.5,5.5 5.6,5.2 C5.7,4.9 5.9,4.7 5.9,4.4 C6,4.1 6,3.9 6,3.6 C6,3 5.8,2.5 5.5,2.1 C5.2,1.8 4.7,1.6 4.2,1.6 C3.2,1.6 2.3,2.2 1.7,3.3 L0.6,2.7 C1,2 1.5,1.4 2.1,1 C2.7,0.6 3.4,0.4 4.3,0.4 C4.8,0.4 5.2,0.5 5.6,0.6 C6,0.7 6.3,1 6.6,1.2 C6.9,1.4 7.1,1.8 7.2,2.1 C7.4,2.5 7.4,2.9 7.4,3.3 C7.4,4 7.2,4.7 6.9,5.4 C6.5,6 6.1,6.7 5.6,7.3 C5.2,7.9 4.7,8.4 4.2,9 C3.7,9.5 3.3,10.1 2.8,10.6 L7.7,10.6 L7.7,11.7 L1.1,11.7 L1.1,11.8 Z" id="Shape"></path> <path d="M11.7,11.5 C11.2,11.2 10.8,10.7 10.5,10.2 C10.2,9.7 9.9,9 9.8,8.3 C9.6,7.6 9.6,6.9 9.6,6.2 C9.6,5.5 9.7,4.8 9.8,4.1 C10,3.4 10.2,2.8 10.5,2.2 C10.8,1.7 11.2,1.2 11.7,0.9 C12.2,0.6 12.8,0.4 13.5,0.4 C14.2,0.4 14.8,0.6 15.3,0.9 C15.8,1.2 16.2,1.7 16.6,2.2 C16.9,2.7 17.2,3.4 17.3,4.1 C17.5,4.8 17.5,5.5 17.5,6.2 C17.5,6.9 17.4,7.6 17.3,8.3 C17.1,9 16.9,9.6 16.6,10.2 C16.3,10.7 15.9,11.2 15.4,11.5 C14.9,11.8 14.3,12 13.6,12 C12.8,12 12.2,11.9 11.7,11.5 Z M11.5,9.4 C11.7,9.8 12,10.2 12.3,10.5 C12.6,10.8 13,10.9 13.5,10.9 C13.9,10.9 14.3,10.8 14.7,10.5 C15,10.2 15.3,9.9 15.5,9.4 C15.7,8.9 15.9,8.5 16,7.9 C16.1,7.4 16.2,6.8 16.2,6.2 C16.2,5.6 16.2,5.1 16.1,4.5 C16,4 15.9,3.5 15.6,3 C15.4,2.6 15.1,2.2 14.8,2 C14.5,1.8 14.1,1.6 13.6,1.6 C13.1,1.6 12.7,1.7 12.4,2 C12.1,2.3 11.8,2.6 11.6,3 C11.4,3.4 11.2,3.9 11.1,4.5 C11,5 11,5.6 11,6.2 C11,6.8 11.1,7.3 11.2,7.9 C11.2,8.4 11.3,8.9 11.5,9.4 Z" id="Shape"></path> <polygon id="Shape" points="22.5 11.8 22.5 2.2 20 3.8 19.3 2.9 22.7 0.7 23.9 0.7 23.9 11.8 22.5 11.8"></polygon> <path d="M34.2,1.6 C33.7,1.7 33.3,1.8 32.8,2.1 C32.4,2.3 31.9,2.6 31.6,2.9 C31.3,3.2 30.9,3.6 30.6,4 C30.3,4.4 30.1,4.8 29.9,5.3 C30.2,5.1 30.5,5 30.9,4.8 C31.2,4.7 31.6,4.6 32,4.6 C32.5,4.6 33,4.7 33.4,4.9 C33.8,5.1 34.2,5.4 34.4,5.7 C34.7,6 34.9,6.4 35,6.9 C35.1,7.3 35.2,7.8 35.2,8.3 C35.2,8.8 35.1,9.3 35,9.7 C34.8,10.1 34.6,10.5 34.3,10.9 C34,11.2 33.6,11.5 33.2,11.7 C32.8,11.9 32.3,12 31.8,12 C31.2,12 30.6,11.9 30.2,11.6 C29.7,11.3 29.4,11 29.1,10.6 C28.8,10.2 28.6,9.7 28.5,9.2 C28.4,8.7 28.3,8.1 28.3,7.6 C28.3,6.7 28.4,5.8 28.7,5 C29,4.2 29.3,3.5 29.8,2.9 C30.3,2.3 30.9,1.8 31.6,1.4 C32.3,1 33.1,0.7 34,0.6 L34.2,1.6 Z M30.7,5.9 C30.4,6 30.1,6.2 29.8,6.4 C29.7,6.8 29.7,7.2 29.7,7.6 C29.7,8 29.7,8.3 29.8,8.7 C29.9,9.1 30,9.5 30.2,9.8 C30.4,10.1 30.6,10.4 30.9,10.6 C31.2,10.8 31.6,10.9 32,10.9 C32.3,10.9 32.7,10.8 32.9,10.7 C33.1,10.6 33.4,10.4 33.6,10.1 C33.8,9.9 33.9,9.6 34,9.3 C34.1,9 34.1,8.7 34.1,8.4 C34.1,8.1 34.1,7.7 34,7.4 C33.9,7.1 33.8,6.8 33.6,6.6 C33.4,6.4 33.2,6.2 32.9,6 C32.6,5.9 32.3,5.8 31.9,5.8 C31.4,5.7 31,5.8 30.7,5.9 Z" id="Shape"></path> </g> <polyline id="Shape" stroke="#FF6800" stroke-width="1.0515" stroke-linecap="round" stroke-linejoin="round" points="244.3 192.1 198.5 241.3 166.4 241.3"></polyline> <polygon id="Shape" fill="#FFFFFF" fill-rule="nonzero" points="239.5 196.6 240 197.5 244.7 192.5 243.9 191.8"></polygon> <circle id="Oval" stroke="#FF6800" stroke-width="1.0515" fill="#FFFFFF" fill-rule="nonzero" stroke-linecap="round" stroke-linejoin="round" cx="244.3" cy="192.1" r="4.5"></circle> <g id="Group" transform="translate(107.000000, 106.000000)"> <g id="Shape" fill-rule="nonzero" fill="#F5F5F5"> <polygon points="4 11.2 4 5.8 0.2 0 1.7 0 4.7 4.5 7.8 0 9.3 0 5.3 5.8 5.3 11.2"></polygon> <polygon points="10.7 11.2 10.7 0 17.2 0 17.2 1.2 12 1.2 12 4.8 15.7 4.8 15.7 6 12 6 12 10.1 17.6 10.1 17.6 11.3 10.7 11.3"></polygon> <path d="M19.5,8.8 C19.8,9.3 20.3,9.6 20.8,9.9 C21.3,10.1 21.9,10.3 22.4,10.3 C22.7,10.3 23,10.3 23.2,10.2 C23.5,10.1 23.7,10 23.9,9.9 C24.1,9.7 24.3,9.5 24.4,9.3 C24.5,9.1 24.6,8.8 24.6,8.4 C24.6,8.1 24.5,7.8 24.4,7.6 C24.3,7.4 24.1,7.1 23.8,7 C23.6,6.8 23.3,6.6 23,6.5 C22.7,6.3 22.4,6.2 22,6.1 C21.6,5.9 21.2,5.8 20.9,5.6 C20.6,5.4 20.2,5.2 19.9,5 C19.6,4.8 19.4,4.5 19.2,4.1 C19,3.7 18.9,3.4 18.9,2.9 C18.9,2.4 19,2 19.2,1.6 C19.4,1.2 19.7,0.9 20,0.7 C20.3,0.5 20.7,0.3 21.1,0.2 C21.5,0.1 22,0 22.4,0 C23.1,0 23.8,0.1 24.4,0.4 C25,0.7 25.6,1.1 26,1.7 L25,2.5 C24.7,2.1 24.3,1.8 23.9,1.5 C23.4,1.2 22.9,1.1 22.4,1.1 C21.7,1.1 21.2,1.2 20.9,1.5 C20.5,1.8 20.4,2.2 20.4,2.7 C20.4,3 20.5,3.2 20.6,3.4 C20.7,3.6 20.9,3.8 21.1,3.9 C21.3,4.1 21.6,4.2 21.9,4.4 C22.2,4.5 22.6,4.7 23,4.9 C23.4,5.1 23.8,5.2 24.1,5.4 C24.5,5.6 24.8,5.8 25.1,6.1 C25.4,6.4 25.6,6.7 25.8,7 C26,7.3 26.1,7.8 26.1,8.2 C26.1,8.8 26,9.3 25.8,9.7 C25.6,10.1 25.3,10.5 25,10.7 C24.7,11 24.3,11.2 23.8,11.3 C23.4,11.4 22.9,11.5 22.4,11.5 C22,11.5 21.6,11.5 21.3,11.4 C20.9,11.3 20.6,11.2 20.2,11 C19.9,10.8 19.5,10.6 19.3,10.4 C19,10.2 18.8,9.9 18.6,9.6 L19.5,8.8 Z"></path> </g> <g transform="translate(0.000000, 20.000000)" id="Shape" fill-rule="nonzero" fill="#F5F5F5"> <path d="M1.4,11.4 L1.4,10.6 C2,9.9 2.6,9.2 3.2,8.6 C3.8,7.9 4.3,7.3 4.7,6.7 C5,6.4 5.2,6 5.4,5.7 C5.6,5.4 5.8,5.1 5.9,4.8 C6,4.5 6.2,4.3 6.2,4 C6.3,3.7 6.3,3.5 6.3,3.2 C6.3,2.6 6.1,2.1 5.8,1.7 C5.5,1.4 5,1.2 4.5,1.2 C3.5,1.2 2.6,1.8 2,2.9 L0.9,2.3 C1.3,1.6 1.8,1 2.4,0.6 C3,0.2 3.7,-2.84217094e-14 4.6,-2.84217094e-14 C5.1,-2.84217094e-14 5.5,0.1 5.9,0.2 C6.3,0.3 6.6,0.6 6.9,0.8 C7.2,1 7.4,1.4 7.5,1.7 C7.7,2.1 7.7,2.5 7.7,2.9 C7.7,3.6 7.5,4.3 7.2,5 C6.8,5.6 6.4,6.3 5.9,6.9 C5.5,7.5 5,8 4.5,8.6 C4,9.1 3.6,9.7 3.1,10.2 L8,10.2 L8,11.3 L1.4,11.3 L1.4,11.4 Z"></path> <path d="M12,11.1 C11.5,10.8 11.1,10.3 10.8,9.8 C10.5,9.3 10.2,8.6 10.1,7.9 C9.9,7.2 9.9,6.5 9.9,5.8 C9.9,5.1 10,4.4 10.1,3.7 C10.3,3 10.5,2.4 10.8,1.8 C11.1,1.3 11.5,0.8 12,0.5 C12.5,0.2 13.1,-2.84217094e-14 13.8,-2.84217094e-14 C14.5,-2.84217094e-14 15.1,0.2 15.6,0.5 C16.1,0.8 16.5,1.3 16.9,1.8 C17.2,2.3 17.5,3 17.6,3.7 C17.8,4.4 17.8,5.1 17.8,5.8 C17.8,6.5 17.7,7.2 17.6,7.9 C17.4,8.6 17.2,9.2 16.9,9.8 C16.6,10.3 16.2,10.8 15.7,11.1 C15.2,11.4 14.6,11.6 13.9,11.6 C13.1,11.6 12.5,11.5 12,11.1 Z M11.8,9 C12,9.4 12.3,9.8 12.6,10.1 C12.9,10.4 13.3,10.5 13.8,10.5 C14.2,10.5 14.6,10.4 15,10.1 C15.3,9.8 15.6,9.5 15.8,9 C16,8.5 16.2,8.1 16.3,7.5 C16.4,7 16.5,6.4 16.5,5.8 C16.5,5.2 16.5,4.7 16.4,4.1 C16.3,3.6 16.2,3.1 15.9,2.6 C15.7,2.2 15.4,1.8 15.1,1.6 C14.8,1.4 14.4,1.2 13.9,1.2 C13.4,1.2 13,1.3 12.7,1.6 C12.4,1.9 12.1,2.2 11.9,2.6 C11.7,3 11.5,3.5 11.4,4.1 C11.3,4.6 11.3,5.2 11.3,5.8 C11.3,6.4 11.4,6.9 11.5,7.5 C11.4,8 11.6,8.5 11.8,9 Z"></path> <polygon points="22.8 11.4 22.8 1.8 20.3 3.4 19.6 2.5 23 0.3 24.2 0.3 24.2 11.4"></polygon> <polygon points="30.1 11.4 34.2 1.5 28 1.5 28 0.4 35.7 0.4 35.7 1.3 31.5 11.5 30.1 11.5"></polygon> </g> <polyline id="Shape" stroke="#0094C7" stroke-width="1.051" stroke-linecap="round" stroke-linejoin="round" points="105.3 58.2 59.5 6.4 37.4 6.4"></polyline> </g> <polygon id="Shape" fill="#FFFFFF" fill-rule="nonzero" points="246.6 56 247.5 55.4 255 63.9 254.2 64.6"></polygon> <circle id="Oval" stroke="#7C858C" stroke-width="1.0515" fill="#FFFFFF" fill-rule="nonzero" stroke-linecap="round" stroke-linejoin="round" cx="256.7" cy="66.3" r="4.5"></circle> <circle id="Oval" stroke="#0094C7" stroke-width="1.0515" fill="#FFFFFF" fill-rule="nonzero" stroke-linecap="round" stroke-linejoin="round" cx="212.3" cy="163.5" r="4.5"></circle> <polygon id="Shape" fill="#FFFFFF" fill-rule="nonzero" points="194.3 144.7 194.5 143.2 209 159.7 208.3 160.5"></polygon> </g> </g> </svg> 