<?xml version="1.0" encoding="UTF-8"?> <svg xmlns="http://www.w3.org/2000/svg" xmlns:xlink="http://www.w3.org/1999/xlink" width="641px" height="381px" viewBox="0 0 641 381"> <!-- Generator: Sketch 46.2 (44496) - http://www.bohemiancoding.com/sketch --> <title>third_party_with_sensitive_data_v03</title> <desc>Created with Sketch.</desc> <defs></defs> <g id="Page-1" stroke="none" stroke-width="1" fill="none" fill-rule="evenodd"> <g id="third_party_with_sensitive_data_v03"> <g id="Page-1_2_" transform="translate(30.000000, 26.000000)"> <g id="third_party_with_sensitive_data"> <g id="_16_21_"> <circle id="Oval" stroke="#0094C7" stroke-width="1.6823" stroke-dasharray="3.3646,6.7294" cx="269.4" cy="176.8" r="176.6"></circle> <polyline id="Shape_67_" stroke="#0094C7" stroke-width="2.5235" stroke-linecap="round" stroke-linejoin="round" points="216.8 309.9 269.4 176.1 269.4 176.1 269.4 33.1"></polyline> <path d="M165.1,176.5 C165.1,119 211.8,72.4 269.2,72.4 L269.2,72.4 L269.3,72.4 L269.3,33.1 L269.2,33.1 C190,33.1 125.8,97.3 125.8,176.4 C125.8,235.3 161.8,288.2 216.6,309.8 L231,273.3 C191.3,257.7 165.1,219.3 165.1,176.5 Z" id="Shape_66_" fill="#D1D3D4" fill-rule="nonzero"></path> <path d="M269.4,33.1 L269.4,72.2 C326.9,72.3 373.4,119 373.3,176.6 C373.2,234.1 326.5,280.6 268.9,280.5 C255.9,280.5 243.1,278 231.1,273.3 L216.8,309.8 C290.5,338.7 373.6,302.5 402.7,228.8 C431.6,155.1 395.4,72 321.7,42.9 C305,36.4 287.3,33.1 269.4,33.1 L269.4,33.1 Z" id="Shape_65_" stroke="#0094C7" stroke-width="2.5235" fill="#5BB4D8" fill-rule="nonzero" stroke-linecap="round" stroke-linejoin="round"></path> <g id="Group_7_" transform="translate(489.000000, 69.000000)" fill-rule="nonzero" fill="#1C2E3F"> <path d="M0.1,15.1 L0.1,1.2 L3.7,1.2 C4.3,1.2 4.8,1.2 5.4,1.3 C6,1.4 6.5,1.5 7.1,1.8 C7.7,2 8.1,2.3 8.4,2.8 C8.8,3.2 9.1,3.6 9.5,4.1 C9.7,4.6 10,5.2 10.2,5.8 C10.3,6.4 10.4,7.1 10.4,8 C10.4,9 10.3,9.8 10,10.6 C9.8,11.3 9.5,12 9,12.6 C8.6,13.2 8.2,13.7 7.6,14 C7,14.4 6.5,14.6 5.8,14.8 C5.4,14.9 5.1,14.9 4.7,15 C4.2,15 3.9,15.1 3.5,15.1 L-1.42108547e-14,15.1 L-1.42108547e-14,15.1 L0.1,15.1 Z M1.8,13.6 L3.5,13.6 C3.9,13.6 4.1,13.6 4.6,13.6 C5,13.6 5.3,13.5 5.7,13.4 C6.1,13.2 6.5,13 6.9,12.7 C7.3,12.5 7.6,12.1 7.9,11.6 C8.1,11.1 8.4,10.6 8.6,10 C8.7,9.4 8.8,8.7 8.8,8 C8.8,6.8 8.6,5.8 8.2,5.1 C7.8,4.4 7.4,3.8 6.6,3.4 C6.2,3.2 5.8,2.9 5.2,2.8 C4.6,2.7 4.1,2.7 3.6,2.7 L1.8,2.7 L1.8,13.6 L1.8,13.6 Z" id="Shape_64_"></path> <path d="M16.5,14.7 C15.8,14.3 15.2,13.7 14.7,13 C14.2,12.3 13.9,11.6 13.6,10.7 C13.4,9.9 13.2,8.9 13.2,8.1 C13.2,7.3 13.3,6.3 13.6,5.5 C13.8,4.7 14.2,3.8 14.7,3.2 C15.2,2.6 15.8,2 16.5,1.5 C17.2,1.1 18.1,0.9 19.1,0.9 C20.1,0.9 21,1.1 21.7,1.5 C22.4,1.9 23,2.5 23.5,3.2 C24,3.9 24.3,4.6 24.6,5.5 C24.8,6.3 25,7.3 25,8.1 C25,8.9 24.9,9.9 24.6,10.7 C24.4,11.5 24,12.4 23.5,13 C23,13.6 22.4,14.2 21.7,14.7 C21,15.1 20.1,15.3 19.1,15.3 C18.2,15.3 17.4,15.1 16.5,14.7 Z M16,12.1 C16.4,12.7 16.7,13.1 17.3,13.4 C17.8,13.8 18.4,13.9 19.1,13.9 C19.8,13.9 20.4,13.8 20.9,13.4 C21.4,13 21.9,12.7 22.2,12.1 C22.6,11.5 22.8,10.9 22.9,10.3 C23,9.6 23.1,8.9 23.1,8.1 C23.1,7.3 23,6.7 22.9,6.1 C22.8,5.4 22.5,4.8 22.2,4.3 C21.8,3.7 21.5,3.3 20.9,3 C20.4,2.6 19.8,2.5 19.1,2.5 C18.4,2.5 17.8,2.6 17.3,3 C16.8,3.4 16.3,3.7 16,4.3 C15.6,4.9 15.4,5.5 15.3,6.1 C15.2,6.8 15.1,7.5 15.1,8.1 C15.1,8.8 15.2,9.5 15.3,10.3 C15.6,10.9 15.8,11.5 16,12.1 Z" id="Shape_63_"></path> <polygon id="Shape_62_" points="28.9 15.1 28.9 1.2 30.6 1.2 37.5 11.5 37.5 1.2 39.2 1.2 39.2 15.1 38 15.1 30.6 4 30.6 15.1"></polygon> <path d="M42,4.8 C42.2,4.7 42.5,4.6 42.8,4.3 C43.2,4.1 43.3,3.9 43.4,3.7 C43.3,3.6 43.2,3.5 42.9,3.2 C42.8,3 42.7,2.7 42.7,2.4 C42.7,2.1 42.8,1.7 42.9,1.4 C43.1,1.2 43.4,1 43.7,1 C44,1 44.3,1.1 44.5,1.4 C44.7,1.6 44.7,2 44.7,2.4 C44.7,2.8 44.6,3.1 44.5,3.5 C44.4,3.9 44.1,4.1 43.9,4.3 C43.7,4.5 43.3,4.8 43.1,5 C42.7,5.2 42.5,5.4 42.1,5.5 L42,4.8 Z" id="Shape_61_"></path> <polygon id="Shape_60_" points="51.4 15.1 51.4 2.6 47.1 2.6 47.1 1.2 57.4 1.2 57.4 2.6 53.1 2.6 53.1 15.1"></polygon> <polygon id="Shape_59_" points="65.5 15.1 65.5 1.2 67.2 1.2 67.2 7.3 73.2 1.2 75.1 1.2 69.7 6.6 75.3 15 73.3 15 68.5 7.8 67 9.2 67 15 65.5 15"></polygon> <polygon id="Shape_58_" points="78.3 15.1 78.3 1.2 80 1.2 87 11.5 87 1.2 88.6 1.2 88.6 15.1 87.4 15.1 80 4 80 15.1"></polygon> <path d="M95.6,14.7 C94.9,14.3 94.3,13.7 93.8,13 C93.3,12.3 93,11.6 92.7,10.7 C92.5,9.9 92.3,8.9 92.3,8.1 C92.3,7.3 92.4,6.3 92.7,5.5 C92.9,4.7 93.3,3.8 93.8,3.2 C94.3,2.6 94.9,2 95.6,1.5 C96.3,1.1 97.2,0.9 98.2,0.9 C99.2,0.9 100.1,1.1 100.8,1.5 C101.5,1.9 102.1,2.5 102.6,3.2 C103.1,3.9 103.4,4.6 103.7,5.5 C103.9,6.3 104.1,7.3 104.1,8.1 C104.1,8.9 104,9.9 103.7,10.7 C103.5,11.5 103.1,12.4 102.6,13 C102.1,13.6 101.5,14.2 100.8,14.7 C100.1,15.1 99.2,15.3 98.2,15.3 C97.2,15.3 96.3,15.1 95.6,14.7 Z M95.1,12.1 C95.5,12.7 95.8,13.1 96.4,13.4 C96.9,13.8 97.5,13.9 98.2,13.9 C98.9,13.9 99.5,13.8 100,13.4 C100.5,13 101,12.7 101.3,12.1 C101.7,11.5 101.9,10.9 102,10.3 C102.1,9.6 102.2,8.9 102.2,8.1 C102.2,7.3 102.1,6.7 102,6.1 C101.9,5.4 101.6,4.8 101.3,4.3 C100.9,3.7 100.6,3.3 100,3 C99.5,2.6 98.9,2.5 98.2,2.5 C97.5,2.5 96.9,2.6 96.4,3 C95.9,3.4 95.4,3.7 95.1,4.3 C94.7,4.9 94.5,5.5 94.4,6.1 C94.3,6.8 94.2,7.5 94.2,8.1 C94.2,8.8 94.3,9.5 94.4,10.3 C94.5,10.9 94.8,11.5 95.1,12.1 Z" id="Shape_57_"></path> <polygon id="Shape_56_" points="109.6 15.1 106.2 1.2 107.8 1.2 110.4 11 113.5 1.2 114.3 1.2 117.4 11 120 1.2 121.6 1.2 118.2 15.1 117.3 15.1 114 4.8 110.6 15.1"></polygon> </g> <polyline id="Shape_55_" stroke="#0094C7" stroke-width="1.2618" stroke-linecap="round" stroke-linejoin="round" points="479.7 78.3 441.2 78.3 386.3 140.5"></polyline> <polygon id="Shape_54_" fill="#FFFFFF" fill-rule="nonzero" points="386.7 140.8 385.8 140 400.8 123.1 401.6 124"></polygon> <circle id="Oval_1_" stroke="#0094C7" stroke-width="1.2618" fill="#FFFFFF" fill-rule="nonzero" stroke-linecap="round" stroke-linejoin="round" cx="387.9" cy="138.7" r="5.4"></circle> <g id="Group_6_" transform="translate(0.000000, 109.000000)" fill-rule="nonzero" fill="#1C2E3F"> <polygon id="Shape_53_" points="0.4 14.6 0.4 0.6 2.1 0.6 2.1 6.8 8.1 0.6 10 0.6 4.6 6 10.2 14.4 8.2 14.4 3.4 7.2 1.9 8.7 1.9 14.4 0.4 14.4"></polygon> <polygon id="Shape_52_" points="13.2 14.6 13.2 0.6 14.9 0.6 21.9 11 21.9 0.6 23.5 0.6 23.5 14.6 22.3 14.6 14.9 3.5 14.9 14.6"></polygon> <path d="M30.5,14.2 C29.8,13.8 29.2,13.2 28.7,12.5 C28.2,11.8 27.9,11.1 27.6,10.2 C27.4,9.4 27.2,8.4 27.2,7.6 C27.2,6.8 27.3,5.8 27.6,5 C27.8,4.2 28.2,3.3 28.7,2.7 C29.2,2.1 29.8,1.5 30.5,1 C31.2,0.5 32.1,0.4 33.1,0.4 C34.1,0.4 35,0.6 35.7,1 C36.4,1.4 37,2 37.5,2.7 C38,3.4 38.3,4.1 38.6,5 C38.8,5.8 39,6.8 39,7.6 C39,8.4 38.9,9.4 38.6,10.2 C38.4,11 38,11.9 37.5,12.5 C37,13.1 36.4,13.7 35.7,14.2 C35,14.6 34.1,14.8 33.1,14.8 C32.1,14.8 31.2,14.7 30.5,14.2 Z M30,11.6 C30.4,12.2 30.7,12.6 31.3,12.9 C31.8,13.3 32.4,13.4 33.1,13.4 C33.8,13.4 34.4,13.3 34.9,12.9 C35.4,12.5 35.9,12.2 36.2,11.6 C36.6,11 36.8,10.4 36.9,9.8 C37,9.1 37.1,8.4 37.1,7.6 C37.1,6.8 37,6.2 36.9,5.6 C36.8,4.9 36.5,4.3 36.2,3.8 C35.8,3.3 35.5,2.8 34.9,2.5 C34.4,2.1 33.8,2 33.1,2 C32.4,2 31.8,2.1 31.3,2.5 C30.8,2.9 30.3,3.2 30,3.8 C29.7,4.4 29.4,5 29.3,5.6 C29.2,6.3 29.1,7 29.1,7.6 C29.1,8.3 29.2,9 29.3,9.8 C29.4,10.4 29.7,11.1 30,11.6 Z" id="Shape_51_"></path> <polygon id="Shape_50_" points="44.5 14.6 41.1 0.6 42.7 0.6 45.3 10.5 48.4 0.6 49.2 0.6 52.3 10.5 54.9 0.6 56.5 0.6 53.2 14.6 52.2 14.6 48.9 4.2 45.5 14.6"></polygon> </g> <polyline id="Shape_49_" stroke="#1C2E3F" stroke-width="1.2618" points="64 117.6 96.5 117.6 143.6 164.5"></polyline> <circle id="Oval_2_" stroke="#1C2E3F" stroke-width="1.2618" fill="#FFFFFF" fill-rule="nonzero" stroke-linejoin="round" cx="145.9" cy="166" r="5.4"></circle> </g> </g> </g> <g id="Group_2_" fill-rule="nonzero" fill="#1C2E3F"> <polygon id="Shape_48_" points="4.4 14.8 4.4 2.2 0 2.2 0 0.8 10.3 0.8 10.3 2.2 6 2.2 6 14.8"></polygon> <polygon id="Shape_45_" points="13.3 14.8 13.3 0.8 15 0.8 15 6.9 22 6.9 22 0.8 23.7 0.8 23.7 14.8 22 14.8 22 8.3 15 8.3 15 14.8"></polygon> <polygon id="Shape_44_" points="28.1 14.8 28.1 0.8 29.8 0.8 29.8 14.8"></polygon> <path d="M34.2,14.8 L34.2,0.8 L38.8,0.8 C40.4,0.8 41.6,1.2 42.3,1.9 C43,2.6 43.4,3.6 43.4,4.7 C43.4,5.3 43.3,5.9 43.2,6.3 C43.1,6.8 42.7,7.1 42.5,7.5 C42.1,7.9 41.8,8.1 41.4,8.2 C40.9,8.4 40.6,8.6 40.1,8.7 L43.9,14.9 L42,14.9 L38.3,8.8 L36.3,8.8 L36.3,14.9 L34.2,14.9 L34.2,14.8 Z M35.9,7.3 L38.7,7.3 C40.6,7.3 41.6,6.5 41.6,4.7 C41.6,3.9 41.4,3.3 40.9,2.9 C40.4,2.5 39.7,2.3 38.9,2.3 L36,2.3 L36,7.3 L35.9,7.3 Z" id="Shape_43_"></path> <path d="M46.8,14.8 L46.8,0.8 L50.4,0.8 C51,0.8 51.5,0.8 52.1,0.9 C52.7,1 53.2,1.1 53.8,1.4 C54.4,1.6 54.8,2 55.2,2.4 C55.6,2.8 55.9,3.2 56.3,3.7 C56.7,4.2 56.8,4.8 57,5.5 C57.1,6.1 57.2,6.8 57.2,7.7 C57.2,8.7 57.1,9.5 56.8,10.3 C56.5,11.1 56.3,11.7 55.8,12.3 C55.3,12.9 55,13.4 54.4,13.7 C53.8,14.1 53.3,14.3 52.6,14.5 C52.2,14.6 51.9,14.6 51.4,14.7 C50.9,14.7 50.6,14.8 50.2,14.8 L46.7,14.8 L46.7,14.8 L46.8,14.8 Z M48.5,13.4 L50.2,13.4 C50.6,13.4 50.8,13.4 51.3,13.4 C51.8,13.4 52,13.3 52.4,13.2 C52.8,13 53.2,12.7 53.6,12.5 C54,12.3 54.3,11.9 54.6,11.4 C54.8,10.9 55.1,10.4 55.3,9.8 C55.4,9.2 55.5,8.5 55.5,7.8 C55.5,6.6 55.3,5.6 54.9,4.9 C54.5,4.2 54.1,3.6 53.3,3.1 C52.9,2.9 52.5,2.6 51.9,2.5 C51.3,2.4 50.8,2.4 50.3,2.4 L48.5,2.4 L48.5,13.4 L48.5,13.4 Z" id="Shape_42_"></path> <path d="M66.1,14.8 L66.1,0.8 L70.4,0.8 C72,0.8 73.2,1.2 74,1.9 C74.7,2.6 75.2,3.7 75.2,5 C75.2,6.3 74.8,7.4 74,8.1 C73.2,8.8 72,9.2 70.4,9.2 L67.8,9.2 L67.8,14.8 L66.1,14.8 L66.1,14.8 Z M67.8,7.7 L70.6,7.7 C71.4,7.7 72.2,7.5 72.6,7.1 C73.1,6.7 73.4,6 73.4,5.1 C73.4,4.2 73.2,3.4 72.7,3.1 C72.2,2.6 71.5,2.5 70.5,2.5 L67.7,2.5 L67.7,7.7 L67.8,7.7 Z" id="Shape_41_"></path> <path d="M76.9,14.8 L82.3,0.8 L83.4,0.8 L88.9,14.8 L87.1,14.8 L85.4,10.5 L80.4,10.5 L78.7,14.8 L76.9,14.8 Z M80.9,8.9 L84.9,8.9 L82.9,3.5 L80.9,8.9 Z" id="Shape_40_"></path> <path d="M91.7,14.8 L91.7,0.8 L96.1,0.8 C97.7,0.8 98.9,1.2 99.6,1.9 C100.3,2.6 100.7,3.6 100.7,4.7 C100.7,5.3 100.6,5.9 100.5,6.3 C100.4,6.8 100,7.1 99.8,7.5 C99.4,7.9 99.1,8.1 98.7,8.2 C98.2,8.4 97.9,8.6 97.4,8.7 L101.2,14.9 L99.3,14.9 L95.6,8.8 L93.6,8.8 L93.6,14.9 L91.7,14.9 L91.7,14.8 Z M93.4,7.3 L96.2,7.3 C98.1,7.3 99.1,6.5 99.1,4.7 C99.1,3.9 98.9,3.3 98.4,2.9 C97.9,2.5 97.2,2.3 96.4,2.3 L93.5,2.3 L93.5,7.3 L93.4,7.3 Z" id="Shape_39_"></path> <polygon id="Shape_38_" points="107.1 14.8 107.1 2.2 102.7 2.2 102.7 0.8 113.1 0.8 113.1 2.2 108.7 2.2 108.7 14.8"></polygon> <polygon id="Shape_37_" points="116.1 14.8 116.1 0.8 117.7 0.8 117.7 14.8"></polygon> <polygon id="Shape_36_" points="122.2 14.8 122.2 0.8 130.3 0.8 130.3 2.2 123.9 2.2 123.9 6.7 128.5 6.7 128.5 8.1 123.9 8.1 123.9 13.3 130.8 13.3 130.8 14.8"></polygon> <path d="M134.3,11.8 C134.7,12.4 135.3,12.9 135.9,13.1 C136.5,13.3 137.2,13.6 137.9,13.6 C138.3,13.6 138.6,13.6 139,13.5 C139.4,13.4 139.6,13.3 139.8,13 C140,12.8 140.3,12.5 140.4,12.3 C140.5,11.9 140.6,11.6 140.6,11.2 C140.6,10.8 140.5,10.5 140.4,10.1 C140.2,9.7 139.9,9.5 139.7,9.3 C139.3,9.1 139.1,8.8 138.6,8.7 C138.2,8.5 137.8,8.3 137.4,8.1 C136.9,7.9 136.4,7.6 136,7.5 C135.5,7.3 135.2,7 134.8,6.7 C134.4,6.3 134.1,6 133.8,5.6 C133.6,5.2 133.4,4.6 133.4,4.2 C133.4,3.6 133.5,3.1 133.8,2.6 C134,2.1 134.4,1.8 134.8,1.5 C135.2,1.1 135.6,1 136.2,0.8 C136.7,0.7 137.3,0.6 137.9,0.6 C138.7,0.6 139.6,0.7 140.4,1.1 C141.2,1.5 141.8,2.1 142.3,2.8 L141,3.8 C140.6,3.3 140.2,2.8 139.6,2.6 C139,2.1 138.4,2 137.8,2 C137,2 136.4,2.2 135.9,2.6 C135.4,3 135.2,3.4 135.2,4 C135.2,4.4 135.3,4.6 135.4,4.8 C135.5,5 135.8,5.3 136.1,5.5 C136.3,5.7 136.7,5.9 137.2,6.1 C137.6,6.3 138,6.5 138.5,6.7 C139,6.9 139.5,7.2 139.9,7.4 C140.4,7.6 140.7,7.9 141.1,8.2 C141.5,8.6 141.7,8.9 141.9,9.3 C142.1,9.7 142.3,10.3 142.3,10.9 C142.3,11.6 142.2,12.2 141.9,12.7 C141.7,13.2 141.3,13.7 140.9,14 C140.5,14.4 139.9,14.6 139.5,14.7 C138.9,14.8 138.3,14.9 137.7,14.9 C137.2,14.9 136.7,14.9 136.3,14.8 C135.8,14.7 135.3,14.6 135,14.3 C134.5,14.1 134.2,13.8 133.8,13.6 C133.4,13.4 133.2,13 133,12.6 L134.3,11.8 Z" id="Shape_35_"></path> <polygon id="Shape_34_" points="153 14.8 149.5 0.8 151.2 0.8 153.9 10.6 157 0.8 157.8 0.8 161.1 10.6 163.6 0.8 165.3 0.8 161.7 14.8 160.7 14.8 157.3 4.4 154 14.8"></polygon> <polygon id="Shape_33_" points="168 14.8 168 0.8 169.7 0.8 169.7 14.8"></polygon> <polygon id="Shape_32_" points="176.9 14.8 176.9 2.2 172.6 2.2 172.6 0.8 182.9 0.8 182.9 2.2 178.6 2.2 178.6 14.8"></polygon> <polygon id="Shape_31_" points="185.9 14.8 185.9 0.8 187.6 0.8 187.6 6.9 194.5 6.9 194.5 0.8 196.2 0.8 196.2 14.8 194.5 14.8 194.5 8.3 187.6 8.3 187.6 14.8"></polygon> <path d="M1.8,37 C2.2,37.6 2.8,38 3.4,38.3 C4,38.6 4.7,38.8 5.4,38.8 C5.8,38.8 6.1,38.8 6.5,38.7 C6.9,38.6 7.1,38.5 7.3,38.2 C7.5,38 7.8,37.7 7.9,37.5 C8,37.1 8.1,36.8 8.1,36.4 C8.1,36 8,35.7 7.9,35.3 C7.7,34.9 7.4,34.7 7.2,34.5 C6.8,34.3 6.6,34 6.1,33.9 C5.7,33.7 5.3,33.5 4.9,33.3 C4.4,33.1 3.9,32.8 3.5,32.7 C3,32.5 2.7,32.2 2.3,31.9 C1.9,31.5 1.6,31.2 1.3,30.8 C1.1,30.4 0.9,29.8 0.9,29.4 C0.9,28.8 1,28.3 1.3,27.8 C1.6,27.3 1.9,27 2.3,26.7 C2.7,26.3 3.1,26.2 3.7,26 C4.2,25.9 4.8,25.8 5.4,25.8 C6.2,25.8 7.1,25.9 7.9,26.3 C8.7,26.7 9.3,27.3 9.8,28 L8.5,29 C8.1,28.5 7.7,28 7.1,27.8 C6.5,27.4 5.9,27.3 5.3,27.3 C4.5,27.3 3.9,27.5 3.4,27.9 C2.9,28.3 2.7,28.7 2.7,29.3 C2.7,29.7 2.8,29.9 2.9,30.1 C3,30.3 3.3,30.6 3.6,30.8 C3.8,31 4.2,31.2 4.7,31.4 C5.1,31.6 5.5,31.8 6,32 C6.5,32.2 7,32.5 7.4,32.7 C7.9,32.9 8.2,33.2 8.6,33.5 C9,33.9 9.2,34.2 9.4,34.6 C9.6,35 9.8,35.6 9.8,36.2 C9.8,36.9 9.7,37.5 9.4,38 C9.2,38.5 8.8,39 8.4,39.3 C7.9,39.7 7.4,39.9 7,40 C6.4,40.1 5.8,40.2 5.2,40.2 C4.7,40.2 4.2,40.2 3.8,40.1 C3.3,40 2.8,39.9 2.5,39.6 C2,39.4 1.7,39.1 1.3,38.9 C0.9,38.7 0.7,38.3 0.5,37.9 L1.8,37 Z" id="Shape_30_"></path> <polygon id="Shape_29_" points="13.5 40 13.5 26 21.6 26 21.6 27.4 15.1 27.4 15.1 31.8 19.8 31.8 19.8 33.3 15.1 33.3 15.1 38.4 22.1 38.4 22.1 40"></polygon> <polygon id="Shape_28_" points="25.2 40 25.2 26 26.9 26 34 36.4 34 26 35.7 26 35.7 40 34.5 40 26.9 28.8 26.9 40"></polygon> <path d="M40.3,37 C40.7,37.6 41.3,38.1 41.9,38.3 C42.5,38.5 43.2,38.8 43.9,38.8 C44.3,38.8 44.6,38.8 45,38.7 C45.4,38.6 45.6,38.5 45.8,38.2 C46,38 46.3,37.7 46.4,37.5 C46.5,37.1 46.6,36.8 46.6,36.4 C46.6,36 46.5,35.7 46.4,35.3 C46.2,34.9 45.9,34.7 45.7,34.5 C45.3,34.3 45.1,34 44.6,33.9 C44.2,33.7 43.8,33.5 43.4,33.3 C42.9,33.1 42.4,32.8 42,32.7 C41.5,32.5 41.2,32.2 40.8,31.9 C40.4,31.6 40.1,31.2 39.8,30.8 C39.6,30.4 39.4,29.8 39.4,29.4 C39.4,28.8 39.5,28.3 39.8,27.8 C40,27.3 40.4,27 40.8,26.7 C41.2,26.3 41.6,26.2 42.2,26 C42.7,25.9 43.3,25.8 43.9,25.8 C44.7,25.8 45.6,25.9 46.4,26.3 C47.2,26.7 47.8,27.3 48.3,28 L47.1,29 C46.7,28.5 46.3,28 45.7,27.8 C45.1,27.4 44.5,27.3 43.9,27.3 C43.1,27.3 42.5,27.5 42,27.9 C41.5,28.3 41.3,28.7 41.3,29.3 C41.3,29.7 41.4,29.9 41.5,30.1 C41.6,30.3 41.9,30.6 42.2,30.8 C42.4,31 42.8,31.2 43.3,31.4 C43.7,31.6 44.1,31.8 44.6,32 C45.1,32.2 45.6,32.5 46,32.7 C46.5,32.9 46.8,33.2 47.2,33.5 C47.6,33.9 47.8,34.2 48,34.6 C48.2,35 48.4,35.6 48.4,36.2 C48.4,36.9 48.3,37.5 48,38 C47.8,38.5 47.4,39 47,39.3 C46.6,39.7 46,39.9 45.6,40 C45,40.1 44.4,40.2 43.8,40.2 C43.3,40.2 42.8,40.2 42.4,40.1 C41.9,40 41.4,39.9 41.1,39.6 C40.6,39.4 40.3,39.1 39.9,38.9 C39.5,38.7 39.3,38.3 39.1,37.9 L40.3,37 Z" id="Shape_27_"></path> <polygon id="Shape_20_" points="52 40 52 26 53.7 26 53.7 40"></polygon> <polygon id="Shape_21_" points="61 40 61 27.4 56.7 27.4 56.7 26 67 26 67 27.4 62.7 27.4 62.7 40"></polygon> <polygon id="Shape_22_" points="70 40 70 26 71.7 26 71.7 40"></polygon> <polygon id="Shape_23_" points="79.7 40 74.3 26 76.1 26 80.2 36.6 84.1 26 85.9 26 80.7 40"></polygon> <polygon id="Shape_24_" points="88.8 40 88.8 26 97 26 97 27.4 90.5 27.4 90.5 31.8 95.2 31.8 95.2 33.3 90.4 33.3 90.4 38.4 97.3 38.4 97.3 40"></polygon> <path d="M105.9,40 L105.9,26 L109.5,26 C110.1,26 110.6,26 111.2,26.1 C111.8,26.2 112.3,26.3 112.9,26.6 C113.4,26.8 113.9,27.2 114.3,27.6 C114.7,28 115,28.4 115.4,28.9 C115.8,29.4 115.9,30 116.1,30.7 C116.2,31.3 116.3,32 116.3,32.9 C116.3,33.9 116.2,34.7 115.9,35.5 C115.7,36.3 115.4,36.9 114.9,37.5 C114.4,38.1 114.1,38.6 113.5,38.9 C112.9,39.3 112.4,39.5 111.7,39.7 C111.3,39.8 111,39.8 110.5,39.9 C110,39.9 109.7,40 109.3,40 L105.8,40 L105.8,40 L105.9,40 Z M107.5,38.6 L109.2,38.6 C109.6,38.6 109.8,38.6 110.3,38.6 C110.8,38.6 111,38.5 111.4,38.4 C111.8,38.2 112.2,37.9 112.6,37.7 C113,37.5 113.3,37.1 113.6,36.6 C113.8,36.1 114.1,35.6 114.3,35 C114.4,34.4 114.5,33.7 114.5,33 C114.5,31.8 114.3,30.8 113.9,30.1 C113.5,29.4 113.1,28.8 112.3,28.3 C111.9,28.1 111.5,27.8 110.9,27.7 C110.3,27.6 109.8,27.6 109.3,27.6 L107.5,27.6 L107.5,38.6 L107.5,38.6 Z" id="Shape_25_"></path> <path d="M117.7,40 L123.1,26 L124.2,26 L129.7,40 L127.9,40 L126.2,35.7 L121.2,35.7 L119.6,40 L117.7,40 Z M121.6,34.1 L125.6,34.1 L123.6,28.7 L121.6,34.1 Z" id="Shape_26_"></path> <polygon id="Shape_46_" points="133.6 40 133.6 27.4 129.3 27.4 129.3 26 139.6 26 139.6 27.4 135.3 27.4 135.3 40"></polygon> <path d="M139.1,40 L144.5,26 L145.6,26 L151.1,40 L149.2,40 L147.5,35.7 L142.5,35.7 L140.9,40 L139.1,40 Z M143.1,34.1 L147.1,34.1 L145.1,28.7 L143.1,34.1 Z" id="Shape_47_"></path> </g> </g> </g> </svg> 