<?xml version="1.0" encoding="utf-8"?>
<!-- Generator: Adobe Illustrator 20.0.0, SVG Export Plug-In . SVG Version: 6.00 Build 0)  -->
<svg version="1.1" id="facebook" xmlns="http://www.w3.org/2000/svg" xmlns:xlink="http://www.w3.org/1999/xlink" x="0px" y="0px"
	 viewBox="0 0 40 40" style="enable-background:new 0 0 40 40;" xml:space="preserve">
<style type="text/css">
	.st0{fill:#56738F;}
</style>
<path class="st0" d="M20,0C9,0,0,9,0,20c0,9.8,7,17.9,16.2,19.6v-13h-4.5v-5.2h4.5v-3.8c0-4.5,2.7-6.9,6.7-6.9c1.9,0,3.5,0.1,4,0.2
	v4.7l-2.8,0c-2.2,0-2.6,1-2.6,2.5v3.3h5.2l-0.7,5.2h-4.5V40C31.9,39.1,40,30.5,40,20C40,9,31,0,20,0z"/>
</svg>
