<?xml version="1.0" encoding="utf-8"?>
<!-- Generator: Adobe Illustrator 20.0.0, SVG Export Plug-In . SVG Version: 6.00 Build 0)  -->
<svg version="1.1" id="linked_in" xmlns="http://www.w3.org/2000/svg" xmlns:xlink="http://www.w3.org/1999/xlink" x="0px" y="0px"
	 viewBox="0 0 40 40" style="enable-background:new 0 0 40 40;" xml:space="preserve">
<style type="text/css">
	.st0{fill:#56738F;}
</style>
<path class="st0" d="M20,0C9,0,0,9,0,20c0,11,9,20,20,20c11,0,20-9,20-20C40,9,31,0,20,0z M13.9,31H9.3V16.3h4.6V31z M11.6,14.3
	c-1.5,0-2.7-1.2-2.7-2.7C9,10.2,10.2,9,11.6,9c1.5,0,2.6,1.2,2.6,2.6C14.3,13.1,13.1,14.3,11.6,14.3z M31,31h-4.6v-7.2
	c0-1.7,0-3.9-2.4-3.9c-2.4,0-2.7,1.9-2.7,3.8V31h-4.6V16.3h4.4v2h0.1c0.6-1.2,2.1-2.4,4.3-2.4c4.6,0,5.5,3,5.5,7V31z"/>
</svg>
