<?xml version="1.0" encoding="utf-8"?>
<!-- Generator: Adobe Illustrator 20.0.0, SVG Export Plug-In . SVG Version: 6.00 Build 0)  -->
<svg version="1.1" id="blog" xmlns="http://www.w3.org/2000/svg" xmlns:xlink="http://www.w3.org/1999/xlink" x="0px" y="0px"
	 viewBox="0 0 30 30" style="enable-background:new 0 0 30 30;" xml:space="preserve">
<style type="text/css">
	.st0{fill:#FFFFFF;}
</style>
<path class="st0" d="M8.2,15v2.7H5.5V15H8.2z M8.2,9.6v2.7H5.5V9.6H8.2z M24.5,15v2.7H9.6V15H24.5z M24.5,9.6v2.7H9.6V9.6H24.5z
	 M27.3,21.8V5.5H2.8v16.3H27.3z M27.3,2.8C28.7,2.8,30,4,30,5.5l-0.1,16.3c0,1.5-1.2,2.7-2.7,2.7h-6.8v2.7H9.6v-2.7H2.8
	c-1.5,0-2.7-1.2-2.7-2.7V5.5C0,4,1.3,2.8,2.8,2.8L27.3,2.8L27.3,2.8z"/>
</svg>
