<svg data-name="Layer 1" xmlns="http://www.w3.org/2000/svg" viewBox="0 0 500 500"><title>icon-support-orange</title><circle cx="250" cy="250" r="250" fill="#ff6800"/><path d="M249.9 114.17a86.89 86.89 0 0 0-86.9 86.94v9h-3a35.9 35.9 0 0 0-36 36v30a35.9 35.9 0 0 0 36 36h15v-111a75 75 0 1 1 149.9 0V324c0 6.34-1.93 11.68-5 15.27s-7.08 5.72-13 5.72h-24.58a32.26 32.26 0 0 1 0 12h24.55a28.71 28.71 0 0 0 22.2-9.93c5.19-6.13 7.78-14.34 7.78-23v-12h3a35.9 35.9 0 0 0 36-36v-30a35.9 35.9 0 0 0-36-36h-3v-9a86.89 86.89 0 0 0-86.95-86.89zm0 215.86a21 21 0 1 0 21 21 21 21 0 0 0-21-21.03z" fill="#fff"/></svg>