<?xml version="1.0" encoding="utf-8"?>
<!-- Generator: Adobe Illustrator 20.0.0, SVG Export Plug-In . SVG Version: 6.00 Build 0)  -->
<svg version="1.1" id="event" xmlns="http://www.w3.org/2000/svg" xmlns:xlink="http://www.w3.org/1999/xlink" x="0px" y="0px"
	 viewBox="0 0 40 40" style="enable-background:new 0 0 40 40;" xml:space="preserve">
<style type="text/css">
	.st0{fill:#FFFFFF;}
</style>
<path class="st0" d="M34,36V14H6v22H34z M28-0.1h4v4h2c1.1,0,2,0.4,2.8,1.2C37.6,6,38,7,38,8v28c0,1.1-0.4,2-1.2,2.8
	C36,39.6,35.1,40,34,40H6c-1.1,0-2.1-0.4-2.9-1.2C2.4,38,2,37.1,2,36V8C2,7,2.4,6,3.1,5.2S4.9,4,6,4h2v-4h4v4h16L28-0.1z M30,22v10
	H20V22L30,22z"/>
</svg>
