<?xml version="1.0" encoding="utf-8"?>
<!-- Generator: Adobe Illustrator 20.0.0, SVG Export Plug-In . SVG Version: 6.00 Build 0)  -->
<svg version="1.1" id="video" xmlns="http://www.w3.org/2000/svg" xmlns:xlink="http://www.w3.org/1999/xlink" x="0px" y="0px"
	 viewBox="0 0 40 40" style="enable-background:new 0 0 40 40;" xml:space="preserve">
<style type="text/css">
	.st0{fill:#FFFFFF;}
</style>
<path class="st0" d="M28,28l-12-6.5v13.1L28,28z M40,20V36c0,1.1-0.4,2-1.2,2.8S37.1,40,36.1,40H3.9c-1.1,0-2-0.4-2.8-1.2
	S0,37.1,0,36V20c0-1.1,0.4-2,1.2-2.8S2.9,16,3.9,16h32.1c1.1,0,2,0.4,2.8,1.2C39.6,18,40,18.9,40,20z M32,0v3.9H8V0L32,0z M36.1,12
	H3.9V8h32.1V12z"/>
</svg>
