<?xml version="1.0" encoding="utf-8"?>
<!-- Generator: Adobe Illustrator 20.0.0, SVG Export Plug-In . SVG Version: 6.00 Build 0)  -->
<svg version="1.1" id="know_your_third_parties" xmlns="http://www.w3.org/2000/svg" xmlns:xlink="http://www.w3.org/1999/xlink"
	 x="0px" y="0px" viewBox="0 0 170 170" style="enable-background:new 0 0 170 170;" xml:space="preserve">
<style type="text/css">
	.st0{fill:#FF6800;}
	.st1{opacity:0.6;fill:#D15400;}
	.st2{fill:#E6E6E6;}
	.st3{fill:#FFFFFF;}
	.st4{fill:#1C2E3F;}
	.st5{clip-path:url(#SVGID_2_);}
	.st6{fill:#36566B;}
	.st7{fill:#343B43;}
	.st8{clip-path:url(#SVGID_2_);fill:#1C2E3F;}
	.st9{clip-path:url(#SVGID_2_);fill:#4FC6AF;}
	.st10{clip-path:url(#SVGID_2_);fill:#FF6800;}
	.st11{clip-path:url(#SVGID_2_);fill:#D15400;}
</style>
<g>
	<circle class="st0" cx="85" cy="85" r="85"/>
	<path class="st1" d="M170,85.9l-40.4-40.4c-0.6-0.6-1.4-0.9-2.3-0.9H42.7c-0.8,0-1.6,0.3-2.3,0.9c-0.6,0.6-0.9,1.4-0.9,2.3v66
		c0,0.8,0.3,1.6,0.9,2.3l53.5,53.5C136.4,165.1,169.5,129.4,170,85.9z"/>
	<g>
		<rect x="71.6" y="117" class="st2" width="26.8" height="11.8"/>
		<rect x="65.2" y="128.8" class="st3" width="39.6" height="3.2"/>
		<path class="st4" d="M39.5,106.3V47.8c0-0.8,0.3-1.6,0.9-2.3c0.6-0.6,1.4-0.9,2.3-0.9h84.6c0.8,0,1.6,0.3,2.3,0.9
			c0.6,0.6,0.9,1.4,0.9,2.3v58.5H39.5z"/>
		<rect x="45.4" y="50.5" class="st2" width="79.3" height="49.9"/>
		<path class="st3" d="M130.5,113.8c0,0.8-0.3,1.6-0.9,2.3c-0.6,0.6-1.5,0.9-2.3,0.9H42.7c-0.8,0-1.6-0.3-2.3-0.9
			c-0.6-0.6-0.9-1.5-0.9-2.3v-7.5h91V113.8z"/>
	</g>
	<g>
		<defs>
			<rect id="SVGID_1_" x="45.4" y="50.5" width="79.3" height="49.9"/>
		</defs>
		<clipPath id="SVGID_2_">
			<use xlink:href="#SVGID_1_"  style="overflow:visible;"/>
		</clipPath>
		<g class="st5">
			<g>
				<polygon class="st6" points="86.7,73.2 83.3,73.2 82.3,78.2 87.7,78.2 				"/>
				<polygon class="st6" points="75.2,75.3 72.2,77.1 73.8,81.9 78.5,79.2 				"/>
				<polygon class="st6" points="66.2,83 64.5,86 68.3,89.4 71.1,84.7 				"/>
				<polygon class="st6" points="62.3,94.1 62.3,97.6 67.3,98.6 67.3,93.1 				"/>
				<polygon class="st7" points="64.5,105.7 66.2,108.7 71.1,107 68.3,102.3 				"/>
				<polygon class="st7" points="72.2,114.6 75.2,116.3 78.5,112.5 73.8,109.8 				"/>
				<polygon class="st7" points="83.3,118.5 86.7,118.5 87.7,113.5 82.3,113.5 				"/>
				<polygon class="st7" points="94.8,116.3 97.8,114.6 96.2,109.8 91.5,112.5 				"/>
				<polygon class="st7" points="103.8,108.7 105.5,105.7 101.7,102.3 98.9,107 				"/>
				<polygon class="st6" points="107.7,97.6 107.7,94.1 102.7,93.1 102.7,98.6 				"/>
				<polygon class="st6" points="105.5,86 103.8,83 98.9,84.7 101.7,89.4 				"/>
				<polygon class="st6" points="97.8,77.1 94.8,75.4 91.5,79.2 96.2,81.9 				"/>
			</g>
		</g>
		<path class="st8" d="M85,78c-9.9,0-17.9,8-17.9,17.9c0,9.9,8,17.9,17.9,17.9c9.9,0,17.9-8,17.9-17.9C102.9,86,94.9,78,85,78z
			 M85,100.8c-2.7,0-4.9-2.2-4.9-5c0-2.7,2.2-5,4.9-5c2.7,0,5,2.2,5,5C89.9,98.6,87.7,100.8,85,100.8z"/>
		<path class="st9" d="M85,87.3c-4.7,0-8.6,3.8-8.6,8.6c0,4.7,3.8,8.6,8.6,8.6c4.7,0,8.6-3.8,8.6-8.6C93.6,91.1,89.7,87.3,85,87.3z
			 M85,100.1c-2.4,0-4.3-1.9-4.3-4.3c0-2.4,1.9-4.3,4.3-4.3c2.4,0,4.3,1.9,4.3,4.3C89.3,98.2,87.4,100.1,85,100.1z"/>
		<g class="st5">
			<polygon class="st0" points="110.1,55.7 108.6,55.7 108.1,57.9 110.6,57.9 			"/>
			<polygon class="st0" points="105,56.6 103.6,57.4 104.4,59.6 106.5,58.3 			"/>
			<polygon class="st0" points="101,60.1 100.2,61.4 101.9,62.9 103.1,60.8 			"/>
			<polygon class="st0" points="99.2,65 99.2,66.5 101.5,67 101.5,64.6 			"/>
			<polygon class="st0" points="100.2,70.2 101,71.5 103.1,70.8 101.9,68.7 			"/>
			<polygon class="st0" points="103.6,74.1 105,74.9 106.5,73.2 104.4,72 			"/>
			<polygon class="st0" points="108.6,75.9 110.1,75.9 110.6,73.7 108.1,73.7 			"/>
			<polygon class="st0" points="113.7,74.9 115.1,74.1 114.3,72 112.2,73.2 			"/>
			<polygon class="st0" points="117.7,71.5 118.5,70.2 116.8,68.7 115.6,70.8 			"/>
			<polygon class="st0" points="119.5,66.5 119.5,65 117.2,64.6 117.2,67 			"/>
			<polygon class="st0" points="118.5,61.4 117.7,60.1 115.6,60.8 116.8,62.9 			"/>
			<polygon class="st0" points="115.1,57.4 113.7,56.6 112.2,58.3 114.3,59.6 			"/>
		</g>
		<path class="st10" d="M109.3,57.8c-4.4,0-8,3.6-8,8c0,4.4,3.6,8,8,8c4.4,0,8-3.6,8-8C117.3,61.4,113.7,57.8,109.3,57.8z M109.3,68
			c-1.2,0-2.2-1-2.2-2.2c0-1.2,1-2.2,2.2-2.2c1.2,0,2.2,1,2.2,2.2C111.6,67,110.6,68,109.3,68z"/>
		<path class="st11" d="M109.3,62c-2.1,0-3.8,1.7-3.8,3.8c0,2.1,1.7,3.8,3.8,3.8c2.1,0,3.8-1.7,3.8-3.8
			C113.2,63.7,111.5,62,109.3,62z M109.3,67.7c-1.1,0-1.9-0.9-1.9-1.9c0-1.1,0.9-1.9,1.9-1.9c1.1,0,1.9,0.9,1.9,1.9
			C111.3,66.8,110.4,67.7,109.3,67.7z"/>
	</g>
</g>
</svg>
