<?xml version="1.0" encoding="utf-8"?>
<!-- Generator: Adobe Illustrator 20.0.0, SVG Export Plug-In . SVG Version: 6.00 Build 0)  -->
<svg version="1.1" id="Layer_1" xmlns="http://www.w3.org/2000/svg" xmlns:xlink="http://www.w3.org/1999/xlink" x="0px" y="0px"
	 viewBox="0 0 153 70" style="enable-background:new 0 0 153 70;" xml:space="preserve">
<style type="text/css">
	.st0{fill:#1C2E3F;}
	.st1{fill:#FF6800;}
</style>
<g>
	<g>
		<g>
			<path class="st0" d="M83.5,35c0,6.7-3.8,10.9-9.8,10.9c-6.1,0-9.9-4.2-9.9-10.9c0-6.6,3.8-10.8,9.9-10.8
				C79.7,24.2,83.5,28.4,83.5,35z M68.5,35c0,4.1,1.9,6.6,5.2,6.6c3.2,0,5.1-2.4,5.1-6.6c0-4.1-2-6.5-5.1-6.5
				C70.4,28.5,68.5,30.9,68.5,35z"/>
			<path class="st0" d="M92.2,26.8c0.2,0.5,0.5,0.4,0.8,0c1.7-1.9,3.7-2.7,6-2.7c5.6,0,9,4.2,9,10.8c0,6.7-3.6,10.9-9.6,10.9
				c-1.5,0-2.7-0.3-3.9-0.8l-1.2-0.5v9.6c0,0.3-0.2,0.5-0.5,0.5H89c-0.3,0-0.5-0.2-0.5-0.5v-29c0-0.3,0.2-0.5,0.5-0.5h2.1
				c0.3,0,0.5,0.1,0.5,0.4L92.2,26.8z M94.6,40.8c1,0.5,2.2,0.7,3.5,0.7c3.3,0,5.2-2.4,5.2-6.6c0-4.1-1.9-6.5-5.1-6.5
				s-4.9,2.7-4.9,6.4v5.4L94.6,40.8z"/>
			<path class="st0" d="M127.6,43.3c-0.3-0.5-0.5-0.5-1,0c-1.7,1.9-3.8,2.6-5.9,2.6c-4.9,0-7.8-3-7.8-8.1V25.1
				c0-0.3,0.2-0.5,0.5-0.5h3.8c0.3,0,0.5,0.2,0.5,0.5v12.1c0,2.7,1.4,4.3,3.7,4.3c3.2,0,5-2.3,5-6.5V25c0-0.3,0.2-0.5,0.5-0.5h3.8
				c0.3,0,0.5,0.2,0.5,0.5v19.8c0,0.3-0.2,0.5-0.5,0.5h-2.1c-0.3,0-0.5-0.1-0.5-0.4L127.6,43.3z"/>
			<path class="st0" d="M141.8,36.2c-3.6-0.9-5.2-2.7-5.2-5.8c0-3.9,2.9-6.2,7.8-6.2c1.9,0,3.9,0.3,5.3,0.7l1.9,0.5
				c0.3,0.1,0.4,0.3,0.3,0.6l-0.9,3.2c-0.1,0.3-0.3,0.4-0.6,0.3l-1.9-0.5c-1.2-0.3-2.9-0.5-4.2-0.5c-2,0-3.1,0.7-3.1,1.9
				c0,1,0.6,1.6,1.9,2l4.3,1.1c3.7,0.9,5.4,2.9,5.4,6c0,4-3,6.5-8,6.5c-2.2,0-4.5-0.3-6.6-0.9l-1.7-0.5c-0.3-0.1-0.4-0.3-0.3-0.6
				l1-3.2c0.1-0.3,0.3-0.4,0.6-0.3l1.5,0.4c1.6,0.5,3.9,0.7,5.5,0.7c2.1,0,3.3-0.8,3.3-2.1c0-1-0.6-1.7-2-2.1L141.8,36.2z"/>
		</g>
	</g>
	<g>
		<path class="st1" d="M27.2,48.5c0-3,2.4-6.8,3.6-8.2c1.3-1.4,2-3.3,2-5.3c0-1.9-0.7-3.7-1.8-5.1c-0.1-0.1-0.1-0.2-0.2-0.3
			c-1.7-1.8-3.6-4.7-3.6-8.2c0-3,2.4-6.8,3.6-8.2c1.3-1.4,2-3.3,2-5.3c0-4.4-3.6-8-8-8l0,0l0,0l0,0l0,0c-4.4,0-8,3.6-8,8
			c0,2,0.8,3.9,2,5.3s3.6,5.2,3.6,8.2c0,3.5-2,6.3-3.6,8.2c-0.1,0.1-0.1,0.1-0.1,0.2c-1.2,1.4-1.9,3.2-1.9,5.2s0.8,3.9,2,5.3
			c1.2,1.4,3.6,5.2,3.6,8.2c0,3.5-2,6.3-3.6,8.2c-1.3,1.4-2,3.3-2,5.3c0,4.4,3.6,8,8,8l0,0l0,0l0,0l0,0c4.4,0,8-3.6,8-8
			c0-2-0.8-3.9-2-5.3C29.2,54.8,27.2,52,27.2,48.5z"/>
		<path class="st1" d="M44,35c0-3,2.4-6.8,3.6-8.2c1.3-1.4,2-3.3,2-5.3c0-4.4-3.6-8-8-8l0,0l0,0l0,0l0,0c-4.4,0-8,3.6-8,8
			c0,2,0.8,3.9,2,5.3s3.6,5.2,3.6,8.2c0,3.5-2,6.3-3.6,8.2c-1.3,1.4-2,3.3-2,5.3c0,4.4,3.6,8,8,8l0,0l0,0l0,0l0,0c4.4,0,8-3.6,8-8
			c0-2-0.8-3.9-2-5.3C45.9,41.3,44,38.5,44,35z"/>
		<path class="st1" d="M10.4,35c0-3,2.4-6.8,3.6-8.2c1.3-1.4,2-3.3,2-5.3c0-4.4-3.6-8-8-8l0,0l0,0l0,0l0,0c-4.4,0-8,3.6-8,8
			c0,2,0.8,3.9,2,5.3C3.4,28.2,5.8,32,5.8,35c0,3.5-2,6.3-3.6,8.2c-1.3,1.4-2,3.3-2,5.3c0,4.4,3.6,8,8,8l0,0l0,0l0,0l0,0
			c4.4,0,8-3.6,8-8c0-2-0.8-3.9-2-5.3C12.4,41.3,10.4,38.5,10.4,35z"/>
	</g>
</g>
</svg>
