<svg id="Layer_1" xmlns="http://www.w3.org/2000/svg" viewBox="0 0 500 500"><style>.st0{fill:#fff}</style><circle cx="250" cy="250" r="250" fill="#ff6800"/><path class="st0" d="M261.5 317.1c0-14.8 12-33.7 18.1-40.6 6.3-7 10.1-16.3 10.1-26.5 0-9.6-3.4-18.4-9.1-25.3-.3-.5-.7-.9-1.1-1.3-8.4-9.1-18.1-23.3-18.1-40.6 0-14.8 12-33.7 18.1-40.6 6.3-7 10.1-16.3 10.1-26.5 0-21.9-17.7-39.7-39.6-39.8h-.1-.1c-21.9.1-39.6 17.9-39.7 39.8 0 10.2 3.9 19.4 10.1 26.4 6.2 7 18.1 25.8 18.1 40.6 0 17.4-9.7 31.5-18.1 40.6-.3.3-.5.6-.7.9-5.9 6.9-9.4 15.9-9.4 25.7 0 10.2 3.9 19.4 10.1 26.4 6.2 7 18.1 25.8 18.1 40.6 0 17.3-9.7 31.5-18.1 40.6-6.3 7-10.1 16.3-10.1 26.5 0 21.9 17.7 39.7 39.6 39.8h.2c21.9-.1 39.6-17.9 39.7-39.8 0-10.2-3.9-19.4-10.1-26.5-8.3-8.9-18-23-18-40.4zM345.2 250c0-14.8 12-33.7 18.1-40.6 6.3-7 10.1-16.3 10.1-26.5 0-21.9-17.7-39.7-39.7-39.8h-.1-.1c-21.9.1-39.6 17.9-39.7 39.8 0 10.2 3.9 19.4 10.1 26.4 6.2 7 18.1 25.8 18.1 40.6 0 17.3-9.7 31.5-18.1 40.6-6.3 7-10.1 16.3-10.1 26.5 0 21.9 17.7 39.7 39.6 39.8h.2c21.9-.1 39.7-17.9 39.7-39.8 0-10.2-3.9-19.4-10.1-26.5-8.3-9-18-23.2-18-40.5zM177.7 250c0-14.8 12-33.7 18.1-40.6 6.3-7 10.1-16.3 10.1-26.5 0-21.9-17.7-39.7-39.6-39.8h-.1-.1c-21.9.1-39.6 17.9-39.7 39.8 0 10.2 3.9 19.4 10.1 26.4 6.2 7 18.1 25.8 18.1 40.6 0 17.3-9.7 31.5-18.1 40.6-6.3 7-10.1 16.3-10.1 26.5 0 21.9 17.7 39.7 39.6 39.8h.2c21.9-.1 39.7-17.9 39.7-39.8 0-10.2-3.9-19.4-10.1-26.5-8.4-9-18.1-23.2-18.1-40.5z"/></svg>
