<?xml version="1.0" encoding="utf-8"?>
<!-- Generator: Adobe Illustrator 21.1.0, SVG Export Plug-In . SVG Version: 6.00 Build 0)  -->
<svg version="1.1" id="Layer_1" xmlns="http://www.w3.org/2000/svg" xmlns:xlink="http://www.w3.org/1999/xlink" x="0px" y="0px"
	 width="1600px" height="270.1px" viewBox="0 0 1600 270.1" style="enable-background:new 0 0 1600 270.1;" xml:space="preserve">
<style type="text/css">
	.st0{fill:#1C2E3F;}
	.st1{fill:#192837;}
</style>
<g id="Layer_2">
	<g id="Layer_1_copy">
		<g id="Layer_2-2">
			<g id="Layer_1_copy-2">
				<path class="st0" d="M1600,270.1V0H0v270.1H1600z"/>
			</g>
		</g>
		<g id="Layer_2-3">
			<g id="Layer_1_copy-2-2">
				<path class="st1" d="M1136.5,266.9H1118c-1.7,0-3,1.4-3,3.1h24.6C1139.6,268.3,1138.2,266.9,1136.5,266.9L1136.5,266.9
					L1136.5,266.9z"/>
				<path class="st1" d="M1191.7,266.9h-36.8c-1.7,0-3.1,1.4-3.1,3.1l0,0h43C1194.7,268.3,1193.4,266.9,1191.7,266.9L1191.7,266.9
					L1191.7,266.9L1191.7,266.9z"/>
				<path class="st1" d="M1121.1,257.7c0-1.7-1.4-3.1-3.1-3.1h-18.4c-1.7,0-3.1,1.4-3.1,3.1s1.4,3.1,3.1,3.1h18.4
					C1119.7,260.8,1121.1,259.4,1121.1,257.7C1121.1,257.7,1121.1,257.7,1121.1,257.7L1121.1,257.7z"/>
				<path class="st1" d="M1170.2,257.7c0-1.7-1.4-3.1-3.1-3.1h-30.7c-1.7,0-3.1,1.4-3.1,3.1s1.4,3.1,3.1,3.1h30.7
					C1168.8,260.8,1170.2,259.4,1170.2,257.7z"/>
				<path class="st1" d="M1213.1,245.4c0-1.7-1.4-3.1-3.1-3.1H1161c-1.7,0-3.1,1.4-3.1,3.1c0,1.7,1.4,3.1,3.1,3.1h49.1
					C1211.8,248.5,1213.1,247.1,1213.1,245.4z"/>
				<path class="st1" d="M1145.6,245.4c0-1.7-1.4-3.1-3.1-3.1h-18.4c-1.7,0-3.1,1.4-3.1,3.1c0,1.7,1.4,3.1,3.1,3.1h18.4
					C1144.3,248.5,1145.6,247.1,1145.6,245.4z"/>
				<path class="st1" d="M1127.2,233.2c0-1.7-1.4-3.1-3.1-3.1h-12.3c-1.7,0-3.1,1.4-3.1,3.1c0,1.7,1.4,3.1,3.1,3.1h12.3
					C1125.9,236.2,1127.2,234.9,1127.2,233.2z"/>
				<path class="st1" d="M1176.3,233.2c0-1.7-1.4-3.1-3.1-3.1h-30.7c-1.7,0-3.1,1.4-3.1,3.1c0,1.7,1.4,3.1,3.1,3.1h30.7
					C1174.9,236.2,1176.3,234.9,1176.3,233.2z"/>
				<path class="st1" d="M1237.7,233.2c0-1.7-1.4-3.1-3.1-3.1h-36.8c-1.7,0-3.1,1.4-3.1,3.1c0,1.7,1.4,3.1,3.1,3.1h36.8
					C1236.3,236.3,1237.6,234.9,1237.7,233.2C1237.7,233.2,1237.7,233.2,1237.7,233.2L1237.7,233.2L1237.7,233.2z"/>
				<path class="st1" d="M1090.4,245.4c0-1.7-1.4-3.1-3.1-3.1h-6.1c-1.7,0-3.1,1.4-3.1,3.1c0,1.7,1.4,3.1,3.1,3.1h6.1
					C1089,248.5,1090.4,247.1,1090.4,245.4z"/>
				<path class="st1" d="M1099.6,266.9h-6.1c-1.7,0-3.1,1.4-3.1,3.1h12.3C1102.7,268.3,1101.3,266.9,1099.6,266.9z"/>
				<path class="st1" d="M1213.1,220.9c0-1.7-1.4-3.1-3.1-3.1c-1.7,0-3.1-1.4-3.1-3.1c0-1.7,1.4-3.1,3.1-3.1h12.3
					c1.7,0,3.1-1.4,3.1-3.1c0-1.7-1.4-3.1-3.1-3.1h-42.9c-1.7,0-3.1,1.4-3.1,3.1c0,1.7,1.4,3.1,3.1,3.1h12.3c1.7,0,3.1,1.4,3.1,3.1
					c0,1.7-1.4,3.1-3.1,3.1h-18.4c-1.7,0-3.1,1.4-3.1,3.1c0,1.7,1.4,3.1,3.1,3.1h36.8C1211.7,224,1213.1,222.6,1213.1,220.9z"/>
				<path class="st1" d="M1157.9,220.9c0-1.7-1.4-3.1-3.1-3.1h-18.4c-1.7,0-3.1,1.4-3.1,3.1c0,1.7,1.4,3.1,3.1,3.1h18.4
					C1156.5,224,1157.9,222.6,1157.9,220.9z"/>
				<path class="st1" d="M1115,220.9c0-1.7-1.4-3.1-3.1-3.1h-6.1c-1.7,0-3.1,1.4-3.1,3.1s1.4,3.1,3.1,3.1h6.1
					C1113.6,224,1115,222.6,1115,220.9L1115,220.9z"/>
				<path class="st1" d="M1164,208.6c0-1.7-1.4-3.1-3.1-3.1h-36.8c-1.7,0-3.1,1.4-3.1,3.1c0,1.7,1.4,3.1,3.1,3.1h36.9
					C1162.7,211.7,1164,210.3,1164,208.6z"/>
				<path class="st1" d="M1102.7,208.6c0-1.7-1.4-3.1-3.1-3.1h-12.3c-1.7,0-3.1,1.4-3.1,3.1c0,1.7,1.4,3.1,3.1,3.1h12.3
					C1101.3,211.7,1102.7,210.3,1102.7,208.6z"/>
				<path class="st1" d="M1249.9,196.4c0-1.7-1.4-3.1-3.1-3.1h-55.2c-1.7,0-3.1,1.4-3.1,3.1c0,1.7,1.4,3.1,3.1,3.1h55.2
					C1248.6,199.4,1249.9,198.1,1249.9,196.4z"/>
				<path class="st1" d="M1176.3,196.4c0-1.7-1.4-3.1-3.1-3.1h-24.5c-1.7,0-3.1,1.4-3.1,3.1c0,1.7,1.4,3.1,3.1,3.1h24.5
					C1174.9,199.4,1176.3,198,1176.3,196.4z"/>
				<path class="st1" d="M1127.2,196.4c0-1.7-1.4-3.1-3.1-3.1h-18.4c-1.7,0-3.1,1.4-3.1,3.1c0,1.7,1.4,3.1,3.1,3.1h18.4
					C1125.8,199.4,1127.2,198.1,1127.2,196.4z"/>
				<path class="st1" d="M1118,131.9h18.4c1.7,0,3.1,1.4,3.1,3.1l0,0c0,1.7-1.4,3.1-3.1,3.1H1118c-1.7,0-3-1.4-3-3.1l0,0
					C1115,133.3,1116.3,132,1118,131.9z"/>
				<path class="st1" d="M1194.8,135L1194.8,135c0-1.7-1.4-3.1-3.1-3.1h-36.8c-1.7,0-3.1,1.4-3.1,3.1l0,0l0,0c0,1.7,1.4,3.1,3.1,3.1
					h36.8C1193.4,138.1,1194.7,136.7,1194.8,135C1194.8,135,1194.8,135,1194.8,135L1194.8,135L1194.8,135z"/>
				<path class="st1" d="M1145.6,184.1c0-1.7-1.4-3.1-3.1-3.1h-18.4c-1.7,0-3.1,1.4-3.1,3.1c0,1.7,1.4,3.1,3.1,3.1h18.4
					C1144.3,187.1,1145.6,185.8,1145.6,184.1z"/>
				<path class="st1" d="M1090.4,184.1c0-1.7-1.4-3.1-3.1-3.1h-6.1c-1.7,0-3.1,1.4-3.1,3.1c0,1.7,1.4,3.1,3.1,3.1h6.1
					C1089,187.1,1090.4,185.8,1090.4,184.1z"/>
				<path class="st1" d="M1157.9,171.8c0-1.7-1.4-3.1-3.1-3.1h-18.4c-1.7,0-3.1,1.4-3.1,3.1c0,1.7,1.4,3.1,3.1,3.1h18.4
					C1156.5,174.9,1157.9,173.5,1157.9,171.8z"/>
				<path class="st1" d="M1115,171.8c0-1.7-1.4-3.1-3.1-3.1h-6.1c-1.7,0-3.1,1.4-3.1,3.1c0,1.7,1.4,3.1,3.1,3.1h6.1
					C1113.6,174.9,1115,173.5,1115,171.8z"/>
				<path class="st1" d="M1176.3,147.3c0-1.7-1.4-3.1-3.1-3.1h-42.9c-1.7,0-3.1,1.4-3.1,3.1c0,1.7,1.4,3.1,3.1,3.1h42.9
					C1174.9,150.3,1176.3,149,1176.3,147.3z"/>
				<path class="st1" d="M1108.8,147.3c0-1.7-1.4-3.1-3.1-3.1h-6.1c-1.7,0-3.1,1.4-3.1,3.1c0,1.7,1.4,3.1,3.1,3.1h6.1
					C1107.5,150.3,1108.8,149,1108.8,147.3z"/>
				<path class="st1" d="M1127.2,159.6c0-1.7-1.4-3.1-3.1-3.1h-12.3c-1.7,0-3.1,1.4-3.1,3.1c0,1.7,1.4,3.1,3.1,3.1h12.3
					C1125.9,162.6,1127.2,161.2,1127.2,159.6z"/>
				<path class="st1" d="M1188.6,159.6c0-1.7-1.4-3.1-3.1-3.1h-36.8c-1.7,0-3.1,1.4-3.1,3.1c0,1.7,1.4,3.1,3.1,3.1h36.8
					C1187.2,162.6,1188.6,161.2,1188.6,159.6z"/>
				<path class="st1" d="M1090.4,159.6c0-1.7-1.4-3.1-3.1-3.1h-6.1c-1.7,0-3.1,1.4-3.1,3.1c0,1.7,1.4,3.1,3.1,3.1h6.1
					C1089,162.6,1090.4,161.2,1090.4,159.6z"/>
				<path class="st1" d="M1219.3,159.6c0-1.7-1.4-3.1-3.1-3.1h-12.3c-1.7,0-3.1,1.4-3.1,3.1c0,1.7,1.4,3.1,3.1,3.1h12.3
					C1217.9,162.6,1219.3,161.2,1219.3,159.6z"/>
				<path class="st1" d="M1078.2,233.2c0-1.7-1.4-3.1-3.1-3.1h-6.1c-1.7,0-3.1,1.4-3.1,3.1c0,1.7,1.4,3.1,3.1,3.1h6.1
					C1076.8,236.2,1078.1,234.9,1078.2,233.2z"/>
				<path class="st1" d="M1069,266.9c-1.7,0-3.1,1.4-3.1,3.1h6.1C1072,268.3,1070.7,267,1069,266.9z"/>
				<circle class="st1" cx="1062.8" cy="208.6" r="3.1"/>
				<path class="st1" d="M1600,0h-393c0,1.7,1.4,3.1,3.1,3.1h12.3c1.7,0,3.1,1.4,3.1,3.1s-1.4,3.1-3.1,3.1h-30.7
					c-1.7,0-3.1,1.4-3.1,3.1s1.4,3.1,3.1,3.1h55.2c1.7,0,3.1-1.4,3.1-3.1c0-1.7-1.4-3.1-3.1-3.1h-12.3c-1.7,0-3.1-1.4-3.1-3.1
					c0-1.7,1.4-3.1,3.1-3.1h49.1c1.7,0,3.1,1.4,3.1,3.1c0,1.7-1.4,3.1-3.1,3.1h-18.4c-1.7,0-3.1,1.4-3.1,3.1c0,1.7,1.4,3.1,3.1,3.1
					h6.1c1.7,0,3.1,1.4,3.1,3.1c0,1.7-1.4,3.1-3.1,3.1h-36.8c-1.7,0-3.1,1.4-3.1,3.1c0,1.7,1.4,3.1,3.1,3.1h55.2
					c1.7-0.1,3.1,1.2,3.2,2.9c0.1,1.7-1.2,3.1-2.9,3.2h-49.4c-1.7,0-3.1,1.4-3.1,3.1l0,0c0,1.7,1.4,3.1,3.1,3.1h12.3
					c1.7,0,3.1,1.4,3.1,3.1c0,1.7-1.4,3.1-3.1,3.1h-24.6c-1.7,0-3.1,1.4-3.1,3.1c0,1.7,1.4,3.1,3.1,3.1h55.2c1.7,0,3.1,1.4,3.1,3.1
					c0,1.7-1.4,3.1-3.1,3.1h-18.4c-1.7,0-3.1,1.4-3.1,3.1c0,1.7,1.4,3.1,3.1,3.1h24.5c1.7,0,3.1,1.4,3.1,3.1c0,1.7-1.4,3.1-3.1,3.1
					h-49.1c-1.7,0-3.1,1.4-3.1,3.1c0,1.7,1.4,3.1,3.1,3.1h30.7c1.7,0,3.1,1.4,3.1,3.1c0,1.7-1.4,3.1-3.1,3.1h-43
					c-1.7,0-3.1,1.4-3.1,3.1c0,1.7,1.4,3.1,3.1,3.1h49.1c1.7,0,3.1,1.4,3.1,3.1c0,1.7-1.4,3.1-3.1,3.1H1253c-1.7,0-3.1,1.4-3.1,3.1
					c0,1.7,1.4,3.1,3.1,3.1h12.3c1.7,0,3.1,1.4,3.1,3.1c0,1.7-1.4,3.1-3.1,3.1h-36.8c-1.7,0-3.1,1.4-3.1,3.1c0,1.7,1.4,3.1,3.1,3.1
					h55.2c1.7,0,3.1,1.4,3.1,3.1c0,1.7-1.4,3.1-3.1,3.1h-24.5c-1.7,0-3.1,1.4-3.1,3.1c0,1.7,1.4,3.1,3.1,3.1h6.1
					c1.7,0,3.1,1.4,3.1,3.1c0,1.7-1.4,3.1-3.1,3.1h-30.7c-1.7,0-3.1-1.4-3.1-3.1c0-1.7,1.4-3.1,3.1-3.1h6.2c1.7,0,3.1-1.4,3.1-3.1
					c0-1.7-1.4-3.1-3.1-3.1h-49.1c-1.7,0-3.1,1.4-3.1,3.1c0,1.7,1.4,3.1,3.1,3.1h24.5c1.7,0,3.1,1.4,3.1,3.1c0,1.7-1.4,3.1-3.1,3.1
					h-6.1c-1.7,0-3.1,1.4-3.1,3.1l0,0c0,1.7,1.4,3.1,3.1,3.1h12.3c1.7,0,3.1,1.4,3.1,3.1c0,1.7-1.4,3.1-3.1,3.1h-30.7
					c-1.7,0-3.1,1.4-3.1,3.1c0,1.7,1.4,3.1,3.1,3.1h55.2c1.7,0,3.1-1.4,3.1-3.1c0-1.7-1.4-3.1-3.1-3.1h-12.3c-1.7,0-3.1-1.4-3.1-3.1
					c0-1.7,1.4-3.1,3.1-3.1h49.1c1.7,0,3.1,1.4,3.1,3.1c0,1.7-1.4,3.1-3.1,3.1h-18.4c-1.7,0-3.1,1.4-3.1,3.1c0,1.7,1.4,3.1,3.1,3.1
					h6.1c1.7,0,3.1,1.4,3.1,3.1c0,1.7-1.4,3.1-3.1,3.1h-36.8c-1.7,0-3.1,1.4-3.1,3.1c0,1.7,1.4,3.1,3.1,3.1h55.2
					c1.7-0.1,3.1,1.2,3.2,2.9c0.1,1.7-1.2,3.1-2.9,3.2h-49.4c-1.7,0-3.1,1.4-3.1,3.1l0,0c0,1.7,1.4,3.1,3.1,3.1h12.3
					c1.7,0,3.1,1.4,3.1,3.1c0,1.7-1.4,3.1-3.1,3.1h-24.6c-1.7,0-3.1,1.4-3.1,3.1c0,1.7,1.4,3.1,3.1,3.1h55.2c1.7,0,3.1,1.4,3.1,3.1
					c0,1.7-1.4,3.1-3.1,3.1h-18.4c-1.7,0-3.1,1.4-3.1,3.1c0,1.7,1.4,3.1,3.1,3.1h24.5c1.7,0,3.1,1.4,3.1,3.1c0,1.7-1.4,3.1-3.1,3.1
					h-49.1c-1.7,0-3.1,1.4-3.1,3.1c0,1.7,1.4,3.1,3.1,3.1h30.7c1.7,0,3.1,1.4,3.1,3.1c0,1.7-1.4,3.1-3.1,3.1h-43
					c-1.7,0-3.1,1.4-3.1,3.1c0,1.7,1.4,3.1,3.1,3.1h49.1c1.7,0,3.1,1.4,3.1,3.1c0,1.7-1.4,3.1-3.1,3.1H1253c-1.7,0-3.1,1.4-3.1,3.1
					c0,1.7,1.4,3.1,3.1,3.1h12.3c1.7,0,3.1,1.4,3.1,3.1c0,1.7-1.4,3.1-3.1,3.1h-36.8c-1.7,0-3.1,1.4-3.1,3.1c0,1.7,1.4,3.1,3.1,3.1
					h55.2c1.7,0,3.1,1.4,3.1,3.1c0,1.7-1.4,3.1-3.1,3.1h-24.5c-1.7,0-3.1,1.4-3.1,3.1c0,1.7,1.4,3.1,3.1,3.1h6.1
					c1.7,0,3.1,1.4,3.1,3.1s-1.4,3.1-3.1,3.1h-30.7c-1.7,0-3.1-1.4-3.1-3.1s1.4-3.1,3.1-3.1h6.2c1.7,0,3.1-1.4,3.1-3.1
					c0-1.7-1.4-3.1-3.1-3.1h-49.1c-1.7,0-3.1,1.4-3.1,3.1c0,1.7,1.4,3.1,3.1,3.1h24.5c1.7,0,3.1,1.4,3.1,3.1s-1.4,3.1-3.1,3.1h-6.1
					c-1.7,0-3.1,1.4-3.1,3.1h393L1600,0z M1299,6.1c0-1.7,1.4-3.1,3.1-3.1c1.7,0,3.1,1.4,3.1,3.1s-1.4,3.1-3.1,3.1l0,0l0,0
					C1300.4,9.2,1299,7.8,1299,6.1z M1283.7,21.5c-1.7,0-3.1-1.4-3.1-3.1c0-1.7,1.4-3.1,3.1-3.1h12.3c1.7,0,3.1,1.4,3.1,3.1
					c0,1.7-1.4,3.1-3.1,3.1H1283.7z M1302.1,33.8c-1.7,0-3.1-1.4-3.1-3.1c0-1.7,1.4-3.1,3.1-3.1h6.1c1.7,0,3.1,1.4,3.1,3.1
					c0,1.7-1.4,3.1-3.1,3.1H1302.1z M1271.4,46c-1.7,0-3.1-1.4-3.1-3.1c0-1.7,1.4-3.1,3.1-3.1h24.6c1.7,0,3.1,1.4,3.1,3.1
					c0,1.7-1.4,3.1-3.1,3.1H1271.4z M1308.2,70.6h-6.1c-1.7,0-3.1-1.4-3.1-3.1c0-1.7,1.4-3.1,3.1-3.1h12.3c1.7,0,3.1,1.4,3.1,3.1
					c0,1.7-1.4,3.1-3.1,3.1H1308.2z M1280.6,79.8c0-1.7,1.4-3.1,3.1-3.1c1.7,0,3.1,1.4,3.1,3.1s-1.4,3.1-3.1,3.1l0,0l0,0
					C1282,82.8,1280.6,81.4,1280.6,79.8C1280.6,79.8,1280.6,79.8,1280.6,79.8L1280.6,79.8z M1289.8,95.1c-1.7,0-3.1-1.4-3.1-3.1
					c0-1.7,1.4-3.1,3.1-3.1h6.1c1.7,0,3.1,1.4,3.1,3.1c0,1.7-1.4,3.1-3.1,3.1H1289.8z M1311.3,92c0-1.7,1.4-3.1,3.1-3.1
					c1.7,0,3.1,1.4,3.1,3.1s-1.4,3.1-3.1,3.1l0,0l0,0C1312.7,95.1,1311.3,93.7,1311.3,92z M1277.5,107.3c-1.7,0-3.1-1.4-3.1-3.1
					c0-1.7,1.4-3.1,3.1-3.1h12.3c1.7,0,3.1,1.4,3.1,3.1c0,1.7-1.4,3.1-3.1,3.1H1277.5z M1308.2,119.6h-6.1c-1.7,0-3.1-1.4-3.1-3.1
					c0-1.7,1.4-3.1,3.1-3.1h12.3c1.7,0,3.1,1.4,3.1,3.1c0,1.7-1.4,3.1-3.1,3.1H1308.2z M1277.5,131.9c-1.7,0-3.1-1.4-3.1-3.1
					c0-1.7,1.4-3.1,3.1-3.1h18.4c1.7,0,3.1,1.4,3.1,3.1c0,1.7-1.4,3.1-3.1,3.1H1277.5z M1299,141.1c0-1.7,1.4-3.1,3.1-3.1
					c1.7,0,3.1,1.4,3.1,3.1s-1.4,3.1-3.1,3.1l0,0l0,0C1300.4,144.2,1299,142.8,1299,141.1C1299,141.1,1299,141.1,1299,141.1
					L1299,141.1z M1283.7,156.4c-1.7,0-3.1-1.4-3.1-3.1c0-1.7,1.4-3.1,3.1-3.1h12.3c1.7,0,3.1,1.4,3.1,3.1c0,1.7-1.4,3.1-3.1,3.1
					H1283.7z M1271.4,181c-1.7,0-3.1-1.4-3.1-3.1c0-1.7,1.4-3.1,3.1-3.1h24.6c1.7,0,3.1,1.4,3.1,3.1c0,1.7-1.4,3.1-3.1,3.1H1271.4z
					 M1308.2,205.6h-6.1c-1.7,0-3.1-1.4-3.1-3.1c0-1.7,1.4-3.1,3.1-3.1h12.3c1.7,0,3.1,1.4,3.1,3.1c0,1.7-1.4,3.1-3.1,3.1H1308.2z
					 M1280.6,214.8c0-1.7,1.4-3.1,3.1-3.1c1.7,0,3.1,1.4,3.1,3.1s-1.4,3.1-3.1,3.1l0,0l0,0C1282,217.8,1280.6,216.4,1280.6,214.8
					C1280.6,214.8,1280.6,214.8,1280.6,214.8L1280.6,214.8z M1289.8,230.1c-1.7,0-3.1-1.4-3.1-3.1c0-1.7,1.4-3.1,3.1-3.1h6.1
					c1.7,0,3.1,1.4,3.1,3.1c0,1.7-1.4,3.1-3.1,3.1H1289.8z M1311.3,227c0-1.7,1.4-3.1,3.1-3.1c1.7,0,3.1,1.4,3.1,3.1
					s-1.4,3.1-3.1,3.1l0,0l0,0C1312.7,230.1,1311.3,228.7,1311.3,227z M1277.5,242.3c-1.7,0-3.1-1.4-3.1-3.1c0-1.7,1.4-3.1,3.1-3.1
					h12.3c1.7,0,3.1,1.4,3.1,3.1c0,1.7-1.4,3.1-3.1,3.1H1277.5z M1308.2,254.6h-6.1c-1.7,0-3.1-1.4-3.1-3.1c0-1.7,1.4-3.1,3.1-3.1
					h12.3c1.7,0,3.1,1.4,3.1,3.1c0,1.7-1.4,3.1-3.1,3.1H1308.2z"/>
				<path class="st1" d="M1213.1,184.1c0-1.7-1.4-3.1-3.1-3.1h-12.4c-1.7,0-3.1-1.4-3.1-3.1c0-1.7,1.4-3.1,3.1-3.1h24.5
					c1.7,0,3.1-1.4,3.1-3.1c0-1.7-1.4-3.1-3.1-3.1h-49c-1.7,0-3.1,1.4-3.1,3.1c0,1.7,1.4,3.1,3.1,3.1h12.3c1.7,0,3.1,1.4,3.1,3.1
					c0,1.7-1.4,3.1-3.1,3.1H1161c-1.7,0-3.1,1.4-3.1,3.1c0,1.7,1.4,3.1,3.1,3.1h49.1C1211.8,187.1,1213.1,185.8,1213.1,184.1z"/>
				<path class="st1" d="M1121.1,122.7c0-1.7-1.4-3.1-3.1-3.1h-18.4c-1.7,0-3.1,1.4-3.1,3.1c0,1.7,1.4,3.1,3.1,3.1h18.4
					C1119.7,125.8,1121.1,124.4,1121.1,122.7C1121.1,122.7,1121.1,122.7,1121.1,122.7L1121.1,122.7z"/>
				<path class="st1" d="M1170.2,122.7c0-1.7-1.4-3.1-3.1-3.1h-30.7c-1.7,0-3.1,1.4-3.1,3.1c0,1.7,1.4,3.1,3.1,3.1h30.7
					C1168.8,125.8,1170.2,124.4,1170.2,122.7z"/>
				<path class="st1" d="M1213.1,110.4c0-1.7-1.4-3.1-3.1-3.1H1161c-1.7,0-3.1,1.4-3.1,3.1c0,1.7,1.4,3.1,3.1,3.1h49.1
					C1211.8,113.5,1213.1,112.1,1213.1,110.4z"/>
				<path class="st1" d="M1145.6,110.4c0-1.7-1.4-3.1-3.1-3.1h-18.4c-1.7,0-3.1,1.4-3.1,3.1c0,1.7,1.4,3.1,3.1,3.1h18.4
					C1144.3,113.5,1145.6,112.1,1145.6,110.4z"/>
				<path class="st1" d="M1127.2,98.2c0-1.7-1.4-3.1-3.1-3.1h-12.3c-1.7,0-3.1,1.4-3.1,3.1c0,1.7,1.4,3.1,3.1,3.1h12.3
					C1125.9,101.2,1127.2,99.9,1127.2,98.2z"/>
				<path class="st1" d="M1176.3,98.2c0-1.7-1.4-3.1-3.1-3.1h-30.7c-1.7,0-3.1,1.4-3.1,3.1c0,1.7,1.4,3.1,3.1,3.1h30.7
					C1174.9,101.2,1176.3,99.9,1176.3,98.2z"/>
				<path class="st1" d="M1237.7,98.2c0-1.7-1.4-3.1-3.1-3.1h-36.8c-1.7,0-3.1,1.4-3.1,3.1c0,1.7,1.4,3.1,3.1,3.1h36.8
					C1236.3,101.3,1237.6,99.9,1237.7,98.2C1237.7,98.2,1237.7,98.2,1237.7,98.2L1237.7,98.2L1237.7,98.2z"/>
				<path class="st1" d="M1090.4,110.4c0-1.7-1.4-3.1-3.1-3.1h-6.1c-1.7,0-3.1,1.4-3.1,3.1c0,1.7,1.4,3.1,3.1,3.1h6.1
					C1089,113.5,1090.4,112.1,1090.4,110.4z"/>
				<path class="st1" d="M1102.7,135L1102.7,135c0-1.7-1.4-3.1-3.1-3.1h-6.1c-1.7,0-3.1,1.4-3.1,3.1l0,0c0,1.7,1.4,3.1,3.1,3.1h6.1
					C1101.3,138.1,1102.7,136.7,1102.7,135z"/>
				<path class="st1" d="M1213.1,85.9c0-1.7-1.4-3.1-3.1-3.1c-1.7,0-3.1-1.4-3.1-3.1c0-1.7,1.4-3.1,3.1-3.1h12.3
					c1.7,0,3.1-1.4,3.1-3.1c0-1.7-1.4-3.1-3.1-3.1h-42.9c-1.7,0-3.1,1.4-3.1,3.1c0,1.7,1.4,3.1,3.1,3.1h12.3c1.7,0,3.1,1.4,3.1,3.1
					c0,1.7-1.4,3.1-3.1,3.1h-18.4c-1.7,0-3.1,1.4-3.1,3.1c0,1.7,1.4,3.1,3.1,3.1h36.8C1211.7,89,1213.1,87.6,1213.1,85.9z"/>
				<path class="st1" d="M1157.9,85.9c0-1.7-1.4-3.1-3.1-3.1h-18.4c-1.7,0-3.1,1.4-3.1,3.1c0,1.7,1.4,3.1,3.1,3.1h18.4
					C1156.5,89,1157.9,87.6,1157.9,85.9z"/>
				<path class="st1" d="M1115,85.9c0-1.7-1.4-3.1-3.1-3.1h-6.1c-1.7,0-3.1,1.4-3.1,3.1c0,1.7,1.4,3.1,3.1,3.1h6.1
					C1113.6,89,1115,87.6,1115,85.9L1115,85.9z"/>
				<path class="st1" d="M1164,73.6c0-1.7-1.4-3.1-3.1-3.1h-36.8c-1.7,0-3.1,1.4-3.1,3.1c0,1.7,1.4,3.1,3.1,3.1h36.9
					C1162.7,76.7,1164,75.3,1164,73.6z"/>
				<path class="st1" d="M1102.7,73.6c0-1.7-1.4-3.1-3.1-3.1h-12.3c-1.7,0-3.1,1.4-3.1,3.1c0,1.7,1.4,3.1,3.1,3.1h12.3
					C1101.3,76.7,1102.7,75.3,1102.7,73.6z"/>
				<path class="st1" d="M1249.9,61.4c0-1.7-1.4-3.1-3.1-3.1h-55.2c-1.7,0-3.1,1.4-3.1,3.1c0,1.7,1.4,3.1,3.1,3.1h55.2
					C1248.6,64.4,1249.9,63.1,1249.9,61.4z"/>
				<path class="st1" d="M1176.3,61.4c0-1.7-1.4-3.1-3.1-3.1h-24.5c-1.7,0-3.1,1.4-3.1,3.1c0,1.7,1.4,3.1,3.1,3.1h24.5
					C1174.9,64.4,1176.3,63,1176.3,61.4z"/>
				<path class="st1" d="M1127.2,61.4c0-1.7-1.4-3.1-3.1-3.1h-18.4c-1.7,0-3.1,1.4-3.1,3.1c0,1.7,1.4,3.1,3.1,3.1h18.4
					C1125.8,64.4,1127.2,63.1,1127.2,61.4z"/>
				<path class="st1" d="M1118,3.1h18.4c1.7,0,3.1-1.4,3.1-3.1c0,0,0,0,0,0H1115C1115,1.7,1116.3,3,1118,3.1z"/>
				<path class="st1" d="M1154.8,3.1h36.8c1.7,0,3.1-1.4,3.1-3.1c0,0,0,0,0,0h-43C1151.8,1.7,1153.1,3.1,1154.8,3.1L1154.8,3.1z"/>
				<path class="st1" d="M1145.6,49.1c0-1.7-1.4-3.1-3.1-3.1h-18.4c-1.7,0-3.1,1.4-3.1,3.1c0,1.7,1.4,3.1,3.1,3.1h18.4
					C1144.3,52.1,1145.6,50.8,1145.6,49.1z"/>
				<path class="st1" d="M1090.4,49.1c0-1.7-1.4-3.1-3.1-3.1h-6.1c-1.7,0-3.1,1.4-3.1,3.1c0,1.7,1.4,3.1,3.1,3.1h6.1
					C1089,52.1,1090.4,50.8,1090.4,49.1z"/>
				<path class="st1" d="M1093.5,3.1h6.1c1.7,0,3.1-1.4,3.1-3.1h-12.3C1090.4,1.7,1091.8,3.1,1093.5,3.1z"/>
				<path class="st1" d="M1157.9,36.8c0-1.7-1.4-3.1-3.1-3.1h-18.4c-1.7,0-3.1,1.4-3.1,3.1c0,1.7,1.4,3.1,3.1,3.1h18.4
					C1156.5,39.9,1157.9,38.5,1157.9,36.8z"/>
				<path class="st1" d="M1115,36.8c0-1.7-1.4-3.1-3.1-3.1h-6.1c-1.7,0-3.1,1.4-3.1,3.1c0,1.7,1.4,3.1,3.1,3.1h6.1
					C1113.6,39.9,1115,38.5,1115,36.8z"/>
				<path class="st1" d="M1176.3,12.3c0-1.7-1.4-3.1-3.1-3.1h-42.9c-1.7,0-3.1,1.4-3.1,3.1c0,1.7,1.4,3.1,3.1,3.1h42.9
					C1174.9,15.3,1176.3,14,1176.3,12.3z"/>
				<path class="st1" d="M1108.8,12.3c0-1.7-1.4-3.1-3.1-3.1h-6.1c-1.7,0-3.1,1.4-3.1,3.1c0,1.7,1.4,3.1,3.1,3.1h6.1
					C1107.5,15.3,1108.8,14,1108.8,12.3z"/>
				<path class="st1" d="M1127.2,24.5c0-1.7-1.4-3.1-3.1-3.1h-12.3c-1.7,0-3.1,1.4-3.1,3.1c0,1.7,1.4,3.1,3.1,3.1h12.3
					C1125.9,27.6,1127.2,26.2,1127.2,24.5z"/>
				<path class="st1" d="M1188.6,24.5c0-1.7-1.4-3.1-3.1-3.1h-36.8c-1.7,0-3.1,1.4-3.1,3.1c0,1.7,1.4,3.1,3.1,3.1h36.8
					C1187.2,27.6,1188.6,26.2,1188.6,24.5z"/>
				<path class="st1" d="M1090.4,24.5c0-1.7-1.4-3.1-3.1-3.1h-6.1c-1.7,0-3.1,1.4-3.1,3.1c0,1.7,1.4,3.1,3.1,3.1h6.1
					C1089,27.6,1090.4,26.2,1090.4,24.5z"/>
				<path class="st1" d="M1219.3,24.5c0-1.7-1.4-3.1-3.1-3.1h-12.3c-1.7,0-3.1,1.4-3.1,3.1c0,1.7,1.4,3.1,3.1,3.1h12.3
					C1217.9,27.6,1219.3,26.2,1219.3,24.5z"/>
				<path class="st1" d="M1078.2,98.2c0-1.7-1.4-3.1-3.1-3.1h-6.1c-1.7,0-3.1,1.4-3.1,3.1c0,1.7,1.4,3.1,3.1,3.1h6.1
					C1076.8,101.2,1078.1,99.9,1078.2,98.2z"/>
				<path class="st1" d="M1069,3.1c1.7,0,3-1.4,3-3.1h-6.1C1065.9,1.7,1067.3,3.1,1069,3.1C1069,3.1,1069,3.1,1069,3.1z"/>
				<path class="st1" d="M1072,135L1072,135c0.1-1.7-1.2-3.1-2.9-3.2c-1.7-0.1-3.1,1.2-3.2,2.9c0,0.1,0,0.2,0,0.4l0,0
					c-0.1,1.7,1.2,3.1,2.9,3.2c1.7,0.1,3.1-1.2,3.2-2.9C1072,135.2,1072,135.1,1072,135z"/>
				<circle class="st1" cx="1062.8" cy="73.6" r="3.1"/>
				<path class="st1" d="M1213.1,49.1c0-1.7-1.4-3.1-3.1-3.1h-12.3c-1.7,0-3.1-1.4-3.1-3.1c0-1.7,1.4-3.1,3.1-3.1h24.5
					c1.7,0,3.1-1.4,3.1-3.1c0-1.7-1.4-3.1-3.1-3.1h-49c-1.7,0-3.1,1.4-3.1,3.1c0,1.7,1.4,3.1,3.1,3.1h12.3c1.7,0,3.1,1.4,3.1,3.1
					c0,1.7-1.4,3.1-3.1,3.1H1161c-1.7,0-3.1,1.4-3.1,3.1c0,1.7,1.4,3.1,3.1,3.1h49.1C1211.8,52.1,1213.1,50.8,1213.1,49.1z"/>
			</g>
		</g>
	</g>
</g>
</svg>
