<svg xmlns="http://www.w3.org/2000/svg" xmlns:xlink="http://www.w3.org/1999/xlink" viewBox="0 0 1600 280.44"><defs><style>.cls-1{fill:none;}.cls-2,.cls-3,.cls-4{fill:#ff6800;}.cls-3{opacity:0.3;}.cls-3,.cls-4{isolation:isolate;}.cls-4{opacity:0.5;}.cls-5{fill:#1c2e3f;}.cls-6{clip-path:url(#clip-path);}.cls-7{fill:#192837;}</style><clipPath id="clip-path"><path class="cls-1" d="M1600,37.52c-109.28-19.25-186.9-23.14-273.45-25.08C966.66,4.36,576.84,47.61,242.61,47.61,175.78,47.61,74.16,42.38,0,38.29V280.44H1600Z"/></clipPath></defs><title>Asset 1</title><g id="Layer_2" data-name="Layer 2"><g id="Layer_1-2" data-name="Layer 1"><path class="cls-2" d="M1600,33.29C1515.34,17.88,1451.81,8.66,1326.55,5.4,1095.06-.6,550.28,44.74,266.67,44.74,126.28,44.74,75.06,38.38,0,32.49V49.88H1600Z"/><path class="cls-3" d="M1600,11.43C1572.55,4.85,1537-.32,1482.31,0,1338.71.93,1209,37.84,1103.4,37.84c-52.29,0-71.37-6.37-99.32-12.25V43H1600Z"/><path class="cls-4" d="M0,38.29c63-31.8,172.9-22,229-16.41C426.06,41.49,600.38,44.74,884,44.74c140.39,0,640.94-6.37,716-12.25V49.88H0Z"/><path class="cls-3" d="M123,50.66C260,38.82,376.11-8.78,500.64,11.44,565,21.88,586.07,37.65,619.47,40.63c66.45,5.91,234.27-2.25,264.61-8.14V49.88H410.8Z"/><path class="cls-5" d="M1600,37.52c-109.28-19.25-186.9-23.14-273.45-25.08C966.66,4.36,576.84,47.61,242.61,47.61,175.78,47.61,74.16,42.38,0,38.29V280.44H1600Z"/><g class="cls-6"><g id="Layer_2-2" data-name="Layer 2"><g id="Layer_1_copy" data-name="Layer 1 copy"><path class="cls-7" d="M1136.49,277.24H1118a3.08,3.08,0,0,0-3.07,3.07h24.6A3.08,3.08,0,0,0,1136.49,277.24Z"/><path class="cls-7" d="M1191.65,277.24h-36.81a3.08,3.08,0,0,0-3.09,3.07h43a3.08,3.08,0,0,0-3.09-3.07Z"/><path class="cls-7" d="M1121.1,268A3.08,3.08,0,0,0,1118,265h-18.4a3.07,3.07,0,0,0,0,6.14H1118A3.08,3.08,0,0,0,1121.1,268Z"/><path class="cls-7" d="M1170.18,268a3.08,3.08,0,0,0-3.07-3.07h-30.67a3.07,3.07,0,0,0,0,6.14h30.67A3.08,3.08,0,0,0,1170.18,268Z"/><path class="cls-7" d="M1213.12,255.76a3.08,3.08,0,0,0-3.07-3.07H1161a3.07,3.07,0,0,0,0,6.14h49.08A3.08,3.08,0,0,0,1213.12,255.76Z"/><path class="cls-7" d="M1145.64,255.76a3.08,3.08,0,0,0-3.07-3.07h-18.4a3.07,3.07,0,0,0,0,6.14h18.4A3.08,3.08,0,0,0,1145.64,255.76Z"/><path class="cls-7" d="M1127.23,243.49a3.08,3.08,0,0,0-3.07-3.07H1111.9a3.07,3.07,0,0,0,0,6.14h12.27A3.08,3.08,0,0,0,1127.23,243.49Z"/><path class="cls-7" d="M1176.31,243.49a3.08,3.08,0,0,0-3.07-3.07h-30.67a3.07,3.07,0,0,0,0,6.14h30.68A3.08,3.08,0,0,0,1176.31,243.49Z"/><path class="cls-7" d="M1237.66,243.49a3.08,3.08,0,0,0-3.07-3.07h-36.84a3.07,3.07,0,0,0,0,6.14h36.81a3.08,3.08,0,0,0,3.1-3.06Z"/><path class="cls-7" d="M1090.42,255.76a3.08,3.08,0,0,0-3.07-3.07h-6.13a3.07,3.07,0,0,0,0,6.14h6.13A3.08,3.08,0,0,0,1090.42,255.76Z"/><path class="cls-7" d="M1099.63,277.24h-6.14a3.08,3.08,0,0,0-3.07,3.07h12.27A3.08,3.08,0,0,0,1099.63,277.24Z"/><path class="cls-7" d="M1213.12,231.22a3.08,3.08,0,0,0-3.07-3.07,3.07,3.07,0,0,1,0-6.14h12.27a3.07,3.07,0,0,0,0-6.14h-42.94a3.07,3.07,0,0,0,0,6.14h12.27a3.07,3.07,0,0,1,0,6.14h-18.4a3.07,3.07,0,0,0,0,6.14h36.81A3.08,3.08,0,0,0,1213.12,231.22Z"/><path class="cls-7" d="M1157.91,231.22a3.08,3.08,0,0,0-3.07-3.07h-18.4a3.07,3.07,0,0,0,0,6.14h18.4A3.08,3.08,0,0,0,1157.91,231.22Z"/><path class="cls-7" d="M1115,231.22a3.08,3.08,0,0,0-3.07-3.07h-6.14a3.08,3.08,0,1,0,0,6.16h6.13a3.08,3.08,0,0,0,3.08-3.08Z"/><path class="cls-7" d="M1164,219a3.08,3.08,0,0,0-3.07-3.07h-36.8a3.07,3.07,0,0,0,0,6.14H1161A3.08,3.08,0,0,0,1164,219Z"/><path class="cls-7" d="M1102.69,219a3.08,3.08,0,0,0-3.07-3.07h-12.26a3.07,3.07,0,0,0,0,6.14h12.27A3.08,3.08,0,0,0,1102.69,219Z"/><path class="cls-7" d="M1249.93,206.67a3.08,3.08,0,0,0-3.07-3.07h-55.21a3.07,3.07,0,0,0,0,6.14h55.21A3.08,3.08,0,0,0,1249.93,206.67Z"/><path class="cls-7" d="M1176.31,206.67a3.08,3.08,0,0,0-3.07-3.07h-24.49a3.07,3.07,0,0,0,0,6.14h24.5A3.08,3.08,0,0,0,1176.31,206.67Z"/><path class="cls-7" d="M1127.23,206.67a3.08,3.08,0,0,0-3.07-3.07h-18.41a3.07,3.07,0,0,0,0,6.14h18.4A3.08,3.08,0,0,0,1127.23,206.67Z"/><path class="cls-7" d="M1118,142.24h18.4a3.07,3.07,0,0,1,3.07,3.07h0a3.07,3.07,0,0,1-3.07,3.07H1118a3.07,3.07,0,0,1-3.07-3.07h0A3.07,3.07,0,0,1,1118,142.24Z"/><path class="cls-7" d="M1194.75,145.31h0a3.08,3.08,0,0,0-3.07-3.07h-36.84a3.08,3.08,0,0,0-3.09,3.07h0a3.08,3.08,0,0,0,3.07,3.07h36.83a3.08,3.08,0,0,0,3.1-3.06Z"/><path class="cls-7" d="M1145.64,194.4a3.08,3.08,0,0,0-3.07-3.09h-18.4a3.07,3.07,0,0,0,0,6.14h18.4A3.08,3.08,0,0,0,1145.64,194.4Z"/><path class="cls-7" d="M1090.42,194.4a3.08,3.08,0,0,0-3.06-3.09h-6.14a3.07,3.07,0,0,0,0,6.14h6.13A3.08,3.08,0,0,0,1090.42,194.4Z"/><path class="cls-7" d="M1157.91,182.13a3.08,3.08,0,0,0-3.07-3.07h-18.4a3.07,3.07,0,0,0,0,6.14h18.4A3.08,3.08,0,0,0,1157.91,182.13Z"/><path class="cls-7" d="M1115,182.13a3.08,3.08,0,0,0-3.07-3.07h-6.14a3.07,3.07,0,0,0,0,6.14h6.13A3.08,3.08,0,0,0,1115,182.13Z"/><path class="cls-7" d="M1176.31,157.58a3.08,3.08,0,0,0-3.07-3.07H1130.3a3.07,3.07,0,0,0,0,6.14h42.95A3.08,3.08,0,0,0,1176.31,157.58Z"/><path class="cls-7" d="M1108.83,157.58a3.08,3.08,0,0,0-3.08-3.06h-6.12a3.07,3.07,0,0,0,0,6.14h6.12a3.08,3.08,0,0,0,3.08-3.08Z"/><path class="cls-7" d="M1127.23,169.86a3.08,3.08,0,0,0-3.07-3.07H1111.9a3.07,3.07,0,0,0,0,6.14h12.27A3.08,3.08,0,0,0,1127.23,169.86Z"/><path class="cls-7" d="M1188.58,169.86a3.08,3.08,0,0,0-3.07-3.07h-36.76a3.07,3.07,0,0,0,0,6.14h36.81A3.08,3.08,0,0,0,1188.58,169.86Z"/><path class="cls-7" d="M1090.42,169.86a3.08,3.08,0,0,0-3.07-3.07h-6.13a3.07,3.07,0,0,0,0,6.14h6.13A3.08,3.08,0,0,0,1090.42,169.86Z"/><path class="cls-7" d="M1219.26,169.86a3.08,3.08,0,0,0-3.07-3.07h-12.27a3.07,3.07,0,0,0,0,6.14h12.27A3.08,3.08,0,0,0,1219.26,169.86Z"/><path class="cls-7" d="M1078.15,243.49a3.08,3.08,0,0,0-3.07-3.07H1069a3.07,3.07,0,0,0,0,6.14h6.13A3.08,3.08,0,0,0,1078.15,243.49Z"/><path class="cls-7" d="M1069,277.24a3.08,3.08,0,0,0-3.06,3.07H1072A3.08,3.08,0,0,0,1069,277.24Z"/><circle class="cls-7" cx="1062.82" cy="218.95" r="3.07"/><path class="cls-7" d="M1600,10.31H1207a3.08,3.08,0,0,0,3.07,3.07h12.27a3.07,3.07,0,1,1,0,6.14h-30.69a3.07,3.07,0,1,0,0,6.14h55.21a3.07,3.07,0,0,0,0-6.14H1234.6a3.07,3.07,0,0,1,0-6.14h49.08a3.07,3.07,0,0,1,0,6.14h-18.4a3.07,3.07,0,0,0,0,6.14h6.13a3.07,3.07,0,0,1,0,6.14H1234.6a3.07,3.07,0,0,0,0,6.14h55.21a3.07,3.07,0,0,1,.35,6.13h-49.41a3.08,3.08,0,0,0-3.07,3.07h0a3.08,3.08,0,0,0,3.07,3.06H1253a3.07,3.07,0,0,1,0,6.14h-24.56a3.07,3.07,0,0,0,0,6.14h55.21a3.07,3.07,0,0,1,0,6.14h-18.4a3.07,3.07,0,0,0,0,6.14h24.54a3.07,3.07,0,0,1,0,6.14h-49.06a3.07,3.07,0,0,0,0,6.14h30.67a3.07,3.07,0,0,1,0,6.14h-43a3.07,3.07,0,0,0,0,6.14h49.08a3.07,3.07,0,0,1,0,6.14H1253a3.07,3.07,0,0,0,0,6.14h12.27a3.07,3.07,0,0,1,0,6.14h-36.81a3.07,3.07,0,0,0,0,6.14h55.21a3.07,3.07,0,0,1,0,6.14h-24.53a3.07,3.07,0,0,0,0,6.14h6.13a3.07,3.07,0,0,1,0,6.14H1234.6a3.07,3.07,0,0,1,0-6.14h6.15a3.07,3.07,0,0,0,0-6.14h-49.1a3.07,3.07,0,0,0,0,6.14h24.54a3.07,3.07,0,0,1,0,6.14h-6.13a3.08,3.08,0,0,0-3.07,3.07h0a3.08,3.08,0,0,0,3.07,3.07h12.27a3.07,3.07,0,0,1,0,6.14h-30.68a3.07,3.07,0,0,0,0,6.14h55.21a3.07,3.07,0,0,0,0-6.14H1234.6a3.07,3.07,0,0,1,0-6.14h49.08a3.07,3.07,0,0,1,0,6.14h-18.4a3.07,3.07,0,0,0,0,6.14h6.13a3.07,3.07,0,0,1,0,6.14H1234.6a3.07,3.07,0,0,0,0,6.14h55.21a3.07,3.07,0,0,1,.35,6.13h-49.41a3.08,3.08,0,0,0-3.07,3.07h0a3.08,3.08,0,0,0,3.07,3.07H1253a3.07,3.07,0,0,1,0,6.14h-24.56a3.07,3.07,0,0,0,0,6.14h55.21a3.07,3.07,0,0,1,0,6.14h-18.4a3.07,3.07,0,0,0,0,6.14h24.54a3.07,3.07,0,0,1,0,6.14h-49.06a3.07,3.07,0,0,0,0,6.14h30.67a3.07,3.07,0,0,1,0,6.14h-43a3.07,3.07,0,0,0,0,6.14h49.08a3.07,3.07,0,0,1,0,6.14H1253a3.07,3.07,0,0,0,0,6.14h12.27a3.07,3.07,0,0,1,0,6.14h-36.81a3.07,3.07,0,0,0,0,6.14h55.21a3.07,3.07,0,0,1,0,6.14h-24.53a3.07,3.07,0,0,0,0,6.14h6.13a3.07,3.07,0,1,1,0,6.14H1234.6a3.07,3.07,0,0,1,0-6.14h6.15a3.07,3.07,0,0,0,0-6.14h-49.1a3.07,3.07,0,0,0,0,6.14h24.54a3.07,3.07,0,1,1,0,6.14h-6.13a3.08,3.08,0,0,0-3.07,3.07h393Zm-301,6.14a3.07,3.07,0,1,1,3.07,3.07,3.07,3.07,0,0,1-3.07-3.07Zm-15.32,15.34a3.07,3.07,0,0,1,0-6.14h12.27a3.07,3.07,0,0,1,0,6.14Zm18.4,12.27a3.07,3.07,0,0,1,0-6.14h6.13a3.07,3.07,0,0,1,0,6.14Zm-30.67,12.25a3.07,3.07,0,0,1,0-6.14h24.54a3.07,3.07,0,0,1,0,6.14Zm36.81,24.55h-6.13a3.07,3.07,0,0,1,0-6.14h12.26a3.07,3.07,0,0,1,0,6.14Zm-27.61,9.2a3.07,3.07,0,1,1,3.07,3.07,3.07,3.07,0,0,1-3.07-3.07Zm9.2,15.34a3.07,3.07,0,0,1,0-6.14h6.13a3.07,3.07,0,0,1,0,6.14Zm21.47-3.09a3.07,3.07,0,1,1,3.07,3.07A3.07,3.07,0,0,1,1311.28,102.31Zm-33.74,15.34a3.07,3.07,0,0,1,0-6.14h12.27a3.07,3.07,0,0,1,0,6.14Zm30.67,12.27h-6.13a3.07,3.07,0,0,1,0-6.14h12.27a3.07,3.07,0,0,1,0,6.14Zm-30.67,12.27a3.07,3.07,0,0,1,0-6.14h18.4a3.07,3.07,0,0,1,0,6.14ZM1299,151.4a3.07,3.07,0,1,1,3.07,3.07,3.07,3.07,0,0,1-3.07-3.07Zm-15.34,15.34a3.07,3.07,0,0,1,0-6.14h12.28a3.07,3.07,0,0,1,0,6.14Zm-12.26,24.57a3.07,3.07,0,0,1,0-6.14h24.54a3.07,3.07,0,0,1,0,6.14Zm36.81,24.55h-6.13a3.07,3.07,0,0,1,0-6.14h12.26a3.07,3.07,0,0,1,0,6.14Zm-27.61,9.2a3.07,3.07,0,1,1,3.07,3.07,3.07,3.07,0,0,1-3.07-3.07Zm9.2,15.34a3.07,3.07,0,0,1,0-6.14h6.13a3.07,3.07,0,0,1,0,6.14Zm21.47-3.09a3.07,3.07,0,1,1,3.07,3.07A3.07,3.07,0,0,1,1311.28,237.31Zm-33.74,15.34a3.07,3.07,0,0,1,0-6.14h12.27a3.07,3.07,0,0,1,0,6.14Zm30.67,12.27h-6.13a3.07,3.07,0,0,1,0-6.14h12.27a3.07,3.07,0,0,1,0,6.14Z"/><path class="cls-7" d="M1213.12,194.4a3.08,3.08,0,0,0-3.07-3.07h-12.3a3.07,3.07,0,0,1,0-6.14h24.54a3.07,3.07,0,0,0,0-6.14h-49a3.07,3.07,0,0,0,0,6.14h12.27a3.07,3.07,0,0,1,0,6.14H1161a3.07,3.07,0,0,0,0,6.14h49.08A3.08,3.08,0,0,0,1213.12,194.4Z"/><path class="cls-7" d="M1121.1,133A3.08,3.08,0,0,0,1118,130h-18.4a3.07,3.07,0,0,0,0,6.14H1118A3.08,3.08,0,0,0,1121.1,133Z"/><path class="cls-7" d="M1170.18,133a3.08,3.08,0,0,0-3.07-3.07h-30.67a3.07,3.07,0,0,0,0,6.14h30.67A3.08,3.08,0,0,0,1170.18,133Z"/><path class="cls-7" d="M1213.12,120.76a3.08,3.08,0,0,0-3.07-3.07H1161a3.07,3.07,0,0,0,0,6.14h49.08A3.08,3.08,0,0,0,1213.12,120.76Z"/><path class="cls-7" d="M1145.64,120.76a3.08,3.08,0,0,0-3.07-3.07h-18.4a3.07,3.07,0,0,0,0,6.14h18.4A3.08,3.08,0,0,0,1145.64,120.76Z"/><path class="cls-7" d="M1127.23,108.49a3.08,3.08,0,0,0-3.07-3.07H1111.9a3.07,3.07,0,0,0,0,6.14h12.27A3.08,3.08,0,0,0,1127.23,108.49Z"/><path class="cls-7" d="M1176.31,108.49a3.08,3.08,0,0,0-3.07-3.07h-30.67a3.07,3.07,0,0,0,0,6.14h30.68A3.08,3.08,0,0,0,1176.31,108.49Z"/><path class="cls-7" d="M1237.66,108.49a3.08,3.08,0,0,0-3.07-3.07h-36.84a3.07,3.07,0,0,0,0,6.14h36.81a3.08,3.08,0,0,0,3.1-3.06Z"/><path class="cls-7" d="M1090.42,120.76a3.08,3.08,0,0,0-3.07-3.07h-6.13a3.07,3.07,0,0,0,0,6.14h6.13A3.08,3.08,0,0,0,1090.42,120.76Z"/><path class="cls-7" d="M1102.69,145.31h0a3.08,3.08,0,0,0-3.07-3.07h-6.13a3.08,3.08,0,0,0-3.07,3.07h0a3.08,3.08,0,0,0,3.07,3.07h6.13A3.08,3.08,0,0,0,1102.69,145.31Z"/><path class="cls-7" d="M1213.12,96.22a3.08,3.08,0,0,0-3.07-3.07,3.07,3.07,0,0,1,0-6.14h12.27a3.07,3.07,0,0,0,0-6.14h-42.94a3.07,3.07,0,0,0,0,6.14h12.27a3.07,3.07,0,0,1,0,6.14h-18.4a3.07,3.07,0,0,0,0,6.14h36.81A3.08,3.08,0,0,0,1213.12,96.22Z"/><path class="cls-7" d="M1157.91,96.22a3.08,3.08,0,0,0-3.07-3.07h-18.4a3.07,3.07,0,0,0,0,6.14h18.4A3.08,3.08,0,0,0,1157.91,96.22Z"/><path class="cls-7" d="M1115,96.22a3.08,3.08,0,0,0-3.07-3.07h-6.14a3.08,3.08,0,0,0,0,6.16h6.13a3.08,3.08,0,0,0,3.08-3.08Z"/><path class="cls-7" d="M1164,84a3.08,3.08,0,0,0-3.07-3.07h-36.8a3.07,3.07,0,0,0,0,6.14H1161A3.08,3.08,0,0,0,1164,84Z"/><path class="cls-7" d="M1102.69,84a3.08,3.08,0,0,0-3.07-3.07h-12.26a3.07,3.07,0,0,0,0,6.14h12.27A3.08,3.08,0,0,0,1102.69,84Z"/><path class="cls-7" d="M1249.93,71.67a3.08,3.08,0,0,0-3.07-3.07h-55.21a3.07,3.07,0,0,0,0,6.14h55.21A3.08,3.08,0,0,0,1249.93,71.67Z"/><path class="cls-7" d="M1176.31,71.67a3.08,3.08,0,0,0-3.07-3.07h-24.49a3.07,3.07,0,0,0,0,6.14h24.5A3.08,3.08,0,0,0,1176.31,71.67Z"/><path class="cls-7" d="M1127.23,71.67a3.08,3.08,0,0,0-3.07-3.07h-18.41a3.07,3.07,0,0,0,0,6.14h18.4A3.08,3.08,0,0,0,1127.23,71.67Z"/><path class="cls-7" d="M1118,13.38h18.4a3.08,3.08,0,0,0,3.07-3.07H1115A3.08,3.08,0,0,0,1118,13.38Z"/><path class="cls-7" d="M1154.84,13.38h36.81a3.08,3.08,0,0,0,3.1-3.06h-43a3.08,3.08,0,0,0,3.09,3.07Z"/><path class="cls-7" d="M1145.64,59.4a3.08,3.08,0,0,0-3.07-3.09h-18.4a3.07,3.07,0,0,0,0,6.14h18.4A3.08,3.08,0,0,0,1145.64,59.4Z"/><path class="cls-7" d="M1090.42,59.4a3.08,3.08,0,0,0-3.06-3.09h-6.14a3.07,3.07,0,0,0,0,6.14h6.13A3.08,3.08,0,0,0,1090.42,59.4Z"/><path class="cls-7" d="M1093.49,13.38h6.13a3.08,3.08,0,0,0,3.07-3.07h-12.27A3.08,3.08,0,0,0,1093.49,13.38Z"/><path class="cls-7" d="M1157.91,47.13a3.08,3.08,0,0,0-3.07-3.07h-18.4a3.07,3.07,0,0,0,0,6.14h18.4A3.08,3.08,0,0,0,1157.91,47.13Z"/><path class="cls-7" d="M1115,47.13a3.08,3.08,0,0,0-3.07-3.07h-6.14a3.07,3.07,0,0,0,0,6.14h6.13A3.08,3.08,0,0,0,1115,47.13Z"/><path class="cls-7" d="M1176.31,22.58a3.08,3.08,0,0,0-3.07-3.07H1130.3a3.07,3.07,0,0,0,0,6.14h42.95A3.08,3.08,0,0,0,1176.31,22.58Z"/><path class="cls-7" d="M1108.83,22.58a3.08,3.08,0,0,0-3.08-3.06h-6.12a3.07,3.07,0,0,0,0,6.14h6.12a3.08,3.08,0,0,0,3.08-3.08Z"/><path class="cls-7" d="M1127.23,34.86a3.08,3.08,0,0,0-3.07-3.07H1111.9a3.07,3.07,0,0,0,0,6.14h12.27A3.08,3.08,0,0,0,1127.23,34.86Z"/><path class="cls-7" d="M1188.58,34.86a3.08,3.08,0,0,0-3.07-3.07h-36.76a3.07,3.07,0,0,0,0,6.14h36.81A3.08,3.08,0,0,0,1188.58,34.86Z"/><path class="cls-7" d="M1090.42,34.86a3.08,3.08,0,0,0-3.07-3.07h-6.13a3.07,3.07,0,0,0,0,6.14h6.13A3.08,3.08,0,0,0,1090.42,34.86Z"/><path class="cls-7" d="M1219.26,34.86a3.08,3.08,0,0,0-3.07-3.07h-12.27a3.07,3.07,0,0,0,0,6.14h12.27A3.08,3.08,0,0,0,1219.26,34.86Z"/><path class="cls-7" d="M1078.15,108.49a3.08,3.08,0,0,0-3.07-3.07H1069a3.07,3.07,0,0,0,0,6.14h6.13A3.08,3.08,0,0,0,1078.15,108.49Z"/><path class="cls-7" d="M1069,13.38a3.08,3.08,0,0,0,3.07-3.07h-6.13A3.08,3.08,0,0,0,1069,13.38Z"/><path class="cls-7" d="M1072,145.31h0a3.07,3.07,0,1,0-6.13,0h0a3.07,3.07,0,1,0,6.13,0Z"/><circle class="cls-7" cx="1062.82" cy="83.95" r="3.07"/><path class="cls-7" d="M1213.12,59.4a3.08,3.08,0,0,0-3.06-3.09h-12.31a3.07,3.07,0,0,1,0-6.14h24.54a3.07,3.07,0,0,0,0-6.14h-49a3.07,3.07,0,0,0,0,6.14h12.27a3.07,3.07,0,0,1,0,6.14H1161a3.07,3.07,0,0,0,0,6.14h49.08A3.08,3.08,0,0,0,1213.12,59.4Z"/></g></g></g></g></g></svg>