<svg xmlns="http://www.w3.org/2000/svg" xmlns:xlink="http://www.w3.org/1999/xlink" id="Layer_1" x="0px" y="0px" viewBox="0 0 80 113" style="enable-background:new 0 0 80 113;" xml:space="preserve"> <style type="text/css"> .st0{fill:#F3F3F3;} </style> <g> <path class="st0" d="M43.7,78.2c0-4.8,3.9-10.9,5.9-13.2c2-2.3,3.3-5.3,3.3-8.6c0-3.1-1.1-6-2.9-8.2c-0.1-0.1-0.2-0.3-0.4-0.4 c-2.7-3-5.9-7.5-5.9-13.2c0-4.8,3.9-10.9,5.9-13.2c2-2.3,3.3-5.3,3.3-8.6c0-7.1-5.7-12.9-12.8-12.9l0,0c0,0,0,0,0,0c0,0,0,0,0,0 l0,0c-7.1,0-12.8,5.8-12.8,12.9c0,3.3,1.2,6.3,3.3,8.6c2,2.3,5.9,8.4,5.9,13.2c0,5.6-3.1,10.2-5.9,13.2c-0.1,0.1-0.2,0.2-0.2,0.3 c-1.9,2.2-3.1,5.1-3.1,8.3c0,3.3,1.2,6.3,3.3,8.6c2,2.3,5.9,8.4,5.9,13.2c0,5.6-3.1,10.2-5.9,13.2c-2,2.3-3.3,5.3-3.3,8.6 c0,7.1,5.7,12.9,12.8,12.9l0,0c0,0,0,0,0,0c0,0,0,0,0,0l0,0c7.1,0,12.8-5.8,12.8-12.9c0-3.3-1.3-6.3-3.3-8.6 C46.9,88.5,43.7,83.9,43.7,78.2z"></path> <path class="st0" d="M70.8,56.5c0-4.8,3.9-10.9,5.9-13.2c2-2.3,3.3-5.3,3.3-8.6c0-7.1-5.7-12.9-12.8-12.9h0c0,0,0,0,0,0 c0,0,0,0,0,0v0c-7.1,0-12.8,5.8-12.8,12.9c0,3.3,1.2,6.3,3.3,8.6c2,2.3,5.9,8.4,5.9,13.2c0,5.6-3.1,10.2-5.9,13.2 c-2,2.3-3.3,5.3-3.3,8.6c0,7.1,5.7,12.9,12.8,12.9l0,0c0,0,0,0,0,0c0,0,0,0,0,0l0,0c7.1,0,12.8-5.8,12.8-12.9 c0-3.3-1.3-6.3-3.3-8.6C74,66.7,70.8,62.1,70.8,56.5z"></path> <path class="st0" d="M16.6,56.5c0-4.8,3.9-10.9,5.9-13.2c2-2.3,3.3-5.3,3.3-8.6c0-7.1-5.7-12.9-12.8-12.9h0c0,0,0,0,0,0 c0,0,0,0,0,0l0,0C5.7,21.9,0,27.7,0,34.8c0,3.3,1.2,6.3,3.3,8.6c2,2.3,5.9,8.4,5.9,13.2c0,5.6-3.1,10.2-5.9,13.2 c-2,2.3-3.3,5.3-3.3,8.6c0,7.1,5.7,12.9,12.8,12.9l0,0c0,0,0,0,0,0c0,0,0,0,0,0l0,0c7.1,0,12.8-5.8,12.8-12.9 c0-3.3-1.3-6.3-3.3-8.6C19.7,66.7,16.6,62.1,16.6,56.5z"></path> </g> </svg>