<svg xmlns="http://www.w3.org/2000/svg" viewBox="0 0 488.04 151.3"> <title>alacra-logo-white</title> <path d="M47.4 126.9c0 7.91-2.64 10-4.14 11.49a19.73 19.73 0 0 1-14.52 5.47c-8.67 0-14.51-5.66-14.51-14.89 0-17.34 20.92-19.42 33.17-19.6zm25.26 8.86c-.94 3.21-2.83 8.48-6.59 8.48-4 0-4-3-4-8.68V90.71c0-7.54 0-18.48-25.63-18.48-22.43 0-30.15 11.32-30.15 18.1 0 5.28 2.83 9 7.91 9 4.71 0 7.73-3.2 7.73-7.92 0-6.21-5.65-7.16-5.65-8.66 0-5.47 13.38-6.79 17.52-6.79 6.6 0 13.57 2.64 13.57 11.49v17.91c-28.84 0-46.74 9.8-47.31 27.32 0 14 10.18 18.47 22.05 18.47 9.61 0 19-3.58 25.45-11.49 1.32 7 5.28 11.49 12.25 11.49 8.67 0 15.46-6.59 16-15.45z" fill="#fff"></path> <path d="M47.4 109.27c-22.07.34-33.26 7-33.26 19.7 0 9.1 5.73 15 14.6 15a19.75 19.75 0 0 0 14.58-5.49l.28-.28c1.55-1.52 3.89-3.8 3.89-11.28v-17.65zM14.32 129c0-12.59 11.1-19.15 33-19.51v17.41c0 7.4-2.3 9.65-3.83 11.15l-.28.27a19.61 19.61 0 0 1-14.45 5.44C20 143.77 14.32 138 14.32 129z" fill="#fff"></path> <path d="M12.92 78.67c-4.2 3.26-6.7 7.62-6.7 11.66 0 5.64 3.07 9.14 8 9.14 4.68 0 7.82-3.22 7.82-8 0-4.2-2.56-6-4.25-7.22-.78-.56-1.4-1-1.4-1.44 0-5.5 14-6.7 17.43-6.7 4.06 0 13.48 1.12 13.48 11.41v17.82c-29.5 0-46.74 10-47.31 27.41 0 6.52 2.22 11.42 6.61 14.54 3.74 2.67 9 4 15.53 4 10.37 0 19.38-4.05 25.41-11.4 1.44 7.35 5.8 11.4 12.29 11.4A16.2 16.2 0 0 0 76 135.76v-.09h-3.37v.06c-.61 2.08-2.47 8.41-6.51 8.41-3.87 0-3.87-2.87-3.87-8.58V90.71c0-7.39 0-18.56-25.72-18.56-12.53-.01-19.77 3.54-23.61 6.52zM6.4 90.33c0-4 2.48-8.3 6.63-11.53 3.81-3 11-6.47 23.43-6.47C62 72.33 62 83.39 62 90.71v44.85c0 5.66 0 8.77 4.05 8.77 4.14 0 6-6.31 6.66-8.48h3c-.6 8.85-7.28 15.26-15.91 15.26-8.27 0-11.18-6.21-12.16-11.42v-.19l-.12.15c-6 7.39-15 11.46-25.38 11.46-6.52 0-11.72-1.34-15.42-4-4.34-3.1-6.54-7.94-6.54-14.4.56-17.3 17.78-27.23 47.22-27.23h.09v-18c0-10.45-9.55-11.58-13.66-11.58-3.72 0-17.62 1.17-17.62 6.88 0 .55.62 1 1.48 1.59 1.67 1.18 4.18 3 4.18 7.07 0 4.76-3 7.83-7.64 7.83-4.83.02-7.82-3.41-7.82-8.94zM83.52 148.76v-4.33H98V23.23H83.52v-4.34h8.11a113.06 113.06 0 0 0 21.11-1.69v127.23h14.51v4.33z" fill="#fff"></path> <path d="M112.72 17.11a111.46 111.46 0 0 1-21.09 1.7h-8.2v4.52h14.52v121H83.43v4.52h43.91v-4.52h-14.51V17.09zM91.63 19a112.16 112.16 0 0 0 21-1.68v127.2h14.51v4.15H83.62v-4.15h14.51V23.14H83.62V19zM184.27 126.9c0 7.91-2.63 10-4.14 11.49a19.73 19.73 0 0 1-14.51 5.47c-8.67 0-14.52-5.66-14.52-14.89 0-17.34 20.92-19.42 33.17-19.6zm25.25 8.86c-.94 3.21-2.82 8.48-6.59 8.48-4 0-4-3-4-8.68V90.71c0-7.54 0-18.48-25.63-18.48-22.43 0-30.15 11.32-30.15 18.1 0 5.28 2.82 9 7.91 9 4.71 0 7.73-3.2 7.73-7.92 0-6.21-5.66-7.16-5.66-8.66 0-5.47 13.38-6.79 17.52-6.79 6.6 0 13.57 2.64 13.57 11.49v17.91c-28.84 0-46.74 9.8-47.31 27.32 0 14 10.19 18.47 22.06 18.47 9.61 0 19-3.58 25.45-11.49 1.32 7 5.28 11.49 12.25 11.49 8.67 0 15.46-6.59 16-15.45z" fill="#fff"></path> <path d="M184.27 109.27c-22.07.34-33.26 7-33.26 19.7 0 9.1 5.73 15 14.6 15a19.72 19.72 0 0 0 14.57-5.49l.28-.28c1.56-1.51 3.9-3.79 3.9-11.28v-17.65zM151.19 129c0-12.59 11.1-19.15 33-19.51v17.41c0 7.41-2.31 9.66-3.84 11.16l-.28.27a19.59 19.59 0 0 1-14.44 5.44c-8.77 0-14.44-5.77-14.44-14.77z" fill="#fff"></path> <path d="M149.8 78.67c-4.2 3.26-6.7 7.62-6.7 11.66 0 5.64 3.07 9.14 8 9.14 4.68 0 7.83-3.22 7.83-8 0-4.2-2.56-6-4.26-7.22-.78-.56-1.4-1-1.4-1.44 0-5.5 14-6.7 17.43-6.7 4.06 0 13.48 1.12 13.48 11.41v17.82c-29.5 0-46.74 10-47.31 27.41 0 15.35 12 18.57 22.15 18.57 10.37 0 19.38-4.05 25.4-11.4 1.46 7.45 5.71 11.4 12.3 11.4a16.19 16.19 0 0 0 16.11-15.54v-.09h-3.37v.06c-.61 2.08-2.47 8.41-6.51 8.41-3.87 0-3.87-2.87-3.87-8.58V90.71c0-7.39 0-18.56-25.72-18.56-12.53-.01-19.73 3.54-23.56 6.52zm-6.52 11.66c0-4 2.48-8.3 6.63-11.53 3.81-3 11-6.47 23.44-6.47 25.53 0 25.53 11.06 25.53 18.38v44.85c0 5.66 0 8.77 4.06 8.77 4.14 0 6-6.31 6.66-8.48h3c-.6 8.85-7.28 15.26-15.92 15.26-8.26 0-11.17-6.21-12.16-11.42v-.19l-.12.15c-6 7.39-15 11.46-25.38 11.46-10 0-22-3.18-22-18.38.57-17.3 17.78-27.23 47.22-27.23h.09v-18c0-10.45-9.55-11.58-13.66-11.58-3.72 0-17.62 1.17-17.62 6.88 0 .55.62 1 1.48 1.59 1.66 1.18 4.18 3 4.18 7.07 0 4.76-3 7.83-7.64 7.83-4.79 0-7.79-3.43-7.79-8.96zM290 125.39c-4.33 13.38-11.87 25.07-31.47 25.82-29.22 0-38.08-24.31-38.08-37.32 0-33.55 27-41.66 37.7-41.66 12.25 0 29.59 5.66 29.59 20.18 0 5.08-3.2 10-8.48 10-5.1 0-8.86-3.39-8.86-8.85 0-7.35 6-8.29 6-10.37 0-5.09-11.88-7.16-16-7.16-18.09 0-22.8 13.2-22.8 37.88a62.91 62.91 0 0 0 4 22.62c2.82 6.22 8.67 10.18 18.47 10.75 10.93.56 21.49-8.29 26-21.87z" fill="#fff"></path> <path d="M235.23 80.41c-9.71 7.48-14.85 19.05-14.85 33.48 0 10.4 6.86 37.41 38.16 37.41 20.8-.8 27.79-14.26 31.56-25.88v-.12H286v.07c-4.53 13.61-15 22.37-25.92 21.8-9.22-.53-15.4-4.13-18.39-10.69a62 62 0 0 1-3.95-22.58c0-13.56 1.42-22.24 4.61-28.15 3.53-6.57 9.29-9.64 18.1-9.64 4.39 0 15.94 2.18 15.94 7.08 0 .67-.73 1.26-1.64 2-1.75 1.4-4.39 3.52-4.39 8.37 0 5.35 3.6 9 9 9 5.56 0 8.57-5.2 8.57-10.08 0-14.87-17.75-20.27-29.68-20.27a40.22 40.22 0 0 0-23.02 8.2zm-14.67 33.48c0-14.37 5.11-25.89 14.78-33.33a40 40 0 0 1 22.83-8.23c11.86 0 29.5 5.35 29.5 20.08 0 4.8-2.94 9.9-8.39 9.9-5.25 0-8.77-3.53-8.77-8.77 0-4.76 2.5-6.77 4.32-8.23 1-.77 1.71-1.37 1.71-2.14 0-5.1-11.52-7.26-16.12-7.26-8.88 0-14.69 3.1-18.26 9.73-3.2 5.95-4.63 14.65-4.63 28.25 0 13.24 3.8 22.28 4 22.66 3 6.63 9.25 10.26 18.54 10.79 11 .57 21.51-8.21 26.08-21.86h3.76c-3.76 11.54-10.73 24.85-31.35 25.64-31.18 0-38-26.88-38-37.23zM328.83 90h.38c3.39-8.48 10.94-17.72 21.3-17.72 6.41 0 11.5 3.4 11.5 10.56 0 4.71-4.9 7-8.86 7-3.38 0-7.34-3.77-7.34-7.54 0-1.5.75-3.21.75-4 0-1.13-1.14-1.13-1.7-1.13-.18 0-6.59 2.64-10.74 11.12a48.36 48.36 0 0 0-4.71 20.35v35.82h14.52v4.33h-42v-4.33h12.81v-66h-12.86v-4.33h5.85c7 0 14.32-.19 21.1-1.89z" fill="#fff"></path> <path d="M328.81 72.15c-6.94 1.74-14.52 1.88-21.08 1.88h-5.94v4.51h12.81v65.79h-12.81v4.52H344v-4.52h-14.51v-35.72a48.32 48.32 0 0 1 4.71-20.31c4.17-8.55 10.61-11.06 10.66-11.06.56 0 1.6 0 1.6 1a6 6 0 0 1-.28 1.32 10.61 10.61 0 0 0-.47 2.64c0 3.72 3.82 7.63 7.43 7.63 4.34 0 9-2.48 9-7.06 0-6.57-4.44-10.65-11.59-10.65-10.51 0-18.07 9.53-21.36 17.72h-.23V72.12zm.46 17.89v-.05c3.26-8.15 10.77-17.66 21.21-17.66 7 0 11.4 4 11.4 10.46 0 4.47-4.52 6.88-8.77 6.88-3.46 0-7.26-3.9-7.26-7.45a10.73 10.73 0 0 1 .47-2.59 5.89 5.89 0 0 0 .29-1.36c0-1.22-1.26-1.22-1.8-1.22 0 0-6.55 2.42-10.82 11.17a48.58 48.58 0 0 0-4.73 20.39v35.91h14.52v4.15H302v-4.15h12.81V78.36H302v-4.15h5.76c6.54 0 14.08-.15 21-1.87V90zM414.41 126.9c0 7.91-2.64 10-4.15 11.49a19.7 19.7 0 0 1-14.51 5.47c-8.68 0-14.51-5.66-14.51-14.89 0-17.34 20.92-19.42 33.17-19.6zm25.25 8.86c-.94 3.21-2.82 8.48-6.59 8.48-4 0-4-3-4-8.68V90.71c0-7.54 0-18.48-25.63-18.48-22.43 0-30.15 11.32-30.15 18.1 0 5.28 2.83 9 7.92 9 4.71 0 7.72-3.2 7.72-7.92 0-6.21-5.65-7.16-5.65-8.66 0-5.47 13.38-6.79 17.52-6.79 6.6 0 13.58 2.64 13.58 11.49v17.91c-28.84 0-46.74 9.8-47.31 27.32 0 14 10.18 18.47 22.05 18.47 9.61 0 19-3.58 25.44-11.49 1.32 7 5.28 11.49 12.25 11.49 8.67 0 15.45-6.59 16-15.45z" fill="#fff"></path> <path d="M414.41 109.27c-22.07.34-33.27 7-33.27 19.7 0 9.1 5.73 15 14.61 15a19.72 19.72 0 0 0 14.57-5.49l.28-.28c1.55-1.52 3.9-3.8 3.9-11.28v-17.65zM381.32 129c0-12.59 11.1-19.15 33-19.51v17.41c0 7.4-2.31 9.65-3.84 11.15l-.28.27a19.62 19.62 0 0 1-14.45 5.44c-8.75.01-14.43-5.76-14.43-14.76z" fill="#fff"></path> <path d="M373.23 90.33c0 5.64 3.07 9.14 8 9.14 4.68 0 7.82-3.22 7.82-8 0-4.2-2.56-6-4.26-7.22-.78-.56-1.4-1-1.4-1.44 0-5.5 14-6.7 17.44-6.7 4.06 0 13.48 1.12 13.48 11.41v17.82c-29.51 0-46.75 10-47.31 27.41 0 15.35 12 18.57 22.15 18.57 10.37 0 19.38-4.05 25.4-11.4 1.44 7.35 5.8 11.4 12.3 11.4A16.2 16.2 0 0 0 443 135.76v-.09h-3.4v.06c-.61 2.08-2.46 8.41-6.51 8.41-3.87 0-3.87-2.87-3.87-8.58V90.71c0-7.39 0-18.56-25.73-18.56-22.05-.01-30.26 11.15-30.26 18.18zm.18 0c0-7 8.16-18 30.06-18 25.54 0 25.54 11.06 25.54 18.38v44.85c0 5.66 0 8.77 4.06 8.77 4.14 0 6-6.31 6.67-8.48h3c-.61 8.85-7.28 15.26-15.91 15.26-8.27 0-11.18-6.21-12.16-11.42v-.19l-.12.15c-6 7.39-15 11.46-25.37 11.46-10 0-22-3.18-22-18.38.55-17.3 17.77-27.23 47.21-27.23h.09v-18c0-10.45-9.55-11.58-13.67-11.58-3.72 0-17.61 1.17-17.61 6.88 0 .55.61 1 1.47 1.59 1.66 1.18 4.18 3 4.18 7.07 0 4.76-3 7.83-7.64 7.83-4.81 0-7.8-3.43-7.8-8.96zM429.21.02h58.84v58.83h-58.84zM318.14 30.21h8.74v8.72h-8.74zM343.07 32.83h8.74v8.72h-8.74zM334.16 45.84h8.74v8.72h-8.74zM355.05 50.17h8.74v8.72h-8.74zM355.05 8.19h8.74v8.71h-8.74zM368.06 20.17h8.74v8.72h-8.74zM368.06 33.17h8.74v8.72h-8.74zM394.42 16.06h12.52v12.49h-12.52zM379.35 46.29h12.52v12.48h-12.52zM379.35 0h12.52v12.61h-12.52zM410.33 0h12.62v12.65h-12.62zM410.27 31.12h12.68v12.62h-12.68zM410.24 46.15h12.7v12.64h-12.7z" fill="#fff"></path> </svg>