<svg xmlns="http://www.w3.org/2000/svg" xmlns:xlink="http://www.w3.org/1999/xlink" id="Layer_1" x="0px" y="0px" viewBox="0 0 720 720" style="enable-background:new 0 0 720 720;" xml:space="preserve"> <style type="text/css"> .st0{display:none;fill:#FF6800;} .st1{fill:#1C2E3F;stroke:#1C2E3F;stroke-width:11.3321;stroke-linecap:round;stroke-linejoin:round;stroke-miterlimit:10;} .st2{fill:#FF6800;} .st3{fill:#4FC6AF;} .st4{fill:#FFFFFF;} .st5{fill:none;} .st6{fill:#E8E8E8;} </style> <circle class="st0" cx="360.4" cy="360.4" r="313.8"></circle> <g> <g> <polygon class="st1" points="507.6,257.5 360.3,210 213.2,257.6 213,465.7 360.3,491.2 507.6,466.1 507.6,418.9 507.6,418.9 "></polygon> <g> <polygon class="st2" points="365.7,281.9 365.8,218.6 407.9,231.9 407.9,293.9 "></polygon> <polygon class="st2" points="416.7,296.4 416.7,234.6 457,247.3 457,307.8 "></polygon> <polygon class="st2" points="465.3,310.2 465.3,249.9 502.6,261.6 502.6,320.8 "></polygon> <polygon class="st2" points="365.7,357.1 365.8,292.1 407.9,303.8 407.9,367.3 "></polygon> <polygon class="st2" points="416.7,369.5 416.7,306.2 457,317.4 457,379.2 "></polygon> <polygon class="st2" points="465.3,381.2 465.3,319.7 502.6,330 502.6,390.2 "></polygon> <polygon class="st2" points="465.3,451.8 465.3,390.7 502.6,399.4 502.6,459.4 "></polygon> <polygon class="st2" points="416.7,441.8 416.7,379.3 457,388.8 457,450.1 "></polygon> <polygon class="st2" points="365.8,431.4 365.8,367.4 407.9,377.3 407.9,440 "></polygon> <polygon class="st3" points="312.8,231.8 354.9,218.6 354.9,281.8 312.8,293.8 "></polygon> <polygon class="st3" points="312.8,303.9 354.9,292.2 354.9,357.2 312.8,367.3 "></polygon> <polygon class="st3" points="312.8,377.3 354.9,367.4 354.9,431.3 312.8,439.8 "></polygon> <polygon class="st3" points="263.7,247.2 303.9,234.6 303.9,296.4 263.7,307.9 "></polygon> <polygon class="st3" points="263.7,317.5 303.9,306.3 303.9,369.6 263.7,379.4 "></polygon> <polygon class="st3" points="263.7,388.8 303.9,379.4 303.9,441.6 263.7,449.7 "></polygon> <polygon class="st3" points="218.1,261.5 255.4,249.8 255.4,310.3 218.1,320.9 "></polygon> <polygon class="st3" points="218.1,330.2 255.4,319.8 255.4,381.4 218.1,390.5 "></polygon> <polygon class="st3" points="218.1,399.6 255.4,390.8 255.4,451.4 218.1,458.9 "></polygon> </g> <g id="Offseet_paths"> <polygon class="st4" points="226,465.6 267.7,457.6 305.2,464.3 262.9,472.2 "></polygon> <polygon class="st4" points="276.2,455.9 314.6,448.5 351.9,455.5 314,462.6 "></polygon> <polygon class="st4" points="323.4,447 360.7,439.6 397.6,446.8 360.3,453.9 "></polygon> <polygon class="st4" points="271.7,473.6 314,465.8 351.5,472.4 308.2,480.2 "></polygon> <polygon class="st4" points="322.6,464.2 360.8,457.1 398,464.2 360.4,470.9 "></polygon> <polygon class="st4" points="369.2,455.6 406.8,448.5 444.2,455.8 406.7,462.6 "></polygon> <polygon class="st4" points="416.1,464.3 453.8,457.7 494.9,465.6 457.9,472.2 "></polygon> <polygon class="st4" points="369.5,472.4 407.4,465.8 449.2,473.6 412.6,480.2 "></polygon> <polygon class="st4" points="317.1,481.6 360.7,474 403.8,481.6 360.3,489.4 "></polygon> </g> </g> <path class="st5" d="M117.5,357.3l30.9,2.4L117.5,357.3z M117.6,401.2l-5.2-5.6l59.9-4.7l5.2,5.6L117.6,401.2z M217.3,341.6 l-43.9-12.8l14.1-4.1l43.9,12.8L217.3,341.6z M503,341.5l-14.1-4.1l43.7-12.9l14.2,4.2L503,341.5z M603.1,357.2l5.2,5.6l-59.8,4.7 l-5.2-5.7L603.1,357.2z"></path> <polygon class="st6" points="174,429.7 188.1,433.9 207.3,428.3 207.3,420 "></polygon> <polygon class="st6" points="112.4,395.6 117.6,401.2 177.5,396.5 172.3,390.9 "></polygon> <polygon class="st6" points="172.1,367.7 143.3,365.4 172.1,367.7 172.2,367.7 174.7,364.8 177.2,362.1 177.3,362 148.3,359.8 117.4,357.4 114.5,360.6 112.3,363 112.2,363 143.3,365.4 "></polygon> <polygon class="st6" points="173.4,328.8 217.3,341.6 231.4,337.5 187.5,324.7 "></polygon> <polygon class="st6" points="301,325.7 320.3,324.2 304.3,306.7 285,308.2 "></polygon> <polygon class="st6" points="399.7,324.1 407.4,315.7 399.6,324.1 "></polygon> <polygon class="st6" points="435,308.2 434.9,308.2 430.9,312.7 "></polygon> <polygon class="st6" points="399.8,324.1 399.8,324.2 409.5,324.9 419,325.6 419.1,325.7 426.8,317.2 430.9,312.7 426.7,317.2 434.9,308.2 435,308.1 424,307.3 415.8,306.7 415.6,306.7 407.4,315.7 "></polygon> <polygon class="st6" points="430.9,312.7 434.9,308.2 426.7,317.2 "></polygon> <polygon class="st6" points="532.6,324.5 488.9,337.4 503,341.5 546.8,328.7 "></polygon> <polygon class="st6" points="608.3,362.8 603.1,357.2 543.3,361.8 548.5,367.5 "></polygon> <polygon class="st6" points="543.5,396.3 546.4,393.1 543.4,396.3 "></polygon> <polygon class="st6" points="603.3,401 572.4,398.6 603.3,401 "></polygon> <polygon class="st6" points="577.5,393 548.6,390.7 546.4,393.1 543.5,396.3 543.5,396.4 572.4,398.6 603.3,401 603.4,401 605.8,398.3 608.4,395.4 608.4,395.4 "></polygon> <polygon class="st6" points="533.3,433.7 547.4,429.5 513.3,419.6 513.3,427.9 "></polygon> </g> </svg>