<svg xmlns="http://www.w3.org/2000/svg" viewBox="0 0 319.59 85.18"> <title>hiperos-logo-white</title> <path d="M0 0h6.4v24h.18c1.92-3 6.85-7.68 15.36-7.68 6.12 0 11.24 1.56 15.81 6.12 3.74 3.66 6.21 9.42 6.21 17.64v27.51h-6.4V40.12c0-6.49-2-11.06-4.75-13.71a15.92 15.92 0 0 0-21.75 0c-2.74 2.65-4.75 7.22-4.66 13.71v27.51H0zm56 0h6.4v11.51H56zm0 17.64h6.4v50H56zm18.21 0h6.4v8.77h.18a23.36 23.36 0 0 1 19.47-10.05c16.36 0 26.87 12.79 26.87 26.14 0 14.35-11.15 26.32-26.87 26.32-5.21 0-13.89-1.83-19.47-10h-.18v26.32h-6.4zm26 4.48c-11.52 0-20 9.6-20 20.56a20.09 20.09 0 0 0 20 20.38c12.24 0 20.47-9.14 20.47-20.29.04-12.7-9.46-20.65-20.43-20.65zm85.95 30.79c-3.2 6.21-9.87 15.9-24.86 15.9-15.63 0-26.87-12.15-26.87-26.14 0-14.44 12-26.32 26.87-26.32 8.77 0 20 4.38 24.86 16.36h-7a19.75 19.75 0 0 0-17.64-10.6c-9.78 0-20.65 7.31-20.65 20.38a20.33 20.33 0 0 0 20.65 20.56c10.42 0 15.63-6.31 17.64-10.15zm9.59-35.27h6.4v7.22h.18c3-7 8.68-8.13 14.08-8.5v6.76c-4.48.37-8.32 2-10.78 4.94a16.35 16.35 0 0 0-3.47 10.33v29.24h-6.4zm49.65-1.28c14.81 0 26.23 12.52 26.23 26.23s-11.24 26.23-26.23 26.23a26.23 26.23 0 0 1 0-52.46zm.09 46.7c9.69 0 19.74-7.68 19.74-20.75s-11.15-20.2-19.74-20.2a20.48 20.48 0 0 0 0 40.94z" fill="#fff"></path> <path d="M186.16 52.91c-3.2 6.21-9.87 15.9-24.86 15.9-15.63 0-26.87-12.15-26.87-26.14 0-14.44 12-26.32 26.87-26.32 8.77 0 20 4.38 24.86 16.36h-7a19.75 19.75 0 0 0-17.64-10.6c-9.78 0-20.65 7.31-20.65 20.38a20.33 20.33 0 0 0 20.65 20.56c10.42 0 15.63-6.31 17.64-10.15z" fill="#fff"></path> <path d="M186.14 32.73a3.22 3.22 0 0 1-1.78 4.19L150.25 50.7a3.22 3.22 0 0 1-4.19-1.78 3.22 3.22 0 0 1 1.78-4.19L181.95 31a3.22 3.22 0 0 1 4.19 1.78zm95.96 17.96a12.41 12.41 0 0 0 2.23 6.81q3.74 4.9 13.19 4.9a26 26 0 0 0 7.71-1.07q6.73-2.08 6.73-7.46 0-4-2.85-5.74a31.24 31.24 0 0 0-9-2.91l-7.56-1.51q-7.4-1.47-10.48-3.25a10 10 0 0 1-5.32-9.22 13.45 13.45 0 0 1 5.23-10.9q5.23-4.26 14.81-4.26a28.37 28.37 0 0 1 15 3.74q6.17 3.74 6.17 12h-7.32a11.55 11.55 0 0 0-2.41-6.07q-3.43-3.86-11.63-3.86-6.62 0-9.52 2.48a7.42 7.42 0 0 0-2.9 5.77 5.56 5.56 0 0 0 3.42 5.3q2.25 1.07 10.14 2.68l7.83 1.58a25.86 25.86 0 0 1 8.74 3.12 11.23 11.23 0 0 1 5.32 10q0 8.18-6.79 11.71A33.85 33.85 0 0 1 297 68q-10.48 0-16.41-4.7a14.94 14.94 0 0 1-5.82-12.65z" fill="#fff"></path> </svg>