<svg xmlns="http://www.w3.org/2000/svg" xmlns:xlink="http://www.w3.org/1999/xlink" id="Layer_1" x="0px" y="0px" viewBox="0 0 627 627" style="enable-background:new 0 0 627 627;" xml:space="preserve"> <style type="text/css"> .st0{fill:#FF6800;} .st1{fill:#FFFFFF;} .st2{fill:#1C2E3F;} .st3{fill:#4FC6AF;} </style> <g> <title>know-your-third-party_new</title> <circle class="st0" cx="313.5" cy="313.5" r="313.5"></circle> <rect x="131" y="210.5" class="st1" width="7.1" height="206.4"></rect> <rect x="488.9" y="211.1" class="st1" width="7.1" height="206.4"></rect> <path class="st1" d="M490.1,420.8l-9.8-5.7l3.6-6.2l9.8,5.7L490.1,420.8z M470.4,409.3l-9.8-5.7l3.6-6.2l9.8,5.7L470.4,409.3z M450.8,397.9l-9.8-5.7l3.6-6.2l9.8,5.7L450.8,397.9z M431.1,386.4l-9.8-5.7l3.6-6.2l9.8,5.7L431.1,386.4z M411.4,375l-9.8-5.7 l3.6-6.2l9.8,5.7L411.4,375z M391.7,363.5l-9.8-5.7l3.6-6.2l9.8,5.7L391.7,363.5z M372,352.1l-9.8-5.7l3.6-6.2l9.8,5.7L372,352.1z M352.3,340.7l-9.8-5.7l3.6-6.2l9.8,5.7L352.3,340.7z M332.6,329.2l-9.8-5.7l3.6-6.2l9.8,5.7L332.6,329.2z M312.9,317.8l-9.8-5.7 l3.6-6.2l9.8,5.7L312.9,317.8z M293.2,306.3l-9.8-5.7l3.6-6.2l9.8,5.7L293.2,306.3z M273.5,294.9l-9.8-5.7l3.6-6.2l9.8,5.7 L273.5,294.9z M253.8,283.4l-9.8-5.7l3.6-6.2l9.8,5.7L253.8,283.4z M234.2,272l-9.8-5.7l3.6-6.2l9.8,5.7L234.2,272z M214.5,260.5 l-9.8-5.7l3.6-6.2l9.8,5.7L214.5,260.5z M194.8,249.1l-9.8-5.7l3.6-6.2l9.8,5.7L194.8,249.1z M175.1,237.6l-9.8-5.7l3.6-6.2 l9.8,5.7L175.1,237.6z M155.4,226.2l-9.8-5.7l3.6-6.2l9.8,5.7L155.4,226.2z M135.7,214.7l-2.4-1.4l3.6-6.2l2.4,1.4L135.7,214.7z"></path> <path class="st1" d="M317.1,507.7H310v-11.4h7.1V507.7z M317.1,484.9H310v-11.4h7.1V484.9z M317.1,462.1H310v-11.4h7.1V462.1z M317.1,439.4H310V428h7.1V439.4z M317.1,416.6H310v-11.4h7.1V416.6z M317.1,393.8H310v-11.4h7.1V393.8z M317.1,371H310v-11.4h7.1 V371z M317.1,348.3H310v-11.4h7.1V348.3z M317.1,325.5H310v-11.4h7.1V325.5z M317.1,302.7H310v-11.4h7.1V302.7z M317.1,279.9H310 v-11.4h7.1V279.9z M317.1,257.2H310v-11.4h7.1V257.2z M317.1,234.4H310V223h7.1V234.4z M317.1,211.6H310v-11.4h7.1V211.6z M317.1,188.8H310v-11.4h7.1V188.8z M317.1,166.1H310v-11.4h7.1V166.1z M317.1,143.3H310v-11.4h7.1V143.3z M317.1,120.5H310v-11.4 h7.1V120.5z"></path> <path class="st2" d="M219.8,375.9c7.9-7,27.4-18.9,41.5-27.1c-10.7-8.9-43.4-27.1-43.4-27.1c-0.2-2.3-0.7-4.5-1.4-6.7 c0-0.1,0-0.1-0.1-0.2c-0.9-1.4-1.9-2.7-3.1-3.9c-0.2-2.4-0.2-4.7,0-7.1c2-2.2,3.6-4.7,4.7-7.5c0.8-2.2,2.4-10.5,2.9-10.5 s0.7,0.9,2.8,1c1,0,2-1.5,2.1-2.7c0.1-0.6-0.3-2-0.1-3.4s2.9-8.3,3.3-9.4c0.6-1.6,2-3.1,2.3-4c0.3-0.8,1.4-6.7-0.7-7.6 c-2.1-0.9-5,1.2-5.8,0.9c-0.8-0.3,0-5.9,0.3-7c1-4.1,1.6-8.4,1.6-12.7c-0.5-8.6-3.4-16.9-8.5-23.8c-3.8-5.4-15.4-13.2-24.2-12.3 c1.2,0.7,2,1.9,2.1,3.4c0,2.1-2.5,3.2-10.1,3.6s-13.6,2.9-19.6,9c-8.4,8.4-7.9,15.4-8,20.8c-0.1,3.6,0.2,7.1,0.8,10.7 c0.2,1.1,1.4,8.1,0.7,8.4c-0.7,0.3-3.7-1.8-5.8-0.9s-0.9,6.8-0.7,7.6c0.2,0.8,1.7,2.3,2.3,4c0.4,1.1,3.1,8,3.3,9.4 s-0.2,2.8-0.1,3.4c0.2,1.2,1.2,2.7,2.2,2.7c2.1-0.1,2.3-1,2.8-1s2.1,8.4,2.9,10.5c1.2,2.7,2.8,5.2,4.7,7.5c0.2,2.4,0.2,4.7,0,7.1 c-1.2,1.2-2.2,2.5-3.1,3.9c-0.8,2.2-1.3,4.5-1.5,6.9c0,0-34.6,19.2-44.2,27.8c-4.4,3.9-5.9,9.9-8.2,27.4h104.1 C219.1,376.6,219.5,376.2,219.8,375.9z"></path> <g> <polygon class="st3" points="205.4,399.4 171.3,399.4 171.3,354.3 194.6,354.3 205.4,365.1 "></polygon> <path class="st2" d="M206.7,400.7H170V353h25.2l11.5,11.6V400.7z M172.7,398H204v-32.4l-9.9-10h-21.4L172.7,398L172.7,398z"></path> </g> <rect x="175.3" y="377.8" class="st2" width="25.8" height="1"></rect> <rect x="175.3" y="370.9" class="st2" width="25.8" height="1"></rect> <rect x="175.3" y="364" class="st2" width="12.9" height="1"></rect> <polygon class="st2" points="175.3,384.7 175.4,385.7 201.1,385.7 201.1,384.7 "></polygon> <polygon class="st2" points="175.3,391.6 175.3,392.6 201.1,392.6 201.1,391.6 "></polygon> <polygon class="st2" points="204.7,366.8 192.2,366.8 192.2,354.3 194.9,354.3 194.9,364.1 204.7,364.1 "></polygon> <path class="st2" d="M504.1,349.5c-9.6-8.6-44.2-27.9-44.2-27.9c-0.2-2.3-0.7-4.5-1.4-6.7c0-0.1,0-0.1-0.1-0.2 c-0.9-1.4-1.9-2.7-3.1-3.9c-0.2-2.4-0.2-4.7,0-7.1c2-2.2,3.6-4.7,4.7-7.5c0.8-2.2,2.4-10.5,2.9-10.5s0.7,0.9,2.8,1 c1,0,2-1.5,2.1-2.7c0.1-0.6-0.3-2-0.1-3.4c0.2-1.4,2.9-8.3,3.3-9.4c0.6-1.6,2-3.1,2.3-4c0.3-0.8,1.4-6.7-0.7-7.6s-5,1.2-5.8,0.9 c-0.8-0.3,0-5.9,0.3-7c1-4.1,1.6-8.4,1.6-12.7c-0.5-8.6-3.4-16.9-8.5-23.8c-3.8-5.4-15.4-13.2-24.2-12.3c1.2,0.7,2,1.9,2.1,3.4 c0,2.1-2.5,3.2-10.1,3.6c-7.6,0.4-13.6,2.9-19.6,9c-8.4,8.4-7.9,15.4-8,20.8c-0.1,3.6,0.2,7.1,0.8,10.7c0.2,1.1,1.4,8.1,0.7,8.4 c-0.7,0.3-3.7-1.8-5.8-0.9c-2.1,0.9-0.9,6.8-0.7,7.6s1.7,2.3,2.3,4c0.4,1.1,3.1,8,3.3,9.4s-0.2,2.8-0.1,3.4 c0.2,1.2,1.2,2.7,2.2,2.7c2.1-0.1,2.3-1,2.8-1s2.1,8.4,2.9,10.5c1.2,2.7,2.8,5.2,4.7,7.5c0.2,2.4,0.2,4.7,0,7.1 c-1.2,1.2-2.2,2.5-3.1,3.9c-0.8,2.2-1.3,4.5-1.5,6.9c0,0-32.7,18.2-43.4,27.1c14.1,8.2,33.6,20.1,41.5,27.1c0.4,0.3,0.7,0.7,1.1,1 h104.1C510.1,359.4,508.5,353.4,504.1,349.5z"></path> <rect x="487.1" y="209" transform="matrix(0.8668 -0.4986 0.4986 0.8668 -40.7369 272.6046)" class="st1" width="5.7" height="7.1"></rect> <path class="st1" d="M151.1,411.5l-3.5-6.2l9.9-5.7l3.5,6.2L151.1,411.5z M171,400l-3.5-6.2l9.9-5.7l3.5,6.2L171,400z M190.9,388.6 l-3.5-6.2l9.9-5.7l3.5,6.2L190.9,388.6z M210.8,377.1l-3.5-6.2l9.9-5.7l3.5,6.2L210.8,377.1z M230.7,365.7l-3.5-6.2l9.9-5.7 l3.5,6.2L230.7,365.7z M250.6,354.3l-3.5-6.2l9.9-5.7l3.5,6.2L250.6,354.3z M270.5,342.8l-3.5-6.2l9.9-5.7l3.5,6.2L270.5,342.8z M290.4,331.4l-3.5-6.2l9.9-5.7l3.5,6.2L290.4,331.4z M310.3,320l-3.5-6.2l9.9-5.7l3.5,6.2L310.3,320z M330.1,308.5l-3.5-6.2 l9.9-5.7l3.5,6.2L330.1,308.5z M350,297.1l-3.5-6.2l9.9-5.7l3.5,6.2L350,297.1z M369.9,285.7l-3.5-6.2l9.9-5.7l3.5,6.2L369.9,285.7 z M389.8,274.2l-3.5-6.2l9.9-5.7l3.5,6.2L389.8,274.2z M409.7,262.8l-3.5-6.2l9.9-5.7l3.5,6.2L409.7,262.8z M429.6,251.3l-3.5-6.2 l9.9-5.7l3.5,6.2L429.6,251.3z M449.5,239.9l-3.5-6.2l9.9-5.7l3.5,6.2L449.5,239.9z M469.4,228.5l-3.5-6.2l9.9-5.7l3.5,6.2 L469.4,228.5z"></path> <rect x="134.2" y="411.9" transform="matrix(0.8672 -0.4979 0.4979 0.8672 -188.6536 123.3978)" class="st1" width="5.7" height="7.1"></rect> <g> <polygon class="st3" points="459.6,399.4 425.5,399.4 425.5,354.3 448.9,354.3 459.6,365.1 "></polygon> <path class="st2" d="M460.9,400.7h-36.7V353h25.2l11.5,11.6V400.7z M426.9,398h31.4v-32.4l-9.9-10H427V398H426.9z"></path> </g> <rect x="429.5" y="377.8" class="st2" width="25.8" height="1"></rect> <rect x="429.5" y="370.9" class="st2" width="25.8" height="1"></rect> <rect x="429.5" y="364" class="st2" width="12.9" height="1"></rect> <polygon class="st2" points="429.6,384.7 429.6,385.7 455.3,385.7 455.3,384.7 "></polygon> <polygon class="st2" points="429.5,391.6 429.6,392.6 455.3,392.6 455.3,391.6 "></polygon> <polygon class="st2" points="458.9,366.8 446.4,366.8 446.4,354.3 449.1,354.3 449.1,364.1 458.9,364.1 "></polygon> <path class="st2" d="M401.4,382.4c-12.1-10.8-55.8-35.1-55.8-35.1s-1-5.4-5.6-6.2c-0.3-1-0.6-2.1-0.7-3.2c-0.2-2.9-0.2-5.8,0-8.7 c0.6-0.5,1.1-1.1,1.6-1.8c3.9-1,8.5-2.6,11.2-4.9c2.4-2.3,15.5-18.6,15.5-35.6s-8.1-32.5-9.2-42.1s-7.1-26.1-16.8-29.5 c-8.7-3.1-13.8-0.2-13.8-0.2s-3.6-7.9-18.7-7.9c-16,0-27.6,12.6-33.5,21.4c-4.1,6-17.7,29.2-17.7,52.5c0,23.4,17.1,50.6,22,50.6 c3.2,0,5-2,7.6-3.3c0.2,0.3,0.5,0.5,0.8,0.8c0.2,2.9,0.2,5.8,0,8.7c-0.2,1-0.5,2.1-0.9,3.1c-5,0-6.1,6.3-6.1,6.3 s-43.7,24.3-55.8,35.1c-5.5,4.9-7.5,12.5-10.4,34.6h196.7C408.9,394.8,406.9,387.3,401.4,382.4z"></path> <g> <polygon class="st3" points="347.2,463.4 280.8,463.4 280.8,375.6 326.3,375.6 347.2,396.6 "></polygon> <path class="st2" d="M349.9,466h-71.5v-93h49.1l22.4,22.5V466z M283.4,460.8h61v-63.1l-19.3-19.4h-41.8V460.8z"></path> </g> <rect x="288.7" y="421.3" class="st2" width="50.2" height="2"></rect> <rect x="288.7" y="408" class="st2" width="50.2" height="2"></rect> <rect x="288.7" y="394.5" class="st2" width="25.2" height="2"></rect> <polygon class="st2" points="288.7,434.8 288.8,436.8 338.9,436.8 338.9,434.8 "></polygon> <polygon class="st2" points="288.7,448.2 288.7,450.3 338.9,450.3 338.9,448.2 "></polygon> <polygon class="st2" points="345.9,400 321.6,400 321.6,375.6 326.8,375.6 326.8,394.7 345.9,394.7 "></polygon> <circle class="st1" cx="313.5" cy="109.1" r="16.1"></circle> <circle class="st1" cx="313.5" cy="518" r="16.1"></circle> <circle class="st1" cx="134.6" cy="417.5" r="16.1"></circle> <circle class="st1" cx="492.4" cy="417.5" r="16.1"></circle> <circle class="st1" cx="134.6" cy="211.2" r="16.1"></circle> <circle class="st1" cx="492.4" cy="211.2" r="16.1"></circle> <path class="st1" d="M490.6,214.2l-1.2-0.7l3.6-6.2l1.2,0.7L490.6,214.2z M479.6,207.8l-9.9-5.7l3.6-6.2l9.9,5.7L479.6,207.8z M459.9,196.3l-9.9-5.7l3.6-6.2l9.9,5.7L459.9,196.3z M440.2,184.9l-9.9-5.7l3.6-6.2l9.9,5.7L440.2,184.9z M420.5,173.5l-9.9-5.7 l3.6-6.2l9.9,5.7L420.5,173.5z M400.7,162.1l-9.9-5.7l3.6-6.2l9.9,5.7L400.7,162.1z M381,150.7l-9.9-5.7l3.6-6.2l9.9,5.7L381,150.7 z M361.3,139.2l-9.9-5.7l3.6-6.2l9.9,5.7L361.3,139.2z M341.6,127.8l-9.9-5.7l3.6-6.2l9.9,5.7L341.6,127.8z M321.9,116.4l-9.9-5.7 l3.6-6.2l9.9,5.7L321.9,116.4z"></path> <rect x="299.9" y="465.2" transform="matrix(0.8677 -0.497 0.497 0.8677 -179.6573 262.2854)" class="st1" width="206.2" height="7.1"></rect> <path class="st1" d="M311.7,523l-9.9-5.7l3.6-6.2l9.9,5.7L311.7,523z M292,511.7l-9.9-5.7l3.6-6.2l9.9,5.7L292,511.7z M272.3,500.3 l-9.9-5.7l3.6-6.2l9.9,5.7L272.3,500.3z M252.5,488.9l-9.9-5.7l3.6-6.2l9.9,5.7L252.5,488.9z M232.8,477.6l-9.9-5.7l3.6-6.2 l9.9,5.7L232.8,477.6z M213,466.2l-9.9-5.7l3.6-6.2l9.9,5.7L213,466.2z M193.3,454.8l-9.9-5.7l3.6-6.2l9.9,5.7L193.3,454.8z M173.6,443.4l-9.9-5.7l3.6-6.2l9.9,5.7L173.6,443.4z M153.8,432.1l-9.9-5.7l3.6-6.2l9.9,5.7L153.8,432.1z M134.1,420.7l-1.3-0.7 l3.6-6.2l1.3,0.7L134.1,420.7z"></path> <rect x="120.9" y="155.5" transform="matrix(0.8674 -0.4977 0.4977 0.8674 -49.401 132.7061)" class="st1" width="206.7" height="7.1"></rect> </g> </svg>