<svg xmlns="http://www.w3.org/2000/svg" xmlns:xlink="http://www.w3.org/1999/xlink" x="0px" y="0px" viewBox="0 0 627.7 627.7" style="enable-background:new 0 0 627.7 627.7;" xml:space="preserve"> <style type="text/css"> .st0{fill:#FF6800;} .st1{fill:#1C2E3F;stroke:#1C2E3F;stroke-width:11.33;stroke-linecap:round;stroke-linejoin:round;} .st2{fill:#4FC6AF;} .st3{fill:#FFFFFF;} </style> <g id="Data"> <g> <title>kow-your-data_new</title> <circle class="st0" cx="313.8" cy="313.8" r="313.8"></circle> <polygon class="st1" points="461,211 313.8,163.5 166.6,211.1 166.5,419.2 313.8,444.6 461,419.6 461,372.4 461,372.4 "></polygon> <polygon class="st0" points="319.2,235.4 319.3,172.1 361.4,185.3 361.4,247.4 "></polygon> <polygon class="st0" points="370.2,249.9 370.2,188.1 410.4,200.7 410.4,261.3 "></polygon> <polygon class="st0" points="418.8,263.7 418.8,203.4 456.1,215.1 456.1,274.2 "></polygon> <polygon class="st0" points="319.2,310.6 319.3,245.6 361.4,257.3 361.4,320.8 "></polygon> <polygon class="st0" points="370.2,323 370.2,259.7 410.4,270.8 410.4,332.7 "></polygon> <polygon class="st0" points="418.8,334.7 418.8,273.1 456.1,283.5 456.1,343.7 "></polygon> <polygon class="st0" points="418.8,405.3 418.8,344.2 456.1,352.9 456.1,412.9 "></polygon> <polygon class="st0" points="370.2,395.3 370.2,332.8 410.4,342.2 410.4,403.6 "></polygon> <polygon class="st0" points="319.3,384.9 319.3,320.9 361.4,330.8 361.4,393.5 "></polygon> <polygon class="st2" points="266.3,185.3 308.4,172.1 308.4,235.3 266.3,247.3 "></polygon> <polygon class="st2" points="266.3,257.3 308.4,245.6 308.4,310.7 266.3,320.8 "></polygon> <polygon class="st2" points="266.3,330.8 308.4,320.9 308.4,384.8 266.3,393.3 "></polygon> <polygon class="st2" points="217.2,200.7 257.4,188.1 257.4,249.9 217.2,261.4 "></polygon> <polygon class="st2" points="217.2,271 257.4,259.8 257.4,323.1 217.2,332.9 "></polygon> <polygon class="st2" points="217.2,342.3 257.4,332.9 257.4,395.1 217.2,403.2 "></polygon> <polygon class="st2" points="171.6,215 208.9,203.3 208.9,263.8 171.6,274.4 "></polygon> <polygon class="st2" points="171.6,283.6 208.9,273.3 208.9,334.9 171.6,344 "></polygon> <polygon class="st2" points="171.6,353.1 208.9,344.3 208.9,404.8 171.6,412.3 "></polygon> <g id="Offseet_paths"> <polygon class="st3" points="179.5,419.1 221.2,411.1 258.6,417.8 216.4,425.7 "></polygon> <polygon class="st3" points="229.7,409.4 268.1,402 305.4,409 267.5,416.1 "></polygon> <polygon class="st3" points="276.9,400.5 314.1,393.1 351.1,400.3 313.8,407.4 "></polygon> <polygon class="st3" points="225.2,427.1 267.5,419.3 305,425.9 261.6,433.6 "></polygon> <polygon class="st3" points="276.1,417.6 314.2,410.6 351.4,417.6 313.8,424.3 "></polygon> <polygon class="st3" points="322.7,409.1 360.3,402 397.7,409.3 360.2,416.1 "></polygon> <polygon class="st3" points="369.5,417.8 407.3,411.1 448.4,419 411.3,425.7 "></polygon> <polygon class="st3" points="323,425.9 360.9,419.3 402.6,427.1 366.1,433.6 "></polygon> <polygon class="st3" points="270.6,435.1 314.2,427.5 357.3,435.1 313.8,442.8 "></polygon> </g> <g> <polygon class="st3" points="127.4,383.2 141.6,387.3 160.8,381.7 160.8,373.4 "></polygon> <polygon class="st3" points="65.9,349.1 71.1,354.7 130.9,350 125.8,344.4 "></polygon> <polygon class="st3" points="130.7,315.6 128.2,318.3 130.7,315.6 "></polygon> <polygon class="st3" points="125.5,321.2 96.7,318.9 96.7,319 "></polygon> <polygon class="st3" points="70.9,310.9 101.8,313.2 71,310.8 "></polygon> <path class="st3" d="M125.6,321.1L125.6,321.1l2.6-2.8l2.5-2.8l0,0l-28.9-2.2l-30.9-2.4h-0.1l-2.9,3.2l-2.2,2.4l0,0l31,2.4 L125.6,321.1z M65.8,316.5l2.2-2.4l0,0L65.8,316.5z"></path> <polygon class="st3" points="65.8,316.5 68,314.1 67.9,314.1 "></polygon> <polygon class="st3" points="126.9,282.3 170.8,295.1 184.9,291 141,278.2 "></polygon> <polygon class="st3" points="238.5,261.7 254.5,279.2 273.8,277.7 257.8,260.2 "></polygon> <polygon class="st3" points="353.3,277.6 360.4,269.7 353.1,277.6 "></polygon> <polygon class="st3" points="388.6,261.6 388.4,261.6 382.3,268.4 "></polygon> <polygon class="st3" points="360.9,269.2 360.4,269.7 360.9,269.2 "></polygon> <polygon class="st3" points="372.4,279.1 363,278.4 363,278.4 "></polygon> <polygon class="st3" points="369.4,260.1 369.2,260.1 377.5,260.8 "></polygon> <polygon class="st3" points="353.3,277.6 353.3,277.6 363,278.4 372.4,279.1 372.6,279.1 380.2,270.7 382.3,268.4 380.2,270.6 388.4,261.6 388.4,261.6 388.4,261.6 388.4,261.6 377.5,260.8 369.3,260.1 369.1,260.1 360.9,269.2 "></polygon> <polygon class="st3" points="388.4,261.6 380.2,270.6 382.3,268.4 388.4,261.6 388.4,261.6 "></polygon> <polygon class="st3" points="500.2,282.1 486.1,278 442.3,290.8 456.5,295 "></polygon> <polygon class="st3" points="501.9,321 561.8,316.3 556.6,310.6 496.8,315.3 "></polygon> <polygon class="st3" points="499.9,346.6 499.4,347 499.9,346.6 "></polygon> <polygon class="st3" points="496.9,349.8 496.9,349.8 499.4,347 "></polygon> <polygon class="st3" points="502.1,344.1 502.1,344.2 531.8,346.5 "></polygon> <polygon class="st3" points="556.8,354.5 525.9,352.1 525.8,352.1 "></polygon> <path class="st3" d="M502.1,344.2L502.1,344.2l-2.2,2.4l-2.9,3.2l0,0l28.9,2.2l30.9,2.4h0l2.5-2.8l2.6-2.8l0,0l-30.2-2.3 L502.1,344.2z M561.8,348.9L561.8,348.9l-2.6,2.8L561.8,348.9z"></path> <polygon class="st3" points="561.8,348.9 559.3,351.7 561.9,348.9 "></polygon> <polygon class="st3" points="486.7,387.2 500.8,383 466.7,373.1 466.7,381.3 "></polygon> </g> </g> </g> <g id="Customer"> </g> </svg>