<svg xmlns="http://www.w3.org/2000/svg" xmlns:xlink="http://www.w3.org/1999/xlink" id="Layer_1" x="0px" y="0px" viewBox="0 0 627.7 627.7" style="enable-background:new 0 0 627.7 627.7;" xml:space="preserve"> <style type="text/css"> .st0{fill:#FF6800;} .st1{fill:#FFFFFF;} .st2{fill:#1C2E3F;} .st3{fill:#4FC6AF;} .st4{fill:none;stroke:#FFFFFF;stroke-width:9.7077;stroke-miterlimit:10;} </style> <title>know-your-customer_new</title> <g> <circle class="st0" cx="313.8" cy="313.8" r="313.8"></circle> <path class="st1" d="M157.5,420.7l-6.7,4.7c2,2.8,4.6,5,7.7,6.5l3.6-7.3C160.3,423.7,158.7,422.4,157.5,420.7"></path> <path class="st1" d="M477.6,224.2c-2.1,5.3-4.6,10.4-7.5,15.2l-7-4.2c2.7-4.4,5-9.1,6.9-13.9L477.6,224.2z M460.8,253.1 c-3.1,4.2-6.5,8.5-10.2,12.9l-6.2-5.3c3.6-4.3,6.9-8.5,9.9-12.6L460.8,253.1z M439.7,278.2c-3.6,3.8-7.4,7.8-11.4,11.8l-5.7-5.8 c3.9-3.9,7.7-7.8,11.2-11.5L439.7,278.2z M416.5,301.3c-3.9,3.6-7.9,7.2-12.1,10.9l-5.4-6.1c4.1-3.6,8.1-7.2,12-10.8L416.5,301.3z M391.9,322.8c-4.1,3.4-8.4,6.8-12.7,10.3l-5-6.4c4.3-3.4,8.5-6.8,12.6-10.1L391.9,322.8z M366.3,343.1c-4.3,3.2-8.7,6.4-13.2,9.7 l-4.7-6.6c4.4-3.2,8.8-6.3,13-9.5L366.3,343.1z M339.7,362.1c-4.5,3.1-9.1,6.1-13.6,9l-4.5-6.8c4.5-2.9,8.9-5.9,13.4-9L339.7,362.1 z M312.4,379.9c-4.7,2.9-9.4,5.7-14,8.4l-4.1-7c4.6-2.7,9.2-5.4,13.8-8.3L312.4,379.9z M284.2,396.4c-4.9,2.7-9.7,5.2-14.4,7.7 l-3.7-7.2c4.7-2.4,9.4-4.9,14.2-7.6L284.2,396.4z M255.1,411.3c-5.1,2.4-10.1,4.6-14.9,6.7l-3.3-7.4c4.7-2,9.7-4.2,14.7-6.6 L255.1,411.3z M224.9,424c-5.4,2-10.8,3.8-15.6,5.2l-2.3-7.8c4.8-1.4,9.9-3.1,15.1-5L224.9,424z M193.1,433.2 c-5.5,1.1-11.2,1.7-16.8,1.8v-8.1c5.2-0.1,10.3-0.7,15.4-1.8L193.1,433.2z"></path> <path class="st1" d="M477.1,196.9l-6.7,4.7c1.1,1.7,1.8,3.7,2,5.7l8.1-0.9C480.2,203,479.1,199.7,477.1,196.9"></path> <path class="st1" d="M150.7,196.9c-21,30.1,51.7,105.2,130.8,160.6s174.5,98,195.6,67.9l-6.7-4.7c-13.1,18.8-92.1-5.4-184.3-69.9 S144.4,220.4,157.5,201.6L150.7,196.9z"></path> <path class="st2" d="M441.3,413.2c-17.5-15.7-80.9-50.9-80.9-50.9s-0.8-8.4-2.6-12.2c0-0.1-0.1-0.2-0.1-0.4c-1.6-2.6-3.5-5-5.6-7.1 c-0.3-4.3-0.3-8.7,0-13c2.1-1.6,7.2-9.6,8.7-13.6s4.5-19.2,5.4-19.2s1.3,1.7,5.2,1.8c1.8-0.1,3.6-2.7,3.9-5 c0.2-1.1-0.5-3.6-0.2-6.2c0.3-2.6,5.3-15.1,6-17.2c1-3,3.6-5.7,4.1-7.2s2.6-12.2-1.2-13.9c-3.8-1.7-9.1,2.2-10.5,1.7 s0-10.8,0.6-12.8c1.9-7.6,2.9-15.3,2.9-23.1c-0.2-9.9-3.6-26.7-15.6-43.6c-7-9.9-28.2-24.1-44.2-22.5c2.3,1.3,3.7,3.6,3.9,6.1 c0,3.8-4.5,5.8-18.4,6.6c-14.1,0.5-24.8,5.4-35.9,16.5c-15.3,15.4-14.5,28.1-14.7,38c-0.1,6.5,0.4,13.1,1.4,19.5 c0.4,2.1,2.7,14.8,1.2,15.3c-1.5,0.5-6.7-3.3-10.5-1.7c-3.8,1.7-1.7,12.4-1.2,13.9c0.4,1.5,3.1,4.3,4.1,7.2c0.7,2,5.7,14.6,6,17.2 s-0.4,5.1-0.2,6.2c0.3,2.3,2.1,4.9,3.9,5c3.9-0.2,4.2-1.9,5.2-1.8c0.9,0.1,3.8,15.2,5.4,19.2s6.6,12,8.7,13.6c0.3,4.3,0.3,8.7,0,13 c-2.2,2.1-4,4.5-5.6,7.1c-2,3.6-2.8,12.6-2.8,12.6s-63.4,35.2-81,50.9c-7.9,7.2-10.9,18.1-15.1,50.1h284.7 C452.2,431.2,449.2,420.3,441.3,413.2z"></path> <path class="st3" d="M312,498.4c-29.8-11.8-49.1-37.7-49.1-65.9v-46.7l7.8,3.9c2.6,1.2,5.5,1.9,8.5,1.8c11,0,24.9-6.5,31-12.6 l3.8-3.8l3.8,3.8c6.2,6.2,19.6,12.9,30.5,12.9c3.1,0.1,6.1-0.6,8.9-2l7.9-4.3v47c0,29.4-19.7,56-49.3,66l-1.8,0.6L312,498.4z"></path> <path class="st2" d="M314,382.7c6.7,6.7,21.4,14.5,34.2,14.5c4,0.1,7.9-0.8,11.4-2.7v38c0,28.2-19.5,52-45.7,60.9 c-25.8-10.2-45.7-32.7-45.7-60.9v-38c3.4,1.6,7.1,2.4,10.9,2.3C292.1,396.8,307.3,389.4,314,382.7 M314,367.5l-7.6,7.6 c-4.6,4.6-17.2,11-27.2,11c-2.1,0.1-4.2-0.3-6.1-1.2l-15.6-7.8v55.4c0,16,5.4,31.5,15.4,43.9c9.8,12.1,22.5,21.3,37,26.9l3.7,1.5 l3.8-1.3c31.7-10.8,53-39.4,53-71.1v-56l-15.9,8.7c-2,1-4.1,1.4-6.3,1.3c-10,0-21.9-6.6-26.6-11.3L314,367.5z"></path> <polyline class="st4" points="340.2,423.5 303.5,465.1 287.7,449.3 "></polyline> <path class="st1" d="M452.1,187c-38.8,0-109.6,35.1-170.6,77.8c-79.1,55.4-151.8,130.5-130.7,160.6l6.7-4.7 C144.4,401.9,194,336,286.2,271.5s171.1-88.6,184.3-69.9l6.7-4.7C472.3,190,463.6,187,452.1,187"></path> <path class="st1" d="M472.4,415c-0.2,2-0.9,4-2,5.7l6.7,4.7c1.9-2.8,3.1-6.1,3.4-9.5L472.4,415z"></path> <path class="st1" d="M193.1,189l-1.5,8c-5.1-1-10.2-1.6-15.4-1.8v-8.1c5.7,0.1,11.3,0.7,16.8,1.8 M224.9,198.3l-2.8,7.6 c-5.2-1.9-10.3-3.6-15.1-5l2.3-7.8C214.2,194.5,219.5,196.3,224.9,198.3 M255.1,211l-3.5,7.4c-5-2.4-9.9-4.6-14.7-6.6l3.2-7.5 C245,206.4,250,208.7,255.1,211 M284.2,225.9l-3.9,7.2c-4.8-2.6-9.5-5.2-14.2-7.6l3.7-7.2c4.8,2.4,9.6,5,14.4,7.7 M312.4,242.5 l-4.3,6.9c-4.6-2.9-9.2-5.6-13.8-8.3l4.1-7C303,236.8,307.6,239.6,312.4,242.5 M339.7,260.3l-4.6,6.7c-4.5-3.1-9-6.1-13.4-9 l4.4-6.8C330.6,254.2,335.1,257.2,339.7,260.3 M366.2,279.4l-4.9,6.5c-4.2-3.2-8.6-6.4-13-9.5l4.7-6.6 C357.5,272.9,361.9,276.1,366.2,279.4 M391.8,299.6l-5.2,6.3c-4.1-3.4-8.3-6.8-12.6-10.1l5-6.4 C383.5,292.7,387.7,296.1,391.8,299.6 M416.4,321.1l-5.5,5.8c-3.8-3.6-7.8-7.2-12-10.8l5.4-6.1c4.2,3.7,8.2,7.3,12.1,10.9 M439.6,344l-6,5.5c-3.6-3.8-7.3-7.7-11.2-11.5l5.7-5.8C432.2,336.2,436,340.1,439.6,344 M460.8,369.1l-6.5,4.8 c-3-4-6.3-8.2-9.9-12.6l6.2-5.2C454.3,360.6,457.7,364.9,460.8,369.1 M477.5,398.1l-7.6,3c-1.9-4.8-4.2-9.5-6.9-13.9l7-4.2 c2.9,4.8,5.4,9.9,7.5,15.2"></path> <path class="st1" d="M158.5,190.5c-3.1,1.5-5.7,3.7-7.7,6.5l6.7,4.7c1.2-1.7,2.8-3,4.6-3.8L158.5,190.5z"></path> </g> </svg>