<svg xmlns="http://www.w3.org/2000/svg" xmlns:xlink="http://www.w3.org/1999/xlink" id="RD_Concordance_Service" x="0px" y="0px" viewBox="0 0 50 50" style="enable-background:new 0 0 50 50;" xml:space="preserve"> <style type="text/css"> .st0{fill:#496885;} .st1{fill:none;stroke:#496885;stroke-width:2;stroke-miterlimit:10;} </style> <g id="XMLID_3_"> <g> <g id="XMLID_4_"> <g> <g> <g> <path class="st0" d="M15.4,39.8l6.5-6.2c-1.2-1.8-1.8-3.9-1.8-6.1c0.1-6.1,5.2-11.1,11.3-11c6.1,0.1,11.1,5,11,11.3 c-0.1,6.1-5.2,11.1-11.3,11c-2.1,0-4.1-0.7-5.7-1.8l-6.5,6.4c-0.4,0.4-1.2,0-1.9-0.7L16,41.8C15.4,41,15.1,40.1,15.4,39.8z M31.2,35c4.1,0,7.4-3.2,7.5-7.3c0-4.1-3.2-7.4-7.3-7.5c-4.1,0-7.4,3.2-7.5,7.3C23.8,31.6,27,35,31.2,35z"></path> </g> </g> </g> </g> </g> </g> <polyline class="st1" points="44.9,-1.1 29.4,30 14.1,14.9 -0.9,46.4 "></polyline> <circle class="st0" cx="14.2" cy="15.2" r="2.5"></circle> <circle class="st0" cx="29.6" cy="30" r="2.5"></circle> </svg>