<svg xmlns="http://www.w3.org/2000/svg" xmlns:xlink="http://www.w3.org/1999/xlink" id="Alacra_Compliance_Enterprise" x="0px" y="0px" viewBox="0 0 359 360" style="enable-background:new 0 0 359 360;" xml:space="preserve"> <style type="text/css"> .st0{fill:#496885;} </style> <path class="st0" d="M125.3,180.5h131.9v14H125.3V180.5L125.3,180.5z M125.3,229.5h131.9v-14H125.3V229.5L125.3,229.5z M125.3,264.6 h131.9v-14H125.3V264.6L125.3,264.6z M286.2,117v185H96.9V154.6l14,3.6v130.6h161.5V128.6h-60.5V71h-44.2l-10.9-13.9h67.8L286.2,117 z M225.7,114.6h38.1l-38.1-36.9V114.6L225.7,114.6z M257.2,144.8h-94.9l-18.7,13.2v0.6h113.7L257.2,144.8L257.2,144.8z M159.8,112.8 c0.6,0.6,1.2,1.9,0.6,2.4l-8.5,14c-0.6,0.6-1.9,1.2-2.4,0.6l-10.3-4.2c-2.4,1.9-4.2,3-6.6,4.2l-1.9,10.9c0,1.2-1.2,1.9-1.9,1.9 h-16.2c-1.2,0-1.9-0.6-1.9-1.9l-1.9-10.9c-2.4-1.2-4.8-2.4-6.6-4.2l-10.3,4.2c-0.6,0.6-1.9,0-2.4-0.6l-8.4-14 c-0.6-0.6-0.6-1.9,0-2.4l8.5-6.6V102v-4.2l-8.5-6.6c-0.6-0.6-0.6-1.9,0-2.4l8.5-14c0.6-0.6,1.9-1.2,2.4-0.6l10.3,4.2 c2.4-1.9,4.2-3,6.6-4.2l1.9-10.9c0-1.2,1.2-1.9,1.9-1.9H129c1.2,0,1.9,0.6,1.9,1.9l1.9,10.9c2.4,1.2,4.8,2.4,6.6,4.2l10.3-4.2 c0.6-0.6,1.9,0,2.4,0.6l8.5,14c0.6,0.6,0,1.9-0.6,2.4l-8.5,6.6v8.5L159.8,112.8L159.8,112.8z M135,101.9c0-7.9-6.6-14.5-14.5-14.5 S106,94,106,101.9s6.6,14.5,14.5,14.5S135,109.8,135,101.9z"></path> </svg>