<svg xmlns="http://www.w3.org/2000/svg" xmlns:xlink="http://www.w3.org/1999/xlink" id="RD_Concordance_Service" x="0px" y="0px" viewBox="0 0 50 50" style="enable-background:new 0 0 50 50;" xml:space="preserve"> <style type="text/css"> .st0{fill:#496885;} </style> <g> <g> <rect x="21.7" y="13.3" class="st0" width="7.9" height="1.7"></rect> <rect x="41.9" y="13.3" class="st0" width="7.9" height="1.7"></rect> <rect x="27.8" y="3.1" transform="matrix(0.7071 -0.7071 0.7071 0.7071 3.4308 22.306)" class="st0" width="1.7" height="7.9"></rect> <rect x="42.1" y="17.3" transform="matrix(0.7071 -0.7071 0.7071 0.7071 -2.4801 36.5782)" class="st0" width="1.7" height="7.9"></rect> <rect x="34.9" y="0.1" class="st0" width="1.7" height="7.9"></rect> <rect x="34.9" y="20.3" class="st0" width="1.7" height="7.9"></rect> <rect x="39" y="6.1" transform="matrix(0.7073 -0.7069 0.7069 0.7073 7.6047 32.389)" class="st0" width="7.9" height="1.7"></rect> </g> <g> <rect x="28.4" y="13.7" transform="matrix(0.7071 -0.7071 0.7071 0.7071 -1.657 28.6568)" class="st0" width="10.8" height="5.3"></rect> <rect x="-3.3" y="32" transform="matrix(0.7071 -0.7071 0.7071 0.7071 -19.9963 21.0604)" class="st0" width="37.5" height="5.3"></rect> </g> </g> </svg>