<svg xmlns="http://www.w3.org/2000/svg" xmlns:xlink="http://www.w3.org/1999/xlink" id="Alacra_Compliance_Enterprise" x="0px" y="0px" viewBox="0 0 360 360" style="enable-background:new 0 0 360 360;" xml:space="preserve"> <style type="text/css"> .st0{fill:#496885;} </style> <rect x="130.7" y="179" class="st0" width="131.9" height="14"></rect> <rect x="130.7" y="214.2" class="st0" width="131.9" height="14"></rect> <rect x="130.7" y="249.3" class="st0" width="131.9" height="14"></rect> <path class="st0" d="M291.6,115.6v185H102.3V153.1l14,3.6v130.6h161.5V127h-60.5V69.6h-44.2l-10.9-14h67.7L291.6,115.6z M231.1,113.1h38.1l-38.1-36.9L231.1,113.1L231.1,113.1z"></path> <polygon class="st0" points="262.6,143.3 167.7,143.3 149,156.8 149,157.3 262.6,157.3 "></polygon> <g> <path class="st0" d="M100.5,137.1c-0.3,0-0.9-0.2-0.9-0.6l-1.4-6.9c0-0.3,0.2-0.9,0.6-0.9l4.5-1.7c0.2-1.3,0.5-2.2,0.8-3.3l-2.6-4 c-0.3-0.4-0.2-0.9,0.1-1.1l5.2-4.8c0.4-0.3,0.7-0.3,1,0.1l3.8,2.9c1.1-0.3,2.3-0.6,3.4-0.6l2-4.4c0-0.3,0.6-0.5,0.9-0.5l6.8,1.9 c0.3,0,0.7,0.4,0.6,0.7l-0.7,4.6l1.3,1.4l1.3,1.4l4.6-0.3c0.3,0,0.7,0.4,0.6,0.7l1.4,6.9c0,0.3-0.2,0.9-0.6,0.9l-4.5,1.7 c-0.2,1.3-0.5,2.2-0.8,3.3l2.6,4c0.3,0.4,0.2,0.9-0.1,1.1l-5.2,4.8c-0.4,0.3-0.7,0.3-1-0.1l-3.8-2.9c-1.1,0.3-2.3,0.6-3.4,0.6 l-2,4.4c0,0.3-0.6,0.5-0.9,0.5l-6.8-1.9c-0.3,0-0.5-0.6-0.5-0.9l0.7-4.6l-2.5-2.7L100.5,137.1L100.5,137.1z M111.6,133.3 c2.3,2.5,6.4,2.7,8.9,0.3c2.5-2.3,2.7-6.4,0.3-8.9c-2.3-2.5-6.4-2.7-8.9-0.3C109.5,126.7,109.3,130.8,111.6,133.3z"></path> <path class="st0" d="M134.4,113.2c-0.6,0-1.4-0.3-1.4-0.9l-2-10.3c0-0.6,0.3-1.4,0.9-1.4l6.7-2.5c0.3-1.9,0.6-3.3,1.4-4.9l-3.9-6 c-0.5-0.6-0.2-1.5,0.1-1.7l7.8-7.1c0.6-0.5,1-0.5,1.7,0.1l5.7,4.4c1.7-0.5,3.4-0.9,5-0.9l3-6.5c0-0.6,0.8-0.7,1.5-0.7l10.1,2.9 c0.6,0,1.1,0.6,1.1,1.2l-1.1,6.9l1.9,2l1.9,2l6.9-0.5c0.6,0,1,0.6,1,1.2l2,10.3c0,0.6-0.3,1.4-0.9,1.4l-6.7,2.5 c-0.3,1.9-0.6,3.3-1.4,4.9l3.9,6c0.5,0.6,0.2,1.5-0.1,1.7l-7.8,7.1c-0.6,0.5-1.1,0.5-1.7-0.1l-5.7-4.4c-1.7,0.5-3.4,0.9-5,0.9 l-3,6.5c0,0.6-0.8,0.7-1.5,0.7l-10.1-2.9c-0.6,0-0.7-0.8-0.7-1.5l1-6.9l-3.7-4L134.4,113.2L134.4,113.2z M151.1,107.6 c3.5,3.8,9.4,4,13.2,0.6c3.8-3.5,4-9.5,0.6-13.2c-3.5-3.8-9.4-4-13.2-0.6C147.8,97.7,147.5,103.8,151.1,107.6z"></path> <path class="st0" d="M70.8,90.9c-0.7,0-1.8-0.4-1.8-1.2l-2.6-13.7c0-0.7,0.4-1.8,1.2-1.8l8.9-3.3c0.5-2.5,0.9-4.4,1.8-6.5l-5.1-7.9 c-0.6-0.7-0.2-1.9,0.1-2.2L83.6,45c0.7-0.6,1.5-0.6,2.2,0.1l7.3,5.8c2.2-0.6,4.4-1.3,6.6-1.2l4-8.6c0-0.7,1.2-1,1.9-1l13.3,3.9 c0.7,0,1.5,0.7,1.5,1.5l-1.5,9l2.4,2.7l2.4,2.7l9.1-0.6c0.7,0,1.5,0.7,1.5,1.5l2.7,13.7c0,0.7-0.4,1.8-1.2,1.8l-8.9,3.3 c-0.5,2.5-0.9,4.4-1.8,6.5l5.1,7.9c0.6,0.7,0.2,1.9-0.1,2.2l-10.3,9.2c-0.7,0.6-1.5,0.6-2.2-0.1l-7.3-5.8c-2.2,0.6-4.4,1.3-6.6,1.2 l-4,8.6c0,0.7-1.2,1-1.9,1l-13.3-3.9c-0.7,0-1-1.2-1-1.9l1.5-9l-4.8-5.2L70.8,90.9L70.8,90.9z M92.7,83.5 c4.5,4.9,12.5,5.2,17.4,0.7c4.9-4.5,5.2-12.5,0.7-17.4c-4.5-4.9-12.5-5.2-17.4-0.7C88.5,70.5,88.2,78.5,92.7,83.5z"></path> </g> </svg>