<svg xmlns="http://www.w3.org/2000/svg" xmlns:xlink="http://www.w3.org/1999/xlink" id="Layer_1" x="0px" y="0px" viewBox="0 0 50 50" xml:space="preserve"> <g> <g> <polygon fill="#496885" points="18.3,14.5 16.6,14.5 16.6,12.9 17.9,12.1 18.8,13.5 18.3,13.8 "></polygon> <rect x="20.4" y="9.9" transform="matrix(0.5196 0.8544 -0.8544 0.5196 19.622 -12.8086)" fill="#496885" width="1.7" height="2.2"></rect> <polygon fill="#496885" points="25.5,10 25,9.7 24.5,10 23.6,8.6 25,7.8 26.4,8.6 "></polygon> <rect x="27.7" y="10.2" transform="matrix(0.8544 0.5197 -0.5197 0.8544 9.9352 -13.3508)" fill="#496885" width="2.2" height="1.7"></rect> <polygon fill="#496885" points="33.4,14.5 31.7,14.5 31.7,13.8 31.2,13.5 32.1,12.1 33.4,12.9 "></polygon> <rect x="31.7" y="16.8" fill="#496885" width="1.7" height="2.3"></rect> <rect x="16.6" y="16.8" fill="#496885" width="1.7" height="2.3"></rect> </g> <g> <polygon fill="#496885" points="10.7,28.3 9,28.3 9,26.7 10.4,25.9 11.2,27.3 10.7,27.7 "></polygon> <rect x="12.9" y="23.7" transform="matrix(0.5146 0.8574 -0.8574 0.5146 27.9837 0.2812)" fill="#496885" width="1.7" height="2.3"></rect> <rect x="20.7" y="37.8" transform="matrix(0.5147 0.8574 -0.8574 0.5147 43.8168 0.4111)" fill="#496885" width="1.7" height="2.3"></rect> <polygon fill="#496885" points="17.6,42.2 16.3,41.4 17.1,40 17.6,40.3 18.2,40 19,41.4 "></polygon> <rect x="12.6" y="38.1" transform="matrix(0.8574 0.5147 -0.5147 0.8574 21.9852 -1.5249)" fill="#496885" width="2.3" height="1.7"></rect> <polygon fill="#496885" points="10.4,37.9 9,37 9,35.5 10.7,35.5 10.7,36.1 11.2,36.4 "></polygon> <rect x="9" y="30.7" fill="#496885" width="1.7" height="2.4"></rect> </g> <g> <rect x="35.1" y="24" transform="matrix(0.8574 0.5147 -0.5147 0.8574 17.9623 -15.1149)" fill="#496885" width="2.3" height="1.7"></rect> <polygon fill="#496885" points="41,28.3 39.3,28.3 39.3,27.7 38.8,27.3 39.6,25.9 41,26.7 "></polygon> <rect x="39.3" y="30.7" fill="#496885" width="1.7" height="2.4"></rect> <polygon fill="#496885" points="39.6,37.9 38.8,36.4 39.3,36.1 39.3,35.5 41,35.5 41,37 "></polygon> <rect x="35.4" y="37.8" transform="matrix(0.5147 0.8574 -0.8574 0.5147 50.946 -12.1938)" fill="#496885" width="1.7" height="2.3"></rect> <polygon fill="#496885" points="32.4,42.2 31,41.4 31.8,40 32.4,40.3 32.9,40 33.7,41.4 "></polygon> <rect x="27.3" y="38.1" transform="matrix(0.8574 0.5147 -0.5147 0.8574 24.0839 -9.0954)" fill="#496885" width="2.3" height="1.7"></rect> <polygon fill="#496885" points="33.7,22.4 33.4,22.2 33.4,21.5 31.7,21.5 31.7,22.1 25,18 18.3,22.1 18.3,21.5 16.6,21.5 16.6,22.2 16.3,22.4 17.1,23.8 17.4,23.6 17.4,31.9 23.7,35.8 23.7,37 25,37.8 26.3,37 26.3,35.8 32.6,31.9 32.6,23.6 32.9,23.8 "></polygon> </g> </g> </svg>