<svg xmlns="http://www.w3.org/2000/svg" xmlns:xlink="http://www.w3.org/1999/xlink" id="RD_Concordance_Service" x="0px" y="0px" viewBox="0 0 50 50" style="enable-background:new 0 0 50 50;" xml:space="preserve"> <style type="text/css"> .st0{fill:#496885;} </style> <g> <g> <polygon class="st0" points="15.6,11.2 14.4,11.2 14.4,9.4 15.9,8.6 16.6,9.6 15.6,10.1 "></polygon> <rect x="18.5" y="6.2" transform="matrix(0.8532 -0.5215 0.5215 0.8532 -0.6021 11.416)" class="st0" width="2.9" height="1.2"></rect> <polygon class="st0" points="25.9,4.9 25,4.4 24.1,4.9 23.4,3.9 25,2.9 26.6,3.9 "></polygon> <rect x="29.4" y="5.3" transform="matrix(0.5217 -0.8531 0.8531 0.5217 8.608 28.7843)" class="st0" width="1.2" height="2.9"></rect> <polygon class="st0" points="35.6,11.2 34.4,11.2 34.4,10.1 33.4,9.6 34,8.6 35.6,9.4 "></polygon> <rect x="34.4" y="14.3" class="st0" width="1.2" height="3.1"></rect> <polygon class="st0" points="34,23.4 33.4,22.2 34.4,21.7 34.4,20.6 35.6,20.6 35.6,22.4 "></polygon> <polygon class="st0" points="15.9,23.4 14.4,22.4 14.4,20.6 15.6,20.6 15.6,21.7 16.6,22.2 "></polygon> <rect x="14.4" y="14.3" class="st0" width="1.2" height="3.1"></rect> </g> <g> <polygon class="st0" points="5.6,29.6 4.4,29.6 4.4,27.8 6,26.9 6.6,27.9 5.6,28.5 "></polygon> <rect x="8.6" y="24.4" transform="matrix(0.8532 -0.5215 0.5215 0.8532 -11.5808 8.9195)" class="st0" width="2.9" height="1.2"></rect> <polygon class="st0" points="15.9,23.4 15,22.8 14.1,23.4 13.4,22.2 15,21.4 16.6,22.2 "></polygon> <polygon class="st0" points="24.1,41.7 23.4,40.5 24.4,40 24.4,38.9 25.6,38.9 25.6,40.7 "></polygon> <rect x="18.5" y="42.8" transform="matrix(0.8532 -0.5215 0.5215 0.8532 -19.6959 16.7763)" class="st0" width="2.9" height="1.2"></rect> <polygon class="st0" points="15,47.2 13.4,46.2 14.1,45.2 15,45.8 15.9,45.2 16.6,46.2 "></polygon> <rect x="9.4" y="42" transform="matrix(0.5217 -0.8531 0.8531 0.5217 -32.2353 29.3272)" class="st0" width="1.2" height="2.9"></rect> <polygon class="st0" points="6,41.7 4.4,40.7 4.4,38.9 5.6,38.9 5.6,40 6.6,40.5 "></polygon> <rect x="4.4" y="32.7" class="st0" width="1.2" height="3.1"></rect> </g> <g> <polygon class="st0" points="35.9,23.4 35,22.8 34,23.4 33.4,22.2 35,21.4 36.5,22.2 "></polygon> <rect x="39.4" y="23.6" transform="matrix(0.5217 -0.8531 0.8531 0.5217 -2.2372 46.1422)" class="st0" width="1.2" height="2.9"></rect> <polygon class="st0" points="45.6,29.6 44.4,29.6 44.4,28.5 43.4,27.9 44,26.9 45.6,27.8 "></polygon> <rect x="44.4" y="32.7" class="st0" width="1.2" height="3.1"></rect> <polygon class="st0" points="44,41.7 43.4,40.5 44.4,40 44.4,38.9 45.6,38.9 45.6,40.7 "></polygon> <rect x="38.5" y="42.8" transform="matrix(0.8532 -0.5215 0.5215 0.8532 -16.7536 27.202)" class="st0" width="2.9" height="1.2"></rect> <polygon class="st0" points="35,47.2 33.4,46.2 34,45.2 35,45.8 35.9,45.2 36.5,46.2 "></polygon> <rect x="29.4" y="41.9" transform="matrix(0.5217 -0.8531 0.8531 0.5217 -22.6551 46.3659)" class="st0" width="1.2" height="2.9"></rect> <polygon class="st0" points="25.9,41.7 24.4,40.7 24.4,38.9 25.6,38.9 25.6,40 26.6,40.5 "></polygon> </g> <polygon class="st0" points="15,22.1 25,15.9 35,22.1 35,34.2 25,40.4 15,34.2 "></polygon> </g> </svg>