<svg xmlns="http://www.w3.org/2000/svg" viewBox="0 0 1600 55.67"><defs><style>.cls-1,.cls-2,.cls-3{fill:#ff6800;}.cls-2{opacity:0.3;}.cls-3{opacity:0.5;}.cls-4{fill:#1c2e3f;}</style></defs><title>Asset 5</title><g id="Layer_2" data-name="Layer 2"><g id="wave_ladning" data-name="wave ladning"><path class="cls-1" d="M1600,33.28c-84.66-15.41-148.19-24.63-273.45-27.89-231.49-6-776.27,39.34-1059.88,39.34C126.28,44.73,75.06,38.37,0,32.48,0,56.26,0,49.87,0,49.87H1600Z"/><path class="cls-2" d="M1600,11.42C1572.55,4.84,1537-.33,1482.31,0,1338.71.92,1209,37.83,1103.4,37.83c-52.29,0-71.37-6.37-99.32-12.25V43H1600Z"/><path class="cls-3" d="M0,38.28c63-31.8,172.9-22,229-16.41C426.06,41.48,600.38,44.73,884,44.73c140.39,0,640.94-6.37,716-12.25V49.87H0Z"/><path class="cls-2" d="M123,50.65C260,38.81,376.11-8.79,500.64,11.43,565,21.87,586.07,37.64,619.47,40.62c66.45,5.91,234.27-2.25,264.61-8.14V49.87H410.8Z"/><path class="cls-4" d="M1600,37.51c-109.28-19.25-186.9-23.14-273.45-25.08C966.66,4.35,576.84,47.6,242.61,47.6,175.78,47.6,74.16,42.37,0,38.28,0,62.06,0,54.55,0,54.55H1600Z"/></g></g></svg>