<svg xmlns="http://www.w3.org/2000/svg" viewBox="0 0 515 54.55"><defs><style>.cls-1,.cls-2{fill:#ff6800;}.cls-2{opacity:0.3;}.cls-3{fill:#f9f9f9;}</style></defs><title>Asset 4</title><g id="Layer_2" data-name="Layer 2"><g id="wave_detail" data-name="wave detail"><path class="cls-1" d="M241.55,12.43h.2q22.13-3,44.92-5.5c-14.15-.61-29.13-1.13-45.12-1.54C179.73,3.78,95.57,5.84,0,9.72v3.85C81.36,11.37,162.18,10.65,241.55,12.43Z"/><path class="cls-2" d="M515,11.42C487.55,4.84,452-.33,397.31,0c-37.92.24-74.85,3-110.64,6.92C383.37,11.11,441.15,19.85,515,33.28Z"/><path class="cls-1" d="M515,37.51V33.28C441.15,19.85,383.37,11.11,286.67,6.93q-22.77,2.49-44.92,5.5C328.22,14.38,405.8,18.27,515,37.51Z"/><path class="cls-2" d="M515,37.51V33.28C441.15,19.85,383.37,11.11,286.67,6.93q-22.77,2.49-44.92,5.5C328.22,14.38,405.8,18.27,515,37.51Z"/><path class="cls-3" d="M515,37.51C405.8,18.27,328.22,14.38,241.75,12.43h-.2C162.18,10.65,81.36,11.37,0,13.56v41H515v-17Z"/></g></g></svg>