<?xml version="1.0" encoding="utf-8"?>
<!-- Generator: Adobe Illustrator 21.1.0, SVG Export Plug-In . SVG Version: 6.00 Build 0)  -->
<svg version="1.1" id="Layer_1" xmlns="http://www.w3.org/2000/svg" xmlns:xlink="http://www.w3.org/1999/xlink" x="0px" y="0px"
	 viewBox="0 0 2600 300" style="enable-background:new 0 0 2600 300;" xml:space="preserve">
<style type="text/css">
	.st0{clip-path:url(#SVGID_2_);}
	.st1{fill:#F16A24;}
	.st2{fill:#1A2E3F;}
</style>
<title>Artboard 1</title>
<g>
	<g>
		<defs>
			<rect id="SVGID_1_" y="-5" width="2389" height="305"/>
		</defs>
		<clipPath id="SVGID_2_">
			<use xlink:href="#SVGID_1_"  style="overflow:visible;"/>
		</clipPath>
		<g class="st0">
			<path class="st1" d="M2046.3-17.9c268.9,53.8,568.3,340.1,672.3,478c104.8,139.5,259.1,243.5,443.9,280.6
				c398.5,80,786.3-177.6,867.8-575.5v-0.1c0.2-0.4,0.3-0.8,0.2-1.2c0.1-0.5,0.4-0.9,0.5-1.3l-0.2-0.1
				c78.6-398.4-179.7-785.8-578.4-865.9c-184.8-37.1-366.6-0.8-517.5,87.6c-149.2,86.9-535.9,235-804.8,181.4
				c-315.2-63.5-537.2-291.5-672.3-477.7c-104.9-140.1-259-243.8-444.2-281.2C615-1273.5,227.1-1015.8,145.7-618h-0.2
				c0.1,0.5,0.1,1.3,0.1,1.3c-0.3,0.5-0.3,0.9-0.6,1.3h0.2C66.6-216.8,324.9,170.5,723.6,250.8c185,37,362.7-7.5,518.1-87.7
				C1444,58.5,1730.8-81.5,2046.3-17.9"/>
			<path class="st2" d="M1998.9,38.9c262.1,80.6,531.3,395.5,620.9,543c90.3,149.3,233.4,268.3,413.4,323.7
				c388.4,119.6,800.1-97.8,921.1-485.5V420c0.2-0.3,0.4-0.7,0.4-1.1c0.1-0.5,0.5-0.8,0.6-1.2l-0.2-0.1
				c118.2-388.5-99.9-799.9-488.6-919.6c-180.1-55.5-364.6-37.6-523.6,35.2c-157.1,71.5-556.8,180-819,99.7
				c-307.2-94.8-505.2-344-621-542.8c-90.4-149.9-233.3-268.6-413.7-324.3c-388.3-119.7-800.1,97.8-921.1,485.4H168
				c0,0.5-0.1,1.3-0.1,1.3c-0.3,0.5-0.4,0.8-0.7,1.3h0.2C49.2-357.8,267.4,53.5,655.9,173.4c180.4,55.4,361.6,29,524.3-35.2
				C1391.5,54.6,1691.4-56,1998.9,38.9"/>
		</g>
	</g>
</g>
</svg>
