<?xml version="1.0" encoding="utf-8"?>
<!-- Generator: Adobe Illustrator 20.0.0, SVG Export Plug-In . SVG Version: 6.00 Build 0)  -->
<svg version="1.1" id="youtube" xmlns="http://www.w3.org/2000/svg" xmlns:xlink="http://www.w3.org/1999/xlink" x="0px" y="0px"
	 viewBox="0 0 40 40" style="enable-background:new 0 0 40 40;" xml:space="preserve">
<style type="text/css">
	.st0{fill:#56738F;}
</style>
<g>
	<polygon class="st0" points="17.8,22.8 23.6,19.8 17.8,16.8 	"/>
	<path class="st0" d="M20,0C9,0,0,9,0,20c0,11,9,20,20,20c11,0,20-9,20-20C40,9,31,0,20,0z M30.7,20.8c0,1.7-0.2,3.5-0.2,3.5
		s-0.2,1.5-0.9,2.1c-0.8,0.9-1.7,0.9-2.1,0.9c-3,0.2-7.5,0.2-7.5,0.2s-5.6-0.1-7.3-0.2c-0.5-0.1-1.5-0.1-2.4-0.9
		c-0.6-0.6-0.9-2.1-0.9-2.1s-0.2-1.7-0.2-3.5v-1.6c0-1.7,0.2-3.5,0.2-3.5s0.2-1.5,0.9-2.1c0.8-0.9,1.7-0.9,2.1-0.9
		c3-0.2,7.5-0.2,7.5-0.2h0c0,0,4.5,0,7.5,0.2c0.4,0.1,1.3,0.1,2.1,0.9c0.6,0.6,0.9,2.1,0.9,2.1s0.2,1.7,0.2,3.5V20.8z"/>
</g>
</svg>
