<?xml version="1.0" encoding="utf-8"?>
<!-- Generator: Adobe Illustrator 20.0.0, SVG Export Plug-In . SVG Version: 6.00 Build 0)  -->
<svg version="1.1" id="twitter" xmlns="http://www.w3.org/2000/svg" xmlns:xlink="http://www.w3.org/1999/xlink" x="0px" y="0px"
	 viewBox="0 0 40 40" style="enable-background:new 0 0 40 40;" xml:space="preserve">
<style type="text/css">
	.st0{fill:#56738F;}
</style>
<path class="st0" d="M20,0C9,0,0,9,0,20s9,20,20,20c11,0,20-9,20-20S31,0,20,0z M28.7,15.5c0,0.2,0,0.4,0,0.6
	c0,5.9-4.5,12.7-12.7,12.7c-2.5,0-4.9-0.7-6.9-2c0.4,0,0.7,0.1,1.1,0.1c2.1,0,4-0.7,5.6-1.9c-2,0-3.6-1.3-4.2-3.1
	c0.3,0.1,0.6,0.1,0.8,0.1c0.4,0,0.8-0.1,1.2-0.2c-2-0.4-3.6-2.2-3.6-4.4c0,0,0,0,0-0.1c0.6,0.3,1.3,0.5,2,0.6c-1.2-0.8-2-2.2-2-3.7
	c0-0.8,0.2-1.6,0.6-2.3c2.2,2.7,5.5,4.5,9.2,4.7c-0.1-0.3-0.1-0.7-0.1-1c0-2.5,2-4.5,4.5-4.5c1.3,0,2.5,0.5,3.3,1.4
	c1-0.2,2-0.6,2.8-1.1c-0.3,1-1,1.9-2,2.5c0.9-0.1,1.8-0.3,2.6-0.7C30.3,14.1,29.6,14.9,28.7,15.5z"/>
</svg>
