<?xml version="1.0" encoding="utf-8"?>
<!-- Generator: Adobe Illustrator 20.0.0, SVG Export Plug-In . SVG Version: 6.00 Build 0)  -->
<svg version="1.1" id="contact" xmlns="http://www.w3.org/2000/svg" xmlns:xlink="http://www.w3.org/1999/xlink" x="0px" y="0px"
	 viewBox="0 0 30 30" style="enable-background:new 0 0 30 30;" xml:space="preserve">
<style type="text/css">
	.st0{fill:#FFFFFF;}
</style>
<path class="st0" d="M23.2,19.7v-1.2c0-2.7-5.4-4.2-8.2-4.2s-8.2,1.5-8.2,4.2v1.2H23.2z M15,5.2c-2,0-3.7,1.7-3.7,3.7
	s1.7,3.6,3.7,3.6s3.7-1.6,3.7-3.6S17,5.2,15,5.2z M24.5,0.7c1.5,0,2.7,1.2,2.7,2.7v19.1c0,1.5-1.3,2.7-2.7,2.7h-5.4L15,29.3
	l-4.1-4.1H5.5c-1.5,0-2.7-1.3-2.7-2.7V3.4c0-1.5,1.2-2.7,2.7-2.7L24.5,0.7L24.5,0.7z"/>
</svg>
