<?xml version="1.0" encoding="utf-8"?>
<!-- Generator: Adobe Illustrator 20.0.0, SVG Export Plug-In . SVG Version: 6.00 Build 0)  -->
<svg version="1.1" id="know_your_customer" xmlns="http://www.w3.org/2000/svg" xmlns:xlink="http://www.w3.org/1999/xlink" x="0px"
	 y="0px" viewBox="0 0 170 170" style="enable-background:new 0 0 170 170;" xml:space="preserve">
<style type="text/css">
	.st0{fill:#FF6800;}
	.st1{opacity:0.6;fill:#D15400;}
	.st2{fill:#36566B;}
	.st3{fill:#1C2E3F;}
	.st4{fill:#FFFFFF;}
	.st5{fill:#4FC6AF;}
</style>
<g>
	<circle class="st0" cx="85" cy="85" r="85"/>
	<path class="st1" d="M168.1,103.1l-44.4-44.4l-12.2-12.2l-6.1-3.5l-5.7,6.5l-11-11h-7.1l-2.1,10.3h0.1c-2.5,0.4-4.8,1-7.1,1.8
		l-7.6-7.6l0,0l-6.1,3.5l3.4,10c-2.1,1.7-4,3.6-5.6,5.6l-9.9-3.4l-3.5,6.1l0,0l7.6,7.6c-0.8,2.3-1.4,4.6-1.8,7l-10.3,2.1v7.1l11,11
		l-6.5,5.7l3.5,6.1l12.2,12.2l0,0l44.4,44.4C135.5,161,161,135.5,168.1,103.1z"/>
	<g>
		<polygon class="st2" points="88.5,38.4 81.5,38.4 79.4,48.7 90.6,48.7 		"/>
		<polygon class="st2" points="64.8,42.9 58.6,46.4 62,56.3 71.7,50.7 		"/>
		<polygon class="st2" points="46.4,58.6 42.9,64.7 50.7,71.7 56.3,62 		"/>
		<polygon class="st2" points="38.4,81.5 38.4,88.5 48.7,90.6 48.7,79.4 		"/>
		<polygon class="st2" points="42.9,105.2 46.4,111.4 56.3,108 50.7,98.3 		"/>
		<polygon class="st2" points="58.6,123.6 64.8,127.1 71.7,119.3 62,113.6 		"/>
		<polygon class="st2" points="81.5,131.6 88.5,131.6 90.6,121.3 79.4,121.3 		"/>
		<polygon class="st2" points="105.2,127.1 111.4,123.6 108,113.6 98.3,119.3 		"/>
		<polygon class="st2" points="123.6,111.4 127.1,105.2 119.3,98.3 113.7,108 		"/>
		<polygon class="st2" points="131.6,88.5 131.6,81.5 121.3,79.4 121.3,90.6 		"/>
		<polygon class="st2" points="127.1,64.7 123.6,58.6 113.7,62 119.3,71.7 		"/>
		<polygon class="st2" points="111.4,46.4 105.2,42.9 98.3,50.7 108,56.3 		"/>
	</g>
	<path class="st3" d="M85,48.3c-20.3,0-36.7,16.4-36.7,36.7c0,20.3,16.5,36.7,36.7,36.7c20.3,0,36.8-16.4,36.8-36.7
		C121.8,64.7,105.3,48.3,85,48.3z M85,113c-15.4,0-28-12.5-28-28c0-15.4,12.5-28,28-28c15.5,0,28,12.5,28,28
		C113,100.4,100.4,113,85,113z"/>
	<circle class="st4" cx="85" cy="85" r="28"/>
	<g>
		<path class="st5" d="M85,102.5c-9.7,0-17.5-7.9-17.5-17.5c0-9.7,7.9-17.5,17.5-17.5c9.7,0,17.5,7.9,17.5,17.5
			C102.5,94.7,94.7,102.5,85,102.5z M85,69.6c-8.5,0-15.4,6.9-15.4,15.4c0,8.5,6.9,15.4,15.4,15.4c8.5,0,15.4-6.9,15.4-15.4
			C100.4,76.5,93.5,69.6,85,69.6z"/>
		<path class="st5" d="M85,102.5c-5.2,0-9.3-7.7-9.3-17.5c0-9.8,4.1-17.5,9.3-17.5v2.2c-3.9,0-7.1,7-7.1,15.4
			c0,8.3,3.3,15.4,7.1,15.4V102.5z"/>
		<path class="st5" d="M85,102.5v-2.2c3.9,0,7.1-7,7.1-15.4c0-8.3-3.3-15.4-7.1-15.4v-2.2c5.2,0,9.3,7.7,9.3,17.5
			C94.3,94.8,90.2,102.5,85,102.5z"/>
		<rect x="83.9" y="68.5" class="st5" width="2.2" height="32.9"/>
		<rect x="68.5" y="83.9" class="st5" width="32.9" height="2.2"/>
		<path class="st5" d="M85,77.9c-4.5,0-8.9-0.7-13.2-2.1l0.7-2.1c8.1,2.6,16.9,2.6,25,0l0.7,2.1C93.9,77.2,89.5,77.9,85,77.9z"/>
		<path class="st5" d="M72.5,96.3l-0.7-2.1c8.5-2.8,17.9-2.8,26.4,0l-0.7,2.1C89.4,93.7,80.6,93.7,72.5,96.3z"/>
	</g>
</g>
</svg>
