<?xml version="1.0" encoding="utf-8"?>
<!-- Generator: Adobe Illustrator 20.0.0, SVG Export Plug-In . SVG Version: 6.00 Build 0)  -->
<svg version="1.1" id="know_your_data" xmlns="http://www.w3.org/2000/svg" xmlns:xlink="http://www.w3.org/1999/xlink" x="0px"
	 y="0px" viewBox="0 0 170 170" style="enable-background:new 0 0 170 170;" xml:space="preserve">
<style type="text/css">
	.st0{fill:#FF6800;}
	.st1{opacity:0.6;fill:#D15400;}
	.st2{fill:#FFFFFF;}
	.st3{fill:#1C2E3F;}
	.st4{fill:#E6E6E6;}
	.st5{fill:#495057;}
	.st6{fill:#343B43;}
	.st7{fill:none;stroke:#4FC6AF;stroke-width:2.1935;stroke-miterlimit:10;}
</style>
<g>
	<circle class="st0" cx="85" cy="85" r="85"/>
	<path class="st1" d="M169.5,94.5l-40.9-40.9l-0.4-0.4c-1.4-1.2-3.4-1.7-5.9-1.7c-0.8,0-1.6,0.1-2.4,0.2l-11.4-11.4
		c-1.2-1.2-2.8-1.9-4.6-1.9H66.1c-3.6,0-6.5,2.9-6.5,6.5v4.3v4.9c-1-0.3-2-0.7-2.9-0.9l-0.6,2.1l3.5,3.5v0.5l-7.2-7.2
		c-1.7-0.3-3.2-0.5-4.5-0.5l0,2.2l11.8,11.8V69L43.1,52.4c-0.9,0.4-1.6,1-2.1,1.7c-0.2,0.2-0.3,0.5-0.4,0.8c0,0.1-0.1,0.1-0.1,0.2
		c-0.1,0.3-0.2,0.5-0.3,0.8c0,0,0,0,0,0.1c-0.1,0.3-0.1,0.6-0.1,0.9c0,0.1,0,0.2,0,0.3c0,0.3,0,0.6,0,0.9c0,0,0,0.1,0,0.1
		c0,0.3,0.1,0.7,0.1,1c0,0.1,0,0.2,0.1,0.3c0.1,0.3,0.1,0.6,0.2,0.9c0,0.1,0,0.1,0,0.1c0.1,0.4,0.2,0.7,0.4,1.1
		c0,0.1,0.1,0.2,0.1,0.3c0.1,0.3,0.3,0.7,0.4,1c0,0.1,0.1,0.1,0.1,0.2c0.2,0.4,0.4,0.8,0.6,1.2c0.1,0.1,0.1,0.2,0.2,0.3
		c0.2,0.4,0.4,0.7,0.6,1.1c0,0.1,0.1,0.1,0.1,0.2c0.3,0.4,0.5,0.9,0.8,1.3c0.1,0.1,0.1,0.2,0.2,0.3c0.3,0.4,0.5,0.8,0.8,1.2
		c0,0.1,0.1,0.1,0.1,0.2c0.3,0.5,0.7,0.9,1.1,1.4c0.1,0.1,0.1,0.2,0.2,0.2c0.3,0.4,0.7,0.9,1,1.3c0,0.1,0.1,0.1,0.1,0.2
		c0.4,0.5,0.8,1,1.3,1.5c0.1,0.1,0.1,0.1,0.2,0.2c0.4,0.5,0.8,0.9,1.2,1.4c0,0,0.1,0.1,0.1,0.1c0,0,0,0,0.1,0.1
		c0.4,0.5,0.9,1,1.4,1.5c0,0,0.1,0.1,0.1,0.1c0,0,0.1,0.1,0.1,0.1l0,0c1.1,1.2,2.3,2.3,3.5,3.5l4.3,4.3v0.8
		c-13.5,12-22.8,24.3-18.6,30.2c0.1,0.2,0.2,0.3,0.4,0.5c0.1,0.1,0.2,0.2,0.3,0.3l52.9,52.9C133.9,165,165.1,133.9,169.5,94.5z"/>
	<g>
		<path class="st2" d="M42.8,114.5l-1.8,1.3c0.5,0.7,1.2,1.3,2.1,1.7l1-2C43.5,115.3,43.1,115,42.8,114.5z"/>
		<path class="st2" d="M129.1,61.5c-0.5,1.3-1.2,2.6-2,4.1l-1.9-1.1c0.8-1.3,1.4-2.6,1.9-3.7L129.1,61.5z M124.6,69.4
			c-0.8,1.1-1.8,2.3-2.8,3.5l-1.7-1.4c1-1.2,1.9-2.3,2.7-3.4L124.6,69.4z M118.9,76.1c-1,1-2,2.1-3.1,3.2l-1.5-1.6
			c1.1-1,2.1-2.1,3-3.1L118.9,76.1z M112.6,82.4c-1.1,1-2.1,2-3.3,3l-1.4-1.7c1.1-1,2.2-1.9,3.2-2.9L112.6,82.4z M106,88.2
			c-1.1,0.9-2.3,1.8-3.4,2.8l-1.4-1.7c1.2-0.9,2.3-1.8,3.4-2.7L106,88.2z M99.1,93.6c-1.2,0.9-2.3,1.7-3.5,2.6l-1.3-1.8
			c1.2-0.9,2.4-1.7,3.5-2.6L99.1,93.6z M91.9,98.8c-1.2,0.8-2.4,1.7-3.7,2.4l-1.2-1.8c1.2-0.8,2.4-1.6,3.6-2.4L91.9,98.8z
			 M84.6,103.6c-1.3,0.8-2.5,1.5-3.8,2.3l-1.1-1.9c1.2-0.7,2.5-1.5,3.7-2.2L84.6,103.6z M77,108c-1.3,0.7-2.6,1.4-3.9,2.1l-1-2
			c1.3-0.6,2.5-1.3,3.8-2L77,108z M69.1,112c-1.4,0.6-2.7,1.3-4,1.8l-0.9-2c1.3-0.5,2.6-1.1,4-1.8L69.1,112z M61,115.5
			c-1.5,0.5-2.9,1-4.2,1.4l-0.6-2.1c1.3-0.4,2.7-0.8,4.1-1.4L61,115.5z M52.4,117.9c-1.7,0.3-3.2,0.5-4.5,0.5l0-2.2
			c1.2,0,2.6-0.2,4.1-0.5L52.4,117.9z"/>
		<path class="st2" d="M129,54.2l-1.8,1.3c0.3,0.4,0.5,0.9,0.5,1.5l2.2-0.2C129.8,55.8,129.5,54.9,129,54.2z"/>
	</g>
	<path class="st2" d="M41,54.2c-5.7,8.1,13.9,28.4,35.2,43.3c21.3,14.9,47.1,26.4,52.7,18.3l-1.8-1.3c-3.5,5.1-24.8-1.4-49.7-18.8
		C52.6,78.3,39.3,60.5,42.8,55.5L41,54.2z"/>
	<g>
		<path class="st3" d="M103.9,38.4H66.1c-3.6,0-6.5,2.9-6.5,6.5v80.2c0,3.6,2.9,6.5,6.5,6.5h37.7c3.6,0,6.5-2.9,6.5-6.5V44.9
			C110.4,41.3,107.4,38.4,103.9,38.4z"/>
		<rect x="63.3" y="52.5" class="st4" width="43.4" height="65.1"/>
		<path class="st5" d="M81,126.1c-0.7,0-1.3-0.6-1.3-1.3v-0.4c0-0.7,0.6-1.3,1.3-1.3H89c0.7,0,1.3,0.6,1.3,1.3v0.4
			c0,0.7-0.6,1.3-1.3,1.3H81z"/>
		<g>
			<path class="st5" d="M86.8,45.4c0,1-0.8,1.8-1.8,1.8c-1,0-1.8-0.8-1.8-1.8c0-1,0.8-1.8,1.8-1.8C86,43.6,86.8,44.5,86.8,45.4z"/>
			<ellipse class="st6" cx="85" cy="45.4" rx="0.7" ry="0.7"/>
		</g>
	</g>
	<path class="st2" d="M122.3,51.5c-10.5,0-29.5,9.5-46,21C54.9,87.4,35.3,107.7,41,115.8l1.8-1.3c-3.5-5.1,9.8-22.8,34.7-40.3
		c24.9-17.4,46.1-23.9,49.7-18.8l1.8-1.3C127.7,52.3,125.4,51.5,122.3,51.5z"/>
	<g>
		<path class="st2" d="M127.7,113c-0.1,0.6-0.2,1.1-0.5,1.5l1.8,1.3c0.5-0.7,0.8-1.6,0.9-2.6L127.7,113z"/>
		<path class="st2" d="M52.4,52.1L52,54.2c-1.5-0.3-2.9-0.5-4.1-0.5l0-2.2C49.2,51.6,50.7,51.7,52.4,52.1z M61,54.5l-0.8,2.1
			c-1.4-0.5-2.8-1-4.1-1.4l0.6-2.1C58.1,53.5,59.5,54,61,54.5z M69.1,58l-0.9,2c-1.3-0.6-2.7-1.2-4-1.8l0.9-2
			C66.4,56.7,67.7,57.3,69.1,58z M77,62l-1.1,1.9c-1.3-0.7-2.6-1.4-3.8-2l1-2C74.4,60.6,75.7,61.3,77,62z M84.6,66.5l-1.2,1.9
			c-1.3-0.8-2.5-1.5-3.7-2.2l1.1-1.9C82,64.9,83.3,65.7,84.6,66.5z M91.9,71.3l-1.2,1.8c-1.2-0.8-2.4-1.6-3.6-2.4l1.2-1.8
			C89.5,69.6,90.7,70.4,91.9,71.3z M99.1,76.4l-1.3,1.8c-1.1-0.9-2.3-1.7-3.5-2.6l1.3-1.8C96.8,74.6,97.9,75.5,99.1,76.4z M106,81.8
			l-1.4,1.7c-1.1-0.9-2.2-1.8-3.4-2.7l1.4-1.7C103.8,80,104.9,80.9,106,81.8z M112.6,87.6l-1.5,1.6c-1-1-2.1-1.9-3.2-2.9l1.4-1.7
			C110.5,85.7,111.6,86.7,112.6,87.6z M118.9,93.9l-1.6,1.5c-1-1-2-2.1-3-3.1l1.5-1.6C116.9,91.8,117.9,92.8,118.9,93.9z
			 M124.6,100.7l-1.8,1.3c-0.8-1.1-1.7-2.2-2.7-3.4l1.7-1.4C122.9,98.4,123.8,99.5,124.6,100.7z M129.1,108.5l-2.1,0.8
			c-0.4-1.1-1-2.4-1.9-3.7l1.9-1.1C128,105.8,128.7,107.2,129.1,108.5z"/>
		<path class="st2" d="M43.1,52.5c-0.9,0.4-1.6,1-2.1,1.7l1.8,1.3c0.3-0.4,0.7-0.8,1.3-1L43.1,52.5z"/>
	</g>
	<circle class="st2" cx="85" cy="92.7" r="14.8"/>
	<polyline class="st7" points="90.9,87.4 82.6,96.8 79.1,93.3 	"/>
</g>
</svg>
