<?xml version="1.0" encoding="utf-8"?>
<!-- Generator: Adobe Illustrator 20.0.0, SVG Export Plug-In . SVG Version: 6.00 Build 0)  -->
<svg version="1.1" id="Layer_1" xmlns="http://www.w3.org/2000/svg" xmlns:xlink="http://www.w3.org/1999/xlink" x="0px" y="0px"
	 viewBox="0 0 132 60" style="enable-background:new 0 0 132 60;" xml:space="preserve">
<style type="text/css">
	.st0{fill:#FFFFFF;}
	.st1{fill:#FF6800;}
</style>
<g>
	<g>
		<g>
			<path class="st0" d="M72,30c0,5.7-3.3,9.3-8.4,9.3c-5.2,0-8.5-3.6-8.5-9.3c0-5.6,3.3-9.2,8.5-9.2C68.7,20.7,72,24.3,72,30z
				 M59.1,30c0,3.5,1.6,5.6,4.5,5.6c2.7,0,4.4-2.1,4.4-5.6c0-3.5-1.7-5.6-4.4-5.6C60.8,24.4,59.1,26.5,59.1,30z"/>
			<path class="st0" d="M79.4,23c0.2,0.4,0.4,0.3,0.7,0c1.5-1.6,3.2-2.3,5.1-2.3c4.8,0,7.7,3.6,7.7,9.2c0,5.7-3.1,9.3-8.2,9.3
				c-1.3,0-2.3-0.3-3.3-0.7l-1-0.4v8.2c0,0.3-0.2,0.4-0.4,0.4h-3.3c-0.3,0-0.4-0.2-0.4-0.4V21.5c0-0.3,0.2-0.4,0.4-0.4h1.8
				c0.3,0,0.4,0.1,0.4,0.3L79.4,23z M81.5,35c0.9,0.4,1.9,0.6,3,0.6c2.8,0,4.5-2.1,4.5-5.6c0-3.5-1.6-5.6-4.4-5.6
				c-2.7,0-4.2,2.3-4.2,5.5v4.6L81.5,35z"/>
			<path class="st0" d="M109.8,37.1c-0.3-0.4-0.4-0.4-0.9,0c-1.5,1.6-3.3,2.2-5,2.2c-4.2,0-6.7-2.6-6.7-6.9V21.5
				c0-0.3,0.2-0.4,0.4-0.4h3.3c0.3,0,0.4,0.2,0.4,0.4v10.4c0,2.3,1.2,3.7,3.2,3.7c2.7,0,4.3-2,4.3-5.6v-8.6c0-0.3,0.2-0.4,0.4-0.4
				h3.3c0.3,0,0.4,0.2,0.4,0.4v16.9c0,0.3-0.2,0.4-0.4,0.4h-1.8c-0.3,0-0.4-0.1-0.4-0.3L109.8,37.1z"/>
			<path class="st0" d="M122,31c-3.1-0.8-4.5-2.3-4.5-5c0-3.3,2.5-5.3,6.7-5.3c1.6,0,3.3,0.3,4.5,0.6l1.6,0.4
				c0.3,0.1,0.3,0.3,0.3,0.5l-0.8,2.7c-0.1,0.3-0.3,0.3-0.5,0.3l-1.6-0.4c-1-0.3-2.5-0.4-3.6-0.4c-1.7,0-2.7,0.6-2.7,1.6
				c0,0.9,0.5,1.4,1.6,1.7l3.7,0.9c3.2,0.8,4.6,2.5,4.6,5.1c0,3.4-2.6,5.6-6.8,5.6c-1.9,0-3.9-0.3-5.6-0.8l-1.5-0.4
				c-0.3-0.1-0.3-0.3-0.3-0.5L118,35c0.1-0.3,0.3-0.3,0.5-0.3l1.3,0.3c1.4,0.4,3.3,0.6,4.7,0.6c1.8,0,2.8-0.7,2.8-1.8
				c0-0.9-0.5-1.5-1.7-1.8L122,31z"/>
		</g>
	</g>
	<g>
		<path class="st1" d="M23.7,41.5c0-2.6,2.1-5.8,3.1-7c1.1-1.2,1.7-2.8,1.7-4.5c0-1.6-0.6-3.2-1.5-4.4c-0.1-0.1-0.1-0.2-0.2-0.3
			c-1.5-1.5-3.1-4-3.1-7c0-2.6,2.1-5.8,3.1-7c1.1-1.2,1.7-2.8,1.7-4.5C28.5,3,25.4,0,21.6,0l0,0l0,0l0,0l0,0c-3.8,0-6.8,3.1-6.8,6.8
			c0,1.7,0.7,3.3,1.7,4.5s3.1,4.5,3.1,7c0,3-1.7,5.4-3.1,7c-0.1,0.1-0.1,0.1-0.1,0.2c-1,1.2-1.6,2.7-1.6,4.5c0,1.7,0.7,3.3,1.7,4.5
			c1,1.2,3.1,4.5,3.1,7c0,3-1.7,5.4-3.1,7c-1.1,1.2-1.7,2.8-1.7,4.5c0,3.8,3.1,6.8,6.8,6.8l0,0l0,0l0,0l0,0c3.8,0,6.8-3.1,6.8-6.8
			c0-1.7-0.7-3.3-1.7-4.5C25.4,46.9,23.7,44.5,23.7,41.5z"/>
		<path class="st1" d="M38.2,30c0-2.6,2.1-5.8,3.1-7c1.1-1.2,1.7-2.8,1.7-4.5c0-3.8-3.1-6.8-6.8-6.8l0,0l0,0l0,0l0,0
			c-3.8,0-6.8,3.1-6.8,6.8c0,1.7,0.7,3.3,1.7,4.5s3.1,4.5,3.1,7c0,3-1.7,5.4-3.1,7c-1.1,1.2-1.7,2.8-1.7,4.5c0,3.8,3.1,6.8,6.8,6.8
			l0,0l0,0l0,0l0,0c3.8,0,6.8-3.1,6.8-6.8c0-1.7-0.7-3.3-1.7-4.5C39.8,35.4,38.2,33,38.2,30z"/>
		<path class="st1" d="M9.3,30c0-2.6,2.1-5.8,3.1-7c1.1-1.2,1.7-2.8,1.7-4.5c0-3.8-3.1-6.8-6.8-6.8l0,0l0,0l0,0l0,0
			c-3.8,0-6.8,3.1-6.8,6.8c0,1.7,0.7,3.3,1.7,4.5c1.2,1.2,3.3,4.5,3.3,7c0,3-1.7,5.4-3.1,7c-1.1,1.2-1.7,2.8-1.7,4.5
			c0,3.8,3.1,6.8,6.8,6.8l0,0l0,0l0,0l0,0c3.8,0,6.8-3.1,6.8-6.8c0-1.7-0.7-3.3-1.7-4.5C11,35.4,9.3,33,9.3,30z"/>
	</g>
</g>
</svg>
