<?xml version="1.0" encoding="utf-8"?>
<!-- Generator: Adobe Illustrator 20.0.0, SVG Export Plug-In . SVG Version: 6.00 Build 0)  -->
<svg version="1.1" id="Alacra_Surveillance" xmlns="http://www.w3.org/2000/svg" xmlns:xlink="http://www.w3.org/1999/xlink"
	 x="0px" y="0px" viewBox="0 0 50 50" style="enable-background:new 0 0 50 50;" xml:space="preserve">
<style type="text/css">
	.st0{fill:#496885;}
</style>
<path class="st0" d="M37.6,12.4l-2.5,2.5c3.8,3.8,5.5,9.8,3,16c-1.4,3.4-4.1,6.1-7.5,7.4C20.4,42.1,10.7,34.7,10.7,25
	c0-7.3,5.4-13.3,12.5-14.2l0,3.6c-6.5,1.1-10.9,7.9-8,15c1,2.3,2.8,4.2,5.1,5.2c7.8,3.4,15.4-2.3,15.4-9.7c0-3-1.2-5.6-3.1-7.6
	c0,0,0,0,0,0l-2.5,2.5c2.1,2.1,2.9,5.6,1,9c-0.6,1-1.4,1.8-2.4,2.3C23.2,34,17.9,30.1,17.9,25c0-3.3,2.3-6.1,5.4-6.9l0,3.8
	c-1.5,0.9-2.3,2.8-1.4,4.8c0.2,0.5,0.7,1,1.2,1.3c2.7,1.6,5.6-0.4,5.6-3c0-1.3-0.7-2.5-1.8-3.1l0-14.8c-0.9,0-2.2,0-2.2,0
	C17.5,7.1,11,11.4,8.5,18c-5.8,15,8.1,29.1,23.1,23.7c4.8-1.7,8.6-5.6,10.3-10.5C44.3,23.9,42.2,16.9,37.6,12.4z"/>
</svg>
