<?xml version="1.0" encoding="utf-8"?>
<!-- Generator: Adobe Illustrator 20.0.0, SVG Export Plug-In . SVG Version: 6.00 Build 0)  -->
<svg version="1.1" id="Hiperos_3PM" xmlns="http://www.w3.org/2000/svg" xmlns:xlink="http://www.w3.org/1999/xlink" x="0px"
	 y="0px" viewBox="0 0 50 50" style="enable-background:new 0 0 50 50;" xml:space="preserve">
<style type="text/css">
	.st0{fill:#496885;}
</style>
<path class="st0" d="M50,28.8c-0.3,0-2.9,0-5.8,0c-0.3,0-3.9,0-7.3,0c0,0-0.1-0.1-0.1-0.1c-1-0.9-3.4-2.4-5.2-3.4
	c1.3-1.1,5.5-3.4,5.5-3.4s0.1-0.6,0.2-0.9c0.1-0.2,0.4-0.5,0.4-0.5s0-0.7,0-0.9c-0.1-0.1-0.5-0.7-0.6-0.9c-0.1-0.3-0.3-1.3-0.4-1.3
	c-0.1,0-0.1,0.1-0.4,0.1c-0.1,0-0.2-0.2-0.3-0.3c0-0.1,0-0.2,0-0.4c0-0.2-0.4-1-0.4-1.2c-0.1-0.2-0.3-0.4-0.3-0.5
	c0-0.1-0.2-0.8,0.1-1c0.3-0.1,0.6,0.1,0.7,0.1c0.1,0-0.1-0.9-0.1-1.1c0-0.1-0.2-0.9-0.2-1.6c0-0.7,0.2-1.8,1.2-2.7
	c0.6-0.6,1-0.8,1.3-0.9c0.1,0,0.8-0.4,0.9-0.7c0.2,0.1,0.6,0,0.7-0.2c0.3,0.2,0.4,0,0.4,0c0.5,0.2,0.4,0,0.8,0.2
	c0.2,0.2,1.1,0.7,1.2,0.7c0.2,0.1,0.5,0.3,1.2,0.9c1,0.9,1.2,2.2,1.2,2.9c0,0.7-0.2,1.4-0.2,1.6c0,0.1-0.1,0.8,0,0.9
	c0.1,0,0.5-0.2,0.7-0.1c0.3,0.1,0.1,0.8,0.1,1c0,0.1-0.2,0.3-0.3,0.5c0,0.1-0.4,1-0.4,1.2c0,0.2,0,0.4,0,0.4c0,0.2-0.1,0.3-0.3,0.3
	c-0.3,0-0.3-0.1-0.4-0.1c-0.1,0-0.3,1-0.4,1.3c-0.1,0.3-0.5,0.8-0.6,0.9c0,0.2,0,0.9,0,0.9s0.3,0.2,0.4,0.5c0,0,0,0,0,0
	c0.1,0.3,0.2,0.8,0.2,0.8s4.4,2.4,5.6,3.5C49.5,25.8,49.7,26.6,50,28.8z M13.2,28.6c1-0.9,3.4-2.4,5.2-3.4c-1.3-1.1-5.5-3.4-5.5-3.4
	s-0.1-0.6-0.2-0.8c0,0,0,0,0,0c-0.1-0.2-0.4-0.5-0.4-0.5s0-0.7,0-0.9c0.1-0.1,0.5-0.7,0.6-0.9c0.1-0.3,0.3-1.3,0.4-1.3
	c0.1,0,0.1,0.1,0.4,0.1c0.1,0,0.2-0.2,0.3-0.3c0-0.1,0-0.2,0-0.4c0-0.2,0.4-1,0.4-1.2c0.1-0.2,0.3-0.4,0.3-0.5c0-0.1,0.2-0.8-0.1-1
	c-0.3-0.1-0.6,0.1-0.7,0.1c-0.1,0,0-0.7,0-0.9c0-0.2,0.2-0.9,0.2-1.6c0-0.7-0.2-2-1.2-2.9C12.3,8.2,12,8,11.8,7.9
	c-0.1-0.1-1-0.5-1.2-0.7c-0.4-0.1-0.4,0-0.8-0.2c0,0-0.1,0.2-0.4,0C9.3,7.1,8.9,7.2,8.7,7.2C8.7,7.5,7.9,7.8,7.8,7.9
	C7.6,8,7.2,8.2,6.6,8.8c-1,0.9-1.1,2-1.2,2.7c0,0.7,0.2,1.5,0.2,1.6c0,0.1,0.2,1,0.1,1.1c-0.1,0-0.5-0.2-0.7-0.1
	c-0.3,0.1-0.1,0.9-0.1,1c0,0.1,0.2,0.3,0.3,0.5c0,0.1,0.4,1,0.4,1.2c0,0.2,0,0.4,0,0.4c0,0.2,0.1,0.3,0.3,0.3c0.3,0,0.3-0.1,0.4-0.1
	c0.1,0,0.3,1,0.4,1.3c0.1,0.3,0.5,0.8,0.6,0.9c0,0.2,0,0.9,0,0.9s-0.3,0.2-0.4,0.5c-0.1,0.2-0.2,0.9-0.2,0.9S2.2,24.2,1,25.3
	c-0.5,0.5-0.7,1.2-1,3.4c0.3,0,2.9,0,5.8,0c2.8,0,5.9,0,7.3,0C13.1,28.7,13.2,28.7,13.2,28.6z M18.3,30.1v-1.3l1.2,0.6
	c0.3,0.1,0.6,0.2,1.1,0.2c1.4,0,3.2-0.8,4-1.6l0.6-0.6l0.6,0.6c0.8,0.8,2.5,1.7,3.9,1.7c0.4,0,0.8-0.1,1.1-0.2l1.2-0.7v1.4v3.7
	c3.1,0,5.3,0,5.4,0C37,31,36.7,30.1,36,29.4c-1.5-1.4-7-4.4-7-4.4s-0.1-0.7-0.7-0.8c-0.1-0.2-0.1-0.4-0.1-0.4s0-0.8,0-1.1
	c0,0,0.1-0.1,0.2-0.2c0.5-0.1,1.1-0.3,1.4-0.6c0.3-0.3,2-2.3,2-4.5c0-2.1-1-4.1-1.2-5.3s-0.9-3.3-2.1-3.7c-1.1-0.4-1.7,0-1.7,0
	s-0.5-1-2.4-1c-2,0-3.5,1.6-4.2,2.7c-0.5,0.8-2.2,3.7-2.2,6.6c0,2.9,2.2,6.4,2.8,6.4c0.4,0,0.6-0.3,1-0.4c0,0,0.1,0.1,0.1,0.1
	c0,0.3,0,1.1,0,1.1s0,0.2-0.1,0.4C21.1,24.2,21,25,21,25s-5.5,3.1-7,4.4c-0.7,0.6-0.9,1.6-1.3,4.3c0.1,0,2.5,0,5.7,0V30.1z
	 M31.2,30.1c0,1.4,0,5,0,5c0,3.7-2.6,6.8-6,8c-3.4-1.3-6-4.3-6-8c0,0,0-3.6,0-5c1.8,0.9,4.9-0.4,6-1.6
	C26.3,29.7,29.3,31.1,31.2,30.1z M29.1,33.8l-0.9-0.9l-4.4,4.4l-1.7-1.7l-0.9,0.9l2.6,2.6l0.9-0.9L29.1,33.8z"/>
</svg>
