<svg xmlns="http://www.w3.org/2000/svg" viewBox="0 0 1600 270.13"><defs><style>.cls-1{fill:#1c2e3f;}.cls-2{fill:#192837;}</style></defs><title>Asset 2</title><g id="Layer_2" data-name="Layer 2"><g id="Layer_1-2" data-name="Layer 1"><g id="Layer_2-2" data-name="Layer 2"><g id="Layer_1_copy" data-name="Layer 1 copy"><path class="cls-1" d="M1600,270.13,1600,0H0V270.13Z"/></g></g><g id="Layer_2-3" data-name="Layer 2"><g id="Layer_1_copy-2" data-name="Layer 1 copy"><path class="cls-2" d="M1136.49,266.93H1118A3.08,3.08,0,0,0,1115,270h24.6A3.08,3.08,0,0,0,1136.49,266.93Z"/><path class="cls-2" d="M1191.65,266.93h-36.81a3.08,3.08,0,0,0-3.09,3.07h43a3.08,3.08,0,0,0-3.09-3.07Z"/><path class="cls-2" d="M1121.1,257.73a3.08,3.08,0,0,0-3.07-3.07h-18.4a3.07,3.07,0,0,0,0,6.14H1118A3.08,3.08,0,0,0,1121.1,257.73Z"/><path class="cls-2" d="M1170.18,257.73a3.08,3.08,0,0,0-3.07-3.07h-30.67a3.07,3.07,0,0,0,0,6.14h30.67A3.08,3.08,0,0,0,1170.18,257.73Z"/><path class="cls-2" d="M1213.12,245.45a3.08,3.08,0,0,0-3.07-3.07H1161a3.07,3.07,0,0,0,0,6.14h49.08A3.08,3.08,0,0,0,1213.12,245.45Z"/><path class="cls-2" d="M1145.64,245.45a3.08,3.08,0,0,0-3.07-3.07h-18.4a3.07,3.07,0,0,0,0,6.14h18.4A3.08,3.08,0,0,0,1145.64,245.45Z"/><path class="cls-2" d="M1127.23,233.18a3.08,3.08,0,0,0-3.07-3.07H1111.9a3.07,3.07,0,0,0,0,6.14h12.27A3.08,3.08,0,0,0,1127.23,233.18Z"/><path class="cls-2" d="M1176.31,233.18a3.08,3.08,0,0,0-3.07-3.07h-30.67a3.07,3.07,0,0,0,0,6.14h30.68A3.08,3.08,0,0,0,1176.31,233.18Z"/><path class="cls-2" d="M1237.66,233.18a3.08,3.08,0,0,0-3.07-3.07h-36.84a3.07,3.07,0,0,0,0,6.14h36.81a3.08,3.08,0,0,0,3.1-3.06Z"/><path class="cls-2" d="M1090.42,245.45a3.08,3.08,0,0,0-3.07-3.07h-6.13a3.07,3.07,0,0,0,0,6.14h6.13A3.08,3.08,0,0,0,1090.42,245.45Z"/><path class="cls-2" d="M1099.63,266.93h-6.14a3.08,3.08,0,0,0-3.07,3.07h12.27A3.08,3.08,0,0,0,1099.63,266.93Z"/><path class="cls-2" d="M1213.12,220.91a3.08,3.08,0,0,0-3.07-3.07,3.07,3.07,0,0,1,0-6.14h12.27a3.07,3.07,0,0,0,0-6.14h-42.94a3.07,3.07,0,0,0,0,6.14h12.27a3.07,3.07,0,0,1,0,6.14h-18.4a3.07,3.07,0,0,0,0,6.14h36.81A3.08,3.08,0,0,0,1213.12,220.91Z"/><path class="cls-2" d="M1157.91,220.91a3.08,3.08,0,0,0-3.07-3.07h-18.4a3.07,3.07,0,0,0,0,6.14h18.4A3.08,3.08,0,0,0,1157.91,220.91Z"/><path class="cls-2" d="M1115,220.91a3.08,3.08,0,0,0-3.07-3.07h-6.14a3.08,3.08,0,1,0,0,6.16h6.13a3.08,3.08,0,0,0,3.08-3.08Z"/><path class="cls-2" d="M1164,208.64a3.08,3.08,0,0,0-3.07-3.07h-36.8a3.07,3.07,0,0,0,0,6.14H1161A3.08,3.08,0,0,0,1164,208.64Z"/><path class="cls-2" d="M1102.69,208.64a3.08,3.08,0,0,0-3.07-3.07h-12.26a3.07,3.07,0,0,0,0,6.14h12.27A3.08,3.08,0,0,0,1102.69,208.64Z"/><path class="cls-2" d="M1249.93,196.36a3.08,3.08,0,0,0-3.07-3.07h-55.21a3.07,3.07,0,0,0,0,6.14h55.21A3.08,3.08,0,0,0,1249.93,196.36Z"/><path class="cls-2" d="M1176.31,196.36a3.08,3.08,0,0,0-3.07-3.07h-24.49a3.07,3.07,0,0,0,0,6.14h24.5A3.08,3.08,0,0,0,1176.31,196.36Z"/><path class="cls-2" d="M1127.23,196.36a3.08,3.08,0,0,0-3.07-3.07h-18.41a3.07,3.07,0,0,0,0,6.14h18.4A3.08,3.08,0,0,0,1127.23,196.36Z"/><path class="cls-2" d="M1118,131.93h18.4a3.07,3.07,0,0,1,3.07,3.07h0a3.07,3.07,0,0,1-3.07,3.07H1118A3.07,3.07,0,0,1,1115,135h0A3.07,3.07,0,0,1,1118,131.93Z"/><path class="cls-2" d="M1194.75,135h0a3.08,3.08,0,0,0-3.07-3.07h-36.84a3.08,3.08,0,0,0-3.09,3.07h0a3.08,3.08,0,0,0,3.07,3.07h36.83a3.08,3.08,0,0,0,3.1-3.06Z"/><path class="cls-2" d="M1145.64,184.09a3.08,3.08,0,0,0-3.07-3.09h-18.4a3.07,3.07,0,0,0,0,6.14h18.4A3.08,3.08,0,0,0,1145.64,184.09Z"/><path class="cls-2" d="M1090.42,184.09a3.08,3.08,0,0,0-3.06-3.09h-6.14a3.07,3.07,0,0,0,0,6.14h6.13A3.08,3.08,0,0,0,1090.42,184.09Z"/><path class="cls-2" d="M1157.91,171.82a3.08,3.08,0,0,0-3.07-3.07h-18.4a3.07,3.07,0,0,0,0,6.14h18.4A3.08,3.08,0,0,0,1157.91,171.82Z"/><path class="cls-2" d="M1115,171.82a3.08,3.08,0,0,0-3.07-3.07h-6.14a3.07,3.07,0,0,0,0,6.14h6.13A3.08,3.08,0,0,0,1115,171.82Z"/><path class="cls-2" d="M1176.31,147.27a3.08,3.08,0,0,0-3.07-3.07H1130.3a3.07,3.07,0,0,0,0,6.14h42.95A3.08,3.08,0,0,0,1176.31,147.27Z"/><path class="cls-2" d="M1108.83,147.27a3.08,3.08,0,0,0-3.08-3.06h-6.12a3.07,3.07,0,0,0,0,6.14h6.12a3.08,3.08,0,0,0,3.08-3.08Z"/><path class="cls-2" d="M1127.23,159.55a3.08,3.08,0,0,0-3.07-3.07H1111.9a3.07,3.07,0,0,0,0,6.14h12.27A3.08,3.08,0,0,0,1127.23,159.55Z"/><path class="cls-2" d="M1188.58,159.55a3.08,3.08,0,0,0-3.07-3.07h-36.76a3.07,3.07,0,0,0,0,6.14h36.81A3.08,3.08,0,0,0,1188.58,159.55Z"/><path class="cls-2" d="M1090.42,159.55a3.08,3.08,0,0,0-3.07-3.07h-6.13a3.07,3.07,0,0,0,0,6.14h6.13A3.08,3.08,0,0,0,1090.42,159.55Z"/><path class="cls-2" d="M1219.26,159.55a3.08,3.08,0,0,0-3.07-3.07h-12.27a3.07,3.07,0,0,0,0,6.14h12.27A3.08,3.08,0,0,0,1219.26,159.55Z"/><path class="cls-2" d="M1078.15,233.18a3.08,3.08,0,0,0-3.07-3.07H1069a3.07,3.07,0,0,0,0,6.14h6.13A3.08,3.08,0,0,0,1078.15,233.18Z"/><path class="cls-2" d="M1069,266.93a3.08,3.08,0,0,0-3.06,3.07H1072A3.08,3.08,0,0,0,1069,266.93Z"/><circle class="cls-2" cx="1062.82" cy="208.64" r="3.07"/><path class="cls-2" d="M1600,0H1207a3.08,3.08,0,0,0,3.07,3.07h12.27a3.07,3.07,0,1,1,0,6.14h-30.69a3.07,3.07,0,1,0,0,6.14h55.21a3.07,3.07,0,0,0,0-6.14H1234.6a3.07,3.07,0,0,1,0-6.14h49.08a3.07,3.07,0,0,1,0,6.14h-18.4a3.07,3.07,0,0,0,0,6.14h6.13a3.07,3.07,0,0,1,0,6.14H1234.6a3.07,3.07,0,0,0,0,6.14h55.21a3.07,3.07,0,0,1,.35,6.13h-49.41a3.08,3.08,0,0,0-3.07,3.07h0a3.08,3.08,0,0,0,3.07,3.06H1253a3.07,3.07,0,0,1,0,6.14h-24.56a3.07,3.07,0,0,0,0,6.14h55.21a3.07,3.07,0,0,1,0,6.14h-18.4a3.07,3.07,0,0,0,0,6.14h24.54a3.07,3.07,0,0,1,0,6.14h-49.06a3.07,3.07,0,0,0,0,6.14h30.67a3.07,3.07,0,0,1,0,6.14h-43a3.07,3.07,0,0,0,0,6.14h49.08a3.07,3.07,0,0,1,0,6.14H1253a3.07,3.07,0,0,0,0,6.14h12.27a3.07,3.07,0,0,1,0,6.14h-36.81a3.07,3.07,0,0,0,0,6.14h55.21a3.07,3.07,0,0,1,0,6.14h-24.53a3.07,3.07,0,0,0,0,6.14h6.13a3.07,3.07,0,0,1,0,6.14H1234.6a3.07,3.07,0,0,1,0-6.14h6.15a3.07,3.07,0,0,0,0-6.14h-49.1a3.07,3.07,0,0,0,0,6.14h24.54a3.07,3.07,0,0,1,0,6.14h-6.13a3.08,3.08,0,0,0-3.07,3.07h0a3.08,3.08,0,0,0,3.07,3.07h12.27a3.07,3.07,0,0,1,0,6.14h-30.68a3.07,3.07,0,0,0,0,6.14h55.21a3.07,3.07,0,0,0,0-6.14H1234.6a3.07,3.07,0,0,1,0-6.14h49.08a3.07,3.07,0,0,1,0,6.14h-18.4a3.07,3.07,0,0,0,0,6.14h6.13a3.07,3.07,0,0,1,0,6.14H1234.6a3.07,3.07,0,0,0,0,6.14h55.21a3.07,3.07,0,0,1,.35,6.13h-49.41a3.08,3.08,0,0,0-3.07,3.07h0a3.08,3.08,0,0,0,3.07,3.07H1253a3.07,3.07,0,0,1,0,6.14h-24.56a3.07,3.07,0,0,0,0,6.14h55.21a3.07,3.07,0,0,1,0,6.14h-18.4a3.07,3.07,0,0,0,0,6.14h24.54a3.07,3.07,0,0,1,0,6.14h-49.06a3.07,3.07,0,0,0,0,6.14h30.67a3.07,3.07,0,0,1,0,6.14h-43a3.07,3.07,0,0,0,0,6.14h49.08a3.07,3.07,0,0,1,0,6.14H1253a3.07,3.07,0,0,0,0,6.14h12.27a3.07,3.07,0,0,1,0,6.14h-36.81a3.07,3.07,0,0,0,0,6.14h55.21a3.07,3.07,0,0,1,0,6.14h-24.53a3.07,3.07,0,0,0,0,6.14h6.13a3.07,3.07,0,1,1,0,6.14H1234.6a3.07,3.07,0,0,1,0-6.14h6.15a3.07,3.07,0,0,0,0-6.14h-49.1a3.07,3.07,0,0,0,0,6.14h24.54a3.07,3.07,0,1,1,0,6.14h-6.13a3.08,3.08,0,0,0-3.07,3.07h393ZM1299,6.14a3.07,3.07,0,1,1,3.07,3.07A3.07,3.07,0,0,1,1299,6.14Zm-15.32,15.34a3.07,3.07,0,0,1,0-6.14h12.27a3.07,3.07,0,0,1,0,6.14Zm18.4,12.27a3.07,3.07,0,0,1,0-6.14h6.13a3.07,3.07,0,0,1,0,6.14ZM1271.41,46a3.07,3.07,0,0,1,0-6.14h24.54a3.07,3.07,0,0,1,0,6.14Zm36.81,24.55h-6.13a3.07,3.07,0,0,1,0-6.14h12.26a3.07,3.07,0,0,1,0,6.14Zm-27.61,9.2a3.07,3.07,0,1,1,3.07,3.07,3.07,3.07,0,0,1-3.07-3.07Zm9.2,15.34a3.07,3.07,0,0,1,0-6.14h6.13a3.07,3.07,0,0,1,0,6.14ZM1311.28,92a3.07,3.07,0,1,1,3.07,3.07A3.07,3.07,0,0,1,1311.28,92Zm-33.74,15.34a3.07,3.07,0,0,1,0-6.14h12.27a3.07,3.07,0,0,1,0,6.14Zm30.67,12.27h-6.13a3.07,3.07,0,0,1,0-6.14h12.27a3.07,3.07,0,0,1,0,6.14Zm-30.67,12.27a3.07,3.07,0,0,1,0-6.14h18.4a3.07,3.07,0,0,1,0,6.14Zm21.47,9.21a3.07,3.07,0,1,1,3.07,3.07,3.07,3.07,0,0,1-3.07-3.07Zm-15.34,15.34a3.07,3.07,0,0,1,0-6.14h12.28a3.07,3.07,0,0,1,0,6.14ZM1271.41,181a3.07,3.07,0,0,1,0-6.14h24.54a3.07,3.07,0,0,1,0,6.14Zm36.81,24.55h-6.13a3.07,3.07,0,0,1,0-6.14h12.26a3.07,3.07,0,0,1,0,6.14Zm-27.61,9.2a3.07,3.07,0,1,1,3.07,3.07,3.07,3.07,0,0,1-3.07-3.07Zm9.2,15.34a3.07,3.07,0,0,1,0-6.14h6.13a3.07,3.07,0,0,1,0,6.14Zm21.47-3.09a3.07,3.07,0,1,1,3.07,3.07A3.07,3.07,0,0,1,1311.28,227Zm-33.74,15.34a3.07,3.07,0,0,1,0-6.14h12.27a3.07,3.07,0,0,1,0,6.14Zm30.67,12.27h-6.13a3.07,3.07,0,0,1,0-6.14h12.27a3.07,3.07,0,0,1,0,6.14Z"/><path class="cls-2" d="M1213.12,184.09A3.08,3.08,0,0,0,1210,181h-12.3a3.07,3.07,0,0,1,0-6.14h24.54a3.07,3.07,0,0,0,0-6.14h-49a3.07,3.07,0,0,0,0,6.14h12.27a3.07,3.07,0,0,1,0,6.14H1161a3.07,3.07,0,0,0,0,6.14h49.08A3.08,3.08,0,0,0,1213.12,184.09Z"/><path class="cls-2" d="M1121.1,122.73a3.08,3.08,0,0,0-3.07-3.07h-18.4a3.07,3.07,0,0,0,0,6.14H1118A3.08,3.08,0,0,0,1121.1,122.73Z"/><path class="cls-2" d="M1170.18,122.73a3.08,3.08,0,0,0-3.07-3.07h-30.67a3.07,3.07,0,0,0,0,6.14h30.67A3.08,3.08,0,0,0,1170.18,122.73Z"/><path class="cls-2" d="M1213.12,110.45a3.08,3.08,0,0,0-3.07-3.07H1161a3.07,3.07,0,0,0,0,6.14h49.08A3.08,3.08,0,0,0,1213.12,110.45Z"/><path class="cls-2" d="M1145.64,110.45a3.08,3.08,0,0,0-3.07-3.07h-18.4a3.07,3.07,0,0,0,0,6.14h18.4A3.08,3.08,0,0,0,1145.64,110.45Z"/><path class="cls-2" d="M1127.23,98.18a3.08,3.08,0,0,0-3.07-3.07H1111.9a3.07,3.07,0,0,0,0,6.14h12.27A3.08,3.08,0,0,0,1127.23,98.18Z"/><path class="cls-2" d="M1176.31,98.18a3.08,3.08,0,0,0-3.07-3.07h-30.67a3.07,3.07,0,0,0,0,6.14h30.68A3.08,3.08,0,0,0,1176.31,98.18Z"/><path class="cls-2" d="M1237.66,98.18a3.08,3.08,0,0,0-3.07-3.07h-36.84a3.07,3.07,0,0,0,0,6.14h36.81a3.08,3.08,0,0,0,3.1-3.06Z"/><path class="cls-2" d="M1090.42,110.45a3.08,3.08,0,0,0-3.07-3.07h-6.13a3.07,3.07,0,0,0,0,6.14h6.13A3.08,3.08,0,0,0,1090.42,110.45Z"/><path class="cls-2" d="M1102.69,135h0a3.08,3.08,0,0,0-3.07-3.07h-6.13a3.08,3.08,0,0,0-3.07,3.07h0a3.08,3.08,0,0,0,3.07,3.07h6.13A3.08,3.08,0,0,0,1102.69,135Z"/><path class="cls-2" d="M1213.12,85.91a3.08,3.08,0,0,0-3.07-3.07,3.07,3.07,0,0,1,0-6.14h12.27a3.07,3.07,0,0,0,0-6.14h-42.94a3.07,3.07,0,0,0,0,6.14h12.27a3.07,3.07,0,0,1,0,6.14h-18.4a3.07,3.07,0,0,0,0,6.14h36.81A3.08,3.08,0,0,0,1213.12,85.91Z"/><path class="cls-2" d="M1157.91,85.91a3.08,3.08,0,0,0-3.07-3.07h-18.4a3.07,3.07,0,0,0,0,6.14h18.4A3.08,3.08,0,0,0,1157.91,85.91Z"/><path class="cls-2" d="M1115,85.91a3.08,3.08,0,0,0-3.07-3.07h-6.14a3.08,3.08,0,0,0,0,6.16h6.13a3.08,3.08,0,0,0,3.08-3.08Z"/><path class="cls-2" d="M1164,73.64a3.08,3.08,0,0,0-3.07-3.07h-36.8a3.07,3.07,0,0,0,0,6.14H1161A3.08,3.08,0,0,0,1164,73.64Z"/><path class="cls-2" d="M1102.69,73.64a3.08,3.08,0,0,0-3.07-3.07h-12.26a3.07,3.07,0,0,0,0,6.14h12.27A3.08,3.08,0,0,0,1102.69,73.64Z"/><path class="cls-2" d="M1249.93,61.36a3.08,3.08,0,0,0-3.07-3.07h-55.21a3.07,3.07,0,0,0,0,6.14h55.21A3.08,3.08,0,0,0,1249.93,61.36Z"/><path class="cls-2" d="M1176.31,61.36a3.08,3.08,0,0,0-3.07-3.07h-24.49a3.07,3.07,0,0,0,0,6.14h24.5A3.08,3.08,0,0,0,1176.31,61.36Z"/><path class="cls-2" d="M1127.23,61.36a3.08,3.08,0,0,0-3.07-3.07h-18.41a3.07,3.07,0,0,0,0,6.14h18.4A3.08,3.08,0,0,0,1127.23,61.36Z"/><path class="cls-2" d="M1118,3.07h18.4A3.08,3.08,0,0,0,1139.5,0H1115A3.08,3.08,0,0,0,1118,3.07Z"/><path class="cls-2" d="M1154.84,3.07h36.81a3.08,3.08,0,0,0,3.1-3.06h-43a3.08,3.08,0,0,0,3.09,3.07Z"/><path class="cls-2" d="M1145.64,49.09a3.08,3.08,0,0,0-3.07-3.09h-18.4a3.07,3.07,0,0,0,0,6.14h18.4A3.08,3.08,0,0,0,1145.64,49.09Z"/><path class="cls-2" d="M1090.42,49.09a3.08,3.08,0,0,0-3.06-3.09h-6.14a3.07,3.07,0,0,0,0,6.14h6.13A3.08,3.08,0,0,0,1090.42,49.09Z"/><path class="cls-2" d="M1093.49,3.07h6.13A3.08,3.08,0,0,0,1102.69,0h-12.27A3.08,3.08,0,0,0,1093.49,3.07Z"/><path class="cls-2" d="M1157.91,36.82a3.08,3.08,0,0,0-3.07-3.07h-18.4a3.07,3.07,0,0,0,0,6.14h18.4A3.08,3.08,0,0,0,1157.91,36.82Z"/><path class="cls-2" d="M1115,36.82a3.08,3.08,0,0,0-3.07-3.07h-6.14a3.07,3.07,0,0,0,0,6.14h6.13A3.08,3.08,0,0,0,1115,36.82Z"/><path class="cls-2" d="M1176.31,12.27a3.08,3.08,0,0,0-3.07-3.07H1130.3a3.07,3.07,0,0,0,0,6.14h42.95A3.08,3.08,0,0,0,1176.31,12.27Z"/><path class="cls-2" d="M1108.83,12.27a3.08,3.08,0,0,0-3.08-3.06h-6.12a3.07,3.07,0,0,0,0,6.14h6.12a3.08,3.08,0,0,0,3.08-3.08Z"/><path class="cls-2" d="M1127.23,24.55a3.08,3.08,0,0,0-3.07-3.07H1111.9a3.07,3.07,0,0,0,0,6.14h12.27A3.08,3.08,0,0,0,1127.23,24.55Z"/><path class="cls-2" d="M1188.58,24.55a3.08,3.08,0,0,0-3.07-3.07h-36.76a3.07,3.07,0,0,0,0,6.14h36.81A3.08,3.08,0,0,0,1188.58,24.55Z"/><path class="cls-2" d="M1090.42,24.55a3.08,3.08,0,0,0-3.07-3.07h-6.13a3.07,3.07,0,0,0,0,6.14h6.13A3.08,3.08,0,0,0,1090.42,24.55Z"/><path class="cls-2" d="M1219.26,24.55a3.08,3.08,0,0,0-3.07-3.07h-12.27a3.07,3.07,0,0,0,0,6.14h12.27A3.08,3.08,0,0,0,1219.26,24.55Z"/><path class="cls-2" d="M1078.15,98.18a3.08,3.08,0,0,0-3.07-3.07H1069a3.07,3.07,0,0,0,0,6.14h6.13A3.08,3.08,0,0,0,1078.15,98.18Z"/><path class="cls-2" d="M1069,3.07A3.08,3.08,0,0,0,1072,0h-6.13A3.08,3.08,0,0,0,1069,3.07Z"/><path class="cls-2" d="M1072,135h0a3.07,3.07,0,1,0-6.13,0h0a3.07,3.07,0,1,0,6.13,0Z"/><circle class="cls-2" cx="1062.82" cy="73.64" r="3.07"/><path class="cls-2" d="M1213.12,49.09a3.08,3.08,0,0,0-3.06-3.09h-12.31a3.07,3.07,0,0,1,0-6.14h24.54a3.07,3.07,0,0,0,0-6.14h-49a3.07,3.07,0,0,0,0,6.14h12.27a3.07,3.07,0,0,1,0,6.14H1161a3.07,3.07,0,0,0,0,6.14h49.08A3.08,3.08,0,0,0,1213.12,49.09Z"/></g></g></g></g></svg>