<?xml version="1.0" encoding="utf-8"?>
<!-- Generator: Adobe Illustrator 21.1.0, SVG Export Plug-In . SVG Version: 6.00 Build 0)  -->
<svg version="1.1" id="Layer_1" xmlns="http://www.w3.org/2000/svg" xmlns:xlink="http://www.w3.org/1999/xlink" x="0px" y="0px"
	 width="1600px" height="361.2px" viewBox="0 0 1600 361.2" style="enable-background:new 0 0 1600 361.2;" xml:space="preserve">
<style type="text/css">
	.st0{fill:#1C2E3F;}
	.st1{fill:#F16922;}
	.st2{clip-path:url(#SVGID_2_);}
	.st3{fill:#192837;}
</style>
<g id="Layer_2">
	<g id="Layer_1_copy">
		<path class="st0" d="M658.6,30.6C326.6,7,108,59.9,0,94.5c115.3-30.6,336.5-71.7,623.8-48.4c333.6,27,561.2,163,976.2,89.8v-27.8
			C1199.8,176.9,980.5,53.5,658.6,30.6z"/>
		<path class="st1" d="M656.6,6.5C307-21.9,78.8,50.3,0,81.1v13.4C81.2,67.5,311.3,5.9,658.6,30.6
			c321.9,22.9,541.2,146.3,941.4,77.5V94.6C1202.2,174.7,979,32.6,656.6,6.5z"/>
		<g>
			<defs>
				<path id="SVGID_1_" d="M1600,361.2H0V94.5C108,59.9,326.6,7,658.6,30.6c321.9,22.9,541.2,146.3,941.4,77.5V361.2z"/>
			</defs>
			<clipPath id="SVGID_2_">
				<use xlink:href="#SVGID_1_"  style="overflow:visible;"/>
			</clipPath>
			<g class="st2">
				<g id="Layer_2-2">
					<g id="Layer_1_copy-2">
						<path class="st0" d="M1600,361.2V91.1H946.9L706.4,11.5L167.6,32.7L0,91.1v270.1H1600z"/>
					</g>
				</g>
				<g id="Layer_2-3">
					<g id="Layer_1_copy-2-2">
						<path class="st3" d="M1136.5,358H1118c-1.7,0-3,1.4-3,3.1h24.6C1139.6,359.4,1138.2,358,1136.5,358L1136.5,358L1136.5,358z"/>
						<path class="st3" d="M1191.7,358h-36.8c-1.7,0-3.1,1.4-3.1,3.1l0,0h43C1194.7,359.4,1193.4,358,1191.7,358L1191.7,358
							L1191.7,358L1191.7,358z"/>
						<path class="st3" d="M1121.1,348.8c0-1.7-1.4-3.1-3.1-3.1h-18.4c-1.7,0-3.1,1.4-3.1,3.1s1.4,3.1,3.1,3.1h18.4
							C1119.7,351.9,1121.1,350.5,1121.1,348.8C1121.1,348.8,1121.1,348.8,1121.1,348.8L1121.1,348.8z"/>
						<path class="st3" d="M1170.2,348.8c0-1.7-1.4-3.1-3.1-3.1h-30.7c-1.7,0-3.1,1.4-3.1,3.1s1.4,3.1,3.1,3.1h30.7
							C1168.8,351.9,1170.2,350.5,1170.2,348.8z"/>
						<path class="st3" d="M1213.1,336.5c0-1.7-1.4-3.1-3.1-3.1H1161c-1.7,0-3.1,1.4-3.1,3.1s1.4,3.1,3.1,3.1h49.1
							C1211.8,339.6,1213.1,338.2,1213.1,336.5z"/>
						<path class="st3" d="M1145.6,336.5c0-1.7-1.4-3.1-3.1-3.1h-18.4c-1.7,0-3.1,1.4-3.1,3.1s1.4,3.1,3.1,3.1h18.4
							C1144.3,339.6,1145.6,338.2,1145.6,336.5z"/>
						<path class="st3" d="M1127.2,324.3c0-1.7-1.4-3.1-3.1-3.1h-12.3c-1.7,0-3.1,1.4-3.1,3.1s1.4,3.1,3.1,3.1h12.3
							C1125.9,327.3,1127.2,325.9,1127.2,324.3z"/>
						<path class="st3" d="M1176.3,324.3c0-1.7-1.4-3.1-3.1-3.1h-30.7c-1.7,0-3.1,1.4-3.1,3.1s1.4,3.1,3.1,3.1h30.7
							C1174.9,327.3,1176.3,325.9,1176.3,324.3z"/>
						<path class="st3" d="M1237.7,324.3c0-1.7-1.4-3.1-3.1-3.1h-36.8c-1.7,0-3.1,1.4-3.1,3.1s1.4,3.1,3.1,3.1h36.8
							C1236.3,327.3,1237.6,326,1237.7,324.3C1237.7,324.3,1237.7,324.3,1237.7,324.3L1237.7,324.3L1237.7,324.3z"/>
						<path class="st3" d="M1090.4,336.5c0-1.7-1.4-3.1-3.1-3.1h-6.1c-1.7,0-3.1,1.4-3.1,3.1s1.4,3.1,3.1,3.1h6.1
							C1089,339.6,1090.4,338.2,1090.4,336.5z"/>
						<path class="st3" d="M1099.6,358h-6.1c-1.7,0-3.1,1.4-3.1,3.1h12.3C1102.7,359.4,1101.3,358,1099.6,358z"/>
						<path class="st3" d="M1213.1,312c0-1.7-1.4-3.1-3.1-3.1c-1.7,0-3.1-1.4-3.1-3.1s1.4-3.1,3.1-3.1h12.3c1.7,0,3.1-1.4,3.1-3.1
							s-1.4-3.1-3.1-3.1h-42.9c-1.7,0-3.1,1.4-3.1,3.1s1.4,3.1,3.1,3.1h12.3c1.7,0,3.1,1.4,3.1,3.1s-1.4,3.1-3.1,3.1l0,0h-18.4
							c-1.7,0-3.1,1.4-3.1,3.1s1.4,3.1,3.1,3.1h36.8C1211.7,315.1,1213.1,313.7,1213.1,312z"/>
						<path class="st3" d="M1157.9,312c0-1.7-1.4-3.1-3.1-3.1h-18.4c-1.7,0-3.1,1.4-3.1,3.1s1.4,3.1,3.1,3.1h18.4
							C1156.5,315.1,1157.9,313.7,1157.9,312z"/>
						<path class="st3" d="M1115,312c0-1.7-1.4-3.1-3.1-3.1h-6.1c-1.7,0-3.1,1.4-3.1,3.1c0,1.7,1.4,3.1,3.1,3.1h6.1
							C1113.6,315.1,1115,313.7,1115,312C1115,312,1115,312,1115,312z"/>
						<path class="st3" d="M1164,299.7c0-1.7-1.4-3.1-3.1-3.1h-36.8c-1.7,0-3.1,1.4-3.1,3.1s1.4,3.1,3.1,3.1h36.9
							C1162.7,302.7,1164,301.4,1164,299.7z"/>
						<path class="st3" d="M1102.7,299.7c0-1.7-1.4-3.1-3.1-3.1h-12.3c-1.7,0-3.1,1.4-3.1,3.1s1.4,3.1,3.1,3.1h12.3
							C1101.3,302.8,1102.7,301.4,1102.7,299.7z"/>
						<path class="st3" d="M1249.9,287.4c0-1.7-1.4-3.1-3.1-3.1h-55.2c-1.7,0-3.1,1.4-3.1,3.1s1.4,3.1,3.1,3.1h55.2
							C1248.6,290.5,1249.9,289.1,1249.9,287.4z"/>
						<path class="st3" d="M1176.3,287.4c0-1.7-1.4-3.1-3.1-3.1h-24.5c-1.7,0-3.1,1.4-3.1,3.1s1.4,3.1,3.1,3.1h24.5
							C1174.9,290.5,1176.3,289.1,1176.3,287.4z"/>
						<path class="st3" d="M1127.2,287.4c0-1.7-1.4-3.1-3.1-3.1h-18.4c-1.7,0-3.1,1.4-3.1,3.1s1.4,3.1,3.1,3.1h18.4
							C1125.8,290.5,1127.2,289.1,1127.2,287.4z"/>
						<path class="st3" d="M1118,223h18.4c1.7,0,3.1,1.4,3.1,3.1l0,0c0,1.7-1.4,3.1-3.1,3.1H1118c-1.7,0-3-1.4-3-3.1l0,0
							C1115,224.4,1116.3,223,1118,223z"/>
						<path class="st3" d="M1194.8,226.1L1194.8,226.1c0-1.7-1.4-3.1-3.1-3.1h-36.8c-1.7,0-3.1,1.4-3.1,3.1l0,0l0,0
							c0,1.7,1.4,3.1,3.1,3.1h36.8C1193.4,229.2,1194.7,227.8,1194.8,226.1C1194.8,226.1,1194.8,226.1,1194.8,226.1L1194.8,226.1
							L1194.8,226.1z"/>
						<path class="st3" d="M1145.6,275.2c0-1.7-1.4-3.1-3.1-3.1h-18.4c-1.7,0-3.1,1.4-3.1,3.1s1.4,3.1,3.1,3.1h18.4
							C1144.3,278.2,1145.6,276.9,1145.6,275.2z"/>
						<path class="st3" d="M1090.4,275.2c0-1.7-1.4-3.1-3.1-3.1h-6.1c-1.7,0-3.1,1.4-3.1,3.1s1.4,3.1,3.1,3.1h6.1
							C1089,278.2,1090.4,276.9,1090.4,275.2z"/>
						<path class="st3" d="M1157.9,262.9c0-1.7-1.4-3.1-3.1-3.1h-18.4c-1.7,0-3.1,1.4-3.1,3.1s1.4,3.1,3.1,3.1h18.4
							C1156.5,266,1157.9,264.6,1157.9,262.9z"/>
						<path class="st3" d="M1115,262.9c0-1.7-1.4-3.1-3.1-3.1h-6.1c-1.7,0-3.1,1.4-3.1,3.1s1.4,3.1,3.1,3.1h6.1
							C1113.6,266,1115,264.6,1115,262.9z"/>
						<path class="st3" d="M1176.3,238.4c0-1.7-1.4-3.1-3.1-3.1h-42.9c-1.7,0-3.1,1.4-3.1,3.1c0,1.7,1.4,3.1,3.1,3.1h42.9
							C1174.9,241.4,1176.3,240,1176.3,238.4z"/>
						<path class="st3" d="M1108.8,238.4c0-1.7-1.4-3.1-3.1-3.1h-6.1c-1.7,0-3.1,1.4-3.1,3.1c0,1.7,1.4,3.1,3.1,3.1h6.1
							C1107.5,241.4,1108.8,240.1,1108.8,238.4z"/>
						<path class="st3" d="M1127.2,250.6c0-1.7-1.4-3.1-3.1-3.1h-12.3c-1.7,0-3.1,1.4-3.1,3.1c0,1.7,1.4,3.1,3.1,3.1h12.3
							C1125.9,253.7,1127.2,252.3,1127.2,250.6z"/>
						<path class="st3" d="M1188.6,250.6c0-1.7-1.4-3.1-3.1-3.1h-36.8c-1.7,0-3.1,1.4-3.1,3.1c0,1.7,1.4,3.1,3.1,3.1h36.8
							C1187.2,253.7,1188.6,252.3,1188.6,250.6z"/>
						<path class="st3" d="M1090.4,250.6c0-1.7-1.4-3.1-3.1-3.1h-6.1c-1.7,0-3.1,1.4-3.1,3.1c0,1.7,1.4,3.1,3.1,3.1h6.1
							C1089,253.7,1090.4,252.3,1090.4,250.6z"/>
						<path class="st3" d="M1219.3,250.6c0-1.7-1.4-3.1-3.1-3.1h-12.3c-1.7,0-3.1,1.4-3.1,3.1c0,1.7,1.4,3.1,3.1,3.1h12.3
							C1217.9,253.7,1219.3,252.3,1219.3,250.6z"/>
						<path class="st3" d="M1078.2,324.3c0-1.7-1.4-3.1-3.1-3.1h-6.1c-1.7,0-3.1,1.4-3.1,3.1s1.4,3.1,3.1,3.1h6.1
							C1076.8,327.3,1078.1,325.9,1078.2,324.3z"/>
						<path class="st3" d="M1069,358c-1.7,0-3.1,1.4-3.1,3.1h6.1C1072,359.4,1070.7,358,1069,358z"/>
						<circle class="st3" cx="1062.8" cy="299.7" r="3.1"/>
						<path class="st3" d="M1600,91.1h-393c0,1.7,1.4,3.1,3.1,3.1h12.3c1.7,0,3.1,1.4,3.1,3.1c0,1.7-1.4,3.1-3.1,3.1h-30.7
							c-1.7,0-3.1,1.4-3.1,3.1c0,1.7,1.4,3.1,3.1,3.1h55.2c1.7,0,3.1-1.4,3.1-3.1c0-1.7-1.4-3.1-3.1-3.1h-12.3
							c-1.7,0-3.1-1.4-3.1-3.1c0-1.7,1.4-3.1,3.1-3.1h49.1c1.7,0,3.1,1.4,3.1,3.1c0,1.7-1.4,3.1-3.1,3.1h-18.4
							c-1.7,0-3.1,1.4-3.1,3.1c0,1.7,1.4,3.1,3.1,3.1h6.1c1.7,0,3.1,1.4,3.1,3.1c0,1.7-1.4,3.1-3.1,3.1h-36.8
							c-1.7,0-3.1,1.4-3.1,3.1c0,1.7,1.4,3.1,3.1,3.1h55.2c1.7-0.1,3.1,1.2,3.2,2.9c0.1,1.7-1.2,3.1-2.9,3.2h-49.4
							c-1.7,0-3.1,1.4-3.1,3.1l0,0c0,1.7,1.4,3.1,3.1,3.1h12.3c1.7,0,3.1,1.4,3.1,3.1c0,1.7-1.4,3.1-3.1,3.1h-24.6
							c-1.7,0-3.1,1.4-3.1,3.1c0,1.7,1.4,3.1,3.1,3.1h55.2c1.7,0,3.1,1.4,3.1,3.1c0,1.7-1.4,3.1-3.1,3.1h-18.4
							c-1.7,0-3.1,1.4-3.1,3.1c0,1.7,1.4,3.1,3.1,3.1h24.5c1.7,0,3.1,1.4,3.1,3.1c0,1.7-1.4,3.1-3.1,3.1h-49.1
							c-1.7,0-3.1,1.4-3.1,3.1c0,1.7,1.4,3.1,3.1,3.1h30.7c1.7,0,3.1,1.4,3.1,3.1c0,1.7-1.4,3.1-3.1,3.1h-43c-1.7,0-3.1,1.4-3.1,3.1
							c0,1.7,1.4,3.1,3.1,3.1h49.1c1.7,0,3.1,1.4,3.1,3.1c0,1.7-1.4,3.1-3.1,3.1H1253c-1.7,0-3.1,1.4-3.1,3.1c0,1.7,1.4,3.1,3.1,3.1
							h12.3c1.7,0,3.1,1.4,3.1,3.1c0,1.7-1.4,3.1-3.1,3.1h-36.8c-1.7,0-3.1,1.4-3.1,3.1c0,1.7,1.4,3.1,3.1,3.1h55.2
							c1.7,0,3.1,1.4,3.1,3.1c0,1.7-1.4,3.1-3.1,3.1h-24.5c-1.7,0-3.1,1.4-3.1,3.1c0,1.7,1.4,3.1,3.1,3.1h6.1c1.7,0,3.1,1.4,3.1,3.1
							c0,1.7-1.4,3.1-3.1,3.1h-30.7c-1.7,0-3.1-1.4-3.1-3.1c0-1.7,1.4-3.1,3.1-3.1h6.2c1.7,0,3.1-1.4,3.1-3.1c0-1.7-1.4-3.1-3.1-3.1
							h-49.1c-1.7,0-3.1,1.4-3.1,3.1c0,1.7,1.4,3.1,3.1,3.1h24.5c1.7,0,3.1,1.4,3.1,3.1c0,1.7-1.4,3.1-3.1,3.1h-6.1
							c-1.7,0-3.1,1.4-3.1,3.1l0,0c0,1.7,1.4,3.1,3.1,3.1h12.3c1.7,0,3.1,1.4,3.1,3.1c0,1.7-1.4,3.1-3.1,3.1h-30.7
							c-1.7,0-3.1,1.4-3.1,3.1c0,1.7,1.4,3.1,3.1,3.1h55.2c1.7,0,3.1-1.4,3.1-3.1c0-1.7-1.4-3.1-3.1-3.1h-12.3
							c-1.7,0-3.1-1.4-3.1-3.1c0-1.7,1.4-3.1,3.1-3.1h49.1c1.7,0,3.1,1.4,3.1,3.1c0,1.7-1.4,3.1-3.1,3.1h-18.4
							c-1.7,0-3.1,1.4-3.1,3.1c0,1.7,1.4,3.1,3.1,3.1h6.1c1.7,0,3.1,1.4,3.1,3.1c0,1.7-1.4,3.1-3.1,3.1h-36.8
							c-1.7,0-3.1,1.4-3.1,3.1c0,1.7,1.4,3.1,3.1,3.1h55.2c1.7-0.1,3.1,1.2,3.2,2.9c0.1,1.7-1.2,3.1-2.9,3.2h-49.4
							c-1.7,0-3.1,1.4-3.1,3.1l0,0c0,1.7,1.4,3.1,3.1,3.1h12.3c1.7,0,3.1,1.4,3.1,3.1s-1.4,3.1-3.1,3.1h-24.6
							c-1.7,0-3.1,1.4-3.1,3.1s1.4,3.1,3.1,3.1h55.2c1.7,0,3.1,1.4,3.1,3.1s-1.4,3.1-3.1,3.1h-18.4c-1.7,0-3.1,1.4-3.1,3.1
							s1.4,3.1,3.1,3.1h24.5c1.7,0,3.1,1.4,3.1,3.1s-1.4,3.1-3.1,3.1l0,0h-49.1c-1.7,0-3.1,1.4-3.1,3.1s1.4,3.1,3.1,3.1h30.7
							c1.7,0,3.1,1.4,3.1,3.1s-1.4,3.1-3.1,3.1l0,0h-43c-1.7,0-3.1,1.4-3.1,3.1s1.4,3.1,3.1,3.1h49.1c1.7,0,3.1,1.4,3.1,3.1
							s-1.4,3.1-3.1,3.1H1253c-1.7,0-3.1,1.4-3.1,3.1s1.4,3.1,3.1,3.1h12.3c1.7,0,3.1,1.4,3.1,3.1s-1.4,3.1-3.1,3.1h-36.8
							c-1.7,0-3.1,1.4-3.1,3.1s1.4,3.1,3.1,3.1h55.2c1.7,0,3.1,1.4,3.1,3.1s-1.4,3.1-3.1,3.1l0,0h-24.5c-1.7,0-3.1,1.4-3.1,3.1
							s1.4,3.1,3.1,3.1h6.1c1.7,0,3.1,1.4,3.1,3.1s-1.4,3.1-3.1,3.1h-30.7c-1.7,0-3.1-1.4-3.1-3.1s1.4-3.1,3.1-3.1h6.2
							c1.7,0,3.1-1.4,3.1-3.1s-1.4-3.1-3.1-3.1l0,0h-49.1c-1.7,0-3.1,1.4-3.1,3.1s1.4,3.1,3.1,3.1h24.5c1.7,0,3.1,1.4,3.1,3.1
							s-1.4,3.1-3.1,3.1h-6.1c-1.7,0-3.1,1.4-3.1,3.1h393L1600,91.1z M1299,97.2c0-1.7,1.4-3.1,3.1-3.1c1.7,0,3.1,1.4,3.1,3.1
							s-1.4,3.1-3.1,3.1l0,0l0,0C1300.4,100.3,1299,98.9,1299,97.2z M1283.7,112.6c-1.7,0-3.1-1.4-3.1-3.1c0-1.7,1.4-3.1,3.1-3.1
							h12.3c1.7,0,3.1,1.4,3.1,3.1c0,1.7-1.4,3.1-3.1,3.1H1283.7z M1302.1,124.8c-1.7,0-3.1-1.4-3.1-3.1c0-1.7,1.4-3.1,3.1-3.1h6.1
							c1.7,0,3.1,1.4,3.1,3.1c0,1.7-1.4,3.1-3.1,3.1H1302.1z M1271.4,137.1c-1.7,0-3.1-1.4-3.1-3.1c0-1.7,1.4-3.1,3.1-3.1h24.6
							c1.7,0,3.1,1.4,3.1,3.1c0,1.7-1.4,3.1-3.1,3.1H1271.4z M1308.2,161.6h-6.1c-1.7,0-3.1-1.4-3.1-3.1c0-1.7,1.4-3.1,3.1-3.1h12.3
							c1.7,0,3.1,1.4,3.1,3.1c0,1.7-1.4,3.1-3.1,3.1H1308.2z M1280.6,170.8c0-1.7,1.4-3.1,3.1-3.1c1.7,0,3.1,1.4,3.1,3.1
							s-1.4,3.1-3.1,3.1l0,0l0,0C1282,173.9,1280.6,172.5,1280.6,170.8C1280.6,170.8,1280.6,170.8,1280.6,170.8L1280.6,170.8z
							 M1289.8,186.2c-1.7,0-3.1-1.4-3.1-3.1c0-1.7,1.4-3.1,3.1-3.1h6.1c1.7,0,3.1,1.4,3.1,3.1c0,1.7-1.4,3.1-3.1,3.1H1289.8z
							 M1311.3,183.1c0-1.7,1.4-3.1,3.1-3.1c1.7,0,3.1,1.4,3.1,3.1s-1.4,3.1-3.1,3.1l0,0l0,0
							C1312.7,186.1,1311.3,184.8,1311.3,183.1z M1277.5,198.4c-1.7,0-3.1-1.4-3.1-3.1c0-1.7,1.4-3.1,3.1-3.1h12.3
							c1.7,0,3.1,1.4,3.1,3.1c0,1.7-1.4,3.1-3.1,3.1H1277.5z M1308.2,210.7h-6.1c-1.7,0-3.1-1.4-3.1-3.1c0-1.7,1.4-3.1,3.1-3.1h12.3
							c1.7,0,3.1,1.4,3.1,3.1c0,1.7-1.4,3.1-3.1,3.1H1308.2z M1277.5,223c-1.7,0-3.1-1.4-3.1-3.1c0-1.7,1.4-3.1,3.1-3.1h18.4
							c1.7,0,3.1,1.4,3.1,3.1c0,1.7-1.4,3.1-3.1,3.1H1277.5z M1299,232.2c0-1.7,1.4-3.1,3.1-3.1c1.7,0,3.1,1.4,3.1,3.1
							s-1.4,3.1-3.1,3.1l0,0l0,0C1300.4,235.3,1299,233.9,1299,232.2C1299,232.2,1299,232.2,1299,232.2L1299,232.2z M1283.7,247.6
							c-1.7,0-3.1-1.4-3.1-3.1c0-1.7,1.4-3.1,3.1-3.1h12.3c1.7,0,3.1,1.4,3.1,3.1c0,1.7-1.4,3.1-3.1,3.1H1283.7z M1271.4,272.1
							c-1.7,0-3.1-1.4-3.1-3.1s1.4-3.1,3.1-3.1h24.6c1.7,0,3.1,1.4,3.1,3.1s-1.4,3.1-3.1,3.1H1271.4z M1308.2,296.7h-6.1
							c-1.7,0-3.1-1.4-3.1-3.1s1.4-3.1,3.1-3.1h12.3c1.7,0,3.1,1.4,3.1,3.1s-1.4,3.1-3.1,3.1H1308.2z M1280.6,305.9
							c0-1.7,1.4-3.1,3.1-3.1c1.7,0,3.1,1.4,3.1,3.1c0,1.7-1.4,3.1-3.1,3.1l0,0l0,0C1282,308.9,1280.6,307.6,1280.6,305.9
							C1280.6,305.9,1280.6,305.8,1280.6,305.9L1280.6,305.9z M1289.8,321.2c-1.7,0-3.1-1.4-3.1-3.1s1.4-3.1,3.1-3.1h6.1
							c1.7,0,3.1,1.4,3.1,3.1s-1.4,3.1-3.1,3.1H1289.8z M1311.3,318.1c0-1.7,1.4-3.1,3.1-3.1c1.7,0,3.1,1.4,3.1,3.1
							c0,1.7-1.4,3.1-3.1,3.1l0,0l0,0C1312.7,321.2,1311.3,319.8,1311.3,318.1C1311.3,318.1,1311.3,318.1,1311.3,318.1L1311.3,318.1
							z M1277.5,333.5c-1.7,0-3.1-1.4-3.1-3.1s1.4-3.1,3.1-3.1h12.3c1.7,0,3.1,1.4,3.1,3.1s-1.4,3.1-3.1,3.1l0,0H1277.5z
							 M1308.2,345.7h-6.1c-1.7,0-3.1-1.4-3.1-3.1s1.4-3.1,3.1-3.1h12.3c1.7,0,3.1,1.4,3.1,3.1s-1.4,3.1-3.1,3.1H1308.2z"/>
						<path class="st3" d="M1213.1,275.2c0-1.7-1.4-3.1-3.1-3.1h-12.4c-1.7,0-3.1-1.4-3.1-3.1s1.4-3.1,3.1-3.1h24.5
							c1.7,0,3.1-1.4,3.1-3.1s-1.4-3.1-3.1-3.1h-49c-1.7,0-3.1,1.4-3.1,3.1s1.4,3.1,3.1,3.1h12.3c1.7,0,3.1,1.4,3.1,3.1
							s-1.4,3.1-3.1,3.1l0,0H1161c-1.7,0-3.1,1.4-3.1,3.1s1.4,3.1,3.1,3.1h49.1C1211.8,278.2,1213.1,276.8,1213.1,275.2z"/>
						<path class="st3" d="M1121.1,213.8c0-1.7-1.4-3.1-3.1-3.1h-18.4c-1.7,0-3.1,1.4-3.1,3.1c0,1.7,1.4,3.1,3.1,3.1h18.4
							C1119.7,216.9,1121.1,215.5,1121.1,213.8C1121.1,213.8,1121.1,213.8,1121.1,213.8L1121.1,213.8z"/>
						<path class="st3" d="M1170.2,213.8c0-1.7-1.4-3.1-3.1-3.1h-30.7c-1.7,0-3.1,1.4-3.1,3.1c0,1.7,1.4,3.1,3.1,3.1h30.7
							C1168.8,216.9,1170.2,215.5,1170.2,213.8z"/>
						<path class="st3" d="M1213.1,201.5c0-1.7-1.4-3.1-3.1-3.1H1161c-1.7,0-3.1,1.4-3.1,3.1c0,1.7,1.4,3.1,3.1,3.1h49.1
							C1211.8,204.6,1213.1,203.2,1213.1,201.5z"/>
						<path class="st3" d="M1145.6,201.5c0-1.7-1.4-3.1-3.1-3.1h-18.4c-1.7,0-3.1,1.4-3.1,3.1c0,1.7,1.4,3.1,3.1,3.1h18.4
							C1144.3,204.6,1145.6,203.2,1145.6,201.5z"/>
						<path class="st3" d="M1127.2,189.3c0-1.7-1.4-3.1-3.1-3.1h-12.3c-1.7,0-3.1,1.4-3.1,3.1c0,1.7,1.4,3.1,3.1,3.1h12.3
							C1125.9,192.3,1127.2,190.9,1127.2,189.3z"/>
						<path class="st3" d="M1176.3,189.3c0-1.7-1.4-3.1-3.1-3.1h-30.7c-1.7,0-3.1,1.4-3.1,3.1c0,1.7,1.4,3.1,3.1,3.1h30.7
							C1174.9,192.3,1176.3,190.9,1176.3,189.3z"/>
						<path class="st3" d="M1237.7,189.3c0-1.7-1.4-3.1-3.1-3.1h-36.8c-1.7,0-3.1,1.4-3.1,3.1c0,1.7,1.4,3.1,3.1,3.1h36.8
							C1236.3,192.3,1237.6,191,1237.7,189.3C1237.7,189.3,1237.7,189.3,1237.7,189.3L1237.7,189.3L1237.7,189.3z"/>
						<path class="st3" d="M1090.4,201.5c0-1.7-1.4-3.1-3.1-3.1h-6.1c-1.7,0-3.1,1.4-3.1,3.1c0,1.7,1.4,3.1,3.1,3.1h6.1
							C1089,204.6,1090.4,203.2,1090.4,201.5z"/>
						<path class="st3" d="M1102.7,226.1L1102.7,226.1c0-1.7-1.4-3.1-3.1-3.1h-6.1c-1.7,0-3.1,1.4-3.1,3.1l0,0
							c0,1.7,1.4,3.1,3.1,3.1h6.1C1101.3,229.1,1102.7,227.8,1102.7,226.1z"/>
						<path class="st3" d="M1213.1,177c0-1.7-1.4-3.1-3.1-3.1c-1.7,0-3.1-1.4-3.1-3.1c0-1.7,1.4-3.1,3.1-3.1h12.3
							c1.7,0,3.1-1.4,3.1-3.1c0-1.7-1.4-3.1-3.1-3.1h-42.9c-1.7,0-3.1,1.4-3.1,3.1c0,1.7,1.4,3.1,3.1,3.1h12.3
							c1.7,0,3.1,1.4,3.1,3.1c0,1.7-1.4,3.1-3.1,3.1h-18.4c-1.7,0-3.1,1.4-3.1,3.1c0,1.7,1.4,3.1,3.1,3.1h36.8
							C1211.7,180.1,1213.1,178.7,1213.1,177z"/>
						<path class="st3" d="M1157.9,177c0-1.7-1.4-3.1-3.1-3.1h-18.4c-1.7,0-3.1,1.4-3.1,3.1c0,1.7,1.4,3.1,3.1,3.1h18.4
							C1156.5,180.1,1157.9,178.7,1157.9,177z"/>
						<path class="st3" d="M1115,177c0-1.7-1.4-3.1-3.1-3.1h-6.1c-1.7,0-3.1,1.4-3.1,3.1s1.4,3.1,3.1,3.1h6.1
							C1113.6,180.1,1115,178.7,1115,177C1115,177,1115,177,1115,177z"/>
						<path class="st3" d="M1164,164.7c0-1.7-1.4-3.1-3.1-3.1h-36.8c-1.7,0-3.1,1.4-3.1,3.1c0,1.7,1.4,3.1,3.1,3.1h36.9
							C1162.7,167.7,1164,166.4,1164,164.7z"/>
						<path class="st3" d="M1102.7,164.7c0-1.7-1.4-3.1-3.1-3.1h-12.3c-1.7,0-3.1,1.4-3.1,3.1c0,1.7,1.4,3.1,3.1,3.1h12.3
							C1101.3,167.8,1102.7,166.4,1102.7,164.7z"/>
						<path class="st3" d="M1249.9,152.4c0-1.7-1.4-3.1-3.1-3.1h-55.2c-1.7,0-3.1,1.4-3.1,3.1c0,1.7,1.4,3.1,3.1,3.1h55.2
							C1248.6,155.5,1249.9,154.1,1249.9,152.4z"/>
						<path class="st3" d="M1176.3,152.4c0-1.7-1.4-3.1-3.1-3.1h-24.5c-1.7,0-3.1,1.4-3.1,3.1c0,1.7,1.4,3.1,3.1,3.1h24.5
							C1174.9,155.5,1176.3,154.1,1176.3,152.4z"/>
						<path class="st3" d="M1127.2,152.4c0-1.7-1.4-3.1-3.1-3.1h-18.4c-1.7,0-3.1,1.4-3.1,3.1c0,1.7,1.4,3.1,3.1,3.1h18.4
							C1125.8,155.5,1127.2,154.1,1127.2,152.4z"/>
						<path class="st3" d="M1118,94.2h18.4c1.7,0,3.1-1.4,3.1-3.1c0,0,0,0,0,0H1115C1115,92.8,1116.3,94.1,1118,94.2z"/>
						<path class="st3" d="M1154.8,94.2h36.8c1.7,0,3.1-1.4,3.1-3.1c0,0,0,0,0,0h-43C1151.8,92.8,1153.1,94.2,1154.8,94.2
							L1154.8,94.2z"/>
						<path class="st3" d="M1145.6,140.2c0-1.7-1.4-3.1-3.1-3.1h-18.4c-1.7,0-3.1,1.4-3.1,3.1c0,1.7,1.4,3.1,3.1,3.1h18.4
							C1144.3,143.2,1145.6,141.9,1145.6,140.2z"/>
						<path class="st3" d="M1090.4,140.2c0-1.7-1.4-3.1-3.1-3.1h-6.1c-1.7,0-3.1,1.4-3.1,3.1c0,1.7,1.4,3.1,3.1,3.1h6.1
							C1089,143.2,1090.4,141.9,1090.4,140.2z"/>
						<path class="st3" d="M1093.5,94.2h6.1c1.7,0,3.1-1.4,3.1-3.1h-12.3C1090.4,92.8,1091.8,94.1,1093.5,94.2z"/>
						<path class="st3" d="M1157.9,127.9c0-1.7-1.4-3.1-3.1-3.1h-18.4c-1.7,0-3.1,1.4-3.1,3.1c0,1.7,1.4,3.1,3.1,3.1h18.4
							C1156.5,131,1157.9,129.6,1157.9,127.9z"/>
						<path class="st3" d="M1115,127.9c0-1.7-1.4-3.1-3.1-3.1h-6.1c-1.7,0-3.1,1.4-3.1,3.1c0,1.7,1.4,3.1,3.1,3.1h6.1
							C1113.6,131,1115,129.6,1115,127.9z"/>
						<path class="st3" d="M1176.3,103.3c0-1.7-1.4-3.1-3.1-3.1h-42.9c-1.7,0-3.1,1.4-3.1,3.1c0,1.7,1.4,3.1,3.1,3.1h42.9
							C1174.9,106.4,1176.3,105,1176.3,103.3z"/>
						<path class="st3" d="M1108.8,103.3c0-1.7-1.4-3.1-3.1-3.1h-6.1c-1.7,0-3.1,1.4-3.1,3.1c0,1.7,1.4,3.1,3.1,3.1h6.1
							C1107.5,106.4,1108.8,105.1,1108.8,103.3z"/>
						<path class="st3" d="M1127.2,115.6c0-1.7-1.4-3.1-3.1-3.1h-12.3c-1.7,0-3.1,1.4-3.1,3.1c0,1.7,1.4,3.1,3.1,3.1h12.3
							C1125.9,118.7,1127.2,117.3,1127.2,115.6z"/>
						<path class="st3" d="M1188.6,115.6c0-1.7-1.4-3.1-3.1-3.1h-36.8c-1.7,0-3.1,1.4-3.1,3.1c0,1.7,1.4,3.1,3.1,3.1h36.8
							C1187.2,118.7,1188.6,117.3,1188.6,115.6z"/>
						<path class="st3" d="M1090.4,115.6c0-1.7-1.4-3.1-3.1-3.1h-6.1c-1.7,0-3.1,1.4-3.1,3.1c0,1.7,1.4,3.1,3.1,3.1h6.1
							C1089,118.7,1090.4,117.3,1090.4,115.6z"/>
						<path class="st3" d="M1219.3,115.6c0-1.7-1.4-3.1-3.1-3.1h-12.3c-1.7,0-3.1,1.4-3.1,3.1c0,1.7,1.4,3.1,3.1,3.1h12.3
							C1217.9,118.7,1219.3,117.3,1219.3,115.6z"/>
						<path class="st3" d="M1078.2,189.3c0-1.7-1.4-3.1-3.1-3.1h-6.1c-1.7,0-3.1,1.4-3.1,3.1c0,1.7,1.4,3.1,3.1,3.1h6.1
							C1076.8,192.3,1078.1,190.9,1078.2,189.3z"/>
						<path class="st3" d="M1069,94.2c1.7,0,3-1.4,3-3.1h-6.1C1065.9,92.8,1067.3,94.2,1069,94.2L1069,94.2z"/>
						<path class="st3" d="M1072,226.1L1072,226.1c0.1-1.7-1.2-3.1-2.9-3.2c-1.7-0.1-3.1,1.2-3.2,2.9c0,0.1,0,0.2,0,0.4l0,0
							c-0.1,1.7,1.2,3.1,2.9,3.2c1.7,0.1,3.1-1.2,3.2-2.9C1072,226.3,1072,226.2,1072,226.1z"/>
						<circle class="st3" cx="1062.8" cy="164.7" r="3.1"/>
						<path class="st3" d="M1213.1,140.2c0-1.7-1.4-3.1-3.1-3.1h-12.3c-1.7,0-3.1-1.4-3.1-3.1c0-1.7,1.4-3.1,3.1-3.1h24.5
							c1.7,0,3.1-1.4,3.1-3.1c0-1.7-1.4-3.1-3.1-3.1h-49c-1.7,0-3.1,1.4-3.1,3.1c0,1.7,1.4,3.1,3.1,3.1h12.3c1.7,0,3.1,1.4,3.1,3.1
							c0,1.7-1.4,3.1-3.1,3.1H1161c-1.7,0-3.1,1.4-3.1,3.1c0,1.7,1.4,3.1,3.1,3.1h49.1C1211.8,143.2,1213.1,141.8,1213.1,140.2z"/>
					</g>
				</g>
			</g>
		</g>
	</g>
</g>
</svg>
